G04 #@! TF.GenerationSoftware,KiCad,Pcbnew,(5.1.10)-1*
G04 #@! TF.CreationDate,2021-08-11T14:43:18-03:00*
G04 #@! TF.ProjectId,BQ25505,42513235-3530-4352-9e6b-696361645f70,rev?*
G04 #@! TF.SameCoordinates,Original*
G04 #@! TF.FileFunction,Paste,Top*
G04 #@! TF.FilePolarity,Positive*
%FSLAX46Y46*%
G04 Gerber Fmt 4.6, Leading zero omitted, Abs format (unit mm)*
G04 Created by KiCad (PCBNEW (5.1.10)-1) date 2021-08-11 14:43:18*
%MOMM*%
%LPD*%
G01*
G04 APERTURE LIST*
%ADD10C,0.100000*%
%ADD11R,0.900000X0.800000*%
%ADD12R,2.050000X2.050000*%
%ADD13R,0.280000X0.850000*%
%ADD14R,0.850000X0.280000*%
%ADD15R,0.800000X0.900000*%
G04 APERTURE END LIST*
D10*
G36*
X215203930Y-150183930D02*
G01*
X215203930Y-150640300D01*
X215518879Y-150640300D01*
X215660300Y-150498879D01*
X215660300Y-150183930D01*
X215203930Y-150183930D01*
G37*
X215203930Y-150183930D02*
X215203930Y-150640300D01*
X215518879Y-150640300D01*
X215660300Y-150498879D01*
X215660300Y-150183930D01*
X215203930Y-150183930D01*
G36*
X215203930Y-150840300D02*
G01*
X215203930Y-151427700D01*
X215518879Y-151427700D01*
X215660300Y-151286279D01*
X215660300Y-150981721D01*
X215518879Y-150840300D01*
X215203930Y-150840300D01*
G37*
X215203930Y-150840300D02*
X215203930Y-151427700D01*
X215518879Y-151427700D01*
X215660300Y-151286279D01*
X215660300Y-150981721D01*
X215518879Y-150840300D01*
X215203930Y-150840300D01*
G36*
X215203930Y-151627700D02*
G01*
X215203930Y-152084070D01*
X215660300Y-152084070D01*
X215660300Y-151769121D01*
X215518879Y-151627700D01*
X215203930Y-151627700D01*
G37*
X215203930Y-151627700D02*
X215203930Y-152084070D01*
X215660300Y-152084070D01*
X215660300Y-151769121D01*
X215518879Y-151627700D01*
X215203930Y-151627700D01*
G36*
X215860300Y-150183930D02*
G01*
X215860300Y-150498879D01*
X216001721Y-150640300D01*
X216306279Y-150640300D01*
X216447700Y-150498879D01*
X216447700Y-150183930D01*
X215860300Y-150183930D01*
G37*
X215860300Y-150183930D02*
X215860300Y-150498879D01*
X216001721Y-150640300D01*
X216306279Y-150640300D01*
X216447700Y-150498879D01*
X216447700Y-150183930D01*
X215860300Y-150183930D01*
G36*
X216001721Y-150840300D02*
G01*
X215860300Y-150981721D01*
X215860300Y-151286279D01*
X216001721Y-151427700D01*
X216306279Y-151427700D01*
X216447700Y-151286279D01*
X216447700Y-150981721D01*
X216306279Y-150840300D01*
X216001721Y-150840300D01*
G37*
X216001721Y-150840300D02*
X215860300Y-150981721D01*
X215860300Y-151286279D01*
X216001721Y-151427700D01*
X216306279Y-151427700D01*
X216447700Y-151286279D01*
X216447700Y-150981721D01*
X216306279Y-150840300D01*
X216001721Y-150840300D01*
G36*
X216001721Y-151627700D02*
G01*
X215860300Y-151769121D01*
X215860300Y-152084070D01*
X216447700Y-152084070D01*
X216447700Y-151769121D01*
X216306279Y-151627700D01*
X216001721Y-151627700D01*
G37*
X216001721Y-151627700D02*
X215860300Y-151769121D01*
X215860300Y-152084070D01*
X216447700Y-152084070D01*
X216447700Y-151769121D01*
X216306279Y-151627700D01*
X216001721Y-151627700D01*
G36*
X216647700Y-150183930D02*
G01*
X216647700Y-150498879D01*
X216789121Y-150640300D01*
X217104070Y-150640300D01*
X217104070Y-150183930D01*
X216647700Y-150183930D01*
G37*
X216647700Y-150183930D02*
X216647700Y-150498879D01*
X216789121Y-150640300D01*
X217104070Y-150640300D01*
X217104070Y-150183930D01*
X216647700Y-150183930D01*
G36*
X216789121Y-150840300D02*
G01*
X216647700Y-150981721D01*
X216647700Y-151286279D01*
X216789121Y-151427700D01*
X217104070Y-151427700D01*
X217104070Y-150840300D01*
X216789121Y-150840300D01*
G37*
X216789121Y-150840300D02*
X216647700Y-150981721D01*
X216647700Y-151286279D01*
X216789121Y-151427700D01*
X217104070Y-151427700D01*
X217104070Y-150840300D01*
X216789121Y-150840300D01*
G36*
X216789121Y-151627700D02*
G01*
X216647700Y-151769121D01*
X216647700Y-152084070D01*
X217104070Y-152084070D01*
X217104070Y-151627700D01*
X216789121Y-151627700D01*
G37*
X216789121Y-151627700D02*
X216647700Y-151769121D01*
X216647700Y-152084070D01*
X217104070Y-152084070D01*
X217104070Y-151627700D01*
X216789121Y-151627700D01*
G36*
X215203930Y-108523930D02*
G01*
X215203930Y-108980300D01*
X215518879Y-108980300D01*
X215660300Y-108838879D01*
X215660300Y-108523930D01*
X215203930Y-108523930D01*
G37*
X215203930Y-108523930D02*
X215203930Y-108980300D01*
X215518879Y-108980300D01*
X215660300Y-108838879D01*
X215660300Y-108523930D01*
X215203930Y-108523930D01*
G36*
X215203930Y-109180300D02*
G01*
X215203930Y-109767700D01*
X215518879Y-109767700D01*
X215660300Y-109626279D01*
X215660300Y-109321721D01*
X215518879Y-109180300D01*
X215203930Y-109180300D01*
G37*
X215203930Y-109180300D02*
X215203930Y-109767700D01*
X215518879Y-109767700D01*
X215660300Y-109626279D01*
X215660300Y-109321721D01*
X215518879Y-109180300D01*
X215203930Y-109180300D01*
G36*
X215203930Y-109967700D02*
G01*
X215203930Y-110424070D01*
X215660300Y-110424070D01*
X215660300Y-110109121D01*
X215518879Y-109967700D01*
X215203930Y-109967700D01*
G37*
X215203930Y-109967700D02*
X215203930Y-110424070D01*
X215660300Y-110424070D01*
X215660300Y-110109121D01*
X215518879Y-109967700D01*
X215203930Y-109967700D01*
G36*
X215860300Y-108523930D02*
G01*
X215860300Y-108838879D01*
X216001721Y-108980300D01*
X216306279Y-108980300D01*
X216447700Y-108838879D01*
X216447700Y-108523930D01*
X215860300Y-108523930D01*
G37*
X215860300Y-108523930D02*
X215860300Y-108838879D01*
X216001721Y-108980300D01*
X216306279Y-108980300D01*
X216447700Y-108838879D01*
X216447700Y-108523930D01*
X215860300Y-108523930D01*
G36*
X216001721Y-109180300D02*
G01*
X215860300Y-109321721D01*
X215860300Y-109626279D01*
X216001721Y-109767700D01*
X216306279Y-109767700D01*
X216447700Y-109626279D01*
X216447700Y-109321721D01*
X216306279Y-109180300D01*
X216001721Y-109180300D01*
G37*
X216001721Y-109180300D02*
X215860300Y-109321721D01*
X215860300Y-109626279D01*
X216001721Y-109767700D01*
X216306279Y-109767700D01*
X216447700Y-109626279D01*
X216447700Y-109321721D01*
X216306279Y-109180300D01*
X216001721Y-109180300D01*
G36*
X216001721Y-109967700D02*
G01*
X215860300Y-110109121D01*
X215860300Y-110424070D01*
X216447700Y-110424070D01*
X216447700Y-110109121D01*
X216306279Y-109967700D01*
X216001721Y-109967700D01*
G37*
X216001721Y-109967700D02*
X215860300Y-110109121D01*
X215860300Y-110424070D01*
X216447700Y-110424070D01*
X216447700Y-110109121D01*
X216306279Y-109967700D01*
X216001721Y-109967700D01*
G36*
X216647700Y-108523930D02*
G01*
X216647700Y-108838879D01*
X216789121Y-108980300D01*
X217104070Y-108980300D01*
X217104070Y-108523930D01*
X216647700Y-108523930D01*
G37*
X216647700Y-108523930D02*
X216647700Y-108838879D01*
X216789121Y-108980300D01*
X217104070Y-108980300D01*
X217104070Y-108523930D01*
X216647700Y-108523930D01*
G36*
X216789121Y-109180300D02*
G01*
X216647700Y-109321721D01*
X216647700Y-109626279D01*
X216789121Y-109767700D01*
X217104070Y-109767700D01*
X217104070Y-109180300D01*
X216789121Y-109180300D01*
G37*
X216789121Y-109180300D02*
X216647700Y-109321721D01*
X216647700Y-109626279D01*
X216789121Y-109767700D01*
X217104070Y-109767700D01*
X217104070Y-109180300D01*
X216789121Y-109180300D01*
G36*
X216789121Y-109967700D02*
G01*
X216647700Y-110109121D01*
X216647700Y-110424070D01*
X217104070Y-110424070D01*
X217104070Y-109967700D01*
X216789121Y-109967700D01*
G37*
X216789121Y-109967700D02*
X216647700Y-110109121D01*
X216647700Y-110424070D01*
X217104070Y-110424070D01*
X217104070Y-109967700D01*
X216789121Y-109967700D01*
G36*
X174563930Y-150183930D02*
G01*
X174563930Y-150640300D01*
X174878879Y-150640300D01*
X175020300Y-150498879D01*
X175020300Y-150183930D01*
X174563930Y-150183930D01*
G37*
X174563930Y-150183930D02*
X174563930Y-150640300D01*
X174878879Y-150640300D01*
X175020300Y-150498879D01*
X175020300Y-150183930D01*
X174563930Y-150183930D01*
G36*
X174563930Y-150840300D02*
G01*
X174563930Y-151427700D01*
X174878879Y-151427700D01*
X175020300Y-151286279D01*
X175020300Y-150981721D01*
X174878879Y-150840300D01*
X174563930Y-150840300D01*
G37*
X174563930Y-150840300D02*
X174563930Y-151427700D01*
X174878879Y-151427700D01*
X175020300Y-151286279D01*
X175020300Y-150981721D01*
X174878879Y-150840300D01*
X174563930Y-150840300D01*
G36*
X174563930Y-151627700D02*
G01*
X174563930Y-152084070D01*
X175020300Y-152084070D01*
X175020300Y-151769121D01*
X174878879Y-151627700D01*
X174563930Y-151627700D01*
G37*
X174563930Y-151627700D02*
X174563930Y-152084070D01*
X175020300Y-152084070D01*
X175020300Y-151769121D01*
X174878879Y-151627700D01*
X174563930Y-151627700D01*
G36*
X175220300Y-150183930D02*
G01*
X175220300Y-150498879D01*
X175361721Y-150640300D01*
X175666279Y-150640300D01*
X175807700Y-150498879D01*
X175807700Y-150183930D01*
X175220300Y-150183930D01*
G37*
X175220300Y-150183930D02*
X175220300Y-150498879D01*
X175361721Y-150640300D01*
X175666279Y-150640300D01*
X175807700Y-150498879D01*
X175807700Y-150183930D01*
X175220300Y-150183930D01*
G36*
X175361721Y-150840300D02*
G01*
X175220300Y-150981721D01*
X175220300Y-151286279D01*
X175361721Y-151427700D01*
X175666279Y-151427700D01*
X175807700Y-151286279D01*
X175807700Y-150981721D01*
X175666279Y-150840300D01*
X175361721Y-150840300D01*
G37*
X175361721Y-150840300D02*
X175220300Y-150981721D01*
X175220300Y-151286279D01*
X175361721Y-151427700D01*
X175666279Y-151427700D01*
X175807700Y-151286279D01*
X175807700Y-150981721D01*
X175666279Y-150840300D01*
X175361721Y-150840300D01*
G36*
X175361721Y-151627700D02*
G01*
X175220300Y-151769121D01*
X175220300Y-152084070D01*
X175807700Y-152084070D01*
X175807700Y-151769121D01*
X175666279Y-151627700D01*
X175361721Y-151627700D01*
G37*
X175361721Y-151627700D02*
X175220300Y-151769121D01*
X175220300Y-152084070D01*
X175807700Y-152084070D01*
X175807700Y-151769121D01*
X175666279Y-151627700D01*
X175361721Y-151627700D01*
G36*
X176007700Y-150183930D02*
G01*
X176007700Y-150498879D01*
X176149121Y-150640300D01*
X176464070Y-150640300D01*
X176464070Y-150183930D01*
X176007700Y-150183930D01*
G37*
X176007700Y-150183930D02*
X176007700Y-150498879D01*
X176149121Y-150640300D01*
X176464070Y-150640300D01*
X176464070Y-150183930D01*
X176007700Y-150183930D01*
G36*
X176149121Y-150840300D02*
G01*
X176007700Y-150981721D01*
X176007700Y-151286279D01*
X176149121Y-151427700D01*
X176464070Y-151427700D01*
X176464070Y-150840300D01*
X176149121Y-150840300D01*
G37*
X176149121Y-150840300D02*
X176007700Y-150981721D01*
X176007700Y-151286279D01*
X176149121Y-151427700D01*
X176464070Y-151427700D01*
X176464070Y-150840300D01*
X176149121Y-150840300D01*
G36*
X176149121Y-151627700D02*
G01*
X176007700Y-151769121D01*
X176007700Y-152084070D01*
X176464070Y-152084070D01*
X176464070Y-151627700D01*
X176149121Y-151627700D01*
G37*
X176149121Y-151627700D02*
X176007700Y-151769121D01*
X176007700Y-152084070D01*
X176464070Y-152084070D01*
X176464070Y-151627700D01*
X176149121Y-151627700D01*
G36*
X176149121Y-109967700D02*
G01*
X176007700Y-110109121D01*
X176007700Y-110424070D01*
X176464070Y-110424070D01*
X176464070Y-109967700D01*
X176149121Y-109967700D01*
G37*
X176149121Y-109967700D02*
X176007700Y-110109121D01*
X176007700Y-110424070D01*
X176464070Y-110424070D01*
X176464070Y-109967700D01*
X176149121Y-109967700D01*
G36*
X176149121Y-109180300D02*
G01*
X176007700Y-109321721D01*
X176007700Y-109626279D01*
X176149121Y-109767700D01*
X176464070Y-109767700D01*
X176464070Y-109180300D01*
X176149121Y-109180300D01*
G37*
X176149121Y-109180300D02*
X176007700Y-109321721D01*
X176007700Y-109626279D01*
X176149121Y-109767700D01*
X176464070Y-109767700D01*
X176464070Y-109180300D01*
X176149121Y-109180300D01*
G36*
X176007700Y-108523930D02*
G01*
X176007700Y-108838879D01*
X176149121Y-108980300D01*
X176464070Y-108980300D01*
X176464070Y-108523930D01*
X176007700Y-108523930D01*
G37*
X176007700Y-108523930D02*
X176007700Y-108838879D01*
X176149121Y-108980300D01*
X176464070Y-108980300D01*
X176464070Y-108523930D01*
X176007700Y-108523930D01*
G36*
X175361721Y-109967700D02*
G01*
X175220300Y-110109121D01*
X175220300Y-110424070D01*
X175807700Y-110424070D01*
X175807700Y-110109121D01*
X175666279Y-109967700D01*
X175361721Y-109967700D01*
G37*
X175361721Y-109967700D02*
X175220300Y-110109121D01*
X175220300Y-110424070D01*
X175807700Y-110424070D01*
X175807700Y-110109121D01*
X175666279Y-109967700D01*
X175361721Y-109967700D01*
G36*
X175361721Y-109180300D02*
G01*
X175220300Y-109321721D01*
X175220300Y-109626279D01*
X175361721Y-109767700D01*
X175666279Y-109767700D01*
X175807700Y-109626279D01*
X175807700Y-109321721D01*
X175666279Y-109180300D01*
X175361721Y-109180300D01*
G37*
X175361721Y-109180300D02*
X175220300Y-109321721D01*
X175220300Y-109626279D01*
X175361721Y-109767700D01*
X175666279Y-109767700D01*
X175807700Y-109626279D01*
X175807700Y-109321721D01*
X175666279Y-109180300D01*
X175361721Y-109180300D01*
G36*
X175220300Y-108523930D02*
G01*
X175220300Y-108838879D01*
X175361721Y-108980300D01*
X175666279Y-108980300D01*
X175807700Y-108838879D01*
X175807700Y-108523930D01*
X175220300Y-108523930D01*
G37*
X175220300Y-108523930D02*
X175220300Y-108838879D01*
X175361721Y-108980300D01*
X175666279Y-108980300D01*
X175807700Y-108838879D01*
X175807700Y-108523930D01*
X175220300Y-108523930D01*
G36*
X174563930Y-109967700D02*
G01*
X174563930Y-110424070D01*
X175020300Y-110424070D01*
X175020300Y-110109121D01*
X174878879Y-109967700D01*
X174563930Y-109967700D01*
G37*
X174563930Y-109967700D02*
X174563930Y-110424070D01*
X175020300Y-110424070D01*
X175020300Y-110109121D01*
X174878879Y-109967700D01*
X174563930Y-109967700D01*
G36*
X174563930Y-109180300D02*
G01*
X174563930Y-109767700D01*
X174878879Y-109767700D01*
X175020300Y-109626279D01*
X175020300Y-109321721D01*
X174878879Y-109180300D01*
X174563930Y-109180300D01*
G37*
X174563930Y-109180300D02*
X174563930Y-109767700D01*
X174878879Y-109767700D01*
X175020300Y-109626279D01*
X175020300Y-109321721D01*
X174878879Y-109180300D01*
X174563930Y-109180300D01*
G36*
X174563930Y-108523930D02*
G01*
X174563930Y-108980300D01*
X174878879Y-108980300D01*
X175020300Y-108838879D01*
X175020300Y-108523930D01*
X174563930Y-108523930D01*
G37*
X174563930Y-108523930D02*
X174563930Y-108980300D01*
X174878879Y-108980300D01*
X175020300Y-108838879D01*
X175020300Y-108523930D01*
X174563930Y-108523930D01*
G36*
G01*
X212389000Y-156489000D02*
X212389000Y-155939000D01*
G75*
G02*
X212589000Y-155739000I200000J0D01*
G01*
X212989000Y-155739000D01*
G75*
G02*
X213189000Y-155939000I0J-200000D01*
G01*
X213189000Y-156489000D01*
G75*
G02*
X212989000Y-156689000I-200000J0D01*
G01*
X212589000Y-156689000D01*
G75*
G02*
X212389000Y-156489000I0J200000D01*
G01*
G37*
G36*
G01*
X214039000Y-156489000D02*
X214039000Y-155939000D01*
G75*
G02*
X214239000Y-155739000I200000J0D01*
G01*
X214639000Y-155739000D01*
G75*
G02*
X214839000Y-155939000I0J-200000D01*
G01*
X214839000Y-156489000D01*
G75*
G02*
X214639000Y-156689000I-200000J0D01*
G01*
X214239000Y-156689000D01*
G75*
G02*
X214039000Y-156489000I0J200000D01*
G01*
G37*
G36*
G01*
X212389000Y-114829000D02*
X212389000Y-114279000D01*
G75*
G02*
X212589000Y-114079000I200000J0D01*
G01*
X212989000Y-114079000D01*
G75*
G02*
X213189000Y-114279000I0J-200000D01*
G01*
X213189000Y-114829000D01*
G75*
G02*
X212989000Y-115029000I-200000J0D01*
G01*
X212589000Y-115029000D01*
G75*
G02*
X212389000Y-114829000I0J200000D01*
G01*
G37*
G36*
G01*
X214039000Y-114829000D02*
X214039000Y-114279000D01*
G75*
G02*
X214239000Y-114079000I200000J0D01*
G01*
X214639000Y-114079000D01*
G75*
G02*
X214839000Y-114279000I0J-200000D01*
G01*
X214839000Y-114829000D01*
G75*
G02*
X214639000Y-115029000I-200000J0D01*
G01*
X214239000Y-115029000D01*
G75*
G02*
X214039000Y-114829000I0J200000D01*
G01*
G37*
G36*
G01*
X171749000Y-156489000D02*
X171749000Y-155939000D01*
G75*
G02*
X171949000Y-155739000I200000J0D01*
G01*
X172349000Y-155739000D01*
G75*
G02*
X172549000Y-155939000I0J-200000D01*
G01*
X172549000Y-156489000D01*
G75*
G02*
X172349000Y-156689000I-200000J0D01*
G01*
X171949000Y-156689000D01*
G75*
G02*
X171749000Y-156489000I0J200000D01*
G01*
G37*
G36*
G01*
X173399000Y-156489000D02*
X173399000Y-155939000D01*
G75*
G02*
X173599000Y-155739000I200000J0D01*
G01*
X173999000Y-155739000D01*
G75*
G02*
X174199000Y-155939000I0J-200000D01*
G01*
X174199000Y-156489000D01*
G75*
G02*
X173999000Y-156689000I-200000J0D01*
G01*
X173599000Y-156689000D01*
G75*
G02*
X173399000Y-156489000I0J200000D01*
G01*
G37*
G36*
G01*
X222978300Y-150721800D02*
X223528300Y-150721800D01*
G75*
G02*
X223728300Y-150921800I0J-200000D01*
G01*
X223728300Y-151321800D01*
G75*
G02*
X223528300Y-151521800I-200000J0D01*
G01*
X222978300Y-151521800D01*
G75*
G02*
X222778300Y-151321800I0J200000D01*
G01*
X222778300Y-150921800D01*
G75*
G02*
X222978300Y-150721800I200000J0D01*
G01*
G37*
G36*
G01*
X222978300Y-152371800D02*
X223528300Y-152371800D01*
G75*
G02*
X223728300Y-152571800I0J-200000D01*
G01*
X223728300Y-152971800D01*
G75*
G02*
X223528300Y-153171800I-200000J0D01*
G01*
X222978300Y-153171800D01*
G75*
G02*
X222778300Y-152971800I0J200000D01*
G01*
X222778300Y-152571800D01*
G75*
G02*
X222978300Y-152371800I200000J0D01*
G01*
G37*
G36*
G01*
X222978300Y-109061800D02*
X223528300Y-109061800D01*
G75*
G02*
X223728300Y-109261800I0J-200000D01*
G01*
X223728300Y-109661800D01*
G75*
G02*
X223528300Y-109861800I-200000J0D01*
G01*
X222978300Y-109861800D01*
G75*
G02*
X222778300Y-109661800I0J200000D01*
G01*
X222778300Y-109261800D01*
G75*
G02*
X222978300Y-109061800I200000J0D01*
G01*
G37*
G36*
G01*
X222978300Y-110711800D02*
X223528300Y-110711800D01*
G75*
G02*
X223728300Y-110911800I0J-200000D01*
G01*
X223728300Y-111311800D01*
G75*
G02*
X223528300Y-111511800I-200000J0D01*
G01*
X222978300Y-111511800D01*
G75*
G02*
X222778300Y-111311800I0J200000D01*
G01*
X222778300Y-110911800D01*
G75*
G02*
X222978300Y-110711800I200000J0D01*
G01*
G37*
G36*
G01*
X182338300Y-150721800D02*
X182888300Y-150721800D01*
G75*
G02*
X183088300Y-150921800I0J-200000D01*
G01*
X183088300Y-151321800D01*
G75*
G02*
X182888300Y-151521800I-200000J0D01*
G01*
X182338300Y-151521800D01*
G75*
G02*
X182138300Y-151321800I0J200000D01*
G01*
X182138300Y-150921800D01*
G75*
G02*
X182338300Y-150721800I200000J0D01*
G01*
G37*
G36*
G01*
X182338300Y-152371800D02*
X182888300Y-152371800D01*
G75*
G02*
X183088300Y-152571800I0J-200000D01*
G01*
X183088300Y-152971800D01*
G75*
G02*
X182888300Y-153171800I-200000J0D01*
G01*
X182338300Y-153171800D01*
G75*
G02*
X182138300Y-152971800I0J200000D01*
G01*
X182138300Y-152571800D01*
G75*
G02*
X182338300Y-152371800I200000J0D01*
G01*
G37*
G36*
G01*
X217469000Y-156489000D02*
X217469000Y-155939000D01*
G75*
G02*
X217669000Y-155739000I200000J0D01*
G01*
X218069000Y-155739000D01*
G75*
G02*
X218269000Y-155939000I0J-200000D01*
G01*
X218269000Y-156489000D01*
G75*
G02*
X218069000Y-156689000I-200000J0D01*
G01*
X217669000Y-156689000D01*
G75*
G02*
X217469000Y-156489000I0J200000D01*
G01*
G37*
G36*
G01*
X219119000Y-156489000D02*
X219119000Y-155939000D01*
G75*
G02*
X219319000Y-155739000I200000J0D01*
G01*
X219719000Y-155739000D01*
G75*
G02*
X219919000Y-155939000I0J-200000D01*
G01*
X219919000Y-156489000D01*
G75*
G02*
X219719000Y-156689000I-200000J0D01*
G01*
X219319000Y-156689000D01*
G75*
G02*
X219119000Y-156489000I0J200000D01*
G01*
G37*
G36*
G01*
X217469000Y-114829000D02*
X217469000Y-114279000D01*
G75*
G02*
X217669000Y-114079000I200000J0D01*
G01*
X218069000Y-114079000D01*
G75*
G02*
X218269000Y-114279000I0J-200000D01*
G01*
X218269000Y-114829000D01*
G75*
G02*
X218069000Y-115029000I-200000J0D01*
G01*
X217669000Y-115029000D01*
G75*
G02*
X217469000Y-114829000I0J200000D01*
G01*
G37*
G36*
G01*
X219119000Y-114829000D02*
X219119000Y-114279000D01*
G75*
G02*
X219319000Y-114079000I200000J0D01*
G01*
X219719000Y-114079000D01*
G75*
G02*
X219919000Y-114279000I0J-200000D01*
G01*
X219919000Y-114829000D01*
G75*
G02*
X219719000Y-115029000I-200000J0D01*
G01*
X219319000Y-115029000D01*
G75*
G02*
X219119000Y-114829000I0J200000D01*
G01*
G37*
G36*
G01*
X176829000Y-156489000D02*
X176829000Y-155939000D01*
G75*
G02*
X177029000Y-155739000I200000J0D01*
G01*
X177429000Y-155739000D01*
G75*
G02*
X177629000Y-155939000I0J-200000D01*
G01*
X177629000Y-156489000D01*
G75*
G02*
X177429000Y-156689000I-200000J0D01*
G01*
X177029000Y-156689000D01*
G75*
G02*
X176829000Y-156489000I0J200000D01*
G01*
G37*
G36*
G01*
X178479000Y-156489000D02*
X178479000Y-155939000D01*
G75*
G02*
X178679000Y-155739000I200000J0D01*
G01*
X179079000Y-155739000D01*
G75*
G02*
X179279000Y-155939000I0J-200000D01*
G01*
X179279000Y-156489000D01*
G75*
G02*
X179079000Y-156689000I-200000J0D01*
G01*
X178679000Y-156689000D01*
G75*
G02*
X178479000Y-156489000I0J200000D01*
G01*
G37*
G36*
G01*
X209047500Y-151520501D02*
X209047500Y-150620499D01*
G75*
G02*
X209297499Y-150370500I249999J0D01*
G01*
X209947501Y-150370500D01*
G75*
G02*
X210197500Y-150620499I0J-249999D01*
G01*
X210197500Y-151520501D01*
G75*
G02*
X209947501Y-151770500I-249999J0D01*
G01*
X209297499Y-151770500D01*
G75*
G02*
X209047500Y-151520501I0J249999D01*
G01*
G37*
G36*
G01*
X206997500Y-151520501D02*
X206997500Y-150620499D01*
G75*
G02*
X207247499Y-150370500I249999J0D01*
G01*
X207897501Y-150370500D01*
G75*
G02*
X208147500Y-150620499I0J-249999D01*
G01*
X208147500Y-151520501D01*
G75*
G02*
X207897501Y-151770500I-249999J0D01*
G01*
X207247499Y-151770500D01*
G75*
G02*
X206997500Y-151520501I0J249999D01*
G01*
G37*
G36*
G01*
X209047500Y-109860501D02*
X209047500Y-108960499D01*
G75*
G02*
X209297499Y-108710500I249999J0D01*
G01*
X209947501Y-108710500D01*
G75*
G02*
X210197500Y-108960499I0J-249999D01*
G01*
X210197500Y-109860501D01*
G75*
G02*
X209947501Y-110110500I-249999J0D01*
G01*
X209297499Y-110110500D01*
G75*
G02*
X209047500Y-109860501I0J249999D01*
G01*
G37*
G36*
G01*
X206997500Y-109860501D02*
X206997500Y-108960499D01*
G75*
G02*
X207247499Y-108710500I249999J0D01*
G01*
X207897501Y-108710500D01*
G75*
G02*
X208147500Y-108960499I0J-249999D01*
G01*
X208147500Y-109860501D01*
G75*
G02*
X207897501Y-110110500I-249999J0D01*
G01*
X207247499Y-110110500D01*
G75*
G02*
X206997500Y-109860501I0J249999D01*
G01*
G37*
G36*
G01*
X168407500Y-151520501D02*
X168407500Y-150620499D01*
G75*
G02*
X168657499Y-150370500I249999J0D01*
G01*
X169307501Y-150370500D01*
G75*
G02*
X169557500Y-150620499I0J-249999D01*
G01*
X169557500Y-151520501D01*
G75*
G02*
X169307501Y-151770500I-249999J0D01*
G01*
X168657499Y-151770500D01*
G75*
G02*
X168407500Y-151520501I0J249999D01*
G01*
G37*
G36*
G01*
X166357500Y-151520501D02*
X166357500Y-150620499D01*
G75*
G02*
X166607499Y-150370500I249999J0D01*
G01*
X167257501Y-150370500D01*
G75*
G02*
X167507500Y-150620499I0J-249999D01*
G01*
X167507500Y-151520501D01*
G75*
G02*
X167257501Y-151770500I-249999J0D01*
G01*
X166607499Y-151770500D01*
G75*
G02*
X166357500Y-151520501I0J249999D01*
G01*
G37*
G36*
G01*
X214704000Y-146275000D02*
X214704000Y-145325000D01*
G75*
G02*
X214954000Y-145075000I250000J0D01*
G01*
X215454000Y-145075000D01*
G75*
G02*
X215704000Y-145325000I0J-250000D01*
G01*
X215704000Y-146275000D01*
G75*
G02*
X215454000Y-146525000I-250000J0D01*
G01*
X214954000Y-146525000D01*
G75*
G02*
X214704000Y-146275000I0J250000D01*
G01*
G37*
G36*
G01*
X216604000Y-146275000D02*
X216604000Y-145325000D01*
G75*
G02*
X216854000Y-145075000I250000J0D01*
G01*
X217354000Y-145075000D01*
G75*
G02*
X217604000Y-145325000I0J-250000D01*
G01*
X217604000Y-146275000D01*
G75*
G02*
X217354000Y-146525000I-250000J0D01*
G01*
X216854000Y-146525000D01*
G75*
G02*
X216604000Y-146275000I0J250000D01*
G01*
G37*
G36*
G01*
X214704000Y-104615000D02*
X214704000Y-103665000D01*
G75*
G02*
X214954000Y-103415000I250000J0D01*
G01*
X215454000Y-103415000D01*
G75*
G02*
X215704000Y-103665000I0J-250000D01*
G01*
X215704000Y-104615000D01*
G75*
G02*
X215454000Y-104865000I-250000J0D01*
G01*
X214954000Y-104865000D01*
G75*
G02*
X214704000Y-104615000I0J250000D01*
G01*
G37*
G36*
G01*
X216604000Y-104615000D02*
X216604000Y-103665000D01*
G75*
G02*
X216854000Y-103415000I250000J0D01*
G01*
X217354000Y-103415000D01*
G75*
G02*
X217604000Y-103665000I0J-250000D01*
G01*
X217604000Y-104615000D01*
G75*
G02*
X217354000Y-104865000I-250000J0D01*
G01*
X216854000Y-104865000D01*
G75*
G02*
X216604000Y-104615000I0J250000D01*
G01*
G37*
G36*
G01*
X174064000Y-146275000D02*
X174064000Y-145325000D01*
G75*
G02*
X174314000Y-145075000I250000J0D01*
G01*
X174814000Y-145075000D01*
G75*
G02*
X175064000Y-145325000I0J-250000D01*
G01*
X175064000Y-146275000D01*
G75*
G02*
X174814000Y-146525000I-250000J0D01*
G01*
X174314000Y-146525000D01*
G75*
G02*
X174064000Y-146275000I0J250000D01*
G01*
G37*
G36*
G01*
X175964000Y-146275000D02*
X175964000Y-145325000D01*
G75*
G02*
X176214000Y-145075000I250000J0D01*
G01*
X176714000Y-145075000D01*
G75*
G02*
X176964000Y-145325000I0J-250000D01*
G01*
X176964000Y-146275000D01*
G75*
G02*
X176714000Y-146525000I-250000J0D01*
G01*
X176214000Y-146525000D01*
G75*
G02*
X175964000Y-146275000I0J250000D01*
G01*
G37*
G36*
G01*
X214704000Y-141957000D02*
X214704000Y-141007000D01*
G75*
G02*
X214954000Y-140757000I250000J0D01*
G01*
X215454000Y-140757000D01*
G75*
G02*
X215704000Y-141007000I0J-250000D01*
G01*
X215704000Y-141957000D01*
G75*
G02*
X215454000Y-142207000I-250000J0D01*
G01*
X214954000Y-142207000D01*
G75*
G02*
X214704000Y-141957000I0J250000D01*
G01*
G37*
G36*
G01*
X216604000Y-141957000D02*
X216604000Y-141007000D01*
G75*
G02*
X216854000Y-140757000I250000J0D01*
G01*
X217354000Y-140757000D01*
G75*
G02*
X217604000Y-141007000I0J-250000D01*
G01*
X217604000Y-141957000D01*
G75*
G02*
X217354000Y-142207000I-250000J0D01*
G01*
X216854000Y-142207000D01*
G75*
G02*
X216604000Y-141957000I0J250000D01*
G01*
G37*
G36*
G01*
X214704000Y-100297000D02*
X214704000Y-99347000D01*
G75*
G02*
X214954000Y-99097000I250000J0D01*
G01*
X215454000Y-99097000D01*
G75*
G02*
X215704000Y-99347000I0J-250000D01*
G01*
X215704000Y-100297000D01*
G75*
G02*
X215454000Y-100547000I-250000J0D01*
G01*
X214954000Y-100547000D01*
G75*
G02*
X214704000Y-100297000I0J250000D01*
G01*
G37*
G36*
G01*
X216604000Y-100297000D02*
X216604000Y-99347000D01*
G75*
G02*
X216854000Y-99097000I250000J0D01*
G01*
X217354000Y-99097000D01*
G75*
G02*
X217604000Y-99347000I0J-250000D01*
G01*
X217604000Y-100297000D01*
G75*
G02*
X217354000Y-100547000I-250000J0D01*
G01*
X216854000Y-100547000D01*
G75*
G02*
X216604000Y-100297000I0J250000D01*
G01*
G37*
G36*
G01*
X174064000Y-141957000D02*
X174064000Y-141007000D01*
G75*
G02*
X174314000Y-140757000I250000J0D01*
G01*
X174814000Y-140757000D01*
G75*
G02*
X175064000Y-141007000I0J-250000D01*
G01*
X175064000Y-141957000D01*
G75*
G02*
X174814000Y-142207000I-250000J0D01*
G01*
X174314000Y-142207000D01*
G75*
G02*
X174064000Y-141957000I0J250000D01*
G01*
G37*
G36*
G01*
X175964000Y-141957000D02*
X175964000Y-141007000D01*
G75*
G02*
X176214000Y-140757000I250000J0D01*
G01*
X176714000Y-140757000D01*
G75*
G02*
X176964000Y-141007000I0J-250000D01*
G01*
X176964000Y-141957000D01*
G75*
G02*
X176714000Y-142207000I-250000J0D01*
G01*
X176214000Y-142207000D01*
G75*
G02*
X175964000Y-141957000I0J250000D01*
G01*
G37*
G36*
G01*
X214704000Y-144116000D02*
X214704000Y-143166000D01*
G75*
G02*
X214954000Y-142916000I250000J0D01*
G01*
X215454000Y-142916000D01*
G75*
G02*
X215704000Y-143166000I0J-250000D01*
G01*
X215704000Y-144116000D01*
G75*
G02*
X215454000Y-144366000I-250000J0D01*
G01*
X214954000Y-144366000D01*
G75*
G02*
X214704000Y-144116000I0J250000D01*
G01*
G37*
G36*
G01*
X216604000Y-144116000D02*
X216604000Y-143166000D01*
G75*
G02*
X216854000Y-142916000I250000J0D01*
G01*
X217354000Y-142916000D01*
G75*
G02*
X217604000Y-143166000I0J-250000D01*
G01*
X217604000Y-144116000D01*
G75*
G02*
X217354000Y-144366000I-250000J0D01*
G01*
X216854000Y-144366000D01*
G75*
G02*
X216604000Y-144116000I0J250000D01*
G01*
G37*
G36*
G01*
X214704000Y-102456000D02*
X214704000Y-101506000D01*
G75*
G02*
X214954000Y-101256000I250000J0D01*
G01*
X215454000Y-101256000D01*
G75*
G02*
X215704000Y-101506000I0J-250000D01*
G01*
X215704000Y-102456000D01*
G75*
G02*
X215454000Y-102706000I-250000J0D01*
G01*
X214954000Y-102706000D01*
G75*
G02*
X214704000Y-102456000I0J250000D01*
G01*
G37*
G36*
G01*
X216604000Y-102456000D02*
X216604000Y-101506000D01*
G75*
G02*
X216854000Y-101256000I250000J0D01*
G01*
X217354000Y-101256000D01*
G75*
G02*
X217604000Y-101506000I0J-250000D01*
G01*
X217604000Y-102456000D01*
G75*
G02*
X217354000Y-102706000I-250000J0D01*
G01*
X216854000Y-102706000D01*
G75*
G02*
X216604000Y-102456000I0J250000D01*
G01*
G37*
G36*
G01*
X174064000Y-144116000D02*
X174064000Y-143166000D01*
G75*
G02*
X174314000Y-142916000I250000J0D01*
G01*
X174814000Y-142916000D01*
G75*
G02*
X175064000Y-143166000I0J-250000D01*
G01*
X175064000Y-144116000D01*
G75*
G02*
X174814000Y-144366000I-250000J0D01*
G01*
X174314000Y-144366000D01*
G75*
G02*
X174064000Y-144116000I0J250000D01*
G01*
G37*
G36*
G01*
X175964000Y-144116000D02*
X175964000Y-143166000D01*
G75*
G02*
X176214000Y-142916000I250000J0D01*
G01*
X176714000Y-142916000D01*
G75*
G02*
X176964000Y-143166000I0J-250000D01*
G01*
X176964000Y-144116000D01*
G75*
G02*
X176714000Y-144366000I-250000J0D01*
G01*
X176214000Y-144366000D01*
G75*
G02*
X175964000Y-144116000I0J250000D01*
G01*
G37*
G36*
G01*
X208084000Y-154977000D02*
X208084000Y-155927000D01*
G75*
G02*
X207834000Y-156177000I-250000J0D01*
G01*
X207334000Y-156177000D01*
G75*
G02*
X207084000Y-155927000I0J250000D01*
G01*
X207084000Y-154977000D01*
G75*
G02*
X207334000Y-154727000I250000J0D01*
G01*
X207834000Y-154727000D01*
G75*
G02*
X208084000Y-154977000I0J-250000D01*
G01*
G37*
G36*
G01*
X209984000Y-154977000D02*
X209984000Y-155927000D01*
G75*
G02*
X209734000Y-156177000I-250000J0D01*
G01*
X209234000Y-156177000D01*
G75*
G02*
X208984000Y-155927000I0J250000D01*
G01*
X208984000Y-154977000D01*
G75*
G02*
X209234000Y-154727000I250000J0D01*
G01*
X209734000Y-154727000D01*
G75*
G02*
X209984000Y-154977000I0J-250000D01*
G01*
G37*
G36*
G01*
X208084000Y-113317000D02*
X208084000Y-114267000D01*
G75*
G02*
X207834000Y-114517000I-250000J0D01*
G01*
X207334000Y-114517000D01*
G75*
G02*
X207084000Y-114267000I0J250000D01*
G01*
X207084000Y-113317000D01*
G75*
G02*
X207334000Y-113067000I250000J0D01*
G01*
X207834000Y-113067000D01*
G75*
G02*
X208084000Y-113317000I0J-250000D01*
G01*
G37*
G36*
G01*
X209984000Y-113317000D02*
X209984000Y-114267000D01*
G75*
G02*
X209734000Y-114517000I-250000J0D01*
G01*
X209234000Y-114517000D01*
G75*
G02*
X208984000Y-114267000I0J250000D01*
G01*
X208984000Y-113317000D01*
G75*
G02*
X209234000Y-113067000I250000J0D01*
G01*
X209734000Y-113067000D01*
G75*
G02*
X209984000Y-113317000I0J-250000D01*
G01*
G37*
G36*
G01*
X167444000Y-154977000D02*
X167444000Y-155927000D01*
G75*
G02*
X167194000Y-156177000I-250000J0D01*
G01*
X166694000Y-156177000D01*
G75*
G02*
X166444000Y-155927000I0J250000D01*
G01*
X166444000Y-154977000D01*
G75*
G02*
X166694000Y-154727000I250000J0D01*
G01*
X167194000Y-154727000D01*
G75*
G02*
X167444000Y-154977000I0J-250000D01*
G01*
G37*
G36*
G01*
X169344000Y-154977000D02*
X169344000Y-155927000D01*
G75*
G02*
X169094000Y-156177000I-250000J0D01*
G01*
X168594000Y-156177000D01*
G75*
G02*
X168344000Y-155927000I0J250000D01*
G01*
X168344000Y-154977000D01*
G75*
G02*
X168594000Y-154727000I250000J0D01*
G01*
X169094000Y-154727000D01*
G75*
G02*
X169344000Y-154977000I0J-250000D01*
G01*
G37*
G36*
G01*
X208084000Y-152754500D02*
X208084000Y-153704500D01*
G75*
G02*
X207834000Y-153954500I-250000J0D01*
G01*
X207334000Y-153954500D01*
G75*
G02*
X207084000Y-153704500I0J250000D01*
G01*
X207084000Y-152754500D01*
G75*
G02*
X207334000Y-152504500I250000J0D01*
G01*
X207834000Y-152504500D01*
G75*
G02*
X208084000Y-152754500I0J-250000D01*
G01*
G37*
G36*
G01*
X209984000Y-152754500D02*
X209984000Y-153704500D01*
G75*
G02*
X209734000Y-153954500I-250000J0D01*
G01*
X209234000Y-153954500D01*
G75*
G02*
X208984000Y-153704500I0J250000D01*
G01*
X208984000Y-152754500D01*
G75*
G02*
X209234000Y-152504500I250000J0D01*
G01*
X209734000Y-152504500D01*
G75*
G02*
X209984000Y-152754500I0J-250000D01*
G01*
G37*
G36*
G01*
X208084000Y-111094500D02*
X208084000Y-112044500D01*
G75*
G02*
X207834000Y-112294500I-250000J0D01*
G01*
X207334000Y-112294500D01*
G75*
G02*
X207084000Y-112044500I0J250000D01*
G01*
X207084000Y-111094500D01*
G75*
G02*
X207334000Y-110844500I250000J0D01*
G01*
X207834000Y-110844500D01*
G75*
G02*
X208084000Y-111094500I0J-250000D01*
G01*
G37*
G36*
G01*
X209984000Y-111094500D02*
X209984000Y-112044500D01*
G75*
G02*
X209734000Y-112294500I-250000J0D01*
G01*
X209234000Y-112294500D01*
G75*
G02*
X208984000Y-112044500I0J250000D01*
G01*
X208984000Y-111094500D01*
G75*
G02*
X209234000Y-110844500I250000J0D01*
G01*
X209734000Y-110844500D01*
G75*
G02*
X209984000Y-111094500I0J-250000D01*
G01*
G37*
G36*
G01*
X167444000Y-152754500D02*
X167444000Y-153704500D01*
G75*
G02*
X167194000Y-153954500I-250000J0D01*
G01*
X166694000Y-153954500D01*
G75*
G02*
X166444000Y-153704500I0J250000D01*
G01*
X166444000Y-152754500D01*
G75*
G02*
X166694000Y-152504500I250000J0D01*
G01*
X167194000Y-152504500D01*
G75*
G02*
X167444000Y-152754500I0J-250000D01*
G01*
G37*
G36*
G01*
X169344000Y-152754500D02*
X169344000Y-153704500D01*
G75*
G02*
X169094000Y-153954500I-250000J0D01*
G01*
X168594000Y-153954500D01*
G75*
G02*
X168344000Y-153704500I0J250000D01*
G01*
X168344000Y-152754500D01*
G75*
G02*
X168594000Y-152504500I250000J0D01*
G01*
X169094000Y-152504500D01*
G75*
G02*
X169344000Y-152754500I0J-250000D01*
G01*
G37*
G36*
G01*
X222978300Y-147292800D02*
X223528300Y-147292800D01*
G75*
G02*
X223728300Y-147492800I0J-200000D01*
G01*
X223728300Y-147892800D01*
G75*
G02*
X223528300Y-148092800I-200000J0D01*
G01*
X222978300Y-148092800D01*
G75*
G02*
X222778300Y-147892800I0J200000D01*
G01*
X222778300Y-147492800D01*
G75*
G02*
X222978300Y-147292800I200000J0D01*
G01*
G37*
G36*
G01*
X222978300Y-148942800D02*
X223528300Y-148942800D01*
G75*
G02*
X223728300Y-149142800I0J-200000D01*
G01*
X223728300Y-149542800D01*
G75*
G02*
X223528300Y-149742800I-200000J0D01*
G01*
X222978300Y-149742800D01*
G75*
G02*
X222778300Y-149542800I0J200000D01*
G01*
X222778300Y-149142800D01*
G75*
G02*
X222978300Y-148942800I200000J0D01*
G01*
G37*
G36*
G01*
X222978300Y-105632800D02*
X223528300Y-105632800D01*
G75*
G02*
X223728300Y-105832800I0J-200000D01*
G01*
X223728300Y-106232800D01*
G75*
G02*
X223528300Y-106432800I-200000J0D01*
G01*
X222978300Y-106432800D01*
G75*
G02*
X222778300Y-106232800I0J200000D01*
G01*
X222778300Y-105832800D01*
G75*
G02*
X222978300Y-105632800I200000J0D01*
G01*
G37*
G36*
G01*
X222978300Y-107282800D02*
X223528300Y-107282800D01*
G75*
G02*
X223728300Y-107482800I0J-200000D01*
G01*
X223728300Y-107882800D01*
G75*
G02*
X223528300Y-108082800I-200000J0D01*
G01*
X222978300Y-108082800D01*
G75*
G02*
X222778300Y-107882800I0J200000D01*
G01*
X222778300Y-107482800D01*
G75*
G02*
X222978300Y-107282800I200000J0D01*
G01*
G37*
G36*
G01*
X182338300Y-147292800D02*
X182888300Y-147292800D01*
G75*
G02*
X183088300Y-147492800I0J-200000D01*
G01*
X183088300Y-147892800D01*
G75*
G02*
X182888300Y-148092800I-200000J0D01*
G01*
X182338300Y-148092800D01*
G75*
G02*
X182138300Y-147892800I0J200000D01*
G01*
X182138300Y-147492800D01*
G75*
G02*
X182338300Y-147292800I200000J0D01*
G01*
G37*
G36*
G01*
X182338300Y-148942800D02*
X182888300Y-148942800D01*
G75*
G02*
X183088300Y-149142800I0J-200000D01*
G01*
X183088300Y-149542800D01*
G75*
G02*
X182888300Y-149742800I-200000J0D01*
G01*
X182338300Y-149742800D01*
G75*
G02*
X182138300Y-149542800I0J200000D01*
G01*
X182138300Y-149142800D01*
G75*
G02*
X182338300Y-148942800I200000J0D01*
G01*
G37*
G36*
G01*
X224974998Y-157456000D02*
X225875002Y-157456000D01*
G75*
G02*
X226125000Y-157705998I0J-249998D01*
G01*
X226125000Y-158231002D01*
G75*
G02*
X225875002Y-158481000I-249998J0D01*
G01*
X224974998Y-158481000D01*
G75*
G02*
X224725000Y-158231002I0J249998D01*
G01*
X224725000Y-157705998D01*
G75*
G02*
X224974998Y-157456000I249998J0D01*
G01*
G37*
G36*
G01*
X224974998Y-159281000D02*
X225875002Y-159281000D01*
G75*
G02*
X226125000Y-159530998I0J-249998D01*
G01*
X226125000Y-160056002D01*
G75*
G02*
X225875002Y-160306000I-249998J0D01*
G01*
X224974998Y-160306000D01*
G75*
G02*
X224725000Y-160056002I0J249998D01*
G01*
X224725000Y-159530998D01*
G75*
G02*
X224974998Y-159281000I249998J0D01*
G01*
G37*
G36*
G01*
X224974998Y-115796000D02*
X225875002Y-115796000D01*
G75*
G02*
X226125000Y-116045998I0J-249998D01*
G01*
X226125000Y-116571002D01*
G75*
G02*
X225875002Y-116821000I-249998J0D01*
G01*
X224974998Y-116821000D01*
G75*
G02*
X224725000Y-116571002I0J249998D01*
G01*
X224725000Y-116045998D01*
G75*
G02*
X224974998Y-115796000I249998J0D01*
G01*
G37*
G36*
G01*
X224974998Y-117621000D02*
X225875002Y-117621000D01*
G75*
G02*
X226125000Y-117870998I0J-249998D01*
G01*
X226125000Y-118396002D01*
G75*
G02*
X225875002Y-118646000I-249998J0D01*
G01*
X224974998Y-118646000D01*
G75*
G02*
X224725000Y-118396002I0J249998D01*
G01*
X224725000Y-117870998D01*
G75*
G02*
X224974998Y-117621000I249998J0D01*
G01*
G37*
G36*
G01*
X184334998Y-157456000D02*
X185235002Y-157456000D01*
G75*
G02*
X185485000Y-157705998I0J-249998D01*
G01*
X185485000Y-158231002D01*
G75*
G02*
X185235002Y-158481000I-249998J0D01*
G01*
X184334998Y-158481000D01*
G75*
G02*
X184085000Y-158231002I0J249998D01*
G01*
X184085000Y-157705998D01*
G75*
G02*
X184334998Y-157456000I249998J0D01*
G01*
G37*
G36*
G01*
X184334998Y-159281000D02*
X185235002Y-159281000D01*
G75*
G02*
X185485000Y-159530998I0J-249998D01*
G01*
X185485000Y-160056002D01*
G75*
G02*
X185235002Y-160306000I-249998J0D01*
G01*
X184334998Y-160306000D01*
G75*
G02*
X184085000Y-160056002I0J249998D01*
G01*
X184085000Y-159530998D01*
G75*
G02*
X184334998Y-159281000I249998J0D01*
G01*
G37*
G36*
G01*
X223716002Y-156877000D02*
X222815998Y-156877000D01*
G75*
G02*
X222566000Y-156627002I0J249998D01*
G01*
X222566000Y-156101998D01*
G75*
G02*
X222815998Y-155852000I249998J0D01*
G01*
X223716002Y-155852000D01*
G75*
G02*
X223966000Y-156101998I0J-249998D01*
G01*
X223966000Y-156627002D01*
G75*
G02*
X223716002Y-156877000I-249998J0D01*
G01*
G37*
G36*
G01*
X223716002Y-155052000D02*
X222815998Y-155052000D01*
G75*
G02*
X222566000Y-154802002I0J249998D01*
G01*
X222566000Y-154276998D01*
G75*
G02*
X222815998Y-154027000I249998J0D01*
G01*
X223716002Y-154027000D01*
G75*
G02*
X223966000Y-154276998I0J-249998D01*
G01*
X223966000Y-154802002D01*
G75*
G02*
X223716002Y-155052000I-249998J0D01*
G01*
G37*
G36*
G01*
X223716002Y-115217000D02*
X222815998Y-115217000D01*
G75*
G02*
X222566000Y-114967002I0J249998D01*
G01*
X222566000Y-114441998D01*
G75*
G02*
X222815998Y-114192000I249998J0D01*
G01*
X223716002Y-114192000D01*
G75*
G02*
X223966000Y-114441998I0J-249998D01*
G01*
X223966000Y-114967002D01*
G75*
G02*
X223716002Y-115217000I-249998J0D01*
G01*
G37*
G36*
G01*
X223716002Y-113392000D02*
X222815998Y-113392000D01*
G75*
G02*
X222566000Y-113142002I0J249998D01*
G01*
X222566000Y-112616998D01*
G75*
G02*
X222815998Y-112367000I249998J0D01*
G01*
X223716002Y-112367000D01*
G75*
G02*
X223966000Y-112616998I0J-249998D01*
G01*
X223966000Y-113142002D01*
G75*
G02*
X223716002Y-113392000I-249998J0D01*
G01*
G37*
G36*
G01*
X183076002Y-156877000D02*
X182175998Y-156877000D01*
G75*
G02*
X181926000Y-156627002I0J249998D01*
G01*
X181926000Y-156101998D01*
G75*
G02*
X182175998Y-155852000I249998J0D01*
G01*
X183076002Y-155852000D01*
G75*
G02*
X183326000Y-156101998I0J-249998D01*
G01*
X183326000Y-156627002D01*
G75*
G02*
X183076002Y-156877000I-249998J0D01*
G01*
G37*
G36*
G01*
X183076002Y-155052000D02*
X182175998Y-155052000D01*
G75*
G02*
X181926000Y-154802002I0J249998D01*
G01*
X181926000Y-154276998D01*
G75*
G02*
X182175998Y-154027000I249998J0D01*
G01*
X183076002Y-154027000D01*
G75*
G02*
X183326000Y-154276998I0J-249998D01*
G01*
X183326000Y-154802002D01*
G75*
G02*
X183076002Y-155052000I-249998J0D01*
G01*
G37*
D11*
X205266800Y-142317700D03*
X205266800Y-140417700D03*
X203266800Y-141367700D03*
X205266800Y-100657700D03*
X205266800Y-98757700D03*
X203266800Y-99707700D03*
X164626800Y-142317700D03*
X164626800Y-140417700D03*
X162626800Y-141367700D03*
G36*
G01*
X223741000Y-143186000D02*
X222791000Y-143186000D01*
G75*
G02*
X222541000Y-142936000I0J250000D01*
G01*
X222541000Y-142436000D01*
G75*
G02*
X222791000Y-142186000I250000J0D01*
G01*
X223741000Y-142186000D01*
G75*
G02*
X223991000Y-142436000I0J-250000D01*
G01*
X223991000Y-142936000D01*
G75*
G02*
X223741000Y-143186000I-250000J0D01*
G01*
G37*
G36*
G01*
X223741000Y-141286000D02*
X222791000Y-141286000D01*
G75*
G02*
X222541000Y-141036000I0J250000D01*
G01*
X222541000Y-140536000D01*
G75*
G02*
X222791000Y-140286000I250000J0D01*
G01*
X223741000Y-140286000D01*
G75*
G02*
X223991000Y-140536000I0J-250000D01*
G01*
X223991000Y-141036000D01*
G75*
G02*
X223741000Y-141286000I-250000J0D01*
G01*
G37*
G36*
G01*
X223741000Y-101526000D02*
X222791000Y-101526000D01*
G75*
G02*
X222541000Y-101276000I0J250000D01*
G01*
X222541000Y-100776000D01*
G75*
G02*
X222791000Y-100526000I250000J0D01*
G01*
X223741000Y-100526000D01*
G75*
G02*
X223991000Y-100776000I0J-250000D01*
G01*
X223991000Y-101276000D01*
G75*
G02*
X223741000Y-101526000I-250000J0D01*
G01*
G37*
G36*
G01*
X223741000Y-99626000D02*
X222791000Y-99626000D01*
G75*
G02*
X222541000Y-99376000I0J250000D01*
G01*
X222541000Y-98876000D01*
G75*
G02*
X222791000Y-98626000I250000J0D01*
G01*
X223741000Y-98626000D01*
G75*
G02*
X223991000Y-98876000I0J-250000D01*
G01*
X223991000Y-99376000D01*
G75*
G02*
X223741000Y-99626000I-250000J0D01*
G01*
G37*
G36*
G01*
X183101000Y-143186000D02*
X182151000Y-143186000D01*
G75*
G02*
X181901000Y-142936000I0J250000D01*
G01*
X181901000Y-142436000D01*
G75*
G02*
X182151000Y-142186000I250000J0D01*
G01*
X183101000Y-142186000D01*
G75*
G02*
X183351000Y-142436000I0J-250000D01*
G01*
X183351000Y-142936000D01*
G75*
G02*
X183101000Y-143186000I-250000J0D01*
G01*
G37*
G36*
G01*
X183101000Y-141286000D02*
X182151000Y-141286000D01*
G75*
G02*
X181901000Y-141036000I0J250000D01*
G01*
X181901000Y-140536000D01*
G75*
G02*
X182151000Y-140286000I250000J0D01*
G01*
X183101000Y-140286000D01*
G75*
G02*
X183351000Y-140536000I0J-250000D01*
G01*
X183351000Y-141036000D01*
G75*
G02*
X183101000Y-141286000I-250000J0D01*
G01*
G37*
G36*
G01*
X206671500Y-141422500D02*
X207221500Y-141422500D01*
G75*
G02*
X207421500Y-141622500I0J-200000D01*
G01*
X207421500Y-142022500D01*
G75*
G02*
X207221500Y-142222500I-200000J0D01*
G01*
X206671500Y-142222500D01*
G75*
G02*
X206471500Y-142022500I0J200000D01*
G01*
X206471500Y-141622500D01*
G75*
G02*
X206671500Y-141422500I200000J0D01*
G01*
G37*
G36*
G01*
X206671500Y-139772500D02*
X207221500Y-139772500D01*
G75*
G02*
X207421500Y-139972500I0J-200000D01*
G01*
X207421500Y-140372500D01*
G75*
G02*
X207221500Y-140572500I-200000J0D01*
G01*
X206671500Y-140572500D01*
G75*
G02*
X206471500Y-140372500I0J200000D01*
G01*
X206471500Y-139972500D01*
G75*
G02*
X206671500Y-139772500I200000J0D01*
G01*
G37*
G36*
G01*
X206671500Y-99762500D02*
X207221500Y-99762500D01*
G75*
G02*
X207421500Y-99962500I0J-200000D01*
G01*
X207421500Y-100362500D01*
G75*
G02*
X207221500Y-100562500I-200000J0D01*
G01*
X206671500Y-100562500D01*
G75*
G02*
X206471500Y-100362500I0J200000D01*
G01*
X206471500Y-99962500D01*
G75*
G02*
X206671500Y-99762500I200000J0D01*
G01*
G37*
G36*
G01*
X206671500Y-98112500D02*
X207221500Y-98112500D01*
G75*
G02*
X207421500Y-98312500I0J-200000D01*
G01*
X207421500Y-98712500D01*
G75*
G02*
X207221500Y-98912500I-200000J0D01*
G01*
X206671500Y-98912500D01*
G75*
G02*
X206471500Y-98712500I0J200000D01*
G01*
X206471500Y-98312500D01*
G75*
G02*
X206671500Y-98112500I200000J0D01*
G01*
G37*
G36*
G01*
X166031500Y-141422500D02*
X166581500Y-141422500D01*
G75*
G02*
X166781500Y-141622500I0J-200000D01*
G01*
X166781500Y-142022500D01*
G75*
G02*
X166581500Y-142222500I-200000J0D01*
G01*
X166031500Y-142222500D01*
G75*
G02*
X165831500Y-142022500I0J200000D01*
G01*
X165831500Y-141622500D01*
G75*
G02*
X166031500Y-141422500I200000J0D01*
G01*
G37*
G36*
G01*
X166031500Y-139772500D02*
X166581500Y-139772500D01*
G75*
G02*
X166781500Y-139972500I0J-200000D01*
G01*
X166781500Y-140372500D01*
G75*
G02*
X166581500Y-140572500I-200000J0D01*
G01*
X166031500Y-140572500D01*
G75*
G02*
X165831500Y-140372500I0J200000D01*
G01*
X165831500Y-139972500D01*
G75*
G02*
X166031500Y-139772500I200000J0D01*
G01*
G37*
X205266800Y-147334200D03*
X205266800Y-145434200D03*
X203266800Y-146384200D03*
X205266800Y-105674200D03*
X205266800Y-103774200D03*
X203266800Y-104724200D03*
X164626800Y-147334200D03*
X164626800Y-145434200D03*
X162626800Y-146384200D03*
G36*
G01*
X206671500Y-148574500D02*
X207221500Y-148574500D01*
G75*
G02*
X207421500Y-148774500I0J-200000D01*
G01*
X207421500Y-149174500D01*
G75*
G02*
X207221500Y-149374500I-200000J0D01*
G01*
X206671500Y-149374500D01*
G75*
G02*
X206471500Y-149174500I0J200000D01*
G01*
X206471500Y-148774500D01*
G75*
G02*
X206671500Y-148574500I200000J0D01*
G01*
G37*
G36*
G01*
X206671500Y-146924500D02*
X207221500Y-146924500D01*
G75*
G02*
X207421500Y-147124500I0J-200000D01*
G01*
X207421500Y-147524500D01*
G75*
G02*
X207221500Y-147724500I-200000J0D01*
G01*
X206671500Y-147724500D01*
G75*
G02*
X206471500Y-147524500I0J200000D01*
G01*
X206471500Y-147124500D01*
G75*
G02*
X206671500Y-146924500I200000J0D01*
G01*
G37*
G36*
G01*
X206671500Y-106914500D02*
X207221500Y-106914500D01*
G75*
G02*
X207421500Y-107114500I0J-200000D01*
G01*
X207421500Y-107514500D01*
G75*
G02*
X207221500Y-107714500I-200000J0D01*
G01*
X206671500Y-107714500D01*
G75*
G02*
X206471500Y-107514500I0J200000D01*
G01*
X206471500Y-107114500D01*
G75*
G02*
X206671500Y-106914500I200000J0D01*
G01*
G37*
G36*
G01*
X206671500Y-105264500D02*
X207221500Y-105264500D01*
G75*
G02*
X207421500Y-105464500I0J-200000D01*
G01*
X207421500Y-105864500D01*
G75*
G02*
X207221500Y-106064500I-200000J0D01*
G01*
X206671500Y-106064500D01*
G75*
G02*
X206471500Y-105864500I0J200000D01*
G01*
X206471500Y-105464500D01*
G75*
G02*
X206671500Y-105264500I200000J0D01*
G01*
G37*
G36*
G01*
X166031500Y-148574500D02*
X166581500Y-148574500D01*
G75*
G02*
X166781500Y-148774500I0J-200000D01*
G01*
X166781500Y-149174500D01*
G75*
G02*
X166581500Y-149374500I-200000J0D01*
G01*
X166031500Y-149374500D01*
G75*
G02*
X165831500Y-149174500I0J200000D01*
G01*
X165831500Y-148774500D01*
G75*
G02*
X166031500Y-148574500I200000J0D01*
G01*
G37*
G36*
G01*
X166031500Y-146924500D02*
X166581500Y-146924500D01*
G75*
G02*
X166781500Y-147124500I0J-200000D01*
G01*
X166781500Y-147524500D01*
G75*
G02*
X166581500Y-147724500I-200000J0D01*
G01*
X166031500Y-147724500D01*
G75*
G02*
X165831500Y-147524500I0J200000D01*
G01*
X165831500Y-147124500D01*
G75*
G02*
X166031500Y-146924500I200000J0D01*
G01*
G37*
G36*
G01*
X208361498Y-148549500D02*
X209261502Y-148549500D01*
G75*
G02*
X209511500Y-148799498I0J-249998D01*
G01*
X209511500Y-149324502D01*
G75*
G02*
X209261502Y-149574500I-249998J0D01*
G01*
X208361498Y-149574500D01*
G75*
G02*
X208111500Y-149324502I0J249998D01*
G01*
X208111500Y-148799498D01*
G75*
G02*
X208361498Y-148549500I249998J0D01*
G01*
G37*
G36*
G01*
X208361498Y-146724500D02*
X209261502Y-146724500D01*
G75*
G02*
X209511500Y-146974498I0J-249998D01*
G01*
X209511500Y-147499502D01*
G75*
G02*
X209261502Y-147749500I-249998J0D01*
G01*
X208361498Y-147749500D01*
G75*
G02*
X208111500Y-147499502I0J249998D01*
G01*
X208111500Y-146974498D01*
G75*
G02*
X208361498Y-146724500I249998J0D01*
G01*
G37*
G36*
G01*
X208361498Y-106889500D02*
X209261502Y-106889500D01*
G75*
G02*
X209511500Y-107139498I0J-249998D01*
G01*
X209511500Y-107664502D01*
G75*
G02*
X209261502Y-107914500I-249998J0D01*
G01*
X208361498Y-107914500D01*
G75*
G02*
X208111500Y-107664502I0J249998D01*
G01*
X208111500Y-107139498D01*
G75*
G02*
X208361498Y-106889500I249998J0D01*
G01*
G37*
G36*
G01*
X208361498Y-105064500D02*
X209261502Y-105064500D01*
G75*
G02*
X209511500Y-105314498I0J-249998D01*
G01*
X209511500Y-105839502D01*
G75*
G02*
X209261502Y-106089500I-249998J0D01*
G01*
X208361498Y-106089500D01*
G75*
G02*
X208111500Y-105839502I0J249998D01*
G01*
X208111500Y-105314498D01*
G75*
G02*
X208361498Y-105064500I249998J0D01*
G01*
G37*
G36*
G01*
X167721498Y-148549500D02*
X168621502Y-148549500D01*
G75*
G02*
X168871500Y-148799498I0J-249998D01*
G01*
X168871500Y-149324502D01*
G75*
G02*
X168621502Y-149574500I-249998J0D01*
G01*
X167721498Y-149574500D01*
G75*
G02*
X167471500Y-149324502I0J249998D01*
G01*
X167471500Y-148799498D01*
G75*
G02*
X167721498Y-148549500I249998J0D01*
G01*
G37*
G36*
G01*
X167721498Y-146724500D02*
X168621502Y-146724500D01*
G75*
G02*
X168871500Y-146974498I0J-249998D01*
G01*
X168871500Y-147499502D01*
G75*
G02*
X168621502Y-147749500I-249998J0D01*
G01*
X167721498Y-147749500D01*
G75*
G02*
X167471500Y-147499502I0J249998D01*
G01*
X167471500Y-146974498D01*
G75*
G02*
X167721498Y-146724500I249998J0D01*
G01*
G37*
G36*
G01*
X208361498Y-141397500D02*
X209261502Y-141397500D01*
G75*
G02*
X209511500Y-141647498I0J-249998D01*
G01*
X209511500Y-142172502D01*
G75*
G02*
X209261502Y-142422500I-249998J0D01*
G01*
X208361498Y-142422500D01*
G75*
G02*
X208111500Y-142172502I0J249998D01*
G01*
X208111500Y-141647498D01*
G75*
G02*
X208361498Y-141397500I249998J0D01*
G01*
G37*
G36*
G01*
X208361498Y-139572500D02*
X209261502Y-139572500D01*
G75*
G02*
X209511500Y-139822498I0J-249998D01*
G01*
X209511500Y-140347502D01*
G75*
G02*
X209261502Y-140597500I-249998J0D01*
G01*
X208361498Y-140597500D01*
G75*
G02*
X208111500Y-140347502I0J249998D01*
G01*
X208111500Y-139822498D01*
G75*
G02*
X208361498Y-139572500I249998J0D01*
G01*
G37*
G36*
G01*
X208361498Y-99737500D02*
X209261502Y-99737500D01*
G75*
G02*
X209511500Y-99987498I0J-249998D01*
G01*
X209511500Y-100512502D01*
G75*
G02*
X209261502Y-100762500I-249998J0D01*
G01*
X208361498Y-100762500D01*
G75*
G02*
X208111500Y-100512502I0J249998D01*
G01*
X208111500Y-99987498D01*
G75*
G02*
X208361498Y-99737500I249998J0D01*
G01*
G37*
G36*
G01*
X208361498Y-97912500D02*
X209261502Y-97912500D01*
G75*
G02*
X209511500Y-98162498I0J-249998D01*
G01*
X209511500Y-98687502D01*
G75*
G02*
X209261502Y-98937500I-249998J0D01*
G01*
X208361498Y-98937500D01*
G75*
G02*
X208111500Y-98687502I0J249998D01*
G01*
X208111500Y-98162498D01*
G75*
G02*
X208361498Y-97912500I249998J0D01*
G01*
G37*
G36*
G01*
X167721498Y-141397500D02*
X168621502Y-141397500D01*
G75*
G02*
X168871500Y-141647498I0J-249998D01*
G01*
X168871500Y-142172502D01*
G75*
G02*
X168621502Y-142422500I-249998J0D01*
G01*
X167721498Y-142422500D01*
G75*
G02*
X167471500Y-142172502I0J249998D01*
G01*
X167471500Y-141647498D01*
G75*
G02*
X167721498Y-141397500I249998J0D01*
G01*
G37*
G36*
G01*
X167721498Y-139572500D02*
X168621502Y-139572500D01*
G75*
G02*
X168871500Y-139822498I0J-249998D01*
G01*
X168871500Y-140347502D01*
G75*
G02*
X168621502Y-140597500I-249998J0D01*
G01*
X167721498Y-140597500D01*
G75*
G02*
X167471500Y-140347502I0J249998D01*
G01*
X167471500Y-139822498D01*
G75*
G02*
X167721498Y-139572500I249998J0D01*
G01*
G37*
G36*
G01*
X217723000Y-160045000D02*
X217723000Y-159495000D01*
G75*
G02*
X217923000Y-159295000I200000J0D01*
G01*
X218323000Y-159295000D01*
G75*
G02*
X218523000Y-159495000I0J-200000D01*
G01*
X218523000Y-160045000D01*
G75*
G02*
X218323000Y-160245000I-200000J0D01*
G01*
X217923000Y-160245000D01*
G75*
G02*
X217723000Y-160045000I0J200000D01*
G01*
G37*
G36*
G01*
X219373000Y-160045000D02*
X219373000Y-159495000D01*
G75*
G02*
X219573000Y-159295000I200000J0D01*
G01*
X219973000Y-159295000D01*
G75*
G02*
X220173000Y-159495000I0J-200000D01*
G01*
X220173000Y-160045000D01*
G75*
G02*
X219973000Y-160245000I-200000J0D01*
G01*
X219573000Y-160245000D01*
G75*
G02*
X219373000Y-160045000I0J200000D01*
G01*
G37*
G36*
G01*
X217723000Y-118385000D02*
X217723000Y-117835000D01*
G75*
G02*
X217923000Y-117635000I200000J0D01*
G01*
X218323000Y-117635000D01*
G75*
G02*
X218523000Y-117835000I0J-200000D01*
G01*
X218523000Y-118385000D01*
G75*
G02*
X218323000Y-118585000I-200000J0D01*
G01*
X217923000Y-118585000D01*
G75*
G02*
X217723000Y-118385000I0J200000D01*
G01*
G37*
G36*
G01*
X219373000Y-118385000D02*
X219373000Y-117835000D01*
G75*
G02*
X219573000Y-117635000I200000J0D01*
G01*
X219973000Y-117635000D01*
G75*
G02*
X220173000Y-117835000I0J-200000D01*
G01*
X220173000Y-118385000D01*
G75*
G02*
X219973000Y-118585000I-200000J0D01*
G01*
X219573000Y-118585000D01*
G75*
G02*
X219373000Y-118385000I0J200000D01*
G01*
G37*
G36*
G01*
X177083000Y-160045000D02*
X177083000Y-159495000D01*
G75*
G02*
X177283000Y-159295000I200000J0D01*
G01*
X177683000Y-159295000D01*
G75*
G02*
X177883000Y-159495000I0J-200000D01*
G01*
X177883000Y-160045000D01*
G75*
G02*
X177683000Y-160245000I-200000J0D01*
G01*
X177283000Y-160245000D01*
G75*
G02*
X177083000Y-160045000I0J200000D01*
G01*
G37*
G36*
G01*
X178733000Y-160045000D02*
X178733000Y-159495000D01*
G75*
G02*
X178933000Y-159295000I200000J0D01*
G01*
X179333000Y-159295000D01*
G75*
G02*
X179533000Y-159495000I0J-200000D01*
G01*
X179533000Y-160045000D01*
G75*
G02*
X179333000Y-160245000I-200000J0D01*
G01*
X178933000Y-160245000D01*
G75*
G02*
X178733000Y-160045000I0J200000D01*
G01*
G37*
G36*
G01*
X206671500Y-144995000D02*
X207221500Y-144995000D01*
G75*
G02*
X207421500Y-145195000I0J-200000D01*
G01*
X207421500Y-145595000D01*
G75*
G02*
X207221500Y-145795000I-200000J0D01*
G01*
X206671500Y-145795000D01*
G75*
G02*
X206471500Y-145595000I0J200000D01*
G01*
X206471500Y-145195000D01*
G75*
G02*
X206671500Y-144995000I200000J0D01*
G01*
G37*
G36*
G01*
X206671500Y-143345000D02*
X207221500Y-143345000D01*
G75*
G02*
X207421500Y-143545000I0J-200000D01*
G01*
X207421500Y-143945000D01*
G75*
G02*
X207221500Y-144145000I-200000J0D01*
G01*
X206671500Y-144145000D01*
G75*
G02*
X206471500Y-143945000I0J200000D01*
G01*
X206471500Y-143545000D01*
G75*
G02*
X206671500Y-143345000I200000J0D01*
G01*
G37*
G36*
G01*
X206671500Y-103335000D02*
X207221500Y-103335000D01*
G75*
G02*
X207421500Y-103535000I0J-200000D01*
G01*
X207421500Y-103935000D01*
G75*
G02*
X207221500Y-104135000I-200000J0D01*
G01*
X206671500Y-104135000D01*
G75*
G02*
X206471500Y-103935000I0J200000D01*
G01*
X206471500Y-103535000D01*
G75*
G02*
X206671500Y-103335000I200000J0D01*
G01*
G37*
G36*
G01*
X206671500Y-101685000D02*
X207221500Y-101685000D01*
G75*
G02*
X207421500Y-101885000I0J-200000D01*
G01*
X207421500Y-102285000D01*
G75*
G02*
X207221500Y-102485000I-200000J0D01*
G01*
X206671500Y-102485000D01*
G75*
G02*
X206471500Y-102285000I0J200000D01*
G01*
X206471500Y-101885000D01*
G75*
G02*
X206671500Y-101685000I200000J0D01*
G01*
G37*
G36*
G01*
X166031500Y-144995000D02*
X166581500Y-144995000D01*
G75*
G02*
X166781500Y-145195000I0J-200000D01*
G01*
X166781500Y-145595000D01*
G75*
G02*
X166581500Y-145795000I-200000J0D01*
G01*
X166031500Y-145795000D01*
G75*
G02*
X165831500Y-145595000I0J200000D01*
G01*
X165831500Y-145195000D01*
G75*
G02*
X166031500Y-144995000I200000J0D01*
G01*
G37*
G36*
G01*
X166031500Y-143345000D02*
X166581500Y-143345000D01*
G75*
G02*
X166781500Y-143545000I0J-200000D01*
G01*
X166781500Y-143945000D01*
G75*
G02*
X166581500Y-144145000I-200000J0D01*
G01*
X166031500Y-144145000D01*
G75*
G02*
X165831500Y-143945000I0J200000D01*
G01*
X165831500Y-143545000D01*
G75*
G02*
X166031500Y-143345000I200000J0D01*
G01*
G37*
G36*
G01*
X224974998Y-154027000D02*
X225875002Y-154027000D01*
G75*
G02*
X226125000Y-154276998I0J-249998D01*
G01*
X226125000Y-154802002D01*
G75*
G02*
X225875002Y-155052000I-249998J0D01*
G01*
X224974998Y-155052000D01*
G75*
G02*
X224725000Y-154802002I0J249998D01*
G01*
X224725000Y-154276998D01*
G75*
G02*
X224974998Y-154027000I249998J0D01*
G01*
G37*
G36*
G01*
X224974998Y-155852000D02*
X225875002Y-155852000D01*
G75*
G02*
X226125000Y-156101998I0J-249998D01*
G01*
X226125000Y-156627002D01*
G75*
G02*
X225875002Y-156877000I-249998J0D01*
G01*
X224974998Y-156877000D01*
G75*
G02*
X224725000Y-156627002I0J249998D01*
G01*
X224725000Y-156101998D01*
G75*
G02*
X224974998Y-155852000I249998J0D01*
G01*
G37*
G36*
G01*
X224974998Y-112367000D02*
X225875002Y-112367000D01*
G75*
G02*
X226125000Y-112616998I0J-249998D01*
G01*
X226125000Y-113142002D01*
G75*
G02*
X225875002Y-113392000I-249998J0D01*
G01*
X224974998Y-113392000D01*
G75*
G02*
X224725000Y-113142002I0J249998D01*
G01*
X224725000Y-112616998D01*
G75*
G02*
X224974998Y-112367000I249998J0D01*
G01*
G37*
G36*
G01*
X224974998Y-114192000D02*
X225875002Y-114192000D01*
G75*
G02*
X226125000Y-114441998I0J-249998D01*
G01*
X226125000Y-114967002D01*
G75*
G02*
X225875002Y-115217000I-249998J0D01*
G01*
X224974998Y-115217000D01*
G75*
G02*
X224725000Y-114967002I0J249998D01*
G01*
X224725000Y-114441998D01*
G75*
G02*
X224974998Y-114192000I249998J0D01*
G01*
G37*
G36*
G01*
X184334998Y-154027000D02*
X185235002Y-154027000D01*
G75*
G02*
X185485000Y-154276998I0J-249998D01*
G01*
X185485000Y-154802002D01*
G75*
G02*
X185235002Y-155052000I-249998J0D01*
G01*
X184334998Y-155052000D01*
G75*
G02*
X184085000Y-154802002I0J249998D01*
G01*
X184085000Y-154276998D01*
G75*
G02*
X184334998Y-154027000I249998J0D01*
G01*
G37*
G36*
G01*
X184334998Y-155852000D02*
X185235002Y-155852000D01*
G75*
G02*
X185485000Y-156101998I0J-249998D01*
G01*
X185485000Y-156627002D01*
G75*
G02*
X185235002Y-156877000I-249998J0D01*
G01*
X184334998Y-156877000D01*
G75*
G02*
X184085000Y-156627002I0J249998D01*
G01*
X184085000Y-156101998D01*
G75*
G02*
X184334998Y-155852000I249998J0D01*
G01*
G37*
G36*
G01*
X208361498Y-144970000D02*
X209261502Y-144970000D01*
G75*
G02*
X209511500Y-145219998I0J-249998D01*
G01*
X209511500Y-145745002D01*
G75*
G02*
X209261502Y-145995000I-249998J0D01*
G01*
X208361498Y-145995000D01*
G75*
G02*
X208111500Y-145745002I0J249998D01*
G01*
X208111500Y-145219998D01*
G75*
G02*
X208361498Y-144970000I249998J0D01*
G01*
G37*
G36*
G01*
X208361498Y-143145000D02*
X209261502Y-143145000D01*
G75*
G02*
X209511500Y-143394998I0J-249998D01*
G01*
X209511500Y-143920002D01*
G75*
G02*
X209261502Y-144170000I-249998J0D01*
G01*
X208361498Y-144170000D01*
G75*
G02*
X208111500Y-143920002I0J249998D01*
G01*
X208111500Y-143394998D01*
G75*
G02*
X208361498Y-143145000I249998J0D01*
G01*
G37*
G36*
G01*
X208361498Y-103310000D02*
X209261502Y-103310000D01*
G75*
G02*
X209511500Y-103559998I0J-249998D01*
G01*
X209511500Y-104085002D01*
G75*
G02*
X209261502Y-104335000I-249998J0D01*
G01*
X208361498Y-104335000D01*
G75*
G02*
X208111500Y-104085002I0J249998D01*
G01*
X208111500Y-103559998D01*
G75*
G02*
X208361498Y-103310000I249998J0D01*
G01*
G37*
G36*
G01*
X208361498Y-101485000D02*
X209261502Y-101485000D01*
G75*
G02*
X209511500Y-101734998I0J-249998D01*
G01*
X209511500Y-102260002D01*
G75*
G02*
X209261502Y-102510000I-249998J0D01*
G01*
X208361498Y-102510000D01*
G75*
G02*
X208111500Y-102260002I0J249998D01*
G01*
X208111500Y-101734998D01*
G75*
G02*
X208361498Y-101485000I249998J0D01*
G01*
G37*
G36*
G01*
X167721498Y-144970000D02*
X168621502Y-144970000D01*
G75*
G02*
X168871500Y-145219998I0J-249998D01*
G01*
X168871500Y-145745002D01*
G75*
G02*
X168621502Y-145995000I-249998J0D01*
G01*
X167721498Y-145995000D01*
G75*
G02*
X167471500Y-145745002I0J249998D01*
G01*
X167471500Y-145219998D01*
G75*
G02*
X167721498Y-144970000I249998J0D01*
G01*
G37*
G36*
G01*
X167721498Y-143145000D02*
X168621502Y-143145000D01*
G75*
G02*
X168871500Y-143394998I0J-249998D01*
G01*
X168871500Y-143920002D01*
G75*
G02*
X168621502Y-144170000I-249998J0D01*
G01*
X167721498Y-144170000D01*
G75*
G02*
X167471500Y-143920002I0J249998D01*
G01*
X167471500Y-143394998D01*
G75*
G02*
X167721498Y-143145000I249998J0D01*
G01*
G37*
G36*
G01*
X224974998Y-150598000D02*
X225875002Y-150598000D01*
G75*
G02*
X226125000Y-150847998I0J-249998D01*
G01*
X226125000Y-151373002D01*
G75*
G02*
X225875002Y-151623000I-249998J0D01*
G01*
X224974998Y-151623000D01*
G75*
G02*
X224725000Y-151373002I0J249998D01*
G01*
X224725000Y-150847998D01*
G75*
G02*
X224974998Y-150598000I249998J0D01*
G01*
G37*
G36*
G01*
X224974998Y-152423000D02*
X225875002Y-152423000D01*
G75*
G02*
X226125000Y-152672998I0J-249998D01*
G01*
X226125000Y-153198002D01*
G75*
G02*
X225875002Y-153448000I-249998J0D01*
G01*
X224974998Y-153448000D01*
G75*
G02*
X224725000Y-153198002I0J249998D01*
G01*
X224725000Y-152672998D01*
G75*
G02*
X224974998Y-152423000I249998J0D01*
G01*
G37*
G36*
G01*
X224974998Y-108938000D02*
X225875002Y-108938000D01*
G75*
G02*
X226125000Y-109187998I0J-249998D01*
G01*
X226125000Y-109713002D01*
G75*
G02*
X225875002Y-109963000I-249998J0D01*
G01*
X224974998Y-109963000D01*
G75*
G02*
X224725000Y-109713002I0J249998D01*
G01*
X224725000Y-109187998D01*
G75*
G02*
X224974998Y-108938000I249998J0D01*
G01*
G37*
G36*
G01*
X224974998Y-110763000D02*
X225875002Y-110763000D01*
G75*
G02*
X226125000Y-111012998I0J-249998D01*
G01*
X226125000Y-111538002D01*
G75*
G02*
X225875002Y-111788000I-249998J0D01*
G01*
X224974998Y-111788000D01*
G75*
G02*
X224725000Y-111538002I0J249998D01*
G01*
X224725000Y-111012998D01*
G75*
G02*
X224974998Y-110763000I249998J0D01*
G01*
G37*
G36*
G01*
X184334998Y-150598000D02*
X185235002Y-150598000D01*
G75*
G02*
X185485000Y-150847998I0J-249998D01*
G01*
X185485000Y-151373002D01*
G75*
G02*
X185235002Y-151623000I-249998J0D01*
G01*
X184334998Y-151623000D01*
G75*
G02*
X184085000Y-151373002I0J249998D01*
G01*
X184085000Y-150847998D01*
G75*
G02*
X184334998Y-150598000I249998J0D01*
G01*
G37*
G36*
G01*
X184334998Y-152423000D02*
X185235002Y-152423000D01*
G75*
G02*
X185485000Y-152672998I0J-249998D01*
G01*
X185485000Y-153198002D01*
G75*
G02*
X185235002Y-153448000I-249998J0D01*
G01*
X184334998Y-153448000D01*
G75*
G02*
X184085000Y-153198002I0J249998D01*
G01*
X184085000Y-152672998D01*
G75*
G02*
X184334998Y-152423000I249998J0D01*
G01*
G37*
G36*
G01*
X207109000Y-160220002D02*
X207109000Y-159319998D01*
G75*
G02*
X207358998Y-159070000I249998J0D01*
G01*
X207884002Y-159070000D01*
G75*
G02*
X208134000Y-159319998I0J-249998D01*
G01*
X208134000Y-160220002D01*
G75*
G02*
X207884002Y-160470000I-249998J0D01*
G01*
X207358998Y-160470000D01*
G75*
G02*
X207109000Y-160220002I0J249998D01*
G01*
G37*
G36*
G01*
X208934000Y-160220002D02*
X208934000Y-159319998D01*
G75*
G02*
X209183998Y-159070000I249998J0D01*
G01*
X209709002Y-159070000D01*
G75*
G02*
X209959000Y-159319998I0J-249998D01*
G01*
X209959000Y-160220002D01*
G75*
G02*
X209709002Y-160470000I-249998J0D01*
G01*
X209183998Y-160470000D01*
G75*
G02*
X208934000Y-160220002I0J249998D01*
G01*
G37*
G36*
G01*
X207109000Y-118560002D02*
X207109000Y-117659998D01*
G75*
G02*
X207358998Y-117410000I249998J0D01*
G01*
X207884002Y-117410000D01*
G75*
G02*
X208134000Y-117659998I0J-249998D01*
G01*
X208134000Y-118560002D01*
G75*
G02*
X207884002Y-118810000I-249998J0D01*
G01*
X207358998Y-118810000D01*
G75*
G02*
X207109000Y-118560002I0J249998D01*
G01*
G37*
G36*
G01*
X208934000Y-118560002D02*
X208934000Y-117659998D01*
G75*
G02*
X209183998Y-117410000I249998J0D01*
G01*
X209709002Y-117410000D01*
G75*
G02*
X209959000Y-117659998I0J-249998D01*
G01*
X209959000Y-118560002D01*
G75*
G02*
X209709002Y-118810000I-249998J0D01*
G01*
X209183998Y-118810000D01*
G75*
G02*
X208934000Y-118560002I0J249998D01*
G01*
G37*
G36*
G01*
X166469000Y-160220002D02*
X166469000Y-159319998D01*
G75*
G02*
X166718998Y-159070000I249998J0D01*
G01*
X167244002Y-159070000D01*
G75*
G02*
X167494000Y-159319998I0J-249998D01*
G01*
X167494000Y-160220002D01*
G75*
G02*
X167244002Y-160470000I-249998J0D01*
G01*
X166718998Y-160470000D01*
G75*
G02*
X166469000Y-160220002I0J249998D01*
G01*
G37*
G36*
G01*
X168294000Y-160220002D02*
X168294000Y-159319998D01*
G75*
G02*
X168543998Y-159070000I249998J0D01*
G01*
X169069002Y-159070000D01*
G75*
G02*
X169319000Y-159319998I0J-249998D01*
G01*
X169319000Y-160220002D01*
G75*
G02*
X169069002Y-160470000I-249998J0D01*
G01*
X168543998Y-160470000D01*
G75*
G02*
X168294000Y-160220002I0J249998D01*
G01*
G37*
G36*
G01*
X224974998Y-140311000D02*
X225875002Y-140311000D01*
G75*
G02*
X226125000Y-140560998I0J-249998D01*
G01*
X226125000Y-141086002D01*
G75*
G02*
X225875002Y-141336000I-249998J0D01*
G01*
X224974998Y-141336000D01*
G75*
G02*
X224725000Y-141086002I0J249998D01*
G01*
X224725000Y-140560998D01*
G75*
G02*
X224974998Y-140311000I249998J0D01*
G01*
G37*
G36*
G01*
X224974998Y-142136000D02*
X225875002Y-142136000D01*
G75*
G02*
X226125000Y-142385998I0J-249998D01*
G01*
X226125000Y-142911002D01*
G75*
G02*
X225875002Y-143161000I-249998J0D01*
G01*
X224974998Y-143161000D01*
G75*
G02*
X224725000Y-142911002I0J249998D01*
G01*
X224725000Y-142385998D01*
G75*
G02*
X224974998Y-142136000I249998J0D01*
G01*
G37*
G36*
G01*
X224974998Y-98651000D02*
X225875002Y-98651000D01*
G75*
G02*
X226125000Y-98900998I0J-249998D01*
G01*
X226125000Y-99426002D01*
G75*
G02*
X225875002Y-99676000I-249998J0D01*
G01*
X224974998Y-99676000D01*
G75*
G02*
X224725000Y-99426002I0J249998D01*
G01*
X224725000Y-98900998D01*
G75*
G02*
X224974998Y-98651000I249998J0D01*
G01*
G37*
G36*
G01*
X224974998Y-100476000D02*
X225875002Y-100476000D01*
G75*
G02*
X226125000Y-100725998I0J-249998D01*
G01*
X226125000Y-101251002D01*
G75*
G02*
X225875002Y-101501000I-249998J0D01*
G01*
X224974998Y-101501000D01*
G75*
G02*
X224725000Y-101251002I0J249998D01*
G01*
X224725000Y-100725998D01*
G75*
G02*
X224974998Y-100476000I249998J0D01*
G01*
G37*
G36*
G01*
X184334998Y-140311000D02*
X185235002Y-140311000D01*
G75*
G02*
X185485000Y-140560998I0J-249998D01*
G01*
X185485000Y-141086002D01*
G75*
G02*
X185235002Y-141336000I-249998J0D01*
G01*
X184334998Y-141336000D01*
G75*
G02*
X184085000Y-141086002I0J249998D01*
G01*
X184085000Y-140560998D01*
G75*
G02*
X184334998Y-140311000I249998J0D01*
G01*
G37*
G36*
G01*
X184334998Y-142136000D02*
X185235002Y-142136000D01*
G75*
G02*
X185485000Y-142385998I0J-249998D01*
G01*
X185485000Y-142911002D01*
G75*
G02*
X185235002Y-143161000I-249998J0D01*
G01*
X184334998Y-143161000D01*
G75*
G02*
X184085000Y-142911002I0J249998D01*
G01*
X184085000Y-142385998D01*
G75*
G02*
X184334998Y-142136000I249998J0D01*
G01*
G37*
G36*
G01*
X210665000Y-160220002D02*
X210665000Y-159319998D01*
G75*
G02*
X210914998Y-159070000I249998J0D01*
G01*
X211440002Y-159070000D01*
G75*
G02*
X211690000Y-159319998I0J-249998D01*
G01*
X211690000Y-160220002D01*
G75*
G02*
X211440002Y-160470000I-249998J0D01*
G01*
X210914998Y-160470000D01*
G75*
G02*
X210665000Y-160220002I0J249998D01*
G01*
G37*
G36*
G01*
X212490000Y-160220002D02*
X212490000Y-159319998D01*
G75*
G02*
X212739998Y-159070000I249998J0D01*
G01*
X213265002Y-159070000D01*
G75*
G02*
X213515000Y-159319998I0J-249998D01*
G01*
X213515000Y-160220002D01*
G75*
G02*
X213265002Y-160470000I-249998J0D01*
G01*
X212739998Y-160470000D01*
G75*
G02*
X212490000Y-160220002I0J249998D01*
G01*
G37*
G36*
G01*
X210665000Y-118560002D02*
X210665000Y-117659998D01*
G75*
G02*
X210914998Y-117410000I249998J0D01*
G01*
X211440002Y-117410000D01*
G75*
G02*
X211690000Y-117659998I0J-249998D01*
G01*
X211690000Y-118560002D01*
G75*
G02*
X211440002Y-118810000I-249998J0D01*
G01*
X210914998Y-118810000D01*
G75*
G02*
X210665000Y-118560002I0J249998D01*
G01*
G37*
G36*
G01*
X212490000Y-118560002D02*
X212490000Y-117659998D01*
G75*
G02*
X212739998Y-117410000I249998J0D01*
G01*
X213265002Y-117410000D01*
G75*
G02*
X213515000Y-117659998I0J-249998D01*
G01*
X213515000Y-118560002D01*
G75*
G02*
X213265002Y-118810000I-249998J0D01*
G01*
X212739998Y-118810000D01*
G75*
G02*
X212490000Y-118560002I0J249998D01*
G01*
G37*
G36*
G01*
X170025000Y-160220002D02*
X170025000Y-159319998D01*
G75*
G02*
X170274998Y-159070000I249998J0D01*
G01*
X170800002Y-159070000D01*
G75*
G02*
X171050000Y-159319998I0J-249998D01*
G01*
X171050000Y-160220002D01*
G75*
G02*
X170800002Y-160470000I-249998J0D01*
G01*
X170274998Y-160470000D01*
G75*
G02*
X170025000Y-160220002I0J249998D01*
G01*
G37*
G36*
G01*
X171850000Y-160220002D02*
X171850000Y-159319998D01*
G75*
G02*
X172099998Y-159070000I249998J0D01*
G01*
X172625002Y-159070000D01*
G75*
G02*
X172875000Y-159319998I0J-249998D01*
G01*
X172875000Y-160220002D01*
G75*
G02*
X172625002Y-160470000I-249998J0D01*
G01*
X172099998Y-160470000D01*
G75*
G02*
X171850000Y-160220002I0J249998D01*
G01*
G37*
D12*
X216154000Y-151134000D03*
D13*
X215153748Y-149409000D03*
X215653874Y-149409000D03*
X216154000Y-149409000D03*
X216654126Y-149409000D03*
X217154252Y-149409000D03*
D14*
X217879000Y-150133999D03*
X217879000Y-150634001D03*
X217879000Y-151134000D03*
X217879000Y-151633999D03*
X217879000Y-152134001D03*
D13*
X217154252Y-152859000D03*
X216654126Y-152859000D03*
X216154000Y-152859000D03*
X215653874Y-152859000D03*
X215153748Y-152859000D03*
D14*
X214429000Y-152134001D03*
X214429000Y-151633999D03*
X214429000Y-151134000D03*
X214429000Y-150634001D03*
X214429000Y-150133999D03*
D12*
X216154000Y-109474000D03*
D13*
X215153748Y-107749000D03*
X215653874Y-107749000D03*
X216154000Y-107749000D03*
X216654126Y-107749000D03*
X217154252Y-107749000D03*
D14*
X217879000Y-108473999D03*
X217879000Y-108974001D03*
X217879000Y-109474000D03*
X217879000Y-109973999D03*
X217879000Y-110474001D03*
D13*
X217154252Y-111199000D03*
X216654126Y-111199000D03*
X216154000Y-111199000D03*
X215653874Y-111199000D03*
X215153748Y-111199000D03*
D14*
X214429000Y-110474001D03*
X214429000Y-109973999D03*
X214429000Y-109474000D03*
X214429000Y-108974001D03*
X214429000Y-108473999D03*
D12*
X175514000Y-151134000D03*
D13*
X174513748Y-149409000D03*
X175013874Y-149409000D03*
X175514000Y-149409000D03*
X176014126Y-149409000D03*
X176514252Y-149409000D03*
D14*
X177239000Y-150133999D03*
X177239000Y-150634001D03*
X177239000Y-151134000D03*
X177239000Y-151633999D03*
X177239000Y-152134001D03*
D13*
X176514252Y-152859000D03*
X176014126Y-152859000D03*
X175514000Y-152859000D03*
X175013874Y-152859000D03*
X174513748Y-152859000D03*
D14*
X173789000Y-152134001D03*
X173789000Y-151633999D03*
X173789000Y-151134000D03*
X173789000Y-150634001D03*
X173789000Y-150133999D03*
G36*
G01*
X220825000Y-160220002D02*
X220825000Y-159319998D01*
G75*
G02*
X221074998Y-159070000I249998J0D01*
G01*
X221600002Y-159070000D01*
G75*
G02*
X221850000Y-159319998I0J-249998D01*
G01*
X221850000Y-160220002D01*
G75*
G02*
X221600002Y-160470000I-249998J0D01*
G01*
X221074998Y-160470000D01*
G75*
G02*
X220825000Y-160220002I0J249998D01*
G01*
G37*
G36*
G01*
X222650000Y-160220002D02*
X222650000Y-159319998D01*
G75*
G02*
X222899998Y-159070000I249998J0D01*
G01*
X223425002Y-159070000D01*
G75*
G02*
X223675000Y-159319998I0J-249998D01*
G01*
X223675000Y-160220002D01*
G75*
G02*
X223425002Y-160470000I-249998J0D01*
G01*
X222899998Y-160470000D01*
G75*
G02*
X222650000Y-160220002I0J249998D01*
G01*
G37*
G36*
G01*
X220825000Y-118560002D02*
X220825000Y-117659998D01*
G75*
G02*
X221074998Y-117410000I249998J0D01*
G01*
X221600002Y-117410000D01*
G75*
G02*
X221850000Y-117659998I0J-249998D01*
G01*
X221850000Y-118560002D01*
G75*
G02*
X221600002Y-118810000I-249998J0D01*
G01*
X221074998Y-118810000D01*
G75*
G02*
X220825000Y-118560002I0J249998D01*
G01*
G37*
G36*
G01*
X222650000Y-118560002D02*
X222650000Y-117659998D01*
G75*
G02*
X222899998Y-117410000I249998J0D01*
G01*
X223425002Y-117410000D01*
G75*
G02*
X223675000Y-117659998I0J-249998D01*
G01*
X223675000Y-118560002D01*
G75*
G02*
X223425002Y-118810000I-249998J0D01*
G01*
X222899998Y-118810000D01*
G75*
G02*
X222650000Y-118560002I0J249998D01*
G01*
G37*
G36*
G01*
X180185000Y-160220002D02*
X180185000Y-159319998D01*
G75*
G02*
X180434998Y-159070000I249998J0D01*
G01*
X180960002Y-159070000D01*
G75*
G02*
X181210000Y-159319998I0J-249998D01*
G01*
X181210000Y-160220002D01*
G75*
G02*
X180960002Y-160470000I-249998J0D01*
G01*
X180434998Y-160470000D01*
G75*
G02*
X180185000Y-160220002I0J249998D01*
G01*
G37*
G36*
G01*
X182010000Y-160220002D02*
X182010000Y-159319998D01*
G75*
G02*
X182259998Y-159070000I249998J0D01*
G01*
X182785002Y-159070000D01*
G75*
G02*
X183035000Y-159319998I0J-249998D01*
G01*
X183035000Y-160220002D01*
G75*
G02*
X182785002Y-160470000I-249998J0D01*
G01*
X182259998Y-160470000D01*
G75*
G02*
X182010000Y-160220002I0J249998D01*
G01*
G37*
G36*
G01*
X213556002Y-146526500D02*
X212655998Y-146526500D01*
G75*
G02*
X212406000Y-146276502I0J249998D01*
G01*
X212406000Y-145751498D01*
G75*
G02*
X212655998Y-145501500I249998J0D01*
G01*
X213556002Y-145501500D01*
G75*
G02*
X213806000Y-145751498I0J-249998D01*
G01*
X213806000Y-146276502D01*
G75*
G02*
X213556002Y-146526500I-249998J0D01*
G01*
G37*
G36*
G01*
X213556002Y-144701500D02*
X212655998Y-144701500D01*
G75*
G02*
X212406000Y-144451502I0J249998D01*
G01*
X212406000Y-143926498D01*
G75*
G02*
X212655998Y-143676500I249998J0D01*
G01*
X213556002Y-143676500D01*
G75*
G02*
X213806000Y-143926498I0J-249998D01*
G01*
X213806000Y-144451502D01*
G75*
G02*
X213556002Y-144701500I-249998J0D01*
G01*
G37*
G36*
G01*
X213556002Y-104866500D02*
X212655998Y-104866500D01*
G75*
G02*
X212406000Y-104616502I0J249998D01*
G01*
X212406000Y-104091498D01*
G75*
G02*
X212655998Y-103841500I249998J0D01*
G01*
X213556002Y-103841500D01*
G75*
G02*
X213806000Y-104091498I0J-249998D01*
G01*
X213806000Y-104616502D01*
G75*
G02*
X213556002Y-104866500I-249998J0D01*
G01*
G37*
G36*
G01*
X213556002Y-103041500D02*
X212655998Y-103041500D01*
G75*
G02*
X212406000Y-102791502I0J249998D01*
G01*
X212406000Y-102266498D01*
G75*
G02*
X212655998Y-102016500I249998J0D01*
G01*
X213556002Y-102016500D01*
G75*
G02*
X213806000Y-102266498I0J-249998D01*
G01*
X213806000Y-102791502D01*
G75*
G02*
X213556002Y-103041500I-249998J0D01*
G01*
G37*
G36*
G01*
X172916002Y-146526500D02*
X172015998Y-146526500D01*
G75*
G02*
X171766000Y-146276502I0J249998D01*
G01*
X171766000Y-145751498D01*
G75*
G02*
X172015998Y-145501500I249998J0D01*
G01*
X172916002Y-145501500D01*
G75*
G02*
X173166000Y-145751498I0J-249998D01*
G01*
X173166000Y-146276502D01*
G75*
G02*
X172916002Y-146526500I-249998J0D01*
G01*
G37*
G36*
G01*
X172916002Y-144701500D02*
X172015998Y-144701500D01*
G75*
G02*
X171766000Y-144451502I0J249998D01*
G01*
X171766000Y-143926498D01*
G75*
G02*
X172015998Y-143676500I249998J0D01*
G01*
X172916002Y-143676500D01*
G75*
G02*
X173166000Y-143926498I0J-249998D01*
G01*
X173166000Y-144451502D01*
G75*
G02*
X172916002Y-144701500I-249998J0D01*
G01*
G37*
D15*
X219204500Y-142545500D03*
X221104500Y-142545500D03*
X220154500Y-140545500D03*
X219204500Y-100885500D03*
X221104500Y-100885500D03*
X220154500Y-98885500D03*
X178564500Y-142545500D03*
X180464500Y-142545500D03*
X179514500Y-140545500D03*
G36*
G01*
X208934000Y-158061002D02*
X208934000Y-157160998D01*
G75*
G02*
X209183998Y-156911000I249998J0D01*
G01*
X209709002Y-156911000D01*
G75*
G02*
X209959000Y-157160998I0J-249998D01*
G01*
X209959000Y-158061002D01*
G75*
G02*
X209709002Y-158311000I-249998J0D01*
G01*
X209183998Y-158311000D01*
G75*
G02*
X208934000Y-158061002I0J249998D01*
G01*
G37*
G36*
G01*
X207109000Y-158061002D02*
X207109000Y-157160998D01*
G75*
G02*
X207358998Y-156911000I249998J0D01*
G01*
X207884002Y-156911000D01*
G75*
G02*
X208134000Y-157160998I0J-249998D01*
G01*
X208134000Y-158061002D01*
G75*
G02*
X207884002Y-158311000I-249998J0D01*
G01*
X207358998Y-158311000D01*
G75*
G02*
X207109000Y-158061002I0J249998D01*
G01*
G37*
G36*
G01*
X208934000Y-116401002D02*
X208934000Y-115500998D01*
G75*
G02*
X209183998Y-115251000I249998J0D01*
G01*
X209709002Y-115251000D01*
G75*
G02*
X209959000Y-115500998I0J-249998D01*
G01*
X209959000Y-116401002D01*
G75*
G02*
X209709002Y-116651000I-249998J0D01*
G01*
X209183998Y-116651000D01*
G75*
G02*
X208934000Y-116401002I0J249998D01*
G01*
G37*
G36*
G01*
X207109000Y-116401002D02*
X207109000Y-115500998D01*
G75*
G02*
X207358998Y-115251000I249998J0D01*
G01*
X207884002Y-115251000D01*
G75*
G02*
X208134000Y-115500998I0J-249998D01*
G01*
X208134000Y-116401002D01*
G75*
G02*
X207884002Y-116651000I-249998J0D01*
G01*
X207358998Y-116651000D01*
G75*
G02*
X207109000Y-116401002I0J249998D01*
G01*
G37*
G36*
G01*
X168294000Y-158061002D02*
X168294000Y-157160998D01*
G75*
G02*
X168543998Y-156911000I249998J0D01*
G01*
X169069002Y-156911000D01*
G75*
G02*
X169319000Y-157160998I0J-249998D01*
G01*
X169319000Y-158061002D01*
G75*
G02*
X169069002Y-158311000I-249998J0D01*
G01*
X168543998Y-158311000D01*
G75*
G02*
X168294000Y-158061002I0J249998D01*
G01*
G37*
G36*
G01*
X166469000Y-158061002D02*
X166469000Y-157160998D01*
G75*
G02*
X166718998Y-156911000I249998J0D01*
G01*
X167244002Y-156911000D01*
G75*
G02*
X167494000Y-157160998I0J-249998D01*
G01*
X167494000Y-158061002D01*
G75*
G02*
X167244002Y-158311000I-249998J0D01*
G01*
X166718998Y-158311000D01*
G75*
G02*
X166469000Y-158061002I0J249998D01*
G01*
G37*
G36*
G01*
X221620502Y-146590000D02*
X220720498Y-146590000D01*
G75*
G02*
X220470500Y-146340002I0J249998D01*
G01*
X220470500Y-145814998D01*
G75*
G02*
X220720498Y-145565000I249998J0D01*
G01*
X221620502Y-145565000D01*
G75*
G02*
X221870500Y-145814998I0J-249998D01*
G01*
X221870500Y-146340002D01*
G75*
G02*
X221620502Y-146590000I-249998J0D01*
G01*
G37*
G36*
G01*
X221620502Y-144765000D02*
X220720498Y-144765000D01*
G75*
G02*
X220470500Y-144515002I0J249998D01*
G01*
X220470500Y-143989998D01*
G75*
G02*
X220720498Y-143740000I249998J0D01*
G01*
X221620502Y-143740000D01*
G75*
G02*
X221870500Y-143989998I0J-249998D01*
G01*
X221870500Y-144515002D01*
G75*
G02*
X221620502Y-144765000I-249998J0D01*
G01*
G37*
G36*
G01*
X221620502Y-104930000D02*
X220720498Y-104930000D01*
G75*
G02*
X220470500Y-104680002I0J249998D01*
G01*
X220470500Y-104154998D01*
G75*
G02*
X220720498Y-103905000I249998J0D01*
G01*
X221620502Y-103905000D01*
G75*
G02*
X221870500Y-104154998I0J-249998D01*
G01*
X221870500Y-104680002D01*
G75*
G02*
X221620502Y-104930000I-249998J0D01*
G01*
G37*
G36*
G01*
X221620502Y-103105000D02*
X220720498Y-103105000D01*
G75*
G02*
X220470500Y-102855002I0J249998D01*
G01*
X220470500Y-102329998D01*
G75*
G02*
X220720498Y-102080000I249998J0D01*
G01*
X221620502Y-102080000D01*
G75*
G02*
X221870500Y-102329998I0J-249998D01*
G01*
X221870500Y-102855002D01*
G75*
G02*
X221620502Y-103105000I-249998J0D01*
G01*
G37*
G36*
G01*
X180980502Y-146590000D02*
X180080498Y-146590000D01*
G75*
G02*
X179830500Y-146340002I0J249998D01*
G01*
X179830500Y-145814998D01*
G75*
G02*
X180080498Y-145565000I249998J0D01*
G01*
X180980502Y-145565000D01*
G75*
G02*
X181230500Y-145814998I0J-249998D01*
G01*
X181230500Y-146340002D01*
G75*
G02*
X180980502Y-146590000I-249998J0D01*
G01*
G37*
G36*
G01*
X180980502Y-144765000D02*
X180080498Y-144765000D01*
G75*
G02*
X179830500Y-144515002I0J249998D01*
G01*
X179830500Y-143989998D01*
G75*
G02*
X180080498Y-143740000I249998J0D01*
G01*
X180980502Y-143740000D01*
G75*
G02*
X181230500Y-143989998I0J-249998D01*
G01*
X181230500Y-144515002D01*
G75*
G02*
X180980502Y-144765000I-249998J0D01*
G01*
G37*
G36*
G01*
X214154960Y-160247942D02*
X214154960Y-159347938D01*
G75*
G02*
X214404958Y-159097940I249998J0D01*
G01*
X214929962Y-159097940D01*
G75*
G02*
X215179960Y-159347938I0J-249998D01*
G01*
X215179960Y-160247942D01*
G75*
G02*
X214929962Y-160497940I-249998J0D01*
G01*
X214404958Y-160497940D01*
G75*
G02*
X214154960Y-160247942I0J249998D01*
G01*
G37*
G36*
G01*
X215979960Y-160247942D02*
X215979960Y-159347938D01*
G75*
G02*
X216229958Y-159097940I249998J0D01*
G01*
X216754962Y-159097940D01*
G75*
G02*
X217004960Y-159347938I0J-249998D01*
G01*
X217004960Y-160247942D01*
G75*
G02*
X216754962Y-160497940I-249998J0D01*
G01*
X216229958Y-160497940D01*
G75*
G02*
X215979960Y-160247942I0J249998D01*
G01*
G37*
G36*
G01*
X214154960Y-118587942D02*
X214154960Y-117687938D01*
G75*
G02*
X214404958Y-117437940I249998J0D01*
G01*
X214929962Y-117437940D01*
G75*
G02*
X215179960Y-117687938I0J-249998D01*
G01*
X215179960Y-118587942D01*
G75*
G02*
X214929962Y-118837940I-249998J0D01*
G01*
X214404958Y-118837940D01*
G75*
G02*
X214154960Y-118587942I0J249998D01*
G01*
G37*
G36*
G01*
X215979960Y-118587942D02*
X215979960Y-117687938D01*
G75*
G02*
X216229958Y-117437940I249998J0D01*
G01*
X216754962Y-117437940D01*
G75*
G02*
X217004960Y-117687938I0J-249998D01*
G01*
X217004960Y-118587942D01*
G75*
G02*
X216754962Y-118837940I-249998J0D01*
G01*
X216229958Y-118837940D01*
G75*
G02*
X215979960Y-118587942I0J249998D01*
G01*
G37*
G36*
G01*
X173514960Y-160247942D02*
X173514960Y-159347938D01*
G75*
G02*
X173764958Y-159097940I249998J0D01*
G01*
X174289962Y-159097940D01*
G75*
G02*
X174539960Y-159347938I0J-249998D01*
G01*
X174539960Y-160247942D01*
G75*
G02*
X174289962Y-160497940I-249998J0D01*
G01*
X173764958Y-160497940D01*
G75*
G02*
X173514960Y-160247942I0J249998D01*
G01*
G37*
G36*
G01*
X175339960Y-160247942D02*
X175339960Y-159347938D01*
G75*
G02*
X175589958Y-159097940I249998J0D01*
G01*
X176114962Y-159097940D01*
G75*
G02*
X176364960Y-159347938I0J-249998D01*
G01*
X176364960Y-160247942D01*
G75*
G02*
X176114962Y-160497940I-249998J0D01*
G01*
X175589958Y-160497940D01*
G75*
G02*
X175339960Y-160247942I0J249998D01*
G01*
G37*
G36*
G01*
X224974998Y-147169000D02*
X225875002Y-147169000D01*
G75*
G02*
X226125000Y-147418998I0J-249998D01*
G01*
X226125000Y-147944002D01*
G75*
G02*
X225875002Y-148194000I-249998J0D01*
G01*
X224974998Y-148194000D01*
G75*
G02*
X224725000Y-147944002I0J249998D01*
G01*
X224725000Y-147418998D01*
G75*
G02*
X224974998Y-147169000I249998J0D01*
G01*
G37*
G36*
G01*
X224974998Y-148994000D02*
X225875002Y-148994000D01*
G75*
G02*
X226125000Y-149243998I0J-249998D01*
G01*
X226125000Y-149769002D01*
G75*
G02*
X225875002Y-150019000I-249998J0D01*
G01*
X224974998Y-150019000D01*
G75*
G02*
X224725000Y-149769002I0J249998D01*
G01*
X224725000Y-149243998D01*
G75*
G02*
X224974998Y-148994000I249998J0D01*
G01*
G37*
G36*
G01*
X224974998Y-105509000D02*
X225875002Y-105509000D01*
G75*
G02*
X226125000Y-105758998I0J-249998D01*
G01*
X226125000Y-106284002D01*
G75*
G02*
X225875002Y-106534000I-249998J0D01*
G01*
X224974998Y-106534000D01*
G75*
G02*
X224725000Y-106284002I0J249998D01*
G01*
X224725000Y-105758998D01*
G75*
G02*
X224974998Y-105509000I249998J0D01*
G01*
G37*
G36*
G01*
X224974998Y-107334000D02*
X225875002Y-107334000D01*
G75*
G02*
X226125000Y-107583998I0J-249998D01*
G01*
X226125000Y-108109002D01*
G75*
G02*
X225875002Y-108359000I-249998J0D01*
G01*
X224974998Y-108359000D01*
G75*
G02*
X224725000Y-108109002I0J249998D01*
G01*
X224725000Y-107583998D01*
G75*
G02*
X224974998Y-107334000I249998J0D01*
G01*
G37*
G36*
G01*
X184334998Y-147169000D02*
X185235002Y-147169000D01*
G75*
G02*
X185485000Y-147418998I0J-249998D01*
G01*
X185485000Y-147944002D01*
G75*
G02*
X185235002Y-148194000I-249998J0D01*
G01*
X184334998Y-148194000D01*
G75*
G02*
X184085000Y-147944002I0J249998D01*
G01*
X184085000Y-147418998D01*
G75*
G02*
X184334998Y-147169000I249998J0D01*
G01*
G37*
G36*
G01*
X184334998Y-148994000D02*
X185235002Y-148994000D01*
G75*
G02*
X185485000Y-149243998I0J-249998D01*
G01*
X185485000Y-149769002D01*
G75*
G02*
X185235002Y-150019000I-249998J0D01*
G01*
X184334998Y-150019000D01*
G75*
G02*
X184085000Y-149769002I0J249998D01*
G01*
X184085000Y-149243998D01*
G75*
G02*
X184334998Y-148994000I249998J0D01*
G01*
G37*
G36*
G01*
X210623998Y-143676500D02*
X211524002Y-143676500D01*
G75*
G02*
X211774000Y-143926498I0J-249998D01*
G01*
X211774000Y-144451502D01*
G75*
G02*
X211524002Y-144701500I-249998J0D01*
G01*
X210623998Y-144701500D01*
G75*
G02*
X210374000Y-144451502I0J249998D01*
G01*
X210374000Y-143926498D01*
G75*
G02*
X210623998Y-143676500I249998J0D01*
G01*
G37*
G36*
G01*
X210623998Y-145501500D02*
X211524002Y-145501500D01*
G75*
G02*
X211774000Y-145751498I0J-249998D01*
G01*
X211774000Y-146276502D01*
G75*
G02*
X211524002Y-146526500I-249998J0D01*
G01*
X210623998Y-146526500D01*
G75*
G02*
X210374000Y-146276502I0J249998D01*
G01*
X210374000Y-145751498D01*
G75*
G02*
X210623998Y-145501500I249998J0D01*
G01*
G37*
G36*
G01*
X210623998Y-102016500D02*
X211524002Y-102016500D01*
G75*
G02*
X211774000Y-102266498I0J-249998D01*
G01*
X211774000Y-102791502D01*
G75*
G02*
X211524002Y-103041500I-249998J0D01*
G01*
X210623998Y-103041500D01*
G75*
G02*
X210374000Y-102791502I0J249998D01*
G01*
X210374000Y-102266498D01*
G75*
G02*
X210623998Y-102016500I249998J0D01*
G01*
G37*
G36*
G01*
X210623998Y-103841500D02*
X211524002Y-103841500D01*
G75*
G02*
X211774000Y-104091498I0J-249998D01*
G01*
X211774000Y-104616502D01*
G75*
G02*
X211524002Y-104866500I-249998J0D01*
G01*
X210623998Y-104866500D01*
G75*
G02*
X210374000Y-104616502I0J249998D01*
G01*
X210374000Y-104091498D01*
G75*
G02*
X210623998Y-103841500I249998J0D01*
G01*
G37*
G36*
G01*
X169983998Y-143676500D02*
X170884002Y-143676500D01*
G75*
G02*
X171134000Y-143926498I0J-249998D01*
G01*
X171134000Y-144451502D01*
G75*
G02*
X170884002Y-144701500I-249998J0D01*
G01*
X169983998Y-144701500D01*
G75*
G02*
X169734000Y-144451502I0J249998D01*
G01*
X169734000Y-143926498D01*
G75*
G02*
X169983998Y-143676500I249998J0D01*
G01*
G37*
G36*
G01*
X169983998Y-145501500D02*
X170884002Y-145501500D01*
G75*
G02*
X171134000Y-145751498I0J-249998D01*
G01*
X171134000Y-146276502D01*
G75*
G02*
X170884002Y-146526500I-249998J0D01*
G01*
X169983998Y-146526500D01*
G75*
G02*
X169734000Y-146276502I0J249998D01*
G01*
X169734000Y-145751498D01*
G75*
G02*
X169983998Y-145501500I249998J0D01*
G01*
G37*
G36*
G01*
X222978300Y-143863800D02*
X223528300Y-143863800D01*
G75*
G02*
X223728300Y-144063800I0J-200000D01*
G01*
X223728300Y-144463800D01*
G75*
G02*
X223528300Y-144663800I-200000J0D01*
G01*
X222978300Y-144663800D01*
G75*
G02*
X222778300Y-144463800I0J200000D01*
G01*
X222778300Y-144063800D01*
G75*
G02*
X222978300Y-143863800I200000J0D01*
G01*
G37*
G36*
G01*
X222978300Y-145513800D02*
X223528300Y-145513800D01*
G75*
G02*
X223728300Y-145713800I0J-200000D01*
G01*
X223728300Y-146113800D01*
G75*
G02*
X223528300Y-146313800I-200000J0D01*
G01*
X222978300Y-146313800D01*
G75*
G02*
X222778300Y-146113800I0J200000D01*
G01*
X222778300Y-145713800D01*
G75*
G02*
X222978300Y-145513800I200000J0D01*
G01*
G37*
G36*
G01*
X222978300Y-102203800D02*
X223528300Y-102203800D01*
G75*
G02*
X223728300Y-102403800I0J-200000D01*
G01*
X223728300Y-102803800D01*
G75*
G02*
X223528300Y-103003800I-200000J0D01*
G01*
X222978300Y-103003800D01*
G75*
G02*
X222778300Y-102803800I0J200000D01*
G01*
X222778300Y-102403800D01*
G75*
G02*
X222978300Y-102203800I200000J0D01*
G01*
G37*
G36*
G01*
X222978300Y-103853800D02*
X223528300Y-103853800D01*
G75*
G02*
X223728300Y-104053800I0J-200000D01*
G01*
X223728300Y-104453800D01*
G75*
G02*
X223528300Y-104653800I-200000J0D01*
G01*
X222978300Y-104653800D01*
G75*
G02*
X222778300Y-104453800I0J200000D01*
G01*
X222778300Y-104053800D01*
G75*
G02*
X222978300Y-103853800I200000J0D01*
G01*
G37*
G36*
G01*
X182338300Y-143863800D02*
X182888300Y-143863800D01*
G75*
G02*
X183088300Y-144063800I0J-200000D01*
G01*
X183088300Y-144463800D01*
G75*
G02*
X182888300Y-144663800I-200000J0D01*
G01*
X182338300Y-144663800D01*
G75*
G02*
X182138300Y-144463800I0J200000D01*
G01*
X182138300Y-144063800D01*
G75*
G02*
X182338300Y-143863800I200000J0D01*
G01*
G37*
G36*
G01*
X182338300Y-145513800D02*
X182888300Y-145513800D01*
G75*
G02*
X183088300Y-145713800I0J-200000D01*
G01*
X183088300Y-146113800D01*
G75*
G02*
X182888300Y-146313800I-200000J0D01*
G01*
X182338300Y-146313800D01*
G75*
G02*
X182138300Y-146113800I0J200000D01*
G01*
X182138300Y-145713800D01*
G75*
G02*
X182338300Y-145513800I200000J0D01*
G01*
G37*
X211140000Y-142545500D03*
X213040000Y-142545500D03*
X212090000Y-140545500D03*
X211140000Y-100885500D03*
X213040000Y-100885500D03*
X212090000Y-98885500D03*
X170500000Y-142545500D03*
X172400000Y-142545500D03*
X171450000Y-140545500D03*
G36*
G01*
X218688498Y-143740000D02*
X219588502Y-143740000D01*
G75*
G02*
X219838500Y-143989998I0J-249998D01*
G01*
X219838500Y-144515002D01*
G75*
G02*
X219588502Y-144765000I-249998J0D01*
G01*
X218688498Y-144765000D01*
G75*
G02*
X218438500Y-144515002I0J249998D01*
G01*
X218438500Y-143989998D01*
G75*
G02*
X218688498Y-143740000I249998J0D01*
G01*
G37*
G36*
G01*
X218688498Y-145565000D02*
X219588502Y-145565000D01*
G75*
G02*
X219838500Y-145814998I0J-249998D01*
G01*
X219838500Y-146340002D01*
G75*
G02*
X219588502Y-146590000I-249998J0D01*
G01*
X218688498Y-146590000D01*
G75*
G02*
X218438500Y-146340002I0J249998D01*
G01*
X218438500Y-145814998D01*
G75*
G02*
X218688498Y-145565000I249998J0D01*
G01*
G37*
G36*
G01*
X218688498Y-102080000D02*
X219588502Y-102080000D01*
G75*
G02*
X219838500Y-102329998I0J-249998D01*
G01*
X219838500Y-102855002D01*
G75*
G02*
X219588502Y-103105000I-249998J0D01*
G01*
X218688498Y-103105000D01*
G75*
G02*
X218438500Y-102855002I0J249998D01*
G01*
X218438500Y-102329998D01*
G75*
G02*
X218688498Y-102080000I249998J0D01*
G01*
G37*
G36*
G01*
X218688498Y-103905000D02*
X219588502Y-103905000D01*
G75*
G02*
X219838500Y-104154998I0J-249998D01*
G01*
X219838500Y-104680002D01*
G75*
G02*
X219588502Y-104930000I-249998J0D01*
G01*
X218688498Y-104930000D01*
G75*
G02*
X218438500Y-104680002I0J249998D01*
G01*
X218438500Y-104154998D01*
G75*
G02*
X218688498Y-103905000I249998J0D01*
G01*
G37*
G36*
G01*
X178048498Y-143740000D02*
X178948502Y-143740000D01*
G75*
G02*
X179198500Y-143989998I0J-249998D01*
G01*
X179198500Y-144515002D01*
G75*
G02*
X178948502Y-144765000I-249998J0D01*
G01*
X178048498Y-144765000D01*
G75*
G02*
X177798500Y-144515002I0J249998D01*
G01*
X177798500Y-143989998D01*
G75*
G02*
X178048498Y-143740000I249998J0D01*
G01*
G37*
G36*
G01*
X178048498Y-145565000D02*
X178948502Y-145565000D01*
G75*
G02*
X179198500Y-145814998I0J-249998D01*
G01*
X179198500Y-146340002D01*
G75*
G02*
X178948502Y-146590000I-249998J0D01*
G01*
X178048498Y-146590000D01*
G75*
G02*
X177798500Y-146340002I0J249998D01*
G01*
X177798500Y-145814998D01*
G75*
G02*
X178048498Y-145565000I249998J0D01*
G01*
G37*
G36*
G01*
X224974998Y-143740000D02*
X225875002Y-143740000D01*
G75*
G02*
X226125000Y-143989998I0J-249998D01*
G01*
X226125000Y-144515002D01*
G75*
G02*
X225875002Y-144765000I-249998J0D01*
G01*
X224974998Y-144765000D01*
G75*
G02*
X224725000Y-144515002I0J249998D01*
G01*
X224725000Y-143989998D01*
G75*
G02*
X224974998Y-143740000I249998J0D01*
G01*
G37*
G36*
G01*
X224974998Y-145565000D02*
X225875002Y-145565000D01*
G75*
G02*
X226125000Y-145814998I0J-249998D01*
G01*
X226125000Y-146340002D01*
G75*
G02*
X225875002Y-146590000I-249998J0D01*
G01*
X224974998Y-146590000D01*
G75*
G02*
X224725000Y-146340002I0J249998D01*
G01*
X224725000Y-145814998D01*
G75*
G02*
X224974998Y-145565000I249998J0D01*
G01*
G37*
G36*
G01*
X224974998Y-102080000D02*
X225875002Y-102080000D01*
G75*
G02*
X226125000Y-102329998I0J-249998D01*
G01*
X226125000Y-102855002D01*
G75*
G02*
X225875002Y-103105000I-249998J0D01*
G01*
X224974998Y-103105000D01*
G75*
G02*
X224725000Y-102855002I0J249998D01*
G01*
X224725000Y-102329998D01*
G75*
G02*
X224974998Y-102080000I249998J0D01*
G01*
G37*
G36*
G01*
X224974998Y-103905000D02*
X225875002Y-103905000D01*
G75*
G02*
X226125000Y-104154998I0J-249998D01*
G01*
X226125000Y-104680002D01*
G75*
G02*
X225875002Y-104930000I-249998J0D01*
G01*
X224974998Y-104930000D01*
G75*
G02*
X224725000Y-104680002I0J249998D01*
G01*
X224725000Y-104154998D01*
G75*
G02*
X224974998Y-103905000I249998J0D01*
G01*
G37*
G36*
G01*
X184334998Y-143740000D02*
X185235002Y-143740000D01*
G75*
G02*
X185485000Y-143989998I0J-249998D01*
G01*
X185485000Y-144515002D01*
G75*
G02*
X185235002Y-144765000I-249998J0D01*
G01*
X184334998Y-144765000D01*
G75*
G02*
X184085000Y-144515002I0J249998D01*
G01*
X184085000Y-143989998D01*
G75*
G02*
X184334998Y-143740000I249998J0D01*
G01*
G37*
G36*
G01*
X184334998Y-145565000D02*
X185235002Y-145565000D01*
G75*
G02*
X185485000Y-145814998I0J-249998D01*
G01*
X185485000Y-146340002D01*
G75*
G02*
X185235002Y-146590000I-249998J0D01*
G01*
X184334998Y-146590000D01*
G75*
G02*
X184085000Y-146340002I0J249998D01*
G01*
X184085000Y-145814998D01*
G75*
G02*
X184334998Y-145565000I249998J0D01*
G01*
G37*
G36*
G01*
X183101000Y-99626000D02*
X182151000Y-99626000D01*
G75*
G02*
X181901000Y-99376000I0J250000D01*
G01*
X181901000Y-98876000D01*
G75*
G02*
X182151000Y-98626000I250000J0D01*
G01*
X183101000Y-98626000D01*
G75*
G02*
X183351000Y-98876000I0J-250000D01*
G01*
X183351000Y-99376000D01*
G75*
G02*
X183101000Y-99626000I-250000J0D01*
G01*
G37*
G36*
G01*
X183101000Y-101526000D02*
X182151000Y-101526000D01*
G75*
G02*
X181901000Y-101276000I0J250000D01*
G01*
X181901000Y-100776000D01*
G75*
G02*
X182151000Y-100526000I250000J0D01*
G01*
X183101000Y-100526000D01*
G75*
G02*
X183351000Y-100776000I0J-250000D01*
G01*
X183351000Y-101276000D01*
G75*
G02*
X183101000Y-101526000I-250000J0D01*
G01*
G37*
G36*
G01*
X178733000Y-118385000D02*
X178733000Y-117835000D01*
G75*
G02*
X178933000Y-117635000I200000J0D01*
G01*
X179333000Y-117635000D01*
G75*
G02*
X179533000Y-117835000I0J-200000D01*
G01*
X179533000Y-118385000D01*
G75*
G02*
X179333000Y-118585000I-200000J0D01*
G01*
X178933000Y-118585000D01*
G75*
G02*
X178733000Y-118385000I0J200000D01*
G01*
G37*
G36*
G01*
X177083000Y-118385000D02*
X177083000Y-117835000D01*
G75*
G02*
X177283000Y-117635000I200000J0D01*
G01*
X177683000Y-117635000D01*
G75*
G02*
X177883000Y-117835000I0J-200000D01*
G01*
X177883000Y-118385000D01*
G75*
G02*
X177683000Y-118585000I-200000J0D01*
G01*
X177283000Y-118585000D01*
G75*
G02*
X177083000Y-118385000I0J200000D01*
G01*
G37*
G36*
G01*
X167721498Y-97912500D02*
X168621502Y-97912500D01*
G75*
G02*
X168871500Y-98162498I0J-249998D01*
G01*
X168871500Y-98687502D01*
G75*
G02*
X168621502Y-98937500I-249998J0D01*
G01*
X167721498Y-98937500D01*
G75*
G02*
X167471500Y-98687502I0J249998D01*
G01*
X167471500Y-98162498D01*
G75*
G02*
X167721498Y-97912500I249998J0D01*
G01*
G37*
G36*
G01*
X167721498Y-99737500D02*
X168621502Y-99737500D01*
G75*
G02*
X168871500Y-99987498I0J-249998D01*
G01*
X168871500Y-100512502D01*
G75*
G02*
X168621502Y-100762500I-249998J0D01*
G01*
X167721498Y-100762500D01*
G75*
G02*
X167471500Y-100512502I0J249998D01*
G01*
X167471500Y-99987498D01*
G75*
G02*
X167721498Y-99737500I249998J0D01*
G01*
G37*
G36*
G01*
X167721498Y-101485000D02*
X168621502Y-101485000D01*
G75*
G02*
X168871500Y-101734998I0J-249998D01*
G01*
X168871500Y-102260002D01*
G75*
G02*
X168621502Y-102510000I-249998J0D01*
G01*
X167721498Y-102510000D01*
G75*
G02*
X167471500Y-102260002I0J249998D01*
G01*
X167471500Y-101734998D01*
G75*
G02*
X167721498Y-101485000I249998J0D01*
G01*
G37*
G36*
G01*
X167721498Y-103310000D02*
X168621502Y-103310000D01*
G75*
G02*
X168871500Y-103559998I0J-249998D01*
G01*
X168871500Y-104085002D01*
G75*
G02*
X168621502Y-104335000I-249998J0D01*
G01*
X167721498Y-104335000D01*
G75*
G02*
X167471500Y-104085002I0J249998D01*
G01*
X167471500Y-103559998D01*
G75*
G02*
X167721498Y-103310000I249998J0D01*
G01*
G37*
G36*
G01*
X167721498Y-105064500D02*
X168621502Y-105064500D01*
G75*
G02*
X168871500Y-105314498I0J-249998D01*
G01*
X168871500Y-105839502D01*
G75*
G02*
X168621502Y-106089500I-249998J0D01*
G01*
X167721498Y-106089500D01*
G75*
G02*
X167471500Y-105839502I0J249998D01*
G01*
X167471500Y-105314498D01*
G75*
G02*
X167721498Y-105064500I249998J0D01*
G01*
G37*
G36*
G01*
X167721498Y-106889500D02*
X168621502Y-106889500D01*
G75*
G02*
X168871500Y-107139498I0J-249998D01*
G01*
X168871500Y-107664502D01*
G75*
G02*
X168621502Y-107914500I-249998J0D01*
G01*
X167721498Y-107914500D01*
G75*
G02*
X167471500Y-107664502I0J249998D01*
G01*
X167471500Y-107139498D01*
G75*
G02*
X167721498Y-106889500I249998J0D01*
G01*
G37*
G36*
G01*
X166031500Y-98112500D02*
X166581500Y-98112500D01*
G75*
G02*
X166781500Y-98312500I0J-200000D01*
G01*
X166781500Y-98712500D01*
G75*
G02*
X166581500Y-98912500I-200000J0D01*
G01*
X166031500Y-98912500D01*
G75*
G02*
X165831500Y-98712500I0J200000D01*
G01*
X165831500Y-98312500D01*
G75*
G02*
X166031500Y-98112500I200000J0D01*
G01*
G37*
G36*
G01*
X166031500Y-99762500D02*
X166581500Y-99762500D01*
G75*
G02*
X166781500Y-99962500I0J-200000D01*
G01*
X166781500Y-100362500D01*
G75*
G02*
X166581500Y-100562500I-200000J0D01*
G01*
X166031500Y-100562500D01*
G75*
G02*
X165831500Y-100362500I0J200000D01*
G01*
X165831500Y-99962500D01*
G75*
G02*
X166031500Y-99762500I200000J0D01*
G01*
G37*
G36*
G01*
X166031500Y-101685000D02*
X166581500Y-101685000D01*
G75*
G02*
X166781500Y-101885000I0J-200000D01*
G01*
X166781500Y-102285000D01*
G75*
G02*
X166581500Y-102485000I-200000J0D01*
G01*
X166031500Y-102485000D01*
G75*
G02*
X165831500Y-102285000I0J200000D01*
G01*
X165831500Y-101885000D01*
G75*
G02*
X166031500Y-101685000I200000J0D01*
G01*
G37*
G36*
G01*
X166031500Y-103335000D02*
X166581500Y-103335000D01*
G75*
G02*
X166781500Y-103535000I0J-200000D01*
G01*
X166781500Y-103935000D01*
G75*
G02*
X166581500Y-104135000I-200000J0D01*
G01*
X166031500Y-104135000D01*
G75*
G02*
X165831500Y-103935000I0J200000D01*
G01*
X165831500Y-103535000D01*
G75*
G02*
X166031500Y-103335000I200000J0D01*
G01*
G37*
G36*
G01*
X166031500Y-105264500D02*
X166581500Y-105264500D01*
G75*
G02*
X166781500Y-105464500I0J-200000D01*
G01*
X166781500Y-105864500D01*
G75*
G02*
X166581500Y-106064500I-200000J0D01*
G01*
X166031500Y-106064500D01*
G75*
G02*
X165831500Y-105864500I0J200000D01*
G01*
X165831500Y-105464500D01*
G75*
G02*
X166031500Y-105264500I200000J0D01*
G01*
G37*
G36*
G01*
X166031500Y-106914500D02*
X166581500Y-106914500D01*
G75*
G02*
X166781500Y-107114500I0J-200000D01*
G01*
X166781500Y-107514500D01*
G75*
G02*
X166581500Y-107714500I-200000J0D01*
G01*
X166031500Y-107714500D01*
G75*
G02*
X165831500Y-107514500I0J200000D01*
G01*
X165831500Y-107114500D01*
G75*
G02*
X166031500Y-106914500I200000J0D01*
G01*
G37*
D11*
X162626800Y-99707700D03*
X164626800Y-98757700D03*
X164626800Y-100657700D03*
X162626800Y-104724200D03*
X164626800Y-103774200D03*
X164626800Y-105674200D03*
G36*
G01*
X183076002Y-113392000D02*
X182175998Y-113392000D01*
G75*
G02*
X181926000Y-113142002I0J249998D01*
G01*
X181926000Y-112616998D01*
G75*
G02*
X182175998Y-112367000I249998J0D01*
G01*
X183076002Y-112367000D01*
G75*
G02*
X183326000Y-112616998I0J-249998D01*
G01*
X183326000Y-113142002D01*
G75*
G02*
X183076002Y-113392000I-249998J0D01*
G01*
G37*
G36*
G01*
X183076002Y-115217000D02*
X182175998Y-115217000D01*
G75*
G02*
X181926000Y-114967002I0J249998D01*
G01*
X181926000Y-114441998D01*
G75*
G02*
X182175998Y-114192000I249998J0D01*
G01*
X183076002Y-114192000D01*
G75*
G02*
X183326000Y-114441998I0J-249998D01*
G01*
X183326000Y-114967002D01*
G75*
G02*
X183076002Y-115217000I-249998J0D01*
G01*
G37*
G36*
G01*
X184334998Y-117621000D02*
X185235002Y-117621000D01*
G75*
G02*
X185485000Y-117870998I0J-249998D01*
G01*
X185485000Y-118396002D01*
G75*
G02*
X185235002Y-118646000I-249998J0D01*
G01*
X184334998Y-118646000D01*
G75*
G02*
X184085000Y-118396002I0J249998D01*
G01*
X184085000Y-117870998D01*
G75*
G02*
X184334998Y-117621000I249998J0D01*
G01*
G37*
G36*
G01*
X184334998Y-115796000D02*
X185235002Y-115796000D01*
G75*
G02*
X185485000Y-116045998I0J-249998D01*
G01*
X185485000Y-116571002D01*
G75*
G02*
X185235002Y-116821000I-249998J0D01*
G01*
X184334998Y-116821000D01*
G75*
G02*
X184085000Y-116571002I0J249998D01*
G01*
X184085000Y-116045998D01*
G75*
G02*
X184334998Y-115796000I249998J0D01*
G01*
G37*
G36*
G01*
X184334998Y-110763000D02*
X185235002Y-110763000D01*
G75*
G02*
X185485000Y-111012998I0J-249998D01*
G01*
X185485000Y-111538002D01*
G75*
G02*
X185235002Y-111788000I-249998J0D01*
G01*
X184334998Y-111788000D01*
G75*
G02*
X184085000Y-111538002I0J249998D01*
G01*
X184085000Y-111012998D01*
G75*
G02*
X184334998Y-110763000I249998J0D01*
G01*
G37*
G36*
G01*
X184334998Y-108938000D02*
X185235002Y-108938000D01*
G75*
G02*
X185485000Y-109187998I0J-249998D01*
G01*
X185485000Y-109713002D01*
G75*
G02*
X185235002Y-109963000I-249998J0D01*
G01*
X184334998Y-109963000D01*
G75*
G02*
X184085000Y-109713002I0J249998D01*
G01*
X184085000Y-109187998D01*
G75*
G02*
X184334998Y-108938000I249998J0D01*
G01*
G37*
G36*
G01*
X184334998Y-114192000D02*
X185235002Y-114192000D01*
G75*
G02*
X185485000Y-114441998I0J-249998D01*
G01*
X185485000Y-114967002D01*
G75*
G02*
X185235002Y-115217000I-249998J0D01*
G01*
X184334998Y-115217000D01*
G75*
G02*
X184085000Y-114967002I0J249998D01*
G01*
X184085000Y-114441998D01*
G75*
G02*
X184334998Y-114192000I249998J0D01*
G01*
G37*
G36*
G01*
X184334998Y-112367000D02*
X185235002Y-112367000D01*
G75*
G02*
X185485000Y-112616998I0J-249998D01*
G01*
X185485000Y-113142002D01*
G75*
G02*
X185235002Y-113392000I-249998J0D01*
G01*
X184334998Y-113392000D01*
G75*
G02*
X184085000Y-113142002I0J249998D01*
G01*
X184085000Y-112616998D01*
G75*
G02*
X184334998Y-112367000I249998J0D01*
G01*
G37*
G36*
G01*
X184334998Y-100476000D02*
X185235002Y-100476000D01*
G75*
G02*
X185485000Y-100725998I0J-249998D01*
G01*
X185485000Y-101251002D01*
G75*
G02*
X185235002Y-101501000I-249998J0D01*
G01*
X184334998Y-101501000D01*
G75*
G02*
X184085000Y-101251002I0J249998D01*
G01*
X184085000Y-100725998D01*
G75*
G02*
X184334998Y-100476000I249998J0D01*
G01*
G37*
G36*
G01*
X184334998Y-98651000D02*
X185235002Y-98651000D01*
G75*
G02*
X185485000Y-98900998I0J-249998D01*
G01*
X185485000Y-99426002D01*
G75*
G02*
X185235002Y-99676000I-249998J0D01*
G01*
X184334998Y-99676000D01*
G75*
G02*
X184085000Y-99426002I0J249998D01*
G01*
X184085000Y-98900998D01*
G75*
G02*
X184334998Y-98651000I249998J0D01*
G01*
G37*
G36*
G01*
X184334998Y-103905000D02*
X185235002Y-103905000D01*
G75*
G02*
X185485000Y-104154998I0J-249998D01*
G01*
X185485000Y-104680002D01*
G75*
G02*
X185235002Y-104930000I-249998J0D01*
G01*
X184334998Y-104930000D01*
G75*
G02*
X184085000Y-104680002I0J249998D01*
G01*
X184085000Y-104154998D01*
G75*
G02*
X184334998Y-103905000I249998J0D01*
G01*
G37*
G36*
G01*
X184334998Y-102080000D02*
X185235002Y-102080000D01*
G75*
G02*
X185485000Y-102329998I0J-249998D01*
G01*
X185485000Y-102855002D01*
G75*
G02*
X185235002Y-103105000I-249998J0D01*
G01*
X184334998Y-103105000D01*
G75*
G02*
X184085000Y-102855002I0J249998D01*
G01*
X184085000Y-102329998D01*
G75*
G02*
X184334998Y-102080000I249998J0D01*
G01*
G37*
G36*
G01*
X184334998Y-107334000D02*
X185235002Y-107334000D01*
G75*
G02*
X185485000Y-107583998I0J-249998D01*
G01*
X185485000Y-108109002D01*
G75*
G02*
X185235002Y-108359000I-249998J0D01*
G01*
X184334998Y-108359000D01*
G75*
G02*
X184085000Y-108109002I0J249998D01*
G01*
X184085000Y-107583998D01*
G75*
G02*
X184334998Y-107334000I249998J0D01*
G01*
G37*
G36*
G01*
X184334998Y-105509000D02*
X185235002Y-105509000D01*
G75*
G02*
X185485000Y-105758998I0J-249998D01*
G01*
X185485000Y-106284002D01*
G75*
G02*
X185235002Y-106534000I-249998J0D01*
G01*
X184334998Y-106534000D01*
G75*
G02*
X184085000Y-106284002I0J249998D01*
G01*
X184085000Y-105758998D01*
G75*
G02*
X184334998Y-105509000I249998J0D01*
G01*
G37*
G36*
G01*
X182010000Y-118560002D02*
X182010000Y-117659998D01*
G75*
G02*
X182259998Y-117410000I249998J0D01*
G01*
X182785002Y-117410000D01*
G75*
G02*
X183035000Y-117659998I0J-249998D01*
G01*
X183035000Y-118560002D01*
G75*
G02*
X182785002Y-118810000I-249998J0D01*
G01*
X182259998Y-118810000D01*
G75*
G02*
X182010000Y-118560002I0J249998D01*
G01*
G37*
G36*
G01*
X180185000Y-118560002D02*
X180185000Y-117659998D01*
G75*
G02*
X180434998Y-117410000I249998J0D01*
G01*
X180960002Y-117410000D01*
G75*
G02*
X181210000Y-117659998I0J-249998D01*
G01*
X181210000Y-118560002D01*
G75*
G02*
X180960002Y-118810000I-249998J0D01*
G01*
X180434998Y-118810000D01*
G75*
G02*
X180185000Y-118560002I0J249998D01*
G01*
G37*
G36*
G01*
X168294000Y-118560002D02*
X168294000Y-117659998D01*
G75*
G02*
X168543998Y-117410000I249998J0D01*
G01*
X169069002Y-117410000D01*
G75*
G02*
X169319000Y-117659998I0J-249998D01*
G01*
X169319000Y-118560002D01*
G75*
G02*
X169069002Y-118810000I-249998J0D01*
G01*
X168543998Y-118810000D01*
G75*
G02*
X168294000Y-118560002I0J249998D01*
G01*
G37*
G36*
G01*
X166469000Y-118560002D02*
X166469000Y-117659998D01*
G75*
G02*
X166718998Y-117410000I249998J0D01*
G01*
X167244002Y-117410000D01*
G75*
G02*
X167494000Y-117659998I0J-249998D01*
G01*
X167494000Y-118560002D01*
G75*
G02*
X167244002Y-118810000I-249998J0D01*
G01*
X166718998Y-118810000D01*
G75*
G02*
X166469000Y-118560002I0J249998D01*
G01*
G37*
G36*
G01*
X171850000Y-118560002D02*
X171850000Y-117659998D01*
G75*
G02*
X172099998Y-117410000I249998J0D01*
G01*
X172625002Y-117410000D01*
G75*
G02*
X172875000Y-117659998I0J-249998D01*
G01*
X172875000Y-118560002D01*
G75*
G02*
X172625002Y-118810000I-249998J0D01*
G01*
X172099998Y-118810000D01*
G75*
G02*
X171850000Y-118560002I0J249998D01*
G01*
G37*
G36*
G01*
X170025000Y-118560002D02*
X170025000Y-117659998D01*
G75*
G02*
X170274998Y-117410000I249998J0D01*
G01*
X170800002Y-117410000D01*
G75*
G02*
X171050000Y-117659998I0J-249998D01*
G01*
X171050000Y-118560002D01*
G75*
G02*
X170800002Y-118810000I-249998J0D01*
G01*
X170274998Y-118810000D01*
G75*
G02*
X170025000Y-118560002I0J249998D01*
G01*
G37*
G36*
G01*
X175339960Y-118587942D02*
X175339960Y-117687938D01*
G75*
G02*
X175589958Y-117437940I249998J0D01*
G01*
X176114962Y-117437940D01*
G75*
G02*
X176364960Y-117687938I0J-249998D01*
G01*
X176364960Y-118587942D01*
G75*
G02*
X176114962Y-118837940I-249998J0D01*
G01*
X175589958Y-118837940D01*
G75*
G02*
X175339960Y-118587942I0J249998D01*
G01*
G37*
G36*
G01*
X173514960Y-118587942D02*
X173514960Y-117687938D01*
G75*
G02*
X173764958Y-117437940I249998J0D01*
G01*
X174289962Y-117437940D01*
G75*
G02*
X174539960Y-117687938I0J-249998D01*
G01*
X174539960Y-118587942D01*
G75*
G02*
X174289962Y-118837940I-249998J0D01*
G01*
X173764958Y-118837940D01*
G75*
G02*
X173514960Y-118587942I0J249998D01*
G01*
G37*
D14*
X173789000Y-108473999D03*
X173789000Y-108974001D03*
X173789000Y-109474000D03*
X173789000Y-109973999D03*
X173789000Y-110474001D03*
D13*
X174513748Y-111199000D03*
X175013874Y-111199000D03*
X175514000Y-111199000D03*
X176014126Y-111199000D03*
X176514252Y-111199000D03*
D14*
X177239000Y-110474001D03*
X177239000Y-109973999D03*
X177239000Y-109474000D03*
X177239000Y-108974001D03*
X177239000Y-108473999D03*
D13*
X176514252Y-107749000D03*
X176014126Y-107749000D03*
X175514000Y-107749000D03*
X175013874Y-107749000D03*
X174513748Y-107749000D03*
D12*
X175514000Y-109474000D03*
G36*
G01*
X172916002Y-103041500D02*
X172015998Y-103041500D01*
G75*
G02*
X171766000Y-102791502I0J249998D01*
G01*
X171766000Y-102266498D01*
G75*
G02*
X172015998Y-102016500I249998J0D01*
G01*
X172916002Y-102016500D01*
G75*
G02*
X173166000Y-102266498I0J-249998D01*
G01*
X173166000Y-102791502D01*
G75*
G02*
X172916002Y-103041500I-249998J0D01*
G01*
G37*
G36*
G01*
X172916002Y-104866500D02*
X172015998Y-104866500D01*
G75*
G02*
X171766000Y-104616502I0J249998D01*
G01*
X171766000Y-104091498D01*
G75*
G02*
X172015998Y-103841500I249998J0D01*
G01*
X172916002Y-103841500D01*
G75*
G02*
X173166000Y-104091498I0J-249998D01*
G01*
X173166000Y-104616502D01*
G75*
G02*
X172916002Y-104866500I-249998J0D01*
G01*
G37*
G36*
G01*
X180980502Y-103105000D02*
X180080498Y-103105000D01*
G75*
G02*
X179830500Y-102855002I0J249998D01*
G01*
X179830500Y-102329998D01*
G75*
G02*
X180080498Y-102080000I249998J0D01*
G01*
X180980502Y-102080000D01*
G75*
G02*
X181230500Y-102329998I0J-249998D01*
G01*
X181230500Y-102855002D01*
G75*
G02*
X180980502Y-103105000I-249998J0D01*
G01*
G37*
G36*
G01*
X180980502Y-104930000D02*
X180080498Y-104930000D01*
G75*
G02*
X179830500Y-104680002I0J249998D01*
G01*
X179830500Y-104154998D01*
G75*
G02*
X180080498Y-103905000I249998J0D01*
G01*
X180980502Y-103905000D01*
G75*
G02*
X181230500Y-104154998I0J-249998D01*
G01*
X181230500Y-104680002D01*
G75*
G02*
X180980502Y-104930000I-249998J0D01*
G01*
G37*
G36*
G01*
X169983998Y-103841500D02*
X170884002Y-103841500D01*
G75*
G02*
X171134000Y-104091498I0J-249998D01*
G01*
X171134000Y-104616502D01*
G75*
G02*
X170884002Y-104866500I-249998J0D01*
G01*
X169983998Y-104866500D01*
G75*
G02*
X169734000Y-104616502I0J249998D01*
G01*
X169734000Y-104091498D01*
G75*
G02*
X169983998Y-103841500I249998J0D01*
G01*
G37*
G36*
G01*
X169983998Y-102016500D02*
X170884002Y-102016500D01*
G75*
G02*
X171134000Y-102266498I0J-249998D01*
G01*
X171134000Y-102791502D01*
G75*
G02*
X170884002Y-103041500I-249998J0D01*
G01*
X169983998Y-103041500D01*
G75*
G02*
X169734000Y-102791502I0J249998D01*
G01*
X169734000Y-102266498D01*
G75*
G02*
X169983998Y-102016500I249998J0D01*
G01*
G37*
G36*
G01*
X178048498Y-103905000D02*
X178948502Y-103905000D01*
G75*
G02*
X179198500Y-104154998I0J-249998D01*
G01*
X179198500Y-104680002D01*
G75*
G02*
X178948502Y-104930000I-249998J0D01*
G01*
X178048498Y-104930000D01*
G75*
G02*
X177798500Y-104680002I0J249998D01*
G01*
X177798500Y-104154998D01*
G75*
G02*
X178048498Y-103905000I249998J0D01*
G01*
G37*
G36*
G01*
X178048498Y-102080000D02*
X178948502Y-102080000D01*
G75*
G02*
X179198500Y-102329998I0J-249998D01*
G01*
X179198500Y-102855002D01*
G75*
G02*
X178948502Y-103105000I-249998J0D01*
G01*
X178048498Y-103105000D01*
G75*
G02*
X177798500Y-102855002I0J249998D01*
G01*
X177798500Y-102329998D01*
G75*
G02*
X178048498Y-102080000I249998J0D01*
G01*
G37*
G36*
G01*
X166469000Y-116401002D02*
X166469000Y-115500998D01*
G75*
G02*
X166718998Y-115251000I249998J0D01*
G01*
X167244002Y-115251000D01*
G75*
G02*
X167494000Y-115500998I0J-249998D01*
G01*
X167494000Y-116401002D01*
G75*
G02*
X167244002Y-116651000I-249998J0D01*
G01*
X166718998Y-116651000D01*
G75*
G02*
X166469000Y-116401002I0J249998D01*
G01*
G37*
G36*
G01*
X168294000Y-116401002D02*
X168294000Y-115500998D01*
G75*
G02*
X168543998Y-115251000I249998J0D01*
G01*
X169069002Y-115251000D01*
G75*
G02*
X169319000Y-115500998I0J-249998D01*
G01*
X169319000Y-116401002D01*
G75*
G02*
X169069002Y-116651000I-249998J0D01*
G01*
X168543998Y-116651000D01*
G75*
G02*
X168294000Y-116401002I0J249998D01*
G01*
G37*
D15*
X171450000Y-98885500D03*
X172400000Y-100885500D03*
X170500000Y-100885500D03*
X179514500Y-98885500D03*
X180464500Y-100885500D03*
X178564500Y-100885500D03*
G36*
G01*
X182338300Y-103853800D02*
X182888300Y-103853800D01*
G75*
G02*
X183088300Y-104053800I0J-200000D01*
G01*
X183088300Y-104453800D01*
G75*
G02*
X182888300Y-104653800I-200000J0D01*
G01*
X182338300Y-104653800D01*
G75*
G02*
X182138300Y-104453800I0J200000D01*
G01*
X182138300Y-104053800D01*
G75*
G02*
X182338300Y-103853800I200000J0D01*
G01*
G37*
G36*
G01*
X182338300Y-102203800D02*
X182888300Y-102203800D01*
G75*
G02*
X183088300Y-102403800I0J-200000D01*
G01*
X183088300Y-102803800D01*
G75*
G02*
X182888300Y-103003800I-200000J0D01*
G01*
X182338300Y-103003800D01*
G75*
G02*
X182138300Y-102803800I0J200000D01*
G01*
X182138300Y-102403800D01*
G75*
G02*
X182338300Y-102203800I200000J0D01*
G01*
G37*
G36*
G01*
X182338300Y-107282800D02*
X182888300Y-107282800D01*
G75*
G02*
X183088300Y-107482800I0J-200000D01*
G01*
X183088300Y-107882800D01*
G75*
G02*
X182888300Y-108082800I-200000J0D01*
G01*
X182338300Y-108082800D01*
G75*
G02*
X182138300Y-107882800I0J200000D01*
G01*
X182138300Y-107482800D01*
G75*
G02*
X182338300Y-107282800I200000J0D01*
G01*
G37*
G36*
G01*
X182338300Y-105632800D02*
X182888300Y-105632800D01*
G75*
G02*
X183088300Y-105832800I0J-200000D01*
G01*
X183088300Y-106232800D01*
G75*
G02*
X182888300Y-106432800I-200000J0D01*
G01*
X182338300Y-106432800D01*
G75*
G02*
X182138300Y-106232800I0J200000D01*
G01*
X182138300Y-105832800D01*
G75*
G02*
X182338300Y-105632800I200000J0D01*
G01*
G37*
G36*
G01*
X182338300Y-110711800D02*
X182888300Y-110711800D01*
G75*
G02*
X183088300Y-110911800I0J-200000D01*
G01*
X183088300Y-111311800D01*
G75*
G02*
X182888300Y-111511800I-200000J0D01*
G01*
X182338300Y-111511800D01*
G75*
G02*
X182138300Y-111311800I0J200000D01*
G01*
X182138300Y-110911800D01*
G75*
G02*
X182338300Y-110711800I200000J0D01*
G01*
G37*
G36*
G01*
X182338300Y-109061800D02*
X182888300Y-109061800D01*
G75*
G02*
X183088300Y-109261800I0J-200000D01*
G01*
X183088300Y-109661800D01*
G75*
G02*
X182888300Y-109861800I-200000J0D01*
G01*
X182338300Y-109861800D01*
G75*
G02*
X182138300Y-109661800I0J200000D01*
G01*
X182138300Y-109261800D01*
G75*
G02*
X182338300Y-109061800I200000J0D01*
G01*
G37*
G36*
G01*
X173399000Y-114829000D02*
X173399000Y-114279000D01*
G75*
G02*
X173599000Y-114079000I200000J0D01*
G01*
X173999000Y-114079000D01*
G75*
G02*
X174199000Y-114279000I0J-200000D01*
G01*
X174199000Y-114829000D01*
G75*
G02*
X173999000Y-115029000I-200000J0D01*
G01*
X173599000Y-115029000D01*
G75*
G02*
X173399000Y-114829000I0J200000D01*
G01*
G37*
G36*
G01*
X171749000Y-114829000D02*
X171749000Y-114279000D01*
G75*
G02*
X171949000Y-114079000I200000J0D01*
G01*
X172349000Y-114079000D01*
G75*
G02*
X172549000Y-114279000I0J-200000D01*
G01*
X172549000Y-114829000D01*
G75*
G02*
X172349000Y-115029000I-200000J0D01*
G01*
X171949000Y-115029000D01*
G75*
G02*
X171749000Y-114829000I0J200000D01*
G01*
G37*
G36*
G01*
X178479000Y-114829000D02*
X178479000Y-114279000D01*
G75*
G02*
X178679000Y-114079000I200000J0D01*
G01*
X179079000Y-114079000D01*
G75*
G02*
X179279000Y-114279000I0J-200000D01*
G01*
X179279000Y-114829000D01*
G75*
G02*
X179079000Y-115029000I-200000J0D01*
G01*
X178679000Y-115029000D01*
G75*
G02*
X178479000Y-114829000I0J200000D01*
G01*
G37*
G36*
G01*
X176829000Y-114829000D02*
X176829000Y-114279000D01*
G75*
G02*
X177029000Y-114079000I200000J0D01*
G01*
X177429000Y-114079000D01*
G75*
G02*
X177629000Y-114279000I0J-200000D01*
G01*
X177629000Y-114829000D01*
G75*
G02*
X177429000Y-115029000I-200000J0D01*
G01*
X177029000Y-115029000D01*
G75*
G02*
X176829000Y-114829000I0J200000D01*
G01*
G37*
G36*
G01*
X166357500Y-109860501D02*
X166357500Y-108960499D01*
G75*
G02*
X166607499Y-108710500I249999J0D01*
G01*
X167257501Y-108710500D01*
G75*
G02*
X167507500Y-108960499I0J-249999D01*
G01*
X167507500Y-109860501D01*
G75*
G02*
X167257501Y-110110500I-249999J0D01*
G01*
X166607499Y-110110500D01*
G75*
G02*
X166357500Y-109860501I0J249999D01*
G01*
G37*
G36*
G01*
X168407500Y-109860501D02*
X168407500Y-108960499D01*
G75*
G02*
X168657499Y-108710500I249999J0D01*
G01*
X169307501Y-108710500D01*
G75*
G02*
X169557500Y-108960499I0J-249999D01*
G01*
X169557500Y-109860501D01*
G75*
G02*
X169307501Y-110110500I-249999J0D01*
G01*
X168657499Y-110110500D01*
G75*
G02*
X168407500Y-109860501I0J249999D01*
G01*
G37*
G36*
G01*
X175964000Y-102456000D02*
X175964000Y-101506000D01*
G75*
G02*
X176214000Y-101256000I250000J0D01*
G01*
X176714000Y-101256000D01*
G75*
G02*
X176964000Y-101506000I0J-250000D01*
G01*
X176964000Y-102456000D01*
G75*
G02*
X176714000Y-102706000I-250000J0D01*
G01*
X176214000Y-102706000D01*
G75*
G02*
X175964000Y-102456000I0J250000D01*
G01*
G37*
G36*
G01*
X174064000Y-102456000D02*
X174064000Y-101506000D01*
G75*
G02*
X174314000Y-101256000I250000J0D01*
G01*
X174814000Y-101256000D01*
G75*
G02*
X175064000Y-101506000I0J-250000D01*
G01*
X175064000Y-102456000D01*
G75*
G02*
X174814000Y-102706000I-250000J0D01*
G01*
X174314000Y-102706000D01*
G75*
G02*
X174064000Y-102456000I0J250000D01*
G01*
G37*
G36*
G01*
X175964000Y-100297000D02*
X175964000Y-99347000D01*
G75*
G02*
X176214000Y-99097000I250000J0D01*
G01*
X176714000Y-99097000D01*
G75*
G02*
X176964000Y-99347000I0J-250000D01*
G01*
X176964000Y-100297000D01*
G75*
G02*
X176714000Y-100547000I-250000J0D01*
G01*
X176214000Y-100547000D01*
G75*
G02*
X175964000Y-100297000I0J250000D01*
G01*
G37*
G36*
G01*
X174064000Y-100297000D02*
X174064000Y-99347000D01*
G75*
G02*
X174314000Y-99097000I250000J0D01*
G01*
X174814000Y-99097000D01*
G75*
G02*
X175064000Y-99347000I0J-250000D01*
G01*
X175064000Y-100297000D01*
G75*
G02*
X174814000Y-100547000I-250000J0D01*
G01*
X174314000Y-100547000D01*
G75*
G02*
X174064000Y-100297000I0J250000D01*
G01*
G37*
G36*
G01*
X175964000Y-104615000D02*
X175964000Y-103665000D01*
G75*
G02*
X176214000Y-103415000I250000J0D01*
G01*
X176714000Y-103415000D01*
G75*
G02*
X176964000Y-103665000I0J-250000D01*
G01*
X176964000Y-104615000D01*
G75*
G02*
X176714000Y-104865000I-250000J0D01*
G01*
X176214000Y-104865000D01*
G75*
G02*
X175964000Y-104615000I0J250000D01*
G01*
G37*
G36*
G01*
X174064000Y-104615000D02*
X174064000Y-103665000D01*
G75*
G02*
X174314000Y-103415000I250000J0D01*
G01*
X174814000Y-103415000D01*
G75*
G02*
X175064000Y-103665000I0J-250000D01*
G01*
X175064000Y-104615000D01*
G75*
G02*
X174814000Y-104865000I-250000J0D01*
G01*
X174314000Y-104865000D01*
G75*
G02*
X174064000Y-104615000I0J250000D01*
G01*
G37*
G36*
G01*
X169344000Y-111094500D02*
X169344000Y-112044500D01*
G75*
G02*
X169094000Y-112294500I-250000J0D01*
G01*
X168594000Y-112294500D01*
G75*
G02*
X168344000Y-112044500I0J250000D01*
G01*
X168344000Y-111094500D01*
G75*
G02*
X168594000Y-110844500I250000J0D01*
G01*
X169094000Y-110844500D01*
G75*
G02*
X169344000Y-111094500I0J-250000D01*
G01*
G37*
G36*
G01*
X167444000Y-111094500D02*
X167444000Y-112044500D01*
G75*
G02*
X167194000Y-112294500I-250000J0D01*
G01*
X166694000Y-112294500D01*
G75*
G02*
X166444000Y-112044500I0J250000D01*
G01*
X166444000Y-111094500D01*
G75*
G02*
X166694000Y-110844500I250000J0D01*
G01*
X167194000Y-110844500D01*
G75*
G02*
X167444000Y-111094500I0J-250000D01*
G01*
G37*
G36*
G01*
X169344000Y-113317000D02*
X169344000Y-114267000D01*
G75*
G02*
X169094000Y-114517000I-250000J0D01*
G01*
X168594000Y-114517000D01*
G75*
G02*
X168344000Y-114267000I0J250000D01*
G01*
X168344000Y-113317000D01*
G75*
G02*
X168594000Y-113067000I250000J0D01*
G01*
X169094000Y-113067000D01*
G75*
G02*
X169344000Y-113317000I0J-250000D01*
G01*
G37*
G36*
G01*
X167444000Y-113317000D02*
X167444000Y-114267000D01*
G75*
G02*
X167194000Y-114517000I-250000J0D01*
G01*
X166694000Y-114517000D01*
G75*
G02*
X166444000Y-114267000I0J250000D01*
G01*
X166444000Y-113317000D01*
G75*
G02*
X166694000Y-113067000I250000J0D01*
G01*
X167194000Y-113067000D01*
G75*
G02*
X167444000Y-113317000I0J-250000D01*
G01*
G37*
M02*
