G04 #@! TF.GenerationSoftware,KiCad,Pcbnew,(5.1.10)-1*
G04 #@! TF.CreationDate,2021-08-11T14:43:19-03:00*
G04 #@! TF.ProjectId,BQ25505,42513235-3530-4352-9e6b-696361645f70,rev?*
G04 #@! TF.SameCoordinates,Original*
G04 #@! TF.FileFunction,Soldermask,Bot*
G04 #@! TF.FilePolarity,Negative*
%FSLAX46Y46*%
G04 Gerber Fmt 4.6, Leading zero omitted, Abs format (unit mm)*
G04 Created by KiCad (PCBNEW (5.1.10)-1) date 2021-08-11 14:43:19*
%MOMM*%
%LPD*%
G01*
G04 APERTURE LIST*
%ADD10O,1.802000X1.802000*%
%ADD11C,0.610000*%
%ADD12C,3.102000*%
%ADD13O,3.102000X3.102000*%
%ADD14C,0.100000*%
G04 APERTURE END LIST*
G36*
G01*
X228054800Y-134434200D02*
X229754800Y-134434200D01*
G75*
G02*
X229805800Y-134485200I0J-51000D01*
G01*
X229805800Y-136185200D01*
G75*
G02*
X229754800Y-136236200I-51000J0D01*
G01*
X228054800Y-136236200D01*
G75*
G02*
X228003800Y-136185200I0J51000D01*
G01*
X228003800Y-134485200D01*
G75*
G02*
X228054800Y-134434200I51000J0D01*
G01*
G37*
D10*
X226364800Y-135335200D03*
G36*
G01*
X228054800Y-92774200D02*
X229754800Y-92774200D01*
G75*
G02*
X229805800Y-92825200I0J-51000D01*
G01*
X229805800Y-94525200D01*
G75*
G02*
X229754800Y-94576200I-51000J0D01*
G01*
X228054800Y-94576200D01*
G75*
G02*
X228003800Y-94525200I0J51000D01*
G01*
X228003800Y-92825200D01*
G75*
G02*
X228054800Y-92774200I51000J0D01*
G01*
G37*
X226364800Y-93675200D03*
G36*
G01*
X187414800Y-134434200D02*
X189114800Y-134434200D01*
G75*
G02*
X189165800Y-134485200I0J-51000D01*
G01*
X189165800Y-136185200D01*
G75*
G02*
X189114800Y-136236200I-51000J0D01*
G01*
X187414800Y-136236200D01*
G75*
G02*
X187363800Y-136185200I0J51000D01*
G01*
X187363800Y-134485200D01*
G75*
G02*
X187414800Y-134434200I51000J0D01*
G01*
G37*
X185724800Y-135335200D03*
G36*
G01*
X199556000Y-134434200D02*
X201256000Y-134434200D01*
G75*
G02*
X201307000Y-134485200I0J-51000D01*
G01*
X201307000Y-136185200D01*
G75*
G02*
X201256000Y-136236200I-51000J0D01*
G01*
X199556000Y-136236200D01*
G75*
G02*
X199505000Y-136185200I0J51000D01*
G01*
X199505000Y-134485200D01*
G75*
G02*
X199556000Y-134434200I51000J0D01*
G01*
G37*
X197866000Y-135335200D03*
G36*
G01*
X199556000Y-92774200D02*
X201256000Y-92774200D01*
G75*
G02*
X201307000Y-92825200I0J-51000D01*
G01*
X201307000Y-94525200D01*
G75*
G02*
X201256000Y-94576200I-51000J0D01*
G01*
X199556000Y-94576200D01*
G75*
G02*
X199505000Y-94525200I0J51000D01*
G01*
X199505000Y-92825200D01*
G75*
G02*
X199556000Y-92774200I51000J0D01*
G01*
G37*
X197866000Y-93675200D03*
G36*
G01*
X158916000Y-134434200D02*
X160616000Y-134434200D01*
G75*
G02*
X160667000Y-134485200I0J-51000D01*
G01*
X160667000Y-136185200D01*
G75*
G02*
X160616000Y-136236200I-51000J0D01*
G01*
X158916000Y-136236200D01*
G75*
G02*
X158865000Y-136185200I0J51000D01*
G01*
X158865000Y-134485200D01*
G75*
G02*
X158916000Y-134434200I51000J0D01*
G01*
G37*
X157226000Y-135335200D03*
G36*
G01*
X229793100Y-155300500D02*
X229793100Y-157000500D01*
G75*
G02*
X229742100Y-157051500I-51000J0D01*
G01*
X228042100Y-157051500D01*
G75*
G02*
X227991100Y-157000500I0J51000D01*
G01*
X227991100Y-155300500D01*
G75*
G02*
X228042100Y-155249500I51000J0D01*
G01*
X229742100Y-155249500D01*
G75*
G02*
X229793100Y-155300500I0J-51000D01*
G01*
G37*
X228892100Y-153610500D03*
X228892100Y-151070500D03*
G36*
G01*
X229793100Y-113640500D02*
X229793100Y-115340500D01*
G75*
G02*
X229742100Y-115391500I-51000J0D01*
G01*
X228042100Y-115391500D01*
G75*
G02*
X227991100Y-115340500I0J51000D01*
G01*
X227991100Y-113640500D01*
G75*
G02*
X228042100Y-113589500I51000J0D01*
G01*
X229742100Y-113589500D01*
G75*
G02*
X229793100Y-113640500I0J-51000D01*
G01*
G37*
X228892100Y-111950500D03*
X228892100Y-109410500D03*
G36*
G01*
X189153100Y-155300500D02*
X189153100Y-157000500D01*
G75*
G02*
X189102100Y-157051500I-51000J0D01*
G01*
X187402100Y-157051500D01*
G75*
G02*
X187351100Y-157000500I0J51000D01*
G01*
X187351100Y-155300500D01*
G75*
G02*
X187402100Y-155249500I51000J0D01*
G01*
X189102100Y-155249500D01*
G75*
G02*
X189153100Y-155300500I0J-51000D01*
G01*
G37*
X188252100Y-153610500D03*
X188252100Y-151070500D03*
G36*
G01*
X205855200Y-134434200D02*
X207555200Y-134434200D01*
G75*
G02*
X207606200Y-134485200I0J-51000D01*
G01*
X207606200Y-136185200D01*
G75*
G02*
X207555200Y-136236200I-51000J0D01*
G01*
X205855200Y-136236200D01*
G75*
G02*
X205804200Y-136185200I0J51000D01*
G01*
X205804200Y-134485200D01*
G75*
G02*
X205855200Y-134434200I51000J0D01*
G01*
G37*
X204165200Y-135335200D03*
G36*
G01*
X205855200Y-92774200D02*
X207555200Y-92774200D01*
G75*
G02*
X207606200Y-92825200I0J-51000D01*
G01*
X207606200Y-94525200D01*
G75*
G02*
X207555200Y-94576200I-51000J0D01*
G01*
X205855200Y-94576200D01*
G75*
G02*
X205804200Y-94525200I0J51000D01*
G01*
X205804200Y-92825200D01*
G75*
G02*
X205855200Y-92774200I51000J0D01*
G01*
G37*
X204165200Y-93675200D03*
G36*
G01*
X165215200Y-134434200D02*
X166915200Y-134434200D01*
G75*
G02*
X166966200Y-134485200I0J-51000D01*
G01*
X166966200Y-136185200D01*
G75*
G02*
X166915200Y-136236200I-51000J0D01*
G01*
X165215200Y-136236200D01*
G75*
G02*
X165164200Y-136185200I0J51000D01*
G01*
X165164200Y-134485200D01*
G75*
G02*
X165215200Y-134434200I51000J0D01*
G01*
G37*
X163525200Y-135335200D03*
X210464400Y-135335200D03*
X213004400Y-135335200D03*
G36*
G01*
X214694400Y-134434200D02*
X216394400Y-134434200D01*
G75*
G02*
X216445400Y-134485200I0J-51000D01*
G01*
X216445400Y-136185200D01*
G75*
G02*
X216394400Y-136236200I-51000J0D01*
G01*
X214694400Y-136236200D01*
G75*
G02*
X214643400Y-136185200I0J51000D01*
G01*
X214643400Y-134485200D01*
G75*
G02*
X214694400Y-134434200I51000J0D01*
G01*
G37*
X210464400Y-93675200D03*
X213004400Y-93675200D03*
G36*
G01*
X214694400Y-92774200D02*
X216394400Y-92774200D01*
G75*
G02*
X216445400Y-92825200I0J-51000D01*
G01*
X216445400Y-94525200D01*
G75*
G02*
X216394400Y-94576200I-51000J0D01*
G01*
X214694400Y-94576200D01*
G75*
G02*
X214643400Y-94525200I0J51000D01*
G01*
X214643400Y-92825200D01*
G75*
G02*
X214694400Y-92774200I51000J0D01*
G01*
G37*
X169824400Y-135335200D03*
X172364400Y-135335200D03*
G36*
G01*
X174054400Y-134434200D02*
X175754400Y-134434200D01*
G75*
G02*
X175805400Y-134485200I0J-51000D01*
G01*
X175805400Y-136185200D01*
G75*
G02*
X175754400Y-136236200I-51000J0D01*
G01*
X174054400Y-136236200D01*
G75*
G02*
X174003400Y-136185200I0J51000D01*
G01*
X174003400Y-134485200D01*
G75*
G02*
X174054400Y-134434200I51000J0D01*
G01*
G37*
D11*
X216547700Y-150740300D03*
X216547700Y-151527700D03*
X215760300Y-150740300D03*
X215760300Y-151527700D03*
X216547700Y-109080300D03*
X216547700Y-109867700D03*
X215760300Y-109080300D03*
X215760300Y-109867700D03*
X175907700Y-150740300D03*
X175907700Y-151527700D03*
X175120300Y-150740300D03*
X175120300Y-151527700D03*
G36*
G01*
X229793100Y-146283500D02*
X229793100Y-147983500D01*
G75*
G02*
X229742100Y-148034500I-51000J0D01*
G01*
X228042100Y-148034500D01*
G75*
G02*
X227991100Y-147983500I0J51000D01*
G01*
X227991100Y-146283500D01*
G75*
G02*
X228042100Y-146232500I51000J0D01*
G01*
X229742100Y-146232500D01*
G75*
G02*
X229793100Y-146283500I0J-51000D01*
G01*
G37*
D10*
X228892100Y-144593500D03*
X228892100Y-142053500D03*
G36*
G01*
X229793100Y-104623500D02*
X229793100Y-106323500D01*
G75*
G02*
X229742100Y-106374500I-51000J0D01*
G01*
X228042100Y-106374500D01*
G75*
G02*
X227991100Y-106323500I0J51000D01*
G01*
X227991100Y-104623500D01*
G75*
G02*
X228042100Y-104572500I51000J0D01*
G01*
X229742100Y-104572500D01*
G75*
G02*
X229793100Y-104623500I0J-51000D01*
G01*
G37*
X228892100Y-102933500D03*
X228892100Y-100393500D03*
G36*
G01*
X189153100Y-146283500D02*
X189153100Y-147983500D01*
G75*
G02*
X189102100Y-148034500I-51000J0D01*
G01*
X187402100Y-148034500D01*
G75*
G02*
X187351100Y-147983500I0J51000D01*
G01*
X187351100Y-146283500D01*
G75*
G02*
X187402100Y-146232500I51000J0D01*
G01*
X189102100Y-146232500D01*
G75*
G02*
X189153100Y-146283500I0J-51000D01*
G01*
G37*
X188252100Y-144593500D03*
X188252100Y-142053500D03*
D12*
X199136000Y-146460400D03*
X199136000Y-141380400D03*
X199136000Y-104800400D03*
X199136000Y-99720400D03*
X158496000Y-146460400D03*
X158496000Y-141380400D03*
X231648000Y-131068000D03*
X231648000Y-89408000D03*
X191008000Y-131068000D03*
G36*
G01*
X200636000Y-162235400D02*
X197636000Y-162235400D01*
G75*
G02*
X197585000Y-162184400I0J51000D01*
G01*
X197585000Y-159184400D01*
G75*
G02*
X197636000Y-159133400I51000J0D01*
G01*
X200636000Y-159133400D01*
G75*
G02*
X200687000Y-159184400I0J-51000D01*
G01*
X200687000Y-162184400D01*
G75*
G02*
X200636000Y-162235400I-51000J0D01*
G01*
G37*
D13*
X199136000Y-155604400D03*
G36*
G01*
X200636000Y-120575400D02*
X197636000Y-120575400D01*
G75*
G02*
X197585000Y-120524400I0J51000D01*
G01*
X197585000Y-117524400D01*
G75*
G02*
X197636000Y-117473400I51000J0D01*
G01*
X200636000Y-117473400D01*
G75*
G02*
X200687000Y-117524400I0J-51000D01*
G01*
X200687000Y-120524400D01*
G75*
G02*
X200636000Y-120575400I-51000J0D01*
G01*
G37*
X199136000Y-113944400D03*
G36*
G01*
X159996000Y-162235400D02*
X156996000Y-162235400D01*
G75*
G02*
X156945000Y-162184400I0J51000D01*
G01*
X156945000Y-159184400D01*
G75*
G02*
X156996000Y-159133400I51000J0D01*
G01*
X159996000Y-159133400D01*
G75*
G02*
X160047000Y-159184400I0J-51000D01*
G01*
X160047000Y-162184400D01*
G75*
G02*
X159996000Y-162235400I-51000J0D01*
G01*
G37*
X158496000Y-155604400D03*
G36*
G01*
X221755600Y-134434200D02*
X223455600Y-134434200D01*
G75*
G02*
X223506600Y-134485200I0J-51000D01*
G01*
X223506600Y-136185200D01*
G75*
G02*
X223455600Y-136236200I-51000J0D01*
G01*
X221755600Y-136236200D01*
G75*
G02*
X221704600Y-136185200I0J51000D01*
G01*
X221704600Y-134485200D01*
G75*
G02*
X221755600Y-134434200I51000J0D01*
G01*
G37*
D10*
X220065600Y-135335200D03*
G36*
G01*
X221755600Y-92774200D02*
X223455600Y-92774200D01*
G75*
G02*
X223506600Y-92825200I0J-51000D01*
G01*
X223506600Y-94525200D01*
G75*
G02*
X223455600Y-94576200I-51000J0D01*
G01*
X221755600Y-94576200D01*
G75*
G02*
X221704600Y-94525200I0J51000D01*
G01*
X221704600Y-92825200D01*
G75*
G02*
X221755600Y-92774200I51000J0D01*
G01*
G37*
X220065600Y-93675200D03*
G36*
G01*
X181115600Y-134434200D02*
X182815600Y-134434200D01*
G75*
G02*
X182866600Y-134485200I0J-51000D01*
G01*
X182866600Y-136185200D01*
G75*
G02*
X182815600Y-136236200I-51000J0D01*
G01*
X181115600Y-136236200D01*
G75*
G02*
X181064600Y-136185200I0J51000D01*
G01*
X181064600Y-134485200D01*
G75*
G02*
X181115600Y-134434200I51000J0D01*
G01*
G37*
X179425600Y-135335200D03*
D12*
X231648000Y-166120000D03*
X231648000Y-124460000D03*
X191008000Y-166120000D03*
G36*
G01*
X209384000Y-163719000D02*
X207684000Y-163719000D01*
G75*
G02*
X207633000Y-163668000I0J51000D01*
G01*
X207633000Y-161968000D01*
G75*
G02*
X207684000Y-161917000I51000J0D01*
G01*
X209384000Y-161917000D01*
G75*
G02*
X209435000Y-161968000I0J-51000D01*
G01*
X209435000Y-163668000D01*
G75*
G02*
X209384000Y-163719000I-51000J0D01*
G01*
G37*
D10*
X211074000Y-162818000D03*
X213614000Y-162818000D03*
G36*
G01*
X209384000Y-122059000D02*
X207684000Y-122059000D01*
G75*
G02*
X207633000Y-122008000I0J51000D01*
G01*
X207633000Y-120308000D01*
G75*
G02*
X207684000Y-120257000I51000J0D01*
G01*
X209384000Y-120257000D01*
G75*
G02*
X209435000Y-120308000I0J-51000D01*
G01*
X209435000Y-122008000D01*
G75*
G02*
X209384000Y-122059000I-51000J0D01*
G01*
G37*
X211074000Y-121158000D03*
X213614000Y-121158000D03*
G36*
G01*
X168744000Y-163719000D02*
X167044000Y-163719000D01*
G75*
G02*
X166993000Y-163668000I0J51000D01*
G01*
X166993000Y-161968000D01*
G75*
G02*
X167044000Y-161917000I51000J0D01*
G01*
X168744000Y-161917000D01*
G75*
G02*
X168795000Y-161968000I0J-51000D01*
G01*
X168795000Y-163668000D01*
G75*
G02*
X168744000Y-163719000I-51000J0D01*
G01*
G37*
X170434000Y-162818000D03*
X172974000Y-162818000D03*
D12*
X197612000Y-166120000D03*
X197612000Y-124460000D03*
X156972000Y-166120000D03*
G36*
G01*
X220306000Y-163719000D02*
X218606000Y-163719000D01*
G75*
G02*
X218555000Y-163668000I0J51000D01*
G01*
X218555000Y-161968000D01*
G75*
G02*
X218606000Y-161917000I51000J0D01*
G01*
X220306000Y-161917000D01*
G75*
G02*
X220357000Y-161968000I0J-51000D01*
G01*
X220357000Y-163668000D01*
G75*
G02*
X220306000Y-163719000I-51000J0D01*
G01*
G37*
D10*
X221996000Y-162818000D03*
X224536000Y-162818000D03*
G36*
G01*
X220306000Y-122059000D02*
X218606000Y-122059000D01*
G75*
G02*
X218555000Y-122008000I0J51000D01*
G01*
X218555000Y-120308000D01*
G75*
G02*
X218606000Y-120257000I51000J0D01*
G01*
X220306000Y-120257000D01*
G75*
G02*
X220357000Y-120308000I0J-51000D01*
G01*
X220357000Y-122008000D01*
G75*
G02*
X220306000Y-122059000I-51000J0D01*
G01*
G37*
X221996000Y-121158000D03*
X224536000Y-121158000D03*
G36*
G01*
X179666000Y-163719000D02*
X177966000Y-163719000D01*
G75*
G02*
X177915000Y-163668000I0J51000D01*
G01*
X177915000Y-161968000D01*
G75*
G02*
X177966000Y-161917000I51000J0D01*
G01*
X179666000Y-161917000D01*
G75*
G02*
X179717000Y-161968000I0J-51000D01*
G01*
X179717000Y-163668000D01*
G75*
G02*
X179666000Y-163719000I-51000J0D01*
G01*
G37*
X181356000Y-162818000D03*
X183896000Y-162818000D03*
D12*
X197612000Y-131068000D03*
X197612000Y-89408000D03*
X156972000Y-131068000D03*
X191008000Y-124460000D03*
X156972000Y-124460000D03*
X191008000Y-89408000D03*
X156972000Y-89408000D03*
D10*
X183896000Y-121158000D03*
X181356000Y-121158000D03*
G36*
G01*
X179666000Y-122059000D02*
X177966000Y-122059000D01*
G75*
G02*
X177915000Y-122008000I0J51000D01*
G01*
X177915000Y-120308000D01*
G75*
G02*
X177966000Y-120257000I51000J0D01*
G01*
X179666000Y-120257000D01*
G75*
G02*
X179717000Y-120308000I0J-51000D01*
G01*
X179717000Y-122008000D01*
G75*
G02*
X179666000Y-122059000I-51000J0D01*
G01*
G37*
D13*
X158496000Y-113944400D03*
G36*
G01*
X159996000Y-120575400D02*
X156996000Y-120575400D01*
G75*
G02*
X156945000Y-120524400I0J51000D01*
G01*
X156945000Y-117524400D01*
G75*
G02*
X156996000Y-117473400I51000J0D01*
G01*
X159996000Y-117473400D01*
G75*
G02*
X160047000Y-117524400I0J-51000D01*
G01*
X160047000Y-120524400D01*
G75*
G02*
X159996000Y-120575400I-51000J0D01*
G01*
G37*
D12*
X158496000Y-99720400D03*
X158496000Y-104800400D03*
D10*
X172974000Y-121158000D03*
X170434000Y-121158000D03*
G36*
G01*
X168744000Y-122059000D02*
X167044000Y-122059000D01*
G75*
G02*
X166993000Y-122008000I0J51000D01*
G01*
X166993000Y-120308000D01*
G75*
G02*
X167044000Y-120257000I51000J0D01*
G01*
X168744000Y-120257000D01*
G75*
G02*
X168795000Y-120308000I0J-51000D01*
G01*
X168795000Y-122008000D01*
G75*
G02*
X168744000Y-122059000I-51000J0D01*
G01*
G37*
X179425600Y-93675200D03*
G36*
G01*
X181115600Y-92774200D02*
X182815600Y-92774200D01*
G75*
G02*
X182866600Y-92825200I0J-51000D01*
G01*
X182866600Y-94525200D01*
G75*
G02*
X182815600Y-94576200I-51000J0D01*
G01*
X181115600Y-94576200D01*
G75*
G02*
X181064600Y-94525200I0J51000D01*
G01*
X181064600Y-92825200D01*
G75*
G02*
X181115600Y-92774200I51000J0D01*
G01*
G37*
X188252100Y-109410500D03*
X188252100Y-111950500D03*
G36*
G01*
X189153100Y-113640500D02*
X189153100Y-115340500D01*
G75*
G02*
X189102100Y-115391500I-51000J0D01*
G01*
X187402100Y-115391500D01*
G75*
G02*
X187351100Y-115340500I0J51000D01*
G01*
X187351100Y-113640500D01*
G75*
G02*
X187402100Y-113589500I51000J0D01*
G01*
X189102100Y-113589500D01*
G75*
G02*
X189153100Y-113640500I0J-51000D01*
G01*
G37*
X163525200Y-93675200D03*
G36*
G01*
X165215200Y-92774200D02*
X166915200Y-92774200D01*
G75*
G02*
X166966200Y-92825200I0J-51000D01*
G01*
X166966200Y-94525200D01*
G75*
G02*
X166915200Y-94576200I-51000J0D01*
G01*
X165215200Y-94576200D01*
G75*
G02*
X165164200Y-94525200I0J51000D01*
G01*
X165164200Y-92825200D01*
G75*
G02*
X165215200Y-92774200I51000J0D01*
G01*
G37*
X157226000Y-93675200D03*
G36*
G01*
X158916000Y-92774200D02*
X160616000Y-92774200D01*
G75*
G02*
X160667000Y-92825200I0J-51000D01*
G01*
X160667000Y-94525200D01*
G75*
G02*
X160616000Y-94576200I-51000J0D01*
G01*
X158916000Y-94576200D01*
G75*
G02*
X158865000Y-94525200I0J51000D01*
G01*
X158865000Y-92825200D01*
G75*
G02*
X158916000Y-92774200I51000J0D01*
G01*
G37*
X185724800Y-93675200D03*
G36*
G01*
X187414800Y-92774200D02*
X189114800Y-92774200D01*
G75*
G02*
X189165800Y-92825200I0J-51000D01*
G01*
X189165800Y-94525200D01*
G75*
G02*
X189114800Y-94576200I-51000J0D01*
G01*
X187414800Y-94576200D01*
G75*
G02*
X187363800Y-94525200I0J51000D01*
G01*
X187363800Y-92825200D01*
G75*
G02*
X187414800Y-92774200I51000J0D01*
G01*
G37*
D11*
X175120300Y-109867700D03*
X175120300Y-109080300D03*
X175907700Y-109867700D03*
X175907700Y-109080300D03*
G36*
G01*
X174054400Y-92774200D02*
X175754400Y-92774200D01*
G75*
G02*
X175805400Y-92825200I0J-51000D01*
G01*
X175805400Y-94525200D01*
G75*
G02*
X175754400Y-94576200I-51000J0D01*
G01*
X174054400Y-94576200D01*
G75*
G02*
X174003400Y-94525200I0J51000D01*
G01*
X174003400Y-92825200D01*
G75*
G02*
X174054400Y-92774200I51000J0D01*
G01*
G37*
D10*
X172364400Y-93675200D03*
X169824400Y-93675200D03*
X188252100Y-100393500D03*
X188252100Y-102933500D03*
G36*
G01*
X189153100Y-104623500D02*
X189153100Y-106323500D01*
G75*
G02*
X189102100Y-106374500I-51000J0D01*
G01*
X187402100Y-106374500D01*
G75*
G02*
X187351100Y-106323500I0J51000D01*
G01*
X187351100Y-104623500D01*
G75*
G02*
X187402100Y-104572500I51000J0D01*
G01*
X189102100Y-104572500D01*
G75*
G02*
X189153100Y-104623500I0J-51000D01*
G01*
G37*
D14*
G36*
X175628285Y-151412146D02*
G01*
X175628435Y-151413967D01*
X175617757Y-151439745D01*
X175606169Y-151498004D01*
X175606169Y-151557396D01*
X175617757Y-151615655D01*
X175628435Y-151641434D01*
X175628174Y-151643417D01*
X175626326Y-151644182D01*
X175624823Y-151643142D01*
X175616262Y-151627125D01*
X175600967Y-151608488D01*
X175582330Y-151593192D01*
X175561066Y-151581827D01*
X175537991Y-151574827D01*
X175514000Y-151572464D01*
X175490009Y-151574827D01*
X175466934Y-151581827D01*
X175445671Y-151593192D01*
X175427034Y-151608487D01*
X175411738Y-151627124D01*
X175403177Y-151643141D01*
X175401478Y-151644197D01*
X175399715Y-151643254D01*
X175399565Y-151641433D01*
X175410243Y-151615655D01*
X175421831Y-151557396D01*
X175421831Y-151498004D01*
X175410243Y-151439745D01*
X175399565Y-151413966D01*
X175399826Y-151411983D01*
X175401674Y-151411218D01*
X175403177Y-151412258D01*
X175411738Y-151428275D01*
X175427033Y-151446912D01*
X175445670Y-151462208D01*
X175466934Y-151473573D01*
X175490009Y-151480573D01*
X175514000Y-151482936D01*
X175537991Y-151480573D01*
X175561066Y-151473573D01*
X175582329Y-151462208D01*
X175600966Y-151446913D01*
X175616262Y-151428276D01*
X175624823Y-151412259D01*
X175626522Y-151411203D01*
X175628285Y-151412146D01*
G37*
G36*
X216268285Y-151412146D02*
G01*
X216268435Y-151413967D01*
X216257757Y-151439745D01*
X216246169Y-151498004D01*
X216246169Y-151557396D01*
X216257757Y-151615655D01*
X216268435Y-151641434D01*
X216268174Y-151643417D01*
X216266326Y-151644182D01*
X216264823Y-151643142D01*
X216256262Y-151627125D01*
X216240967Y-151608488D01*
X216222330Y-151593192D01*
X216201066Y-151581827D01*
X216177991Y-151574827D01*
X216154000Y-151572464D01*
X216130009Y-151574827D01*
X216106934Y-151581827D01*
X216085671Y-151593192D01*
X216067034Y-151608487D01*
X216051738Y-151627124D01*
X216043177Y-151643141D01*
X216041478Y-151644197D01*
X216039715Y-151643254D01*
X216039565Y-151641433D01*
X216050243Y-151615655D01*
X216061831Y-151557396D01*
X216061831Y-151498004D01*
X216050243Y-151439745D01*
X216039565Y-151413966D01*
X216039826Y-151411983D01*
X216041674Y-151411218D01*
X216043177Y-151412258D01*
X216051738Y-151428275D01*
X216067033Y-151446912D01*
X216085670Y-151462208D01*
X216106934Y-151473573D01*
X216130009Y-151480573D01*
X216154000Y-151482936D01*
X216177991Y-151480573D01*
X216201066Y-151473573D01*
X216222329Y-151462208D01*
X216240966Y-151446913D01*
X216256262Y-151428276D01*
X216264823Y-151412259D01*
X216266522Y-151411203D01*
X216268285Y-151412146D01*
G37*
G36*
X215876017Y-151019826D02*
G01*
X215876782Y-151021674D01*
X215875742Y-151023177D01*
X215859725Y-151031738D01*
X215841088Y-151047033D01*
X215825792Y-151065670D01*
X215814427Y-151086934D01*
X215807427Y-151110009D01*
X215805064Y-151134000D01*
X215807427Y-151157991D01*
X215814427Y-151181066D01*
X215825792Y-151202329D01*
X215841087Y-151220966D01*
X215859724Y-151236262D01*
X215875741Y-151244823D01*
X215876797Y-151246522D01*
X215875854Y-151248285D01*
X215874033Y-151248435D01*
X215848255Y-151237757D01*
X215789996Y-151226169D01*
X215730604Y-151226169D01*
X215672345Y-151237757D01*
X215646566Y-151248435D01*
X215644583Y-151248174D01*
X215643818Y-151246326D01*
X215644858Y-151244823D01*
X215660875Y-151236262D01*
X215679512Y-151220967D01*
X215694808Y-151202330D01*
X215706173Y-151181066D01*
X215713173Y-151157991D01*
X215715536Y-151134000D01*
X215713173Y-151110009D01*
X215706173Y-151086934D01*
X215694808Y-151065671D01*
X215679513Y-151047034D01*
X215660876Y-151031738D01*
X215644859Y-151023177D01*
X215643803Y-151021478D01*
X215644746Y-151019715D01*
X215646567Y-151019565D01*
X215672345Y-151030243D01*
X215730604Y-151041831D01*
X215789996Y-151041831D01*
X215848255Y-151030243D01*
X215874034Y-151019565D01*
X215876017Y-151019826D01*
G37*
G36*
X216663417Y-151019826D02*
G01*
X216664182Y-151021674D01*
X216663142Y-151023177D01*
X216647125Y-151031738D01*
X216628488Y-151047033D01*
X216613192Y-151065670D01*
X216601827Y-151086934D01*
X216594827Y-151110009D01*
X216592464Y-151134000D01*
X216594827Y-151157991D01*
X216601827Y-151181066D01*
X216613192Y-151202329D01*
X216628487Y-151220966D01*
X216647124Y-151236262D01*
X216663141Y-151244823D01*
X216664197Y-151246522D01*
X216663254Y-151248285D01*
X216661433Y-151248435D01*
X216635655Y-151237757D01*
X216577396Y-151226169D01*
X216518004Y-151226169D01*
X216459745Y-151237757D01*
X216433966Y-151248435D01*
X216431983Y-151248174D01*
X216431218Y-151246326D01*
X216432258Y-151244823D01*
X216448275Y-151236262D01*
X216466912Y-151220967D01*
X216482208Y-151202330D01*
X216493573Y-151181066D01*
X216500573Y-151157991D01*
X216502936Y-151134000D01*
X216500573Y-151110009D01*
X216493573Y-151086934D01*
X216482208Y-151065671D01*
X216466913Y-151047034D01*
X216448276Y-151031738D01*
X216432259Y-151023177D01*
X216431203Y-151021478D01*
X216432146Y-151019715D01*
X216433967Y-151019565D01*
X216459745Y-151030243D01*
X216518004Y-151041831D01*
X216577396Y-151041831D01*
X216635655Y-151030243D01*
X216661434Y-151019565D01*
X216663417Y-151019826D01*
G37*
G36*
X176023417Y-151019826D02*
G01*
X176024182Y-151021674D01*
X176023142Y-151023177D01*
X176007125Y-151031738D01*
X175988488Y-151047033D01*
X175973192Y-151065670D01*
X175961827Y-151086934D01*
X175954827Y-151110009D01*
X175952464Y-151134000D01*
X175954827Y-151157991D01*
X175961827Y-151181066D01*
X175973192Y-151202329D01*
X175988487Y-151220966D01*
X176007124Y-151236262D01*
X176023141Y-151244823D01*
X176024197Y-151246522D01*
X176023254Y-151248285D01*
X176021433Y-151248435D01*
X175995655Y-151237757D01*
X175937396Y-151226169D01*
X175878004Y-151226169D01*
X175819745Y-151237757D01*
X175793966Y-151248435D01*
X175791983Y-151248174D01*
X175791218Y-151246326D01*
X175792258Y-151244823D01*
X175808275Y-151236262D01*
X175826912Y-151220967D01*
X175842208Y-151202330D01*
X175853573Y-151181066D01*
X175860573Y-151157991D01*
X175862936Y-151134000D01*
X175860573Y-151110009D01*
X175853573Y-151086934D01*
X175842208Y-151065671D01*
X175826913Y-151047034D01*
X175808276Y-151031738D01*
X175792259Y-151023177D01*
X175791203Y-151021478D01*
X175792146Y-151019715D01*
X175793967Y-151019565D01*
X175819745Y-151030243D01*
X175878004Y-151041831D01*
X175937396Y-151041831D01*
X175995655Y-151030243D01*
X176021434Y-151019565D01*
X176023417Y-151019826D01*
G37*
G36*
X175236017Y-151019826D02*
G01*
X175236782Y-151021674D01*
X175235742Y-151023177D01*
X175219725Y-151031738D01*
X175201088Y-151047033D01*
X175185792Y-151065670D01*
X175174427Y-151086934D01*
X175167427Y-151110009D01*
X175165064Y-151134000D01*
X175167427Y-151157991D01*
X175174427Y-151181066D01*
X175185792Y-151202329D01*
X175201087Y-151220966D01*
X175219724Y-151236262D01*
X175235741Y-151244823D01*
X175236797Y-151246522D01*
X175235854Y-151248285D01*
X175234033Y-151248435D01*
X175208255Y-151237757D01*
X175149996Y-151226169D01*
X175090604Y-151226169D01*
X175032345Y-151237757D01*
X175006566Y-151248435D01*
X175004583Y-151248174D01*
X175003818Y-151246326D01*
X175004858Y-151244823D01*
X175020875Y-151236262D01*
X175039512Y-151220967D01*
X175054808Y-151202330D01*
X175066173Y-151181066D01*
X175073173Y-151157991D01*
X175075536Y-151134000D01*
X175073173Y-151110009D01*
X175066173Y-151086934D01*
X175054808Y-151065671D01*
X175039513Y-151047034D01*
X175020876Y-151031738D01*
X175004859Y-151023177D01*
X175003803Y-151021478D01*
X175004746Y-151019715D01*
X175006567Y-151019565D01*
X175032345Y-151030243D01*
X175090604Y-151041831D01*
X175149996Y-151041831D01*
X175208255Y-151030243D01*
X175234034Y-151019565D01*
X175236017Y-151019826D01*
G37*
G36*
X216268285Y-150624746D02*
G01*
X216268435Y-150626567D01*
X216257757Y-150652345D01*
X216246169Y-150710604D01*
X216246169Y-150769996D01*
X216257757Y-150828255D01*
X216268435Y-150854034D01*
X216268174Y-150856017D01*
X216266326Y-150856782D01*
X216264823Y-150855742D01*
X216256262Y-150839725D01*
X216240967Y-150821088D01*
X216222330Y-150805792D01*
X216201066Y-150794427D01*
X216177991Y-150787427D01*
X216154000Y-150785064D01*
X216130009Y-150787427D01*
X216106934Y-150794427D01*
X216085671Y-150805792D01*
X216067034Y-150821087D01*
X216051738Y-150839724D01*
X216043177Y-150855741D01*
X216041478Y-150856797D01*
X216039715Y-150855854D01*
X216039565Y-150854033D01*
X216050243Y-150828255D01*
X216061831Y-150769996D01*
X216061831Y-150710604D01*
X216050243Y-150652345D01*
X216039565Y-150626566D01*
X216039826Y-150624583D01*
X216041674Y-150623818D01*
X216043177Y-150624858D01*
X216051738Y-150640875D01*
X216067033Y-150659512D01*
X216085670Y-150674808D01*
X216106934Y-150686173D01*
X216130009Y-150693173D01*
X216154000Y-150695536D01*
X216177991Y-150693173D01*
X216201066Y-150686173D01*
X216222329Y-150674808D01*
X216240966Y-150659513D01*
X216256262Y-150640876D01*
X216264823Y-150624859D01*
X216266522Y-150623803D01*
X216268285Y-150624746D01*
G37*
G36*
X175628285Y-150624746D02*
G01*
X175628435Y-150626567D01*
X175617757Y-150652345D01*
X175606169Y-150710604D01*
X175606169Y-150769996D01*
X175617757Y-150828255D01*
X175628435Y-150854034D01*
X175628174Y-150856017D01*
X175626326Y-150856782D01*
X175624823Y-150855742D01*
X175616262Y-150839725D01*
X175600967Y-150821088D01*
X175582330Y-150805792D01*
X175561066Y-150794427D01*
X175537991Y-150787427D01*
X175514000Y-150785064D01*
X175490009Y-150787427D01*
X175466934Y-150794427D01*
X175445671Y-150805792D01*
X175427034Y-150821087D01*
X175411738Y-150839724D01*
X175403177Y-150855741D01*
X175401478Y-150856797D01*
X175399715Y-150855854D01*
X175399565Y-150854033D01*
X175410243Y-150828255D01*
X175421831Y-150769996D01*
X175421831Y-150710604D01*
X175410243Y-150652345D01*
X175399565Y-150626566D01*
X175399826Y-150624583D01*
X175401674Y-150623818D01*
X175403177Y-150624858D01*
X175411738Y-150640875D01*
X175427033Y-150659512D01*
X175445670Y-150674808D01*
X175466934Y-150686173D01*
X175490009Y-150693173D01*
X175514000Y-150695536D01*
X175537991Y-150693173D01*
X175561066Y-150686173D01*
X175582329Y-150674808D01*
X175600966Y-150659513D01*
X175616262Y-150640876D01*
X175624823Y-150624859D01*
X175626522Y-150623803D01*
X175628285Y-150624746D01*
G37*
G36*
X175628285Y-109752146D02*
G01*
X175628435Y-109753967D01*
X175617757Y-109779745D01*
X175606169Y-109838004D01*
X175606169Y-109897396D01*
X175617757Y-109955655D01*
X175628435Y-109981434D01*
X175628174Y-109983417D01*
X175626326Y-109984182D01*
X175624823Y-109983142D01*
X175616262Y-109967125D01*
X175600967Y-109948488D01*
X175582330Y-109933192D01*
X175561066Y-109921827D01*
X175537991Y-109914827D01*
X175514000Y-109912464D01*
X175490009Y-109914827D01*
X175466934Y-109921827D01*
X175445671Y-109933192D01*
X175427034Y-109948487D01*
X175411738Y-109967124D01*
X175403177Y-109983141D01*
X175401478Y-109984197D01*
X175399715Y-109983254D01*
X175399565Y-109981433D01*
X175410243Y-109955655D01*
X175421831Y-109897396D01*
X175421831Y-109838004D01*
X175410243Y-109779745D01*
X175399565Y-109753966D01*
X175399826Y-109751983D01*
X175401674Y-109751218D01*
X175403177Y-109752258D01*
X175411738Y-109768275D01*
X175427033Y-109786912D01*
X175445670Y-109802208D01*
X175466934Y-109813573D01*
X175490009Y-109820573D01*
X175514000Y-109822936D01*
X175537991Y-109820573D01*
X175561066Y-109813573D01*
X175582329Y-109802208D01*
X175600966Y-109786913D01*
X175616262Y-109768276D01*
X175624823Y-109752259D01*
X175626522Y-109751203D01*
X175628285Y-109752146D01*
G37*
G36*
X216268285Y-109752146D02*
G01*
X216268435Y-109753967D01*
X216257757Y-109779745D01*
X216246169Y-109838004D01*
X216246169Y-109897396D01*
X216257757Y-109955655D01*
X216268435Y-109981434D01*
X216268174Y-109983417D01*
X216266326Y-109984182D01*
X216264823Y-109983142D01*
X216256262Y-109967125D01*
X216240967Y-109948488D01*
X216222330Y-109933192D01*
X216201066Y-109921827D01*
X216177991Y-109914827D01*
X216154000Y-109912464D01*
X216130009Y-109914827D01*
X216106934Y-109921827D01*
X216085671Y-109933192D01*
X216067034Y-109948487D01*
X216051738Y-109967124D01*
X216043177Y-109983141D01*
X216041478Y-109984197D01*
X216039715Y-109983254D01*
X216039565Y-109981433D01*
X216050243Y-109955655D01*
X216061831Y-109897396D01*
X216061831Y-109838004D01*
X216050243Y-109779745D01*
X216039565Y-109753966D01*
X216039826Y-109751983D01*
X216041674Y-109751218D01*
X216043177Y-109752258D01*
X216051738Y-109768275D01*
X216067033Y-109786912D01*
X216085670Y-109802208D01*
X216106934Y-109813573D01*
X216130009Y-109820573D01*
X216154000Y-109822936D01*
X216177991Y-109820573D01*
X216201066Y-109813573D01*
X216222329Y-109802208D01*
X216240966Y-109786913D01*
X216256262Y-109768276D01*
X216264823Y-109752259D01*
X216266522Y-109751203D01*
X216268285Y-109752146D01*
G37*
G36*
X215876017Y-109359826D02*
G01*
X215876782Y-109361674D01*
X215875742Y-109363177D01*
X215859725Y-109371738D01*
X215841088Y-109387033D01*
X215825792Y-109405670D01*
X215814427Y-109426934D01*
X215807427Y-109450009D01*
X215805064Y-109474000D01*
X215807427Y-109497991D01*
X215814427Y-109521066D01*
X215825792Y-109542329D01*
X215841087Y-109560966D01*
X215859724Y-109576262D01*
X215875741Y-109584823D01*
X215876797Y-109586522D01*
X215875854Y-109588285D01*
X215874033Y-109588435D01*
X215848255Y-109577757D01*
X215789996Y-109566169D01*
X215730604Y-109566169D01*
X215672345Y-109577757D01*
X215646566Y-109588435D01*
X215644583Y-109588174D01*
X215643818Y-109586326D01*
X215644858Y-109584823D01*
X215660875Y-109576262D01*
X215679512Y-109560967D01*
X215694808Y-109542330D01*
X215706173Y-109521066D01*
X215713173Y-109497991D01*
X215715536Y-109474000D01*
X215713173Y-109450009D01*
X215706173Y-109426934D01*
X215694808Y-109405671D01*
X215679513Y-109387034D01*
X215660876Y-109371738D01*
X215644859Y-109363177D01*
X215643803Y-109361478D01*
X215644746Y-109359715D01*
X215646567Y-109359565D01*
X215672345Y-109370243D01*
X215730604Y-109381831D01*
X215789996Y-109381831D01*
X215848255Y-109370243D01*
X215874034Y-109359565D01*
X215876017Y-109359826D01*
G37*
G36*
X175236017Y-109359826D02*
G01*
X175236782Y-109361674D01*
X175235742Y-109363177D01*
X175219725Y-109371738D01*
X175201088Y-109387033D01*
X175185792Y-109405670D01*
X175174427Y-109426934D01*
X175167427Y-109450009D01*
X175165064Y-109474000D01*
X175167427Y-109497991D01*
X175174427Y-109521066D01*
X175185792Y-109542329D01*
X175201087Y-109560966D01*
X175219724Y-109576262D01*
X175235741Y-109584823D01*
X175236797Y-109586522D01*
X175235854Y-109588285D01*
X175234033Y-109588435D01*
X175208255Y-109577757D01*
X175149996Y-109566169D01*
X175090604Y-109566169D01*
X175032345Y-109577757D01*
X175006566Y-109588435D01*
X175004583Y-109588174D01*
X175003818Y-109586326D01*
X175004858Y-109584823D01*
X175020875Y-109576262D01*
X175039512Y-109560967D01*
X175054808Y-109542330D01*
X175066173Y-109521066D01*
X175073173Y-109497991D01*
X175075536Y-109474000D01*
X175073173Y-109450009D01*
X175066173Y-109426934D01*
X175054808Y-109405671D01*
X175039513Y-109387034D01*
X175020876Y-109371738D01*
X175004859Y-109363177D01*
X175003803Y-109361478D01*
X175004746Y-109359715D01*
X175006567Y-109359565D01*
X175032345Y-109370243D01*
X175090604Y-109381831D01*
X175149996Y-109381831D01*
X175208255Y-109370243D01*
X175234034Y-109359565D01*
X175236017Y-109359826D01*
G37*
G36*
X216663417Y-109359826D02*
G01*
X216664182Y-109361674D01*
X216663142Y-109363177D01*
X216647125Y-109371738D01*
X216628488Y-109387033D01*
X216613192Y-109405670D01*
X216601827Y-109426934D01*
X216594827Y-109450009D01*
X216592464Y-109474000D01*
X216594827Y-109497991D01*
X216601827Y-109521066D01*
X216613192Y-109542329D01*
X216628487Y-109560966D01*
X216647124Y-109576262D01*
X216663141Y-109584823D01*
X216664197Y-109586522D01*
X216663254Y-109588285D01*
X216661433Y-109588435D01*
X216635655Y-109577757D01*
X216577396Y-109566169D01*
X216518004Y-109566169D01*
X216459745Y-109577757D01*
X216433966Y-109588435D01*
X216431983Y-109588174D01*
X216431218Y-109586326D01*
X216432258Y-109584823D01*
X216448275Y-109576262D01*
X216466912Y-109560967D01*
X216482208Y-109542330D01*
X216493573Y-109521066D01*
X216500573Y-109497991D01*
X216502936Y-109474000D01*
X216500573Y-109450009D01*
X216493573Y-109426934D01*
X216482208Y-109405671D01*
X216466913Y-109387034D01*
X216448276Y-109371738D01*
X216432259Y-109363177D01*
X216431203Y-109361478D01*
X216432146Y-109359715D01*
X216433967Y-109359565D01*
X216459745Y-109370243D01*
X216518004Y-109381831D01*
X216577396Y-109381831D01*
X216635655Y-109370243D01*
X216661434Y-109359565D01*
X216663417Y-109359826D01*
G37*
G36*
X176023417Y-109359826D02*
G01*
X176024182Y-109361674D01*
X176023142Y-109363177D01*
X176007125Y-109371738D01*
X175988488Y-109387033D01*
X175973192Y-109405670D01*
X175961827Y-109426934D01*
X175954827Y-109450009D01*
X175952464Y-109474000D01*
X175954827Y-109497991D01*
X175961827Y-109521066D01*
X175973192Y-109542329D01*
X175988487Y-109560966D01*
X176007124Y-109576262D01*
X176023141Y-109584823D01*
X176024197Y-109586522D01*
X176023254Y-109588285D01*
X176021433Y-109588435D01*
X175995655Y-109577757D01*
X175937396Y-109566169D01*
X175878004Y-109566169D01*
X175819745Y-109577757D01*
X175793966Y-109588435D01*
X175791983Y-109588174D01*
X175791218Y-109586326D01*
X175792258Y-109584823D01*
X175808275Y-109576262D01*
X175826912Y-109560967D01*
X175842208Y-109542330D01*
X175853573Y-109521066D01*
X175860573Y-109497991D01*
X175862936Y-109474000D01*
X175860573Y-109450009D01*
X175853573Y-109426934D01*
X175842208Y-109405671D01*
X175826913Y-109387034D01*
X175808276Y-109371738D01*
X175792259Y-109363177D01*
X175791203Y-109361478D01*
X175792146Y-109359715D01*
X175793967Y-109359565D01*
X175819745Y-109370243D01*
X175878004Y-109381831D01*
X175937396Y-109381831D01*
X175995655Y-109370243D01*
X176021434Y-109359565D01*
X176023417Y-109359826D01*
G37*
G36*
X175628285Y-108964746D02*
G01*
X175628435Y-108966567D01*
X175617757Y-108992345D01*
X175606169Y-109050604D01*
X175606169Y-109109996D01*
X175617757Y-109168255D01*
X175628435Y-109194034D01*
X175628174Y-109196017D01*
X175626326Y-109196782D01*
X175624823Y-109195742D01*
X175616262Y-109179725D01*
X175600967Y-109161088D01*
X175582330Y-109145792D01*
X175561066Y-109134427D01*
X175537991Y-109127427D01*
X175514000Y-109125064D01*
X175490009Y-109127427D01*
X175466934Y-109134427D01*
X175445671Y-109145792D01*
X175427034Y-109161087D01*
X175411738Y-109179724D01*
X175403177Y-109195741D01*
X175401478Y-109196797D01*
X175399715Y-109195854D01*
X175399565Y-109194033D01*
X175410243Y-109168255D01*
X175421831Y-109109996D01*
X175421831Y-109050604D01*
X175410243Y-108992345D01*
X175399565Y-108966566D01*
X175399826Y-108964583D01*
X175401674Y-108963818D01*
X175403177Y-108964858D01*
X175411738Y-108980875D01*
X175427033Y-108999512D01*
X175445670Y-109014808D01*
X175466934Y-109026173D01*
X175490009Y-109033173D01*
X175514000Y-109035536D01*
X175537991Y-109033173D01*
X175561066Y-109026173D01*
X175582329Y-109014808D01*
X175600966Y-108999513D01*
X175616262Y-108980876D01*
X175624823Y-108964859D01*
X175626522Y-108963803D01*
X175628285Y-108964746D01*
G37*
G36*
X216268285Y-108964746D02*
G01*
X216268435Y-108966567D01*
X216257757Y-108992345D01*
X216246169Y-109050604D01*
X216246169Y-109109996D01*
X216257757Y-109168255D01*
X216268435Y-109194034D01*
X216268174Y-109196017D01*
X216266326Y-109196782D01*
X216264823Y-109195742D01*
X216256262Y-109179725D01*
X216240967Y-109161088D01*
X216222330Y-109145792D01*
X216201066Y-109134427D01*
X216177991Y-109127427D01*
X216154000Y-109125064D01*
X216130009Y-109127427D01*
X216106934Y-109134427D01*
X216085671Y-109145792D01*
X216067034Y-109161087D01*
X216051738Y-109179724D01*
X216043177Y-109195741D01*
X216041478Y-109196797D01*
X216039715Y-109195854D01*
X216039565Y-109194033D01*
X216050243Y-109168255D01*
X216061831Y-109109996D01*
X216061831Y-109050604D01*
X216050243Y-108992345D01*
X216039565Y-108966566D01*
X216039826Y-108964583D01*
X216041674Y-108963818D01*
X216043177Y-108964858D01*
X216051738Y-108980875D01*
X216067033Y-108999512D01*
X216085670Y-109014808D01*
X216106934Y-109026173D01*
X216130009Y-109033173D01*
X216154000Y-109035536D01*
X216177991Y-109033173D01*
X216201066Y-109026173D01*
X216222329Y-109014808D01*
X216240966Y-108999513D01*
X216256262Y-108980876D01*
X216264823Y-108964859D01*
X216266522Y-108963803D01*
X216268285Y-108964746D01*
G37*
M02*
