M48
; DRILL file {KiCad (5.1.10)-1} date 08/11/21 14:43:22
; FORMAT={-:-/ absolute / metric / decimal}
; #@! TF.CreationDate,2021-08-11T14:43:22-03:00
; #@! TF.GenerationSoftware,Kicad,Pcbnew,(5.1.10)-1
; #@! TF.FileFunction,Plated,1,2,PTH
FMAT,2
METRIC
T1C0.254
T2C0.300
T3C0.400
T4C1.000
T5C1.200
%
G90
G05
T1
X175.12Y-109.08
X175.12Y-109.868
X175.12Y-150.74
X175.12Y-151.528
X175.908Y-109.08
X175.908Y-109.868
X175.908Y-150.74
X175.908Y-151.528
X215.76Y-109.08
X215.76Y-109.868
X215.76Y-150.74
X215.76Y-151.528
X216.548Y-109.08
X216.548Y-109.868
X216.548Y-150.74
X216.548Y-151.528
T2
X176.2Y-112.903
X176.2Y-154.563
X177.165Y-112.878
X177.165Y-154.538
X178.994Y-107.924
X178.994Y-149.584
X179.07Y-109.169
X179.07Y-150.829
X216.84Y-112.903
X216.84Y-154.563
X217.805Y-112.878
X217.805Y-154.538
X219.634Y-107.924
X219.634Y-149.584
X219.71Y-109.169
X219.71Y-150.829
T3
X160.782Y-88.646
X160.782Y-130.306
X161.798Y-124.968
X161.798Y-166.628
X164.084Y-120.142
X164.084Y-161.802
X164.374Y-88.646
X164.374Y-130.306
X167.386Y-96.012
X167.386Y-137.672
X167.894Y-124.968
X167.894Y-166.628
X167.967Y-88.646
X167.967Y-130.306
X171.559Y-88.646
X171.559Y-130.306
X173.99Y-124.968
X173.99Y-166.628
X175.151Y-88.646
X175.151Y-130.306
X177.292Y-96.266
X177.292Y-137.926
X178.743Y-88.646
X178.743Y-130.306
X180.086Y-124.968
X180.086Y-166.628
X182.336Y-88.646
X182.336Y-130.306
X185.928Y-88.646
X185.928Y-130.306
X186.182Y-124.968
X186.182Y-166.628
X192.786Y-95.504
X192.786Y-101.282
X192.786Y-107.061
X192.786Y-112.84
X192.786Y-118.618
X192.786Y-137.164
X192.786Y-142.942
X192.786Y-148.721
X192.786Y-154.499
X192.786Y-160.278
X201.422Y-88.646
X201.422Y-130.306
X202.438Y-124.968
X202.438Y-166.628
X204.724Y-120.142
X204.724Y-161.802
X205.014Y-88.646
X205.014Y-130.306
X208.026Y-96.012
X208.026Y-137.672
X208.534Y-124.968
X208.534Y-166.628
X208.607Y-88.646
X208.607Y-130.306
X212.199Y-88.646
X212.199Y-130.306
X214.63Y-124.968
X214.63Y-166.628
X215.791Y-88.646
X215.791Y-130.306
X217.932Y-96.266
X217.932Y-137.926
X219.383Y-88.646
X219.383Y-130.306
X220.726Y-124.968
X220.726Y-166.628
X222.976Y-88.646
X222.976Y-130.306
X226.568Y-88.646
X226.568Y-130.306
X226.822Y-124.968
X226.822Y-166.628
X233.426Y-95.504
X233.426Y-101.282
X233.426Y-107.061
X233.426Y-112.84
X233.426Y-118.618
X233.426Y-137.164
X233.426Y-142.942
X233.426Y-148.721
X233.426Y-154.499
X233.426Y-160.278
T4
X157.226Y-93.675
X157.226Y-135.335
X159.766Y-93.675
X159.766Y-135.335
X163.525Y-93.675
X163.525Y-135.335
X166.065Y-93.675
X166.065Y-135.335
X167.894Y-121.158
X167.894Y-162.818
X169.824Y-93.675
X169.824Y-135.335
X170.434Y-121.158
X170.434Y-162.818
X172.364Y-93.675
X172.364Y-135.335
X172.974Y-121.158
X172.974Y-162.818
X174.904Y-93.675
X174.904Y-135.335
X178.816Y-121.158
X178.816Y-162.818
X179.426Y-93.675
X179.426Y-135.335
X181.356Y-121.158
X181.356Y-162.818
X181.966Y-93.675
X181.966Y-135.335
X183.896Y-121.158
X183.896Y-162.818
X185.725Y-93.675
X185.725Y-135.335
X188.252Y-100.393
X188.252Y-102.933
X188.252Y-105.474
X188.252Y-109.41
X188.252Y-111.95
X188.252Y-114.49
X188.252Y-142.053
X188.252Y-144.594
X188.252Y-147.133
X188.252Y-151.07
X188.252Y-153.611
X188.252Y-156.15
X188.265Y-93.675
X188.265Y-135.335
X197.866Y-93.675
X197.866Y-135.335
X200.406Y-93.675
X200.406Y-135.335
X204.165Y-93.675
X204.165Y-135.335
X206.705Y-93.675
X206.705Y-135.335
X208.534Y-121.158
X208.534Y-162.818
X210.464Y-93.675
X210.464Y-135.335
X211.074Y-121.158
X211.074Y-162.818
X213.004Y-93.675
X213.004Y-135.335
X213.614Y-121.158
X213.614Y-162.818
X215.544Y-93.675
X215.544Y-135.335
X219.456Y-121.158
X219.456Y-162.818
X220.066Y-93.675
X220.066Y-135.335
X221.996Y-121.158
X221.996Y-162.818
X222.606Y-93.675
X222.606Y-135.335
X224.536Y-121.158
X224.536Y-162.818
X226.365Y-93.675
X226.365Y-135.335
X228.892Y-100.393
X228.892Y-102.933
X228.892Y-105.474
X228.892Y-109.41
X228.892Y-111.95
X228.892Y-114.49
X228.892Y-142.053
X228.892Y-144.594
X228.892Y-147.133
X228.892Y-151.07
X228.892Y-153.611
X228.892Y-156.15
X228.905Y-93.675
X228.905Y-135.335
T5
X158.496Y-99.72
X158.496Y-104.8
X158.496Y-113.944
X158.496Y-119.024
X158.496Y-141.38
X158.496Y-146.46
X158.496Y-155.604
X158.496Y-160.684
X199.136Y-99.72
X199.136Y-104.8
X199.136Y-113.944
X199.136Y-119.024
X199.136Y-141.38
X199.136Y-146.46
X199.136Y-155.604
X199.136Y-160.684
T0
M30
