G04 #@! TF.GenerationSoftware,KiCad,Pcbnew,(5.1.10)-1*
G04 #@! TF.CreationDate,2021-08-11T14:43:19-03:00*
G04 #@! TF.ProjectId,BQ25505,42513235-3530-4352-9e6b-696361645f70,rev?*
G04 #@! TF.SameCoordinates,Original*
G04 #@! TF.FileFunction,Soldermask,Top*
G04 #@! TF.FilePolarity,Negative*
%FSLAX46Y46*%
G04 Gerber Fmt 4.6, Leading zero omitted, Abs format (unit mm)*
G04 Created by KiCad (PCBNEW (5.1.10)-1) date 2021-08-11 14:43:19*
%MOMM*%
%LPD*%
G01*
G04 APERTURE LIST*
%ADD10C,0.100000*%
%ADD11O,1.802000X1.802000*%
%ADD12C,0.610000*%
%ADD13C,3.102000*%
%ADD14O,3.102000X3.102000*%
G04 APERTURE END LIST*
D10*
G36*
X215065500Y-150045500D02*
G01*
X217242500Y-150045500D01*
X217242500Y-150540300D01*
X215065500Y-150540300D01*
X215065500Y-150045500D01*
G37*
X215065500Y-150045500D02*
X217242500Y-150045500D01*
X217242500Y-150540300D01*
X215065500Y-150540300D01*
X215065500Y-150045500D01*
G36*
X215065500Y-150940300D02*
G01*
X217242500Y-150940300D01*
X217242500Y-151327700D01*
X215065500Y-151327700D01*
X215065500Y-150940300D01*
G37*
X215065500Y-150940300D02*
X217242500Y-150940300D01*
X217242500Y-151327700D01*
X215065500Y-151327700D01*
X215065500Y-150940300D01*
G36*
X215065500Y-151727700D02*
G01*
X217242500Y-151727700D01*
X217242500Y-152222500D01*
X215065500Y-152222500D01*
X215065500Y-151727700D01*
G37*
X215065500Y-151727700D02*
X217242500Y-151727700D01*
X217242500Y-152222500D01*
X215065500Y-152222500D01*
X215065500Y-151727700D01*
G36*
X215065500Y-150045500D02*
G01*
X215560300Y-150045500D01*
X215560300Y-152222500D01*
X215065500Y-152222500D01*
X215065500Y-150045500D01*
G37*
X215065500Y-150045500D02*
X215560300Y-150045500D01*
X215560300Y-152222500D01*
X215065500Y-152222500D01*
X215065500Y-150045500D01*
G36*
X216347700Y-150045500D02*
G01*
X215960300Y-150045500D01*
X215960300Y-152222500D01*
X216347700Y-152222500D01*
X216347700Y-150045500D01*
G37*
X216347700Y-150045500D02*
X215960300Y-150045500D01*
X215960300Y-152222500D01*
X216347700Y-152222500D01*
X216347700Y-150045500D01*
G36*
X216747700Y-150045500D02*
G01*
X217242500Y-150045500D01*
X217242500Y-152222500D01*
X216747700Y-152222500D01*
X216747700Y-150045500D01*
G37*
X216747700Y-150045500D02*
X217242500Y-150045500D01*
X217242500Y-152222500D01*
X216747700Y-152222500D01*
X216747700Y-150045500D01*
G36*
X215065500Y-108385500D02*
G01*
X217242500Y-108385500D01*
X217242500Y-108880300D01*
X215065500Y-108880300D01*
X215065500Y-108385500D01*
G37*
X215065500Y-108385500D02*
X217242500Y-108385500D01*
X217242500Y-108880300D01*
X215065500Y-108880300D01*
X215065500Y-108385500D01*
G36*
X215065500Y-109280300D02*
G01*
X217242500Y-109280300D01*
X217242500Y-109667700D01*
X215065500Y-109667700D01*
X215065500Y-109280300D01*
G37*
X215065500Y-109280300D02*
X217242500Y-109280300D01*
X217242500Y-109667700D01*
X215065500Y-109667700D01*
X215065500Y-109280300D01*
G36*
X215065500Y-110067700D02*
G01*
X217242500Y-110067700D01*
X217242500Y-110562500D01*
X215065500Y-110562500D01*
X215065500Y-110067700D01*
G37*
X215065500Y-110067700D02*
X217242500Y-110067700D01*
X217242500Y-110562500D01*
X215065500Y-110562500D01*
X215065500Y-110067700D01*
G36*
X215065500Y-108385500D02*
G01*
X215560300Y-108385500D01*
X215560300Y-110562500D01*
X215065500Y-110562500D01*
X215065500Y-108385500D01*
G37*
X215065500Y-108385500D02*
X215560300Y-108385500D01*
X215560300Y-110562500D01*
X215065500Y-110562500D01*
X215065500Y-108385500D01*
G36*
X216347700Y-108385500D02*
G01*
X215960300Y-108385500D01*
X215960300Y-110562500D01*
X216347700Y-110562500D01*
X216347700Y-108385500D01*
G37*
X216347700Y-108385500D02*
X215960300Y-108385500D01*
X215960300Y-110562500D01*
X216347700Y-110562500D01*
X216347700Y-108385500D01*
G36*
X216747700Y-108385500D02*
G01*
X217242500Y-108385500D01*
X217242500Y-110562500D01*
X216747700Y-110562500D01*
X216747700Y-108385500D01*
G37*
X216747700Y-108385500D02*
X217242500Y-108385500D01*
X217242500Y-110562500D01*
X216747700Y-110562500D01*
X216747700Y-108385500D01*
G36*
X174425500Y-150045500D02*
G01*
X176602500Y-150045500D01*
X176602500Y-150540300D01*
X174425500Y-150540300D01*
X174425500Y-150045500D01*
G37*
X174425500Y-150045500D02*
X176602500Y-150045500D01*
X176602500Y-150540300D01*
X174425500Y-150540300D01*
X174425500Y-150045500D01*
G36*
X174425500Y-150940300D02*
G01*
X176602500Y-150940300D01*
X176602500Y-151327700D01*
X174425500Y-151327700D01*
X174425500Y-150940300D01*
G37*
X174425500Y-150940300D02*
X176602500Y-150940300D01*
X176602500Y-151327700D01*
X174425500Y-151327700D01*
X174425500Y-150940300D01*
G36*
X174425500Y-151727700D02*
G01*
X176602500Y-151727700D01*
X176602500Y-152222500D01*
X174425500Y-152222500D01*
X174425500Y-151727700D01*
G37*
X174425500Y-151727700D02*
X176602500Y-151727700D01*
X176602500Y-152222500D01*
X174425500Y-152222500D01*
X174425500Y-151727700D01*
G36*
X174425500Y-150045500D02*
G01*
X174920300Y-150045500D01*
X174920300Y-152222500D01*
X174425500Y-152222500D01*
X174425500Y-150045500D01*
G37*
X174425500Y-150045500D02*
X174920300Y-150045500D01*
X174920300Y-152222500D01*
X174425500Y-152222500D01*
X174425500Y-150045500D01*
G36*
X175707700Y-150045500D02*
G01*
X175320300Y-150045500D01*
X175320300Y-152222500D01*
X175707700Y-152222500D01*
X175707700Y-150045500D01*
G37*
X175707700Y-150045500D02*
X175320300Y-150045500D01*
X175320300Y-152222500D01*
X175707700Y-152222500D01*
X175707700Y-150045500D01*
G36*
X176107700Y-150045500D02*
G01*
X176602500Y-150045500D01*
X176602500Y-152222500D01*
X176107700Y-152222500D01*
X176107700Y-150045500D01*
G37*
X176107700Y-150045500D02*
X176602500Y-150045500D01*
X176602500Y-152222500D01*
X176107700Y-152222500D01*
X176107700Y-150045500D01*
G36*
X176107700Y-108385500D02*
G01*
X176602500Y-108385500D01*
X176602500Y-110562500D01*
X176107700Y-110562500D01*
X176107700Y-108385500D01*
G37*
X176107700Y-108385500D02*
X176602500Y-108385500D01*
X176602500Y-110562500D01*
X176107700Y-110562500D01*
X176107700Y-108385500D01*
G36*
X175707700Y-108385500D02*
G01*
X175320300Y-108385500D01*
X175320300Y-110562500D01*
X175707700Y-110562500D01*
X175707700Y-108385500D01*
G37*
X175707700Y-108385500D02*
X175320300Y-108385500D01*
X175320300Y-110562500D01*
X175707700Y-110562500D01*
X175707700Y-108385500D01*
G36*
X174425500Y-108385500D02*
G01*
X174920300Y-108385500D01*
X174920300Y-110562500D01*
X174425500Y-110562500D01*
X174425500Y-108385500D01*
G37*
X174425500Y-108385500D02*
X174920300Y-108385500D01*
X174920300Y-110562500D01*
X174425500Y-110562500D01*
X174425500Y-108385500D01*
G36*
X174425500Y-110067700D02*
G01*
X176602500Y-110067700D01*
X176602500Y-110562500D01*
X174425500Y-110562500D01*
X174425500Y-110067700D01*
G37*
X174425500Y-110067700D02*
X176602500Y-110067700D01*
X176602500Y-110562500D01*
X174425500Y-110562500D01*
X174425500Y-110067700D01*
G36*
X174425500Y-109280300D02*
G01*
X176602500Y-109280300D01*
X176602500Y-109667700D01*
X174425500Y-109667700D01*
X174425500Y-109280300D01*
G37*
X174425500Y-109280300D02*
X176602500Y-109280300D01*
X176602500Y-109667700D01*
X174425500Y-109667700D01*
X174425500Y-109280300D01*
G36*
X174425500Y-108385500D02*
G01*
X176602500Y-108385500D01*
X176602500Y-108880300D01*
X174425500Y-108880300D01*
X174425500Y-108385500D01*
G37*
X174425500Y-108385500D02*
X176602500Y-108385500D01*
X176602500Y-108880300D01*
X174425500Y-108880300D01*
X174425500Y-108385500D01*
G36*
X215065500Y-150045500D02*
G01*
X217242500Y-150045500D01*
X217242500Y-150540300D01*
X215065500Y-150540300D01*
X215065500Y-150045500D01*
G37*
X215065500Y-150045500D02*
X217242500Y-150045500D01*
X217242500Y-150540300D01*
X215065500Y-150540300D01*
X215065500Y-150045500D01*
G36*
X215065500Y-150940300D02*
G01*
X217242500Y-150940300D01*
X217242500Y-151327700D01*
X215065500Y-151327700D01*
X215065500Y-150940300D01*
G37*
X215065500Y-150940300D02*
X217242500Y-150940300D01*
X217242500Y-151327700D01*
X215065500Y-151327700D01*
X215065500Y-150940300D01*
G36*
X215065500Y-151727700D02*
G01*
X217242500Y-151727700D01*
X217242500Y-152222500D01*
X215065500Y-152222500D01*
X215065500Y-151727700D01*
G37*
X215065500Y-151727700D02*
X217242500Y-151727700D01*
X217242500Y-152222500D01*
X215065500Y-152222500D01*
X215065500Y-151727700D01*
G36*
X215065500Y-150045500D02*
G01*
X215560300Y-150045500D01*
X215560300Y-152222500D01*
X215065500Y-152222500D01*
X215065500Y-150045500D01*
G37*
X215065500Y-150045500D02*
X215560300Y-150045500D01*
X215560300Y-152222500D01*
X215065500Y-152222500D01*
X215065500Y-150045500D01*
G36*
X216347700Y-150045500D02*
G01*
X215960300Y-150045500D01*
X215960300Y-152222500D01*
X216347700Y-152222500D01*
X216347700Y-150045500D01*
G37*
X216347700Y-150045500D02*
X215960300Y-150045500D01*
X215960300Y-152222500D01*
X216347700Y-152222500D01*
X216347700Y-150045500D01*
G36*
X216747700Y-150045500D02*
G01*
X217242500Y-150045500D01*
X217242500Y-152222500D01*
X216747700Y-152222500D01*
X216747700Y-150045500D01*
G37*
X216747700Y-150045500D02*
X217242500Y-150045500D01*
X217242500Y-152222500D01*
X216747700Y-152222500D01*
X216747700Y-150045500D01*
G36*
X215065500Y-108385500D02*
G01*
X217242500Y-108385500D01*
X217242500Y-108880300D01*
X215065500Y-108880300D01*
X215065500Y-108385500D01*
G37*
X215065500Y-108385500D02*
X217242500Y-108385500D01*
X217242500Y-108880300D01*
X215065500Y-108880300D01*
X215065500Y-108385500D01*
G36*
X215065500Y-109280300D02*
G01*
X217242500Y-109280300D01*
X217242500Y-109667700D01*
X215065500Y-109667700D01*
X215065500Y-109280300D01*
G37*
X215065500Y-109280300D02*
X217242500Y-109280300D01*
X217242500Y-109667700D01*
X215065500Y-109667700D01*
X215065500Y-109280300D01*
G36*
X215065500Y-110067700D02*
G01*
X217242500Y-110067700D01*
X217242500Y-110562500D01*
X215065500Y-110562500D01*
X215065500Y-110067700D01*
G37*
X215065500Y-110067700D02*
X217242500Y-110067700D01*
X217242500Y-110562500D01*
X215065500Y-110562500D01*
X215065500Y-110067700D01*
G36*
X215065500Y-108385500D02*
G01*
X215560300Y-108385500D01*
X215560300Y-110562500D01*
X215065500Y-110562500D01*
X215065500Y-108385500D01*
G37*
X215065500Y-108385500D02*
X215560300Y-108385500D01*
X215560300Y-110562500D01*
X215065500Y-110562500D01*
X215065500Y-108385500D01*
G36*
X216347700Y-108385500D02*
G01*
X215960300Y-108385500D01*
X215960300Y-110562500D01*
X216347700Y-110562500D01*
X216347700Y-108385500D01*
G37*
X216347700Y-108385500D02*
X215960300Y-108385500D01*
X215960300Y-110562500D01*
X216347700Y-110562500D01*
X216347700Y-108385500D01*
G36*
X216747700Y-108385500D02*
G01*
X217242500Y-108385500D01*
X217242500Y-110562500D01*
X216747700Y-110562500D01*
X216747700Y-108385500D01*
G37*
X216747700Y-108385500D02*
X217242500Y-108385500D01*
X217242500Y-110562500D01*
X216747700Y-110562500D01*
X216747700Y-108385500D01*
G36*
X174425500Y-150045500D02*
G01*
X176602500Y-150045500D01*
X176602500Y-150540300D01*
X174425500Y-150540300D01*
X174425500Y-150045500D01*
G37*
X174425500Y-150045500D02*
X176602500Y-150045500D01*
X176602500Y-150540300D01*
X174425500Y-150540300D01*
X174425500Y-150045500D01*
G36*
X174425500Y-150940300D02*
G01*
X176602500Y-150940300D01*
X176602500Y-151327700D01*
X174425500Y-151327700D01*
X174425500Y-150940300D01*
G37*
X174425500Y-150940300D02*
X176602500Y-150940300D01*
X176602500Y-151327700D01*
X174425500Y-151327700D01*
X174425500Y-150940300D01*
G36*
X174425500Y-151727700D02*
G01*
X176602500Y-151727700D01*
X176602500Y-152222500D01*
X174425500Y-152222500D01*
X174425500Y-151727700D01*
G37*
X174425500Y-151727700D02*
X176602500Y-151727700D01*
X176602500Y-152222500D01*
X174425500Y-152222500D01*
X174425500Y-151727700D01*
G36*
X174425500Y-150045500D02*
G01*
X174920300Y-150045500D01*
X174920300Y-152222500D01*
X174425500Y-152222500D01*
X174425500Y-150045500D01*
G37*
X174425500Y-150045500D02*
X174920300Y-150045500D01*
X174920300Y-152222500D01*
X174425500Y-152222500D01*
X174425500Y-150045500D01*
G36*
X175707700Y-150045500D02*
G01*
X175320300Y-150045500D01*
X175320300Y-152222500D01*
X175707700Y-152222500D01*
X175707700Y-150045500D01*
G37*
X175707700Y-150045500D02*
X175320300Y-150045500D01*
X175320300Y-152222500D01*
X175707700Y-152222500D01*
X175707700Y-150045500D01*
G36*
X176107700Y-150045500D02*
G01*
X176602500Y-150045500D01*
X176602500Y-152222500D01*
X176107700Y-152222500D01*
X176107700Y-150045500D01*
G37*
X176107700Y-150045500D02*
X176602500Y-150045500D01*
X176602500Y-152222500D01*
X176107700Y-152222500D01*
X176107700Y-150045500D01*
G36*
X176107700Y-108385500D02*
G01*
X176602500Y-108385500D01*
X176602500Y-110562500D01*
X176107700Y-110562500D01*
X176107700Y-108385500D01*
G37*
X176107700Y-108385500D02*
X176602500Y-108385500D01*
X176602500Y-110562500D01*
X176107700Y-110562500D01*
X176107700Y-108385500D01*
G36*
X175707700Y-108385500D02*
G01*
X175320300Y-108385500D01*
X175320300Y-110562500D01*
X175707700Y-110562500D01*
X175707700Y-108385500D01*
G37*
X175707700Y-108385500D02*
X175320300Y-108385500D01*
X175320300Y-110562500D01*
X175707700Y-110562500D01*
X175707700Y-108385500D01*
G36*
X174425500Y-108385500D02*
G01*
X174920300Y-108385500D01*
X174920300Y-110562500D01*
X174425500Y-110562500D01*
X174425500Y-108385500D01*
G37*
X174425500Y-108385500D02*
X174920300Y-108385500D01*
X174920300Y-110562500D01*
X174425500Y-110562500D01*
X174425500Y-108385500D01*
G36*
X174425500Y-110067700D02*
G01*
X176602500Y-110067700D01*
X176602500Y-110562500D01*
X174425500Y-110562500D01*
X174425500Y-110067700D01*
G37*
X174425500Y-110067700D02*
X176602500Y-110067700D01*
X176602500Y-110562500D01*
X174425500Y-110562500D01*
X174425500Y-110067700D01*
G36*
X174425500Y-109280300D02*
G01*
X176602500Y-109280300D01*
X176602500Y-109667700D01*
X174425500Y-109667700D01*
X174425500Y-109280300D01*
G37*
X174425500Y-109280300D02*
X176602500Y-109280300D01*
X176602500Y-109667700D01*
X174425500Y-109667700D01*
X174425500Y-109280300D01*
G36*
X174425500Y-108385500D02*
G01*
X176602500Y-108385500D01*
X176602500Y-108880300D01*
X174425500Y-108880300D01*
X174425500Y-108385500D01*
G37*
X174425500Y-108385500D02*
X176602500Y-108385500D01*
X176602500Y-108880300D01*
X174425500Y-108880300D01*
X174425500Y-108385500D01*
G36*
G01*
X212338000Y-156514500D02*
X212338000Y-155913500D01*
G75*
G02*
X212563500Y-155688000I225500J0D01*
G01*
X213014500Y-155688000D01*
G75*
G02*
X213240000Y-155913500I0J-225500D01*
G01*
X213240000Y-156514500D01*
G75*
G02*
X213014500Y-156740000I-225500J0D01*
G01*
X212563500Y-156740000D01*
G75*
G02*
X212338000Y-156514500I0J225500D01*
G01*
G37*
G36*
G01*
X213988000Y-156514500D02*
X213988000Y-155913500D01*
G75*
G02*
X214213500Y-155688000I225500J0D01*
G01*
X214664500Y-155688000D01*
G75*
G02*
X214890000Y-155913500I0J-225500D01*
G01*
X214890000Y-156514500D01*
G75*
G02*
X214664500Y-156740000I-225500J0D01*
G01*
X214213500Y-156740000D01*
G75*
G02*
X213988000Y-156514500I0J225500D01*
G01*
G37*
G36*
G01*
X212338000Y-114854500D02*
X212338000Y-114253500D01*
G75*
G02*
X212563500Y-114028000I225500J0D01*
G01*
X213014500Y-114028000D01*
G75*
G02*
X213240000Y-114253500I0J-225500D01*
G01*
X213240000Y-114854500D01*
G75*
G02*
X213014500Y-115080000I-225500J0D01*
G01*
X212563500Y-115080000D01*
G75*
G02*
X212338000Y-114854500I0J225500D01*
G01*
G37*
G36*
G01*
X213988000Y-114854500D02*
X213988000Y-114253500D01*
G75*
G02*
X214213500Y-114028000I225500J0D01*
G01*
X214664500Y-114028000D01*
G75*
G02*
X214890000Y-114253500I0J-225500D01*
G01*
X214890000Y-114854500D01*
G75*
G02*
X214664500Y-115080000I-225500J0D01*
G01*
X214213500Y-115080000D01*
G75*
G02*
X213988000Y-114854500I0J225500D01*
G01*
G37*
G36*
G01*
X171698000Y-156514500D02*
X171698000Y-155913500D01*
G75*
G02*
X171923500Y-155688000I225500J0D01*
G01*
X172374500Y-155688000D01*
G75*
G02*
X172600000Y-155913500I0J-225500D01*
G01*
X172600000Y-156514500D01*
G75*
G02*
X172374500Y-156740000I-225500J0D01*
G01*
X171923500Y-156740000D01*
G75*
G02*
X171698000Y-156514500I0J225500D01*
G01*
G37*
G36*
G01*
X173348000Y-156514500D02*
X173348000Y-155913500D01*
G75*
G02*
X173573500Y-155688000I225500J0D01*
G01*
X174024500Y-155688000D01*
G75*
G02*
X174250000Y-155913500I0J-225500D01*
G01*
X174250000Y-156514500D01*
G75*
G02*
X174024500Y-156740000I-225500J0D01*
G01*
X173573500Y-156740000D01*
G75*
G02*
X173348000Y-156514500I0J225500D01*
G01*
G37*
G36*
G01*
X222952800Y-150670800D02*
X223553800Y-150670800D01*
G75*
G02*
X223779300Y-150896300I0J-225500D01*
G01*
X223779300Y-151347300D01*
G75*
G02*
X223553800Y-151572800I-225500J0D01*
G01*
X222952800Y-151572800D01*
G75*
G02*
X222727300Y-151347300I0J225500D01*
G01*
X222727300Y-150896300D01*
G75*
G02*
X222952800Y-150670800I225500J0D01*
G01*
G37*
G36*
G01*
X222952800Y-152320800D02*
X223553800Y-152320800D01*
G75*
G02*
X223779300Y-152546300I0J-225500D01*
G01*
X223779300Y-152997300D01*
G75*
G02*
X223553800Y-153222800I-225500J0D01*
G01*
X222952800Y-153222800D01*
G75*
G02*
X222727300Y-152997300I0J225500D01*
G01*
X222727300Y-152546300D01*
G75*
G02*
X222952800Y-152320800I225500J0D01*
G01*
G37*
G36*
G01*
X222952800Y-109010800D02*
X223553800Y-109010800D01*
G75*
G02*
X223779300Y-109236300I0J-225500D01*
G01*
X223779300Y-109687300D01*
G75*
G02*
X223553800Y-109912800I-225500J0D01*
G01*
X222952800Y-109912800D01*
G75*
G02*
X222727300Y-109687300I0J225500D01*
G01*
X222727300Y-109236300D01*
G75*
G02*
X222952800Y-109010800I225500J0D01*
G01*
G37*
G36*
G01*
X222952800Y-110660800D02*
X223553800Y-110660800D01*
G75*
G02*
X223779300Y-110886300I0J-225500D01*
G01*
X223779300Y-111337300D01*
G75*
G02*
X223553800Y-111562800I-225500J0D01*
G01*
X222952800Y-111562800D01*
G75*
G02*
X222727300Y-111337300I0J225500D01*
G01*
X222727300Y-110886300D01*
G75*
G02*
X222952800Y-110660800I225500J0D01*
G01*
G37*
G36*
G01*
X182312800Y-150670800D02*
X182913800Y-150670800D01*
G75*
G02*
X183139300Y-150896300I0J-225500D01*
G01*
X183139300Y-151347300D01*
G75*
G02*
X182913800Y-151572800I-225500J0D01*
G01*
X182312800Y-151572800D01*
G75*
G02*
X182087300Y-151347300I0J225500D01*
G01*
X182087300Y-150896300D01*
G75*
G02*
X182312800Y-150670800I225500J0D01*
G01*
G37*
G36*
G01*
X182312800Y-152320800D02*
X182913800Y-152320800D01*
G75*
G02*
X183139300Y-152546300I0J-225500D01*
G01*
X183139300Y-152997300D01*
G75*
G02*
X182913800Y-153222800I-225500J0D01*
G01*
X182312800Y-153222800D01*
G75*
G02*
X182087300Y-152997300I0J225500D01*
G01*
X182087300Y-152546300D01*
G75*
G02*
X182312800Y-152320800I225500J0D01*
G01*
G37*
G36*
G01*
X217418000Y-156514500D02*
X217418000Y-155913500D01*
G75*
G02*
X217643500Y-155688000I225500J0D01*
G01*
X218094500Y-155688000D01*
G75*
G02*
X218320000Y-155913500I0J-225500D01*
G01*
X218320000Y-156514500D01*
G75*
G02*
X218094500Y-156740000I-225500J0D01*
G01*
X217643500Y-156740000D01*
G75*
G02*
X217418000Y-156514500I0J225500D01*
G01*
G37*
G36*
G01*
X219068000Y-156514500D02*
X219068000Y-155913500D01*
G75*
G02*
X219293500Y-155688000I225500J0D01*
G01*
X219744500Y-155688000D01*
G75*
G02*
X219970000Y-155913500I0J-225500D01*
G01*
X219970000Y-156514500D01*
G75*
G02*
X219744500Y-156740000I-225500J0D01*
G01*
X219293500Y-156740000D01*
G75*
G02*
X219068000Y-156514500I0J225500D01*
G01*
G37*
G36*
G01*
X217418000Y-114854500D02*
X217418000Y-114253500D01*
G75*
G02*
X217643500Y-114028000I225500J0D01*
G01*
X218094500Y-114028000D01*
G75*
G02*
X218320000Y-114253500I0J-225500D01*
G01*
X218320000Y-114854500D01*
G75*
G02*
X218094500Y-115080000I-225500J0D01*
G01*
X217643500Y-115080000D01*
G75*
G02*
X217418000Y-114854500I0J225500D01*
G01*
G37*
G36*
G01*
X219068000Y-114854500D02*
X219068000Y-114253500D01*
G75*
G02*
X219293500Y-114028000I225500J0D01*
G01*
X219744500Y-114028000D01*
G75*
G02*
X219970000Y-114253500I0J-225500D01*
G01*
X219970000Y-114854500D01*
G75*
G02*
X219744500Y-115080000I-225500J0D01*
G01*
X219293500Y-115080000D01*
G75*
G02*
X219068000Y-114854500I0J225500D01*
G01*
G37*
G36*
G01*
X176778000Y-156514500D02*
X176778000Y-155913500D01*
G75*
G02*
X177003500Y-155688000I225500J0D01*
G01*
X177454500Y-155688000D01*
G75*
G02*
X177680000Y-155913500I0J-225500D01*
G01*
X177680000Y-156514500D01*
G75*
G02*
X177454500Y-156740000I-225500J0D01*
G01*
X177003500Y-156740000D01*
G75*
G02*
X176778000Y-156514500I0J225500D01*
G01*
G37*
G36*
G01*
X178428000Y-156514500D02*
X178428000Y-155913500D01*
G75*
G02*
X178653500Y-155688000I225500J0D01*
G01*
X179104500Y-155688000D01*
G75*
G02*
X179330000Y-155913500I0J-225500D01*
G01*
X179330000Y-156514500D01*
G75*
G02*
X179104500Y-156740000I-225500J0D01*
G01*
X178653500Y-156740000D01*
G75*
G02*
X178428000Y-156514500I0J225500D01*
G01*
G37*
G36*
G01*
X208996500Y-151549328D02*
X208996500Y-150591672D01*
G75*
G02*
X209268672Y-150319500I272172J0D01*
G01*
X209976328Y-150319500D01*
G75*
G02*
X210248500Y-150591672I0J-272172D01*
G01*
X210248500Y-151549328D01*
G75*
G02*
X209976328Y-151821500I-272172J0D01*
G01*
X209268672Y-151821500D01*
G75*
G02*
X208996500Y-151549328I0J272172D01*
G01*
G37*
G36*
G01*
X206946500Y-151549328D02*
X206946500Y-150591672D01*
G75*
G02*
X207218672Y-150319500I272172J0D01*
G01*
X207926328Y-150319500D01*
G75*
G02*
X208198500Y-150591672I0J-272172D01*
G01*
X208198500Y-151549328D01*
G75*
G02*
X207926328Y-151821500I-272172J0D01*
G01*
X207218672Y-151821500D01*
G75*
G02*
X206946500Y-151549328I0J272172D01*
G01*
G37*
G36*
G01*
X208996500Y-109889328D02*
X208996500Y-108931672D01*
G75*
G02*
X209268672Y-108659500I272172J0D01*
G01*
X209976328Y-108659500D01*
G75*
G02*
X210248500Y-108931672I0J-272172D01*
G01*
X210248500Y-109889328D01*
G75*
G02*
X209976328Y-110161500I-272172J0D01*
G01*
X209268672Y-110161500D01*
G75*
G02*
X208996500Y-109889328I0J272172D01*
G01*
G37*
G36*
G01*
X206946500Y-109889328D02*
X206946500Y-108931672D01*
G75*
G02*
X207218672Y-108659500I272172J0D01*
G01*
X207926328Y-108659500D01*
G75*
G02*
X208198500Y-108931672I0J-272172D01*
G01*
X208198500Y-109889328D01*
G75*
G02*
X207926328Y-110161500I-272172J0D01*
G01*
X207218672Y-110161500D01*
G75*
G02*
X206946500Y-109889328I0J272172D01*
G01*
G37*
G36*
G01*
X168356500Y-151549328D02*
X168356500Y-150591672D01*
G75*
G02*
X168628672Y-150319500I272172J0D01*
G01*
X169336328Y-150319500D01*
G75*
G02*
X169608500Y-150591672I0J-272172D01*
G01*
X169608500Y-151549328D01*
G75*
G02*
X169336328Y-151821500I-272172J0D01*
G01*
X168628672Y-151821500D01*
G75*
G02*
X168356500Y-151549328I0J272172D01*
G01*
G37*
G36*
G01*
X166306500Y-151549328D02*
X166306500Y-150591672D01*
G75*
G02*
X166578672Y-150319500I272172J0D01*
G01*
X167286328Y-150319500D01*
G75*
G02*
X167558500Y-150591672I0J-272172D01*
G01*
X167558500Y-151549328D01*
G75*
G02*
X167286328Y-151821500I-272172J0D01*
G01*
X166578672Y-151821500D01*
G75*
G02*
X166306500Y-151549328I0J272172D01*
G01*
G37*
G36*
G01*
X214653000Y-146300500D02*
X214653000Y-145299500D01*
G75*
G02*
X214928500Y-145024000I275500J0D01*
G01*
X215479500Y-145024000D01*
G75*
G02*
X215755000Y-145299500I0J-275500D01*
G01*
X215755000Y-146300500D01*
G75*
G02*
X215479500Y-146576000I-275500J0D01*
G01*
X214928500Y-146576000D01*
G75*
G02*
X214653000Y-146300500I0J275500D01*
G01*
G37*
G36*
G01*
X216553000Y-146300500D02*
X216553000Y-145299500D01*
G75*
G02*
X216828500Y-145024000I275500J0D01*
G01*
X217379500Y-145024000D01*
G75*
G02*
X217655000Y-145299500I0J-275500D01*
G01*
X217655000Y-146300500D01*
G75*
G02*
X217379500Y-146576000I-275500J0D01*
G01*
X216828500Y-146576000D01*
G75*
G02*
X216553000Y-146300500I0J275500D01*
G01*
G37*
G36*
G01*
X214653000Y-104640500D02*
X214653000Y-103639500D01*
G75*
G02*
X214928500Y-103364000I275500J0D01*
G01*
X215479500Y-103364000D01*
G75*
G02*
X215755000Y-103639500I0J-275500D01*
G01*
X215755000Y-104640500D01*
G75*
G02*
X215479500Y-104916000I-275500J0D01*
G01*
X214928500Y-104916000D01*
G75*
G02*
X214653000Y-104640500I0J275500D01*
G01*
G37*
G36*
G01*
X216553000Y-104640500D02*
X216553000Y-103639500D01*
G75*
G02*
X216828500Y-103364000I275500J0D01*
G01*
X217379500Y-103364000D01*
G75*
G02*
X217655000Y-103639500I0J-275500D01*
G01*
X217655000Y-104640500D01*
G75*
G02*
X217379500Y-104916000I-275500J0D01*
G01*
X216828500Y-104916000D01*
G75*
G02*
X216553000Y-104640500I0J275500D01*
G01*
G37*
G36*
G01*
X174013000Y-146300500D02*
X174013000Y-145299500D01*
G75*
G02*
X174288500Y-145024000I275500J0D01*
G01*
X174839500Y-145024000D01*
G75*
G02*
X175115000Y-145299500I0J-275500D01*
G01*
X175115000Y-146300500D01*
G75*
G02*
X174839500Y-146576000I-275500J0D01*
G01*
X174288500Y-146576000D01*
G75*
G02*
X174013000Y-146300500I0J275500D01*
G01*
G37*
G36*
G01*
X175913000Y-146300500D02*
X175913000Y-145299500D01*
G75*
G02*
X176188500Y-145024000I275500J0D01*
G01*
X176739500Y-145024000D01*
G75*
G02*
X177015000Y-145299500I0J-275500D01*
G01*
X177015000Y-146300500D01*
G75*
G02*
X176739500Y-146576000I-275500J0D01*
G01*
X176188500Y-146576000D01*
G75*
G02*
X175913000Y-146300500I0J275500D01*
G01*
G37*
G36*
G01*
X214653000Y-141982500D02*
X214653000Y-140981500D01*
G75*
G02*
X214928500Y-140706000I275500J0D01*
G01*
X215479500Y-140706000D01*
G75*
G02*
X215755000Y-140981500I0J-275500D01*
G01*
X215755000Y-141982500D01*
G75*
G02*
X215479500Y-142258000I-275500J0D01*
G01*
X214928500Y-142258000D01*
G75*
G02*
X214653000Y-141982500I0J275500D01*
G01*
G37*
G36*
G01*
X216553000Y-141982500D02*
X216553000Y-140981500D01*
G75*
G02*
X216828500Y-140706000I275500J0D01*
G01*
X217379500Y-140706000D01*
G75*
G02*
X217655000Y-140981500I0J-275500D01*
G01*
X217655000Y-141982500D01*
G75*
G02*
X217379500Y-142258000I-275500J0D01*
G01*
X216828500Y-142258000D01*
G75*
G02*
X216553000Y-141982500I0J275500D01*
G01*
G37*
G36*
G01*
X214653000Y-100322500D02*
X214653000Y-99321500D01*
G75*
G02*
X214928500Y-99046000I275500J0D01*
G01*
X215479500Y-99046000D01*
G75*
G02*
X215755000Y-99321500I0J-275500D01*
G01*
X215755000Y-100322500D01*
G75*
G02*
X215479500Y-100598000I-275500J0D01*
G01*
X214928500Y-100598000D01*
G75*
G02*
X214653000Y-100322500I0J275500D01*
G01*
G37*
G36*
G01*
X216553000Y-100322500D02*
X216553000Y-99321500D01*
G75*
G02*
X216828500Y-99046000I275500J0D01*
G01*
X217379500Y-99046000D01*
G75*
G02*
X217655000Y-99321500I0J-275500D01*
G01*
X217655000Y-100322500D01*
G75*
G02*
X217379500Y-100598000I-275500J0D01*
G01*
X216828500Y-100598000D01*
G75*
G02*
X216553000Y-100322500I0J275500D01*
G01*
G37*
G36*
G01*
X174013000Y-141982500D02*
X174013000Y-140981500D01*
G75*
G02*
X174288500Y-140706000I275500J0D01*
G01*
X174839500Y-140706000D01*
G75*
G02*
X175115000Y-140981500I0J-275500D01*
G01*
X175115000Y-141982500D01*
G75*
G02*
X174839500Y-142258000I-275500J0D01*
G01*
X174288500Y-142258000D01*
G75*
G02*
X174013000Y-141982500I0J275500D01*
G01*
G37*
G36*
G01*
X175913000Y-141982500D02*
X175913000Y-140981500D01*
G75*
G02*
X176188500Y-140706000I275500J0D01*
G01*
X176739500Y-140706000D01*
G75*
G02*
X177015000Y-140981500I0J-275500D01*
G01*
X177015000Y-141982500D01*
G75*
G02*
X176739500Y-142258000I-275500J0D01*
G01*
X176188500Y-142258000D01*
G75*
G02*
X175913000Y-141982500I0J275500D01*
G01*
G37*
G36*
G01*
X214653000Y-144141500D02*
X214653000Y-143140500D01*
G75*
G02*
X214928500Y-142865000I275500J0D01*
G01*
X215479500Y-142865000D01*
G75*
G02*
X215755000Y-143140500I0J-275500D01*
G01*
X215755000Y-144141500D01*
G75*
G02*
X215479500Y-144417000I-275500J0D01*
G01*
X214928500Y-144417000D01*
G75*
G02*
X214653000Y-144141500I0J275500D01*
G01*
G37*
G36*
G01*
X216553000Y-144141500D02*
X216553000Y-143140500D01*
G75*
G02*
X216828500Y-142865000I275500J0D01*
G01*
X217379500Y-142865000D01*
G75*
G02*
X217655000Y-143140500I0J-275500D01*
G01*
X217655000Y-144141500D01*
G75*
G02*
X217379500Y-144417000I-275500J0D01*
G01*
X216828500Y-144417000D01*
G75*
G02*
X216553000Y-144141500I0J275500D01*
G01*
G37*
G36*
G01*
X214653000Y-102481500D02*
X214653000Y-101480500D01*
G75*
G02*
X214928500Y-101205000I275500J0D01*
G01*
X215479500Y-101205000D01*
G75*
G02*
X215755000Y-101480500I0J-275500D01*
G01*
X215755000Y-102481500D01*
G75*
G02*
X215479500Y-102757000I-275500J0D01*
G01*
X214928500Y-102757000D01*
G75*
G02*
X214653000Y-102481500I0J275500D01*
G01*
G37*
G36*
G01*
X216553000Y-102481500D02*
X216553000Y-101480500D01*
G75*
G02*
X216828500Y-101205000I275500J0D01*
G01*
X217379500Y-101205000D01*
G75*
G02*
X217655000Y-101480500I0J-275500D01*
G01*
X217655000Y-102481500D01*
G75*
G02*
X217379500Y-102757000I-275500J0D01*
G01*
X216828500Y-102757000D01*
G75*
G02*
X216553000Y-102481500I0J275500D01*
G01*
G37*
G36*
G01*
X174013000Y-144141500D02*
X174013000Y-143140500D01*
G75*
G02*
X174288500Y-142865000I275500J0D01*
G01*
X174839500Y-142865000D01*
G75*
G02*
X175115000Y-143140500I0J-275500D01*
G01*
X175115000Y-144141500D01*
G75*
G02*
X174839500Y-144417000I-275500J0D01*
G01*
X174288500Y-144417000D01*
G75*
G02*
X174013000Y-144141500I0J275500D01*
G01*
G37*
G36*
G01*
X175913000Y-144141500D02*
X175913000Y-143140500D01*
G75*
G02*
X176188500Y-142865000I275500J0D01*
G01*
X176739500Y-142865000D01*
G75*
G02*
X177015000Y-143140500I0J-275500D01*
G01*
X177015000Y-144141500D01*
G75*
G02*
X176739500Y-144417000I-275500J0D01*
G01*
X176188500Y-144417000D01*
G75*
G02*
X175913000Y-144141500I0J275500D01*
G01*
G37*
G36*
G01*
X208135000Y-154951500D02*
X208135000Y-155952500D01*
G75*
G02*
X207859500Y-156228000I-275500J0D01*
G01*
X207308500Y-156228000D01*
G75*
G02*
X207033000Y-155952500I0J275500D01*
G01*
X207033000Y-154951500D01*
G75*
G02*
X207308500Y-154676000I275500J0D01*
G01*
X207859500Y-154676000D01*
G75*
G02*
X208135000Y-154951500I0J-275500D01*
G01*
G37*
G36*
G01*
X210035000Y-154951500D02*
X210035000Y-155952500D01*
G75*
G02*
X209759500Y-156228000I-275500J0D01*
G01*
X209208500Y-156228000D01*
G75*
G02*
X208933000Y-155952500I0J275500D01*
G01*
X208933000Y-154951500D01*
G75*
G02*
X209208500Y-154676000I275500J0D01*
G01*
X209759500Y-154676000D01*
G75*
G02*
X210035000Y-154951500I0J-275500D01*
G01*
G37*
G36*
G01*
X208135000Y-113291500D02*
X208135000Y-114292500D01*
G75*
G02*
X207859500Y-114568000I-275500J0D01*
G01*
X207308500Y-114568000D01*
G75*
G02*
X207033000Y-114292500I0J275500D01*
G01*
X207033000Y-113291500D01*
G75*
G02*
X207308500Y-113016000I275500J0D01*
G01*
X207859500Y-113016000D01*
G75*
G02*
X208135000Y-113291500I0J-275500D01*
G01*
G37*
G36*
G01*
X210035000Y-113291500D02*
X210035000Y-114292500D01*
G75*
G02*
X209759500Y-114568000I-275500J0D01*
G01*
X209208500Y-114568000D01*
G75*
G02*
X208933000Y-114292500I0J275500D01*
G01*
X208933000Y-113291500D01*
G75*
G02*
X209208500Y-113016000I275500J0D01*
G01*
X209759500Y-113016000D01*
G75*
G02*
X210035000Y-113291500I0J-275500D01*
G01*
G37*
G36*
G01*
X167495000Y-154951500D02*
X167495000Y-155952500D01*
G75*
G02*
X167219500Y-156228000I-275500J0D01*
G01*
X166668500Y-156228000D01*
G75*
G02*
X166393000Y-155952500I0J275500D01*
G01*
X166393000Y-154951500D01*
G75*
G02*
X166668500Y-154676000I275500J0D01*
G01*
X167219500Y-154676000D01*
G75*
G02*
X167495000Y-154951500I0J-275500D01*
G01*
G37*
G36*
G01*
X169395000Y-154951500D02*
X169395000Y-155952500D01*
G75*
G02*
X169119500Y-156228000I-275500J0D01*
G01*
X168568500Y-156228000D01*
G75*
G02*
X168293000Y-155952500I0J275500D01*
G01*
X168293000Y-154951500D01*
G75*
G02*
X168568500Y-154676000I275500J0D01*
G01*
X169119500Y-154676000D01*
G75*
G02*
X169395000Y-154951500I0J-275500D01*
G01*
G37*
G36*
G01*
X208135000Y-152729000D02*
X208135000Y-153730000D01*
G75*
G02*
X207859500Y-154005500I-275500J0D01*
G01*
X207308500Y-154005500D01*
G75*
G02*
X207033000Y-153730000I0J275500D01*
G01*
X207033000Y-152729000D01*
G75*
G02*
X207308500Y-152453500I275500J0D01*
G01*
X207859500Y-152453500D01*
G75*
G02*
X208135000Y-152729000I0J-275500D01*
G01*
G37*
G36*
G01*
X210035000Y-152729000D02*
X210035000Y-153730000D01*
G75*
G02*
X209759500Y-154005500I-275500J0D01*
G01*
X209208500Y-154005500D01*
G75*
G02*
X208933000Y-153730000I0J275500D01*
G01*
X208933000Y-152729000D01*
G75*
G02*
X209208500Y-152453500I275500J0D01*
G01*
X209759500Y-152453500D01*
G75*
G02*
X210035000Y-152729000I0J-275500D01*
G01*
G37*
G36*
G01*
X208135000Y-111069000D02*
X208135000Y-112070000D01*
G75*
G02*
X207859500Y-112345500I-275500J0D01*
G01*
X207308500Y-112345500D01*
G75*
G02*
X207033000Y-112070000I0J275500D01*
G01*
X207033000Y-111069000D01*
G75*
G02*
X207308500Y-110793500I275500J0D01*
G01*
X207859500Y-110793500D01*
G75*
G02*
X208135000Y-111069000I0J-275500D01*
G01*
G37*
G36*
G01*
X210035000Y-111069000D02*
X210035000Y-112070000D01*
G75*
G02*
X209759500Y-112345500I-275500J0D01*
G01*
X209208500Y-112345500D01*
G75*
G02*
X208933000Y-112070000I0J275500D01*
G01*
X208933000Y-111069000D01*
G75*
G02*
X209208500Y-110793500I275500J0D01*
G01*
X209759500Y-110793500D01*
G75*
G02*
X210035000Y-111069000I0J-275500D01*
G01*
G37*
G36*
G01*
X167495000Y-152729000D02*
X167495000Y-153730000D01*
G75*
G02*
X167219500Y-154005500I-275500J0D01*
G01*
X166668500Y-154005500D01*
G75*
G02*
X166393000Y-153730000I0J275500D01*
G01*
X166393000Y-152729000D01*
G75*
G02*
X166668500Y-152453500I275500J0D01*
G01*
X167219500Y-152453500D01*
G75*
G02*
X167495000Y-152729000I0J-275500D01*
G01*
G37*
G36*
G01*
X169395000Y-152729000D02*
X169395000Y-153730000D01*
G75*
G02*
X169119500Y-154005500I-275500J0D01*
G01*
X168568500Y-154005500D01*
G75*
G02*
X168293000Y-153730000I0J275500D01*
G01*
X168293000Y-152729000D01*
G75*
G02*
X168568500Y-152453500I275500J0D01*
G01*
X169119500Y-152453500D01*
G75*
G02*
X169395000Y-152729000I0J-275500D01*
G01*
G37*
G36*
G01*
X222952800Y-147241800D02*
X223553800Y-147241800D01*
G75*
G02*
X223779300Y-147467300I0J-225500D01*
G01*
X223779300Y-147918300D01*
G75*
G02*
X223553800Y-148143800I-225500J0D01*
G01*
X222952800Y-148143800D01*
G75*
G02*
X222727300Y-147918300I0J225500D01*
G01*
X222727300Y-147467300D01*
G75*
G02*
X222952800Y-147241800I225500J0D01*
G01*
G37*
G36*
G01*
X222952800Y-148891800D02*
X223553800Y-148891800D01*
G75*
G02*
X223779300Y-149117300I0J-225500D01*
G01*
X223779300Y-149568300D01*
G75*
G02*
X223553800Y-149793800I-225500J0D01*
G01*
X222952800Y-149793800D01*
G75*
G02*
X222727300Y-149568300I0J225500D01*
G01*
X222727300Y-149117300D01*
G75*
G02*
X222952800Y-148891800I225500J0D01*
G01*
G37*
G36*
G01*
X222952800Y-105581800D02*
X223553800Y-105581800D01*
G75*
G02*
X223779300Y-105807300I0J-225500D01*
G01*
X223779300Y-106258300D01*
G75*
G02*
X223553800Y-106483800I-225500J0D01*
G01*
X222952800Y-106483800D01*
G75*
G02*
X222727300Y-106258300I0J225500D01*
G01*
X222727300Y-105807300D01*
G75*
G02*
X222952800Y-105581800I225500J0D01*
G01*
G37*
G36*
G01*
X222952800Y-107231800D02*
X223553800Y-107231800D01*
G75*
G02*
X223779300Y-107457300I0J-225500D01*
G01*
X223779300Y-107908300D01*
G75*
G02*
X223553800Y-108133800I-225500J0D01*
G01*
X222952800Y-108133800D01*
G75*
G02*
X222727300Y-107908300I0J225500D01*
G01*
X222727300Y-107457300D01*
G75*
G02*
X222952800Y-107231800I225500J0D01*
G01*
G37*
G36*
G01*
X182312800Y-147241800D02*
X182913800Y-147241800D01*
G75*
G02*
X183139300Y-147467300I0J-225500D01*
G01*
X183139300Y-147918300D01*
G75*
G02*
X182913800Y-148143800I-225500J0D01*
G01*
X182312800Y-148143800D01*
G75*
G02*
X182087300Y-147918300I0J225500D01*
G01*
X182087300Y-147467300D01*
G75*
G02*
X182312800Y-147241800I225500J0D01*
G01*
G37*
G36*
G01*
X182312800Y-148891800D02*
X182913800Y-148891800D01*
G75*
G02*
X183139300Y-149117300I0J-225500D01*
G01*
X183139300Y-149568300D01*
G75*
G02*
X182913800Y-149793800I-225500J0D01*
G01*
X182312800Y-149793800D01*
G75*
G02*
X182087300Y-149568300I0J225500D01*
G01*
X182087300Y-149117300D01*
G75*
G02*
X182312800Y-148891800I225500J0D01*
G01*
G37*
G36*
G01*
X224948875Y-157405000D02*
X225901125Y-157405000D01*
G75*
G02*
X226176000Y-157679875I0J-274875D01*
G01*
X226176000Y-158257125D01*
G75*
G02*
X225901125Y-158532000I-274875J0D01*
G01*
X224948875Y-158532000D01*
G75*
G02*
X224674000Y-158257125I0J274875D01*
G01*
X224674000Y-157679875D01*
G75*
G02*
X224948875Y-157405000I274875J0D01*
G01*
G37*
G36*
G01*
X224948875Y-159230000D02*
X225901125Y-159230000D01*
G75*
G02*
X226176000Y-159504875I0J-274875D01*
G01*
X226176000Y-160082125D01*
G75*
G02*
X225901125Y-160357000I-274875J0D01*
G01*
X224948875Y-160357000D01*
G75*
G02*
X224674000Y-160082125I0J274875D01*
G01*
X224674000Y-159504875D01*
G75*
G02*
X224948875Y-159230000I274875J0D01*
G01*
G37*
G36*
G01*
X224948875Y-115745000D02*
X225901125Y-115745000D01*
G75*
G02*
X226176000Y-116019875I0J-274875D01*
G01*
X226176000Y-116597125D01*
G75*
G02*
X225901125Y-116872000I-274875J0D01*
G01*
X224948875Y-116872000D01*
G75*
G02*
X224674000Y-116597125I0J274875D01*
G01*
X224674000Y-116019875D01*
G75*
G02*
X224948875Y-115745000I274875J0D01*
G01*
G37*
G36*
G01*
X224948875Y-117570000D02*
X225901125Y-117570000D01*
G75*
G02*
X226176000Y-117844875I0J-274875D01*
G01*
X226176000Y-118422125D01*
G75*
G02*
X225901125Y-118697000I-274875J0D01*
G01*
X224948875Y-118697000D01*
G75*
G02*
X224674000Y-118422125I0J274875D01*
G01*
X224674000Y-117844875D01*
G75*
G02*
X224948875Y-117570000I274875J0D01*
G01*
G37*
G36*
G01*
X184308875Y-157405000D02*
X185261125Y-157405000D01*
G75*
G02*
X185536000Y-157679875I0J-274875D01*
G01*
X185536000Y-158257125D01*
G75*
G02*
X185261125Y-158532000I-274875J0D01*
G01*
X184308875Y-158532000D01*
G75*
G02*
X184034000Y-158257125I0J274875D01*
G01*
X184034000Y-157679875D01*
G75*
G02*
X184308875Y-157405000I274875J0D01*
G01*
G37*
G36*
G01*
X184308875Y-159230000D02*
X185261125Y-159230000D01*
G75*
G02*
X185536000Y-159504875I0J-274875D01*
G01*
X185536000Y-160082125D01*
G75*
G02*
X185261125Y-160357000I-274875J0D01*
G01*
X184308875Y-160357000D01*
G75*
G02*
X184034000Y-160082125I0J274875D01*
G01*
X184034000Y-159504875D01*
G75*
G02*
X184308875Y-159230000I274875J0D01*
G01*
G37*
G36*
G01*
X223742125Y-156928000D02*
X222789875Y-156928000D01*
G75*
G02*
X222515000Y-156653125I0J274875D01*
G01*
X222515000Y-156075875D01*
G75*
G02*
X222789875Y-155801000I274875J0D01*
G01*
X223742125Y-155801000D01*
G75*
G02*
X224017000Y-156075875I0J-274875D01*
G01*
X224017000Y-156653125D01*
G75*
G02*
X223742125Y-156928000I-274875J0D01*
G01*
G37*
G36*
G01*
X223742125Y-155103000D02*
X222789875Y-155103000D01*
G75*
G02*
X222515000Y-154828125I0J274875D01*
G01*
X222515000Y-154250875D01*
G75*
G02*
X222789875Y-153976000I274875J0D01*
G01*
X223742125Y-153976000D01*
G75*
G02*
X224017000Y-154250875I0J-274875D01*
G01*
X224017000Y-154828125D01*
G75*
G02*
X223742125Y-155103000I-274875J0D01*
G01*
G37*
G36*
G01*
X223742125Y-115268000D02*
X222789875Y-115268000D01*
G75*
G02*
X222515000Y-114993125I0J274875D01*
G01*
X222515000Y-114415875D01*
G75*
G02*
X222789875Y-114141000I274875J0D01*
G01*
X223742125Y-114141000D01*
G75*
G02*
X224017000Y-114415875I0J-274875D01*
G01*
X224017000Y-114993125D01*
G75*
G02*
X223742125Y-115268000I-274875J0D01*
G01*
G37*
G36*
G01*
X223742125Y-113443000D02*
X222789875Y-113443000D01*
G75*
G02*
X222515000Y-113168125I0J274875D01*
G01*
X222515000Y-112590875D01*
G75*
G02*
X222789875Y-112316000I274875J0D01*
G01*
X223742125Y-112316000D01*
G75*
G02*
X224017000Y-112590875I0J-274875D01*
G01*
X224017000Y-113168125D01*
G75*
G02*
X223742125Y-113443000I-274875J0D01*
G01*
G37*
G36*
G01*
X183102125Y-156928000D02*
X182149875Y-156928000D01*
G75*
G02*
X181875000Y-156653125I0J274875D01*
G01*
X181875000Y-156075875D01*
G75*
G02*
X182149875Y-155801000I274875J0D01*
G01*
X183102125Y-155801000D01*
G75*
G02*
X183377000Y-156075875I0J-274875D01*
G01*
X183377000Y-156653125D01*
G75*
G02*
X183102125Y-156928000I-274875J0D01*
G01*
G37*
G36*
G01*
X183102125Y-155103000D02*
X182149875Y-155103000D01*
G75*
G02*
X181875000Y-154828125I0J274875D01*
G01*
X181875000Y-154250875D01*
G75*
G02*
X182149875Y-153976000I274875J0D01*
G01*
X183102125Y-153976000D01*
G75*
G02*
X183377000Y-154250875I0J-274875D01*
G01*
X183377000Y-154828125D01*
G75*
G02*
X183102125Y-155103000I-274875J0D01*
G01*
G37*
G36*
G01*
X228054800Y-134434200D02*
X229754800Y-134434200D01*
G75*
G02*
X229805800Y-134485200I0J-51000D01*
G01*
X229805800Y-136185200D01*
G75*
G02*
X229754800Y-136236200I-51000J0D01*
G01*
X228054800Y-136236200D01*
G75*
G02*
X228003800Y-136185200I0J51000D01*
G01*
X228003800Y-134485200D01*
G75*
G02*
X228054800Y-134434200I51000J0D01*
G01*
G37*
D11*
X226364800Y-135335200D03*
G36*
G01*
X228054800Y-92774200D02*
X229754800Y-92774200D01*
G75*
G02*
X229805800Y-92825200I0J-51000D01*
G01*
X229805800Y-94525200D01*
G75*
G02*
X229754800Y-94576200I-51000J0D01*
G01*
X228054800Y-94576200D01*
G75*
G02*
X228003800Y-94525200I0J51000D01*
G01*
X228003800Y-92825200D01*
G75*
G02*
X228054800Y-92774200I51000J0D01*
G01*
G37*
X226364800Y-93675200D03*
G36*
G01*
X187414800Y-134434200D02*
X189114800Y-134434200D01*
G75*
G02*
X189165800Y-134485200I0J-51000D01*
G01*
X189165800Y-136185200D01*
G75*
G02*
X189114800Y-136236200I-51000J0D01*
G01*
X187414800Y-136236200D01*
G75*
G02*
X187363800Y-136185200I0J51000D01*
G01*
X187363800Y-134485200D01*
G75*
G02*
X187414800Y-134434200I51000J0D01*
G01*
G37*
X185724800Y-135335200D03*
G36*
G01*
X205767800Y-141917700D02*
X205767800Y-142717700D01*
G75*
G02*
X205716800Y-142768700I-51000J0D01*
G01*
X204816800Y-142768700D01*
G75*
G02*
X204765800Y-142717700I0J51000D01*
G01*
X204765800Y-141917700D01*
G75*
G02*
X204816800Y-141866700I51000J0D01*
G01*
X205716800Y-141866700D01*
G75*
G02*
X205767800Y-141917700I0J-51000D01*
G01*
G37*
G36*
G01*
X205767800Y-140017700D02*
X205767800Y-140817700D01*
G75*
G02*
X205716800Y-140868700I-51000J0D01*
G01*
X204816800Y-140868700D01*
G75*
G02*
X204765800Y-140817700I0J51000D01*
G01*
X204765800Y-140017700D01*
G75*
G02*
X204816800Y-139966700I51000J0D01*
G01*
X205716800Y-139966700D01*
G75*
G02*
X205767800Y-140017700I0J-51000D01*
G01*
G37*
G36*
G01*
X203767800Y-140967700D02*
X203767800Y-141767700D01*
G75*
G02*
X203716800Y-141818700I-51000J0D01*
G01*
X202816800Y-141818700D01*
G75*
G02*
X202765800Y-141767700I0J51000D01*
G01*
X202765800Y-140967700D01*
G75*
G02*
X202816800Y-140916700I51000J0D01*
G01*
X203716800Y-140916700D01*
G75*
G02*
X203767800Y-140967700I0J-51000D01*
G01*
G37*
G36*
G01*
X205767800Y-100257700D02*
X205767800Y-101057700D01*
G75*
G02*
X205716800Y-101108700I-51000J0D01*
G01*
X204816800Y-101108700D01*
G75*
G02*
X204765800Y-101057700I0J51000D01*
G01*
X204765800Y-100257700D01*
G75*
G02*
X204816800Y-100206700I51000J0D01*
G01*
X205716800Y-100206700D01*
G75*
G02*
X205767800Y-100257700I0J-51000D01*
G01*
G37*
G36*
G01*
X205767800Y-98357700D02*
X205767800Y-99157700D01*
G75*
G02*
X205716800Y-99208700I-51000J0D01*
G01*
X204816800Y-99208700D01*
G75*
G02*
X204765800Y-99157700I0J51000D01*
G01*
X204765800Y-98357700D01*
G75*
G02*
X204816800Y-98306700I51000J0D01*
G01*
X205716800Y-98306700D01*
G75*
G02*
X205767800Y-98357700I0J-51000D01*
G01*
G37*
G36*
G01*
X203767800Y-99307700D02*
X203767800Y-100107700D01*
G75*
G02*
X203716800Y-100158700I-51000J0D01*
G01*
X202816800Y-100158700D01*
G75*
G02*
X202765800Y-100107700I0J51000D01*
G01*
X202765800Y-99307700D01*
G75*
G02*
X202816800Y-99256700I51000J0D01*
G01*
X203716800Y-99256700D01*
G75*
G02*
X203767800Y-99307700I0J-51000D01*
G01*
G37*
G36*
G01*
X165127800Y-141917700D02*
X165127800Y-142717700D01*
G75*
G02*
X165076800Y-142768700I-51000J0D01*
G01*
X164176800Y-142768700D01*
G75*
G02*
X164125800Y-142717700I0J51000D01*
G01*
X164125800Y-141917700D01*
G75*
G02*
X164176800Y-141866700I51000J0D01*
G01*
X165076800Y-141866700D01*
G75*
G02*
X165127800Y-141917700I0J-51000D01*
G01*
G37*
G36*
G01*
X165127800Y-140017700D02*
X165127800Y-140817700D01*
G75*
G02*
X165076800Y-140868700I-51000J0D01*
G01*
X164176800Y-140868700D01*
G75*
G02*
X164125800Y-140817700I0J51000D01*
G01*
X164125800Y-140017700D01*
G75*
G02*
X164176800Y-139966700I51000J0D01*
G01*
X165076800Y-139966700D01*
G75*
G02*
X165127800Y-140017700I0J-51000D01*
G01*
G37*
G36*
G01*
X163127800Y-140967700D02*
X163127800Y-141767700D01*
G75*
G02*
X163076800Y-141818700I-51000J0D01*
G01*
X162176800Y-141818700D01*
G75*
G02*
X162125800Y-141767700I0J51000D01*
G01*
X162125800Y-140967700D01*
G75*
G02*
X162176800Y-140916700I51000J0D01*
G01*
X163076800Y-140916700D01*
G75*
G02*
X163127800Y-140967700I0J-51000D01*
G01*
G37*
G36*
G01*
X199556000Y-134434200D02*
X201256000Y-134434200D01*
G75*
G02*
X201307000Y-134485200I0J-51000D01*
G01*
X201307000Y-136185200D01*
G75*
G02*
X201256000Y-136236200I-51000J0D01*
G01*
X199556000Y-136236200D01*
G75*
G02*
X199505000Y-136185200I0J51000D01*
G01*
X199505000Y-134485200D01*
G75*
G02*
X199556000Y-134434200I51000J0D01*
G01*
G37*
X197866000Y-135335200D03*
G36*
G01*
X199556000Y-92774200D02*
X201256000Y-92774200D01*
G75*
G02*
X201307000Y-92825200I0J-51000D01*
G01*
X201307000Y-94525200D01*
G75*
G02*
X201256000Y-94576200I-51000J0D01*
G01*
X199556000Y-94576200D01*
G75*
G02*
X199505000Y-94525200I0J51000D01*
G01*
X199505000Y-92825200D01*
G75*
G02*
X199556000Y-92774200I51000J0D01*
G01*
G37*
X197866000Y-93675200D03*
G36*
G01*
X158916000Y-134434200D02*
X160616000Y-134434200D01*
G75*
G02*
X160667000Y-134485200I0J-51000D01*
G01*
X160667000Y-136185200D01*
G75*
G02*
X160616000Y-136236200I-51000J0D01*
G01*
X158916000Y-136236200D01*
G75*
G02*
X158865000Y-136185200I0J51000D01*
G01*
X158865000Y-134485200D01*
G75*
G02*
X158916000Y-134434200I51000J0D01*
G01*
G37*
X157226000Y-135335200D03*
G36*
G01*
X229793100Y-155300500D02*
X229793100Y-157000500D01*
G75*
G02*
X229742100Y-157051500I-51000J0D01*
G01*
X228042100Y-157051500D01*
G75*
G02*
X227991100Y-157000500I0J51000D01*
G01*
X227991100Y-155300500D01*
G75*
G02*
X228042100Y-155249500I51000J0D01*
G01*
X229742100Y-155249500D01*
G75*
G02*
X229793100Y-155300500I0J-51000D01*
G01*
G37*
X228892100Y-153610500D03*
X228892100Y-151070500D03*
G36*
G01*
X229793100Y-113640500D02*
X229793100Y-115340500D01*
G75*
G02*
X229742100Y-115391500I-51000J0D01*
G01*
X228042100Y-115391500D01*
G75*
G02*
X227991100Y-115340500I0J51000D01*
G01*
X227991100Y-113640500D01*
G75*
G02*
X228042100Y-113589500I51000J0D01*
G01*
X229742100Y-113589500D01*
G75*
G02*
X229793100Y-113640500I0J-51000D01*
G01*
G37*
X228892100Y-111950500D03*
X228892100Y-109410500D03*
G36*
G01*
X189153100Y-155300500D02*
X189153100Y-157000500D01*
G75*
G02*
X189102100Y-157051500I-51000J0D01*
G01*
X187402100Y-157051500D01*
G75*
G02*
X187351100Y-157000500I0J51000D01*
G01*
X187351100Y-155300500D01*
G75*
G02*
X187402100Y-155249500I51000J0D01*
G01*
X189102100Y-155249500D01*
G75*
G02*
X189153100Y-155300500I0J-51000D01*
G01*
G37*
X188252100Y-153610500D03*
X188252100Y-151070500D03*
G36*
G01*
X223766500Y-143237000D02*
X222765500Y-143237000D01*
G75*
G02*
X222490000Y-142961500I0J275500D01*
G01*
X222490000Y-142410500D01*
G75*
G02*
X222765500Y-142135000I275500J0D01*
G01*
X223766500Y-142135000D01*
G75*
G02*
X224042000Y-142410500I0J-275500D01*
G01*
X224042000Y-142961500D01*
G75*
G02*
X223766500Y-143237000I-275500J0D01*
G01*
G37*
G36*
G01*
X223766500Y-141337000D02*
X222765500Y-141337000D01*
G75*
G02*
X222490000Y-141061500I0J275500D01*
G01*
X222490000Y-140510500D01*
G75*
G02*
X222765500Y-140235000I275500J0D01*
G01*
X223766500Y-140235000D01*
G75*
G02*
X224042000Y-140510500I0J-275500D01*
G01*
X224042000Y-141061500D01*
G75*
G02*
X223766500Y-141337000I-275500J0D01*
G01*
G37*
G36*
G01*
X223766500Y-101577000D02*
X222765500Y-101577000D01*
G75*
G02*
X222490000Y-101301500I0J275500D01*
G01*
X222490000Y-100750500D01*
G75*
G02*
X222765500Y-100475000I275500J0D01*
G01*
X223766500Y-100475000D01*
G75*
G02*
X224042000Y-100750500I0J-275500D01*
G01*
X224042000Y-101301500D01*
G75*
G02*
X223766500Y-101577000I-275500J0D01*
G01*
G37*
G36*
G01*
X223766500Y-99677000D02*
X222765500Y-99677000D01*
G75*
G02*
X222490000Y-99401500I0J275500D01*
G01*
X222490000Y-98850500D01*
G75*
G02*
X222765500Y-98575000I275500J0D01*
G01*
X223766500Y-98575000D01*
G75*
G02*
X224042000Y-98850500I0J-275500D01*
G01*
X224042000Y-99401500D01*
G75*
G02*
X223766500Y-99677000I-275500J0D01*
G01*
G37*
G36*
G01*
X183126500Y-143237000D02*
X182125500Y-143237000D01*
G75*
G02*
X181850000Y-142961500I0J275500D01*
G01*
X181850000Y-142410500D01*
G75*
G02*
X182125500Y-142135000I275500J0D01*
G01*
X183126500Y-142135000D01*
G75*
G02*
X183402000Y-142410500I0J-275500D01*
G01*
X183402000Y-142961500D01*
G75*
G02*
X183126500Y-143237000I-275500J0D01*
G01*
G37*
G36*
G01*
X183126500Y-141337000D02*
X182125500Y-141337000D01*
G75*
G02*
X181850000Y-141061500I0J275500D01*
G01*
X181850000Y-140510500D01*
G75*
G02*
X182125500Y-140235000I275500J0D01*
G01*
X183126500Y-140235000D01*
G75*
G02*
X183402000Y-140510500I0J-275500D01*
G01*
X183402000Y-141061500D01*
G75*
G02*
X183126500Y-141337000I-275500J0D01*
G01*
G37*
G36*
G01*
X206646000Y-141371500D02*
X207247000Y-141371500D01*
G75*
G02*
X207472500Y-141597000I0J-225500D01*
G01*
X207472500Y-142048000D01*
G75*
G02*
X207247000Y-142273500I-225500J0D01*
G01*
X206646000Y-142273500D01*
G75*
G02*
X206420500Y-142048000I0J225500D01*
G01*
X206420500Y-141597000D01*
G75*
G02*
X206646000Y-141371500I225500J0D01*
G01*
G37*
G36*
G01*
X206646000Y-139721500D02*
X207247000Y-139721500D01*
G75*
G02*
X207472500Y-139947000I0J-225500D01*
G01*
X207472500Y-140398000D01*
G75*
G02*
X207247000Y-140623500I-225500J0D01*
G01*
X206646000Y-140623500D01*
G75*
G02*
X206420500Y-140398000I0J225500D01*
G01*
X206420500Y-139947000D01*
G75*
G02*
X206646000Y-139721500I225500J0D01*
G01*
G37*
G36*
G01*
X206646000Y-99711500D02*
X207247000Y-99711500D01*
G75*
G02*
X207472500Y-99937000I0J-225500D01*
G01*
X207472500Y-100388000D01*
G75*
G02*
X207247000Y-100613500I-225500J0D01*
G01*
X206646000Y-100613500D01*
G75*
G02*
X206420500Y-100388000I0J225500D01*
G01*
X206420500Y-99937000D01*
G75*
G02*
X206646000Y-99711500I225500J0D01*
G01*
G37*
G36*
G01*
X206646000Y-98061500D02*
X207247000Y-98061500D01*
G75*
G02*
X207472500Y-98287000I0J-225500D01*
G01*
X207472500Y-98738000D01*
G75*
G02*
X207247000Y-98963500I-225500J0D01*
G01*
X206646000Y-98963500D01*
G75*
G02*
X206420500Y-98738000I0J225500D01*
G01*
X206420500Y-98287000D01*
G75*
G02*
X206646000Y-98061500I225500J0D01*
G01*
G37*
G36*
G01*
X166006000Y-141371500D02*
X166607000Y-141371500D01*
G75*
G02*
X166832500Y-141597000I0J-225500D01*
G01*
X166832500Y-142048000D01*
G75*
G02*
X166607000Y-142273500I-225500J0D01*
G01*
X166006000Y-142273500D01*
G75*
G02*
X165780500Y-142048000I0J225500D01*
G01*
X165780500Y-141597000D01*
G75*
G02*
X166006000Y-141371500I225500J0D01*
G01*
G37*
G36*
G01*
X166006000Y-139721500D02*
X166607000Y-139721500D01*
G75*
G02*
X166832500Y-139947000I0J-225500D01*
G01*
X166832500Y-140398000D01*
G75*
G02*
X166607000Y-140623500I-225500J0D01*
G01*
X166006000Y-140623500D01*
G75*
G02*
X165780500Y-140398000I0J225500D01*
G01*
X165780500Y-139947000D01*
G75*
G02*
X166006000Y-139721500I225500J0D01*
G01*
G37*
G36*
G01*
X205767800Y-146934200D02*
X205767800Y-147734200D01*
G75*
G02*
X205716800Y-147785200I-51000J0D01*
G01*
X204816800Y-147785200D01*
G75*
G02*
X204765800Y-147734200I0J51000D01*
G01*
X204765800Y-146934200D01*
G75*
G02*
X204816800Y-146883200I51000J0D01*
G01*
X205716800Y-146883200D01*
G75*
G02*
X205767800Y-146934200I0J-51000D01*
G01*
G37*
G36*
G01*
X205767800Y-145034200D02*
X205767800Y-145834200D01*
G75*
G02*
X205716800Y-145885200I-51000J0D01*
G01*
X204816800Y-145885200D01*
G75*
G02*
X204765800Y-145834200I0J51000D01*
G01*
X204765800Y-145034200D01*
G75*
G02*
X204816800Y-144983200I51000J0D01*
G01*
X205716800Y-144983200D01*
G75*
G02*
X205767800Y-145034200I0J-51000D01*
G01*
G37*
G36*
G01*
X203767800Y-145984200D02*
X203767800Y-146784200D01*
G75*
G02*
X203716800Y-146835200I-51000J0D01*
G01*
X202816800Y-146835200D01*
G75*
G02*
X202765800Y-146784200I0J51000D01*
G01*
X202765800Y-145984200D01*
G75*
G02*
X202816800Y-145933200I51000J0D01*
G01*
X203716800Y-145933200D01*
G75*
G02*
X203767800Y-145984200I0J-51000D01*
G01*
G37*
G36*
G01*
X205767800Y-105274200D02*
X205767800Y-106074200D01*
G75*
G02*
X205716800Y-106125200I-51000J0D01*
G01*
X204816800Y-106125200D01*
G75*
G02*
X204765800Y-106074200I0J51000D01*
G01*
X204765800Y-105274200D01*
G75*
G02*
X204816800Y-105223200I51000J0D01*
G01*
X205716800Y-105223200D01*
G75*
G02*
X205767800Y-105274200I0J-51000D01*
G01*
G37*
G36*
G01*
X205767800Y-103374200D02*
X205767800Y-104174200D01*
G75*
G02*
X205716800Y-104225200I-51000J0D01*
G01*
X204816800Y-104225200D01*
G75*
G02*
X204765800Y-104174200I0J51000D01*
G01*
X204765800Y-103374200D01*
G75*
G02*
X204816800Y-103323200I51000J0D01*
G01*
X205716800Y-103323200D01*
G75*
G02*
X205767800Y-103374200I0J-51000D01*
G01*
G37*
G36*
G01*
X203767800Y-104324200D02*
X203767800Y-105124200D01*
G75*
G02*
X203716800Y-105175200I-51000J0D01*
G01*
X202816800Y-105175200D01*
G75*
G02*
X202765800Y-105124200I0J51000D01*
G01*
X202765800Y-104324200D01*
G75*
G02*
X202816800Y-104273200I51000J0D01*
G01*
X203716800Y-104273200D01*
G75*
G02*
X203767800Y-104324200I0J-51000D01*
G01*
G37*
G36*
G01*
X165127800Y-146934200D02*
X165127800Y-147734200D01*
G75*
G02*
X165076800Y-147785200I-51000J0D01*
G01*
X164176800Y-147785200D01*
G75*
G02*
X164125800Y-147734200I0J51000D01*
G01*
X164125800Y-146934200D01*
G75*
G02*
X164176800Y-146883200I51000J0D01*
G01*
X165076800Y-146883200D01*
G75*
G02*
X165127800Y-146934200I0J-51000D01*
G01*
G37*
G36*
G01*
X165127800Y-145034200D02*
X165127800Y-145834200D01*
G75*
G02*
X165076800Y-145885200I-51000J0D01*
G01*
X164176800Y-145885200D01*
G75*
G02*
X164125800Y-145834200I0J51000D01*
G01*
X164125800Y-145034200D01*
G75*
G02*
X164176800Y-144983200I51000J0D01*
G01*
X165076800Y-144983200D01*
G75*
G02*
X165127800Y-145034200I0J-51000D01*
G01*
G37*
G36*
G01*
X163127800Y-145984200D02*
X163127800Y-146784200D01*
G75*
G02*
X163076800Y-146835200I-51000J0D01*
G01*
X162176800Y-146835200D01*
G75*
G02*
X162125800Y-146784200I0J51000D01*
G01*
X162125800Y-145984200D01*
G75*
G02*
X162176800Y-145933200I51000J0D01*
G01*
X163076800Y-145933200D01*
G75*
G02*
X163127800Y-145984200I0J-51000D01*
G01*
G37*
G36*
G01*
X205855200Y-134434200D02*
X207555200Y-134434200D01*
G75*
G02*
X207606200Y-134485200I0J-51000D01*
G01*
X207606200Y-136185200D01*
G75*
G02*
X207555200Y-136236200I-51000J0D01*
G01*
X205855200Y-136236200D01*
G75*
G02*
X205804200Y-136185200I0J51000D01*
G01*
X205804200Y-134485200D01*
G75*
G02*
X205855200Y-134434200I51000J0D01*
G01*
G37*
X204165200Y-135335200D03*
G36*
G01*
X205855200Y-92774200D02*
X207555200Y-92774200D01*
G75*
G02*
X207606200Y-92825200I0J-51000D01*
G01*
X207606200Y-94525200D01*
G75*
G02*
X207555200Y-94576200I-51000J0D01*
G01*
X205855200Y-94576200D01*
G75*
G02*
X205804200Y-94525200I0J51000D01*
G01*
X205804200Y-92825200D01*
G75*
G02*
X205855200Y-92774200I51000J0D01*
G01*
G37*
X204165200Y-93675200D03*
G36*
G01*
X165215200Y-134434200D02*
X166915200Y-134434200D01*
G75*
G02*
X166966200Y-134485200I0J-51000D01*
G01*
X166966200Y-136185200D01*
G75*
G02*
X166915200Y-136236200I-51000J0D01*
G01*
X165215200Y-136236200D01*
G75*
G02*
X165164200Y-136185200I0J51000D01*
G01*
X165164200Y-134485200D01*
G75*
G02*
X165215200Y-134434200I51000J0D01*
G01*
G37*
X163525200Y-135335200D03*
G36*
G01*
X206646000Y-148523500D02*
X207247000Y-148523500D01*
G75*
G02*
X207472500Y-148749000I0J-225500D01*
G01*
X207472500Y-149200000D01*
G75*
G02*
X207247000Y-149425500I-225500J0D01*
G01*
X206646000Y-149425500D01*
G75*
G02*
X206420500Y-149200000I0J225500D01*
G01*
X206420500Y-148749000D01*
G75*
G02*
X206646000Y-148523500I225500J0D01*
G01*
G37*
G36*
G01*
X206646000Y-146873500D02*
X207247000Y-146873500D01*
G75*
G02*
X207472500Y-147099000I0J-225500D01*
G01*
X207472500Y-147550000D01*
G75*
G02*
X207247000Y-147775500I-225500J0D01*
G01*
X206646000Y-147775500D01*
G75*
G02*
X206420500Y-147550000I0J225500D01*
G01*
X206420500Y-147099000D01*
G75*
G02*
X206646000Y-146873500I225500J0D01*
G01*
G37*
G36*
G01*
X206646000Y-106863500D02*
X207247000Y-106863500D01*
G75*
G02*
X207472500Y-107089000I0J-225500D01*
G01*
X207472500Y-107540000D01*
G75*
G02*
X207247000Y-107765500I-225500J0D01*
G01*
X206646000Y-107765500D01*
G75*
G02*
X206420500Y-107540000I0J225500D01*
G01*
X206420500Y-107089000D01*
G75*
G02*
X206646000Y-106863500I225500J0D01*
G01*
G37*
G36*
G01*
X206646000Y-105213500D02*
X207247000Y-105213500D01*
G75*
G02*
X207472500Y-105439000I0J-225500D01*
G01*
X207472500Y-105890000D01*
G75*
G02*
X207247000Y-106115500I-225500J0D01*
G01*
X206646000Y-106115500D01*
G75*
G02*
X206420500Y-105890000I0J225500D01*
G01*
X206420500Y-105439000D01*
G75*
G02*
X206646000Y-105213500I225500J0D01*
G01*
G37*
G36*
G01*
X166006000Y-148523500D02*
X166607000Y-148523500D01*
G75*
G02*
X166832500Y-148749000I0J-225500D01*
G01*
X166832500Y-149200000D01*
G75*
G02*
X166607000Y-149425500I-225500J0D01*
G01*
X166006000Y-149425500D01*
G75*
G02*
X165780500Y-149200000I0J225500D01*
G01*
X165780500Y-148749000D01*
G75*
G02*
X166006000Y-148523500I225500J0D01*
G01*
G37*
G36*
G01*
X166006000Y-146873500D02*
X166607000Y-146873500D01*
G75*
G02*
X166832500Y-147099000I0J-225500D01*
G01*
X166832500Y-147550000D01*
G75*
G02*
X166607000Y-147775500I-225500J0D01*
G01*
X166006000Y-147775500D01*
G75*
G02*
X165780500Y-147550000I0J225500D01*
G01*
X165780500Y-147099000D01*
G75*
G02*
X166006000Y-146873500I225500J0D01*
G01*
G37*
G36*
G01*
X208335375Y-148498500D02*
X209287625Y-148498500D01*
G75*
G02*
X209562500Y-148773375I0J-274875D01*
G01*
X209562500Y-149350625D01*
G75*
G02*
X209287625Y-149625500I-274875J0D01*
G01*
X208335375Y-149625500D01*
G75*
G02*
X208060500Y-149350625I0J274875D01*
G01*
X208060500Y-148773375D01*
G75*
G02*
X208335375Y-148498500I274875J0D01*
G01*
G37*
G36*
G01*
X208335375Y-146673500D02*
X209287625Y-146673500D01*
G75*
G02*
X209562500Y-146948375I0J-274875D01*
G01*
X209562500Y-147525625D01*
G75*
G02*
X209287625Y-147800500I-274875J0D01*
G01*
X208335375Y-147800500D01*
G75*
G02*
X208060500Y-147525625I0J274875D01*
G01*
X208060500Y-146948375D01*
G75*
G02*
X208335375Y-146673500I274875J0D01*
G01*
G37*
G36*
G01*
X208335375Y-106838500D02*
X209287625Y-106838500D01*
G75*
G02*
X209562500Y-107113375I0J-274875D01*
G01*
X209562500Y-107690625D01*
G75*
G02*
X209287625Y-107965500I-274875J0D01*
G01*
X208335375Y-107965500D01*
G75*
G02*
X208060500Y-107690625I0J274875D01*
G01*
X208060500Y-107113375D01*
G75*
G02*
X208335375Y-106838500I274875J0D01*
G01*
G37*
G36*
G01*
X208335375Y-105013500D02*
X209287625Y-105013500D01*
G75*
G02*
X209562500Y-105288375I0J-274875D01*
G01*
X209562500Y-105865625D01*
G75*
G02*
X209287625Y-106140500I-274875J0D01*
G01*
X208335375Y-106140500D01*
G75*
G02*
X208060500Y-105865625I0J274875D01*
G01*
X208060500Y-105288375D01*
G75*
G02*
X208335375Y-105013500I274875J0D01*
G01*
G37*
G36*
G01*
X167695375Y-148498500D02*
X168647625Y-148498500D01*
G75*
G02*
X168922500Y-148773375I0J-274875D01*
G01*
X168922500Y-149350625D01*
G75*
G02*
X168647625Y-149625500I-274875J0D01*
G01*
X167695375Y-149625500D01*
G75*
G02*
X167420500Y-149350625I0J274875D01*
G01*
X167420500Y-148773375D01*
G75*
G02*
X167695375Y-148498500I274875J0D01*
G01*
G37*
G36*
G01*
X167695375Y-146673500D02*
X168647625Y-146673500D01*
G75*
G02*
X168922500Y-146948375I0J-274875D01*
G01*
X168922500Y-147525625D01*
G75*
G02*
X168647625Y-147800500I-274875J0D01*
G01*
X167695375Y-147800500D01*
G75*
G02*
X167420500Y-147525625I0J274875D01*
G01*
X167420500Y-146948375D01*
G75*
G02*
X167695375Y-146673500I274875J0D01*
G01*
G37*
G36*
G01*
X208335375Y-141346500D02*
X209287625Y-141346500D01*
G75*
G02*
X209562500Y-141621375I0J-274875D01*
G01*
X209562500Y-142198625D01*
G75*
G02*
X209287625Y-142473500I-274875J0D01*
G01*
X208335375Y-142473500D01*
G75*
G02*
X208060500Y-142198625I0J274875D01*
G01*
X208060500Y-141621375D01*
G75*
G02*
X208335375Y-141346500I274875J0D01*
G01*
G37*
G36*
G01*
X208335375Y-139521500D02*
X209287625Y-139521500D01*
G75*
G02*
X209562500Y-139796375I0J-274875D01*
G01*
X209562500Y-140373625D01*
G75*
G02*
X209287625Y-140648500I-274875J0D01*
G01*
X208335375Y-140648500D01*
G75*
G02*
X208060500Y-140373625I0J274875D01*
G01*
X208060500Y-139796375D01*
G75*
G02*
X208335375Y-139521500I274875J0D01*
G01*
G37*
G36*
G01*
X208335375Y-99686500D02*
X209287625Y-99686500D01*
G75*
G02*
X209562500Y-99961375I0J-274875D01*
G01*
X209562500Y-100538625D01*
G75*
G02*
X209287625Y-100813500I-274875J0D01*
G01*
X208335375Y-100813500D01*
G75*
G02*
X208060500Y-100538625I0J274875D01*
G01*
X208060500Y-99961375D01*
G75*
G02*
X208335375Y-99686500I274875J0D01*
G01*
G37*
G36*
G01*
X208335375Y-97861500D02*
X209287625Y-97861500D01*
G75*
G02*
X209562500Y-98136375I0J-274875D01*
G01*
X209562500Y-98713625D01*
G75*
G02*
X209287625Y-98988500I-274875J0D01*
G01*
X208335375Y-98988500D01*
G75*
G02*
X208060500Y-98713625I0J274875D01*
G01*
X208060500Y-98136375D01*
G75*
G02*
X208335375Y-97861500I274875J0D01*
G01*
G37*
G36*
G01*
X167695375Y-141346500D02*
X168647625Y-141346500D01*
G75*
G02*
X168922500Y-141621375I0J-274875D01*
G01*
X168922500Y-142198625D01*
G75*
G02*
X168647625Y-142473500I-274875J0D01*
G01*
X167695375Y-142473500D01*
G75*
G02*
X167420500Y-142198625I0J274875D01*
G01*
X167420500Y-141621375D01*
G75*
G02*
X167695375Y-141346500I274875J0D01*
G01*
G37*
G36*
G01*
X167695375Y-139521500D02*
X168647625Y-139521500D01*
G75*
G02*
X168922500Y-139796375I0J-274875D01*
G01*
X168922500Y-140373625D01*
G75*
G02*
X168647625Y-140648500I-274875J0D01*
G01*
X167695375Y-140648500D01*
G75*
G02*
X167420500Y-140373625I0J274875D01*
G01*
X167420500Y-139796375D01*
G75*
G02*
X167695375Y-139521500I274875J0D01*
G01*
G37*
G36*
G01*
X217672000Y-160070500D02*
X217672000Y-159469500D01*
G75*
G02*
X217897500Y-159244000I225500J0D01*
G01*
X218348500Y-159244000D01*
G75*
G02*
X218574000Y-159469500I0J-225500D01*
G01*
X218574000Y-160070500D01*
G75*
G02*
X218348500Y-160296000I-225500J0D01*
G01*
X217897500Y-160296000D01*
G75*
G02*
X217672000Y-160070500I0J225500D01*
G01*
G37*
G36*
G01*
X219322000Y-160070500D02*
X219322000Y-159469500D01*
G75*
G02*
X219547500Y-159244000I225500J0D01*
G01*
X219998500Y-159244000D01*
G75*
G02*
X220224000Y-159469500I0J-225500D01*
G01*
X220224000Y-160070500D01*
G75*
G02*
X219998500Y-160296000I-225500J0D01*
G01*
X219547500Y-160296000D01*
G75*
G02*
X219322000Y-160070500I0J225500D01*
G01*
G37*
G36*
G01*
X217672000Y-118410500D02*
X217672000Y-117809500D01*
G75*
G02*
X217897500Y-117584000I225500J0D01*
G01*
X218348500Y-117584000D01*
G75*
G02*
X218574000Y-117809500I0J-225500D01*
G01*
X218574000Y-118410500D01*
G75*
G02*
X218348500Y-118636000I-225500J0D01*
G01*
X217897500Y-118636000D01*
G75*
G02*
X217672000Y-118410500I0J225500D01*
G01*
G37*
G36*
G01*
X219322000Y-118410500D02*
X219322000Y-117809500D01*
G75*
G02*
X219547500Y-117584000I225500J0D01*
G01*
X219998500Y-117584000D01*
G75*
G02*
X220224000Y-117809500I0J-225500D01*
G01*
X220224000Y-118410500D01*
G75*
G02*
X219998500Y-118636000I-225500J0D01*
G01*
X219547500Y-118636000D01*
G75*
G02*
X219322000Y-118410500I0J225500D01*
G01*
G37*
G36*
G01*
X177032000Y-160070500D02*
X177032000Y-159469500D01*
G75*
G02*
X177257500Y-159244000I225500J0D01*
G01*
X177708500Y-159244000D01*
G75*
G02*
X177934000Y-159469500I0J-225500D01*
G01*
X177934000Y-160070500D01*
G75*
G02*
X177708500Y-160296000I-225500J0D01*
G01*
X177257500Y-160296000D01*
G75*
G02*
X177032000Y-160070500I0J225500D01*
G01*
G37*
G36*
G01*
X178682000Y-160070500D02*
X178682000Y-159469500D01*
G75*
G02*
X178907500Y-159244000I225500J0D01*
G01*
X179358500Y-159244000D01*
G75*
G02*
X179584000Y-159469500I0J-225500D01*
G01*
X179584000Y-160070500D01*
G75*
G02*
X179358500Y-160296000I-225500J0D01*
G01*
X178907500Y-160296000D01*
G75*
G02*
X178682000Y-160070500I0J225500D01*
G01*
G37*
G36*
G01*
X206646000Y-144944000D02*
X207247000Y-144944000D01*
G75*
G02*
X207472500Y-145169500I0J-225500D01*
G01*
X207472500Y-145620500D01*
G75*
G02*
X207247000Y-145846000I-225500J0D01*
G01*
X206646000Y-145846000D01*
G75*
G02*
X206420500Y-145620500I0J225500D01*
G01*
X206420500Y-145169500D01*
G75*
G02*
X206646000Y-144944000I225500J0D01*
G01*
G37*
G36*
G01*
X206646000Y-143294000D02*
X207247000Y-143294000D01*
G75*
G02*
X207472500Y-143519500I0J-225500D01*
G01*
X207472500Y-143970500D01*
G75*
G02*
X207247000Y-144196000I-225500J0D01*
G01*
X206646000Y-144196000D01*
G75*
G02*
X206420500Y-143970500I0J225500D01*
G01*
X206420500Y-143519500D01*
G75*
G02*
X206646000Y-143294000I225500J0D01*
G01*
G37*
G36*
G01*
X206646000Y-103284000D02*
X207247000Y-103284000D01*
G75*
G02*
X207472500Y-103509500I0J-225500D01*
G01*
X207472500Y-103960500D01*
G75*
G02*
X207247000Y-104186000I-225500J0D01*
G01*
X206646000Y-104186000D01*
G75*
G02*
X206420500Y-103960500I0J225500D01*
G01*
X206420500Y-103509500D01*
G75*
G02*
X206646000Y-103284000I225500J0D01*
G01*
G37*
G36*
G01*
X206646000Y-101634000D02*
X207247000Y-101634000D01*
G75*
G02*
X207472500Y-101859500I0J-225500D01*
G01*
X207472500Y-102310500D01*
G75*
G02*
X207247000Y-102536000I-225500J0D01*
G01*
X206646000Y-102536000D01*
G75*
G02*
X206420500Y-102310500I0J225500D01*
G01*
X206420500Y-101859500D01*
G75*
G02*
X206646000Y-101634000I225500J0D01*
G01*
G37*
G36*
G01*
X166006000Y-144944000D02*
X166607000Y-144944000D01*
G75*
G02*
X166832500Y-145169500I0J-225500D01*
G01*
X166832500Y-145620500D01*
G75*
G02*
X166607000Y-145846000I-225500J0D01*
G01*
X166006000Y-145846000D01*
G75*
G02*
X165780500Y-145620500I0J225500D01*
G01*
X165780500Y-145169500D01*
G75*
G02*
X166006000Y-144944000I225500J0D01*
G01*
G37*
G36*
G01*
X166006000Y-143294000D02*
X166607000Y-143294000D01*
G75*
G02*
X166832500Y-143519500I0J-225500D01*
G01*
X166832500Y-143970500D01*
G75*
G02*
X166607000Y-144196000I-225500J0D01*
G01*
X166006000Y-144196000D01*
G75*
G02*
X165780500Y-143970500I0J225500D01*
G01*
X165780500Y-143519500D01*
G75*
G02*
X166006000Y-143294000I225500J0D01*
G01*
G37*
G36*
G01*
X224948875Y-153976000D02*
X225901125Y-153976000D01*
G75*
G02*
X226176000Y-154250875I0J-274875D01*
G01*
X226176000Y-154828125D01*
G75*
G02*
X225901125Y-155103000I-274875J0D01*
G01*
X224948875Y-155103000D01*
G75*
G02*
X224674000Y-154828125I0J274875D01*
G01*
X224674000Y-154250875D01*
G75*
G02*
X224948875Y-153976000I274875J0D01*
G01*
G37*
G36*
G01*
X224948875Y-155801000D02*
X225901125Y-155801000D01*
G75*
G02*
X226176000Y-156075875I0J-274875D01*
G01*
X226176000Y-156653125D01*
G75*
G02*
X225901125Y-156928000I-274875J0D01*
G01*
X224948875Y-156928000D01*
G75*
G02*
X224674000Y-156653125I0J274875D01*
G01*
X224674000Y-156075875D01*
G75*
G02*
X224948875Y-155801000I274875J0D01*
G01*
G37*
G36*
G01*
X224948875Y-112316000D02*
X225901125Y-112316000D01*
G75*
G02*
X226176000Y-112590875I0J-274875D01*
G01*
X226176000Y-113168125D01*
G75*
G02*
X225901125Y-113443000I-274875J0D01*
G01*
X224948875Y-113443000D01*
G75*
G02*
X224674000Y-113168125I0J274875D01*
G01*
X224674000Y-112590875D01*
G75*
G02*
X224948875Y-112316000I274875J0D01*
G01*
G37*
G36*
G01*
X224948875Y-114141000D02*
X225901125Y-114141000D01*
G75*
G02*
X226176000Y-114415875I0J-274875D01*
G01*
X226176000Y-114993125D01*
G75*
G02*
X225901125Y-115268000I-274875J0D01*
G01*
X224948875Y-115268000D01*
G75*
G02*
X224674000Y-114993125I0J274875D01*
G01*
X224674000Y-114415875D01*
G75*
G02*
X224948875Y-114141000I274875J0D01*
G01*
G37*
G36*
G01*
X184308875Y-153976000D02*
X185261125Y-153976000D01*
G75*
G02*
X185536000Y-154250875I0J-274875D01*
G01*
X185536000Y-154828125D01*
G75*
G02*
X185261125Y-155103000I-274875J0D01*
G01*
X184308875Y-155103000D01*
G75*
G02*
X184034000Y-154828125I0J274875D01*
G01*
X184034000Y-154250875D01*
G75*
G02*
X184308875Y-153976000I274875J0D01*
G01*
G37*
G36*
G01*
X184308875Y-155801000D02*
X185261125Y-155801000D01*
G75*
G02*
X185536000Y-156075875I0J-274875D01*
G01*
X185536000Y-156653125D01*
G75*
G02*
X185261125Y-156928000I-274875J0D01*
G01*
X184308875Y-156928000D01*
G75*
G02*
X184034000Y-156653125I0J274875D01*
G01*
X184034000Y-156075875D01*
G75*
G02*
X184308875Y-155801000I274875J0D01*
G01*
G37*
G36*
G01*
X208335375Y-144919000D02*
X209287625Y-144919000D01*
G75*
G02*
X209562500Y-145193875I0J-274875D01*
G01*
X209562500Y-145771125D01*
G75*
G02*
X209287625Y-146046000I-274875J0D01*
G01*
X208335375Y-146046000D01*
G75*
G02*
X208060500Y-145771125I0J274875D01*
G01*
X208060500Y-145193875D01*
G75*
G02*
X208335375Y-144919000I274875J0D01*
G01*
G37*
G36*
G01*
X208335375Y-143094000D02*
X209287625Y-143094000D01*
G75*
G02*
X209562500Y-143368875I0J-274875D01*
G01*
X209562500Y-143946125D01*
G75*
G02*
X209287625Y-144221000I-274875J0D01*
G01*
X208335375Y-144221000D01*
G75*
G02*
X208060500Y-143946125I0J274875D01*
G01*
X208060500Y-143368875D01*
G75*
G02*
X208335375Y-143094000I274875J0D01*
G01*
G37*
G36*
G01*
X208335375Y-103259000D02*
X209287625Y-103259000D01*
G75*
G02*
X209562500Y-103533875I0J-274875D01*
G01*
X209562500Y-104111125D01*
G75*
G02*
X209287625Y-104386000I-274875J0D01*
G01*
X208335375Y-104386000D01*
G75*
G02*
X208060500Y-104111125I0J274875D01*
G01*
X208060500Y-103533875D01*
G75*
G02*
X208335375Y-103259000I274875J0D01*
G01*
G37*
G36*
G01*
X208335375Y-101434000D02*
X209287625Y-101434000D01*
G75*
G02*
X209562500Y-101708875I0J-274875D01*
G01*
X209562500Y-102286125D01*
G75*
G02*
X209287625Y-102561000I-274875J0D01*
G01*
X208335375Y-102561000D01*
G75*
G02*
X208060500Y-102286125I0J274875D01*
G01*
X208060500Y-101708875D01*
G75*
G02*
X208335375Y-101434000I274875J0D01*
G01*
G37*
G36*
G01*
X167695375Y-144919000D02*
X168647625Y-144919000D01*
G75*
G02*
X168922500Y-145193875I0J-274875D01*
G01*
X168922500Y-145771125D01*
G75*
G02*
X168647625Y-146046000I-274875J0D01*
G01*
X167695375Y-146046000D01*
G75*
G02*
X167420500Y-145771125I0J274875D01*
G01*
X167420500Y-145193875D01*
G75*
G02*
X167695375Y-144919000I274875J0D01*
G01*
G37*
G36*
G01*
X167695375Y-143094000D02*
X168647625Y-143094000D01*
G75*
G02*
X168922500Y-143368875I0J-274875D01*
G01*
X168922500Y-143946125D01*
G75*
G02*
X168647625Y-144221000I-274875J0D01*
G01*
X167695375Y-144221000D01*
G75*
G02*
X167420500Y-143946125I0J274875D01*
G01*
X167420500Y-143368875D01*
G75*
G02*
X167695375Y-143094000I274875J0D01*
G01*
G37*
G36*
G01*
X224948875Y-150547000D02*
X225901125Y-150547000D01*
G75*
G02*
X226176000Y-150821875I0J-274875D01*
G01*
X226176000Y-151399125D01*
G75*
G02*
X225901125Y-151674000I-274875J0D01*
G01*
X224948875Y-151674000D01*
G75*
G02*
X224674000Y-151399125I0J274875D01*
G01*
X224674000Y-150821875D01*
G75*
G02*
X224948875Y-150547000I274875J0D01*
G01*
G37*
G36*
G01*
X224948875Y-152372000D02*
X225901125Y-152372000D01*
G75*
G02*
X226176000Y-152646875I0J-274875D01*
G01*
X226176000Y-153224125D01*
G75*
G02*
X225901125Y-153499000I-274875J0D01*
G01*
X224948875Y-153499000D01*
G75*
G02*
X224674000Y-153224125I0J274875D01*
G01*
X224674000Y-152646875D01*
G75*
G02*
X224948875Y-152372000I274875J0D01*
G01*
G37*
G36*
G01*
X224948875Y-108887000D02*
X225901125Y-108887000D01*
G75*
G02*
X226176000Y-109161875I0J-274875D01*
G01*
X226176000Y-109739125D01*
G75*
G02*
X225901125Y-110014000I-274875J0D01*
G01*
X224948875Y-110014000D01*
G75*
G02*
X224674000Y-109739125I0J274875D01*
G01*
X224674000Y-109161875D01*
G75*
G02*
X224948875Y-108887000I274875J0D01*
G01*
G37*
G36*
G01*
X224948875Y-110712000D02*
X225901125Y-110712000D01*
G75*
G02*
X226176000Y-110986875I0J-274875D01*
G01*
X226176000Y-111564125D01*
G75*
G02*
X225901125Y-111839000I-274875J0D01*
G01*
X224948875Y-111839000D01*
G75*
G02*
X224674000Y-111564125I0J274875D01*
G01*
X224674000Y-110986875D01*
G75*
G02*
X224948875Y-110712000I274875J0D01*
G01*
G37*
G36*
G01*
X184308875Y-150547000D02*
X185261125Y-150547000D01*
G75*
G02*
X185536000Y-150821875I0J-274875D01*
G01*
X185536000Y-151399125D01*
G75*
G02*
X185261125Y-151674000I-274875J0D01*
G01*
X184308875Y-151674000D01*
G75*
G02*
X184034000Y-151399125I0J274875D01*
G01*
X184034000Y-150821875D01*
G75*
G02*
X184308875Y-150547000I274875J0D01*
G01*
G37*
G36*
G01*
X184308875Y-152372000D02*
X185261125Y-152372000D01*
G75*
G02*
X185536000Y-152646875I0J-274875D01*
G01*
X185536000Y-153224125D01*
G75*
G02*
X185261125Y-153499000I-274875J0D01*
G01*
X184308875Y-153499000D01*
G75*
G02*
X184034000Y-153224125I0J274875D01*
G01*
X184034000Y-152646875D01*
G75*
G02*
X184308875Y-152372000I274875J0D01*
G01*
G37*
X210464400Y-135335200D03*
X213004400Y-135335200D03*
G36*
G01*
X214694400Y-134434200D02*
X216394400Y-134434200D01*
G75*
G02*
X216445400Y-134485200I0J-51000D01*
G01*
X216445400Y-136185200D01*
G75*
G02*
X216394400Y-136236200I-51000J0D01*
G01*
X214694400Y-136236200D01*
G75*
G02*
X214643400Y-136185200I0J51000D01*
G01*
X214643400Y-134485200D01*
G75*
G02*
X214694400Y-134434200I51000J0D01*
G01*
G37*
X210464400Y-93675200D03*
X213004400Y-93675200D03*
G36*
G01*
X214694400Y-92774200D02*
X216394400Y-92774200D01*
G75*
G02*
X216445400Y-92825200I0J-51000D01*
G01*
X216445400Y-94525200D01*
G75*
G02*
X216394400Y-94576200I-51000J0D01*
G01*
X214694400Y-94576200D01*
G75*
G02*
X214643400Y-94525200I0J51000D01*
G01*
X214643400Y-92825200D01*
G75*
G02*
X214694400Y-92774200I51000J0D01*
G01*
G37*
X169824400Y-135335200D03*
X172364400Y-135335200D03*
G36*
G01*
X174054400Y-134434200D02*
X175754400Y-134434200D01*
G75*
G02*
X175805400Y-134485200I0J-51000D01*
G01*
X175805400Y-136185200D01*
G75*
G02*
X175754400Y-136236200I-51000J0D01*
G01*
X174054400Y-136236200D01*
G75*
G02*
X174003400Y-136185200I0J51000D01*
G01*
X174003400Y-134485200D01*
G75*
G02*
X174054400Y-134434200I51000J0D01*
G01*
G37*
G36*
G01*
X207058000Y-160246125D02*
X207058000Y-159293875D01*
G75*
G02*
X207332875Y-159019000I274875J0D01*
G01*
X207910125Y-159019000D01*
G75*
G02*
X208185000Y-159293875I0J-274875D01*
G01*
X208185000Y-160246125D01*
G75*
G02*
X207910125Y-160521000I-274875J0D01*
G01*
X207332875Y-160521000D01*
G75*
G02*
X207058000Y-160246125I0J274875D01*
G01*
G37*
G36*
G01*
X208883000Y-160246125D02*
X208883000Y-159293875D01*
G75*
G02*
X209157875Y-159019000I274875J0D01*
G01*
X209735125Y-159019000D01*
G75*
G02*
X210010000Y-159293875I0J-274875D01*
G01*
X210010000Y-160246125D01*
G75*
G02*
X209735125Y-160521000I-274875J0D01*
G01*
X209157875Y-160521000D01*
G75*
G02*
X208883000Y-160246125I0J274875D01*
G01*
G37*
G36*
G01*
X207058000Y-118586125D02*
X207058000Y-117633875D01*
G75*
G02*
X207332875Y-117359000I274875J0D01*
G01*
X207910125Y-117359000D01*
G75*
G02*
X208185000Y-117633875I0J-274875D01*
G01*
X208185000Y-118586125D01*
G75*
G02*
X207910125Y-118861000I-274875J0D01*
G01*
X207332875Y-118861000D01*
G75*
G02*
X207058000Y-118586125I0J274875D01*
G01*
G37*
G36*
G01*
X208883000Y-118586125D02*
X208883000Y-117633875D01*
G75*
G02*
X209157875Y-117359000I274875J0D01*
G01*
X209735125Y-117359000D01*
G75*
G02*
X210010000Y-117633875I0J-274875D01*
G01*
X210010000Y-118586125D01*
G75*
G02*
X209735125Y-118861000I-274875J0D01*
G01*
X209157875Y-118861000D01*
G75*
G02*
X208883000Y-118586125I0J274875D01*
G01*
G37*
G36*
G01*
X166418000Y-160246125D02*
X166418000Y-159293875D01*
G75*
G02*
X166692875Y-159019000I274875J0D01*
G01*
X167270125Y-159019000D01*
G75*
G02*
X167545000Y-159293875I0J-274875D01*
G01*
X167545000Y-160246125D01*
G75*
G02*
X167270125Y-160521000I-274875J0D01*
G01*
X166692875Y-160521000D01*
G75*
G02*
X166418000Y-160246125I0J274875D01*
G01*
G37*
G36*
G01*
X168243000Y-160246125D02*
X168243000Y-159293875D01*
G75*
G02*
X168517875Y-159019000I274875J0D01*
G01*
X169095125Y-159019000D01*
G75*
G02*
X169370000Y-159293875I0J-274875D01*
G01*
X169370000Y-160246125D01*
G75*
G02*
X169095125Y-160521000I-274875J0D01*
G01*
X168517875Y-160521000D01*
G75*
G02*
X168243000Y-160246125I0J274875D01*
G01*
G37*
G36*
G01*
X224948875Y-140260000D02*
X225901125Y-140260000D01*
G75*
G02*
X226176000Y-140534875I0J-274875D01*
G01*
X226176000Y-141112125D01*
G75*
G02*
X225901125Y-141387000I-274875J0D01*
G01*
X224948875Y-141387000D01*
G75*
G02*
X224674000Y-141112125I0J274875D01*
G01*
X224674000Y-140534875D01*
G75*
G02*
X224948875Y-140260000I274875J0D01*
G01*
G37*
G36*
G01*
X224948875Y-142085000D02*
X225901125Y-142085000D01*
G75*
G02*
X226176000Y-142359875I0J-274875D01*
G01*
X226176000Y-142937125D01*
G75*
G02*
X225901125Y-143212000I-274875J0D01*
G01*
X224948875Y-143212000D01*
G75*
G02*
X224674000Y-142937125I0J274875D01*
G01*
X224674000Y-142359875D01*
G75*
G02*
X224948875Y-142085000I274875J0D01*
G01*
G37*
G36*
G01*
X224948875Y-98600000D02*
X225901125Y-98600000D01*
G75*
G02*
X226176000Y-98874875I0J-274875D01*
G01*
X226176000Y-99452125D01*
G75*
G02*
X225901125Y-99727000I-274875J0D01*
G01*
X224948875Y-99727000D01*
G75*
G02*
X224674000Y-99452125I0J274875D01*
G01*
X224674000Y-98874875D01*
G75*
G02*
X224948875Y-98600000I274875J0D01*
G01*
G37*
G36*
G01*
X224948875Y-100425000D02*
X225901125Y-100425000D01*
G75*
G02*
X226176000Y-100699875I0J-274875D01*
G01*
X226176000Y-101277125D01*
G75*
G02*
X225901125Y-101552000I-274875J0D01*
G01*
X224948875Y-101552000D01*
G75*
G02*
X224674000Y-101277125I0J274875D01*
G01*
X224674000Y-100699875D01*
G75*
G02*
X224948875Y-100425000I274875J0D01*
G01*
G37*
G36*
G01*
X184308875Y-140260000D02*
X185261125Y-140260000D01*
G75*
G02*
X185536000Y-140534875I0J-274875D01*
G01*
X185536000Y-141112125D01*
G75*
G02*
X185261125Y-141387000I-274875J0D01*
G01*
X184308875Y-141387000D01*
G75*
G02*
X184034000Y-141112125I0J274875D01*
G01*
X184034000Y-140534875D01*
G75*
G02*
X184308875Y-140260000I274875J0D01*
G01*
G37*
G36*
G01*
X184308875Y-142085000D02*
X185261125Y-142085000D01*
G75*
G02*
X185536000Y-142359875I0J-274875D01*
G01*
X185536000Y-142937125D01*
G75*
G02*
X185261125Y-143212000I-274875J0D01*
G01*
X184308875Y-143212000D01*
G75*
G02*
X184034000Y-142937125I0J274875D01*
G01*
X184034000Y-142359875D01*
G75*
G02*
X184308875Y-142085000I274875J0D01*
G01*
G37*
G36*
G01*
X210614000Y-160246125D02*
X210614000Y-159293875D01*
G75*
G02*
X210888875Y-159019000I274875J0D01*
G01*
X211466125Y-159019000D01*
G75*
G02*
X211741000Y-159293875I0J-274875D01*
G01*
X211741000Y-160246125D01*
G75*
G02*
X211466125Y-160521000I-274875J0D01*
G01*
X210888875Y-160521000D01*
G75*
G02*
X210614000Y-160246125I0J274875D01*
G01*
G37*
G36*
G01*
X212439000Y-160246125D02*
X212439000Y-159293875D01*
G75*
G02*
X212713875Y-159019000I274875J0D01*
G01*
X213291125Y-159019000D01*
G75*
G02*
X213566000Y-159293875I0J-274875D01*
G01*
X213566000Y-160246125D01*
G75*
G02*
X213291125Y-160521000I-274875J0D01*
G01*
X212713875Y-160521000D01*
G75*
G02*
X212439000Y-160246125I0J274875D01*
G01*
G37*
G36*
G01*
X210614000Y-118586125D02*
X210614000Y-117633875D01*
G75*
G02*
X210888875Y-117359000I274875J0D01*
G01*
X211466125Y-117359000D01*
G75*
G02*
X211741000Y-117633875I0J-274875D01*
G01*
X211741000Y-118586125D01*
G75*
G02*
X211466125Y-118861000I-274875J0D01*
G01*
X210888875Y-118861000D01*
G75*
G02*
X210614000Y-118586125I0J274875D01*
G01*
G37*
G36*
G01*
X212439000Y-118586125D02*
X212439000Y-117633875D01*
G75*
G02*
X212713875Y-117359000I274875J0D01*
G01*
X213291125Y-117359000D01*
G75*
G02*
X213566000Y-117633875I0J-274875D01*
G01*
X213566000Y-118586125D01*
G75*
G02*
X213291125Y-118861000I-274875J0D01*
G01*
X212713875Y-118861000D01*
G75*
G02*
X212439000Y-118586125I0J274875D01*
G01*
G37*
G36*
G01*
X169974000Y-160246125D02*
X169974000Y-159293875D01*
G75*
G02*
X170248875Y-159019000I274875J0D01*
G01*
X170826125Y-159019000D01*
G75*
G02*
X171101000Y-159293875I0J-274875D01*
G01*
X171101000Y-160246125D01*
G75*
G02*
X170826125Y-160521000I-274875J0D01*
G01*
X170248875Y-160521000D01*
G75*
G02*
X169974000Y-160246125I0J274875D01*
G01*
G37*
G36*
G01*
X171799000Y-160246125D02*
X171799000Y-159293875D01*
G75*
G02*
X172073875Y-159019000I274875J0D01*
G01*
X172651125Y-159019000D01*
G75*
G02*
X172926000Y-159293875I0J-274875D01*
G01*
X172926000Y-160246125D01*
G75*
G02*
X172651125Y-160521000I-274875J0D01*
G01*
X172073875Y-160521000D01*
G75*
G02*
X171799000Y-160246125I0J274875D01*
G01*
G37*
D12*
X216547700Y-150740300D03*
X216547700Y-151527700D03*
X215760300Y-150740300D03*
X215760300Y-151527700D03*
G36*
G01*
X215078000Y-152159000D02*
X215078000Y-150109000D01*
G75*
G02*
X215129000Y-150058000I51000J0D01*
G01*
X217179000Y-150058000D01*
G75*
G02*
X217230000Y-150109000I0J-51000D01*
G01*
X217230000Y-152159000D01*
G75*
G02*
X217179000Y-152210000I-51000J0D01*
G01*
X215129000Y-152210000D01*
G75*
G02*
X215078000Y-152159000I0J51000D01*
G01*
G37*
G36*
G01*
X214962748Y-149834000D02*
X214962748Y-148984000D01*
G75*
G02*
X215013748Y-148933000I51000J0D01*
G01*
X215293748Y-148933000D01*
G75*
G02*
X215344748Y-148984000I0J-51000D01*
G01*
X215344748Y-149834000D01*
G75*
G02*
X215293748Y-149885000I-51000J0D01*
G01*
X215013748Y-149885000D01*
G75*
G02*
X214962748Y-149834000I0J51000D01*
G01*
G37*
G36*
G01*
X215462874Y-149834000D02*
X215462874Y-148984000D01*
G75*
G02*
X215513874Y-148933000I51000J0D01*
G01*
X215793874Y-148933000D01*
G75*
G02*
X215844874Y-148984000I0J-51000D01*
G01*
X215844874Y-149834000D01*
G75*
G02*
X215793874Y-149885000I-51000J0D01*
G01*
X215513874Y-149885000D01*
G75*
G02*
X215462874Y-149834000I0J51000D01*
G01*
G37*
G36*
G01*
X215963000Y-149834000D02*
X215963000Y-148984000D01*
G75*
G02*
X216014000Y-148933000I51000J0D01*
G01*
X216294000Y-148933000D01*
G75*
G02*
X216345000Y-148984000I0J-51000D01*
G01*
X216345000Y-149834000D01*
G75*
G02*
X216294000Y-149885000I-51000J0D01*
G01*
X216014000Y-149885000D01*
G75*
G02*
X215963000Y-149834000I0J51000D01*
G01*
G37*
G36*
G01*
X216463126Y-149834000D02*
X216463126Y-148984000D01*
G75*
G02*
X216514126Y-148933000I51000J0D01*
G01*
X216794126Y-148933000D01*
G75*
G02*
X216845126Y-148984000I0J-51000D01*
G01*
X216845126Y-149834000D01*
G75*
G02*
X216794126Y-149885000I-51000J0D01*
G01*
X216514126Y-149885000D01*
G75*
G02*
X216463126Y-149834000I0J51000D01*
G01*
G37*
G36*
G01*
X216963252Y-149834000D02*
X216963252Y-148984000D01*
G75*
G02*
X217014252Y-148933000I51000J0D01*
G01*
X217294252Y-148933000D01*
G75*
G02*
X217345252Y-148984000I0J-51000D01*
G01*
X217345252Y-149834000D01*
G75*
G02*
X217294252Y-149885000I-51000J0D01*
G01*
X217014252Y-149885000D01*
G75*
G02*
X216963252Y-149834000I0J51000D01*
G01*
G37*
G36*
G01*
X218304000Y-150324999D02*
X217454000Y-150324999D01*
G75*
G02*
X217403000Y-150273999I0J51000D01*
G01*
X217403000Y-149993999D01*
G75*
G02*
X217454000Y-149942999I51000J0D01*
G01*
X218304000Y-149942999D01*
G75*
G02*
X218355000Y-149993999I0J-51000D01*
G01*
X218355000Y-150273999D01*
G75*
G02*
X218304000Y-150324999I-51000J0D01*
G01*
G37*
G36*
G01*
X218304000Y-150825001D02*
X217454000Y-150825001D01*
G75*
G02*
X217403000Y-150774001I0J51000D01*
G01*
X217403000Y-150494001D01*
G75*
G02*
X217454000Y-150443001I51000J0D01*
G01*
X218304000Y-150443001D01*
G75*
G02*
X218355000Y-150494001I0J-51000D01*
G01*
X218355000Y-150774001D01*
G75*
G02*
X218304000Y-150825001I-51000J0D01*
G01*
G37*
G36*
G01*
X218304000Y-151325000D02*
X217454000Y-151325000D01*
G75*
G02*
X217403000Y-151274000I0J51000D01*
G01*
X217403000Y-150994000D01*
G75*
G02*
X217454000Y-150943000I51000J0D01*
G01*
X218304000Y-150943000D01*
G75*
G02*
X218355000Y-150994000I0J-51000D01*
G01*
X218355000Y-151274000D01*
G75*
G02*
X218304000Y-151325000I-51000J0D01*
G01*
G37*
G36*
G01*
X218304000Y-151824999D02*
X217454000Y-151824999D01*
G75*
G02*
X217403000Y-151773999I0J51000D01*
G01*
X217403000Y-151493999D01*
G75*
G02*
X217454000Y-151442999I51000J0D01*
G01*
X218304000Y-151442999D01*
G75*
G02*
X218355000Y-151493999I0J-51000D01*
G01*
X218355000Y-151773999D01*
G75*
G02*
X218304000Y-151824999I-51000J0D01*
G01*
G37*
G36*
G01*
X218304000Y-152325001D02*
X217454000Y-152325001D01*
G75*
G02*
X217403000Y-152274001I0J51000D01*
G01*
X217403000Y-151994001D01*
G75*
G02*
X217454000Y-151943001I51000J0D01*
G01*
X218304000Y-151943001D01*
G75*
G02*
X218355000Y-151994001I0J-51000D01*
G01*
X218355000Y-152274001D01*
G75*
G02*
X218304000Y-152325001I-51000J0D01*
G01*
G37*
G36*
G01*
X216963252Y-153284000D02*
X216963252Y-152434000D01*
G75*
G02*
X217014252Y-152383000I51000J0D01*
G01*
X217294252Y-152383000D01*
G75*
G02*
X217345252Y-152434000I0J-51000D01*
G01*
X217345252Y-153284000D01*
G75*
G02*
X217294252Y-153335000I-51000J0D01*
G01*
X217014252Y-153335000D01*
G75*
G02*
X216963252Y-153284000I0J51000D01*
G01*
G37*
G36*
G01*
X216463126Y-153284000D02*
X216463126Y-152434000D01*
G75*
G02*
X216514126Y-152383000I51000J0D01*
G01*
X216794126Y-152383000D01*
G75*
G02*
X216845126Y-152434000I0J-51000D01*
G01*
X216845126Y-153284000D01*
G75*
G02*
X216794126Y-153335000I-51000J0D01*
G01*
X216514126Y-153335000D01*
G75*
G02*
X216463126Y-153284000I0J51000D01*
G01*
G37*
G36*
G01*
X215963000Y-153284000D02*
X215963000Y-152434000D01*
G75*
G02*
X216014000Y-152383000I51000J0D01*
G01*
X216294000Y-152383000D01*
G75*
G02*
X216345000Y-152434000I0J-51000D01*
G01*
X216345000Y-153284000D01*
G75*
G02*
X216294000Y-153335000I-51000J0D01*
G01*
X216014000Y-153335000D01*
G75*
G02*
X215963000Y-153284000I0J51000D01*
G01*
G37*
G36*
G01*
X215462874Y-153284000D02*
X215462874Y-152434000D01*
G75*
G02*
X215513874Y-152383000I51000J0D01*
G01*
X215793874Y-152383000D01*
G75*
G02*
X215844874Y-152434000I0J-51000D01*
G01*
X215844874Y-153284000D01*
G75*
G02*
X215793874Y-153335000I-51000J0D01*
G01*
X215513874Y-153335000D01*
G75*
G02*
X215462874Y-153284000I0J51000D01*
G01*
G37*
G36*
G01*
X214962748Y-153284000D02*
X214962748Y-152434000D01*
G75*
G02*
X215013748Y-152383000I51000J0D01*
G01*
X215293748Y-152383000D01*
G75*
G02*
X215344748Y-152434000I0J-51000D01*
G01*
X215344748Y-153284000D01*
G75*
G02*
X215293748Y-153335000I-51000J0D01*
G01*
X215013748Y-153335000D01*
G75*
G02*
X214962748Y-153284000I0J51000D01*
G01*
G37*
G36*
G01*
X214854000Y-152325001D02*
X214004000Y-152325001D01*
G75*
G02*
X213953000Y-152274001I0J51000D01*
G01*
X213953000Y-151994001D01*
G75*
G02*
X214004000Y-151943001I51000J0D01*
G01*
X214854000Y-151943001D01*
G75*
G02*
X214905000Y-151994001I0J-51000D01*
G01*
X214905000Y-152274001D01*
G75*
G02*
X214854000Y-152325001I-51000J0D01*
G01*
G37*
G36*
G01*
X214854000Y-151824999D02*
X214004000Y-151824999D01*
G75*
G02*
X213953000Y-151773999I0J51000D01*
G01*
X213953000Y-151493999D01*
G75*
G02*
X214004000Y-151442999I51000J0D01*
G01*
X214854000Y-151442999D01*
G75*
G02*
X214905000Y-151493999I0J-51000D01*
G01*
X214905000Y-151773999D01*
G75*
G02*
X214854000Y-151824999I-51000J0D01*
G01*
G37*
G36*
G01*
X214854000Y-151325000D02*
X214004000Y-151325000D01*
G75*
G02*
X213953000Y-151274000I0J51000D01*
G01*
X213953000Y-150994000D01*
G75*
G02*
X214004000Y-150943000I51000J0D01*
G01*
X214854000Y-150943000D01*
G75*
G02*
X214905000Y-150994000I0J-51000D01*
G01*
X214905000Y-151274000D01*
G75*
G02*
X214854000Y-151325000I-51000J0D01*
G01*
G37*
G36*
G01*
X214854000Y-150825001D02*
X214004000Y-150825001D01*
G75*
G02*
X213953000Y-150774001I0J51000D01*
G01*
X213953000Y-150494001D01*
G75*
G02*
X214004000Y-150443001I51000J0D01*
G01*
X214854000Y-150443001D01*
G75*
G02*
X214905000Y-150494001I0J-51000D01*
G01*
X214905000Y-150774001D01*
G75*
G02*
X214854000Y-150825001I-51000J0D01*
G01*
G37*
G36*
G01*
X214854000Y-150324999D02*
X214004000Y-150324999D01*
G75*
G02*
X213953000Y-150273999I0J51000D01*
G01*
X213953000Y-149993999D01*
G75*
G02*
X214004000Y-149942999I51000J0D01*
G01*
X214854000Y-149942999D01*
G75*
G02*
X214905000Y-149993999I0J-51000D01*
G01*
X214905000Y-150273999D01*
G75*
G02*
X214854000Y-150324999I-51000J0D01*
G01*
G37*
X216547700Y-109080300D03*
X216547700Y-109867700D03*
X215760300Y-109080300D03*
X215760300Y-109867700D03*
G36*
G01*
X215078000Y-110499000D02*
X215078000Y-108449000D01*
G75*
G02*
X215129000Y-108398000I51000J0D01*
G01*
X217179000Y-108398000D01*
G75*
G02*
X217230000Y-108449000I0J-51000D01*
G01*
X217230000Y-110499000D01*
G75*
G02*
X217179000Y-110550000I-51000J0D01*
G01*
X215129000Y-110550000D01*
G75*
G02*
X215078000Y-110499000I0J51000D01*
G01*
G37*
G36*
G01*
X214962748Y-108174000D02*
X214962748Y-107324000D01*
G75*
G02*
X215013748Y-107273000I51000J0D01*
G01*
X215293748Y-107273000D01*
G75*
G02*
X215344748Y-107324000I0J-51000D01*
G01*
X215344748Y-108174000D01*
G75*
G02*
X215293748Y-108225000I-51000J0D01*
G01*
X215013748Y-108225000D01*
G75*
G02*
X214962748Y-108174000I0J51000D01*
G01*
G37*
G36*
G01*
X215462874Y-108174000D02*
X215462874Y-107324000D01*
G75*
G02*
X215513874Y-107273000I51000J0D01*
G01*
X215793874Y-107273000D01*
G75*
G02*
X215844874Y-107324000I0J-51000D01*
G01*
X215844874Y-108174000D01*
G75*
G02*
X215793874Y-108225000I-51000J0D01*
G01*
X215513874Y-108225000D01*
G75*
G02*
X215462874Y-108174000I0J51000D01*
G01*
G37*
G36*
G01*
X215963000Y-108174000D02*
X215963000Y-107324000D01*
G75*
G02*
X216014000Y-107273000I51000J0D01*
G01*
X216294000Y-107273000D01*
G75*
G02*
X216345000Y-107324000I0J-51000D01*
G01*
X216345000Y-108174000D01*
G75*
G02*
X216294000Y-108225000I-51000J0D01*
G01*
X216014000Y-108225000D01*
G75*
G02*
X215963000Y-108174000I0J51000D01*
G01*
G37*
G36*
G01*
X216463126Y-108174000D02*
X216463126Y-107324000D01*
G75*
G02*
X216514126Y-107273000I51000J0D01*
G01*
X216794126Y-107273000D01*
G75*
G02*
X216845126Y-107324000I0J-51000D01*
G01*
X216845126Y-108174000D01*
G75*
G02*
X216794126Y-108225000I-51000J0D01*
G01*
X216514126Y-108225000D01*
G75*
G02*
X216463126Y-108174000I0J51000D01*
G01*
G37*
G36*
G01*
X216963252Y-108174000D02*
X216963252Y-107324000D01*
G75*
G02*
X217014252Y-107273000I51000J0D01*
G01*
X217294252Y-107273000D01*
G75*
G02*
X217345252Y-107324000I0J-51000D01*
G01*
X217345252Y-108174000D01*
G75*
G02*
X217294252Y-108225000I-51000J0D01*
G01*
X217014252Y-108225000D01*
G75*
G02*
X216963252Y-108174000I0J51000D01*
G01*
G37*
G36*
G01*
X218304000Y-108664999D02*
X217454000Y-108664999D01*
G75*
G02*
X217403000Y-108613999I0J51000D01*
G01*
X217403000Y-108333999D01*
G75*
G02*
X217454000Y-108282999I51000J0D01*
G01*
X218304000Y-108282999D01*
G75*
G02*
X218355000Y-108333999I0J-51000D01*
G01*
X218355000Y-108613999D01*
G75*
G02*
X218304000Y-108664999I-51000J0D01*
G01*
G37*
G36*
G01*
X218304000Y-109165001D02*
X217454000Y-109165001D01*
G75*
G02*
X217403000Y-109114001I0J51000D01*
G01*
X217403000Y-108834001D01*
G75*
G02*
X217454000Y-108783001I51000J0D01*
G01*
X218304000Y-108783001D01*
G75*
G02*
X218355000Y-108834001I0J-51000D01*
G01*
X218355000Y-109114001D01*
G75*
G02*
X218304000Y-109165001I-51000J0D01*
G01*
G37*
G36*
G01*
X218304000Y-109665000D02*
X217454000Y-109665000D01*
G75*
G02*
X217403000Y-109614000I0J51000D01*
G01*
X217403000Y-109334000D01*
G75*
G02*
X217454000Y-109283000I51000J0D01*
G01*
X218304000Y-109283000D01*
G75*
G02*
X218355000Y-109334000I0J-51000D01*
G01*
X218355000Y-109614000D01*
G75*
G02*
X218304000Y-109665000I-51000J0D01*
G01*
G37*
G36*
G01*
X218304000Y-110164999D02*
X217454000Y-110164999D01*
G75*
G02*
X217403000Y-110113999I0J51000D01*
G01*
X217403000Y-109833999D01*
G75*
G02*
X217454000Y-109782999I51000J0D01*
G01*
X218304000Y-109782999D01*
G75*
G02*
X218355000Y-109833999I0J-51000D01*
G01*
X218355000Y-110113999D01*
G75*
G02*
X218304000Y-110164999I-51000J0D01*
G01*
G37*
G36*
G01*
X218304000Y-110665001D02*
X217454000Y-110665001D01*
G75*
G02*
X217403000Y-110614001I0J51000D01*
G01*
X217403000Y-110334001D01*
G75*
G02*
X217454000Y-110283001I51000J0D01*
G01*
X218304000Y-110283001D01*
G75*
G02*
X218355000Y-110334001I0J-51000D01*
G01*
X218355000Y-110614001D01*
G75*
G02*
X218304000Y-110665001I-51000J0D01*
G01*
G37*
G36*
G01*
X216963252Y-111624000D02*
X216963252Y-110774000D01*
G75*
G02*
X217014252Y-110723000I51000J0D01*
G01*
X217294252Y-110723000D01*
G75*
G02*
X217345252Y-110774000I0J-51000D01*
G01*
X217345252Y-111624000D01*
G75*
G02*
X217294252Y-111675000I-51000J0D01*
G01*
X217014252Y-111675000D01*
G75*
G02*
X216963252Y-111624000I0J51000D01*
G01*
G37*
G36*
G01*
X216463126Y-111624000D02*
X216463126Y-110774000D01*
G75*
G02*
X216514126Y-110723000I51000J0D01*
G01*
X216794126Y-110723000D01*
G75*
G02*
X216845126Y-110774000I0J-51000D01*
G01*
X216845126Y-111624000D01*
G75*
G02*
X216794126Y-111675000I-51000J0D01*
G01*
X216514126Y-111675000D01*
G75*
G02*
X216463126Y-111624000I0J51000D01*
G01*
G37*
G36*
G01*
X215963000Y-111624000D02*
X215963000Y-110774000D01*
G75*
G02*
X216014000Y-110723000I51000J0D01*
G01*
X216294000Y-110723000D01*
G75*
G02*
X216345000Y-110774000I0J-51000D01*
G01*
X216345000Y-111624000D01*
G75*
G02*
X216294000Y-111675000I-51000J0D01*
G01*
X216014000Y-111675000D01*
G75*
G02*
X215963000Y-111624000I0J51000D01*
G01*
G37*
G36*
G01*
X215462874Y-111624000D02*
X215462874Y-110774000D01*
G75*
G02*
X215513874Y-110723000I51000J0D01*
G01*
X215793874Y-110723000D01*
G75*
G02*
X215844874Y-110774000I0J-51000D01*
G01*
X215844874Y-111624000D01*
G75*
G02*
X215793874Y-111675000I-51000J0D01*
G01*
X215513874Y-111675000D01*
G75*
G02*
X215462874Y-111624000I0J51000D01*
G01*
G37*
G36*
G01*
X214962748Y-111624000D02*
X214962748Y-110774000D01*
G75*
G02*
X215013748Y-110723000I51000J0D01*
G01*
X215293748Y-110723000D01*
G75*
G02*
X215344748Y-110774000I0J-51000D01*
G01*
X215344748Y-111624000D01*
G75*
G02*
X215293748Y-111675000I-51000J0D01*
G01*
X215013748Y-111675000D01*
G75*
G02*
X214962748Y-111624000I0J51000D01*
G01*
G37*
G36*
G01*
X214854000Y-110665001D02*
X214004000Y-110665001D01*
G75*
G02*
X213953000Y-110614001I0J51000D01*
G01*
X213953000Y-110334001D01*
G75*
G02*
X214004000Y-110283001I51000J0D01*
G01*
X214854000Y-110283001D01*
G75*
G02*
X214905000Y-110334001I0J-51000D01*
G01*
X214905000Y-110614001D01*
G75*
G02*
X214854000Y-110665001I-51000J0D01*
G01*
G37*
G36*
G01*
X214854000Y-110164999D02*
X214004000Y-110164999D01*
G75*
G02*
X213953000Y-110113999I0J51000D01*
G01*
X213953000Y-109833999D01*
G75*
G02*
X214004000Y-109782999I51000J0D01*
G01*
X214854000Y-109782999D01*
G75*
G02*
X214905000Y-109833999I0J-51000D01*
G01*
X214905000Y-110113999D01*
G75*
G02*
X214854000Y-110164999I-51000J0D01*
G01*
G37*
G36*
G01*
X214854000Y-109665000D02*
X214004000Y-109665000D01*
G75*
G02*
X213953000Y-109614000I0J51000D01*
G01*
X213953000Y-109334000D01*
G75*
G02*
X214004000Y-109283000I51000J0D01*
G01*
X214854000Y-109283000D01*
G75*
G02*
X214905000Y-109334000I0J-51000D01*
G01*
X214905000Y-109614000D01*
G75*
G02*
X214854000Y-109665000I-51000J0D01*
G01*
G37*
G36*
G01*
X214854000Y-109165001D02*
X214004000Y-109165001D01*
G75*
G02*
X213953000Y-109114001I0J51000D01*
G01*
X213953000Y-108834001D01*
G75*
G02*
X214004000Y-108783001I51000J0D01*
G01*
X214854000Y-108783001D01*
G75*
G02*
X214905000Y-108834001I0J-51000D01*
G01*
X214905000Y-109114001D01*
G75*
G02*
X214854000Y-109165001I-51000J0D01*
G01*
G37*
G36*
G01*
X214854000Y-108664999D02*
X214004000Y-108664999D01*
G75*
G02*
X213953000Y-108613999I0J51000D01*
G01*
X213953000Y-108333999D01*
G75*
G02*
X214004000Y-108282999I51000J0D01*
G01*
X214854000Y-108282999D01*
G75*
G02*
X214905000Y-108333999I0J-51000D01*
G01*
X214905000Y-108613999D01*
G75*
G02*
X214854000Y-108664999I-51000J0D01*
G01*
G37*
X175907700Y-150740300D03*
X175907700Y-151527700D03*
X175120300Y-150740300D03*
X175120300Y-151527700D03*
G36*
G01*
X174438000Y-152159000D02*
X174438000Y-150109000D01*
G75*
G02*
X174489000Y-150058000I51000J0D01*
G01*
X176539000Y-150058000D01*
G75*
G02*
X176590000Y-150109000I0J-51000D01*
G01*
X176590000Y-152159000D01*
G75*
G02*
X176539000Y-152210000I-51000J0D01*
G01*
X174489000Y-152210000D01*
G75*
G02*
X174438000Y-152159000I0J51000D01*
G01*
G37*
G36*
G01*
X174322748Y-149834000D02*
X174322748Y-148984000D01*
G75*
G02*
X174373748Y-148933000I51000J0D01*
G01*
X174653748Y-148933000D01*
G75*
G02*
X174704748Y-148984000I0J-51000D01*
G01*
X174704748Y-149834000D01*
G75*
G02*
X174653748Y-149885000I-51000J0D01*
G01*
X174373748Y-149885000D01*
G75*
G02*
X174322748Y-149834000I0J51000D01*
G01*
G37*
G36*
G01*
X174822874Y-149834000D02*
X174822874Y-148984000D01*
G75*
G02*
X174873874Y-148933000I51000J0D01*
G01*
X175153874Y-148933000D01*
G75*
G02*
X175204874Y-148984000I0J-51000D01*
G01*
X175204874Y-149834000D01*
G75*
G02*
X175153874Y-149885000I-51000J0D01*
G01*
X174873874Y-149885000D01*
G75*
G02*
X174822874Y-149834000I0J51000D01*
G01*
G37*
G36*
G01*
X175323000Y-149834000D02*
X175323000Y-148984000D01*
G75*
G02*
X175374000Y-148933000I51000J0D01*
G01*
X175654000Y-148933000D01*
G75*
G02*
X175705000Y-148984000I0J-51000D01*
G01*
X175705000Y-149834000D01*
G75*
G02*
X175654000Y-149885000I-51000J0D01*
G01*
X175374000Y-149885000D01*
G75*
G02*
X175323000Y-149834000I0J51000D01*
G01*
G37*
G36*
G01*
X175823126Y-149834000D02*
X175823126Y-148984000D01*
G75*
G02*
X175874126Y-148933000I51000J0D01*
G01*
X176154126Y-148933000D01*
G75*
G02*
X176205126Y-148984000I0J-51000D01*
G01*
X176205126Y-149834000D01*
G75*
G02*
X176154126Y-149885000I-51000J0D01*
G01*
X175874126Y-149885000D01*
G75*
G02*
X175823126Y-149834000I0J51000D01*
G01*
G37*
G36*
G01*
X176323252Y-149834000D02*
X176323252Y-148984000D01*
G75*
G02*
X176374252Y-148933000I51000J0D01*
G01*
X176654252Y-148933000D01*
G75*
G02*
X176705252Y-148984000I0J-51000D01*
G01*
X176705252Y-149834000D01*
G75*
G02*
X176654252Y-149885000I-51000J0D01*
G01*
X176374252Y-149885000D01*
G75*
G02*
X176323252Y-149834000I0J51000D01*
G01*
G37*
G36*
G01*
X177664000Y-150324999D02*
X176814000Y-150324999D01*
G75*
G02*
X176763000Y-150273999I0J51000D01*
G01*
X176763000Y-149993999D01*
G75*
G02*
X176814000Y-149942999I51000J0D01*
G01*
X177664000Y-149942999D01*
G75*
G02*
X177715000Y-149993999I0J-51000D01*
G01*
X177715000Y-150273999D01*
G75*
G02*
X177664000Y-150324999I-51000J0D01*
G01*
G37*
G36*
G01*
X177664000Y-150825001D02*
X176814000Y-150825001D01*
G75*
G02*
X176763000Y-150774001I0J51000D01*
G01*
X176763000Y-150494001D01*
G75*
G02*
X176814000Y-150443001I51000J0D01*
G01*
X177664000Y-150443001D01*
G75*
G02*
X177715000Y-150494001I0J-51000D01*
G01*
X177715000Y-150774001D01*
G75*
G02*
X177664000Y-150825001I-51000J0D01*
G01*
G37*
G36*
G01*
X177664000Y-151325000D02*
X176814000Y-151325000D01*
G75*
G02*
X176763000Y-151274000I0J51000D01*
G01*
X176763000Y-150994000D01*
G75*
G02*
X176814000Y-150943000I51000J0D01*
G01*
X177664000Y-150943000D01*
G75*
G02*
X177715000Y-150994000I0J-51000D01*
G01*
X177715000Y-151274000D01*
G75*
G02*
X177664000Y-151325000I-51000J0D01*
G01*
G37*
G36*
G01*
X177664000Y-151824999D02*
X176814000Y-151824999D01*
G75*
G02*
X176763000Y-151773999I0J51000D01*
G01*
X176763000Y-151493999D01*
G75*
G02*
X176814000Y-151442999I51000J0D01*
G01*
X177664000Y-151442999D01*
G75*
G02*
X177715000Y-151493999I0J-51000D01*
G01*
X177715000Y-151773999D01*
G75*
G02*
X177664000Y-151824999I-51000J0D01*
G01*
G37*
G36*
G01*
X177664000Y-152325001D02*
X176814000Y-152325001D01*
G75*
G02*
X176763000Y-152274001I0J51000D01*
G01*
X176763000Y-151994001D01*
G75*
G02*
X176814000Y-151943001I51000J0D01*
G01*
X177664000Y-151943001D01*
G75*
G02*
X177715000Y-151994001I0J-51000D01*
G01*
X177715000Y-152274001D01*
G75*
G02*
X177664000Y-152325001I-51000J0D01*
G01*
G37*
G36*
G01*
X176323252Y-153284000D02*
X176323252Y-152434000D01*
G75*
G02*
X176374252Y-152383000I51000J0D01*
G01*
X176654252Y-152383000D01*
G75*
G02*
X176705252Y-152434000I0J-51000D01*
G01*
X176705252Y-153284000D01*
G75*
G02*
X176654252Y-153335000I-51000J0D01*
G01*
X176374252Y-153335000D01*
G75*
G02*
X176323252Y-153284000I0J51000D01*
G01*
G37*
G36*
G01*
X175823126Y-153284000D02*
X175823126Y-152434000D01*
G75*
G02*
X175874126Y-152383000I51000J0D01*
G01*
X176154126Y-152383000D01*
G75*
G02*
X176205126Y-152434000I0J-51000D01*
G01*
X176205126Y-153284000D01*
G75*
G02*
X176154126Y-153335000I-51000J0D01*
G01*
X175874126Y-153335000D01*
G75*
G02*
X175823126Y-153284000I0J51000D01*
G01*
G37*
G36*
G01*
X175323000Y-153284000D02*
X175323000Y-152434000D01*
G75*
G02*
X175374000Y-152383000I51000J0D01*
G01*
X175654000Y-152383000D01*
G75*
G02*
X175705000Y-152434000I0J-51000D01*
G01*
X175705000Y-153284000D01*
G75*
G02*
X175654000Y-153335000I-51000J0D01*
G01*
X175374000Y-153335000D01*
G75*
G02*
X175323000Y-153284000I0J51000D01*
G01*
G37*
G36*
G01*
X174822874Y-153284000D02*
X174822874Y-152434000D01*
G75*
G02*
X174873874Y-152383000I51000J0D01*
G01*
X175153874Y-152383000D01*
G75*
G02*
X175204874Y-152434000I0J-51000D01*
G01*
X175204874Y-153284000D01*
G75*
G02*
X175153874Y-153335000I-51000J0D01*
G01*
X174873874Y-153335000D01*
G75*
G02*
X174822874Y-153284000I0J51000D01*
G01*
G37*
G36*
G01*
X174322748Y-153284000D02*
X174322748Y-152434000D01*
G75*
G02*
X174373748Y-152383000I51000J0D01*
G01*
X174653748Y-152383000D01*
G75*
G02*
X174704748Y-152434000I0J-51000D01*
G01*
X174704748Y-153284000D01*
G75*
G02*
X174653748Y-153335000I-51000J0D01*
G01*
X174373748Y-153335000D01*
G75*
G02*
X174322748Y-153284000I0J51000D01*
G01*
G37*
G36*
G01*
X174214000Y-152325001D02*
X173364000Y-152325001D01*
G75*
G02*
X173313000Y-152274001I0J51000D01*
G01*
X173313000Y-151994001D01*
G75*
G02*
X173364000Y-151943001I51000J0D01*
G01*
X174214000Y-151943001D01*
G75*
G02*
X174265000Y-151994001I0J-51000D01*
G01*
X174265000Y-152274001D01*
G75*
G02*
X174214000Y-152325001I-51000J0D01*
G01*
G37*
G36*
G01*
X174214000Y-151824999D02*
X173364000Y-151824999D01*
G75*
G02*
X173313000Y-151773999I0J51000D01*
G01*
X173313000Y-151493999D01*
G75*
G02*
X173364000Y-151442999I51000J0D01*
G01*
X174214000Y-151442999D01*
G75*
G02*
X174265000Y-151493999I0J-51000D01*
G01*
X174265000Y-151773999D01*
G75*
G02*
X174214000Y-151824999I-51000J0D01*
G01*
G37*
G36*
G01*
X174214000Y-151325000D02*
X173364000Y-151325000D01*
G75*
G02*
X173313000Y-151274000I0J51000D01*
G01*
X173313000Y-150994000D01*
G75*
G02*
X173364000Y-150943000I51000J0D01*
G01*
X174214000Y-150943000D01*
G75*
G02*
X174265000Y-150994000I0J-51000D01*
G01*
X174265000Y-151274000D01*
G75*
G02*
X174214000Y-151325000I-51000J0D01*
G01*
G37*
G36*
G01*
X174214000Y-150825001D02*
X173364000Y-150825001D01*
G75*
G02*
X173313000Y-150774001I0J51000D01*
G01*
X173313000Y-150494001D01*
G75*
G02*
X173364000Y-150443001I51000J0D01*
G01*
X174214000Y-150443001D01*
G75*
G02*
X174265000Y-150494001I0J-51000D01*
G01*
X174265000Y-150774001D01*
G75*
G02*
X174214000Y-150825001I-51000J0D01*
G01*
G37*
G36*
G01*
X174214000Y-150324999D02*
X173364000Y-150324999D01*
G75*
G02*
X173313000Y-150273999I0J51000D01*
G01*
X173313000Y-149993999D01*
G75*
G02*
X173364000Y-149942999I51000J0D01*
G01*
X174214000Y-149942999D01*
G75*
G02*
X174265000Y-149993999I0J-51000D01*
G01*
X174265000Y-150273999D01*
G75*
G02*
X174214000Y-150324999I-51000J0D01*
G01*
G37*
G36*
G01*
X220774000Y-160246125D02*
X220774000Y-159293875D01*
G75*
G02*
X221048875Y-159019000I274875J0D01*
G01*
X221626125Y-159019000D01*
G75*
G02*
X221901000Y-159293875I0J-274875D01*
G01*
X221901000Y-160246125D01*
G75*
G02*
X221626125Y-160521000I-274875J0D01*
G01*
X221048875Y-160521000D01*
G75*
G02*
X220774000Y-160246125I0J274875D01*
G01*
G37*
G36*
G01*
X222599000Y-160246125D02*
X222599000Y-159293875D01*
G75*
G02*
X222873875Y-159019000I274875J0D01*
G01*
X223451125Y-159019000D01*
G75*
G02*
X223726000Y-159293875I0J-274875D01*
G01*
X223726000Y-160246125D01*
G75*
G02*
X223451125Y-160521000I-274875J0D01*
G01*
X222873875Y-160521000D01*
G75*
G02*
X222599000Y-160246125I0J274875D01*
G01*
G37*
G36*
G01*
X220774000Y-118586125D02*
X220774000Y-117633875D01*
G75*
G02*
X221048875Y-117359000I274875J0D01*
G01*
X221626125Y-117359000D01*
G75*
G02*
X221901000Y-117633875I0J-274875D01*
G01*
X221901000Y-118586125D01*
G75*
G02*
X221626125Y-118861000I-274875J0D01*
G01*
X221048875Y-118861000D01*
G75*
G02*
X220774000Y-118586125I0J274875D01*
G01*
G37*
G36*
G01*
X222599000Y-118586125D02*
X222599000Y-117633875D01*
G75*
G02*
X222873875Y-117359000I274875J0D01*
G01*
X223451125Y-117359000D01*
G75*
G02*
X223726000Y-117633875I0J-274875D01*
G01*
X223726000Y-118586125D01*
G75*
G02*
X223451125Y-118861000I-274875J0D01*
G01*
X222873875Y-118861000D01*
G75*
G02*
X222599000Y-118586125I0J274875D01*
G01*
G37*
G36*
G01*
X180134000Y-160246125D02*
X180134000Y-159293875D01*
G75*
G02*
X180408875Y-159019000I274875J0D01*
G01*
X180986125Y-159019000D01*
G75*
G02*
X181261000Y-159293875I0J-274875D01*
G01*
X181261000Y-160246125D01*
G75*
G02*
X180986125Y-160521000I-274875J0D01*
G01*
X180408875Y-160521000D01*
G75*
G02*
X180134000Y-160246125I0J274875D01*
G01*
G37*
G36*
G01*
X181959000Y-160246125D02*
X181959000Y-159293875D01*
G75*
G02*
X182233875Y-159019000I274875J0D01*
G01*
X182811125Y-159019000D01*
G75*
G02*
X183086000Y-159293875I0J-274875D01*
G01*
X183086000Y-160246125D01*
G75*
G02*
X182811125Y-160521000I-274875J0D01*
G01*
X182233875Y-160521000D01*
G75*
G02*
X181959000Y-160246125I0J274875D01*
G01*
G37*
G36*
G01*
X213582125Y-146577500D02*
X212629875Y-146577500D01*
G75*
G02*
X212355000Y-146302625I0J274875D01*
G01*
X212355000Y-145725375D01*
G75*
G02*
X212629875Y-145450500I274875J0D01*
G01*
X213582125Y-145450500D01*
G75*
G02*
X213857000Y-145725375I0J-274875D01*
G01*
X213857000Y-146302625D01*
G75*
G02*
X213582125Y-146577500I-274875J0D01*
G01*
G37*
G36*
G01*
X213582125Y-144752500D02*
X212629875Y-144752500D01*
G75*
G02*
X212355000Y-144477625I0J274875D01*
G01*
X212355000Y-143900375D01*
G75*
G02*
X212629875Y-143625500I274875J0D01*
G01*
X213582125Y-143625500D01*
G75*
G02*
X213857000Y-143900375I0J-274875D01*
G01*
X213857000Y-144477625D01*
G75*
G02*
X213582125Y-144752500I-274875J0D01*
G01*
G37*
G36*
G01*
X213582125Y-104917500D02*
X212629875Y-104917500D01*
G75*
G02*
X212355000Y-104642625I0J274875D01*
G01*
X212355000Y-104065375D01*
G75*
G02*
X212629875Y-103790500I274875J0D01*
G01*
X213582125Y-103790500D01*
G75*
G02*
X213857000Y-104065375I0J-274875D01*
G01*
X213857000Y-104642625D01*
G75*
G02*
X213582125Y-104917500I-274875J0D01*
G01*
G37*
G36*
G01*
X213582125Y-103092500D02*
X212629875Y-103092500D01*
G75*
G02*
X212355000Y-102817625I0J274875D01*
G01*
X212355000Y-102240375D01*
G75*
G02*
X212629875Y-101965500I274875J0D01*
G01*
X213582125Y-101965500D01*
G75*
G02*
X213857000Y-102240375I0J-274875D01*
G01*
X213857000Y-102817625D01*
G75*
G02*
X213582125Y-103092500I-274875J0D01*
G01*
G37*
G36*
G01*
X172942125Y-146577500D02*
X171989875Y-146577500D01*
G75*
G02*
X171715000Y-146302625I0J274875D01*
G01*
X171715000Y-145725375D01*
G75*
G02*
X171989875Y-145450500I274875J0D01*
G01*
X172942125Y-145450500D01*
G75*
G02*
X173217000Y-145725375I0J-274875D01*
G01*
X173217000Y-146302625D01*
G75*
G02*
X172942125Y-146577500I-274875J0D01*
G01*
G37*
G36*
G01*
X172942125Y-144752500D02*
X171989875Y-144752500D01*
G75*
G02*
X171715000Y-144477625I0J274875D01*
G01*
X171715000Y-143900375D01*
G75*
G02*
X171989875Y-143625500I274875J0D01*
G01*
X172942125Y-143625500D01*
G75*
G02*
X173217000Y-143900375I0J-274875D01*
G01*
X173217000Y-144477625D01*
G75*
G02*
X172942125Y-144752500I-274875J0D01*
G01*
G37*
G36*
G01*
X219604500Y-143046500D02*
X218804500Y-143046500D01*
G75*
G02*
X218753500Y-142995500I0J51000D01*
G01*
X218753500Y-142095500D01*
G75*
G02*
X218804500Y-142044500I51000J0D01*
G01*
X219604500Y-142044500D01*
G75*
G02*
X219655500Y-142095500I0J-51000D01*
G01*
X219655500Y-142995500D01*
G75*
G02*
X219604500Y-143046500I-51000J0D01*
G01*
G37*
G36*
G01*
X221504500Y-143046500D02*
X220704500Y-143046500D01*
G75*
G02*
X220653500Y-142995500I0J51000D01*
G01*
X220653500Y-142095500D01*
G75*
G02*
X220704500Y-142044500I51000J0D01*
G01*
X221504500Y-142044500D01*
G75*
G02*
X221555500Y-142095500I0J-51000D01*
G01*
X221555500Y-142995500D01*
G75*
G02*
X221504500Y-143046500I-51000J0D01*
G01*
G37*
G36*
G01*
X220554500Y-141046500D02*
X219754500Y-141046500D01*
G75*
G02*
X219703500Y-140995500I0J51000D01*
G01*
X219703500Y-140095500D01*
G75*
G02*
X219754500Y-140044500I51000J0D01*
G01*
X220554500Y-140044500D01*
G75*
G02*
X220605500Y-140095500I0J-51000D01*
G01*
X220605500Y-140995500D01*
G75*
G02*
X220554500Y-141046500I-51000J0D01*
G01*
G37*
G36*
G01*
X219604500Y-101386500D02*
X218804500Y-101386500D01*
G75*
G02*
X218753500Y-101335500I0J51000D01*
G01*
X218753500Y-100435500D01*
G75*
G02*
X218804500Y-100384500I51000J0D01*
G01*
X219604500Y-100384500D01*
G75*
G02*
X219655500Y-100435500I0J-51000D01*
G01*
X219655500Y-101335500D01*
G75*
G02*
X219604500Y-101386500I-51000J0D01*
G01*
G37*
G36*
G01*
X221504500Y-101386500D02*
X220704500Y-101386500D01*
G75*
G02*
X220653500Y-101335500I0J51000D01*
G01*
X220653500Y-100435500D01*
G75*
G02*
X220704500Y-100384500I51000J0D01*
G01*
X221504500Y-100384500D01*
G75*
G02*
X221555500Y-100435500I0J-51000D01*
G01*
X221555500Y-101335500D01*
G75*
G02*
X221504500Y-101386500I-51000J0D01*
G01*
G37*
G36*
G01*
X220554500Y-99386500D02*
X219754500Y-99386500D01*
G75*
G02*
X219703500Y-99335500I0J51000D01*
G01*
X219703500Y-98435500D01*
G75*
G02*
X219754500Y-98384500I51000J0D01*
G01*
X220554500Y-98384500D01*
G75*
G02*
X220605500Y-98435500I0J-51000D01*
G01*
X220605500Y-99335500D01*
G75*
G02*
X220554500Y-99386500I-51000J0D01*
G01*
G37*
G36*
G01*
X178964500Y-143046500D02*
X178164500Y-143046500D01*
G75*
G02*
X178113500Y-142995500I0J51000D01*
G01*
X178113500Y-142095500D01*
G75*
G02*
X178164500Y-142044500I51000J0D01*
G01*
X178964500Y-142044500D01*
G75*
G02*
X179015500Y-142095500I0J-51000D01*
G01*
X179015500Y-142995500D01*
G75*
G02*
X178964500Y-143046500I-51000J0D01*
G01*
G37*
G36*
G01*
X180864500Y-143046500D02*
X180064500Y-143046500D01*
G75*
G02*
X180013500Y-142995500I0J51000D01*
G01*
X180013500Y-142095500D01*
G75*
G02*
X180064500Y-142044500I51000J0D01*
G01*
X180864500Y-142044500D01*
G75*
G02*
X180915500Y-142095500I0J-51000D01*
G01*
X180915500Y-142995500D01*
G75*
G02*
X180864500Y-143046500I-51000J0D01*
G01*
G37*
G36*
G01*
X179914500Y-141046500D02*
X179114500Y-141046500D01*
G75*
G02*
X179063500Y-140995500I0J51000D01*
G01*
X179063500Y-140095500D01*
G75*
G02*
X179114500Y-140044500I51000J0D01*
G01*
X179914500Y-140044500D01*
G75*
G02*
X179965500Y-140095500I0J-51000D01*
G01*
X179965500Y-140995500D01*
G75*
G02*
X179914500Y-141046500I-51000J0D01*
G01*
G37*
G36*
G01*
X208883000Y-158087125D02*
X208883000Y-157134875D01*
G75*
G02*
X209157875Y-156860000I274875J0D01*
G01*
X209735125Y-156860000D01*
G75*
G02*
X210010000Y-157134875I0J-274875D01*
G01*
X210010000Y-158087125D01*
G75*
G02*
X209735125Y-158362000I-274875J0D01*
G01*
X209157875Y-158362000D01*
G75*
G02*
X208883000Y-158087125I0J274875D01*
G01*
G37*
G36*
G01*
X207058000Y-158087125D02*
X207058000Y-157134875D01*
G75*
G02*
X207332875Y-156860000I274875J0D01*
G01*
X207910125Y-156860000D01*
G75*
G02*
X208185000Y-157134875I0J-274875D01*
G01*
X208185000Y-158087125D01*
G75*
G02*
X207910125Y-158362000I-274875J0D01*
G01*
X207332875Y-158362000D01*
G75*
G02*
X207058000Y-158087125I0J274875D01*
G01*
G37*
G36*
G01*
X208883000Y-116427125D02*
X208883000Y-115474875D01*
G75*
G02*
X209157875Y-115200000I274875J0D01*
G01*
X209735125Y-115200000D01*
G75*
G02*
X210010000Y-115474875I0J-274875D01*
G01*
X210010000Y-116427125D01*
G75*
G02*
X209735125Y-116702000I-274875J0D01*
G01*
X209157875Y-116702000D01*
G75*
G02*
X208883000Y-116427125I0J274875D01*
G01*
G37*
G36*
G01*
X207058000Y-116427125D02*
X207058000Y-115474875D01*
G75*
G02*
X207332875Y-115200000I274875J0D01*
G01*
X207910125Y-115200000D01*
G75*
G02*
X208185000Y-115474875I0J-274875D01*
G01*
X208185000Y-116427125D01*
G75*
G02*
X207910125Y-116702000I-274875J0D01*
G01*
X207332875Y-116702000D01*
G75*
G02*
X207058000Y-116427125I0J274875D01*
G01*
G37*
G36*
G01*
X168243000Y-158087125D02*
X168243000Y-157134875D01*
G75*
G02*
X168517875Y-156860000I274875J0D01*
G01*
X169095125Y-156860000D01*
G75*
G02*
X169370000Y-157134875I0J-274875D01*
G01*
X169370000Y-158087125D01*
G75*
G02*
X169095125Y-158362000I-274875J0D01*
G01*
X168517875Y-158362000D01*
G75*
G02*
X168243000Y-158087125I0J274875D01*
G01*
G37*
G36*
G01*
X166418000Y-158087125D02*
X166418000Y-157134875D01*
G75*
G02*
X166692875Y-156860000I274875J0D01*
G01*
X167270125Y-156860000D01*
G75*
G02*
X167545000Y-157134875I0J-274875D01*
G01*
X167545000Y-158087125D01*
G75*
G02*
X167270125Y-158362000I-274875J0D01*
G01*
X166692875Y-158362000D01*
G75*
G02*
X166418000Y-158087125I0J274875D01*
G01*
G37*
G36*
G01*
X221646625Y-146641000D02*
X220694375Y-146641000D01*
G75*
G02*
X220419500Y-146366125I0J274875D01*
G01*
X220419500Y-145788875D01*
G75*
G02*
X220694375Y-145514000I274875J0D01*
G01*
X221646625Y-145514000D01*
G75*
G02*
X221921500Y-145788875I0J-274875D01*
G01*
X221921500Y-146366125D01*
G75*
G02*
X221646625Y-146641000I-274875J0D01*
G01*
G37*
G36*
G01*
X221646625Y-144816000D02*
X220694375Y-144816000D01*
G75*
G02*
X220419500Y-144541125I0J274875D01*
G01*
X220419500Y-143963875D01*
G75*
G02*
X220694375Y-143689000I274875J0D01*
G01*
X221646625Y-143689000D01*
G75*
G02*
X221921500Y-143963875I0J-274875D01*
G01*
X221921500Y-144541125D01*
G75*
G02*
X221646625Y-144816000I-274875J0D01*
G01*
G37*
G36*
G01*
X221646625Y-104981000D02*
X220694375Y-104981000D01*
G75*
G02*
X220419500Y-104706125I0J274875D01*
G01*
X220419500Y-104128875D01*
G75*
G02*
X220694375Y-103854000I274875J0D01*
G01*
X221646625Y-103854000D01*
G75*
G02*
X221921500Y-104128875I0J-274875D01*
G01*
X221921500Y-104706125D01*
G75*
G02*
X221646625Y-104981000I-274875J0D01*
G01*
G37*
G36*
G01*
X221646625Y-103156000D02*
X220694375Y-103156000D01*
G75*
G02*
X220419500Y-102881125I0J274875D01*
G01*
X220419500Y-102303875D01*
G75*
G02*
X220694375Y-102029000I274875J0D01*
G01*
X221646625Y-102029000D01*
G75*
G02*
X221921500Y-102303875I0J-274875D01*
G01*
X221921500Y-102881125D01*
G75*
G02*
X221646625Y-103156000I-274875J0D01*
G01*
G37*
G36*
G01*
X181006625Y-146641000D02*
X180054375Y-146641000D01*
G75*
G02*
X179779500Y-146366125I0J274875D01*
G01*
X179779500Y-145788875D01*
G75*
G02*
X180054375Y-145514000I274875J0D01*
G01*
X181006625Y-145514000D01*
G75*
G02*
X181281500Y-145788875I0J-274875D01*
G01*
X181281500Y-146366125D01*
G75*
G02*
X181006625Y-146641000I-274875J0D01*
G01*
G37*
G36*
G01*
X181006625Y-144816000D02*
X180054375Y-144816000D01*
G75*
G02*
X179779500Y-144541125I0J274875D01*
G01*
X179779500Y-143963875D01*
G75*
G02*
X180054375Y-143689000I274875J0D01*
G01*
X181006625Y-143689000D01*
G75*
G02*
X181281500Y-143963875I0J-274875D01*
G01*
X181281500Y-144541125D01*
G75*
G02*
X181006625Y-144816000I-274875J0D01*
G01*
G37*
G36*
G01*
X214103960Y-160274065D02*
X214103960Y-159321815D01*
G75*
G02*
X214378835Y-159046940I274875J0D01*
G01*
X214956085Y-159046940D01*
G75*
G02*
X215230960Y-159321815I0J-274875D01*
G01*
X215230960Y-160274065D01*
G75*
G02*
X214956085Y-160548940I-274875J0D01*
G01*
X214378835Y-160548940D01*
G75*
G02*
X214103960Y-160274065I0J274875D01*
G01*
G37*
G36*
G01*
X215928960Y-160274065D02*
X215928960Y-159321815D01*
G75*
G02*
X216203835Y-159046940I274875J0D01*
G01*
X216781085Y-159046940D01*
G75*
G02*
X217055960Y-159321815I0J-274875D01*
G01*
X217055960Y-160274065D01*
G75*
G02*
X216781085Y-160548940I-274875J0D01*
G01*
X216203835Y-160548940D01*
G75*
G02*
X215928960Y-160274065I0J274875D01*
G01*
G37*
G36*
G01*
X214103960Y-118614065D02*
X214103960Y-117661815D01*
G75*
G02*
X214378835Y-117386940I274875J0D01*
G01*
X214956085Y-117386940D01*
G75*
G02*
X215230960Y-117661815I0J-274875D01*
G01*
X215230960Y-118614065D01*
G75*
G02*
X214956085Y-118888940I-274875J0D01*
G01*
X214378835Y-118888940D01*
G75*
G02*
X214103960Y-118614065I0J274875D01*
G01*
G37*
G36*
G01*
X215928960Y-118614065D02*
X215928960Y-117661815D01*
G75*
G02*
X216203835Y-117386940I274875J0D01*
G01*
X216781085Y-117386940D01*
G75*
G02*
X217055960Y-117661815I0J-274875D01*
G01*
X217055960Y-118614065D01*
G75*
G02*
X216781085Y-118888940I-274875J0D01*
G01*
X216203835Y-118888940D01*
G75*
G02*
X215928960Y-118614065I0J274875D01*
G01*
G37*
G36*
G01*
X173463960Y-160274065D02*
X173463960Y-159321815D01*
G75*
G02*
X173738835Y-159046940I274875J0D01*
G01*
X174316085Y-159046940D01*
G75*
G02*
X174590960Y-159321815I0J-274875D01*
G01*
X174590960Y-160274065D01*
G75*
G02*
X174316085Y-160548940I-274875J0D01*
G01*
X173738835Y-160548940D01*
G75*
G02*
X173463960Y-160274065I0J274875D01*
G01*
G37*
G36*
G01*
X175288960Y-160274065D02*
X175288960Y-159321815D01*
G75*
G02*
X175563835Y-159046940I274875J0D01*
G01*
X176141085Y-159046940D01*
G75*
G02*
X176415960Y-159321815I0J-274875D01*
G01*
X176415960Y-160274065D01*
G75*
G02*
X176141085Y-160548940I-274875J0D01*
G01*
X175563835Y-160548940D01*
G75*
G02*
X175288960Y-160274065I0J274875D01*
G01*
G37*
G36*
G01*
X224948875Y-147118000D02*
X225901125Y-147118000D01*
G75*
G02*
X226176000Y-147392875I0J-274875D01*
G01*
X226176000Y-147970125D01*
G75*
G02*
X225901125Y-148245000I-274875J0D01*
G01*
X224948875Y-148245000D01*
G75*
G02*
X224674000Y-147970125I0J274875D01*
G01*
X224674000Y-147392875D01*
G75*
G02*
X224948875Y-147118000I274875J0D01*
G01*
G37*
G36*
G01*
X224948875Y-148943000D02*
X225901125Y-148943000D01*
G75*
G02*
X226176000Y-149217875I0J-274875D01*
G01*
X226176000Y-149795125D01*
G75*
G02*
X225901125Y-150070000I-274875J0D01*
G01*
X224948875Y-150070000D01*
G75*
G02*
X224674000Y-149795125I0J274875D01*
G01*
X224674000Y-149217875D01*
G75*
G02*
X224948875Y-148943000I274875J0D01*
G01*
G37*
G36*
G01*
X224948875Y-105458000D02*
X225901125Y-105458000D01*
G75*
G02*
X226176000Y-105732875I0J-274875D01*
G01*
X226176000Y-106310125D01*
G75*
G02*
X225901125Y-106585000I-274875J0D01*
G01*
X224948875Y-106585000D01*
G75*
G02*
X224674000Y-106310125I0J274875D01*
G01*
X224674000Y-105732875D01*
G75*
G02*
X224948875Y-105458000I274875J0D01*
G01*
G37*
G36*
G01*
X224948875Y-107283000D02*
X225901125Y-107283000D01*
G75*
G02*
X226176000Y-107557875I0J-274875D01*
G01*
X226176000Y-108135125D01*
G75*
G02*
X225901125Y-108410000I-274875J0D01*
G01*
X224948875Y-108410000D01*
G75*
G02*
X224674000Y-108135125I0J274875D01*
G01*
X224674000Y-107557875D01*
G75*
G02*
X224948875Y-107283000I274875J0D01*
G01*
G37*
G36*
G01*
X184308875Y-147118000D02*
X185261125Y-147118000D01*
G75*
G02*
X185536000Y-147392875I0J-274875D01*
G01*
X185536000Y-147970125D01*
G75*
G02*
X185261125Y-148245000I-274875J0D01*
G01*
X184308875Y-148245000D01*
G75*
G02*
X184034000Y-147970125I0J274875D01*
G01*
X184034000Y-147392875D01*
G75*
G02*
X184308875Y-147118000I274875J0D01*
G01*
G37*
G36*
G01*
X184308875Y-148943000D02*
X185261125Y-148943000D01*
G75*
G02*
X185536000Y-149217875I0J-274875D01*
G01*
X185536000Y-149795125D01*
G75*
G02*
X185261125Y-150070000I-274875J0D01*
G01*
X184308875Y-150070000D01*
G75*
G02*
X184034000Y-149795125I0J274875D01*
G01*
X184034000Y-149217875D01*
G75*
G02*
X184308875Y-148943000I274875J0D01*
G01*
G37*
G36*
G01*
X210597875Y-143625500D02*
X211550125Y-143625500D01*
G75*
G02*
X211825000Y-143900375I0J-274875D01*
G01*
X211825000Y-144477625D01*
G75*
G02*
X211550125Y-144752500I-274875J0D01*
G01*
X210597875Y-144752500D01*
G75*
G02*
X210323000Y-144477625I0J274875D01*
G01*
X210323000Y-143900375D01*
G75*
G02*
X210597875Y-143625500I274875J0D01*
G01*
G37*
G36*
G01*
X210597875Y-145450500D02*
X211550125Y-145450500D01*
G75*
G02*
X211825000Y-145725375I0J-274875D01*
G01*
X211825000Y-146302625D01*
G75*
G02*
X211550125Y-146577500I-274875J0D01*
G01*
X210597875Y-146577500D01*
G75*
G02*
X210323000Y-146302625I0J274875D01*
G01*
X210323000Y-145725375D01*
G75*
G02*
X210597875Y-145450500I274875J0D01*
G01*
G37*
G36*
G01*
X210597875Y-101965500D02*
X211550125Y-101965500D01*
G75*
G02*
X211825000Y-102240375I0J-274875D01*
G01*
X211825000Y-102817625D01*
G75*
G02*
X211550125Y-103092500I-274875J0D01*
G01*
X210597875Y-103092500D01*
G75*
G02*
X210323000Y-102817625I0J274875D01*
G01*
X210323000Y-102240375D01*
G75*
G02*
X210597875Y-101965500I274875J0D01*
G01*
G37*
G36*
G01*
X210597875Y-103790500D02*
X211550125Y-103790500D01*
G75*
G02*
X211825000Y-104065375I0J-274875D01*
G01*
X211825000Y-104642625D01*
G75*
G02*
X211550125Y-104917500I-274875J0D01*
G01*
X210597875Y-104917500D01*
G75*
G02*
X210323000Y-104642625I0J274875D01*
G01*
X210323000Y-104065375D01*
G75*
G02*
X210597875Y-103790500I274875J0D01*
G01*
G37*
G36*
G01*
X169957875Y-143625500D02*
X170910125Y-143625500D01*
G75*
G02*
X171185000Y-143900375I0J-274875D01*
G01*
X171185000Y-144477625D01*
G75*
G02*
X170910125Y-144752500I-274875J0D01*
G01*
X169957875Y-144752500D01*
G75*
G02*
X169683000Y-144477625I0J274875D01*
G01*
X169683000Y-143900375D01*
G75*
G02*
X169957875Y-143625500I274875J0D01*
G01*
G37*
G36*
G01*
X169957875Y-145450500D02*
X170910125Y-145450500D01*
G75*
G02*
X171185000Y-145725375I0J-274875D01*
G01*
X171185000Y-146302625D01*
G75*
G02*
X170910125Y-146577500I-274875J0D01*
G01*
X169957875Y-146577500D01*
G75*
G02*
X169683000Y-146302625I0J274875D01*
G01*
X169683000Y-145725375D01*
G75*
G02*
X169957875Y-145450500I274875J0D01*
G01*
G37*
G36*
G01*
X222952800Y-143812800D02*
X223553800Y-143812800D01*
G75*
G02*
X223779300Y-144038300I0J-225500D01*
G01*
X223779300Y-144489300D01*
G75*
G02*
X223553800Y-144714800I-225500J0D01*
G01*
X222952800Y-144714800D01*
G75*
G02*
X222727300Y-144489300I0J225500D01*
G01*
X222727300Y-144038300D01*
G75*
G02*
X222952800Y-143812800I225500J0D01*
G01*
G37*
G36*
G01*
X222952800Y-145462800D02*
X223553800Y-145462800D01*
G75*
G02*
X223779300Y-145688300I0J-225500D01*
G01*
X223779300Y-146139300D01*
G75*
G02*
X223553800Y-146364800I-225500J0D01*
G01*
X222952800Y-146364800D01*
G75*
G02*
X222727300Y-146139300I0J225500D01*
G01*
X222727300Y-145688300D01*
G75*
G02*
X222952800Y-145462800I225500J0D01*
G01*
G37*
G36*
G01*
X222952800Y-102152800D02*
X223553800Y-102152800D01*
G75*
G02*
X223779300Y-102378300I0J-225500D01*
G01*
X223779300Y-102829300D01*
G75*
G02*
X223553800Y-103054800I-225500J0D01*
G01*
X222952800Y-103054800D01*
G75*
G02*
X222727300Y-102829300I0J225500D01*
G01*
X222727300Y-102378300D01*
G75*
G02*
X222952800Y-102152800I225500J0D01*
G01*
G37*
G36*
G01*
X222952800Y-103802800D02*
X223553800Y-103802800D01*
G75*
G02*
X223779300Y-104028300I0J-225500D01*
G01*
X223779300Y-104479300D01*
G75*
G02*
X223553800Y-104704800I-225500J0D01*
G01*
X222952800Y-104704800D01*
G75*
G02*
X222727300Y-104479300I0J225500D01*
G01*
X222727300Y-104028300D01*
G75*
G02*
X222952800Y-103802800I225500J0D01*
G01*
G37*
G36*
G01*
X182312800Y-143812800D02*
X182913800Y-143812800D01*
G75*
G02*
X183139300Y-144038300I0J-225500D01*
G01*
X183139300Y-144489300D01*
G75*
G02*
X182913800Y-144714800I-225500J0D01*
G01*
X182312800Y-144714800D01*
G75*
G02*
X182087300Y-144489300I0J225500D01*
G01*
X182087300Y-144038300D01*
G75*
G02*
X182312800Y-143812800I225500J0D01*
G01*
G37*
G36*
G01*
X182312800Y-145462800D02*
X182913800Y-145462800D01*
G75*
G02*
X183139300Y-145688300I0J-225500D01*
G01*
X183139300Y-146139300D01*
G75*
G02*
X182913800Y-146364800I-225500J0D01*
G01*
X182312800Y-146364800D01*
G75*
G02*
X182087300Y-146139300I0J225500D01*
G01*
X182087300Y-145688300D01*
G75*
G02*
X182312800Y-145462800I225500J0D01*
G01*
G37*
G36*
G01*
X211540000Y-143046500D02*
X210740000Y-143046500D01*
G75*
G02*
X210689000Y-142995500I0J51000D01*
G01*
X210689000Y-142095500D01*
G75*
G02*
X210740000Y-142044500I51000J0D01*
G01*
X211540000Y-142044500D01*
G75*
G02*
X211591000Y-142095500I0J-51000D01*
G01*
X211591000Y-142995500D01*
G75*
G02*
X211540000Y-143046500I-51000J0D01*
G01*
G37*
G36*
G01*
X213440000Y-143046500D02*
X212640000Y-143046500D01*
G75*
G02*
X212589000Y-142995500I0J51000D01*
G01*
X212589000Y-142095500D01*
G75*
G02*
X212640000Y-142044500I51000J0D01*
G01*
X213440000Y-142044500D01*
G75*
G02*
X213491000Y-142095500I0J-51000D01*
G01*
X213491000Y-142995500D01*
G75*
G02*
X213440000Y-143046500I-51000J0D01*
G01*
G37*
G36*
G01*
X212490000Y-141046500D02*
X211690000Y-141046500D01*
G75*
G02*
X211639000Y-140995500I0J51000D01*
G01*
X211639000Y-140095500D01*
G75*
G02*
X211690000Y-140044500I51000J0D01*
G01*
X212490000Y-140044500D01*
G75*
G02*
X212541000Y-140095500I0J-51000D01*
G01*
X212541000Y-140995500D01*
G75*
G02*
X212490000Y-141046500I-51000J0D01*
G01*
G37*
G36*
G01*
X211540000Y-101386500D02*
X210740000Y-101386500D01*
G75*
G02*
X210689000Y-101335500I0J51000D01*
G01*
X210689000Y-100435500D01*
G75*
G02*
X210740000Y-100384500I51000J0D01*
G01*
X211540000Y-100384500D01*
G75*
G02*
X211591000Y-100435500I0J-51000D01*
G01*
X211591000Y-101335500D01*
G75*
G02*
X211540000Y-101386500I-51000J0D01*
G01*
G37*
G36*
G01*
X213440000Y-101386500D02*
X212640000Y-101386500D01*
G75*
G02*
X212589000Y-101335500I0J51000D01*
G01*
X212589000Y-100435500D01*
G75*
G02*
X212640000Y-100384500I51000J0D01*
G01*
X213440000Y-100384500D01*
G75*
G02*
X213491000Y-100435500I0J-51000D01*
G01*
X213491000Y-101335500D01*
G75*
G02*
X213440000Y-101386500I-51000J0D01*
G01*
G37*
G36*
G01*
X212490000Y-99386500D02*
X211690000Y-99386500D01*
G75*
G02*
X211639000Y-99335500I0J51000D01*
G01*
X211639000Y-98435500D01*
G75*
G02*
X211690000Y-98384500I51000J0D01*
G01*
X212490000Y-98384500D01*
G75*
G02*
X212541000Y-98435500I0J-51000D01*
G01*
X212541000Y-99335500D01*
G75*
G02*
X212490000Y-99386500I-51000J0D01*
G01*
G37*
G36*
G01*
X170900000Y-143046500D02*
X170100000Y-143046500D01*
G75*
G02*
X170049000Y-142995500I0J51000D01*
G01*
X170049000Y-142095500D01*
G75*
G02*
X170100000Y-142044500I51000J0D01*
G01*
X170900000Y-142044500D01*
G75*
G02*
X170951000Y-142095500I0J-51000D01*
G01*
X170951000Y-142995500D01*
G75*
G02*
X170900000Y-143046500I-51000J0D01*
G01*
G37*
G36*
G01*
X172800000Y-143046500D02*
X172000000Y-143046500D01*
G75*
G02*
X171949000Y-142995500I0J51000D01*
G01*
X171949000Y-142095500D01*
G75*
G02*
X172000000Y-142044500I51000J0D01*
G01*
X172800000Y-142044500D01*
G75*
G02*
X172851000Y-142095500I0J-51000D01*
G01*
X172851000Y-142995500D01*
G75*
G02*
X172800000Y-143046500I-51000J0D01*
G01*
G37*
G36*
G01*
X171850000Y-141046500D02*
X171050000Y-141046500D01*
G75*
G02*
X170999000Y-140995500I0J51000D01*
G01*
X170999000Y-140095500D01*
G75*
G02*
X171050000Y-140044500I51000J0D01*
G01*
X171850000Y-140044500D01*
G75*
G02*
X171901000Y-140095500I0J-51000D01*
G01*
X171901000Y-140995500D01*
G75*
G02*
X171850000Y-141046500I-51000J0D01*
G01*
G37*
G36*
G01*
X229793100Y-146283500D02*
X229793100Y-147983500D01*
G75*
G02*
X229742100Y-148034500I-51000J0D01*
G01*
X228042100Y-148034500D01*
G75*
G02*
X227991100Y-147983500I0J51000D01*
G01*
X227991100Y-146283500D01*
G75*
G02*
X228042100Y-146232500I51000J0D01*
G01*
X229742100Y-146232500D01*
G75*
G02*
X229793100Y-146283500I0J-51000D01*
G01*
G37*
D11*
X228892100Y-144593500D03*
X228892100Y-142053500D03*
G36*
G01*
X229793100Y-104623500D02*
X229793100Y-106323500D01*
G75*
G02*
X229742100Y-106374500I-51000J0D01*
G01*
X228042100Y-106374500D01*
G75*
G02*
X227991100Y-106323500I0J51000D01*
G01*
X227991100Y-104623500D01*
G75*
G02*
X228042100Y-104572500I51000J0D01*
G01*
X229742100Y-104572500D01*
G75*
G02*
X229793100Y-104623500I0J-51000D01*
G01*
G37*
X228892100Y-102933500D03*
X228892100Y-100393500D03*
G36*
G01*
X189153100Y-146283500D02*
X189153100Y-147983500D01*
G75*
G02*
X189102100Y-148034500I-51000J0D01*
G01*
X187402100Y-148034500D01*
G75*
G02*
X187351100Y-147983500I0J51000D01*
G01*
X187351100Y-146283500D01*
G75*
G02*
X187402100Y-146232500I51000J0D01*
G01*
X189102100Y-146232500D01*
G75*
G02*
X189153100Y-146283500I0J-51000D01*
G01*
G37*
X188252100Y-144593500D03*
X188252100Y-142053500D03*
G36*
G01*
X218662375Y-143689000D02*
X219614625Y-143689000D01*
G75*
G02*
X219889500Y-143963875I0J-274875D01*
G01*
X219889500Y-144541125D01*
G75*
G02*
X219614625Y-144816000I-274875J0D01*
G01*
X218662375Y-144816000D01*
G75*
G02*
X218387500Y-144541125I0J274875D01*
G01*
X218387500Y-143963875D01*
G75*
G02*
X218662375Y-143689000I274875J0D01*
G01*
G37*
G36*
G01*
X218662375Y-145514000D02*
X219614625Y-145514000D01*
G75*
G02*
X219889500Y-145788875I0J-274875D01*
G01*
X219889500Y-146366125D01*
G75*
G02*
X219614625Y-146641000I-274875J0D01*
G01*
X218662375Y-146641000D01*
G75*
G02*
X218387500Y-146366125I0J274875D01*
G01*
X218387500Y-145788875D01*
G75*
G02*
X218662375Y-145514000I274875J0D01*
G01*
G37*
G36*
G01*
X218662375Y-102029000D02*
X219614625Y-102029000D01*
G75*
G02*
X219889500Y-102303875I0J-274875D01*
G01*
X219889500Y-102881125D01*
G75*
G02*
X219614625Y-103156000I-274875J0D01*
G01*
X218662375Y-103156000D01*
G75*
G02*
X218387500Y-102881125I0J274875D01*
G01*
X218387500Y-102303875D01*
G75*
G02*
X218662375Y-102029000I274875J0D01*
G01*
G37*
G36*
G01*
X218662375Y-103854000D02*
X219614625Y-103854000D01*
G75*
G02*
X219889500Y-104128875I0J-274875D01*
G01*
X219889500Y-104706125D01*
G75*
G02*
X219614625Y-104981000I-274875J0D01*
G01*
X218662375Y-104981000D01*
G75*
G02*
X218387500Y-104706125I0J274875D01*
G01*
X218387500Y-104128875D01*
G75*
G02*
X218662375Y-103854000I274875J0D01*
G01*
G37*
G36*
G01*
X178022375Y-143689000D02*
X178974625Y-143689000D01*
G75*
G02*
X179249500Y-143963875I0J-274875D01*
G01*
X179249500Y-144541125D01*
G75*
G02*
X178974625Y-144816000I-274875J0D01*
G01*
X178022375Y-144816000D01*
G75*
G02*
X177747500Y-144541125I0J274875D01*
G01*
X177747500Y-143963875D01*
G75*
G02*
X178022375Y-143689000I274875J0D01*
G01*
G37*
G36*
G01*
X178022375Y-145514000D02*
X178974625Y-145514000D01*
G75*
G02*
X179249500Y-145788875I0J-274875D01*
G01*
X179249500Y-146366125D01*
G75*
G02*
X178974625Y-146641000I-274875J0D01*
G01*
X178022375Y-146641000D01*
G75*
G02*
X177747500Y-146366125I0J274875D01*
G01*
X177747500Y-145788875D01*
G75*
G02*
X178022375Y-145514000I274875J0D01*
G01*
G37*
G36*
G01*
X224948875Y-143689000D02*
X225901125Y-143689000D01*
G75*
G02*
X226176000Y-143963875I0J-274875D01*
G01*
X226176000Y-144541125D01*
G75*
G02*
X225901125Y-144816000I-274875J0D01*
G01*
X224948875Y-144816000D01*
G75*
G02*
X224674000Y-144541125I0J274875D01*
G01*
X224674000Y-143963875D01*
G75*
G02*
X224948875Y-143689000I274875J0D01*
G01*
G37*
G36*
G01*
X224948875Y-145514000D02*
X225901125Y-145514000D01*
G75*
G02*
X226176000Y-145788875I0J-274875D01*
G01*
X226176000Y-146366125D01*
G75*
G02*
X225901125Y-146641000I-274875J0D01*
G01*
X224948875Y-146641000D01*
G75*
G02*
X224674000Y-146366125I0J274875D01*
G01*
X224674000Y-145788875D01*
G75*
G02*
X224948875Y-145514000I274875J0D01*
G01*
G37*
G36*
G01*
X224948875Y-102029000D02*
X225901125Y-102029000D01*
G75*
G02*
X226176000Y-102303875I0J-274875D01*
G01*
X226176000Y-102881125D01*
G75*
G02*
X225901125Y-103156000I-274875J0D01*
G01*
X224948875Y-103156000D01*
G75*
G02*
X224674000Y-102881125I0J274875D01*
G01*
X224674000Y-102303875D01*
G75*
G02*
X224948875Y-102029000I274875J0D01*
G01*
G37*
G36*
G01*
X224948875Y-103854000D02*
X225901125Y-103854000D01*
G75*
G02*
X226176000Y-104128875I0J-274875D01*
G01*
X226176000Y-104706125D01*
G75*
G02*
X225901125Y-104981000I-274875J0D01*
G01*
X224948875Y-104981000D01*
G75*
G02*
X224674000Y-104706125I0J274875D01*
G01*
X224674000Y-104128875D01*
G75*
G02*
X224948875Y-103854000I274875J0D01*
G01*
G37*
G36*
G01*
X184308875Y-143689000D02*
X185261125Y-143689000D01*
G75*
G02*
X185536000Y-143963875I0J-274875D01*
G01*
X185536000Y-144541125D01*
G75*
G02*
X185261125Y-144816000I-274875J0D01*
G01*
X184308875Y-144816000D01*
G75*
G02*
X184034000Y-144541125I0J274875D01*
G01*
X184034000Y-143963875D01*
G75*
G02*
X184308875Y-143689000I274875J0D01*
G01*
G37*
G36*
G01*
X184308875Y-145514000D02*
X185261125Y-145514000D01*
G75*
G02*
X185536000Y-145788875I0J-274875D01*
G01*
X185536000Y-146366125D01*
G75*
G02*
X185261125Y-146641000I-274875J0D01*
G01*
X184308875Y-146641000D01*
G75*
G02*
X184034000Y-146366125I0J274875D01*
G01*
X184034000Y-145788875D01*
G75*
G02*
X184308875Y-145514000I274875J0D01*
G01*
G37*
D13*
X199136000Y-146460400D03*
X199136000Y-141380400D03*
X199136000Y-104800400D03*
X199136000Y-99720400D03*
X158496000Y-146460400D03*
X158496000Y-141380400D03*
X231648000Y-131068000D03*
X231648000Y-89408000D03*
X191008000Y-131068000D03*
G36*
G01*
X200636000Y-162235400D02*
X197636000Y-162235400D01*
G75*
G02*
X197585000Y-162184400I0J51000D01*
G01*
X197585000Y-159184400D01*
G75*
G02*
X197636000Y-159133400I51000J0D01*
G01*
X200636000Y-159133400D01*
G75*
G02*
X200687000Y-159184400I0J-51000D01*
G01*
X200687000Y-162184400D01*
G75*
G02*
X200636000Y-162235400I-51000J0D01*
G01*
G37*
D14*
X199136000Y-155604400D03*
G36*
G01*
X200636000Y-120575400D02*
X197636000Y-120575400D01*
G75*
G02*
X197585000Y-120524400I0J51000D01*
G01*
X197585000Y-117524400D01*
G75*
G02*
X197636000Y-117473400I51000J0D01*
G01*
X200636000Y-117473400D01*
G75*
G02*
X200687000Y-117524400I0J-51000D01*
G01*
X200687000Y-120524400D01*
G75*
G02*
X200636000Y-120575400I-51000J0D01*
G01*
G37*
X199136000Y-113944400D03*
G36*
G01*
X159996000Y-162235400D02*
X156996000Y-162235400D01*
G75*
G02*
X156945000Y-162184400I0J51000D01*
G01*
X156945000Y-159184400D01*
G75*
G02*
X156996000Y-159133400I51000J0D01*
G01*
X159996000Y-159133400D01*
G75*
G02*
X160047000Y-159184400I0J-51000D01*
G01*
X160047000Y-162184400D01*
G75*
G02*
X159996000Y-162235400I-51000J0D01*
G01*
G37*
X158496000Y-155604400D03*
G36*
G01*
X221755600Y-134434200D02*
X223455600Y-134434200D01*
G75*
G02*
X223506600Y-134485200I0J-51000D01*
G01*
X223506600Y-136185200D01*
G75*
G02*
X223455600Y-136236200I-51000J0D01*
G01*
X221755600Y-136236200D01*
G75*
G02*
X221704600Y-136185200I0J51000D01*
G01*
X221704600Y-134485200D01*
G75*
G02*
X221755600Y-134434200I51000J0D01*
G01*
G37*
D11*
X220065600Y-135335200D03*
G36*
G01*
X221755600Y-92774200D02*
X223455600Y-92774200D01*
G75*
G02*
X223506600Y-92825200I0J-51000D01*
G01*
X223506600Y-94525200D01*
G75*
G02*
X223455600Y-94576200I-51000J0D01*
G01*
X221755600Y-94576200D01*
G75*
G02*
X221704600Y-94525200I0J51000D01*
G01*
X221704600Y-92825200D01*
G75*
G02*
X221755600Y-92774200I51000J0D01*
G01*
G37*
X220065600Y-93675200D03*
G36*
G01*
X181115600Y-134434200D02*
X182815600Y-134434200D01*
G75*
G02*
X182866600Y-134485200I0J-51000D01*
G01*
X182866600Y-136185200D01*
G75*
G02*
X182815600Y-136236200I-51000J0D01*
G01*
X181115600Y-136236200D01*
G75*
G02*
X181064600Y-136185200I0J51000D01*
G01*
X181064600Y-134485200D01*
G75*
G02*
X181115600Y-134434200I51000J0D01*
G01*
G37*
X179425600Y-135335200D03*
D13*
X231648000Y-166120000D03*
X231648000Y-124460000D03*
X191008000Y-166120000D03*
G36*
G01*
X209384000Y-163719000D02*
X207684000Y-163719000D01*
G75*
G02*
X207633000Y-163668000I0J51000D01*
G01*
X207633000Y-161968000D01*
G75*
G02*
X207684000Y-161917000I51000J0D01*
G01*
X209384000Y-161917000D01*
G75*
G02*
X209435000Y-161968000I0J-51000D01*
G01*
X209435000Y-163668000D01*
G75*
G02*
X209384000Y-163719000I-51000J0D01*
G01*
G37*
D11*
X211074000Y-162818000D03*
X213614000Y-162818000D03*
G36*
G01*
X209384000Y-122059000D02*
X207684000Y-122059000D01*
G75*
G02*
X207633000Y-122008000I0J51000D01*
G01*
X207633000Y-120308000D01*
G75*
G02*
X207684000Y-120257000I51000J0D01*
G01*
X209384000Y-120257000D01*
G75*
G02*
X209435000Y-120308000I0J-51000D01*
G01*
X209435000Y-122008000D01*
G75*
G02*
X209384000Y-122059000I-51000J0D01*
G01*
G37*
X211074000Y-121158000D03*
X213614000Y-121158000D03*
G36*
G01*
X168744000Y-163719000D02*
X167044000Y-163719000D01*
G75*
G02*
X166993000Y-163668000I0J51000D01*
G01*
X166993000Y-161968000D01*
G75*
G02*
X167044000Y-161917000I51000J0D01*
G01*
X168744000Y-161917000D01*
G75*
G02*
X168795000Y-161968000I0J-51000D01*
G01*
X168795000Y-163668000D01*
G75*
G02*
X168744000Y-163719000I-51000J0D01*
G01*
G37*
X170434000Y-162818000D03*
X172974000Y-162818000D03*
D13*
X197612000Y-166120000D03*
X197612000Y-124460000D03*
X156972000Y-166120000D03*
G36*
G01*
X220306000Y-163719000D02*
X218606000Y-163719000D01*
G75*
G02*
X218555000Y-163668000I0J51000D01*
G01*
X218555000Y-161968000D01*
G75*
G02*
X218606000Y-161917000I51000J0D01*
G01*
X220306000Y-161917000D01*
G75*
G02*
X220357000Y-161968000I0J-51000D01*
G01*
X220357000Y-163668000D01*
G75*
G02*
X220306000Y-163719000I-51000J0D01*
G01*
G37*
D11*
X221996000Y-162818000D03*
X224536000Y-162818000D03*
G36*
G01*
X220306000Y-122059000D02*
X218606000Y-122059000D01*
G75*
G02*
X218555000Y-122008000I0J51000D01*
G01*
X218555000Y-120308000D01*
G75*
G02*
X218606000Y-120257000I51000J0D01*
G01*
X220306000Y-120257000D01*
G75*
G02*
X220357000Y-120308000I0J-51000D01*
G01*
X220357000Y-122008000D01*
G75*
G02*
X220306000Y-122059000I-51000J0D01*
G01*
G37*
X221996000Y-121158000D03*
X224536000Y-121158000D03*
G36*
G01*
X179666000Y-163719000D02*
X177966000Y-163719000D01*
G75*
G02*
X177915000Y-163668000I0J51000D01*
G01*
X177915000Y-161968000D01*
G75*
G02*
X177966000Y-161917000I51000J0D01*
G01*
X179666000Y-161917000D01*
G75*
G02*
X179717000Y-161968000I0J-51000D01*
G01*
X179717000Y-163668000D01*
G75*
G02*
X179666000Y-163719000I-51000J0D01*
G01*
G37*
X181356000Y-162818000D03*
X183896000Y-162818000D03*
D13*
X197612000Y-131068000D03*
X197612000Y-89408000D03*
X156972000Y-131068000D03*
X191008000Y-124460000D03*
X156972000Y-124460000D03*
X191008000Y-89408000D03*
X156972000Y-89408000D03*
D11*
X183896000Y-121158000D03*
X181356000Y-121158000D03*
G36*
G01*
X179666000Y-122059000D02*
X177966000Y-122059000D01*
G75*
G02*
X177915000Y-122008000I0J51000D01*
G01*
X177915000Y-120308000D01*
G75*
G02*
X177966000Y-120257000I51000J0D01*
G01*
X179666000Y-120257000D01*
G75*
G02*
X179717000Y-120308000I0J-51000D01*
G01*
X179717000Y-122008000D01*
G75*
G02*
X179666000Y-122059000I-51000J0D01*
G01*
G37*
D14*
X158496000Y-113944400D03*
G36*
G01*
X159996000Y-120575400D02*
X156996000Y-120575400D01*
G75*
G02*
X156945000Y-120524400I0J51000D01*
G01*
X156945000Y-117524400D01*
G75*
G02*
X156996000Y-117473400I51000J0D01*
G01*
X159996000Y-117473400D01*
G75*
G02*
X160047000Y-117524400I0J-51000D01*
G01*
X160047000Y-120524400D01*
G75*
G02*
X159996000Y-120575400I-51000J0D01*
G01*
G37*
D13*
X158496000Y-99720400D03*
X158496000Y-104800400D03*
D11*
X172974000Y-121158000D03*
X170434000Y-121158000D03*
G36*
G01*
X168744000Y-122059000D02*
X167044000Y-122059000D01*
G75*
G02*
X166993000Y-122008000I0J51000D01*
G01*
X166993000Y-120308000D01*
G75*
G02*
X167044000Y-120257000I51000J0D01*
G01*
X168744000Y-120257000D01*
G75*
G02*
X168795000Y-120308000I0J-51000D01*
G01*
X168795000Y-122008000D01*
G75*
G02*
X168744000Y-122059000I-51000J0D01*
G01*
G37*
X179425600Y-93675200D03*
G36*
G01*
X181115600Y-92774200D02*
X182815600Y-92774200D01*
G75*
G02*
X182866600Y-92825200I0J-51000D01*
G01*
X182866600Y-94525200D01*
G75*
G02*
X182815600Y-94576200I-51000J0D01*
G01*
X181115600Y-94576200D01*
G75*
G02*
X181064600Y-94525200I0J51000D01*
G01*
X181064600Y-92825200D01*
G75*
G02*
X181115600Y-92774200I51000J0D01*
G01*
G37*
G36*
G01*
X183126500Y-99677000D02*
X182125500Y-99677000D01*
G75*
G02*
X181850000Y-99401500I0J275500D01*
G01*
X181850000Y-98850500D01*
G75*
G02*
X182125500Y-98575000I275500J0D01*
G01*
X183126500Y-98575000D01*
G75*
G02*
X183402000Y-98850500I0J-275500D01*
G01*
X183402000Y-99401500D01*
G75*
G02*
X183126500Y-99677000I-275500J0D01*
G01*
G37*
G36*
G01*
X183126500Y-101577000D02*
X182125500Y-101577000D01*
G75*
G02*
X181850000Y-101301500I0J275500D01*
G01*
X181850000Y-100750500D01*
G75*
G02*
X182125500Y-100475000I275500J0D01*
G01*
X183126500Y-100475000D01*
G75*
G02*
X183402000Y-100750500I0J-275500D01*
G01*
X183402000Y-101301500D01*
G75*
G02*
X183126500Y-101577000I-275500J0D01*
G01*
G37*
X188252100Y-109410500D03*
X188252100Y-111950500D03*
G36*
G01*
X189153100Y-113640500D02*
X189153100Y-115340500D01*
G75*
G02*
X189102100Y-115391500I-51000J0D01*
G01*
X187402100Y-115391500D01*
G75*
G02*
X187351100Y-115340500I0J51000D01*
G01*
X187351100Y-113640500D01*
G75*
G02*
X187402100Y-113589500I51000J0D01*
G01*
X189102100Y-113589500D01*
G75*
G02*
X189153100Y-113640500I0J-51000D01*
G01*
G37*
G36*
G01*
X178682000Y-118410500D02*
X178682000Y-117809500D01*
G75*
G02*
X178907500Y-117584000I225500J0D01*
G01*
X179358500Y-117584000D01*
G75*
G02*
X179584000Y-117809500I0J-225500D01*
G01*
X179584000Y-118410500D01*
G75*
G02*
X179358500Y-118636000I-225500J0D01*
G01*
X178907500Y-118636000D01*
G75*
G02*
X178682000Y-118410500I0J225500D01*
G01*
G37*
G36*
G01*
X177032000Y-118410500D02*
X177032000Y-117809500D01*
G75*
G02*
X177257500Y-117584000I225500J0D01*
G01*
X177708500Y-117584000D01*
G75*
G02*
X177934000Y-117809500I0J-225500D01*
G01*
X177934000Y-118410500D01*
G75*
G02*
X177708500Y-118636000I-225500J0D01*
G01*
X177257500Y-118636000D01*
G75*
G02*
X177032000Y-118410500I0J225500D01*
G01*
G37*
G36*
G01*
X167695375Y-97861500D02*
X168647625Y-97861500D01*
G75*
G02*
X168922500Y-98136375I0J-274875D01*
G01*
X168922500Y-98713625D01*
G75*
G02*
X168647625Y-98988500I-274875J0D01*
G01*
X167695375Y-98988500D01*
G75*
G02*
X167420500Y-98713625I0J274875D01*
G01*
X167420500Y-98136375D01*
G75*
G02*
X167695375Y-97861500I274875J0D01*
G01*
G37*
G36*
G01*
X167695375Y-99686500D02*
X168647625Y-99686500D01*
G75*
G02*
X168922500Y-99961375I0J-274875D01*
G01*
X168922500Y-100538625D01*
G75*
G02*
X168647625Y-100813500I-274875J0D01*
G01*
X167695375Y-100813500D01*
G75*
G02*
X167420500Y-100538625I0J274875D01*
G01*
X167420500Y-99961375D01*
G75*
G02*
X167695375Y-99686500I274875J0D01*
G01*
G37*
G36*
G01*
X167695375Y-101434000D02*
X168647625Y-101434000D01*
G75*
G02*
X168922500Y-101708875I0J-274875D01*
G01*
X168922500Y-102286125D01*
G75*
G02*
X168647625Y-102561000I-274875J0D01*
G01*
X167695375Y-102561000D01*
G75*
G02*
X167420500Y-102286125I0J274875D01*
G01*
X167420500Y-101708875D01*
G75*
G02*
X167695375Y-101434000I274875J0D01*
G01*
G37*
G36*
G01*
X167695375Y-103259000D02*
X168647625Y-103259000D01*
G75*
G02*
X168922500Y-103533875I0J-274875D01*
G01*
X168922500Y-104111125D01*
G75*
G02*
X168647625Y-104386000I-274875J0D01*
G01*
X167695375Y-104386000D01*
G75*
G02*
X167420500Y-104111125I0J274875D01*
G01*
X167420500Y-103533875D01*
G75*
G02*
X167695375Y-103259000I274875J0D01*
G01*
G37*
G36*
G01*
X167695375Y-105013500D02*
X168647625Y-105013500D01*
G75*
G02*
X168922500Y-105288375I0J-274875D01*
G01*
X168922500Y-105865625D01*
G75*
G02*
X168647625Y-106140500I-274875J0D01*
G01*
X167695375Y-106140500D01*
G75*
G02*
X167420500Y-105865625I0J274875D01*
G01*
X167420500Y-105288375D01*
G75*
G02*
X167695375Y-105013500I274875J0D01*
G01*
G37*
G36*
G01*
X167695375Y-106838500D02*
X168647625Y-106838500D01*
G75*
G02*
X168922500Y-107113375I0J-274875D01*
G01*
X168922500Y-107690625D01*
G75*
G02*
X168647625Y-107965500I-274875J0D01*
G01*
X167695375Y-107965500D01*
G75*
G02*
X167420500Y-107690625I0J274875D01*
G01*
X167420500Y-107113375D01*
G75*
G02*
X167695375Y-106838500I274875J0D01*
G01*
G37*
G36*
G01*
X166006000Y-98061500D02*
X166607000Y-98061500D01*
G75*
G02*
X166832500Y-98287000I0J-225500D01*
G01*
X166832500Y-98738000D01*
G75*
G02*
X166607000Y-98963500I-225500J0D01*
G01*
X166006000Y-98963500D01*
G75*
G02*
X165780500Y-98738000I0J225500D01*
G01*
X165780500Y-98287000D01*
G75*
G02*
X166006000Y-98061500I225500J0D01*
G01*
G37*
G36*
G01*
X166006000Y-99711500D02*
X166607000Y-99711500D01*
G75*
G02*
X166832500Y-99937000I0J-225500D01*
G01*
X166832500Y-100388000D01*
G75*
G02*
X166607000Y-100613500I-225500J0D01*
G01*
X166006000Y-100613500D01*
G75*
G02*
X165780500Y-100388000I0J225500D01*
G01*
X165780500Y-99937000D01*
G75*
G02*
X166006000Y-99711500I225500J0D01*
G01*
G37*
G36*
G01*
X166006000Y-101634000D02*
X166607000Y-101634000D01*
G75*
G02*
X166832500Y-101859500I0J-225500D01*
G01*
X166832500Y-102310500D01*
G75*
G02*
X166607000Y-102536000I-225500J0D01*
G01*
X166006000Y-102536000D01*
G75*
G02*
X165780500Y-102310500I0J225500D01*
G01*
X165780500Y-101859500D01*
G75*
G02*
X166006000Y-101634000I225500J0D01*
G01*
G37*
G36*
G01*
X166006000Y-103284000D02*
X166607000Y-103284000D01*
G75*
G02*
X166832500Y-103509500I0J-225500D01*
G01*
X166832500Y-103960500D01*
G75*
G02*
X166607000Y-104186000I-225500J0D01*
G01*
X166006000Y-104186000D01*
G75*
G02*
X165780500Y-103960500I0J225500D01*
G01*
X165780500Y-103509500D01*
G75*
G02*
X166006000Y-103284000I225500J0D01*
G01*
G37*
G36*
G01*
X166006000Y-105213500D02*
X166607000Y-105213500D01*
G75*
G02*
X166832500Y-105439000I0J-225500D01*
G01*
X166832500Y-105890000D01*
G75*
G02*
X166607000Y-106115500I-225500J0D01*
G01*
X166006000Y-106115500D01*
G75*
G02*
X165780500Y-105890000I0J225500D01*
G01*
X165780500Y-105439000D01*
G75*
G02*
X166006000Y-105213500I225500J0D01*
G01*
G37*
G36*
G01*
X166006000Y-106863500D02*
X166607000Y-106863500D01*
G75*
G02*
X166832500Y-107089000I0J-225500D01*
G01*
X166832500Y-107540000D01*
G75*
G02*
X166607000Y-107765500I-225500J0D01*
G01*
X166006000Y-107765500D01*
G75*
G02*
X165780500Y-107540000I0J225500D01*
G01*
X165780500Y-107089000D01*
G75*
G02*
X166006000Y-106863500I225500J0D01*
G01*
G37*
X163525200Y-93675200D03*
G36*
G01*
X165215200Y-92774200D02*
X166915200Y-92774200D01*
G75*
G02*
X166966200Y-92825200I0J-51000D01*
G01*
X166966200Y-94525200D01*
G75*
G02*
X166915200Y-94576200I-51000J0D01*
G01*
X165215200Y-94576200D01*
G75*
G02*
X165164200Y-94525200I0J51000D01*
G01*
X165164200Y-92825200D01*
G75*
G02*
X165215200Y-92774200I51000J0D01*
G01*
G37*
X157226000Y-93675200D03*
G36*
G01*
X158916000Y-92774200D02*
X160616000Y-92774200D01*
G75*
G02*
X160667000Y-92825200I0J-51000D01*
G01*
X160667000Y-94525200D01*
G75*
G02*
X160616000Y-94576200I-51000J0D01*
G01*
X158916000Y-94576200D01*
G75*
G02*
X158865000Y-94525200I0J51000D01*
G01*
X158865000Y-92825200D01*
G75*
G02*
X158916000Y-92774200I51000J0D01*
G01*
G37*
G36*
G01*
X163127800Y-99307700D02*
X163127800Y-100107700D01*
G75*
G02*
X163076800Y-100158700I-51000J0D01*
G01*
X162176800Y-100158700D01*
G75*
G02*
X162125800Y-100107700I0J51000D01*
G01*
X162125800Y-99307700D01*
G75*
G02*
X162176800Y-99256700I51000J0D01*
G01*
X163076800Y-99256700D01*
G75*
G02*
X163127800Y-99307700I0J-51000D01*
G01*
G37*
G36*
G01*
X165127800Y-98357700D02*
X165127800Y-99157700D01*
G75*
G02*
X165076800Y-99208700I-51000J0D01*
G01*
X164176800Y-99208700D01*
G75*
G02*
X164125800Y-99157700I0J51000D01*
G01*
X164125800Y-98357700D01*
G75*
G02*
X164176800Y-98306700I51000J0D01*
G01*
X165076800Y-98306700D01*
G75*
G02*
X165127800Y-98357700I0J-51000D01*
G01*
G37*
G36*
G01*
X165127800Y-100257700D02*
X165127800Y-101057700D01*
G75*
G02*
X165076800Y-101108700I-51000J0D01*
G01*
X164176800Y-101108700D01*
G75*
G02*
X164125800Y-101057700I0J51000D01*
G01*
X164125800Y-100257700D01*
G75*
G02*
X164176800Y-100206700I51000J0D01*
G01*
X165076800Y-100206700D01*
G75*
G02*
X165127800Y-100257700I0J-51000D01*
G01*
G37*
G36*
G01*
X163127800Y-104324200D02*
X163127800Y-105124200D01*
G75*
G02*
X163076800Y-105175200I-51000J0D01*
G01*
X162176800Y-105175200D01*
G75*
G02*
X162125800Y-105124200I0J51000D01*
G01*
X162125800Y-104324200D01*
G75*
G02*
X162176800Y-104273200I51000J0D01*
G01*
X163076800Y-104273200D01*
G75*
G02*
X163127800Y-104324200I0J-51000D01*
G01*
G37*
G36*
G01*
X165127800Y-103374200D02*
X165127800Y-104174200D01*
G75*
G02*
X165076800Y-104225200I-51000J0D01*
G01*
X164176800Y-104225200D01*
G75*
G02*
X164125800Y-104174200I0J51000D01*
G01*
X164125800Y-103374200D01*
G75*
G02*
X164176800Y-103323200I51000J0D01*
G01*
X165076800Y-103323200D01*
G75*
G02*
X165127800Y-103374200I0J-51000D01*
G01*
G37*
G36*
G01*
X165127800Y-105274200D02*
X165127800Y-106074200D01*
G75*
G02*
X165076800Y-106125200I-51000J0D01*
G01*
X164176800Y-106125200D01*
G75*
G02*
X164125800Y-106074200I0J51000D01*
G01*
X164125800Y-105274200D01*
G75*
G02*
X164176800Y-105223200I51000J0D01*
G01*
X165076800Y-105223200D01*
G75*
G02*
X165127800Y-105274200I0J-51000D01*
G01*
G37*
X185724800Y-93675200D03*
G36*
G01*
X187414800Y-92774200D02*
X189114800Y-92774200D01*
G75*
G02*
X189165800Y-92825200I0J-51000D01*
G01*
X189165800Y-94525200D01*
G75*
G02*
X189114800Y-94576200I-51000J0D01*
G01*
X187414800Y-94576200D01*
G75*
G02*
X187363800Y-94525200I0J51000D01*
G01*
X187363800Y-92825200D01*
G75*
G02*
X187414800Y-92774200I51000J0D01*
G01*
G37*
G36*
G01*
X183102125Y-113443000D02*
X182149875Y-113443000D01*
G75*
G02*
X181875000Y-113168125I0J274875D01*
G01*
X181875000Y-112590875D01*
G75*
G02*
X182149875Y-112316000I274875J0D01*
G01*
X183102125Y-112316000D01*
G75*
G02*
X183377000Y-112590875I0J-274875D01*
G01*
X183377000Y-113168125D01*
G75*
G02*
X183102125Y-113443000I-274875J0D01*
G01*
G37*
G36*
G01*
X183102125Y-115268000D02*
X182149875Y-115268000D01*
G75*
G02*
X181875000Y-114993125I0J274875D01*
G01*
X181875000Y-114415875D01*
G75*
G02*
X182149875Y-114141000I274875J0D01*
G01*
X183102125Y-114141000D01*
G75*
G02*
X183377000Y-114415875I0J-274875D01*
G01*
X183377000Y-114993125D01*
G75*
G02*
X183102125Y-115268000I-274875J0D01*
G01*
G37*
G36*
G01*
X184308875Y-117570000D02*
X185261125Y-117570000D01*
G75*
G02*
X185536000Y-117844875I0J-274875D01*
G01*
X185536000Y-118422125D01*
G75*
G02*
X185261125Y-118697000I-274875J0D01*
G01*
X184308875Y-118697000D01*
G75*
G02*
X184034000Y-118422125I0J274875D01*
G01*
X184034000Y-117844875D01*
G75*
G02*
X184308875Y-117570000I274875J0D01*
G01*
G37*
G36*
G01*
X184308875Y-115745000D02*
X185261125Y-115745000D01*
G75*
G02*
X185536000Y-116019875I0J-274875D01*
G01*
X185536000Y-116597125D01*
G75*
G02*
X185261125Y-116872000I-274875J0D01*
G01*
X184308875Y-116872000D01*
G75*
G02*
X184034000Y-116597125I0J274875D01*
G01*
X184034000Y-116019875D01*
G75*
G02*
X184308875Y-115745000I274875J0D01*
G01*
G37*
G36*
G01*
X184308875Y-110712000D02*
X185261125Y-110712000D01*
G75*
G02*
X185536000Y-110986875I0J-274875D01*
G01*
X185536000Y-111564125D01*
G75*
G02*
X185261125Y-111839000I-274875J0D01*
G01*
X184308875Y-111839000D01*
G75*
G02*
X184034000Y-111564125I0J274875D01*
G01*
X184034000Y-110986875D01*
G75*
G02*
X184308875Y-110712000I274875J0D01*
G01*
G37*
G36*
G01*
X184308875Y-108887000D02*
X185261125Y-108887000D01*
G75*
G02*
X185536000Y-109161875I0J-274875D01*
G01*
X185536000Y-109739125D01*
G75*
G02*
X185261125Y-110014000I-274875J0D01*
G01*
X184308875Y-110014000D01*
G75*
G02*
X184034000Y-109739125I0J274875D01*
G01*
X184034000Y-109161875D01*
G75*
G02*
X184308875Y-108887000I274875J0D01*
G01*
G37*
G36*
G01*
X184308875Y-114141000D02*
X185261125Y-114141000D01*
G75*
G02*
X185536000Y-114415875I0J-274875D01*
G01*
X185536000Y-114993125D01*
G75*
G02*
X185261125Y-115268000I-274875J0D01*
G01*
X184308875Y-115268000D01*
G75*
G02*
X184034000Y-114993125I0J274875D01*
G01*
X184034000Y-114415875D01*
G75*
G02*
X184308875Y-114141000I274875J0D01*
G01*
G37*
G36*
G01*
X184308875Y-112316000D02*
X185261125Y-112316000D01*
G75*
G02*
X185536000Y-112590875I0J-274875D01*
G01*
X185536000Y-113168125D01*
G75*
G02*
X185261125Y-113443000I-274875J0D01*
G01*
X184308875Y-113443000D01*
G75*
G02*
X184034000Y-113168125I0J274875D01*
G01*
X184034000Y-112590875D01*
G75*
G02*
X184308875Y-112316000I274875J0D01*
G01*
G37*
G36*
G01*
X184308875Y-100425000D02*
X185261125Y-100425000D01*
G75*
G02*
X185536000Y-100699875I0J-274875D01*
G01*
X185536000Y-101277125D01*
G75*
G02*
X185261125Y-101552000I-274875J0D01*
G01*
X184308875Y-101552000D01*
G75*
G02*
X184034000Y-101277125I0J274875D01*
G01*
X184034000Y-100699875D01*
G75*
G02*
X184308875Y-100425000I274875J0D01*
G01*
G37*
G36*
G01*
X184308875Y-98600000D02*
X185261125Y-98600000D01*
G75*
G02*
X185536000Y-98874875I0J-274875D01*
G01*
X185536000Y-99452125D01*
G75*
G02*
X185261125Y-99727000I-274875J0D01*
G01*
X184308875Y-99727000D01*
G75*
G02*
X184034000Y-99452125I0J274875D01*
G01*
X184034000Y-98874875D01*
G75*
G02*
X184308875Y-98600000I274875J0D01*
G01*
G37*
G36*
G01*
X184308875Y-103854000D02*
X185261125Y-103854000D01*
G75*
G02*
X185536000Y-104128875I0J-274875D01*
G01*
X185536000Y-104706125D01*
G75*
G02*
X185261125Y-104981000I-274875J0D01*
G01*
X184308875Y-104981000D01*
G75*
G02*
X184034000Y-104706125I0J274875D01*
G01*
X184034000Y-104128875D01*
G75*
G02*
X184308875Y-103854000I274875J0D01*
G01*
G37*
G36*
G01*
X184308875Y-102029000D02*
X185261125Y-102029000D01*
G75*
G02*
X185536000Y-102303875I0J-274875D01*
G01*
X185536000Y-102881125D01*
G75*
G02*
X185261125Y-103156000I-274875J0D01*
G01*
X184308875Y-103156000D01*
G75*
G02*
X184034000Y-102881125I0J274875D01*
G01*
X184034000Y-102303875D01*
G75*
G02*
X184308875Y-102029000I274875J0D01*
G01*
G37*
G36*
G01*
X184308875Y-107283000D02*
X185261125Y-107283000D01*
G75*
G02*
X185536000Y-107557875I0J-274875D01*
G01*
X185536000Y-108135125D01*
G75*
G02*
X185261125Y-108410000I-274875J0D01*
G01*
X184308875Y-108410000D01*
G75*
G02*
X184034000Y-108135125I0J274875D01*
G01*
X184034000Y-107557875D01*
G75*
G02*
X184308875Y-107283000I274875J0D01*
G01*
G37*
G36*
G01*
X184308875Y-105458000D02*
X185261125Y-105458000D01*
G75*
G02*
X185536000Y-105732875I0J-274875D01*
G01*
X185536000Y-106310125D01*
G75*
G02*
X185261125Y-106585000I-274875J0D01*
G01*
X184308875Y-106585000D01*
G75*
G02*
X184034000Y-106310125I0J274875D01*
G01*
X184034000Y-105732875D01*
G75*
G02*
X184308875Y-105458000I274875J0D01*
G01*
G37*
G36*
G01*
X181959000Y-118586125D02*
X181959000Y-117633875D01*
G75*
G02*
X182233875Y-117359000I274875J0D01*
G01*
X182811125Y-117359000D01*
G75*
G02*
X183086000Y-117633875I0J-274875D01*
G01*
X183086000Y-118586125D01*
G75*
G02*
X182811125Y-118861000I-274875J0D01*
G01*
X182233875Y-118861000D01*
G75*
G02*
X181959000Y-118586125I0J274875D01*
G01*
G37*
G36*
G01*
X180134000Y-118586125D02*
X180134000Y-117633875D01*
G75*
G02*
X180408875Y-117359000I274875J0D01*
G01*
X180986125Y-117359000D01*
G75*
G02*
X181261000Y-117633875I0J-274875D01*
G01*
X181261000Y-118586125D01*
G75*
G02*
X180986125Y-118861000I-274875J0D01*
G01*
X180408875Y-118861000D01*
G75*
G02*
X180134000Y-118586125I0J274875D01*
G01*
G37*
G36*
G01*
X168243000Y-118586125D02*
X168243000Y-117633875D01*
G75*
G02*
X168517875Y-117359000I274875J0D01*
G01*
X169095125Y-117359000D01*
G75*
G02*
X169370000Y-117633875I0J-274875D01*
G01*
X169370000Y-118586125D01*
G75*
G02*
X169095125Y-118861000I-274875J0D01*
G01*
X168517875Y-118861000D01*
G75*
G02*
X168243000Y-118586125I0J274875D01*
G01*
G37*
G36*
G01*
X166418000Y-118586125D02*
X166418000Y-117633875D01*
G75*
G02*
X166692875Y-117359000I274875J0D01*
G01*
X167270125Y-117359000D01*
G75*
G02*
X167545000Y-117633875I0J-274875D01*
G01*
X167545000Y-118586125D01*
G75*
G02*
X167270125Y-118861000I-274875J0D01*
G01*
X166692875Y-118861000D01*
G75*
G02*
X166418000Y-118586125I0J274875D01*
G01*
G37*
G36*
G01*
X171799000Y-118586125D02*
X171799000Y-117633875D01*
G75*
G02*
X172073875Y-117359000I274875J0D01*
G01*
X172651125Y-117359000D01*
G75*
G02*
X172926000Y-117633875I0J-274875D01*
G01*
X172926000Y-118586125D01*
G75*
G02*
X172651125Y-118861000I-274875J0D01*
G01*
X172073875Y-118861000D01*
G75*
G02*
X171799000Y-118586125I0J274875D01*
G01*
G37*
G36*
G01*
X169974000Y-118586125D02*
X169974000Y-117633875D01*
G75*
G02*
X170248875Y-117359000I274875J0D01*
G01*
X170826125Y-117359000D01*
G75*
G02*
X171101000Y-117633875I0J-274875D01*
G01*
X171101000Y-118586125D01*
G75*
G02*
X170826125Y-118861000I-274875J0D01*
G01*
X170248875Y-118861000D01*
G75*
G02*
X169974000Y-118586125I0J274875D01*
G01*
G37*
G36*
G01*
X175288960Y-118614065D02*
X175288960Y-117661815D01*
G75*
G02*
X175563835Y-117386940I274875J0D01*
G01*
X176141085Y-117386940D01*
G75*
G02*
X176415960Y-117661815I0J-274875D01*
G01*
X176415960Y-118614065D01*
G75*
G02*
X176141085Y-118888940I-274875J0D01*
G01*
X175563835Y-118888940D01*
G75*
G02*
X175288960Y-118614065I0J274875D01*
G01*
G37*
G36*
G01*
X173463960Y-118614065D02*
X173463960Y-117661815D01*
G75*
G02*
X173738835Y-117386940I274875J0D01*
G01*
X174316085Y-117386940D01*
G75*
G02*
X174590960Y-117661815I0J-274875D01*
G01*
X174590960Y-118614065D01*
G75*
G02*
X174316085Y-118888940I-274875J0D01*
G01*
X173738835Y-118888940D01*
G75*
G02*
X173463960Y-118614065I0J274875D01*
G01*
G37*
G36*
G01*
X174214000Y-108664999D02*
X173364000Y-108664999D01*
G75*
G02*
X173313000Y-108613999I0J51000D01*
G01*
X173313000Y-108333999D01*
G75*
G02*
X173364000Y-108282999I51000J0D01*
G01*
X174214000Y-108282999D01*
G75*
G02*
X174265000Y-108333999I0J-51000D01*
G01*
X174265000Y-108613999D01*
G75*
G02*
X174214000Y-108664999I-51000J0D01*
G01*
G37*
G36*
G01*
X174214000Y-109165001D02*
X173364000Y-109165001D01*
G75*
G02*
X173313000Y-109114001I0J51000D01*
G01*
X173313000Y-108834001D01*
G75*
G02*
X173364000Y-108783001I51000J0D01*
G01*
X174214000Y-108783001D01*
G75*
G02*
X174265000Y-108834001I0J-51000D01*
G01*
X174265000Y-109114001D01*
G75*
G02*
X174214000Y-109165001I-51000J0D01*
G01*
G37*
G36*
G01*
X174214000Y-109665000D02*
X173364000Y-109665000D01*
G75*
G02*
X173313000Y-109614000I0J51000D01*
G01*
X173313000Y-109334000D01*
G75*
G02*
X173364000Y-109283000I51000J0D01*
G01*
X174214000Y-109283000D01*
G75*
G02*
X174265000Y-109334000I0J-51000D01*
G01*
X174265000Y-109614000D01*
G75*
G02*
X174214000Y-109665000I-51000J0D01*
G01*
G37*
G36*
G01*
X174214000Y-110164999D02*
X173364000Y-110164999D01*
G75*
G02*
X173313000Y-110113999I0J51000D01*
G01*
X173313000Y-109833999D01*
G75*
G02*
X173364000Y-109782999I51000J0D01*
G01*
X174214000Y-109782999D01*
G75*
G02*
X174265000Y-109833999I0J-51000D01*
G01*
X174265000Y-110113999D01*
G75*
G02*
X174214000Y-110164999I-51000J0D01*
G01*
G37*
G36*
G01*
X174214000Y-110665001D02*
X173364000Y-110665001D01*
G75*
G02*
X173313000Y-110614001I0J51000D01*
G01*
X173313000Y-110334001D01*
G75*
G02*
X173364000Y-110283001I51000J0D01*
G01*
X174214000Y-110283001D01*
G75*
G02*
X174265000Y-110334001I0J-51000D01*
G01*
X174265000Y-110614001D01*
G75*
G02*
X174214000Y-110665001I-51000J0D01*
G01*
G37*
G36*
G01*
X174322748Y-111624000D02*
X174322748Y-110774000D01*
G75*
G02*
X174373748Y-110723000I51000J0D01*
G01*
X174653748Y-110723000D01*
G75*
G02*
X174704748Y-110774000I0J-51000D01*
G01*
X174704748Y-111624000D01*
G75*
G02*
X174653748Y-111675000I-51000J0D01*
G01*
X174373748Y-111675000D01*
G75*
G02*
X174322748Y-111624000I0J51000D01*
G01*
G37*
G36*
G01*
X174822874Y-111624000D02*
X174822874Y-110774000D01*
G75*
G02*
X174873874Y-110723000I51000J0D01*
G01*
X175153874Y-110723000D01*
G75*
G02*
X175204874Y-110774000I0J-51000D01*
G01*
X175204874Y-111624000D01*
G75*
G02*
X175153874Y-111675000I-51000J0D01*
G01*
X174873874Y-111675000D01*
G75*
G02*
X174822874Y-111624000I0J51000D01*
G01*
G37*
G36*
G01*
X175323000Y-111624000D02*
X175323000Y-110774000D01*
G75*
G02*
X175374000Y-110723000I51000J0D01*
G01*
X175654000Y-110723000D01*
G75*
G02*
X175705000Y-110774000I0J-51000D01*
G01*
X175705000Y-111624000D01*
G75*
G02*
X175654000Y-111675000I-51000J0D01*
G01*
X175374000Y-111675000D01*
G75*
G02*
X175323000Y-111624000I0J51000D01*
G01*
G37*
G36*
G01*
X175823126Y-111624000D02*
X175823126Y-110774000D01*
G75*
G02*
X175874126Y-110723000I51000J0D01*
G01*
X176154126Y-110723000D01*
G75*
G02*
X176205126Y-110774000I0J-51000D01*
G01*
X176205126Y-111624000D01*
G75*
G02*
X176154126Y-111675000I-51000J0D01*
G01*
X175874126Y-111675000D01*
G75*
G02*
X175823126Y-111624000I0J51000D01*
G01*
G37*
G36*
G01*
X176323252Y-111624000D02*
X176323252Y-110774000D01*
G75*
G02*
X176374252Y-110723000I51000J0D01*
G01*
X176654252Y-110723000D01*
G75*
G02*
X176705252Y-110774000I0J-51000D01*
G01*
X176705252Y-111624000D01*
G75*
G02*
X176654252Y-111675000I-51000J0D01*
G01*
X176374252Y-111675000D01*
G75*
G02*
X176323252Y-111624000I0J51000D01*
G01*
G37*
G36*
G01*
X177664000Y-110665001D02*
X176814000Y-110665001D01*
G75*
G02*
X176763000Y-110614001I0J51000D01*
G01*
X176763000Y-110334001D01*
G75*
G02*
X176814000Y-110283001I51000J0D01*
G01*
X177664000Y-110283001D01*
G75*
G02*
X177715000Y-110334001I0J-51000D01*
G01*
X177715000Y-110614001D01*
G75*
G02*
X177664000Y-110665001I-51000J0D01*
G01*
G37*
G36*
G01*
X177664000Y-110164999D02*
X176814000Y-110164999D01*
G75*
G02*
X176763000Y-110113999I0J51000D01*
G01*
X176763000Y-109833999D01*
G75*
G02*
X176814000Y-109782999I51000J0D01*
G01*
X177664000Y-109782999D01*
G75*
G02*
X177715000Y-109833999I0J-51000D01*
G01*
X177715000Y-110113999D01*
G75*
G02*
X177664000Y-110164999I-51000J0D01*
G01*
G37*
G36*
G01*
X177664000Y-109665000D02*
X176814000Y-109665000D01*
G75*
G02*
X176763000Y-109614000I0J51000D01*
G01*
X176763000Y-109334000D01*
G75*
G02*
X176814000Y-109283000I51000J0D01*
G01*
X177664000Y-109283000D01*
G75*
G02*
X177715000Y-109334000I0J-51000D01*
G01*
X177715000Y-109614000D01*
G75*
G02*
X177664000Y-109665000I-51000J0D01*
G01*
G37*
G36*
G01*
X177664000Y-109165001D02*
X176814000Y-109165001D01*
G75*
G02*
X176763000Y-109114001I0J51000D01*
G01*
X176763000Y-108834001D01*
G75*
G02*
X176814000Y-108783001I51000J0D01*
G01*
X177664000Y-108783001D01*
G75*
G02*
X177715000Y-108834001I0J-51000D01*
G01*
X177715000Y-109114001D01*
G75*
G02*
X177664000Y-109165001I-51000J0D01*
G01*
G37*
G36*
G01*
X177664000Y-108664999D02*
X176814000Y-108664999D01*
G75*
G02*
X176763000Y-108613999I0J51000D01*
G01*
X176763000Y-108333999D01*
G75*
G02*
X176814000Y-108282999I51000J0D01*
G01*
X177664000Y-108282999D01*
G75*
G02*
X177715000Y-108333999I0J-51000D01*
G01*
X177715000Y-108613999D01*
G75*
G02*
X177664000Y-108664999I-51000J0D01*
G01*
G37*
G36*
G01*
X176323252Y-108174000D02*
X176323252Y-107324000D01*
G75*
G02*
X176374252Y-107273000I51000J0D01*
G01*
X176654252Y-107273000D01*
G75*
G02*
X176705252Y-107324000I0J-51000D01*
G01*
X176705252Y-108174000D01*
G75*
G02*
X176654252Y-108225000I-51000J0D01*
G01*
X176374252Y-108225000D01*
G75*
G02*
X176323252Y-108174000I0J51000D01*
G01*
G37*
G36*
G01*
X175823126Y-108174000D02*
X175823126Y-107324000D01*
G75*
G02*
X175874126Y-107273000I51000J0D01*
G01*
X176154126Y-107273000D01*
G75*
G02*
X176205126Y-107324000I0J-51000D01*
G01*
X176205126Y-108174000D01*
G75*
G02*
X176154126Y-108225000I-51000J0D01*
G01*
X175874126Y-108225000D01*
G75*
G02*
X175823126Y-108174000I0J51000D01*
G01*
G37*
G36*
G01*
X175323000Y-108174000D02*
X175323000Y-107324000D01*
G75*
G02*
X175374000Y-107273000I51000J0D01*
G01*
X175654000Y-107273000D01*
G75*
G02*
X175705000Y-107324000I0J-51000D01*
G01*
X175705000Y-108174000D01*
G75*
G02*
X175654000Y-108225000I-51000J0D01*
G01*
X175374000Y-108225000D01*
G75*
G02*
X175323000Y-108174000I0J51000D01*
G01*
G37*
G36*
G01*
X174822874Y-108174000D02*
X174822874Y-107324000D01*
G75*
G02*
X174873874Y-107273000I51000J0D01*
G01*
X175153874Y-107273000D01*
G75*
G02*
X175204874Y-107324000I0J-51000D01*
G01*
X175204874Y-108174000D01*
G75*
G02*
X175153874Y-108225000I-51000J0D01*
G01*
X174873874Y-108225000D01*
G75*
G02*
X174822874Y-108174000I0J51000D01*
G01*
G37*
G36*
G01*
X174322748Y-108174000D02*
X174322748Y-107324000D01*
G75*
G02*
X174373748Y-107273000I51000J0D01*
G01*
X174653748Y-107273000D01*
G75*
G02*
X174704748Y-107324000I0J-51000D01*
G01*
X174704748Y-108174000D01*
G75*
G02*
X174653748Y-108225000I-51000J0D01*
G01*
X174373748Y-108225000D01*
G75*
G02*
X174322748Y-108174000I0J51000D01*
G01*
G37*
G36*
G01*
X174438000Y-110499000D02*
X174438000Y-108449000D01*
G75*
G02*
X174489000Y-108398000I51000J0D01*
G01*
X176539000Y-108398000D01*
G75*
G02*
X176590000Y-108449000I0J-51000D01*
G01*
X176590000Y-110499000D01*
G75*
G02*
X176539000Y-110550000I-51000J0D01*
G01*
X174489000Y-110550000D01*
G75*
G02*
X174438000Y-110499000I0J51000D01*
G01*
G37*
D12*
X175120300Y-109867700D03*
X175120300Y-109080300D03*
X175907700Y-109867700D03*
X175907700Y-109080300D03*
G36*
G01*
X174054400Y-92774200D02*
X175754400Y-92774200D01*
G75*
G02*
X175805400Y-92825200I0J-51000D01*
G01*
X175805400Y-94525200D01*
G75*
G02*
X175754400Y-94576200I-51000J0D01*
G01*
X174054400Y-94576200D01*
G75*
G02*
X174003400Y-94525200I0J51000D01*
G01*
X174003400Y-92825200D01*
G75*
G02*
X174054400Y-92774200I51000J0D01*
G01*
G37*
D11*
X172364400Y-93675200D03*
X169824400Y-93675200D03*
G36*
G01*
X172942125Y-103092500D02*
X171989875Y-103092500D01*
G75*
G02*
X171715000Y-102817625I0J274875D01*
G01*
X171715000Y-102240375D01*
G75*
G02*
X171989875Y-101965500I274875J0D01*
G01*
X172942125Y-101965500D01*
G75*
G02*
X173217000Y-102240375I0J-274875D01*
G01*
X173217000Y-102817625D01*
G75*
G02*
X172942125Y-103092500I-274875J0D01*
G01*
G37*
G36*
G01*
X172942125Y-104917500D02*
X171989875Y-104917500D01*
G75*
G02*
X171715000Y-104642625I0J274875D01*
G01*
X171715000Y-104065375D01*
G75*
G02*
X171989875Y-103790500I274875J0D01*
G01*
X172942125Y-103790500D01*
G75*
G02*
X173217000Y-104065375I0J-274875D01*
G01*
X173217000Y-104642625D01*
G75*
G02*
X172942125Y-104917500I-274875J0D01*
G01*
G37*
G36*
G01*
X181006625Y-103156000D02*
X180054375Y-103156000D01*
G75*
G02*
X179779500Y-102881125I0J274875D01*
G01*
X179779500Y-102303875D01*
G75*
G02*
X180054375Y-102029000I274875J0D01*
G01*
X181006625Y-102029000D01*
G75*
G02*
X181281500Y-102303875I0J-274875D01*
G01*
X181281500Y-102881125D01*
G75*
G02*
X181006625Y-103156000I-274875J0D01*
G01*
G37*
G36*
G01*
X181006625Y-104981000D02*
X180054375Y-104981000D01*
G75*
G02*
X179779500Y-104706125I0J274875D01*
G01*
X179779500Y-104128875D01*
G75*
G02*
X180054375Y-103854000I274875J0D01*
G01*
X181006625Y-103854000D01*
G75*
G02*
X181281500Y-104128875I0J-274875D01*
G01*
X181281500Y-104706125D01*
G75*
G02*
X181006625Y-104981000I-274875J0D01*
G01*
G37*
G36*
G01*
X169957875Y-103790500D02*
X170910125Y-103790500D01*
G75*
G02*
X171185000Y-104065375I0J-274875D01*
G01*
X171185000Y-104642625D01*
G75*
G02*
X170910125Y-104917500I-274875J0D01*
G01*
X169957875Y-104917500D01*
G75*
G02*
X169683000Y-104642625I0J274875D01*
G01*
X169683000Y-104065375D01*
G75*
G02*
X169957875Y-103790500I274875J0D01*
G01*
G37*
G36*
G01*
X169957875Y-101965500D02*
X170910125Y-101965500D01*
G75*
G02*
X171185000Y-102240375I0J-274875D01*
G01*
X171185000Y-102817625D01*
G75*
G02*
X170910125Y-103092500I-274875J0D01*
G01*
X169957875Y-103092500D01*
G75*
G02*
X169683000Y-102817625I0J274875D01*
G01*
X169683000Y-102240375D01*
G75*
G02*
X169957875Y-101965500I274875J0D01*
G01*
G37*
G36*
G01*
X178022375Y-103854000D02*
X178974625Y-103854000D01*
G75*
G02*
X179249500Y-104128875I0J-274875D01*
G01*
X179249500Y-104706125D01*
G75*
G02*
X178974625Y-104981000I-274875J0D01*
G01*
X178022375Y-104981000D01*
G75*
G02*
X177747500Y-104706125I0J274875D01*
G01*
X177747500Y-104128875D01*
G75*
G02*
X178022375Y-103854000I274875J0D01*
G01*
G37*
G36*
G01*
X178022375Y-102029000D02*
X178974625Y-102029000D01*
G75*
G02*
X179249500Y-102303875I0J-274875D01*
G01*
X179249500Y-102881125D01*
G75*
G02*
X178974625Y-103156000I-274875J0D01*
G01*
X178022375Y-103156000D01*
G75*
G02*
X177747500Y-102881125I0J274875D01*
G01*
X177747500Y-102303875D01*
G75*
G02*
X178022375Y-102029000I274875J0D01*
G01*
G37*
G36*
G01*
X166418000Y-116427125D02*
X166418000Y-115474875D01*
G75*
G02*
X166692875Y-115200000I274875J0D01*
G01*
X167270125Y-115200000D01*
G75*
G02*
X167545000Y-115474875I0J-274875D01*
G01*
X167545000Y-116427125D01*
G75*
G02*
X167270125Y-116702000I-274875J0D01*
G01*
X166692875Y-116702000D01*
G75*
G02*
X166418000Y-116427125I0J274875D01*
G01*
G37*
G36*
G01*
X168243000Y-116427125D02*
X168243000Y-115474875D01*
G75*
G02*
X168517875Y-115200000I274875J0D01*
G01*
X169095125Y-115200000D01*
G75*
G02*
X169370000Y-115474875I0J-274875D01*
G01*
X169370000Y-116427125D01*
G75*
G02*
X169095125Y-116702000I-274875J0D01*
G01*
X168517875Y-116702000D01*
G75*
G02*
X168243000Y-116427125I0J274875D01*
G01*
G37*
X188252100Y-100393500D03*
X188252100Y-102933500D03*
G36*
G01*
X189153100Y-104623500D02*
X189153100Y-106323500D01*
G75*
G02*
X189102100Y-106374500I-51000J0D01*
G01*
X187402100Y-106374500D01*
G75*
G02*
X187351100Y-106323500I0J51000D01*
G01*
X187351100Y-104623500D01*
G75*
G02*
X187402100Y-104572500I51000J0D01*
G01*
X189102100Y-104572500D01*
G75*
G02*
X189153100Y-104623500I0J-51000D01*
G01*
G37*
G36*
G01*
X171850000Y-99386500D02*
X171050000Y-99386500D01*
G75*
G02*
X170999000Y-99335500I0J51000D01*
G01*
X170999000Y-98435500D01*
G75*
G02*
X171050000Y-98384500I51000J0D01*
G01*
X171850000Y-98384500D01*
G75*
G02*
X171901000Y-98435500I0J-51000D01*
G01*
X171901000Y-99335500D01*
G75*
G02*
X171850000Y-99386500I-51000J0D01*
G01*
G37*
G36*
G01*
X172800000Y-101386500D02*
X172000000Y-101386500D01*
G75*
G02*
X171949000Y-101335500I0J51000D01*
G01*
X171949000Y-100435500D01*
G75*
G02*
X172000000Y-100384500I51000J0D01*
G01*
X172800000Y-100384500D01*
G75*
G02*
X172851000Y-100435500I0J-51000D01*
G01*
X172851000Y-101335500D01*
G75*
G02*
X172800000Y-101386500I-51000J0D01*
G01*
G37*
G36*
G01*
X170900000Y-101386500D02*
X170100000Y-101386500D01*
G75*
G02*
X170049000Y-101335500I0J51000D01*
G01*
X170049000Y-100435500D01*
G75*
G02*
X170100000Y-100384500I51000J0D01*
G01*
X170900000Y-100384500D01*
G75*
G02*
X170951000Y-100435500I0J-51000D01*
G01*
X170951000Y-101335500D01*
G75*
G02*
X170900000Y-101386500I-51000J0D01*
G01*
G37*
G36*
G01*
X179914500Y-99386500D02*
X179114500Y-99386500D01*
G75*
G02*
X179063500Y-99335500I0J51000D01*
G01*
X179063500Y-98435500D01*
G75*
G02*
X179114500Y-98384500I51000J0D01*
G01*
X179914500Y-98384500D01*
G75*
G02*
X179965500Y-98435500I0J-51000D01*
G01*
X179965500Y-99335500D01*
G75*
G02*
X179914500Y-99386500I-51000J0D01*
G01*
G37*
G36*
G01*
X180864500Y-101386500D02*
X180064500Y-101386500D01*
G75*
G02*
X180013500Y-101335500I0J51000D01*
G01*
X180013500Y-100435500D01*
G75*
G02*
X180064500Y-100384500I51000J0D01*
G01*
X180864500Y-100384500D01*
G75*
G02*
X180915500Y-100435500I0J-51000D01*
G01*
X180915500Y-101335500D01*
G75*
G02*
X180864500Y-101386500I-51000J0D01*
G01*
G37*
G36*
G01*
X178964500Y-101386500D02*
X178164500Y-101386500D01*
G75*
G02*
X178113500Y-101335500I0J51000D01*
G01*
X178113500Y-100435500D01*
G75*
G02*
X178164500Y-100384500I51000J0D01*
G01*
X178964500Y-100384500D01*
G75*
G02*
X179015500Y-100435500I0J-51000D01*
G01*
X179015500Y-101335500D01*
G75*
G02*
X178964500Y-101386500I-51000J0D01*
G01*
G37*
G36*
G01*
X182312800Y-103802800D02*
X182913800Y-103802800D01*
G75*
G02*
X183139300Y-104028300I0J-225500D01*
G01*
X183139300Y-104479300D01*
G75*
G02*
X182913800Y-104704800I-225500J0D01*
G01*
X182312800Y-104704800D01*
G75*
G02*
X182087300Y-104479300I0J225500D01*
G01*
X182087300Y-104028300D01*
G75*
G02*
X182312800Y-103802800I225500J0D01*
G01*
G37*
G36*
G01*
X182312800Y-102152800D02*
X182913800Y-102152800D01*
G75*
G02*
X183139300Y-102378300I0J-225500D01*
G01*
X183139300Y-102829300D01*
G75*
G02*
X182913800Y-103054800I-225500J0D01*
G01*
X182312800Y-103054800D01*
G75*
G02*
X182087300Y-102829300I0J225500D01*
G01*
X182087300Y-102378300D01*
G75*
G02*
X182312800Y-102152800I225500J0D01*
G01*
G37*
G36*
G01*
X182312800Y-107231800D02*
X182913800Y-107231800D01*
G75*
G02*
X183139300Y-107457300I0J-225500D01*
G01*
X183139300Y-107908300D01*
G75*
G02*
X182913800Y-108133800I-225500J0D01*
G01*
X182312800Y-108133800D01*
G75*
G02*
X182087300Y-107908300I0J225500D01*
G01*
X182087300Y-107457300D01*
G75*
G02*
X182312800Y-107231800I225500J0D01*
G01*
G37*
G36*
G01*
X182312800Y-105581800D02*
X182913800Y-105581800D01*
G75*
G02*
X183139300Y-105807300I0J-225500D01*
G01*
X183139300Y-106258300D01*
G75*
G02*
X182913800Y-106483800I-225500J0D01*
G01*
X182312800Y-106483800D01*
G75*
G02*
X182087300Y-106258300I0J225500D01*
G01*
X182087300Y-105807300D01*
G75*
G02*
X182312800Y-105581800I225500J0D01*
G01*
G37*
G36*
G01*
X182312800Y-110660800D02*
X182913800Y-110660800D01*
G75*
G02*
X183139300Y-110886300I0J-225500D01*
G01*
X183139300Y-111337300D01*
G75*
G02*
X182913800Y-111562800I-225500J0D01*
G01*
X182312800Y-111562800D01*
G75*
G02*
X182087300Y-111337300I0J225500D01*
G01*
X182087300Y-110886300D01*
G75*
G02*
X182312800Y-110660800I225500J0D01*
G01*
G37*
G36*
G01*
X182312800Y-109010800D02*
X182913800Y-109010800D01*
G75*
G02*
X183139300Y-109236300I0J-225500D01*
G01*
X183139300Y-109687300D01*
G75*
G02*
X182913800Y-109912800I-225500J0D01*
G01*
X182312800Y-109912800D01*
G75*
G02*
X182087300Y-109687300I0J225500D01*
G01*
X182087300Y-109236300D01*
G75*
G02*
X182312800Y-109010800I225500J0D01*
G01*
G37*
G36*
G01*
X173348000Y-114854500D02*
X173348000Y-114253500D01*
G75*
G02*
X173573500Y-114028000I225500J0D01*
G01*
X174024500Y-114028000D01*
G75*
G02*
X174250000Y-114253500I0J-225500D01*
G01*
X174250000Y-114854500D01*
G75*
G02*
X174024500Y-115080000I-225500J0D01*
G01*
X173573500Y-115080000D01*
G75*
G02*
X173348000Y-114854500I0J225500D01*
G01*
G37*
G36*
G01*
X171698000Y-114854500D02*
X171698000Y-114253500D01*
G75*
G02*
X171923500Y-114028000I225500J0D01*
G01*
X172374500Y-114028000D01*
G75*
G02*
X172600000Y-114253500I0J-225500D01*
G01*
X172600000Y-114854500D01*
G75*
G02*
X172374500Y-115080000I-225500J0D01*
G01*
X171923500Y-115080000D01*
G75*
G02*
X171698000Y-114854500I0J225500D01*
G01*
G37*
G36*
G01*
X178428000Y-114854500D02*
X178428000Y-114253500D01*
G75*
G02*
X178653500Y-114028000I225500J0D01*
G01*
X179104500Y-114028000D01*
G75*
G02*
X179330000Y-114253500I0J-225500D01*
G01*
X179330000Y-114854500D01*
G75*
G02*
X179104500Y-115080000I-225500J0D01*
G01*
X178653500Y-115080000D01*
G75*
G02*
X178428000Y-114854500I0J225500D01*
G01*
G37*
G36*
G01*
X176778000Y-114854500D02*
X176778000Y-114253500D01*
G75*
G02*
X177003500Y-114028000I225500J0D01*
G01*
X177454500Y-114028000D01*
G75*
G02*
X177680000Y-114253500I0J-225500D01*
G01*
X177680000Y-114854500D01*
G75*
G02*
X177454500Y-115080000I-225500J0D01*
G01*
X177003500Y-115080000D01*
G75*
G02*
X176778000Y-114854500I0J225500D01*
G01*
G37*
G36*
G01*
X166306500Y-109889328D02*
X166306500Y-108931672D01*
G75*
G02*
X166578672Y-108659500I272172J0D01*
G01*
X167286328Y-108659500D01*
G75*
G02*
X167558500Y-108931672I0J-272172D01*
G01*
X167558500Y-109889328D01*
G75*
G02*
X167286328Y-110161500I-272172J0D01*
G01*
X166578672Y-110161500D01*
G75*
G02*
X166306500Y-109889328I0J272172D01*
G01*
G37*
G36*
G01*
X168356500Y-109889328D02*
X168356500Y-108931672D01*
G75*
G02*
X168628672Y-108659500I272172J0D01*
G01*
X169336328Y-108659500D01*
G75*
G02*
X169608500Y-108931672I0J-272172D01*
G01*
X169608500Y-109889328D01*
G75*
G02*
X169336328Y-110161500I-272172J0D01*
G01*
X168628672Y-110161500D01*
G75*
G02*
X168356500Y-109889328I0J272172D01*
G01*
G37*
G36*
G01*
X175913000Y-102481500D02*
X175913000Y-101480500D01*
G75*
G02*
X176188500Y-101205000I275500J0D01*
G01*
X176739500Y-101205000D01*
G75*
G02*
X177015000Y-101480500I0J-275500D01*
G01*
X177015000Y-102481500D01*
G75*
G02*
X176739500Y-102757000I-275500J0D01*
G01*
X176188500Y-102757000D01*
G75*
G02*
X175913000Y-102481500I0J275500D01*
G01*
G37*
G36*
G01*
X174013000Y-102481500D02*
X174013000Y-101480500D01*
G75*
G02*
X174288500Y-101205000I275500J0D01*
G01*
X174839500Y-101205000D01*
G75*
G02*
X175115000Y-101480500I0J-275500D01*
G01*
X175115000Y-102481500D01*
G75*
G02*
X174839500Y-102757000I-275500J0D01*
G01*
X174288500Y-102757000D01*
G75*
G02*
X174013000Y-102481500I0J275500D01*
G01*
G37*
G36*
G01*
X175913000Y-100322500D02*
X175913000Y-99321500D01*
G75*
G02*
X176188500Y-99046000I275500J0D01*
G01*
X176739500Y-99046000D01*
G75*
G02*
X177015000Y-99321500I0J-275500D01*
G01*
X177015000Y-100322500D01*
G75*
G02*
X176739500Y-100598000I-275500J0D01*
G01*
X176188500Y-100598000D01*
G75*
G02*
X175913000Y-100322500I0J275500D01*
G01*
G37*
G36*
G01*
X174013000Y-100322500D02*
X174013000Y-99321500D01*
G75*
G02*
X174288500Y-99046000I275500J0D01*
G01*
X174839500Y-99046000D01*
G75*
G02*
X175115000Y-99321500I0J-275500D01*
G01*
X175115000Y-100322500D01*
G75*
G02*
X174839500Y-100598000I-275500J0D01*
G01*
X174288500Y-100598000D01*
G75*
G02*
X174013000Y-100322500I0J275500D01*
G01*
G37*
G36*
G01*
X175913000Y-104640500D02*
X175913000Y-103639500D01*
G75*
G02*
X176188500Y-103364000I275500J0D01*
G01*
X176739500Y-103364000D01*
G75*
G02*
X177015000Y-103639500I0J-275500D01*
G01*
X177015000Y-104640500D01*
G75*
G02*
X176739500Y-104916000I-275500J0D01*
G01*
X176188500Y-104916000D01*
G75*
G02*
X175913000Y-104640500I0J275500D01*
G01*
G37*
G36*
G01*
X174013000Y-104640500D02*
X174013000Y-103639500D01*
G75*
G02*
X174288500Y-103364000I275500J0D01*
G01*
X174839500Y-103364000D01*
G75*
G02*
X175115000Y-103639500I0J-275500D01*
G01*
X175115000Y-104640500D01*
G75*
G02*
X174839500Y-104916000I-275500J0D01*
G01*
X174288500Y-104916000D01*
G75*
G02*
X174013000Y-104640500I0J275500D01*
G01*
G37*
G36*
G01*
X169395000Y-111069000D02*
X169395000Y-112070000D01*
G75*
G02*
X169119500Y-112345500I-275500J0D01*
G01*
X168568500Y-112345500D01*
G75*
G02*
X168293000Y-112070000I0J275500D01*
G01*
X168293000Y-111069000D01*
G75*
G02*
X168568500Y-110793500I275500J0D01*
G01*
X169119500Y-110793500D01*
G75*
G02*
X169395000Y-111069000I0J-275500D01*
G01*
G37*
G36*
G01*
X167495000Y-111069000D02*
X167495000Y-112070000D01*
G75*
G02*
X167219500Y-112345500I-275500J0D01*
G01*
X166668500Y-112345500D01*
G75*
G02*
X166393000Y-112070000I0J275500D01*
G01*
X166393000Y-111069000D01*
G75*
G02*
X166668500Y-110793500I275500J0D01*
G01*
X167219500Y-110793500D01*
G75*
G02*
X167495000Y-111069000I0J-275500D01*
G01*
G37*
G36*
G01*
X169395000Y-113291500D02*
X169395000Y-114292500D01*
G75*
G02*
X169119500Y-114568000I-275500J0D01*
G01*
X168568500Y-114568000D01*
G75*
G02*
X168293000Y-114292500I0J275500D01*
G01*
X168293000Y-113291500D01*
G75*
G02*
X168568500Y-113016000I275500J0D01*
G01*
X169119500Y-113016000D01*
G75*
G02*
X169395000Y-113291500I0J-275500D01*
G01*
G37*
G36*
G01*
X167495000Y-113291500D02*
X167495000Y-114292500D01*
G75*
G02*
X167219500Y-114568000I-275500J0D01*
G01*
X166668500Y-114568000D01*
G75*
G02*
X166393000Y-114292500I0J275500D01*
G01*
X166393000Y-113291500D01*
G75*
G02*
X166668500Y-113016000I275500J0D01*
G01*
X167219500Y-113016000D01*
G75*
G02*
X167495000Y-113291500I0J-275500D01*
G01*
G37*
D10*
G36*
X174824606Y-148932000D02*
G01*
X174824874Y-148933000D01*
X174824874Y-149883000D01*
X175202874Y-149883000D01*
X175202874Y-148933000D01*
X175203874Y-148931268D01*
X175204874Y-148931000D01*
X175323000Y-148931000D01*
X175324732Y-148932000D01*
X175325000Y-148933000D01*
X175325000Y-149883000D01*
X175703000Y-149883000D01*
X175703000Y-148933000D01*
X175704000Y-148931268D01*
X175705000Y-148931000D01*
X175823126Y-148931000D01*
X175824858Y-148932000D01*
X175825126Y-148933000D01*
X175825126Y-149883000D01*
X176203126Y-149883000D01*
X176203126Y-148933000D01*
X176204126Y-148931268D01*
X176205126Y-148931000D01*
X176323252Y-148931000D01*
X176324984Y-148932000D01*
X176325252Y-148933000D01*
X176325252Y-149883000D01*
X176703252Y-149883000D01*
X176703252Y-149818000D01*
X176704252Y-149816268D01*
X176706252Y-149816268D01*
X176707242Y-149817804D01*
X176709624Y-149841991D01*
X176716624Y-149865066D01*
X176727989Y-149886330D01*
X176743284Y-149904967D01*
X176761921Y-149920262D01*
X176783185Y-149931627D01*
X176806260Y-149938627D01*
X176830447Y-149941009D01*
X176832073Y-149942174D01*
X176831877Y-149944164D01*
X176830251Y-149944999D01*
X176765000Y-149944999D01*
X176765000Y-150322999D01*
X177715000Y-150322999D01*
X177716732Y-150323999D01*
X177717000Y-150324999D01*
X177717000Y-150443001D01*
X177716000Y-150444733D01*
X177715000Y-150445001D01*
X176765000Y-150445001D01*
X176765000Y-150823001D01*
X177715000Y-150823001D01*
X177716732Y-150824001D01*
X177717000Y-150825001D01*
X177717000Y-150943000D01*
X177716000Y-150944732D01*
X177715000Y-150945000D01*
X176765000Y-150945000D01*
X176765000Y-151323000D01*
X177715000Y-151323000D01*
X177716732Y-151324000D01*
X177717000Y-151325000D01*
X177717000Y-151442999D01*
X177716000Y-151444731D01*
X177715000Y-151444999D01*
X176765000Y-151444999D01*
X176765000Y-151822999D01*
X177715000Y-151822999D01*
X177716732Y-151823999D01*
X177717000Y-151824999D01*
X177717000Y-151943001D01*
X177716000Y-151944733D01*
X177715000Y-151945001D01*
X176765000Y-151945001D01*
X176765000Y-152323001D01*
X176830251Y-152323001D01*
X176831983Y-152324001D01*
X176831983Y-152326001D01*
X176830447Y-152326991D01*
X176806260Y-152329373D01*
X176783185Y-152336373D01*
X176761921Y-152347738D01*
X176743284Y-152363033D01*
X176727989Y-152381670D01*
X176716624Y-152402934D01*
X176709624Y-152426009D01*
X176707242Y-152450196D01*
X176706077Y-152451822D01*
X176704087Y-152451626D01*
X176703252Y-152450000D01*
X176703252Y-152385000D01*
X176325252Y-152385000D01*
X176325252Y-153335000D01*
X176324252Y-153336732D01*
X176323252Y-153337000D01*
X176205126Y-153337000D01*
X176203394Y-153336000D01*
X176203126Y-153335000D01*
X176203126Y-152385000D01*
X175825126Y-152385000D01*
X175825126Y-153335000D01*
X175824126Y-153336732D01*
X175823126Y-153337000D01*
X175705000Y-153337000D01*
X175703268Y-153336000D01*
X175703000Y-153335000D01*
X175703000Y-152385000D01*
X175325000Y-152385000D01*
X175325000Y-153335000D01*
X175324000Y-153336732D01*
X175323000Y-153337000D01*
X175204874Y-153337000D01*
X175203142Y-153336000D01*
X175202874Y-153335000D01*
X175202874Y-152385000D01*
X174824874Y-152385000D01*
X174824874Y-153335000D01*
X174823874Y-153336732D01*
X174822874Y-153337000D01*
X174704748Y-153337000D01*
X174703016Y-153336000D01*
X174702748Y-153335000D01*
X174702748Y-152385000D01*
X174324748Y-152385000D01*
X174324748Y-152450000D01*
X174323748Y-152451732D01*
X174321748Y-152451732D01*
X174320758Y-152450196D01*
X174318376Y-152426009D01*
X174311376Y-152402934D01*
X174300011Y-152381670D01*
X174284716Y-152363033D01*
X174266079Y-152347738D01*
X174244815Y-152336373D01*
X174221740Y-152329373D01*
X174197553Y-152326991D01*
X174195927Y-152325826D01*
X174196123Y-152323836D01*
X174197749Y-152323001D01*
X174263000Y-152323001D01*
X174263000Y-151945001D01*
X173313000Y-151945001D01*
X173311268Y-151944001D01*
X173311000Y-151943001D01*
X173311000Y-151824999D01*
X173312000Y-151823267D01*
X173313000Y-151822999D01*
X174263000Y-151822999D01*
X174263000Y-151444999D01*
X173313000Y-151444999D01*
X173311268Y-151443999D01*
X173311000Y-151442999D01*
X173311000Y-151325000D01*
X173312000Y-151323268D01*
X173313000Y-151323000D01*
X174263000Y-151323000D01*
X174263000Y-150945000D01*
X173313000Y-150945000D01*
X173311268Y-150944000D01*
X173311000Y-150943000D01*
X173311000Y-150825001D01*
X173312000Y-150823269D01*
X173313000Y-150823001D01*
X174263000Y-150823001D01*
X174263000Y-150445001D01*
X173313000Y-150445001D01*
X173311268Y-150444001D01*
X173311000Y-150443001D01*
X173311000Y-150324999D01*
X173312000Y-150323267D01*
X173313000Y-150322999D01*
X174263000Y-150322999D01*
X174263000Y-150060000D01*
X174440000Y-150060000D01*
X174440000Y-152208000D01*
X176588000Y-152208000D01*
X176588000Y-150060000D01*
X174440000Y-150060000D01*
X174263000Y-150060000D01*
X174263000Y-149944999D01*
X174197749Y-149944999D01*
X174196017Y-149943999D01*
X174196017Y-149941999D01*
X174197553Y-149941009D01*
X174221740Y-149938627D01*
X174244815Y-149931627D01*
X174266079Y-149920262D01*
X174284716Y-149904967D01*
X174300011Y-149886330D01*
X174311376Y-149865066D01*
X174318376Y-149841991D01*
X174320758Y-149817804D01*
X174321923Y-149816178D01*
X174323913Y-149816374D01*
X174324748Y-149818000D01*
X174324748Y-149883000D01*
X174702748Y-149883000D01*
X174702748Y-148933000D01*
X174703748Y-148931268D01*
X174704748Y-148931000D01*
X174822874Y-148931000D01*
X174824606Y-148932000D01*
G37*
G36*
X215464606Y-148932000D02*
G01*
X215464874Y-148933000D01*
X215464874Y-149883000D01*
X215842874Y-149883000D01*
X215842874Y-148933000D01*
X215843874Y-148931268D01*
X215844874Y-148931000D01*
X215963000Y-148931000D01*
X215964732Y-148932000D01*
X215965000Y-148933000D01*
X215965000Y-149883000D01*
X216343000Y-149883000D01*
X216343000Y-148933000D01*
X216344000Y-148931268D01*
X216345000Y-148931000D01*
X216463126Y-148931000D01*
X216464858Y-148932000D01*
X216465126Y-148933000D01*
X216465126Y-149883000D01*
X216843126Y-149883000D01*
X216843126Y-148933000D01*
X216844126Y-148931268D01*
X216845126Y-148931000D01*
X216963252Y-148931000D01*
X216964984Y-148932000D01*
X216965252Y-148933000D01*
X216965252Y-149883000D01*
X217343252Y-149883000D01*
X217343252Y-149818000D01*
X217344252Y-149816268D01*
X217346252Y-149816268D01*
X217347242Y-149817804D01*
X217349624Y-149841991D01*
X217356624Y-149865066D01*
X217367989Y-149886330D01*
X217383284Y-149904967D01*
X217401921Y-149920262D01*
X217423185Y-149931627D01*
X217446260Y-149938627D01*
X217470447Y-149941009D01*
X217472073Y-149942174D01*
X217471877Y-149944164D01*
X217470251Y-149944999D01*
X217405000Y-149944999D01*
X217405000Y-150322999D01*
X218355000Y-150322999D01*
X218356732Y-150323999D01*
X218357000Y-150324999D01*
X218357000Y-150443001D01*
X218356000Y-150444733D01*
X218355000Y-150445001D01*
X217405000Y-150445001D01*
X217405000Y-150823001D01*
X218355000Y-150823001D01*
X218356732Y-150824001D01*
X218357000Y-150825001D01*
X218357000Y-150943000D01*
X218356000Y-150944732D01*
X218355000Y-150945000D01*
X217405000Y-150945000D01*
X217405000Y-151323000D01*
X218355000Y-151323000D01*
X218356732Y-151324000D01*
X218357000Y-151325000D01*
X218357000Y-151442999D01*
X218356000Y-151444731D01*
X218355000Y-151444999D01*
X217405000Y-151444999D01*
X217405000Y-151822999D01*
X218355000Y-151822999D01*
X218356732Y-151823999D01*
X218357000Y-151824999D01*
X218357000Y-151943001D01*
X218356000Y-151944733D01*
X218355000Y-151945001D01*
X217405000Y-151945001D01*
X217405000Y-152323001D01*
X217470251Y-152323001D01*
X217471983Y-152324001D01*
X217471983Y-152326001D01*
X217470447Y-152326991D01*
X217446260Y-152329373D01*
X217423185Y-152336373D01*
X217401921Y-152347738D01*
X217383284Y-152363033D01*
X217367989Y-152381670D01*
X217356624Y-152402934D01*
X217349624Y-152426009D01*
X217347242Y-152450196D01*
X217346077Y-152451822D01*
X217344087Y-152451626D01*
X217343252Y-152450000D01*
X217343252Y-152385000D01*
X216965252Y-152385000D01*
X216965252Y-153335000D01*
X216964252Y-153336732D01*
X216963252Y-153337000D01*
X216845126Y-153337000D01*
X216843394Y-153336000D01*
X216843126Y-153335000D01*
X216843126Y-152385000D01*
X216465126Y-152385000D01*
X216465126Y-153335000D01*
X216464126Y-153336732D01*
X216463126Y-153337000D01*
X216345000Y-153337000D01*
X216343268Y-153336000D01*
X216343000Y-153335000D01*
X216343000Y-152385000D01*
X215965000Y-152385000D01*
X215965000Y-153335000D01*
X215964000Y-153336732D01*
X215963000Y-153337000D01*
X215844874Y-153337000D01*
X215843142Y-153336000D01*
X215842874Y-153335000D01*
X215842874Y-152385000D01*
X215464874Y-152385000D01*
X215464874Y-153335000D01*
X215463874Y-153336732D01*
X215462874Y-153337000D01*
X215344748Y-153337000D01*
X215343016Y-153336000D01*
X215342748Y-153335000D01*
X215342748Y-152385000D01*
X214964748Y-152385000D01*
X214964748Y-152450000D01*
X214963748Y-152451732D01*
X214961748Y-152451732D01*
X214960758Y-152450196D01*
X214958376Y-152426009D01*
X214951376Y-152402934D01*
X214940011Y-152381670D01*
X214924716Y-152363033D01*
X214906079Y-152347738D01*
X214884815Y-152336373D01*
X214861740Y-152329373D01*
X214837553Y-152326991D01*
X214835927Y-152325826D01*
X214836123Y-152323836D01*
X214837749Y-152323001D01*
X214903000Y-152323001D01*
X214903000Y-151945001D01*
X213953000Y-151945001D01*
X213951268Y-151944001D01*
X213951000Y-151943001D01*
X213951000Y-151824999D01*
X213952000Y-151823267D01*
X213953000Y-151822999D01*
X214903000Y-151822999D01*
X214903000Y-151444999D01*
X213953000Y-151444999D01*
X213951268Y-151443999D01*
X213951000Y-151442999D01*
X213951000Y-151325000D01*
X213952000Y-151323268D01*
X213953000Y-151323000D01*
X214903000Y-151323000D01*
X214903000Y-150945000D01*
X213953000Y-150945000D01*
X213951268Y-150944000D01*
X213951000Y-150943000D01*
X213951000Y-150825001D01*
X213952000Y-150823269D01*
X213953000Y-150823001D01*
X214903000Y-150823001D01*
X214903000Y-150445001D01*
X213953000Y-150445001D01*
X213951268Y-150444001D01*
X213951000Y-150443001D01*
X213951000Y-150324999D01*
X213952000Y-150323267D01*
X213953000Y-150322999D01*
X214903000Y-150322999D01*
X214903000Y-150060000D01*
X215080000Y-150060000D01*
X215080000Y-152208000D01*
X217228000Y-152208000D01*
X217228000Y-150060000D01*
X215080000Y-150060000D01*
X214903000Y-150060000D01*
X214903000Y-149944999D01*
X214837749Y-149944999D01*
X214836017Y-149943999D01*
X214836017Y-149941999D01*
X214837553Y-149941009D01*
X214861740Y-149938627D01*
X214884815Y-149931627D01*
X214906079Y-149920262D01*
X214924716Y-149904967D01*
X214940011Y-149886330D01*
X214951376Y-149865066D01*
X214958376Y-149841991D01*
X214960758Y-149817804D01*
X214961923Y-149816178D01*
X214963913Y-149816374D01*
X214964748Y-149818000D01*
X214964748Y-149883000D01*
X215342748Y-149883000D01*
X215342748Y-148933000D01*
X215343748Y-148931268D01*
X215344748Y-148931000D01*
X215462874Y-148931000D01*
X215464606Y-148932000D01*
G37*
G36*
X215464606Y-107272000D02*
G01*
X215464874Y-107273000D01*
X215464874Y-108223000D01*
X215842874Y-108223000D01*
X215842874Y-107273000D01*
X215843874Y-107271268D01*
X215844874Y-107271000D01*
X215963000Y-107271000D01*
X215964732Y-107272000D01*
X215965000Y-107273000D01*
X215965000Y-108223000D01*
X216343000Y-108223000D01*
X216343000Y-107273000D01*
X216344000Y-107271268D01*
X216345000Y-107271000D01*
X216463126Y-107271000D01*
X216464858Y-107272000D01*
X216465126Y-107273000D01*
X216465126Y-108223000D01*
X216843126Y-108223000D01*
X216843126Y-107273000D01*
X216844126Y-107271268D01*
X216845126Y-107271000D01*
X216963252Y-107271000D01*
X216964984Y-107272000D01*
X216965252Y-107273000D01*
X216965252Y-108223000D01*
X217343252Y-108223000D01*
X217343252Y-108158000D01*
X217344252Y-108156268D01*
X217346252Y-108156268D01*
X217347242Y-108157804D01*
X217349624Y-108181991D01*
X217356624Y-108205066D01*
X217367989Y-108226330D01*
X217383284Y-108244967D01*
X217401921Y-108260262D01*
X217423185Y-108271627D01*
X217446260Y-108278627D01*
X217470447Y-108281009D01*
X217472073Y-108282174D01*
X217471877Y-108284164D01*
X217470251Y-108284999D01*
X217405000Y-108284999D01*
X217405000Y-108662999D01*
X218355000Y-108662999D01*
X218356732Y-108663999D01*
X218357000Y-108664999D01*
X218357000Y-108783001D01*
X218356000Y-108784733D01*
X218355000Y-108785001D01*
X217405000Y-108785001D01*
X217405000Y-109163001D01*
X218355000Y-109163001D01*
X218356732Y-109164001D01*
X218357000Y-109165001D01*
X218357000Y-109283000D01*
X218356000Y-109284732D01*
X218355000Y-109285000D01*
X217405000Y-109285000D01*
X217405000Y-109663000D01*
X218355000Y-109663000D01*
X218356732Y-109664000D01*
X218357000Y-109665000D01*
X218357000Y-109782999D01*
X218356000Y-109784731D01*
X218355000Y-109784999D01*
X217405000Y-109784999D01*
X217405000Y-110162999D01*
X218355000Y-110162999D01*
X218356732Y-110163999D01*
X218357000Y-110164999D01*
X218357000Y-110283001D01*
X218356000Y-110284733D01*
X218355000Y-110285001D01*
X217405000Y-110285001D01*
X217405000Y-110663001D01*
X217470251Y-110663001D01*
X217471983Y-110664001D01*
X217471983Y-110666001D01*
X217470447Y-110666991D01*
X217446260Y-110669373D01*
X217423185Y-110676373D01*
X217401921Y-110687738D01*
X217383284Y-110703033D01*
X217367989Y-110721670D01*
X217356624Y-110742934D01*
X217349624Y-110766009D01*
X217347242Y-110790196D01*
X217346077Y-110791822D01*
X217344087Y-110791626D01*
X217343252Y-110790000D01*
X217343252Y-110725000D01*
X216965252Y-110725000D01*
X216965252Y-111675000D01*
X216964252Y-111676732D01*
X216963252Y-111677000D01*
X216845126Y-111677000D01*
X216843394Y-111676000D01*
X216843126Y-111675000D01*
X216843126Y-110725000D01*
X216465126Y-110725000D01*
X216465126Y-111675000D01*
X216464126Y-111676732D01*
X216463126Y-111677000D01*
X216345000Y-111677000D01*
X216343268Y-111676000D01*
X216343000Y-111675000D01*
X216343000Y-110725000D01*
X215965000Y-110725000D01*
X215965000Y-111675000D01*
X215964000Y-111676732D01*
X215963000Y-111677000D01*
X215844874Y-111677000D01*
X215843142Y-111676000D01*
X215842874Y-111675000D01*
X215842874Y-110725000D01*
X215464874Y-110725000D01*
X215464874Y-111675000D01*
X215463874Y-111676732D01*
X215462874Y-111677000D01*
X215344748Y-111677000D01*
X215343016Y-111676000D01*
X215342748Y-111675000D01*
X215342748Y-110725000D01*
X214964748Y-110725000D01*
X214964748Y-110790000D01*
X214963748Y-110791732D01*
X214961748Y-110791732D01*
X214960758Y-110790196D01*
X214958376Y-110766009D01*
X214951376Y-110742934D01*
X214940011Y-110721670D01*
X214924716Y-110703033D01*
X214906079Y-110687738D01*
X214884815Y-110676373D01*
X214861740Y-110669373D01*
X214837553Y-110666991D01*
X214835927Y-110665826D01*
X214836123Y-110663836D01*
X214837749Y-110663001D01*
X214903000Y-110663001D01*
X214903000Y-110285001D01*
X213953000Y-110285001D01*
X213951268Y-110284001D01*
X213951000Y-110283001D01*
X213951000Y-110164999D01*
X213952000Y-110163267D01*
X213953000Y-110162999D01*
X214903000Y-110162999D01*
X214903000Y-109784999D01*
X213953000Y-109784999D01*
X213951268Y-109783999D01*
X213951000Y-109782999D01*
X213951000Y-109665000D01*
X213952000Y-109663268D01*
X213953000Y-109663000D01*
X214903000Y-109663000D01*
X214903000Y-109285000D01*
X213953000Y-109285000D01*
X213951268Y-109284000D01*
X213951000Y-109283000D01*
X213951000Y-109165001D01*
X213952000Y-109163269D01*
X213953000Y-109163001D01*
X214903000Y-109163001D01*
X214903000Y-108785001D01*
X213953000Y-108785001D01*
X213951268Y-108784001D01*
X213951000Y-108783001D01*
X213951000Y-108664999D01*
X213952000Y-108663267D01*
X213953000Y-108662999D01*
X214903000Y-108662999D01*
X214903000Y-108400000D01*
X215080000Y-108400000D01*
X215080000Y-110548000D01*
X217228000Y-110548000D01*
X217228000Y-108400000D01*
X215080000Y-108400000D01*
X214903000Y-108400000D01*
X214903000Y-108284999D01*
X214837749Y-108284999D01*
X214836017Y-108283999D01*
X214836017Y-108281999D01*
X214837553Y-108281009D01*
X214861740Y-108278627D01*
X214884815Y-108271627D01*
X214906079Y-108260262D01*
X214924716Y-108244967D01*
X214940011Y-108226330D01*
X214951376Y-108205066D01*
X214958376Y-108181991D01*
X214960758Y-108157804D01*
X214961923Y-108156178D01*
X214963913Y-108156374D01*
X214964748Y-108158000D01*
X214964748Y-108223000D01*
X215342748Y-108223000D01*
X215342748Y-107273000D01*
X215343748Y-107271268D01*
X215344748Y-107271000D01*
X215462874Y-107271000D01*
X215464606Y-107272000D01*
G37*
G36*
X174824606Y-107272000D02*
G01*
X174824874Y-107273000D01*
X174824874Y-108223000D01*
X175202874Y-108223000D01*
X175202874Y-107273000D01*
X175203874Y-107271268D01*
X175204874Y-107271000D01*
X175323000Y-107271000D01*
X175324732Y-107272000D01*
X175325000Y-107273000D01*
X175325000Y-108223000D01*
X175703000Y-108223000D01*
X175703000Y-107273000D01*
X175704000Y-107271268D01*
X175705000Y-107271000D01*
X175823126Y-107271000D01*
X175824858Y-107272000D01*
X175825126Y-107273000D01*
X175825126Y-108223000D01*
X176203126Y-108223000D01*
X176203126Y-107273000D01*
X176204126Y-107271268D01*
X176205126Y-107271000D01*
X176323252Y-107271000D01*
X176324984Y-107272000D01*
X176325252Y-107273000D01*
X176325252Y-108223000D01*
X176703252Y-108223000D01*
X176703252Y-108158000D01*
X176704252Y-108156268D01*
X176706252Y-108156268D01*
X176707242Y-108157804D01*
X176709624Y-108181991D01*
X176716624Y-108205066D01*
X176727989Y-108226330D01*
X176743284Y-108244967D01*
X176761921Y-108260262D01*
X176783185Y-108271627D01*
X176806260Y-108278627D01*
X176830447Y-108281009D01*
X176832073Y-108282174D01*
X176831877Y-108284164D01*
X176830251Y-108284999D01*
X176765000Y-108284999D01*
X176765000Y-108662999D01*
X177715000Y-108662999D01*
X177716732Y-108663999D01*
X177717000Y-108664999D01*
X177717000Y-108783001D01*
X177716000Y-108784733D01*
X177715000Y-108785001D01*
X176765000Y-108785001D01*
X176765000Y-109163001D01*
X177715000Y-109163001D01*
X177716732Y-109164001D01*
X177717000Y-109165001D01*
X177717000Y-109283000D01*
X177716000Y-109284732D01*
X177715000Y-109285000D01*
X176765000Y-109285000D01*
X176765000Y-109663000D01*
X177715000Y-109663000D01*
X177716732Y-109664000D01*
X177717000Y-109665000D01*
X177717000Y-109782999D01*
X177716000Y-109784731D01*
X177715000Y-109784999D01*
X176765000Y-109784999D01*
X176765000Y-110162999D01*
X177715000Y-110162999D01*
X177716732Y-110163999D01*
X177717000Y-110164999D01*
X177717000Y-110283001D01*
X177716000Y-110284733D01*
X177715000Y-110285001D01*
X176765000Y-110285001D01*
X176765000Y-110663001D01*
X176830251Y-110663001D01*
X176831983Y-110664001D01*
X176831983Y-110666001D01*
X176830447Y-110666991D01*
X176806260Y-110669373D01*
X176783185Y-110676373D01*
X176761921Y-110687738D01*
X176743284Y-110703033D01*
X176727989Y-110721670D01*
X176716624Y-110742934D01*
X176709624Y-110766009D01*
X176707242Y-110790196D01*
X176706077Y-110791822D01*
X176704087Y-110791626D01*
X176703252Y-110790000D01*
X176703252Y-110725000D01*
X176325252Y-110725000D01*
X176325252Y-111675000D01*
X176324252Y-111676732D01*
X176323252Y-111677000D01*
X176205126Y-111677000D01*
X176203394Y-111676000D01*
X176203126Y-111675000D01*
X176203126Y-110725000D01*
X175825126Y-110725000D01*
X175825126Y-111675000D01*
X175824126Y-111676732D01*
X175823126Y-111677000D01*
X175705000Y-111677000D01*
X175703268Y-111676000D01*
X175703000Y-111675000D01*
X175703000Y-110725000D01*
X175325000Y-110725000D01*
X175325000Y-111675000D01*
X175324000Y-111676732D01*
X175323000Y-111677000D01*
X175204874Y-111677000D01*
X175203142Y-111676000D01*
X175202874Y-111675000D01*
X175202874Y-110725000D01*
X174824874Y-110725000D01*
X174824874Y-111675000D01*
X174823874Y-111676732D01*
X174822874Y-111677000D01*
X174704748Y-111677000D01*
X174703016Y-111676000D01*
X174702748Y-111675000D01*
X174702748Y-110725000D01*
X174324748Y-110725000D01*
X174324748Y-110790000D01*
X174323748Y-110791732D01*
X174321748Y-110791732D01*
X174320758Y-110790196D01*
X174318376Y-110766009D01*
X174311376Y-110742934D01*
X174300011Y-110721670D01*
X174284716Y-110703033D01*
X174266079Y-110687738D01*
X174244815Y-110676373D01*
X174221740Y-110669373D01*
X174197553Y-110666991D01*
X174195927Y-110665826D01*
X174196123Y-110663836D01*
X174197749Y-110663001D01*
X174263000Y-110663001D01*
X174263000Y-110285001D01*
X173313000Y-110285001D01*
X173311268Y-110284001D01*
X173311000Y-110283001D01*
X173311000Y-110164999D01*
X173312000Y-110163267D01*
X173313000Y-110162999D01*
X174263000Y-110162999D01*
X174263000Y-109784999D01*
X173313000Y-109784999D01*
X173311268Y-109783999D01*
X173311000Y-109782999D01*
X173311000Y-109665000D01*
X173312000Y-109663268D01*
X173313000Y-109663000D01*
X174263000Y-109663000D01*
X174263000Y-109285000D01*
X173313000Y-109285000D01*
X173311268Y-109284000D01*
X173311000Y-109283000D01*
X173311000Y-109165001D01*
X173312000Y-109163269D01*
X173313000Y-109163001D01*
X174263000Y-109163001D01*
X174263000Y-108785001D01*
X173313000Y-108785001D01*
X173311268Y-108784001D01*
X173311000Y-108783001D01*
X173311000Y-108664999D01*
X173312000Y-108663267D01*
X173313000Y-108662999D01*
X174263000Y-108662999D01*
X174263000Y-108400000D01*
X174440000Y-108400000D01*
X174440000Y-110548000D01*
X176588000Y-110548000D01*
X176588000Y-108400000D01*
X174440000Y-108400000D01*
X174263000Y-108400000D01*
X174263000Y-108284999D01*
X174197749Y-108284999D01*
X174196017Y-108283999D01*
X174196017Y-108281999D01*
X174197553Y-108281009D01*
X174221740Y-108278627D01*
X174244815Y-108271627D01*
X174266079Y-108260262D01*
X174284716Y-108244967D01*
X174300011Y-108226330D01*
X174311376Y-108205066D01*
X174318376Y-108181991D01*
X174320758Y-108157804D01*
X174321923Y-108156178D01*
X174323913Y-108156374D01*
X174324748Y-108158000D01*
X174324748Y-108223000D01*
X174702748Y-108223000D01*
X174702748Y-107273000D01*
X174703748Y-107271268D01*
X174704748Y-107271000D01*
X174822874Y-107271000D01*
X174824606Y-107272000D01*
G37*
M02*
