G04 #@! TF.GenerationSoftware,KiCad,Pcbnew,(5.1.10)-1*
G04 #@! TF.CreationDate,2021-08-11T14:43:19-03:00*
G04 #@! TF.ProjectId,BQ25505,42513235-3530-4352-9e6b-696361645f70,rev?*
G04 #@! TF.SameCoordinates,Original*
G04 #@! TF.FileFunction,Profile,NP*
%FSLAX46Y46*%
G04 Gerber Fmt 4.6, Leading zero omitted, Abs format (unit mm)*
G04 Created by KiCad (PCBNEW (5.1.10)-1) date 2021-08-11 14:43:19*
%MOMM*%
%LPD*%
G01*
G04 APERTURE LIST*
G04 #@! TA.AperFunction,Profile*
%ADD10C,0.050000*%
G04 #@! TD*
G04 APERTURE END LIST*
D10*
X234950000Y-169422000D02*
X234950000Y-127766000D01*
X234950000Y-127762000D02*
X234950000Y-86106000D01*
X194310000Y-169422000D02*
X194310000Y-127766000D01*
X194310000Y-169168000D02*
X194310000Y-169422000D01*
X194310000Y-127508000D02*
X194310000Y-127762000D01*
X153670000Y-169168000D02*
X153670000Y-169422000D01*
X194310000Y-127766000D02*
X194310000Y-169168000D01*
X194310000Y-86106000D02*
X194310000Y-127508000D01*
X153670000Y-127766000D02*
X153670000Y-169168000D01*
X234950000Y-127766000D02*
X194310000Y-127766000D01*
X234950000Y-86106000D02*
X194310000Y-86106000D01*
X194310000Y-127766000D02*
X153670000Y-127766000D01*
X194310000Y-169422000D02*
X234950000Y-169422000D01*
X194310000Y-127762000D02*
X234950000Y-127762000D01*
X153670000Y-169422000D02*
X194310000Y-169422000D01*
X153670000Y-127508000D02*
X153670000Y-127762000D01*
X153670000Y-86106000D02*
X153670000Y-127508000D01*
X194310000Y-86106000D02*
X153670000Y-86106000D01*
X194310000Y-127762000D02*
X194310000Y-86106000D01*
X153670000Y-127762000D02*
X194310000Y-127762000D01*
M02*
