G04 #@! TF.GenerationSoftware,KiCad,Pcbnew,(5.1.10)-1*
G04 #@! TF.CreationDate,2021-07-06T21:05:29-03:00*
G04 #@! TF.ProjectId,BQ25505,42513235-3530-4352-9e6b-696361645f70,rev?*
G04 #@! TF.SameCoordinates,Original*
G04 #@! TF.FileFunction,Copper,L2,Bot*
G04 #@! TF.FilePolarity,Positive*
%FSLAX46Y46*%
G04 Gerber Fmt 4.6, Leading zero omitted, Abs format (unit mm)*
G04 Created by KiCad (PCBNEW (5.1.10)-1) date 2021-07-06 21:05:29*
%MOMM*%
%LPD*%
G01*
G04 APERTURE LIST*
G04 #@! TA.AperFunction,ComponentPad*
%ADD10O,1.700000X1.700000*%
G04 #@! TD*
G04 #@! TA.AperFunction,ComponentPad*
%ADD11R,1.700000X1.700000*%
G04 #@! TD*
G04 #@! TA.AperFunction,ComponentPad*
%ADD12O,3.000000X3.000000*%
G04 #@! TD*
G04 #@! TA.AperFunction,ComponentPad*
%ADD13R,3.000000X3.000000*%
G04 #@! TD*
G04 #@! TA.AperFunction,ComponentPad*
%ADD14C,3.000000*%
G04 #@! TD*
G04 #@! TA.AperFunction,ComponentPad*
%ADD15C,0.508000*%
G04 #@! TD*
G04 #@! TA.AperFunction,ViaPad*
%ADD16C,0.800000*%
G04 #@! TD*
G04 #@! TA.AperFunction,ViaPad*
%ADD17C,0.600000*%
G04 #@! TD*
G04 #@! TA.AperFunction,Conductor*
%ADD18C,0.280000*%
G04 #@! TD*
G04 #@! TA.AperFunction,Conductor*
%ADD19C,0.254000*%
G04 #@! TD*
G04 #@! TA.AperFunction,Conductor*
%ADD20C,0.100000*%
G04 #@! TD*
G04 APERTURE END LIST*
D10*
X183896000Y-121158000D03*
X181356000Y-121158000D03*
D11*
X178816000Y-121158000D03*
D12*
X158496000Y-113944400D03*
D13*
X158496000Y-119024400D03*
D14*
X158496000Y-99720400D03*
X158496000Y-104800400D03*
D10*
X172974000Y-121158000D03*
X170434000Y-121158000D03*
D11*
X167894000Y-121158000D03*
D10*
X179425600Y-93675200D03*
D11*
X181965600Y-93675200D03*
D10*
X188252100Y-109410500D03*
X188252100Y-111950500D03*
D11*
X188252100Y-114490500D03*
D10*
X163525200Y-93675200D03*
D11*
X166065200Y-93675200D03*
D10*
X157226000Y-93675200D03*
D11*
X159766000Y-93675200D03*
D10*
X185724800Y-93675200D03*
D11*
X188264800Y-93675200D03*
D15*
X175120300Y-109867700D03*
X175120300Y-109080300D03*
X175907700Y-109867700D03*
X175907700Y-109080300D03*
D11*
X174904400Y-93675200D03*
D10*
X172364400Y-93675200D03*
X169824400Y-93675200D03*
X188252100Y-100393500D03*
X188252100Y-102933500D03*
D11*
X188252100Y-105473500D03*
D16*
X161798000Y-124968000D03*
X173990000Y-124968000D03*
X186182000Y-124968000D03*
X192786000Y-118618000D03*
X192786000Y-107061000D03*
X192786000Y-101282500D03*
X192786000Y-95504000D03*
X185928000Y-88646000D03*
X182335710Y-88646000D03*
X178743425Y-88646000D03*
X175151140Y-88646000D03*
X171558855Y-88646000D03*
X167966570Y-88646000D03*
X164374285Y-88646000D03*
X160782000Y-88646000D03*
X167386000Y-96012000D03*
X177292000Y-96266000D03*
X164084000Y-120142000D03*
X192786000Y-112839500D03*
X167894000Y-124968000D03*
X180086000Y-124968000D03*
D17*
X176199801Y-112903000D03*
X177164996Y-112877600D03*
X179070000Y-109169198D03*
X178993596Y-107924406D03*
D18*
X167944801Y-121158000D02*
X167894000Y-121158000D01*
X176199801Y-112903000D02*
X167944801Y-121158000D01*
X177165000Y-114427000D02*
X170434000Y-121158000D01*
X177165000Y-112877604D02*
X177165000Y-114427000D01*
X177164996Y-112877600D02*
X177165000Y-112877604D01*
X179469999Y-109569197D02*
X179070000Y-109169198D01*
X179469999Y-114662001D02*
X172974000Y-121158000D01*
X179469999Y-109569197D02*
X179469999Y-114662001D01*
X185724800Y-93675200D02*
X185724800Y-101193202D01*
X185724800Y-101193202D02*
X178993596Y-107924406D01*
D19*
X193650000Y-127102000D02*
X154330000Y-127102000D01*
X154330000Y-124249721D01*
X154837000Y-124249721D01*
X154837000Y-124670279D01*
X154919047Y-125082756D01*
X155079988Y-125471302D01*
X155313637Y-125820983D01*
X155611017Y-126118363D01*
X155960698Y-126352012D01*
X156349244Y-126512953D01*
X156761721Y-126595000D01*
X157182279Y-126595000D01*
X157594756Y-126512953D01*
X157983302Y-126352012D01*
X158332983Y-126118363D01*
X158630363Y-125820983D01*
X158864012Y-125471302D01*
X159024953Y-125082756D01*
X159107000Y-124670279D01*
X159107000Y-124249721D01*
X188873000Y-124249721D01*
X188873000Y-124670279D01*
X188955047Y-125082756D01*
X189115988Y-125471302D01*
X189349637Y-125820983D01*
X189647017Y-126118363D01*
X189996698Y-126352012D01*
X190385244Y-126512953D01*
X190797721Y-126595000D01*
X191218279Y-126595000D01*
X191630756Y-126512953D01*
X192019302Y-126352012D01*
X192368983Y-126118363D01*
X192666363Y-125820983D01*
X192900012Y-125471302D01*
X193060953Y-125082756D01*
X193143000Y-124670279D01*
X193143000Y-124249721D01*
X193060953Y-123837244D01*
X192900012Y-123448698D01*
X192666363Y-123099017D01*
X192368983Y-122801637D01*
X192019302Y-122567988D01*
X191630756Y-122407047D01*
X191218279Y-122325000D01*
X190797721Y-122325000D01*
X190385244Y-122407047D01*
X189996698Y-122567988D01*
X189647017Y-122801637D01*
X189349637Y-123099017D01*
X189115988Y-123448698D01*
X188955047Y-123837244D01*
X188873000Y-124249721D01*
X159107000Y-124249721D01*
X159024953Y-123837244D01*
X158864012Y-123448698D01*
X158630363Y-123099017D01*
X158332983Y-122801637D01*
X157983302Y-122567988D01*
X157594756Y-122407047D01*
X157182279Y-122325000D01*
X156761721Y-122325000D01*
X156349244Y-122407047D01*
X155960698Y-122567988D01*
X155611017Y-122801637D01*
X155313637Y-123099017D01*
X155079988Y-123448698D01*
X154919047Y-123837244D01*
X154837000Y-124249721D01*
X154330000Y-124249721D01*
X154330000Y-120524400D01*
X156357928Y-120524400D01*
X156370188Y-120648882D01*
X156406498Y-120768580D01*
X156465463Y-120878894D01*
X156544815Y-120975585D01*
X156641506Y-121054937D01*
X156751820Y-121113902D01*
X156871518Y-121150212D01*
X156996000Y-121162472D01*
X158210250Y-121159400D01*
X158369000Y-121000650D01*
X158369000Y-119151400D01*
X158623000Y-119151400D01*
X158623000Y-121000650D01*
X158781750Y-121159400D01*
X159996000Y-121162472D01*
X160120482Y-121150212D01*
X160240180Y-121113902D01*
X160350494Y-121054937D01*
X160447185Y-120975585D01*
X160526537Y-120878894D01*
X160585502Y-120768580D01*
X160621812Y-120648882D01*
X160634072Y-120524400D01*
X160633525Y-120308000D01*
X166405928Y-120308000D01*
X166405928Y-122008000D01*
X166418188Y-122132482D01*
X166454498Y-122252180D01*
X166513463Y-122362494D01*
X166592815Y-122459185D01*
X166689506Y-122538537D01*
X166799820Y-122597502D01*
X166919518Y-122633812D01*
X167044000Y-122646072D01*
X168744000Y-122646072D01*
X168868482Y-122633812D01*
X168988180Y-122597502D01*
X169098494Y-122538537D01*
X169195185Y-122459185D01*
X169274537Y-122362494D01*
X169333502Y-122252180D01*
X169355513Y-122179620D01*
X169487368Y-122311475D01*
X169730589Y-122473990D01*
X170000842Y-122585932D01*
X170287740Y-122643000D01*
X170580260Y-122643000D01*
X170867158Y-122585932D01*
X171137411Y-122473990D01*
X171380632Y-122311475D01*
X171587475Y-122104632D01*
X171704000Y-121930240D01*
X171820525Y-122104632D01*
X172027368Y-122311475D01*
X172270589Y-122473990D01*
X172540842Y-122585932D01*
X172827740Y-122643000D01*
X173120260Y-122643000D01*
X173407158Y-122585932D01*
X173677411Y-122473990D01*
X173920632Y-122311475D01*
X174127475Y-122104632D01*
X174192042Y-122008000D01*
X177327928Y-122008000D01*
X177340188Y-122132482D01*
X177376498Y-122252180D01*
X177435463Y-122362494D01*
X177514815Y-122459185D01*
X177611506Y-122538537D01*
X177721820Y-122597502D01*
X177841518Y-122633812D01*
X177966000Y-122646072D01*
X178530250Y-122643000D01*
X178689000Y-122484250D01*
X178689000Y-121285000D01*
X178943000Y-121285000D01*
X178943000Y-122484250D01*
X179101750Y-122643000D01*
X179666000Y-122646072D01*
X179790482Y-122633812D01*
X179910180Y-122597502D01*
X180020494Y-122538537D01*
X180117185Y-122459185D01*
X180196537Y-122362494D01*
X180255502Y-122252180D01*
X180279966Y-122171534D01*
X180355731Y-122255588D01*
X180589080Y-122429641D01*
X180851901Y-122554825D01*
X180999110Y-122599476D01*
X181229000Y-122478155D01*
X181229000Y-121285000D01*
X181483000Y-121285000D01*
X181483000Y-122478155D01*
X181712890Y-122599476D01*
X181860099Y-122554825D01*
X182122920Y-122429641D01*
X182356269Y-122255588D01*
X182551178Y-122039355D01*
X182626000Y-121913745D01*
X182700822Y-122039355D01*
X182895731Y-122255588D01*
X183129080Y-122429641D01*
X183391901Y-122554825D01*
X183539110Y-122599476D01*
X183769000Y-122478155D01*
X183769000Y-121285000D01*
X184023000Y-121285000D01*
X184023000Y-122478155D01*
X184252890Y-122599476D01*
X184400099Y-122554825D01*
X184662920Y-122429641D01*
X184896269Y-122255588D01*
X185091178Y-122039355D01*
X185240157Y-121789252D01*
X185337481Y-121514891D01*
X185216814Y-121285000D01*
X184023000Y-121285000D01*
X183769000Y-121285000D01*
X181483000Y-121285000D01*
X181229000Y-121285000D01*
X178943000Y-121285000D01*
X178689000Y-121285000D01*
X177489750Y-121285000D01*
X177331000Y-121443750D01*
X177327928Y-122008000D01*
X174192042Y-122008000D01*
X174289990Y-121861411D01*
X174401932Y-121591158D01*
X174459000Y-121304260D01*
X174459000Y-121011740D01*
X174418729Y-120809285D01*
X174920014Y-120308000D01*
X177327928Y-120308000D01*
X177331000Y-120872250D01*
X177489750Y-121031000D01*
X178689000Y-121031000D01*
X178689000Y-119831750D01*
X178943000Y-119831750D01*
X178943000Y-121031000D01*
X181229000Y-121031000D01*
X181229000Y-119837845D01*
X181483000Y-119837845D01*
X181483000Y-121031000D01*
X183769000Y-121031000D01*
X183769000Y-119837845D01*
X184023000Y-119837845D01*
X184023000Y-121031000D01*
X185216814Y-121031000D01*
X185337481Y-120801109D01*
X185240157Y-120526748D01*
X185091178Y-120276645D01*
X184896269Y-120060412D01*
X184662920Y-119886359D01*
X184400099Y-119761175D01*
X184252890Y-119716524D01*
X184023000Y-119837845D01*
X183769000Y-119837845D01*
X183539110Y-119716524D01*
X183391901Y-119761175D01*
X183129080Y-119886359D01*
X182895731Y-120060412D01*
X182700822Y-120276645D01*
X182626000Y-120402255D01*
X182551178Y-120276645D01*
X182356269Y-120060412D01*
X182122920Y-119886359D01*
X181860099Y-119761175D01*
X181712890Y-119716524D01*
X181483000Y-119837845D01*
X181229000Y-119837845D01*
X180999110Y-119716524D01*
X180851901Y-119761175D01*
X180589080Y-119886359D01*
X180355731Y-120060412D01*
X180279966Y-120144466D01*
X180255502Y-120063820D01*
X180196537Y-119953506D01*
X180117185Y-119856815D01*
X180020494Y-119777463D01*
X179910180Y-119718498D01*
X179790482Y-119682188D01*
X179666000Y-119669928D01*
X179101750Y-119673000D01*
X178943000Y-119831750D01*
X178689000Y-119831750D01*
X178530250Y-119673000D01*
X177966000Y-119669928D01*
X177841518Y-119682188D01*
X177721820Y-119718498D01*
X177611506Y-119777463D01*
X177514815Y-119856815D01*
X177435463Y-119953506D01*
X177376498Y-120063820D01*
X177340188Y-120183518D01*
X177327928Y-120308000D01*
X174920014Y-120308000D01*
X179887514Y-115340500D01*
X186764028Y-115340500D01*
X186776288Y-115464982D01*
X186812598Y-115584680D01*
X186871563Y-115694994D01*
X186950915Y-115791685D01*
X187047606Y-115871037D01*
X187157920Y-115930002D01*
X187277618Y-115966312D01*
X187402100Y-115978572D01*
X187966350Y-115975500D01*
X188125100Y-115816750D01*
X188125100Y-114617500D01*
X188379100Y-114617500D01*
X188379100Y-115816750D01*
X188537850Y-115975500D01*
X189102100Y-115978572D01*
X189226582Y-115966312D01*
X189346280Y-115930002D01*
X189456594Y-115871037D01*
X189553285Y-115791685D01*
X189632637Y-115694994D01*
X189691602Y-115584680D01*
X189727912Y-115464982D01*
X189740172Y-115340500D01*
X189737100Y-114776250D01*
X189578350Y-114617500D01*
X188379100Y-114617500D01*
X188125100Y-114617500D01*
X186925850Y-114617500D01*
X186767100Y-114776250D01*
X186764028Y-115340500D01*
X179887514Y-115340500D01*
X179991086Y-115236929D01*
X180020658Y-115212660D01*
X180082657Y-115137113D01*
X180117505Y-115094652D01*
X180189468Y-114960016D01*
X180189469Y-114960015D01*
X180233785Y-114813927D01*
X180244999Y-114700066D01*
X180244999Y-114700064D01*
X180248748Y-114662001D01*
X180244999Y-114623938D01*
X180244999Y-113640500D01*
X186764028Y-113640500D01*
X186767100Y-114204750D01*
X186925850Y-114363500D01*
X188125100Y-114363500D01*
X188125100Y-114343500D01*
X188379100Y-114343500D01*
X188379100Y-114363500D01*
X189578350Y-114363500D01*
X189737100Y-114204750D01*
X189740172Y-113640500D01*
X189727912Y-113516018D01*
X189691602Y-113396320D01*
X189632637Y-113286006D01*
X189553285Y-113189315D01*
X189456594Y-113109963D01*
X189346280Y-113050998D01*
X189273720Y-113028987D01*
X189405575Y-112897132D01*
X189568090Y-112653911D01*
X189680032Y-112383658D01*
X189737100Y-112096760D01*
X189737100Y-111804240D01*
X189680032Y-111517342D01*
X189568090Y-111247089D01*
X189405575Y-111003868D01*
X189198732Y-110797025D01*
X189024340Y-110680500D01*
X189198732Y-110563975D01*
X189405575Y-110357132D01*
X189568090Y-110113911D01*
X189680032Y-109843658D01*
X189737100Y-109556760D01*
X189737100Y-109264240D01*
X189680032Y-108977342D01*
X189568090Y-108707089D01*
X189405575Y-108463868D01*
X189198732Y-108257025D01*
X188955511Y-108094510D01*
X188685258Y-107982568D01*
X188398360Y-107925500D01*
X188105840Y-107925500D01*
X187818942Y-107982568D01*
X187548689Y-108094510D01*
X187305468Y-108257025D01*
X187098625Y-108463868D01*
X186936110Y-108707089D01*
X186824168Y-108977342D01*
X186767100Y-109264240D01*
X186767100Y-109556760D01*
X186824168Y-109843658D01*
X186936110Y-110113911D01*
X187098625Y-110357132D01*
X187305468Y-110563975D01*
X187479860Y-110680500D01*
X187305468Y-110797025D01*
X187098625Y-111003868D01*
X186936110Y-111247089D01*
X186824168Y-111517342D01*
X186767100Y-111804240D01*
X186767100Y-112096760D01*
X186824168Y-112383658D01*
X186936110Y-112653911D01*
X187098625Y-112897132D01*
X187230480Y-113028987D01*
X187157920Y-113050998D01*
X187047606Y-113109963D01*
X186950915Y-113189315D01*
X186871563Y-113286006D01*
X186812598Y-113396320D01*
X186776288Y-113516018D01*
X186764028Y-113640500D01*
X180244999Y-113640500D01*
X180244999Y-109607259D01*
X180248748Y-109569196D01*
X180244999Y-109531132D01*
X180233785Y-109417271D01*
X180189469Y-109271183D01*
X180117505Y-109136547D01*
X180020658Y-109018538D01*
X179991082Y-108994266D01*
X179987885Y-108991069D01*
X179969068Y-108896469D01*
X179898586Y-108726309D01*
X179796262Y-108573170D01*
X179729338Y-108506246D01*
X179822182Y-108367295D01*
X179892664Y-108197135D01*
X179911481Y-108102535D01*
X181690516Y-106323500D01*
X186764028Y-106323500D01*
X186776288Y-106447982D01*
X186812598Y-106567680D01*
X186871563Y-106677994D01*
X186950915Y-106774685D01*
X187047606Y-106854037D01*
X187157920Y-106913002D01*
X187277618Y-106949312D01*
X187402100Y-106961572D01*
X187966350Y-106958500D01*
X188125100Y-106799750D01*
X188125100Y-105600500D01*
X188379100Y-105600500D01*
X188379100Y-106799750D01*
X188537850Y-106958500D01*
X189102100Y-106961572D01*
X189226582Y-106949312D01*
X189346280Y-106913002D01*
X189456594Y-106854037D01*
X189553285Y-106774685D01*
X189632637Y-106677994D01*
X189691602Y-106567680D01*
X189727912Y-106447982D01*
X189740172Y-106323500D01*
X189737100Y-105759250D01*
X189578350Y-105600500D01*
X188379100Y-105600500D01*
X188125100Y-105600500D01*
X186925850Y-105600500D01*
X186767100Y-105759250D01*
X186764028Y-106323500D01*
X181690516Y-106323500D01*
X183390516Y-104623500D01*
X186764028Y-104623500D01*
X186767100Y-105187750D01*
X186925850Y-105346500D01*
X188125100Y-105346500D01*
X188125100Y-105326500D01*
X188379100Y-105326500D01*
X188379100Y-105346500D01*
X189578350Y-105346500D01*
X189737100Y-105187750D01*
X189740172Y-104623500D01*
X189727912Y-104499018D01*
X189691602Y-104379320D01*
X189632637Y-104269006D01*
X189553285Y-104172315D01*
X189456594Y-104092963D01*
X189346280Y-104033998D01*
X189273720Y-104011987D01*
X189405575Y-103880132D01*
X189568090Y-103636911D01*
X189680032Y-103366658D01*
X189737100Y-103079760D01*
X189737100Y-102787240D01*
X189680032Y-102500342D01*
X189568090Y-102230089D01*
X189405575Y-101986868D01*
X189198732Y-101780025D01*
X189024340Y-101663500D01*
X189198732Y-101546975D01*
X189405575Y-101340132D01*
X189568090Y-101096911D01*
X189680032Y-100826658D01*
X189737100Y-100539760D01*
X189737100Y-100247240D01*
X189680032Y-99960342D01*
X189568090Y-99690089D01*
X189405575Y-99446868D01*
X189198732Y-99240025D01*
X188955511Y-99077510D01*
X188685258Y-98965568D01*
X188398360Y-98908500D01*
X188105840Y-98908500D01*
X187818942Y-98965568D01*
X187548689Y-99077510D01*
X187305468Y-99240025D01*
X187098625Y-99446868D01*
X186936110Y-99690089D01*
X186824168Y-99960342D01*
X186767100Y-100247240D01*
X186767100Y-100539760D01*
X186824168Y-100826658D01*
X186936110Y-101096911D01*
X187098625Y-101340132D01*
X187305468Y-101546975D01*
X187479860Y-101663500D01*
X187305468Y-101780025D01*
X187098625Y-101986868D01*
X186936110Y-102230089D01*
X186824168Y-102500342D01*
X186767100Y-102787240D01*
X186767100Y-103079760D01*
X186824168Y-103366658D01*
X186936110Y-103636911D01*
X187098625Y-103880132D01*
X187230480Y-104011987D01*
X187157920Y-104033998D01*
X187047606Y-104092963D01*
X186950915Y-104172315D01*
X186871563Y-104269006D01*
X186812598Y-104379320D01*
X186776288Y-104499018D01*
X186764028Y-104623500D01*
X183390516Y-104623500D01*
X186245887Y-101768130D01*
X186275459Y-101743861D01*
X186337458Y-101668314D01*
X186372306Y-101625853D01*
X186414466Y-101546975D01*
X186444270Y-101491216D01*
X186488586Y-101345128D01*
X186499800Y-101231267D01*
X186499800Y-101231265D01*
X186503549Y-101193202D01*
X186499800Y-101155139D01*
X186499800Y-94943356D01*
X186671432Y-94828675D01*
X186803287Y-94696820D01*
X186825298Y-94769380D01*
X186884263Y-94879694D01*
X186963615Y-94976385D01*
X187060306Y-95055737D01*
X187170620Y-95114702D01*
X187290318Y-95151012D01*
X187414800Y-95163272D01*
X187979050Y-95160200D01*
X188137800Y-95001450D01*
X188137800Y-93802200D01*
X188391800Y-93802200D01*
X188391800Y-95001450D01*
X188550550Y-95160200D01*
X189114800Y-95163272D01*
X189239282Y-95151012D01*
X189358980Y-95114702D01*
X189469294Y-95055737D01*
X189565985Y-94976385D01*
X189645337Y-94879694D01*
X189704302Y-94769380D01*
X189740612Y-94649682D01*
X189752872Y-94525200D01*
X189749800Y-93960950D01*
X189591050Y-93802200D01*
X188391800Y-93802200D01*
X188137800Y-93802200D01*
X188117800Y-93802200D01*
X188117800Y-93548200D01*
X188137800Y-93548200D01*
X188137800Y-92348950D01*
X188391800Y-92348950D01*
X188391800Y-93548200D01*
X189591050Y-93548200D01*
X189749800Y-93389450D01*
X189752872Y-92825200D01*
X189740612Y-92700718D01*
X189704302Y-92581020D01*
X189645337Y-92470706D01*
X189565985Y-92374015D01*
X189469294Y-92294663D01*
X189358980Y-92235698D01*
X189239282Y-92199388D01*
X189114800Y-92187128D01*
X188550550Y-92190200D01*
X188391800Y-92348950D01*
X188137800Y-92348950D01*
X187979050Y-92190200D01*
X187414800Y-92187128D01*
X187290318Y-92199388D01*
X187170620Y-92235698D01*
X187060306Y-92294663D01*
X186963615Y-92374015D01*
X186884263Y-92470706D01*
X186825298Y-92581020D01*
X186803287Y-92653580D01*
X186671432Y-92521725D01*
X186428211Y-92359210D01*
X186157958Y-92247268D01*
X185871060Y-92190200D01*
X185578540Y-92190200D01*
X185291642Y-92247268D01*
X185021389Y-92359210D01*
X184778168Y-92521725D01*
X184571325Y-92728568D01*
X184408810Y-92971789D01*
X184296868Y-93242042D01*
X184239800Y-93528940D01*
X184239800Y-93821460D01*
X184296868Y-94108358D01*
X184408810Y-94378611D01*
X184571325Y-94621832D01*
X184778168Y-94828675D01*
X184949800Y-94943356D01*
X184949801Y-100872186D01*
X178815467Y-107006521D01*
X178720867Y-107025338D01*
X178550707Y-107095820D01*
X178397568Y-107198144D01*
X178267334Y-107328378D01*
X178165010Y-107481517D01*
X178094528Y-107651677D01*
X178058596Y-107832317D01*
X178058596Y-108016495D01*
X178094528Y-108197135D01*
X178165010Y-108367295D01*
X178267334Y-108520434D01*
X178334258Y-108587358D01*
X178241414Y-108726309D01*
X178170932Y-108896469D01*
X178135000Y-109077109D01*
X178135000Y-109261287D01*
X178170932Y-109441927D01*
X178241414Y-109612087D01*
X178343738Y-109765226D01*
X178473972Y-109895460D01*
X178627111Y-109997784D01*
X178694999Y-110025904D01*
X178695000Y-114340985D01*
X173322715Y-119713271D01*
X173120260Y-119673000D01*
X173015015Y-119673000D01*
X177686093Y-115001923D01*
X177715659Y-114977659D01*
X177812506Y-114859650D01*
X177884470Y-114725014D01*
X177928786Y-114578926D01*
X177940000Y-114465065D01*
X177940000Y-114465064D01*
X177943749Y-114427001D01*
X177940000Y-114388938D01*
X177940000Y-113400680D01*
X177993582Y-113320489D01*
X178064064Y-113150329D01*
X178099996Y-112969689D01*
X178099996Y-112785511D01*
X178064064Y-112604871D01*
X177993582Y-112434711D01*
X177891258Y-112281572D01*
X177761024Y-112151338D01*
X177607885Y-112049014D01*
X177437725Y-111978532D01*
X177257085Y-111942600D01*
X177072907Y-111942600D01*
X176892267Y-111978532D01*
X176722107Y-112049014D01*
X176663392Y-112088246D01*
X176642690Y-112074414D01*
X176472530Y-112003932D01*
X176291890Y-111968000D01*
X176107712Y-111968000D01*
X175927072Y-112003932D01*
X175756912Y-112074414D01*
X175603773Y-112176738D01*
X175473539Y-112306972D01*
X175371215Y-112460111D01*
X175300733Y-112630271D01*
X175281916Y-112724870D01*
X168336859Y-119669928D01*
X167044000Y-119669928D01*
X166919518Y-119682188D01*
X166799820Y-119718498D01*
X166689506Y-119777463D01*
X166592815Y-119856815D01*
X166513463Y-119953506D01*
X166454498Y-120063820D01*
X166418188Y-120183518D01*
X166405928Y-120308000D01*
X160633525Y-120308000D01*
X160631000Y-119310150D01*
X160472250Y-119151400D01*
X158623000Y-119151400D01*
X158369000Y-119151400D01*
X156519750Y-119151400D01*
X156361000Y-119310150D01*
X156357928Y-120524400D01*
X154330000Y-120524400D01*
X154330000Y-117524400D01*
X156357928Y-117524400D01*
X156361000Y-118738650D01*
X156519750Y-118897400D01*
X158369000Y-118897400D01*
X158369000Y-117048150D01*
X158623000Y-117048150D01*
X158623000Y-118897400D01*
X160472250Y-118897400D01*
X160631000Y-118738650D01*
X160634072Y-117524400D01*
X160621812Y-117399918D01*
X160585502Y-117280220D01*
X160526537Y-117169906D01*
X160447185Y-117073215D01*
X160350494Y-116993863D01*
X160240180Y-116934898D01*
X160120482Y-116898588D01*
X159996000Y-116886328D01*
X158781750Y-116889400D01*
X158623000Y-117048150D01*
X158369000Y-117048150D01*
X158210250Y-116889400D01*
X156996000Y-116886328D01*
X156871518Y-116898588D01*
X156751820Y-116934898D01*
X156641506Y-116993863D01*
X156544815Y-117073215D01*
X156465463Y-117169906D01*
X156406498Y-117280220D01*
X156370188Y-117399918D01*
X156357928Y-117524400D01*
X154330000Y-117524400D01*
X154330000Y-113734121D01*
X156361000Y-113734121D01*
X156361000Y-114154679D01*
X156443047Y-114567156D01*
X156603988Y-114955702D01*
X156837637Y-115305383D01*
X157135017Y-115602763D01*
X157484698Y-115836412D01*
X157873244Y-115997353D01*
X158285721Y-116079400D01*
X158706279Y-116079400D01*
X159118756Y-115997353D01*
X159507302Y-115836412D01*
X159856983Y-115602763D01*
X160154363Y-115305383D01*
X160388012Y-114955702D01*
X160548953Y-114567156D01*
X160631000Y-114154679D01*
X160631000Y-113734121D01*
X160548953Y-113321644D01*
X160388012Y-112933098D01*
X160154363Y-112583417D01*
X159856983Y-112286037D01*
X159507302Y-112052388D01*
X159118756Y-111891447D01*
X158706279Y-111809400D01*
X158285721Y-111809400D01*
X157873244Y-111891447D01*
X157484698Y-112052388D01*
X157135017Y-112286037D01*
X156837637Y-112583417D01*
X156603988Y-112933098D01*
X156443047Y-113321644D01*
X156361000Y-113734121D01*
X154330000Y-113734121D01*
X154330000Y-108992741D01*
X174231300Y-108992741D01*
X174231300Y-109167859D01*
X174265464Y-109339612D01*
X174321130Y-109474000D01*
X174265464Y-109608388D01*
X174231300Y-109780141D01*
X174231300Y-109955259D01*
X174265464Y-110127012D01*
X174332479Y-110288799D01*
X174429769Y-110434404D01*
X174553596Y-110558231D01*
X174699201Y-110655521D01*
X174860988Y-110722536D01*
X175032741Y-110756700D01*
X175207859Y-110756700D01*
X175379612Y-110722536D01*
X175514000Y-110666870D01*
X175648388Y-110722536D01*
X175820141Y-110756700D01*
X175995259Y-110756700D01*
X176167012Y-110722536D01*
X176328799Y-110655521D01*
X176474404Y-110558231D01*
X176598231Y-110434404D01*
X176695521Y-110288799D01*
X176762536Y-110127012D01*
X176796700Y-109955259D01*
X176796700Y-109780141D01*
X176762536Y-109608388D01*
X176706870Y-109474000D01*
X176762536Y-109339612D01*
X176796700Y-109167859D01*
X176796700Y-108992741D01*
X176762536Y-108820988D01*
X176695521Y-108659201D01*
X176598231Y-108513596D01*
X176474404Y-108389769D01*
X176328799Y-108292479D01*
X176167012Y-108225464D01*
X175995259Y-108191300D01*
X175820141Y-108191300D01*
X175648388Y-108225464D01*
X175514000Y-108281130D01*
X175379612Y-108225464D01*
X175207859Y-108191300D01*
X175032741Y-108191300D01*
X174860988Y-108225464D01*
X174699201Y-108292479D01*
X174553596Y-108389769D01*
X174429769Y-108513596D01*
X174332479Y-108659201D01*
X174265464Y-108820988D01*
X174231300Y-108992741D01*
X154330000Y-108992741D01*
X154330000Y-104590121D01*
X156361000Y-104590121D01*
X156361000Y-105010679D01*
X156443047Y-105423156D01*
X156603988Y-105811702D01*
X156837637Y-106161383D01*
X157135017Y-106458763D01*
X157484698Y-106692412D01*
X157873244Y-106853353D01*
X158285721Y-106935400D01*
X158706279Y-106935400D01*
X159118756Y-106853353D01*
X159507302Y-106692412D01*
X159856983Y-106458763D01*
X160154363Y-106161383D01*
X160388012Y-105811702D01*
X160548953Y-105423156D01*
X160631000Y-105010679D01*
X160631000Y-104590121D01*
X160548953Y-104177644D01*
X160388012Y-103789098D01*
X160154363Y-103439417D01*
X159856983Y-103142037D01*
X159507302Y-102908388D01*
X159118756Y-102747447D01*
X158706279Y-102665400D01*
X158285721Y-102665400D01*
X157873244Y-102747447D01*
X157484698Y-102908388D01*
X157135017Y-103142037D01*
X156837637Y-103439417D01*
X156603988Y-103789098D01*
X156443047Y-104177644D01*
X156361000Y-104590121D01*
X154330000Y-104590121D01*
X154330000Y-99510121D01*
X156361000Y-99510121D01*
X156361000Y-99930679D01*
X156443047Y-100343156D01*
X156603988Y-100731702D01*
X156837637Y-101081383D01*
X157135017Y-101378763D01*
X157484698Y-101612412D01*
X157873244Y-101773353D01*
X158285721Y-101855400D01*
X158706279Y-101855400D01*
X159118756Y-101773353D01*
X159507302Y-101612412D01*
X159856983Y-101378763D01*
X160154363Y-101081383D01*
X160388012Y-100731702D01*
X160548953Y-100343156D01*
X160631000Y-99930679D01*
X160631000Y-99510121D01*
X160548953Y-99097644D01*
X160388012Y-98709098D01*
X160154363Y-98359417D01*
X159856983Y-98062037D01*
X159507302Y-97828388D01*
X159118756Y-97667447D01*
X158706279Y-97585400D01*
X158285721Y-97585400D01*
X157873244Y-97667447D01*
X157484698Y-97828388D01*
X157135017Y-98062037D01*
X156837637Y-98359417D01*
X156603988Y-98709098D01*
X156443047Y-99097644D01*
X156361000Y-99510121D01*
X154330000Y-99510121D01*
X154330000Y-93528940D01*
X155741000Y-93528940D01*
X155741000Y-93821460D01*
X155798068Y-94108358D01*
X155910010Y-94378611D01*
X156072525Y-94621832D01*
X156279368Y-94828675D01*
X156522589Y-94991190D01*
X156792842Y-95103132D01*
X157079740Y-95160200D01*
X157372260Y-95160200D01*
X157659158Y-95103132D01*
X157929411Y-94991190D01*
X158172632Y-94828675D01*
X158304487Y-94696820D01*
X158326498Y-94769380D01*
X158385463Y-94879694D01*
X158464815Y-94976385D01*
X158561506Y-95055737D01*
X158671820Y-95114702D01*
X158791518Y-95151012D01*
X158916000Y-95163272D01*
X160616000Y-95163272D01*
X160740482Y-95151012D01*
X160860180Y-95114702D01*
X160970494Y-95055737D01*
X161067185Y-94976385D01*
X161146537Y-94879694D01*
X161205502Y-94769380D01*
X161241812Y-94649682D01*
X161254072Y-94525200D01*
X161254072Y-93528940D01*
X162040200Y-93528940D01*
X162040200Y-93821460D01*
X162097268Y-94108358D01*
X162209210Y-94378611D01*
X162371725Y-94621832D01*
X162578568Y-94828675D01*
X162821789Y-94991190D01*
X163092042Y-95103132D01*
X163378940Y-95160200D01*
X163671460Y-95160200D01*
X163958358Y-95103132D01*
X164228611Y-94991190D01*
X164471832Y-94828675D01*
X164603687Y-94696820D01*
X164625698Y-94769380D01*
X164684663Y-94879694D01*
X164764015Y-94976385D01*
X164860706Y-95055737D01*
X164971020Y-95114702D01*
X165090718Y-95151012D01*
X165215200Y-95163272D01*
X166915200Y-95163272D01*
X167039682Y-95151012D01*
X167159380Y-95114702D01*
X167269694Y-95055737D01*
X167366385Y-94976385D01*
X167445737Y-94879694D01*
X167504702Y-94769380D01*
X167541012Y-94649682D01*
X167553272Y-94525200D01*
X167553272Y-94032091D01*
X168382919Y-94032091D01*
X168480243Y-94306452D01*
X168629222Y-94556555D01*
X168824131Y-94772788D01*
X169057480Y-94946841D01*
X169320301Y-95072025D01*
X169467510Y-95116676D01*
X169697400Y-94995355D01*
X169697400Y-93802200D01*
X168503586Y-93802200D01*
X168382919Y-94032091D01*
X167553272Y-94032091D01*
X167553272Y-93318309D01*
X168382919Y-93318309D01*
X168503586Y-93548200D01*
X169697400Y-93548200D01*
X169697400Y-92355045D01*
X169951400Y-92355045D01*
X169951400Y-93548200D01*
X169971400Y-93548200D01*
X169971400Y-93802200D01*
X169951400Y-93802200D01*
X169951400Y-94995355D01*
X170181290Y-95116676D01*
X170328499Y-95072025D01*
X170591320Y-94946841D01*
X170824669Y-94772788D01*
X171019578Y-94556555D01*
X171089205Y-94439666D01*
X171210925Y-94621832D01*
X171417768Y-94828675D01*
X171660989Y-94991190D01*
X171931242Y-95103132D01*
X172218140Y-95160200D01*
X172510660Y-95160200D01*
X172797558Y-95103132D01*
X173067811Y-94991190D01*
X173311032Y-94828675D01*
X173442887Y-94696820D01*
X173464898Y-94769380D01*
X173523863Y-94879694D01*
X173603215Y-94976385D01*
X173699906Y-95055737D01*
X173810220Y-95114702D01*
X173929918Y-95151012D01*
X174054400Y-95163272D01*
X175754400Y-95163272D01*
X175878882Y-95151012D01*
X175998580Y-95114702D01*
X176108894Y-95055737D01*
X176205585Y-94976385D01*
X176284937Y-94879694D01*
X176343902Y-94769380D01*
X176380212Y-94649682D01*
X176392472Y-94525200D01*
X176392472Y-93528940D01*
X177940600Y-93528940D01*
X177940600Y-93821460D01*
X177997668Y-94108358D01*
X178109610Y-94378611D01*
X178272125Y-94621832D01*
X178478968Y-94828675D01*
X178722189Y-94991190D01*
X178992442Y-95103132D01*
X179279340Y-95160200D01*
X179571860Y-95160200D01*
X179858758Y-95103132D01*
X180129011Y-94991190D01*
X180372232Y-94828675D01*
X180504087Y-94696820D01*
X180526098Y-94769380D01*
X180585063Y-94879694D01*
X180664415Y-94976385D01*
X180761106Y-95055737D01*
X180871420Y-95114702D01*
X180991118Y-95151012D01*
X181115600Y-95163272D01*
X181679850Y-95160200D01*
X181838600Y-95001450D01*
X181838600Y-93802200D01*
X182092600Y-93802200D01*
X182092600Y-95001450D01*
X182251350Y-95160200D01*
X182815600Y-95163272D01*
X182940082Y-95151012D01*
X183059780Y-95114702D01*
X183170094Y-95055737D01*
X183266785Y-94976385D01*
X183346137Y-94879694D01*
X183405102Y-94769380D01*
X183441412Y-94649682D01*
X183453672Y-94525200D01*
X183450600Y-93960950D01*
X183291850Y-93802200D01*
X182092600Y-93802200D01*
X181838600Y-93802200D01*
X181818600Y-93802200D01*
X181818600Y-93548200D01*
X181838600Y-93548200D01*
X181838600Y-92348950D01*
X182092600Y-92348950D01*
X182092600Y-93548200D01*
X183291850Y-93548200D01*
X183450600Y-93389450D01*
X183453672Y-92825200D01*
X183441412Y-92700718D01*
X183405102Y-92581020D01*
X183346137Y-92470706D01*
X183266785Y-92374015D01*
X183170094Y-92294663D01*
X183059780Y-92235698D01*
X182940082Y-92199388D01*
X182815600Y-92187128D01*
X182251350Y-92190200D01*
X182092600Y-92348950D01*
X181838600Y-92348950D01*
X181679850Y-92190200D01*
X181115600Y-92187128D01*
X180991118Y-92199388D01*
X180871420Y-92235698D01*
X180761106Y-92294663D01*
X180664415Y-92374015D01*
X180585063Y-92470706D01*
X180526098Y-92581020D01*
X180504087Y-92653580D01*
X180372232Y-92521725D01*
X180129011Y-92359210D01*
X179858758Y-92247268D01*
X179571860Y-92190200D01*
X179279340Y-92190200D01*
X178992442Y-92247268D01*
X178722189Y-92359210D01*
X178478968Y-92521725D01*
X178272125Y-92728568D01*
X178109610Y-92971789D01*
X177997668Y-93242042D01*
X177940600Y-93528940D01*
X176392472Y-93528940D01*
X176392472Y-92825200D01*
X176380212Y-92700718D01*
X176343902Y-92581020D01*
X176284937Y-92470706D01*
X176205585Y-92374015D01*
X176108894Y-92294663D01*
X175998580Y-92235698D01*
X175878882Y-92199388D01*
X175754400Y-92187128D01*
X174054400Y-92187128D01*
X173929918Y-92199388D01*
X173810220Y-92235698D01*
X173699906Y-92294663D01*
X173603215Y-92374015D01*
X173523863Y-92470706D01*
X173464898Y-92581020D01*
X173442887Y-92653580D01*
X173311032Y-92521725D01*
X173067811Y-92359210D01*
X172797558Y-92247268D01*
X172510660Y-92190200D01*
X172218140Y-92190200D01*
X171931242Y-92247268D01*
X171660989Y-92359210D01*
X171417768Y-92521725D01*
X171210925Y-92728568D01*
X171089205Y-92910734D01*
X171019578Y-92793845D01*
X170824669Y-92577612D01*
X170591320Y-92403559D01*
X170328499Y-92278375D01*
X170181290Y-92233724D01*
X169951400Y-92355045D01*
X169697400Y-92355045D01*
X169467510Y-92233724D01*
X169320301Y-92278375D01*
X169057480Y-92403559D01*
X168824131Y-92577612D01*
X168629222Y-92793845D01*
X168480243Y-93043948D01*
X168382919Y-93318309D01*
X167553272Y-93318309D01*
X167553272Y-92825200D01*
X167541012Y-92700718D01*
X167504702Y-92581020D01*
X167445737Y-92470706D01*
X167366385Y-92374015D01*
X167269694Y-92294663D01*
X167159380Y-92235698D01*
X167039682Y-92199388D01*
X166915200Y-92187128D01*
X165215200Y-92187128D01*
X165090718Y-92199388D01*
X164971020Y-92235698D01*
X164860706Y-92294663D01*
X164764015Y-92374015D01*
X164684663Y-92470706D01*
X164625698Y-92581020D01*
X164603687Y-92653580D01*
X164471832Y-92521725D01*
X164228611Y-92359210D01*
X163958358Y-92247268D01*
X163671460Y-92190200D01*
X163378940Y-92190200D01*
X163092042Y-92247268D01*
X162821789Y-92359210D01*
X162578568Y-92521725D01*
X162371725Y-92728568D01*
X162209210Y-92971789D01*
X162097268Y-93242042D01*
X162040200Y-93528940D01*
X161254072Y-93528940D01*
X161254072Y-92825200D01*
X161241812Y-92700718D01*
X161205502Y-92581020D01*
X161146537Y-92470706D01*
X161067185Y-92374015D01*
X160970494Y-92294663D01*
X160860180Y-92235698D01*
X160740482Y-92199388D01*
X160616000Y-92187128D01*
X158916000Y-92187128D01*
X158791518Y-92199388D01*
X158671820Y-92235698D01*
X158561506Y-92294663D01*
X158464815Y-92374015D01*
X158385463Y-92470706D01*
X158326498Y-92581020D01*
X158304487Y-92653580D01*
X158172632Y-92521725D01*
X157929411Y-92359210D01*
X157659158Y-92247268D01*
X157372260Y-92190200D01*
X157079740Y-92190200D01*
X156792842Y-92247268D01*
X156522589Y-92359210D01*
X156279368Y-92521725D01*
X156072525Y-92728568D01*
X155910010Y-92971789D01*
X155798068Y-93242042D01*
X155741000Y-93528940D01*
X154330000Y-93528940D01*
X154330000Y-89197721D01*
X154837000Y-89197721D01*
X154837000Y-89618279D01*
X154919047Y-90030756D01*
X155079988Y-90419302D01*
X155313637Y-90768983D01*
X155611017Y-91066363D01*
X155960698Y-91300012D01*
X156349244Y-91460953D01*
X156761721Y-91543000D01*
X157182279Y-91543000D01*
X157594756Y-91460953D01*
X157983302Y-91300012D01*
X158332983Y-91066363D01*
X158630363Y-90768983D01*
X158864012Y-90419302D01*
X159024953Y-90030756D01*
X159107000Y-89618279D01*
X159107000Y-89197721D01*
X188873000Y-89197721D01*
X188873000Y-89618279D01*
X188955047Y-90030756D01*
X189115988Y-90419302D01*
X189349637Y-90768983D01*
X189647017Y-91066363D01*
X189996698Y-91300012D01*
X190385244Y-91460953D01*
X190797721Y-91543000D01*
X191218279Y-91543000D01*
X191630756Y-91460953D01*
X192019302Y-91300012D01*
X192368983Y-91066363D01*
X192666363Y-90768983D01*
X192900012Y-90419302D01*
X193060953Y-90030756D01*
X193143000Y-89618279D01*
X193143000Y-89197721D01*
X193060953Y-88785244D01*
X192900012Y-88396698D01*
X192666363Y-88047017D01*
X192368983Y-87749637D01*
X192019302Y-87515988D01*
X191630756Y-87355047D01*
X191218279Y-87273000D01*
X190797721Y-87273000D01*
X190385244Y-87355047D01*
X189996698Y-87515988D01*
X189647017Y-87749637D01*
X189349637Y-88047017D01*
X189115988Y-88396698D01*
X188955047Y-88785244D01*
X188873000Y-89197721D01*
X159107000Y-89197721D01*
X159024953Y-88785244D01*
X158864012Y-88396698D01*
X158630363Y-88047017D01*
X158332983Y-87749637D01*
X157983302Y-87515988D01*
X157594756Y-87355047D01*
X157182279Y-87273000D01*
X156761721Y-87273000D01*
X156349244Y-87355047D01*
X155960698Y-87515988D01*
X155611017Y-87749637D01*
X155313637Y-88047017D01*
X155079988Y-88396698D01*
X154919047Y-88785244D01*
X154837000Y-89197721D01*
X154330000Y-89197721D01*
X154330000Y-86766000D01*
X193650001Y-86766000D01*
X193650000Y-127102000D01*
G04 #@! TA.AperFunction,Conductor*
D20*
G36*
X193650000Y-127102000D02*
G01*
X154330000Y-127102000D01*
X154330000Y-124249721D01*
X154837000Y-124249721D01*
X154837000Y-124670279D01*
X154919047Y-125082756D01*
X155079988Y-125471302D01*
X155313637Y-125820983D01*
X155611017Y-126118363D01*
X155960698Y-126352012D01*
X156349244Y-126512953D01*
X156761721Y-126595000D01*
X157182279Y-126595000D01*
X157594756Y-126512953D01*
X157983302Y-126352012D01*
X158332983Y-126118363D01*
X158630363Y-125820983D01*
X158864012Y-125471302D01*
X159024953Y-125082756D01*
X159107000Y-124670279D01*
X159107000Y-124249721D01*
X188873000Y-124249721D01*
X188873000Y-124670279D01*
X188955047Y-125082756D01*
X189115988Y-125471302D01*
X189349637Y-125820983D01*
X189647017Y-126118363D01*
X189996698Y-126352012D01*
X190385244Y-126512953D01*
X190797721Y-126595000D01*
X191218279Y-126595000D01*
X191630756Y-126512953D01*
X192019302Y-126352012D01*
X192368983Y-126118363D01*
X192666363Y-125820983D01*
X192900012Y-125471302D01*
X193060953Y-125082756D01*
X193143000Y-124670279D01*
X193143000Y-124249721D01*
X193060953Y-123837244D01*
X192900012Y-123448698D01*
X192666363Y-123099017D01*
X192368983Y-122801637D01*
X192019302Y-122567988D01*
X191630756Y-122407047D01*
X191218279Y-122325000D01*
X190797721Y-122325000D01*
X190385244Y-122407047D01*
X189996698Y-122567988D01*
X189647017Y-122801637D01*
X189349637Y-123099017D01*
X189115988Y-123448698D01*
X188955047Y-123837244D01*
X188873000Y-124249721D01*
X159107000Y-124249721D01*
X159024953Y-123837244D01*
X158864012Y-123448698D01*
X158630363Y-123099017D01*
X158332983Y-122801637D01*
X157983302Y-122567988D01*
X157594756Y-122407047D01*
X157182279Y-122325000D01*
X156761721Y-122325000D01*
X156349244Y-122407047D01*
X155960698Y-122567988D01*
X155611017Y-122801637D01*
X155313637Y-123099017D01*
X155079988Y-123448698D01*
X154919047Y-123837244D01*
X154837000Y-124249721D01*
X154330000Y-124249721D01*
X154330000Y-120524400D01*
X156357928Y-120524400D01*
X156370188Y-120648882D01*
X156406498Y-120768580D01*
X156465463Y-120878894D01*
X156544815Y-120975585D01*
X156641506Y-121054937D01*
X156751820Y-121113902D01*
X156871518Y-121150212D01*
X156996000Y-121162472D01*
X158210250Y-121159400D01*
X158369000Y-121000650D01*
X158369000Y-119151400D01*
X158623000Y-119151400D01*
X158623000Y-121000650D01*
X158781750Y-121159400D01*
X159996000Y-121162472D01*
X160120482Y-121150212D01*
X160240180Y-121113902D01*
X160350494Y-121054937D01*
X160447185Y-120975585D01*
X160526537Y-120878894D01*
X160585502Y-120768580D01*
X160621812Y-120648882D01*
X160634072Y-120524400D01*
X160633525Y-120308000D01*
X166405928Y-120308000D01*
X166405928Y-122008000D01*
X166418188Y-122132482D01*
X166454498Y-122252180D01*
X166513463Y-122362494D01*
X166592815Y-122459185D01*
X166689506Y-122538537D01*
X166799820Y-122597502D01*
X166919518Y-122633812D01*
X167044000Y-122646072D01*
X168744000Y-122646072D01*
X168868482Y-122633812D01*
X168988180Y-122597502D01*
X169098494Y-122538537D01*
X169195185Y-122459185D01*
X169274537Y-122362494D01*
X169333502Y-122252180D01*
X169355513Y-122179620D01*
X169487368Y-122311475D01*
X169730589Y-122473990D01*
X170000842Y-122585932D01*
X170287740Y-122643000D01*
X170580260Y-122643000D01*
X170867158Y-122585932D01*
X171137411Y-122473990D01*
X171380632Y-122311475D01*
X171587475Y-122104632D01*
X171704000Y-121930240D01*
X171820525Y-122104632D01*
X172027368Y-122311475D01*
X172270589Y-122473990D01*
X172540842Y-122585932D01*
X172827740Y-122643000D01*
X173120260Y-122643000D01*
X173407158Y-122585932D01*
X173677411Y-122473990D01*
X173920632Y-122311475D01*
X174127475Y-122104632D01*
X174192042Y-122008000D01*
X177327928Y-122008000D01*
X177340188Y-122132482D01*
X177376498Y-122252180D01*
X177435463Y-122362494D01*
X177514815Y-122459185D01*
X177611506Y-122538537D01*
X177721820Y-122597502D01*
X177841518Y-122633812D01*
X177966000Y-122646072D01*
X178530250Y-122643000D01*
X178689000Y-122484250D01*
X178689000Y-121285000D01*
X178943000Y-121285000D01*
X178943000Y-122484250D01*
X179101750Y-122643000D01*
X179666000Y-122646072D01*
X179790482Y-122633812D01*
X179910180Y-122597502D01*
X180020494Y-122538537D01*
X180117185Y-122459185D01*
X180196537Y-122362494D01*
X180255502Y-122252180D01*
X180279966Y-122171534D01*
X180355731Y-122255588D01*
X180589080Y-122429641D01*
X180851901Y-122554825D01*
X180999110Y-122599476D01*
X181229000Y-122478155D01*
X181229000Y-121285000D01*
X181483000Y-121285000D01*
X181483000Y-122478155D01*
X181712890Y-122599476D01*
X181860099Y-122554825D01*
X182122920Y-122429641D01*
X182356269Y-122255588D01*
X182551178Y-122039355D01*
X182626000Y-121913745D01*
X182700822Y-122039355D01*
X182895731Y-122255588D01*
X183129080Y-122429641D01*
X183391901Y-122554825D01*
X183539110Y-122599476D01*
X183769000Y-122478155D01*
X183769000Y-121285000D01*
X184023000Y-121285000D01*
X184023000Y-122478155D01*
X184252890Y-122599476D01*
X184400099Y-122554825D01*
X184662920Y-122429641D01*
X184896269Y-122255588D01*
X185091178Y-122039355D01*
X185240157Y-121789252D01*
X185337481Y-121514891D01*
X185216814Y-121285000D01*
X184023000Y-121285000D01*
X183769000Y-121285000D01*
X181483000Y-121285000D01*
X181229000Y-121285000D01*
X178943000Y-121285000D01*
X178689000Y-121285000D01*
X177489750Y-121285000D01*
X177331000Y-121443750D01*
X177327928Y-122008000D01*
X174192042Y-122008000D01*
X174289990Y-121861411D01*
X174401932Y-121591158D01*
X174459000Y-121304260D01*
X174459000Y-121011740D01*
X174418729Y-120809285D01*
X174920014Y-120308000D01*
X177327928Y-120308000D01*
X177331000Y-120872250D01*
X177489750Y-121031000D01*
X178689000Y-121031000D01*
X178689000Y-119831750D01*
X178943000Y-119831750D01*
X178943000Y-121031000D01*
X181229000Y-121031000D01*
X181229000Y-119837845D01*
X181483000Y-119837845D01*
X181483000Y-121031000D01*
X183769000Y-121031000D01*
X183769000Y-119837845D01*
X184023000Y-119837845D01*
X184023000Y-121031000D01*
X185216814Y-121031000D01*
X185337481Y-120801109D01*
X185240157Y-120526748D01*
X185091178Y-120276645D01*
X184896269Y-120060412D01*
X184662920Y-119886359D01*
X184400099Y-119761175D01*
X184252890Y-119716524D01*
X184023000Y-119837845D01*
X183769000Y-119837845D01*
X183539110Y-119716524D01*
X183391901Y-119761175D01*
X183129080Y-119886359D01*
X182895731Y-120060412D01*
X182700822Y-120276645D01*
X182626000Y-120402255D01*
X182551178Y-120276645D01*
X182356269Y-120060412D01*
X182122920Y-119886359D01*
X181860099Y-119761175D01*
X181712890Y-119716524D01*
X181483000Y-119837845D01*
X181229000Y-119837845D01*
X180999110Y-119716524D01*
X180851901Y-119761175D01*
X180589080Y-119886359D01*
X180355731Y-120060412D01*
X180279966Y-120144466D01*
X180255502Y-120063820D01*
X180196537Y-119953506D01*
X180117185Y-119856815D01*
X180020494Y-119777463D01*
X179910180Y-119718498D01*
X179790482Y-119682188D01*
X179666000Y-119669928D01*
X179101750Y-119673000D01*
X178943000Y-119831750D01*
X178689000Y-119831750D01*
X178530250Y-119673000D01*
X177966000Y-119669928D01*
X177841518Y-119682188D01*
X177721820Y-119718498D01*
X177611506Y-119777463D01*
X177514815Y-119856815D01*
X177435463Y-119953506D01*
X177376498Y-120063820D01*
X177340188Y-120183518D01*
X177327928Y-120308000D01*
X174920014Y-120308000D01*
X179887514Y-115340500D01*
X186764028Y-115340500D01*
X186776288Y-115464982D01*
X186812598Y-115584680D01*
X186871563Y-115694994D01*
X186950915Y-115791685D01*
X187047606Y-115871037D01*
X187157920Y-115930002D01*
X187277618Y-115966312D01*
X187402100Y-115978572D01*
X187966350Y-115975500D01*
X188125100Y-115816750D01*
X188125100Y-114617500D01*
X188379100Y-114617500D01*
X188379100Y-115816750D01*
X188537850Y-115975500D01*
X189102100Y-115978572D01*
X189226582Y-115966312D01*
X189346280Y-115930002D01*
X189456594Y-115871037D01*
X189553285Y-115791685D01*
X189632637Y-115694994D01*
X189691602Y-115584680D01*
X189727912Y-115464982D01*
X189740172Y-115340500D01*
X189737100Y-114776250D01*
X189578350Y-114617500D01*
X188379100Y-114617500D01*
X188125100Y-114617500D01*
X186925850Y-114617500D01*
X186767100Y-114776250D01*
X186764028Y-115340500D01*
X179887514Y-115340500D01*
X179991086Y-115236929D01*
X180020658Y-115212660D01*
X180082657Y-115137113D01*
X180117505Y-115094652D01*
X180189468Y-114960016D01*
X180189469Y-114960015D01*
X180233785Y-114813927D01*
X180244999Y-114700066D01*
X180244999Y-114700064D01*
X180248748Y-114662001D01*
X180244999Y-114623938D01*
X180244999Y-113640500D01*
X186764028Y-113640500D01*
X186767100Y-114204750D01*
X186925850Y-114363500D01*
X188125100Y-114363500D01*
X188125100Y-114343500D01*
X188379100Y-114343500D01*
X188379100Y-114363500D01*
X189578350Y-114363500D01*
X189737100Y-114204750D01*
X189740172Y-113640500D01*
X189727912Y-113516018D01*
X189691602Y-113396320D01*
X189632637Y-113286006D01*
X189553285Y-113189315D01*
X189456594Y-113109963D01*
X189346280Y-113050998D01*
X189273720Y-113028987D01*
X189405575Y-112897132D01*
X189568090Y-112653911D01*
X189680032Y-112383658D01*
X189737100Y-112096760D01*
X189737100Y-111804240D01*
X189680032Y-111517342D01*
X189568090Y-111247089D01*
X189405575Y-111003868D01*
X189198732Y-110797025D01*
X189024340Y-110680500D01*
X189198732Y-110563975D01*
X189405575Y-110357132D01*
X189568090Y-110113911D01*
X189680032Y-109843658D01*
X189737100Y-109556760D01*
X189737100Y-109264240D01*
X189680032Y-108977342D01*
X189568090Y-108707089D01*
X189405575Y-108463868D01*
X189198732Y-108257025D01*
X188955511Y-108094510D01*
X188685258Y-107982568D01*
X188398360Y-107925500D01*
X188105840Y-107925500D01*
X187818942Y-107982568D01*
X187548689Y-108094510D01*
X187305468Y-108257025D01*
X187098625Y-108463868D01*
X186936110Y-108707089D01*
X186824168Y-108977342D01*
X186767100Y-109264240D01*
X186767100Y-109556760D01*
X186824168Y-109843658D01*
X186936110Y-110113911D01*
X187098625Y-110357132D01*
X187305468Y-110563975D01*
X187479860Y-110680500D01*
X187305468Y-110797025D01*
X187098625Y-111003868D01*
X186936110Y-111247089D01*
X186824168Y-111517342D01*
X186767100Y-111804240D01*
X186767100Y-112096760D01*
X186824168Y-112383658D01*
X186936110Y-112653911D01*
X187098625Y-112897132D01*
X187230480Y-113028987D01*
X187157920Y-113050998D01*
X187047606Y-113109963D01*
X186950915Y-113189315D01*
X186871563Y-113286006D01*
X186812598Y-113396320D01*
X186776288Y-113516018D01*
X186764028Y-113640500D01*
X180244999Y-113640500D01*
X180244999Y-109607259D01*
X180248748Y-109569196D01*
X180244999Y-109531132D01*
X180233785Y-109417271D01*
X180189469Y-109271183D01*
X180117505Y-109136547D01*
X180020658Y-109018538D01*
X179991082Y-108994266D01*
X179987885Y-108991069D01*
X179969068Y-108896469D01*
X179898586Y-108726309D01*
X179796262Y-108573170D01*
X179729338Y-108506246D01*
X179822182Y-108367295D01*
X179892664Y-108197135D01*
X179911481Y-108102535D01*
X181690516Y-106323500D01*
X186764028Y-106323500D01*
X186776288Y-106447982D01*
X186812598Y-106567680D01*
X186871563Y-106677994D01*
X186950915Y-106774685D01*
X187047606Y-106854037D01*
X187157920Y-106913002D01*
X187277618Y-106949312D01*
X187402100Y-106961572D01*
X187966350Y-106958500D01*
X188125100Y-106799750D01*
X188125100Y-105600500D01*
X188379100Y-105600500D01*
X188379100Y-106799750D01*
X188537850Y-106958500D01*
X189102100Y-106961572D01*
X189226582Y-106949312D01*
X189346280Y-106913002D01*
X189456594Y-106854037D01*
X189553285Y-106774685D01*
X189632637Y-106677994D01*
X189691602Y-106567680D01*
X189727912Y-106447982D01*
X189740172Y-106323500D01*
X189737100Y-105759250D01*
X189578350Y-105600500D01*
X188379100Y-105600500D01*
X188125100Y-105600500D01*
X186925850Y-105600500D01*
X186767100Y-105759250D01*
X186764028Y-106323500D01*
X181690516Y-106323500D01*
X183390516Y-104623500D01*
X186764028Y-104623500D01*
X186767100Y-105187750D01*
X186925850Y-105346500D01*
X188125100Y-105346500D01*
X188125100Y-105326500D01*
X188379100Y-105326500D01*
X188379100Y-105346500D01*
X189578350Y-105346500D01*
X189737100Y-105187750D01*
X189740172Y-104623500D01*
X189727912Y-104499018D01*
X189691602Y-104379320D01*
X189632637Y-104269006D01*
X189553285Y-104172315D01*
X189456594Y-104092963D01*
X189346280Y-104033998D01*
X189273720Y-104011987D01*
X189405575Y-103880132D01*
X189568090Y-103636911D01*
X189680032Y-103366658D01*
X189737100Y-103079760D01*
X189737100Y-102787240D01*
X189680032Y-102500342D01*
X189568090Y-102230089D01*
X189405575Y-101986868D01*
X189198732Y-101780025D01*
X189024340Y-101663500D01*
X189198732Y-101546975D01*
X189405575Y-101340132D01*
X189568090Y-101096911D01*
X189680032Y-100826658D01*
X189737100Y-100539760D01*
X189737100Y-100247240D01*
X189680032Y-99960342D01*
X189568090Y-99690089D01*
X189405575Y-99446868D01*
X189198732Y-99240025D01*
X188955511Y-99077510D01*
X188685258Y-98965568D01*
X188398360Y-98908500D01*
X188105840Y-98908500D01*
X187818942Y-98965568D01*
X187548689Y-99077510D01*
X187305468Y-99240025D01*
X187098625Y-99446868D01*
X186936110Y-99690089D01*
X186824168Y-99960342D01*
X186767100Y-100247240D01*
X186767100Y-100539760D01*
X186824168Y-100826658D01*
X186936110Y-101096911D01*
X187098625Y-101340132D01*
X187305468Y-101546975D01*
X187479860Y-101663500D01*
X187305468Y-101780025D01*
X187098625Y-101986868D01*
X186936110Y-102230089D01*
X186824168Y-102500342D01*
X186767100Y-102787240D01*
X186767100Y-103079760D01*
X186824168Y-103366658D01*
X186936110Y-103636911D01*
X187098625Y-103880132D01*
X187230480Y-104011987D01*
X187157920Y-104033998D01*
X187047606Y-104092963D01*
X186950915Y-104172315D01*
X186871563Y-104269006D01*
X186812598Y-104379320D01*
X186776288Y-104499018D01*
X186764028Y-104623500D01*
X183390516Y-104623500D01*
X186245887Y-101768130D01*
X186275459Y-101743861D01*
X186337458Y-101668314D01*
X186372306Y-101625853D01*
X186414466Y-101546975D01*
X186444270Y-101491216D01*
X186488586Y-101345128D01*
X186499800Y-101231267D01*
X186499800Y-101231265D01*
X186503549Y-101193202D01*
X186499800Y-101155139D01*
X186499800Y-94943356D01*
X186671432Y-94828675D01*
X186803287Y-94696820D01*
X186825298Y-94769380D01*
X186884263Y-94879694D01*
X186963615Y-94976385D01*
X187060306Y-95055737D01*
X187170620Y-95114702D01*
X187290318Y-95151012D01*
X187414800Y-95163272D01*
X187979050Y-95160200D01*
X188137800Y-95001450D01*
X188137800Y-93802200D01*
X188391800Y-93802200D01*
X188391800Y-95001450D01*
X188550550Y-95160200D01*
X189114800Y-95163272D01*
X189239282Y-95151012D01*
X189358980Y-95114702D01*
X189469294Y-95055737D01*
X189565985Y-94976385D01*
X189645337Y-94879694D01*
X189704302Y-94769380D01*
X189740612Y-94649682D01*
X189752872Y-94525200D01*
X189749800Y-93960950D01*
X189591050Y-93802200D01*
X188391800Y-93802200D01*
X188137800Y-93802200D01*
X188117800Y-93802200D01*
X188117800Y-93548200D01*
X188137800Y-93548200D01*
X188137800Y-92348950D01*
X188391800Y-92348950D01*
X188391800Y-93548200D01*
X189591050Y-93548200D01*
X189749800Y-93389450D01*
X189752872Y-92825200D01*
X189740612Y-92700718D01*
X189704302Y-92581020D01*
X189645337Y-92470706D01*
X189565985Y-92374015D01*
X189469294Y-92294663D01*
X189358980Y-92235698D01*
X189239282Y-92199388D01*
X189114800Y-92187128D01*
X188550550Y-92190200D01*
X188391800Y-92348950D01*
X188137800Y-92348950D01*
X187979050Y-92190200D01*
X187414800Y-92187128D01*
X187290318Y-92199388D01*
X187170620Y-92235698D01*
X187060306Y-92294663D01*
X186963615Y-92374015D01*
X186884263Y-92470706D01*
X186825298Y-92581020D01*
X186803287Y-92653580D01*
X186671432Y-92521725D01*
X186428211Y-92359210D01*
X186157958Y-92247268D01*
X185871060Y-92190200D01*
X185578540Y-92190200D01*
X185291642Y-92247268D01*
X185021389Y-92359210D01*
X184778168Y-92521725D01*
X184571325Y-92728568D01*
X184408810Y-92971789D01*
X184296868Y-93242042D01*
X184239800Y-93528940D01*
X184239800Y-93821460D01*
X184296868Y-94108358D01*
X184408810Y-94378611D01*
X184571325Y-94621832D01*
X184778168Y-94828675D01*
X184949800Y-94943356D01*
X184949801Y-100872186D01*
X178815467Y-107006521D01*
X178720867Y-107025338D01*
X178550707Y-107095820D01*
X178397568Y-107198144D01*
X178267334Y-107328378D01*
X178165010Y-107481517D01*
X178094528Y-107651677D01*
X178058596Y-107832317D01*
X178058596Y-108016495D01*
X178094528Y-108197135D01*
X178165010Y-108367295D01*
X178267334Y-108520434D01*
X178334258Y-108587358D01*
X178241414Y-108726309D01*
X178170932Y-108896469D01*
X178135000Y-109077109D01*
X178135000Y-109261287D01*
X178170932Y-109441927D01*
X178241414Y-109612087D01*
X178343738Y-109765226D01*
X178473972Y-109895460D01*
X178627111Y-109997784D01*
X178694999Y-110025904D01*
X178695000Y-114340985D01*
X173322715Y-119713271D01*
X173120260Y-119673000D01*
X173015015Y-119673000D01*
X177686093Y-115001923D01*
X177715659Y-114977659D01*
X177812506Y-114859650D01*
X177884470Y-114725014D01*
X177928786Y-114578926D01*
X177940000Y-114465065D01*
X177940000Y-114465064D01*
X177943749Y-114427001D01*
X177940000Y-114388938D01*
X177940000Y-113400680D01*
X177993582Y-113320489D01*
X178064064Y-113150329D01*
X178099996Y-112969689D01*
X178099996Y-112785511D01*
X178064064Y-112604871D01*
X177993582Y-112434711D01*
X177891258Y-112281572D01*
X177761024Y-112151338D01*
X177607885Y-112049014D01*
X177437725Y-111978532D01*
X177257085Y-111942600D01*
X177072907Y-111942600D01*
X176892267Y-111978532D01*
X176722107Y-112049014D01*
X176663392Y-112088246D01*
X176642690Y-112074414D01*
X176472530Y-112003932D01*
X176291890Y-111968000D01*
X176107712Y-111968000D01*
X175927072Y-112003932D01*
X175756912Y-112074414D01*
X175603773Y-112176738D01*
X175473539Y-112306972D01*
X175371215Y-112460111D01*
X175300733Y-112630271D01*
X175281916Y-112724870D01*
X168336859Y-119669928D01*
X167044000Y-119669928D01*
X166919518Y-119682188D01*
X166799820Y-119718498D01*
X166689506Y-119777463D01*
X166592815Y-119856815D01*
X166513463Y-119953506D01*
X166454498Y-120063820D01*
X166418188Y-120183518D01*
X166405928Y-120308000D01*
X160633525Y-120308000D01*
X160631000Y-119310150D01*
X160472250Y-119151400D01*
X158623000Y-119151400D01*
X158369000Y-119151400D01*
X156519750Y-119151400D01*
X156361000Y-119310150D01*
X156357928Y-120524400D01*
X154330000Y-120524400D01*
X154330000Y-117524400D01*
X156357928Y-117524400D01*
X156361000Y-118738650D01*
X156519750Y-118897400D01*
X158369000Y-118897400D01*
X158369000Y-117048150D01*
X158623000Y-117048150D01*
X158623000Y-118897400D01*
X160472250Y-118897400D01*
X160631000Y-118738650D01*
X160634072Y-117524400D01*
X160621812Y-117399918D01*
X160585502Y-117280220D01*
X160526537Y-117169906D01*
X160447185Y-117073215D01*
X160350494Y-116993863D01*
X160240180Y-116934898D01*
X160120482Y-116898588D01*
X159996000Y-116886328D01*
X158781750Y-116889400D01*
X158623000Y-117048150D01*
X158369000Y-117048150D01*
X158210250Y-116889400D01*
X156996000Y-116886328D01*
X156871518Y-116898588D01*
X156751820Y-116934898D01*
X156641506Y-116993863D01*
X156544815Y-117073215D01*
X156465463Y-117169906D01*
X156406498Y-117280220D01*
X156370188Y-117399918D01*
X156357928Y-117524400D01*
X154330000Y-117524400D01*
X154330000Y-113734121D01*
X156361000Y-113734121D01*
X156361000Y-114154679D01*
X156443047Y-114567156D01*
X156603988Y-114955702D01*
X156837637Y-115305383D01*
X157135017Y-115602763D01*
X157484698Y-115836412D01*
X157873244Y-115997353D01*
X158285721Y-116079400D01*
X158706279Y-116079400D01*
X159118756Y-115997353D01*
X159507302Y-115836412D01*
X159856983Y-115602763D01*
X160154363Y-115305383D01*
X160388012Y-114955702D01*
X160548953Y-114567156D01*
X160631000Y-114154679D01*
X160631000Y-113734121D01*
X160548953Y-113321644D01*
X160388012Y-112933098D01*
X160154363Y-112583417D01*
X159856983Y-112286037D01*
X159507302Y-112052388D01*
X159118756Y-111891447D01*
X158706279Y-111809400D01*
X158285721Y-111809400D01*
X157873244Y-111891447D01*
X157484698Y-112052388D01*
X157135017Y-112286037D01*
X156837637Y-112583417D01*
X156603988Y-112933098D01*
X156443047Y-113321644D01*
X156361000Y-113734121D01*
X154330000Y-113734121D01*
X154330000Y-108992741D01*
X174231300Y-108992741D01*
X174231300Y-109167859D01*
X174265464Y-109339612D01*
X174321130Y-109474000D01*
X174265464Y-109608388D01*
X174231300Y-109780141D01*
X174231300Y-109955259D01*
X174265464Y-110127012D01*
X174332479Y-110288799D01*
X174429769Y-110434404D01*
X174553596Y-110558231D01*
X174699201Y-110655521D01*
X174860988Y-110722536D01*
X175032741Y-110756700D01*
X175207859Y-110756700D01*
X175379612Y-110722536D01*
X175514000Y-110666870D01*
X175648388Y-110722536D01*
X175820141Y-110756700D01*
X175995259Y-110756700D01*
X176167012Y-110722536D01*
X176328799Y-110655521D01*
X176474404Y-110558231D01*
X176598231Y-110434404D01*
X176695521Y-110288799D01*
X176762536Y-110127012D01*
X176796700Y-109955259D01*
X176796700Y-109780141D01*
X176762536Y-109608388D01*
X176706870Y-109474000D01*
X176762536Y-109339612D01*
X176796700Y-109167859D01*
X176796700Y-108992741D01*
X176762536Y-108820988D01*
X176695521Y-108659201D01*
X176598231Y-108513596D01*
X176474404Y-108389769D01*
X176328799Y-108292479D01*
X176167012Y-108225464D01*
X175995259Y-108191300D01*
X175820141Y-108191300D01*
X175648388Y-108225464D01*
X175514000Y-108281130D01*
X175379612Y-108225464D01*
X175207859Y-108191300D01*
X175032741Y-108191300D01*
X174860988Y-108225464D01*
X174699201Y-108292479D01*
X174553596Y-108389769D01*
X174429769Y-108513596D01*
X174332479Y-108659201D01*
X174265464Y-108820988D01*
X174231300Y-108992741D01*
X154330000Y-108992741D01*
X154330000Y-104590121D01*
X156361000Y-104590121D01*
X156361000Y-105010679D01*
X156443047Y-105423156D01*
X156603988Y-105811702D01*
X156837637Y-106161383D01*
X157135017Y-106458763D01*
X157484698Y-106692412D01*
X157873244Y-106853353D01*
X158285721Y-106935400D01*
X158706279Y-106935400D01*
X159118756Y-106853353D01*
X159507302Y-106692412D01*
X159856983Y-106458763D01*
X160154363Y-106161383D01*
X160388012Y-105811702D01*
X160548953Y-105423156D01*
X160631000Y-105010679D01*
X160631000Y-104590121D01*
X160548953Y-104177644D01*
X160388012Y-103789098D01*
X160154363Y-103439417D01*
X159856983Y-103142037D01*
X159507302Y-102908388D01*
X159118756Y-102747447D01*
X158706279Y-102665400D01*
X158285721Y-102665400D01*
X157873244Y-102747447D01*
X157484698Y-102908388D01*
X157135017Y-103142037D01*
X156837637Y-103439417D01*
X156603988Y-103789098D01*
X156443047Y-104177644D01*
X156361000Y-104590121D01*
X154330000Y-104590121D01*
X154330000Y-99510121D01*
X156361000Y-99510121D01*
X156361000Y-99930679D01*
X156443047Y-100343156D01*
X156603988Y-100731702D01*
X156837637Y-101081383D01*
X157135017Y-101378763D01*
X157484698Y-101612412D01*
X157873244Y-101773353D01*
X158285721Y-101855400D01*
X158706279Y-101855400D01*
X159118756Y-101773353D01*
X159507302Y-101612412D01*
X159856983Y-101378763D01*
X160154363Y-101081383D01*
X160388012Y-100731702D01*
X160548953Y-100343156D01*
X160631000Y-99930679D01*
X160631000Y-99510121D01*
X160548953Y-99097644D01*
X160388012Y-98709098D01*
X160154363Y-98359417D01*
X159856983Y-98062037D01*
X159507302Y-97828388D01*
X159118756Y-97667447D01*
X158706279Y-97585400D01*
X158285721Y-97585400D01*
X157873244Y-97667447D01*
X157484698Y-97828388D01*
X157135017Y-98062037D01*
X156837637Y-98359417D01*
X156603988Y-98709098D01*
X156443047Y-99097644D01*
X156361000Y-99510121D01*
X154330000Y-99510121D01*
X154330000Y-93528940D01*
X155741000Y-93528940D01*
X155741000Y-93821460D01*
X155798068Y-94108358D01*
X155910010Y-94378611D01*
X156072525Y-94621832D01*
X156279368Y-94828675D01*
X156522589Y-94991190D01*
X156792842Y-95103132D01*
X157079740Y-95160200D01*
X157372260Y-95160200D01*
X157659158Y-95103132D01*
X157929411Y-94991190D01*
X158172632Y-94828675D01*
X158304487Y-94696820D01*
X158326498Y-94769380D01*
X158385463Y-94879694D01*
X158464815Y-94976385D01*
X158561506Y-95055737D01*
X158671820Y-95114702D01*
X158791518Y-95151012D01*
X158916000Y-95163272D01*
X160616000Y-95163272D01*
X160740482Y-95151012D01*
X160860180Y-95114702D01*
X160970494Y-95055737D01*
X161067185Y-94976385D01*
X161146537Y-94879694D01*
X161205502Y-94769380D01*
X161241812Y-94649682D01*
X161254072Y-94525200D01*
X161254072Y-93528940D01*
X162040200Y-93528940D01*
X162040200Y-93821460D01*
X162097268Y-94108358D01*
X162209210Y-94378611D01*
X162371725Y-94621832D01*
X162578568Y-94828675D01*
X162821789Y-94991190D01*
X163092042Y-95103132D01*
X163378940Y-95160200D01*
X163671460Y-95160200D01*
X163958358Y-95103132D01*
X164228611Y-94991190D01*
X164471832Y-94828675D01*
X164603687Y-94696820D01*
X164625698Y-94769380D01*
X164684663Y-94879694D01*
X164764015Y-94976385D01*
X164860706Y-95055737D01*
X164971020Y-95114702D01*
X165090718Y-95151012D01*
X165215200Y-95163272D01*
X166915200Y-95163272D01*
X167039682Y-95151012D01*
X167159380Y-95114702D01*
X167269694Y-95055737D01*
X167366385Y-94976385D01*
X167445737Y-94879694D01*
X167504702Y-94769380D01*
X167541012Y-94649682D01*
X167553272Y-94525200D01*
X167553272Y-94032091D01*
X168382919Y-94032091D01*
X168480243Y-94306452D01*
X168629222Y-94556555D01*
X168824131Y-94772788D01*
X169057480Y-94946841D01*
X169320301Y-95072025D01*
X169467510Y-95116676D01*
X169697400Y-94995355D01*
X169697400Y-93802200D01*
X168503586Y-93802200D01*
X168382919Y-94032091D01*
X167553272Y-94032091D01*
X167553272Y-93318309D01*
X168382919Y-93318309D01*
X168503586Y-93548200D01*
X169697400Y-93548200D01*
X169697400Y-92355045D01*
X169951400Y-92355045D01*
X169951400Y-93548200D01*
X169971400Y-93548200D01*
X169971400Y-93802200D01*
X169951400Y-93802200D01*
X169951400Y-94995355D01*
X170181290Y-95116676D01*
X170328499Y-95072025D01*
X170591320Y-94946841D01*
X170824669Y-94772788D01*
X171019578Y-94556555D01*
X171089205Y-94439666D01*
X171210925Y-94621832D01*
X171417768Y-94828675D01*
X171660989Y-94991190D01*
X171931242Y-95103132D01*
X172218140Y-95160200D01*
X172510660Y-95160200D01*
X172797558Y-95103132D01*
X173067811Y-94991190D01*
X173311032Y-94828675D01*
X173442887Y-94696820D01*
X173464898Y-94769380D01*
X173523863Y-94879694D01*
X173603215Y-94976385D01*
X173699906Y-95055737D01*
X173810220Y-95114702D01*
X173929918Y-95151012D01*
X174054400Y-95163272D01*
X175754400Y-95163272D01*
X175878882Y-95151012D01*
X175998580Y-95114702D01*
X176108894Y-95055737D01*
X176205585Y-94976385D01*
X176284937Y-94879694D01*
X176343902Y-94769380D01*
X176380212Y-94649682D01*
X176392472Y-94525200D01*
X176392472Y-93528940D01*
X177940600Y-93528940D01*
X177940600Y-93821460D01*
X177997668Y-94108358D01*
X178109610Y-94378611D01*
X178272125Y-94621832D01*
X178478968Y-94828675D01*
X178722189Y-94991190D01*
X178992442Y-95103132D01*
X179279340Y-95160200D01*
X179571860Y-95160200D01*
X179858758Y-95103132D01*
X180129011Y-94991190D01*
X180372232Y-94828675D01*
X180504087Y-94696820D01*
X180526098Y-94769380D01*
X180585063Y-94879694D01*
X180664415Y-94976385D01*
X180761106Y-95055737D01*
X180871420Y-95114702D01*
X180991118Y-95151012D01*
X181115600Y-95163272D01*
X181679850Y-95160200D01*
X181838600Y-95001450D01*
X181838600Y-93802200D01*
X182092600Y-93802200D01*
X182092600Y-95001450D01*
X182251350Y-95160200D01*
X182815600Y-95163272D01*
X182940082Y-95151012D01*
X183059780Y-95114702D01*
X183170094Y-95055737D01*
X183266785Y-94976385D01*
X183346137Y-94879694D01*
X183405102Y-94769380D01*
X183441412Y-94649682D01*
X183453672Y-94525200D01*
X183450600Y-93960950D01*
X183291850Y-93802200D01*
X182092600Y-93802200D01*
X181838600Y-93802200D01*
X181818600Y-93802200D01*
X181818600Y-93548200D01*
X181838600Y-93548200D01*
X181838600Y-92348950D01*
X182092600Y-92348950D01*
X182092600Y-93548200D01*
X183291850Y-93548200D01*
X183450600Y-93389450D01*
X183453672Y-92825200D01*
X183441412Y-92700718D01*
X183405102Y-92581020D01*
X183346137Y-92470706D01*
X183266785Y-92374015D01*
X183170094Y-92294663D01*
X183059780Y-92235698D01*
X182940082Y-92199388D01*
X182815600Y-92187128D01*
X182251350Y-92190200D01*
X182092600Y-92348950D01*
X181838600Y-92348950D01*
X181679850Y-92190200D01*
X181115600Y-92187128D01*
X180991118Y-92199388D01*
X180871420Y-92235698D01*
X180761106Y-92294663D01*
X180664415Y-92374015D01*
X180585063Y-92470706D01*
X180526098Y-92581020D01*
X180504087Y-92653580D01*
X180372232Y-92521725D01*
X180129011Y-92359210D01*
X179858758Y-92247268D01*
X179571860Y-92190200D01*
X179279340Y-92190200D01*
X178992442Y-92247268D01*
X178722189Y-92359210D01*
X178478968Y-92521725D01*
X178272125Y-92728568D01*
X178109610Y-92971789D01*
X177997668Y-93242042D01*
X177940600Y-93528940D01*
X176392472Y-93528940D01*
X176392472Y-92825200D01*
X176380212Y-92700718D01*
X176343902Y-92581020D01*
X176284937Y-92470706D01*
X176205585Y-92374015D01*
X176108894Y-92294663D01*
X175998580Y-92235698D01*
X175878882Y-92199388D01*
X175754400Y-92187128D01*
X174054400Y-92187128D01*
X173929918Y-92199388D01*
X173810220Y-92235698D01*
X173699906Y-92294663D01*
X173603215Y-92374015D01*
X173523863Y-92470706D01*
X173464898Y-92581020D01*
X173442887Y-92653580D01*
X173311032Y-92521725D01*
X173067811Y-92359210D01*
X172797558Y-92247268D01*
X172510660Y-92190200D01*
X172218140Y-92190200D01*
X171931242Y-92247268D01*
X171660989Y-92359210D01*
X171417768Y-92521725D01*
X171210925Y-92728568D01*
X171089205Y-92910734D01*
X171019578Y-92793845D01*
X170824669Y-92577612D01*
X170591320Y-92403559D01*
X170328499Y-92278375D01*
X170181290Y-92233724D01*
X169951400Y-92355045D01*
X169697400Y-92355045D01*
X169467510Y-92233724D01*
X169320301Y-92278375D01*
X169057480Y-92403559D01*
X168824131Y-92577612D01*
X168629222Y-92793845D01*
X168480243Y-93043948D01*
X168382919Y-93318309D01*
X167553272Y-93318309D01*
X167553272Y-92825200D01*
X167541012Y-92700718D01*
X167504702Y-92581020D01*
X167445737Y-92470706D01*
X167366385Y-92374015D01*
X167269694Y-92294663D01*
X167159380Y-92235698D01*
X167039682Y-92199388D01*
X166915200Y-92187128D01*
X165215200Y-92187128D01*
X165090718Y-92199388D01*
X164971020Y-92235698D01*
X164860706Y-92294663D01*
X164764015Y-92374015D01*
X164684663Y-92470706D01*
X164625698Y-92581020D01*
X164603687Y-92653580D01*
X164471832Y-92521725D01*
X164228611Y-92359210D01*
X163958358Y-92247268D01*
X163671460Y-92190200D01*
X163378940Y-92190200D01*
X163092042Y-92247268D01*
X162821789Y-92359210D01*
X162578568Y-92521725D01*
X162371725Y-92728568D01*
X162209210Y-92971789D01*
X162097268Y-93242042D01*
X162040200Y-93528940D01*
X161254072Y-93528940D01*
X161254072Y-92825200D01*
X161241812Y-92700718D01*
X161205502Y-92581020D01*
X161146537Y-92470706D01*
X161067185Y-92374015D01*
X160970494Y-92294663D01*
X160860180Y-92235698D01*
X160740482Y-92199388D01*
X160616000Y-92187128D01*
X158916000Y-92187128D01*
X158791518Y-92199388D01*
X158671820Y-92235698D01*
X158561506Y-92294663D01*
X158464815Y-92374015D01*
X158385463Y-92470706D01*
X158326498Y-92581020D01*
X158304487Y-92653580D01*
X158172632Y-92521725D01*
X157929411Y-92359210D01*
X157659158Y-92247268D01*
X157372260Y-92190200D01*
X157079740Y-92190200D01*
X156792842Y-92247268D01*
X156522589Y-92359210D01*
X156279368Y-92521725D01*
X156072525Y-92728568D01*
X155910010Y-92971789D01*
X155798068Y-93242042D01*
X155741000Y-93528940D01*
X154330000Y-93528940D01*
X154330000Y-89197721D01*
X154837000Y-89197721D01*
X154837000Y-89618279D01*
X154919047Y-90030756D01*
X155079988Y-90419302D01*
X155313637Y-90768983D01*
X155611017Y-91066363D01*
X155960698Y-91300012D01*
X156349244Y-91460953D01*
X156761721Y-91543000D01*
X157182279Y-91543000D01*
X157594756Y-91460953D01*
X157983302Y-91300012D01*
X158332983Y-91066363D01*
X158630363Y-90768983D01*
X158864012Y-90419302D01*
X159024953Y-90030756D01*
X159107000Y-89618279D01*
X159107000Y-89197721D01*
X188873000Y-89197721D01*
X188873000Y-89618279D01*
X188955047Y-90030756D01*
X189115988Y-90419302D01*
X189349637Y-90768983D01*
X189647017Y-91066363D01*
X189996698Y-91300012D01*
X190385244Y-91460953D01*
X190797721Y-91543000D01*
X191218279Y-91543000D01*
X191630756Y-91460953D01*
X192019302Y-91300012D01*
X192368983Y-91066363D01*
X192666363Y-90768983D01*
X192900012Y-90419302D01*
X193060953Y-90030756D01*
X193143000Y-89618279D01*
X193143000Y-89197721D01*
X193060953Y-88785244D01*
X192900012Y-88396698D01*
X192666363Y-88047017D01*
X192368983Y-87749637D01*
X192019302Y-87515988D01*
X191630756Y-87355047D01*
X191218279Y-87273000D01*
X190797721Y-87273000D01*
X190385244Y-87355047D01*
X189996698Y-87515988D01*
X189647017Y-87749637D01*
X189349637Y-88047017D01*
X189115988Y-88396698D01*
X188955047Y-88785244D01*
X188873000Y-89197721D01*
X159107000Y-89197721D01*
X159024953Y-88785244D01*
X158864012Y-88396698D01*
X158630363Y-88047017D01*
X158332983Y-87749637D01*
X157983302Y-87515988D01*
X157594756Y-87355047D01*
X157182279Y-87273000D01*
X156761721Y-87273000D01*
X156349244Y-87355047D01*
X155960698Y-87515988D01*
X155611017Y-87749637D01*
X155313637Y-88047017D01*
X155079988Y-88396698D01*
X154919047Y-88785244D01*
X154837000Y-89197721D01*
X154330000Y-89197721D01*
X154330000Y-86766000D01*
X193650001Y-86766000D01*
X193650000Y-127102000D01*
G37*
G04 #@! TD.AperFunction*
M02*
