G04 #@! TF.GenerationSoftware,KiCad,Pcbnew,(5.1.10)-1*
G04 #@! TF.CreationDate,2021-07-06T21:05:29-03:00*
G04 #@! TF.ProjectId,BQ25505,42513235-3530-4352-9e6b-696361645f70,rev?*
G04 #@! TF.SameCoordinates,Original*
G04 #@! TF.FileFunction,Soldermask,Bot*
G04 #@! TF.FilePolarity,Negative*
%FSLAX46Y46*%
G04 Gerber Fmt 4.6, Leading zero omitted, Abs format (unit mm)*
G04 Created by KiCad (PCBNEW (5.1.10)-1) date 2021-07-06 21:05:29*
%MOMM*%
%LPD*%
G01*
G04 APERTURE LIST*
%ADD10C,3.102000*%
%ADD11O,1.802000X1.802000*%
%ADD12O,3.102000X3.102000*%
%ADD13C,0.610000*%
%ADD14C,0.100000*%
G04 APERTURE END LIST*
D10*
X191008000Y-124460000D03*
X156972000Y-124460000D03*
X191008000Y-89408000D03*
X156972000Y-89408000D03*
D11*
X183896000Y-121158000D03*
X181356000Y-121158000D03*
G36*
G01*
X179666000Y-122059000D02*
X177966000Y-122059000D01*
G75*
G02*
X177915000Y-122008000I0J51000D01*
G01*
X177915000Y-120308000D01*
G75*
G02*
X177966000Y-120257000I51000J0D01*
G01*
X179666000Y-120257000D01*
G75*
G02*
X179717000Y-120308000I0J-51000D01*
G01*
X179717000Y-122008000D01*
G75*
G02*
X179666000Y-122059000I-51000J0D01*
G01*
G37*
D12*
X158496000Y-113944400D03*
G36*
G01*
X159996000Y-120575400D02*
X156996000Y-120575400D01*
G75*
G02*
X156945000Y-120524400I0J51000D01*
G01*
X156945000Y-117524400D01*
G75*
G02*
X156996000Y-117473400I51000J0D01*
G01*
X159996000Y-117473400D01*
G75*
G02*
X160047000Y-117524400I0J-51000D01*
G01*
X160047000Y-120524400D01*
G75*
G02*
X159996000Y-120575400I-51000J0D01*
G01*
G37*
D10*
X158496000Y-99720400D03*
X158496000Y-104800400D03*
D11*
X172974000Y-121158000D03*
X170434000Y-121158000D03*
G36*
G01*
X168744000Y-122059000D02*
X167044000Y-122059000D01*
G75*
G02*
X166993000Y-122008000I0J51000D01*
G01*
X166993000Y-120308000D01*
G75*
G02*
X167044000Y-120257000I51000J0D01*
G01*
X168744000Y-120257000D01*
G75*
G02*
X168795000Y-120308000I0J-51000D01*
G01*
X168795000Y-122008000D01*
G75*
G02*
X168744000Y-122059000I-51000J0D01*
G01*
G37*
X179425600Y-93675200D03*
G36*
G01*
X181115600Y-92774200D02*
X182815600Y-92774200D01*
G75*
G02*
X182866600Y-92825200I0J-51000D01*
G01*
X182866600Y-94525200D01*
G75*
G02*
X182815600Y-94576200I-51000J0D01*
G01*
X181115600Y-94576200D01*
G75*
G02*
X181064600Y-94525200I0J51000D01*
G01*
X181064600Y-92825200D01*
G75*
G02*
X181115600Y-92774200I51000J0D01*
G01*
G37*
X188252100Y-109410500D03*
X188252100Y-111950500D03*
G36*
G01*
X189153100Y-113640500D02*
X189153100Y-115340500D01*
G75*
G02*
X189102100Y-115391500I-51000J0D01*
G01*
X187402100Y-115391500D01*
G75*
G02*
X187351100Y-115340500I0J51000D01*
G01*
X187351100Y-113640500D01*
G75*
G02*
X187402100Y-113589500I51000J0D01*
G01*
X189102100Y-113589500D01*
G75*
G02*
X189153100Y-113640500I0J-51000D01*
G01*
G37*
X163525200Y-93675200D03*
G36*
G01*
X165215200Y-92774200D02*
X166915200Y-92774200D01*
G75*
G02*
X166966200Y-92825200I0J-51000D01*
G01*
X166966200Y-94525200D01*
G75*
G02*
X166915200Y-94576200I-51000J0D01*
G01*
X165215200Y-94576200D01*
G75*
G02*
X165164200Y-94525200I0J51000D01*
G01*
X165164200Y-92825200D01*
G75*
G02*
X165215200Y-92774200I51000J0D01*
G01*
G37*
X157226000Y-93675200D03*
G36*
G01*
X158916000Y-92774200D02*
X160616000Y-92774200D01*
G75*
G02*
X160667000Y-92825200I0J-51000D01*
G01*
X160667000Y-94525200D01*
G75*
G02*
X160616000Y-94576200I-51000J0D01*
G01*
X158916000Y-94576200D01*
G75*
G02*
X158865000Y-94525200I0J51000D01*
G01*
X158865000Y-92825200D01*
G75*
G02*
X158916000Y-92774200I51000J0D01*
G01*
G37*
X185724800Y-93675200D03*
G36*
G01*
X187414800Y-92774200D02*
X189114800Y-92774200D01*
G75*
G02*
X189165800Y-92825200I0J-51000D01*
G01*
X189165800Y-94525200D01*
G75*
G02*
X189114800Y-94576200I-51000J0D01*
G01*
X187414800Y-94576200D01*
G75*
G02*
X187363800Y-94525200I0J51000D01*
G01*
X187363800Y-92825200D01*
G75*
G02*
X187414800Y-92774200I51000J0D01*
G01*
G37*
D13*
X175120300Y-109867700D03*
X175120300Y-109080300D03*
X175907700Y-109867700D03*
X175907700Y-109080300D03*
G36*
G01*
X174054400Y-92774200D02*
X175754400Y-92774200D01*
G75*
G02*
X175805400Y-92825200I0J-51000D01*
G01*
X175805400Y-94525200D01*
G75*
G02*
X175754400Y-94576200I-51000J0D01*
G01*
X174054400Y-94576200D01*
G75*
G02*
X174003400Y-94525200I0J51000D01*
G01*
X174003400Y-92825200D01*
G75*
G02*
X174054400Y-92774200I51000J0D01*
G01*
G37*
D11*
X172364400Y-93675200D03*
X169824400Y-93675200D03*
X188252100Y-100393500D03*
X188252100Y-102933500D03*
G36*
G01*
X189153100Y-104623500D02*
X189153100Y-106323500D01*
G75*
G02*
X189102100Y-106374500I-51000J0D01*
G01*
X187402100Y-106374500D01*
G75*
G02*
X187351100Y-106323500I0J51000D01*
G01*
X187351100Y-104623500D01*
G75*
G02*
X187402100Y-104572500I51000J0D01*
G01*
X189102100Y-104572500D01*
G75*
G02*
X189153100Y-104623500I0J-51000D01*
G01*
G37*
D14*
G36*
X175628285Y-109752146D02*
G01*
X175628435Y-109753967D01*
X175617757Y-109779745D01*
X175606169Y-109838004D01*
X175606169Y-109897396D01*
X175617757Y-109955655D01*
X175628435Y-109981434D01*
X175628174Y-109983417D01*
X175626326Y-109984182D01*
X175624823Y-109983142D01*
X175616262Y-109967125D01*
X175600967Y-109948488D01*
X175582330Y-109933192D01*
X175561066Y-109921827D01*
X175537991Y-109914827D01*
X175514000Y-109912464D01*
X175490009Y-109914827D01*
X175466934Y-109921827D01*
X175445671Y-109933192D01*
X175427034Y-109948487D01*
X175411738Y-109967124D01*
X175403177Y-109983141D01*
X175401478Y-109984197D01*
X175399715Y-109983254D01*
X175399565Y-109981433D01*
X175410243Y-109955655D01*
X175421831Y-109897396D01*
X175421831Y-109838004D01*
X175410243Y-109779745D01*
X175399565Y-109753966D01*
X175399826Y-109751983D01*
X175401674Y-109751218D01*
X175403177Y-109752258D01*
X175411738Y-109768275D01*
X175427033Y-109786912D01*
X175445670Y-109802208D01*
X175466934Y-109813573D01*
X175490009Y-109820573D01*
X175514000Y-109822936D01*
X175537991Y-109820573D01*
X175561066Y-109813573D01*
X175582329Y-109802208D01*
X175600966Y-109786913D01*
X175616262Y-109768276D01*
X175624823Y-109752259D01*
X175626522Y-109751203D01*
X175628285Y-109752146D01*
G37*
G36*
X176023417Y-109359826D02*
G01*
X176024182Y-109361674D01*
X176023142Y-109363177D01*
X176007125Y-109371738D01*
X175988488Y-109387033D01*
X175973192Y-109405670D01*
X175961827Y-109426934D01*
X175954827Y-109450009D01*
X175952464Y-109474000D01*
X175954827Y-109497991D01*
X175961827Y-109521066D01*
X175973192Y-109542329D01*
X175988487Y-109560966D01*
X176007124Y-109576262D01*
X176023141Y-109584823D01*
X176024197Y-109586522D01*
X176023254Y-109588285D01*
X176021433Y-109588435D01*
X175995655Y-109577757D01*
X175937396Y-109566169D01*
X175878004Y-109566169D01*
X175819745Y-109577757D01*
X175793966Y-109588435D01*
X175791983Y-109588174D01*
X175791218Y-109586326D01*
X175792258Y-109584823D01*
X175808275Y-109576262D01*
X175826912Y-109560967D01*
X175842208Y-109542330D01*
X175853573Y-109521066D01*
X175860573Y-109497991D01*
X175862936Y-109474000D01*
X175860573Y-109450009D01*
X175853573Y-109426934D01*
X175842208Y-109405671D01*
X175826913Y-109387034D01*
X175808276Y-109371738D01*
X175792259Y-109363177D01*
X175791203Y-109361478D01*
X175792146Y-109359715D01*
X175793967Y-109359565D01*
X175819745Y-109370243D01*
X175878004Y-109381831D01*
X175937396Y-109381831D01*
X175995655Y-109370243D01*
X176021434Y-109359565D01*
X176023417Y-109359826D01*
G37*
G36*
X175236017Y-109359826D02*
G01*
X175236782Y-109361674D01*
X175235742Y-109363177D01*
X175219725Y-109371738D01*
X175201088Y-109387033D01*
X175185792Y-109405670D01*
X175174427Y-109426934D01*
X175167427Y-109450009D01*
X175165064Y-109474000D01*
X175167427Y-109497991D01*
X175174427Y-109521066D01*
X175185792Y-109542329D01*
X175201087Y-109560966D01*
X175219724Y-109576262D01*
X175235741Y-109584823D01*
X175236797Y-109586522D01*
X175235854Y-109588285D01*
X175234033Y-109588435D01*
X175208255Y-109577757D01*
X175149996Y-109566169D01*
X175090604Y-109566169D01*
X175032345Y-109577757D01*
X175006566Y-109588435D01*
X175004583Y-109588174D01*
X175003818Y-109586326D01*
X175004858Y-109584823D01*
X175020875Y-109576262D01*
X175039512Y-109560967D01*
X175054808Y-109542330D01*
X175066173Y-109521066D01*
X175073173Y-109497991D01*
X175075536Y-109474000D01*
X175073173Y-109450009D01*
X175066173Y-109426934D01*
X175054808Y-109405671D01*
X175039513Y-109387034D01*
X175020876Y-109371738D01*
X175004859Y-109363177D01*
X175003803Y-109361478D01*
X175004746Y-109359715D01*
X175006567Y-109359565D01*
X175032345Y-109370243D01*
X175090604Y-109381831D01*
X175149996Y-109381831D01*
X175208255Y-109370243D01*
X175234034Y-109359565D01*
X175236017Y-109359826D01*
G37*
G36*
X175628285Y-108964746D02*
G01*
X175628435Y-108966567D01*
X175617757Y-108992345D01*
X175606169Y-109050604D01*
X175606169Y-109109996D01*
X175617757Y-109168255D01*
X175628435Y-109194034D01*
X175628174Y-109196017D01*
X175626326Y-109196782D01*
X175624823Y-109195742D01*
X175616262Y-109179725D01*
X175600967Y-109161088D01*
X175582330Y-109145792D01*
X175561066Y-109134427D01*
X175537991Y-109127427D01*
X175514000Y-109125064D01*
X175490009Y-109127427D01*
X175466934Y-109134427D01*
X175445671Y-109145792D01*
X175427034Y-109161087D01*
X175411738Y-109179724D01*
X175403177Y-109195741D01*
X175401478Y-109196797D01*
X175399715Y-109195854D01*
X175399565Y-109194033D01*
X175410243Y-109168255D01*
X175421831Y-109109996D01*
X175421831Y-109050604D01*
X175410243Y-108992345D01*
X175399565Y-108966566D01*
X175399826Y-108964583D01*
X175401674Y-108963818D01*
X175403177Y-108964858D01*
X175411738Y-108980875D01*
X175427033Y-108999512D01*
X175445670Y-109014808D01*
X175466934Y-109026173D01*
X175490009Y-109033173D01*
X175514000Y-109035536D01*
X175537991Y-109033173D01*
X175561066Y-109026173D01*
X175582329Y-109014808D01*
X175600966Y-108999513D01*
X175616262Y-108980876D01*
X175624823Y-108964859D01*
X175626522Y-108963803D01*
X175628285Y-108964746D01*
G37*
M02*
