%FSLAX45Y45*%
G04 Gerber Fmt 4.5, Leading zero omitted, Abs format (unit mm)*
G04 Created by KiCad (PCBNEW (5.1.10)-1) date 2021-07-06 21:05:42*
%MOMM*%
%LPD*%
G01*
G04 APERTURE LIST*
%TA.AperFunction,Profile*%
%ADD10C,0.050000*%
%TD*%
%ADD11C,0.200000*%
%ADD12C,0.300000*%
G04 APERTURE END LIST*
D10*
X15367000Y-12750800D02*
X15367000Y-12776200D01*
X15367000Y-8610600D02*
X15367000Y-12750800D01*
X19431000Y-8610600D02*
X15367000Y-8610600D01*
X19431000Y-12776200D02*
X19431000Y-8610600D01*
X15367000Y-12776200D02*
X19431000Y-12776200D01*
D11*
X17499330Y-10895330D02*
X17524730Y-10920730D01*
X17524730Y-10895330D02*
X17499330Y-10920730D01*
X17499330Y-10974070D02*
X17524730Y-10999470D01*
X17524730Y-10974070D02*
X17499330Y-10999470D01*
X17578070Y-10895330D02*
X17603470Y-10920730D01*
X17603470Y-10895330D02*
X17578070Y-10920730D01*
X17578070Y-10974070D02*
X17603470Y-10999470D01*
X17603470Y-10974070D02*
X17578070Y-10999470D01*
X17634980Y-11290300D02*
G75*
G03*
X17634980Y-11290300I-15000J0D01*
G01*
X17731500Y-11287760D02*
G75*
G03*
X17731500Y-11287760I-15000J0D01*
G01*
X17914360Y-10792441D02*
G75*
G03*
X17914360Y-10792441I-15000J0D01*
G01*
X17922000Y-10916920D02*
G75*
G03*
X17922000Y-10916920I-15000J0D01*
G01*
X16078200Y-8844600D02*
X16078200Y-8884600D01*
X16058200Y-8864600D02*
X16098200Y-8864600D01*
X16179800Y-12476800D02*
X16179800Y-12516800D01*
X16159800Y-12496800D02*
X16199800Y-12496800D01*
X16408400Y-11994200D02*
X16408400Y-12034200D01*
X16388400Y-12014200D02*
X16428400Y-12014200D01*
X16437428Y-8844600D02*
X16437428Y-8884600D01*
X16417428Y-8864600D02*
X16457428Y-8864600D01*
X16738600Y-9581200D02*
X16738600Y-9621200D01*
X16718600Y-9601200D02*
X16758600Y-9601200D01*
X16789400Y-12476800D02*
X16789400Y-12516800D01*
X16769400Y-12496800D02*
X16809400Y-12496800D01*
X16796657Y-8844600D02*
X16796657Y-8884600D01*
X16776657Y-8864600D02*
X16816657Y-8864600D01*
X17155886Y-8844600D02*
X17155886Y-8884600D01*
X17135886Y-8864600D02*
X17175886Y-8864600D01*
X17399000Y-12476800D02*
X17399000Y-12516800D01*
X17379000Y-12496800D02*
X17419000Y-12496800D01*
X17515114Y-8844600D02*
X17515114Y-8884600D01*
X17495114Y-8864600D02*
X17535114Y-8864600D01*
X17729200Y-9606600D02*
X17729200Y-9646600D01*
X17709200Y-9626600D02*
X17749200Y-9626600D01*
X17874343Y-8844600D02*
X17874343Y-8884600D01*
X17854343Y-8864600D02*
X17894343Y-8864600D01*
X18008600Y-12476800D02*
X18008600Y-12516800D01*
X17988600Y-12496800D02*
X18028600Y-12496800D01*
X18233571Y-8844600D02*
X18233571Y-8884600D01*
X18213571Y-8864600D02*
X18253571Y-8864600D01*
X18592800Y-8844600D02*
X18592800Y-8884600D01*
X18572800Y-8864600D02*
X18612800Y-8864600D01*
X18618200Y-12476800D02*
X18618200Y-12516800D01*
X18598200Y-12496800D02*
X18638200Y-12496800D01*
X19278600Y-9530400D02*
X19278600Y-9570400D01*
X19258600Y-9550400D02*
X19298600Y-9550400D01*
X19278600Y-10108250D02*
X19278600Y-10148250D01*
X19258600Y-10128250D02*
X19298600Y-10128250D01*
X19278600Y-10686100D02*
X19278600Y-10726100D01*
X19258600Y-10706100D02*
X19298600Y-10706100D01*
X19278600Y-11263950D02*
X19278600Y-11303950D01*
X19258600Y-11283950D02*
X19298600Y-11283950D01*
X19278600Y-11841800D02*
X19278600Y-11881800D01*
X19258600Y-11861800D02*
X19298600Y-11861800D01*
X15757956Y-9402876D02*
X15757956Y-9332164D01*
X15687244Y-9332164D01*
X15687244Y-9402876D01*
X15757956Y-9402876D01*
X16011956Y-9402876D02*
X16011956Y-9332164D01*
X15941244Y-9332164D01*
X15941244Y-9402876D01*
X16011956Y-9402876D01*
X16387876Y-9402876D02*
X16387876Y-9332164D01*
X16317164Y-9332164D01*
X16317164Y-9402876D01*
X16387876Y-9402876D01*
X16641876Y-9402876D02*
X16641876Y-9332164D01*
X16571164Y-9332164D01*
X16571164Y-9402876D01*
X16641876Y-9402876D01*
X16824756Y-12151156D02*
X16824756Y-12080444D01*
X16754044Y-12080444D01*
X16754044Y-12151156D01*
X16824756Y-12151156D01*
X17017796Y-9402876D02*
X17017796Y-9332164D01*
X16947084Y-9332164D01*
X16947084Y-9402876D01*
X17017796Y-9402876D01*
X17078756Y-12151156D02*
X17078756Y-12080444D01*
X17008044Y-12080444D01*
X17008044Y-12151156D01*
X17078756Y-12151156D01*
X17271796Y-9402876D02*
X17271796Y-9332164D01*
X17201084Y-9332164D01*
X17201084Y-9402876D01*
X17271796Y-9402876D01*
X17332756Y-12151156D02*
X17332756Y-12080444D01*
X17262044Y-12080444D01*
X17262044Y-12151156D01*
X17332756Y-12151156D01*
X17525796Y-9402876D02*
X17525796Y-9332164D01*
X17455084Y-9332164D01*
X17455084Y-9402876D01*
X17525796Y-9402876D01*
X17916956Y-12151156D02*
X17916956Y-12080444D01*
X17846244Y-12080444D01*
X17846244Y-12151156D01*
X17916956Y-12151156D01*
X17977916Y-9402876D02*
X17977916Y-9332164D01*
X17907204Y-9332164D01*
X17907204Y-9402876D01*
X17977916Y-9402876D01*
X18170956Y-12151156D02*
X18170956Y-12080444D01*
X18100244Y-12080444D01*
X18100244Y-12151156D01*
X18170956Y-12151156D01*
X18231916Y-9402876D02*
X18231916Y-9332164D01*
X18161204Y-9332164D01*
X18161204Y-9402876D01*
X18231916Y-9402876D01*
X18424956Y-12151156D02*
X18424956Y-12080444D01*
X18354244Y-12080444D01*
X18354244Y-12151156D01*
X18424956Y-12151156D01*
X18607836Y-9402876D02*
X18607836Y-9332164D01*
X18537124Y-9332164D01*
X18537124Y-9402876D01*
X18607836Y-9402876D01*
X18860566Y-10074706D02*
X18860566Y-10003994D01*
X18789854Y-10003994D01*
X18789854Y-10074706D01*
X18860566Y-10074706D01*
X18860566Y-10328706D02*
X18860566Y-10257994D01*
X18789854Y-10257994D01*
X18789854Y-10328706D01*
X18860566Y-10328706D01*
X18860566Y-10582706D02*
X18860566Y-10511994D01*
X18789854Y-10511994D01*
X18789854Y-10582706D01*
X18860566Y-10582706D01*
X18860566Y-10976406D02*
X18860566Y-10905694D01*
X18789854Y-10905694D01*
X18789854Y-10976406D01*
X18860566Y-10976406D01*
X18860566Y-11230406D02*
X18860566Y-11159694D01*
X18789854Y-11159694D01*
X18789854Y-11230406D01*
X18860566Y-11230406D01*
X18860566Y-11484406D02*
X18860566Y-11413694D01*
X18789854Y-11413694D01*
X18789854Y-11484406D01*
X18860566Y-11484406D01*
X18861836Y-9402876D02*
X18861836Y-9332164D01*
X18791124Y-9332164D01*
X18791124Y-9402876D01*
X18861836Y-9402876D01*
X15849600Y-10032040D02*
X15909600Y-9972040D01*
X15849600Y-9912040D01*
X15789600Y-9972040D01*
X15849600Y-10032040D01*
X15849600Y-10540040D02*
X15909600Y-10480040D01*
X15849600Y-10420040D01*
X15789600Y-10480040D01*
X15849600Y-10540040D01*
X15849600Y-11454440D02*
X15909600Y-11394440D01*
X15849600Y-11334440D01*
X15789600Y-11394440D01*
X15849600Y-11454440D01*
X15849600Y-11962440D02*
X15909600Y-11902440D01*
X15849600Y-11842440D01*
X15789600Y-11902440D01*
X15849600Y-11962440D01*
D12*
X15650928Y-13244414D02*
X15650928Y-12944414D01*
X15722357Y-12944414D01*
X15765214Y-12958700D01*
X15793786Y-12987271D01*
X15808071Y-13015843D01*
X15822357Y-13072986D01*
X15822357Y-13115843D01*
X15808071Y-13172986D01*
X15793786Y-13201557D01*
X15765214Y-13230129D01*
X15722357Y-13244414D01*
X15650928Y-13244414D01*
X15950928Y-13244414D02*
X15950928Y-13044414D01*
X15950928Y-13101557D02*
X15965214Y-13072986D01*
X15979500Y-13058700D01*
X16008071Y-13044414D01*
X16036643Y-13044414D01*
X16136643Y-13244414D02*
X16136643Y-13044414D01*
X16136643Y-12944414D02*
X16122357Y-12958700D01*
X16136643Y-12972986D01*
X16150928Y-12958700D01*
X16136643Y-12944414D01*
X16136643Y-12972986D01*
X16322357Y-13244414D02*
X16293786Y-13230129D01*
X16279500Y-13201557D01*
X16279500Y-12944414D01*
X16479500Y-13244414D02*
X16450928Y-13230129D01*
X16436643Y-13201557D01*
X16436643Y-12944414D01*
X16822357Y-13244414D02*
X16822357Y-12944414D01*
X16922357Y-13158700D01*
X17022357Y-12944414D01*
X17022357Y-13244414D01*
X17293786Y-13244414D02*
X17293786Y-13087271D01*
X17279500Y-13058700D01*
X17250928Y-13044414D01*
X17193786Y-13044414D01*
X17165214Y-13058700D01*
X17293786Y-13230129D02*
X17265214Y-13244414D01*
X17193786Y-13244414D01*
X17165214Y-13230129D01*
X17150928Y-13201557D01*
X17150928Y-13172986D01*
X17165214Y-13144414D01*
X17193786Y-13130129D01*
X17265214Y-13130129D01*
X17293786Y-13115843D01*
X17436643Y-13044414D02*
X17436643Y-13344414D01*
X17436643Y-13058700D02*
X17465214Y-13044414D01*
X17522357Y-13044414D01*
X17550928Y-13058700D01*
X17565214Y-13072986D01*
X17579500Y-13101557D01*
X17579500Y-13187271D01*
X17565214Y-13215843D01*
X17550928Y-13230129D01*
X17522357Y-13244414D01*
X17465214Y-13244414D01*
X17436643Y-13230129D01*
X17708071Y-13215843D02*
X17722357Y-13230129D01*
X17708071Y-13244414D01*
X17693786Y-13230129D01*
X17708071Y-13215843D01*
X17708071Y-13244414D01*
X17708071Y-13058700D02*
X17722357Y-13072986D01*
X17708071Y-13087271D01*
X17693786Y-13072986D01*
X17708071Y-13058700D01*
X17708071Y-13087271D01*
X15339100Y-13726000D02*
X15364500Y-13751400D01*
X15364500Y-13726000D02*
X15339100Y-13751400D01*
X15708071Y-13574414D02*
X15736643Y-13574414D01*
X15765214Y-13588700D01*
X15779500Y-13602986D01*
X15793786Y-13631557D01*
X15808071Y-13688700D01*
X15808071Y-13760129D01*
X15793786Y-13817271D01*
X15779500Y-13845843D01*
X15765214Y-13860129D01*
X15736643Y-13874414D01*
X15708071Y-13874414D01*
X15679500Y-13860129D01*
X15665214Y-13845843D01*
X15650928Y-13817271D01*
X15636643Y-13760129D01*
X15636643Y-13688700D01*
X15650928Y-13631557D01*
X15665214Y-13602986D01*
X15679500Y-13588700D01*
X15708071Y-13574414D01*
X15936643Y-13845843D02*
X15950928Y-13860129D01*
X15936643Y-13874414D01*
X15922357Y-13860129D01*
X15936643Y-13845843D01*
X15936643Y-13874414D01*
X16065214Y-13602986D02*
X16079500Y-13588700D01*
X16108071Y-13574414D01*
X16179500Y-13574414D01*
X16208071Y-13588700D01*
X16222357Y-13602986D01*
X16236643Y-13631557D01*
X16236643Y-13660129D01*
X16222357Y-13702986D01*
X16050928Y-13874414D01*
X16236643Y-13874414D01*
X16508071Y-13574414D02*
X16365214Y-13574414D01*
X16350928Y-13717271D01*
X16365214Y-13702986D01*
X16393786Y-13688700D01*
X16465214Y-13688700D01*
X16493786Y-13702986D01*
X16508071Y-13717271D01*
X16522357Y-13745843D01*
X16522357Y-13817271D01*
X16508071Y-13845843D01*
X16493786Y-13860129D01*
X16465214Y-13874414D01*
X16393786Y-13874414D01*
X16365214Y-13860129D01*
X16350928Y-13845843D01*
X16779500Y-13674414D02*
X16779500Y-13874414D01*
X16708071Y-13560129D02*
X16636643Y-13774414D01*
X16822357Y-13774414D01*
X16936643Y-13874414D02*
X16936643Y-13674414D01*
X16936643Y-13702986D02*
X16950928Y-13688700D01*
X16979500Y-13674414D01*
X17022357Y-13674414D01*
X17050928Y-13688700D01*
X17065214Y-13717271D01*
X17065214Y-13874414D01*
X17065214Y-13717271D02*
X17079500Y-13688700D01*
X17108071Y-13674414D01*
X17150928Y-13674414D01*
X17179500Y-13688700D01*
X17193786Y-13717271D01*
X17193786Y-13874414D01*
X17336643Y-13874414D02*
X17336643Y-13674414D01*
X17336643Y-13702986D02*
X17350928Y-13688700D01*
X17379500Y-13674414D01*
X17422357Y-13674414D01*
X17450928Y-13688700D01*
X17465214Y-13717271D01*
X17465214Y-13874414D01*
X17465214Y-13717271D02*
X17479500Y-13688700D01*
X17508071Y-13674414D01*
X17550928Y-13674414D01*
X17579500Y-13688700D01*
X17593786Y-13717271D01*
X17593786Y-13874414D01*
X18179500Y-13560129D02*
X17922357Y-13945843D01*
X18565214Y-13574414D02*
X18593786Y-13574414D01*
X18622357Y-13588700D01*
X18636643Y-13602986D01*
X18650928Y-13631557D01*
X18665214Y-13688700D01*
X18665214Y-13760129D01*
X18650928Y-13817271D01*
X18636643Y-13845843D01*
X18622357Y-13860129D01*
X18593786Y-13874414D01*
X18565214Y-13874414D01*
X18536643Y-13860129D01*
X18522357Y-13845843D01*
X18508071Y-13817271D01*
X18493786Y-13760129D01*
X18493786Y-13688700D01*
X18508071Y-13631557D01*
X18522357Y-13602986D01*
X18536643Y-13588700D01*
X18565214Y-13574414D01*
X18793786Y-13845843D02*
X18808071Y-13860129D01*
X18793786Y-13874414D01*
X18779500Y-13860129D01*
X18793786Y-13845843D01*
X18793786Y-13874414D01*
X18993786Y-13574414D02*
X19022357Y-13574414D01*
X19050928Y-13588700D01*
X19065214Y-13602986D01*
X19079500Y-13631557D01*
X19093786Y-13688700D01*
X19093786Y-13760129D01*
X19079500Y-13817271D01*
X19065214Y-13845843D01*
X19050928Y-13860129D01*
X19022357Y-13874414D01*
X18993786Y-13874414D01*
X18965214Y-13860129D01*
X18950928Y-13845843D01*
X18936643Y-13817271D01*
X18922357Y-13760129D01*
X18922357Y-13688700D01*
X18936643Y-13631557D01*
X18950928Y-13602986D01*
X18965214Y-13588700D01*
X18993786Y-13574414D01*
X19379500Y-13874414D02*
X19208071Y-13874414D01*
X19293786Y-13874414D02*
X19293786Y-13574414D01*
X19265214Y-13617271D01*
X19236643Y-13645843D01*
X19208071Y-13660129D01*
X19565214Y-13574414D02*
X19593786Y-13574414D01*
X19622357Y-13588700D01*
X19636643Y-13602986D01*
X19650928Y-13631557D01*
X19665214Y-13688700D01*
X19665214Y-13760129D01*
X19650928Y-13817271D01*
X19636643Y-13845843D01*
X19622357Y-13860129D01*
X19593786Y-13874414D01*
X19565214Y-13874414D01*
X19536643Y-13860129D01*
X19522357Y-13845843D01*
X19508071Y-13817271D01*
X19493786Y-13760129D01*
X19493786Y-13688700D01*
X19508071Y-13631557D01*
X19522357Y-13602986D01*
X19536643Y-13588700D01*
X19565214Y-13574414D01*
X19850928Y-13574414D02*
X19879500Y-13574414D01*
X19908071Y-13588700D01*
X19922357Y-13602986D01*
X19936643Y-13631557D01*
X19950928Y-13688700D01*
X19950928Y-13760129D01*
X19936643Y-13817271D01*
X19922357Y-13845843D01*
X19908071Y-13860129D01*
X19879500Y-13874414D01*
X19850928Y-13874414D01*
X19822357Y-13860129D01*
X19808071Y-13845843D01*
X19793786Y-13817271D01*
X19779500Y-13760129D01*
X19779500Y-13688700D01*
X19793786Y-13631557D01*
X19808071Y-13602986D01*
X19822357Y-13588700D01*
X19850928Y-13574414D01*
X20065214Y-13574414D02*
X20065214Y-13631557D01*
X20179500Y-13574414D02*
X20179500Y-13631557D01*
X20622357Y-13988700D02*
X20608071Y-13974414D01*
X20579500Y-13931557D01*
X20565214Y-13902986D01*
X20550928Y-13860129D01*
X20536643Y-13788700D01*
X20536643Y-13731557D01*
X20550928Y-13660129D01*
X20565214Y-13617271D01*
X20579500Y-13588700D01*
X20608071Y-13545843D01*
X20622357Y-13531557D01*
X20865214Y-13674414D02*
X20865214Y-13874414D01*
X20793786Y-13560129D02*
X20722357Y-13774414D01*
X20908071Y-13774414D01*
X21250928Y-13874414D02*
X21250928Y-13574414D01*
X21379500Y-13874414D02*
X21379500Y-13717271D01*
X21365214Y-13688700D01*
X21336643Y-13674414D01*
X21293786Y-13674414D01*
X21265214Y-13688700D01*
X21250928Y-13702986D01*
X21565214Y-13874414D02*
X21536643Y-13860129D01*
X21522357Y-13845843D01*
X21508071Y-13817271D01*
X21508071Y-13731557D01*
X21522357Y-13702986D01*
X21536643Y-13688700D01*
X21565214Y-13674414D01*
X21608071Y-13674414D01*
X21636643Y-13688700D01*
X21650928Y-13702986D01*
X21665214Y-13731557D01*
X21665214Y-13817271D01*
X21650928Y-13845843D01*
X21636643Y-13860129D01*
X21608071Y-13874414D01*
X21565214Y-13874414D01*
X21836643Y-13874414D02*
X21808071Y-13860129D01*
X21793786Y-13831557D01*
X21793786Y-13574414D01*
X22065214Y-13860129D02*
X22036643Y-13874414D01*
X21979500Y-13874414D01*
X21950928Y-13860129D01*
X21936643Y-13831557D01*
X21936643Y-13717271D01*
X21950928Y-13688700D01*
X21979500Y-13674414D01*
X22036643Y-13674414D01*
X22065214Y-13688700D01*
X22079500Y-13717271D01*
X22079500Y-13745843D01*
X21936643Y-13774414D01*
X22193786Y-13860129D02*
X22222357Y-13874414D01*
X22279500Y-13874414D01*
X22308071Y-13860129D01*
X22322357Y-13831557D01*
X22322357Y-13817271D01*
X22308071Y-13788700D01*
X22279500Y-13774414D01*
X22236643Y-13774414D01*
X22208071Y-13760129D01*
X22193786Y-13731557D01*
X22193786Y-13717271D01*
X22208071Y-13688700D01*
X22236643Y-13674414D01*
X22279500Y-13674414D01*
X22308071Y-13688700D01*
X22422357Y-13988700D02*
X22436643Y-13974414D01*
X22465214Y-13931557D01*
X22479500Y-13902986D01*
X22493786Y-13860129D01*
X22508071Y-13788700D01*
X22508071Y-13731557D01*
X22493786Y-13660129D01*
X22479500Y-13617271D01*
X22465214Y-13588700D01*
X22436643Y-13545843D01*
X22422357Y-13531557D01*
X15364500Y-14134700D02*
G75*
G03*
X15364500Y-14134700I-15000J0D01*
G01*
X15708071Y-13970414D02*
X15736643Y-13970414D01*
X15765214Y-13984700D01*
X15779500Y-13998986D01*
X15793786Y-14027557D01*
X15808071Y-14084700D01*
X15808071Y-14156129D01*
X15793786Y-14213271D01*
X15779500Y-14241843D01*
X15765214Y-14256129D01*
X15736643Y-14270414D01*
X15708071Y-14270414D01*
X15679500Y-14256129D01*
X15665214Y-14241843D01*
X15650928Y-14213271D01*
X15636643Y-14156129D01*
X15636643Y-14084700D01*
X15650928Y-14027557D01*
X15665214Y-13998986D01*
X15679500Y-13984700D01*
X15708071Y-13970414D01*
X15936643Y-14241843D02*
X15950928Y-14256129D01*
X15936643Y-14270414D01*
X15922357Y-14256129D01*
X15936643Y-14241843D01*
X15936643Y-14270414D01*
X16050928Y-13970414D02*
X16236643Y-13970414D01*
X16136643Y-14084700D01*
X16179500Y-14084700D01*
X16208071Y-14098986D01*
X16222357Y-14113271D01*
X16236643Y-14141843D01*
X16236643Y-14213271D01*
X16222357Y-14241843D01*
X16208071Y-14256129D01*
X16179500Y-14270414D01*
X16093786Y-14270414D01*
X16065214Y-14256129D01*
X16050928Y-14241843D01*
X16422357Y-13970414D02*
X16450928Y-13970414D01*
X16479500Y-13984700D01*
X16493786Y-13998986D01*
X16508071Y-14027557D01*
X16522357Y-14084700D01*
X16522357Y-14156129D01*
X16508071Y-14213271D01*
X16493786Y-14241843D01*
X16479500Y-14256129D01*
X16450928Y-14270414D01*
X16422357Y-14270414D01*
X16393786Y-14256129D01*
X16379500Y-14241843D01*
X16365214Y-14213271D01*
X16350928Y-14156129D01*
X16350928Y-14084700D01*
X16365214Y-14027557D01*
X16379500Y-13998986D01*
X16393786Y-13984700D01*
X16422357Y-13970414D01*
X16708071Y-13970414D02*
X16736643Y-13970414D01*
X16765214Y-13984700D01*
X16779500Y-13998986D01*
X16793786Y-14027557D01*
X16808071Y-14084700D01*
X16808071Y-14156129D01*
X16793786Y-14213271D01*
X16779500Y-14241843D01*
X16765214Y-14256129D01*
X16736643Y-14270414D01*
X16708071Y-14270414D01*
X16679500Y-14256129D01*
X16665214Y-14241843D01*
X16650928Y-14213271D01*
X16636643Y-14156129D01*
X16636643Y-14084700D01*
X16650928Y-14027557D01*
X16665214Y-13998986D01*
X16679500Y-13984700D01*
X16708071Y-13970414D01*
X16936643Y-14270414D02*
X16936643Y-14070414D01*
X16936643Y-14098986D02*
X16950928Y-14084700D01*
X16979500Y-14070414D01*
X17022357Y-14070414D01*
X17050928Y-14084700D01*
X17065214Y-14113271D01*
X17065214Y-14270414D01*
X17065214Y-14113271D02*
X17079500Y-14084700D01*
X17108071Y-14070414D01*
X17150928Y-14070414D01*
X17179500Y-14084700D01*
X17193786Y-14113271D01*
X17193786Y-14270414D01*
X17336643Y-14270414D02*
X17336643Y-14070414D01*
X17336643Y-14098986D02*
X17350928Y-14084700D01*
X17379500Y-14070414D01*
X17422357Y-14070414D01*
X17450928Y-14084700D01*
X17465214Y-14113271D01*
X17465214Y-14270414D01*
X17465214Y-14113271D02*
X17479500Y-14084700D01*
X17508071Y-14070414D01*
X17550928Y-14070414D01*
X17579500Y-14084700D01*
X17593786Y-14113271D01*
X17593786Y-14270414D01*
X18179500Y-13956129D02*
X17922357Y-14341843D01*
X18565214Y-13970414D02*
X18593786Y-13970414D01*
X18622357Y-13984700D01*
X18636643Y-13998986D01*
X18650928Y-14027557D01*
X18665214Y-14084700D01*
X18665214Y-14156129D01*
X18650928Y-14213271D01*
X18636643Y-14241843D01*
X18622357Y-14256129D01*
X18593786Y-14270414D01*
X18565214Y-14270414D01*
X18536643Y-14256129D01*
X18522357Y-14241843D01*
X18508071Y-14213271D01*
X18493786Y-14156129D01*
X18493786Y-14084700D01*
X18508071Y-14027557D01*
X18522357Y-13998986D01*
X18536643Y-13984700D01*
X18565214Y-13970414D01*
X18793786Y-14241843D02*
X18808071Y-14256129D01*
X18793786Y-14270414D01*
X18779500Y-14256129D01*
X18793786Y-14241843D01*
X18793786Y-14270414D01*
X18993786Y-13970414D02*
X19022357Y-13970414D01*
X19050928Y-13984700D01*
X19065214Y-13998986D01*
X19079500Y-14027557D01*
X19093786Y-14084700D01*
X19093786Y-14156129D01*
X19079500Y-14213271D01*
X19065214Y-14241843D01*
X19050928Y-14256129D01*
X19022357Y-14270414D01*
X18993786Y-14270414D01*
X18965214Y-14256129D01*
X18950928Y-14241843D01*
X18936643Y-14213271D01*
X18922357Y-14156129D01*
X18922357Y-14084700D01*
X18936643Y-14027557D01*
X18950928Y-13998986D01*
X18965214Y-13984700D01*
X18993786Y-13970414D01*
X19379500Y-14270414D02*
X19208071Y-14270414D01*
X19293786Y-14270414D02*
X19293786Y-13970414D01*
X19265214Y-14013271D01*
X19236643Y-14041843D01*
X19208071Y-14056129D01*
X19665214Y-14270414D02*
X19493786Y-14270414D01*
X19579500Y-14270414D02*
X19579500Y-13970414D01*
X19550928Y-14013271D01*
X19522357Y-14041843D01*
X19493786Y-14056129D01*
X19836643Y-14098986D02*
X19808071Y-14084700D01*
X19793786Y-14070414D01*
X19779500Y-14041843D01*
X19779500Y-14027557D01*
X19793786Y-13998986D01*
X19808071Y-13984700D01*
X19836643Y-13970414D01*
X19893786Y-13970414D01*
X19922357Y-13984700D01*
X19936643Y-13998986D01*
X19950928Y-14027557D01*
X19950928Y-14041843D01*
X19936643Y-14070414D01*
X19922357Y-14084700D01*
X19893786Y-14098986D01*
X19836643Y-14098986D01*
X19808071Y-14113271D01*
X19793786Y-14127557D01*
X19779500Y-14156129D01*
X19779500Y-14213271D01*
X19793786Y-14241843D01*
X19808071Y-14256129D01*
X19836643Y-14270414D01*
X19893786Y-14270414D01*
X19922357Y-14256129D01*
X19936643Y-14241843D01*
X19950928Y-14213271D01*
X19950928Y-14156129D01*
X19936643Y-14127557D01*
X19922357Y-14113271D01*
X19893786Y-14098986D01*
X20065214Y-13970414D02*
X20065214Y-14027557D01*
X20179500Y-13970414D02*
X20179500Y-14027557D01*
X20622357Y-14384700D02*
X20608071Y-14370414D01*
X20579500Y-14327557D01*
X20565214Y-14298986D01*
X20550928Y-14256129D01*
X20536643Y-14184700D01*
X20536643Y-14127557D01*
X20550928Y-14056129D01*
X20565214Y-14013271D01*
X20579500Y-13984700D01*
X20608071Y-13941843D01*
X20622357Y-13927557D01*
X20865214Y-14070414D02*
X20865214Y-14270414D01*
X20793786Y-13956129D02*
X20722357Y-14170414D01*
X20908071Y-14170414D01*
X21250928Y-14270414D02*
X21250928Y-13970414D01*
X21379500Y-14270414D02*
X21379500Y-14113271D01*
X21365214Y-14084700D01*
X21336643Y-14070414D01*
X21293786Y-14070414D01*
X21265214Y-14084700D01*
X21250928Y-14098986D01*
X21565214Y-14270414D02*
X21536643Y-14256129D01*
X21522357Y-14241843D01*
X21508071Y-14213271D01*
X21508071Y-14127557D01*
X21522357Y-14098986D01*
X21536643Y-14084700D01*
X21565214Y-14070414D01*
X21608071Y-14070414D01*
X21636643Y-14084700D01*
X21650928Y-14098986D01*
X21665214Y-14127557D01*
X21665214Y-14213271D01*
X21650928Y-14241843D01*
X21636643Y-14256129D01*
X21608071Y-14270414D01*
X21565214Y-14270414D01*
X21836643Y-14270414D02*
X21808071Y-14256129D01*
X21793786Y-14227557D01*
X21793786Y-13970414D01*
X22065214Y-14256129D02*
X22036643Y-14270414D01*
X21979500Y-14270414D01*
X21950928Y-14256129D01*
X21936643Y-14227557D01*
X21936643Y-14113271D01*
X21950928Y-14084700D01*
X21979500Y-14070414D01*
X22036643Y-14070414D01*
X22065214Y-14084700D01*
X22079500Y-14113271D01*
X22079500Y-14141843D01*
X21936643Y-14170414D01*
X22193786Y-14256129D02*
X22222357Y-14270414D01*
X22279500Y-14270414D01*
X22308071Y-14256129D01*
X22322357Y-14227557D01*
X22322357Y-14213271D01*
X22308071Y-14184700D01*
X22279500Y-14170414D01*
X22236643Y-14170414D01*
X22208071Y-14156129D01*
X22193786Y-14127557D01*
X22193786Y-14113271D01*
X22208071Y-14084700D01*
X22236643Y-14070414D01*
X22279500Y-14070414D01*
X22308071Y-14084700D01*
X22422357Y-14384700D02*
X22436643Y-14370414D01*
X22465214Y-14327557D01*
X22479500Y-14298986D01*
X22493786Y-14256129D01*
X22508071Y-14184700D01*
X22508071Y-14127557D01*
X22493786Y-14056129D01*
X22479500Y-14013271D01*
X22465214Y-13984700D01*
X22436643Y-13941843D01*
X22422357Y-13927557D01*
X15344500Y-14510700D02*
X15344500Y-14550700D01*
X15324500Y-14530700D02*
X15364500Y-14530700D01*
X15708071Y-14366414D02*
X15736643Y-14366414D01*
X15765214Y-14380700D01*
X15779500Y-14394986D01*
X15793786Y-14423557D01*
X15808071Y-14480700D01*
X15808071Y-14552129D01*
X15793786Y-14609271D01*
X15779500Y-14637843D01*
X15765214Y-14652129D01*
X15736643Y-14666414D01*
X15708071Y-14666414D01*
X15679500Y-14652129D01*
X15665214Y-14637843D01*
X15650928Y-14609271D01*
X15636643Y-14552129D01*
X15636643Y-14480700D01*
X15650928Y-14423557D01*
X15665214Y-14394986D01*
X15679500Y-14380700D01*
X15708071Y-14366414D01*
X15936643Y-14637843D02*
X15950928Y-14652129D01*
X15936643Y-14666414D01*
X15922357Y-14652129D01*
X15936643Y-14637843D01*
X15936643Y-14666414D01*
X16208071Y-14466414D02*
X16208071Y-14666414D01*
X16136643Y-14352129D02*
X16065214Y-14566414D01*
X16250928Y-14566414D01*
X16422357Y-14366414D02*
X16450928Y-14366414D01*
X16479500Y-14380700D01*
X16493786Y-14394986D01*
X16508071Y-14423557D01*
X16522357Y-14480700D01*
X16522357Y-14552129D01*
X16508071Y-14609271D01*
X16493786Y-14637843D01*
X16479500Y-14652129D01*
X16450928Y-14666414D01*
X16422357Y-14666414D01*
X16393786Y-14652129D01*
X16379500Y-14637843D01*
X16365214Y-14609271D01*
X16350928Y-14552129D01*
X16350928Y-14480700D01*
X16365214Y-14423557D01*
X16379500Y-14394986D01*
X16393786Y-14380700D01*
X16422357Y-14366414D01*
X16708071Y-14366414D02*
X16736643Y-14366414D01*
X16765214Y-14380700D01*
X16779500Y-14394986D01*
X16793786Y-14423557D01*
X16808071Y-14480700D01*
X16808071Y-14552129D01*
X16793786Y-14609271D01*
X16779500Y-14637843D01*
X16765214Y-14652129D01*
X16736643Y-14666414D01*
X16708071Y-14666414D01*
X16679500Y-14652129D01*
X16665214Y-14637843D01*
X16650928Y-14609271D01*
X16636643Y-14552129D01*
X16636643Y-14480700D01*
X16650928Y-14423557D01*
X16665214Y-14394986D01*
X16679500Y-14380700D01*
X16708071Y-14366414D01*
X16936643Y-14666414D02*
X16936643Y-14466414D01*
X16936643Y-14494986D02*
X16950928Y-14480700D01*
X16979500Y-14466414D01*
X17022357Y-14466414D01*
X17050928Y-14480700D01*
X17065214Y-14509271D01*
X17065214Y-14666414D01*
X17065214Y-14509271D02*
X17079500Y-14480700D01*
X17108071Y-14466414D01*
X17150928Y-14466414D01*
X17179500Y-14480700D01*
X17193786Y-14509271D01*
X17193786Y-14666414D01*
X17336643Y-14666414D02*
X17336643Y-14466414D01*
X17336643Y-14494986D02*
X17350928Y-14480700D01*
X17379500Y-14466414D01*
X17422357Y-14466414D01*
X17450928Y-14480700D01*
X17465214Y-14509271D01*
X17465214Y-14666414D01*
X17465214Y-14509271D02*
X17479500Y-14480700D01*
X17508071Y-14466414D01*
X17550928Y-14466414D01*
X17579500Y-14480700D01*
X17593786Y-14509271D01*
X17593786Y-14666414D01*
X18179500Y-14352129D02*
X17922357Y-14737843D01*
X18565214Y-14366414D02*
X18593786Y-14366414D01*
X18622357Y-14380700D01*
X18636643Y-14394986D01*
X18650928Y-14423557D01*
X18665214Y-14480700D01*
X18665214Y-14552129D01*
X18650928Y-14609271D01*
X18636643Y-14637843D01*
X18622357Y-14652129D01*
X18593786Y-14666414D01*
X18565214Y-14666414D01*
X18536643Y-14652129D01*
X18522357Y-14637843D01*
X18508071Y-14609271D01*
X18493786Y-14552129D01*
X18493786Y-14480700D01*
X18508071Y-14423557D01*
X18522357Y-14394986D01*
X18536643Y-14380700D01*
X18565214Y-14366414D01*
X18793786Y-14637843D02*
X18808071Y-14652129D01*
X18793786Y-14666414D01*
X18779500Y-14652129D01*
X18793786Y-14637843D01*
X18793786Y-14666414D01*
X18993786Y-14366414D02*
X19022357Y-14366414D01*
X19050928Y-14380700D01*
X19065214Y-14394986D01*
X19079500Y-14423557D01*
X19093786Y-14480700D01*
X19093786Y-14552129D01*
X19079500Y-14609271D01*
X19065214Y-14637843D01*
X19050928Y-14652129D01*
X19022357Y-14666414D01*
X18993786Y-14666414D01*
X18965214Y-14652129D01*
X18950928Y-14637843D01*
X18936643Y-14609271D01*
X18922357Y-14552129D01*
X18922357Y-14480700D01*
X18936643Y-14423557D01*
X18950928Y-14394986D01*
X18965214Y-14380700D01*
X18993786Y-14366414D01*
X19379500Y-14666414D02*
X19208071Y-14666414D01*
X19293786Y-14666414D02*
X19293786Y-14366414D01*
X19265214Y-14409271D01*
X19236643Y-14437843D01*
X19208071Y-14452129D01*
X19650928Y-14366414D02*
X19508071Y-14366414D01*
X19493786Y-14509271D01*
X19508071Y-14494986D01*
X19536643Y-14480700D01*
X19608071Y-14480700D01*
X19636643Y-14494986D01*
X19650928Y-14509271D01*
X19665214Y-14537843D01*
X19665214Y-14609271D01*
X19650928Y-14637843D01*
X19636643Y-14652129D01*
X19608071Y-14666414D01*
X19536643Y-14666414D01*
X19508071Y-14652129D01*
X19493786Y-14637843D01*
X19765214Y-14366414D02*
X19965214Y-14366414D01*
X19836643Y-14666414D01*
X20065214Y-14366414D02*
X20065214Y-14423557D01*
X20179500Y-14366414D02*
X20179500Y-14423557D01*
X20622357Y-14780700D02*
X20608071Y-14766414D01*
X20579500Y-14723557D01*
X20565214Y-14694986D01*
X20550928Y-14652129D01*
X20536643Y-14580700D01*
X20536643Y-14523557D01*
X20550928Y-14452129D01*
X20565214Y-14409271D01*
X20579500Y-14380700D01*
X20608071Y-14337843D01*
X20622357Y-14323557D01*
X20722357Y-14394986D02*
X20736643Y-14380700D01*
X20765214Y-14366414D01*
X20836643Y-14366414D01*
X20865214Y-14380700D01*
X20879500Y-14394986D01*
X20893786Y-14423557D01*
X20893786Y-14452129D01*
X20879500Y-14494986D01*
X20708071Y-14666414D01*
X20893786Y-14666414D01*
X21179500Y-14666414D02*
X21008071Y-14666414D01*
X21093786Y-14666414D02*
X21093786Y-14366414D01*
X21065214Y-14409271D01*
X21036643Y-14437843D01*
X21008071Y-14452129D01*
X21536643Y-14666414D02*
X21536643Y-14366414D01*
X21665214Y-14666414D02*
X21665214Y-14509271D01*
X21650928Y-14480700D01*
X21622357Y-14466414D01*
X21579500Y-14466414D01*
X21550928Y-14480700D01*
X21536643Y-14494986D01*
X21850928Y-14666414D02*
X21822357Y-14652129D01*
X21808071Y-14637843D01*
X21793786Y-14609271D01*
X21793786Y-14523557D01*
X21808071Y-14494986D01*
X21822357Y-14480700D01*
X21850928Y-14466414D01*
X21893786Y-14466414D01*
X21922357Y-14480700D01*
X21936643Y-14494986D01*
X21950928Y-14523557D01*
X21950928Y-14609271D01*
X21936643Y-14637843D01*
X21922357Y-14652129D01*
X21893786Y-14666414D01*
X21850928Y-14666414D01*
X22122357Y-14666414D02*
X22093786Y-14652129D01*
X22079500Y-14623557D01*
X22079500Y-14366414D01*
X22350928Y-14652129D02*
X22322357Y-14666414D01*
X22265214Y-14666414D01*
X22236643Y-14652129D01*
X22222357Y-14623557D01*
X22222357Y-14509271D01*
X22236643Y-14480700D01*
X22265214Y-14466414D01*
X22322357Y-14466414D01*
X22350928Y-14480700D01*
X22365214Y-14509271D01*
X22365214Y-14537843D01*
X22222357Y-14566414D01*
X22479500Y-14652129D02*
X22508071Y-14666414D01*
X22565214Y-14666414D01*
X22593786Y-14652129D01*
X22608071Y-14623557D01*
X22608071Y-14609271D01*
X22593786Y-14580700D01*
X22565214Y-14566414D01*
X22522357Y-14566414D01*
X22493786Y-14552129D01*
X22479500Y-14523557D01*
X22479500Y-14509271D01*
X22493786Y-14480700D01*
X22522357Y-14466414D01*
X22565214Y-14466414D01*
X22593786Y-14480700D01*
X22708071Y-14780700D02*
X22722357Y-14766414D01*
X22750928Y-14723557D01*
X22765214Y-14694986D01*
X22779500Y-14652129D01*
X22793786Y-14580700D01*
X22793786Y-14523557D01*
X22779500Y-14452129D01*
X22765214Y-14409271D01*
X22750928Y-14380700D01*
X22722357Y-14337843D01*
X22708071Y-14323557D01*
X15349856Y-14962056D02*
X15349856Y-14891344D01*
X15279144Y-14891344D01*
X15279144Y-14962056D01*
X15349856Y-14962056D01*
X15808071Y-15062414D02*
X15636643Y-15062414D01*
X15722357Y-15062414D02*
X15722357Y-14762414D01*
X15693786Y-14805271D01*
X15665214Y-14833843D01*
X15636643Y-14848129D01*
X15936643Y-15033843D02*
X15950928Y-15048129D01*
X15936643Y-15062414D01*
X15922357Y-15048129D01*
X15936643Y-15033843D01*
X15936643Y-15062414D01*
X16136643Y-14762414D02*
X16165214Y-14762414D01*
X16193786Y-14776700D01*
X16208071Y-14790986D01*
X16222357Y-14819557D01*
X16236643Y-14876700D01*
X16236643Y-14948129D01*
X16222357Y-15005271D01*
X16208071Y-15033843D01*
X16193786Y-15048129D01*
X16165214Y-15062414D01*
X16136643Y-15062414D01*
X16108071Y-15048129D01*
X16093786Y-15033843D01*
X16079500Y-15005271D01*
X16065214Y-14948129D01*
X16065214Y-14876700D01*
X16079500Y-14819557D01*
X16093786Y-14790986D01*
X16108071Y-14776700D01*
X16136643Y-14762414D01*
X16422357Y-14762414D02*
X16450928Y-14762414D01*
X16479500Y-14776700D01*
X16493786Y-14790986D01*
X16508071Y-14819557D01*
X16522357Y-14876700D01*
X16522357Y-14948129D01*
X16508071Y-15005271D01*
X16493786Y-15033843D01*
X16479500Y-15048129D01*
X16450928Y-15062414D01*
X16422357Y-15062414D01*
X16393786Y-15048129D01*
X16379500Y-15033843D01*
X16365214Y-15005271D01*
X16350928Y-14948129D01*
X16350928Y-14876700D01*
X16365214Y-14819557D01*
X16379500Y-14790986D01*
X16393786Y-14776700D01*
X16422357Y-14762414D01*
X16708071Y-14762414D02*
X16736643Y-14762414D01*
X16765214Y-14776700D01*
X16779500Y-14790986D01*
X16793786Y-14819557D01*
X16808071Y-14876700D01*
X16808071Y-14948129D01*
X16793786Y-15005271D01*
X16779500Y-15033843D01*
X16765214Y-15048129D01*
X16736643Y-15062414D01*
X16708071Y-15062414D01*
X16679500Y-15048129D01*
X16665214Y-15033843D01*
X16650928Y-15005271D01*
X16636643Y-14948129D01*
X16636643Y-14876700D01*
X16650928Y-14819557D01*
X16665214Y-14790986D01*
X16679500Y-14776700D01*
X16708071Y-14762414D01*
X16936643Y-15062414D02*
X16936643Y-14862414D01*
X16936643Y-14890986D02*
X16950928Y-14876700D01*
X16979500Y-14862414D01*
X17022357Y-14862414D01*
X17050928Y-14876700D01*
X17065214Y-14905271D01*
X17065214Y-15062414D01*
X17065214Y-14905271D02*
X17079500Y-14876700D01*
X17108071Y-14862414D01*
X17150928Y-14862414D01*
X17179500Y-14876700D01*
X17193786Y-14905271D01*
X17193786Y-15062414D01*
X17336643Y-15062414D02*
X17336643Y-14862414D01*
X17336643Y-14890986D02*
X17350928Y-14876700D01*
X17379500Y-14862414D01*
X17422357Y-14862414D01*
X17450928Y-14876700D01*
X17465214Y-14905271D01*
X17465214Y-15062414D01*
X17465214Y-14905271D02*
X17479500Y-14876700D01*
X17508071Y-14862414D01*
X17550928Y-14862414D01*
X17579500Y-14876700D01*
X17593786Y-14905271D01*
X17593786Y-15062414D01*
X18179500Y-14748129D02*
X17922357Y-15133843D01*
X18565214Y-14762414D02*
X18593786Y-14762414D01*
X18622357Y-14776700D01*
X18636643Y-14790986D01*
X18650928Y-14819557D01*
X18665214Y-14876700D01*
X18665214Y-14948129D01*
X18650928Y-15005271D01*
X18636643Y-15033843D01*
X18622357Y-15048129D01*
X18593786Y-15062414D01*
X18565214Y-15062414D01*
X18536643Y-15048129D01*
X18522357Y-15033843D01*
X18508071Y-15005271D01*
X18493786Y-14948129D01*
X18493786Y-14876700D01*
X18508071Y-14819557D01*
X18522357Y-14790986D01*
X18536643Y-14776700D01*
X18565214Y-14762414D01*
X18793786Y-15033843D02*
X18808071Y-15048129D01*
X18793786Y-15062414D01*
X18779500Y-15048129D01*
X18793786Y-15033843D01*
X18793786Y-15062414D01*
X18993786Y-14762414D02*
X19022357Y-14762414D01*
X19050928Y-14776700D01*
X19065214Y-14790986D01*
X19079500Y-14819557D01*
X19093786Y-14876700D01*
X19093786Y-14948129D01*
X19079500Y-15005271D01*
X19065214Y-15033843D01*
X19050928Y-15048129D01*
X19022357Y-15062414D01*
X18993786Y-15062414D01*
X18965214Y-15048129D01*
X18950928Y-15033843D01*
X18936643Y-15005271D01*
X18922357Y-14948129D01*
X18922357Y-14876700D01*
X18936643Y-14819557D01*
X18950928Y-14790986D01*
X18965214Y-14776700D01*
X18993786Y-14762414D01*
X19193786Y-14762414D02*
X19379500Y-14762414D01*
X19279500Y-14876700D01*
X19322357Y-14876700D01*
X19350928Y-14890986D01*
X19365214Y-14905271D01*
X19379500Y-14933843D01*
X19379500Y-15005271D01*
X19365214Y-15033843D01*
X19350928Y-15048129D01*
X19322357Y-15062414D01*
X19236643Y-15062414D01*
X19208071Y-15048129D01*
X19193786Y-15033843D01*
X19522357Y-15062414D02*
X19579500Y-15062414D01*
X19608071Y-15048129D01*
X19622357Y-15033843D01*
X19650928Y-14990986D01*
X19665214Y-14933843D01*
X19665214Y-14819557D01*
X19650928Y-14790986D01*
X19636643Y-14776700D01*
X19608071Y-14762414D01*
X19550928Y-14762414D01*
X19522357Y-14776700D01*
X19508071Y-14790986D01*
X19493786Y-14819557D01*
X19493786Y-14890986D01*
X19508071Y-14919557D01*
X19522357Y-14933843D01*
X19550928Y-14948129D01*
X19608071Y-14948129D01*
X19636643Y-14933843D01*
X19650928Y-14919557D01*
X19665214Y-14890986D01*
X19922357Y-14862414D02*
X19922357Y-15062414D01*
X19850928Y-14748129D02*
X19779500Y-14962414D01*
X19965214Y-14962414D01*
X20065214Y-14762414D02*
X20065214Y-14819557D01*
X20179500Y-14762414D02*
X20179500Y-14819557D01*
X20622357Y-15176700D02*
X20608071Y-15162414D01*
X20579500Y-15119557D01*
X20565214Y-15090986D01*
X20550928Y-15048129D01*
X20536643Y-14976700D01*
X20536643Y-14919557D01*
X20550928Y-14848129D01*
X20565214Y-14805271D01*
X20579500Y-14776700D01*
X20608071Y-14733843D01*
X20622357Y-14719557D01*
X20722357Y-14790986D02*
X20736643Y-14776700D01*
X20765214Y-14762414D01*
X20836643Y-14762414D01*
X20865214Y-14776700D01*
X20879500Y-14790986D01*
X20893786Y-14819557D01*
X20893786Y-14848129D01*
X20879500Y-14890986D01*
X20708071Y-15062414D01*
X20893786Y-15062414D01*
X20993786Y-14762414D02*
X21179500Y-14762414D01*
X21079500Y-14876700D01*
X21122357Y-14876700D01*
X21150928Y-14890986D01*
X21165214Y-14905271D01*
X21179500Y-14933843D01*
X21179500Y-15005271D01*
X21165214Y-15033843D01*
X21150928Y-15048129D01*
X21122357Y-15062414D01*
X21036643Y-15062414D01*
X21008071Y-15048129D01*
X20993786Y-15033843D01*
X21536643Y-15062414D02*
X21536643Y-14762414D01*
X21665214Y-15062414D02*
X21665214Y-14905271D01*
X21650928Y-14876700D01*
X21622357Y-14862414D01*
X21579500Y-14862414D01*
X21550928Y-14876700D01*
X21536643Y-14890986D01*
X21850928Y-15062414D02*
X21822357Y-15048129D01*
X21808071Y-15033843D01*
X21793786Y-15005271D01*
X21793786Y-14919557D01*
X21808071Y-14890986D01*
X21822357Y-14876700D01*
X21850928Y-14862414D01*
X21893786Y-14862414D01*
X21922357Y-14876700D01*
X21936643Y-14890986D01*
X21950928Y-14919557D01*
X21950928Y-15005271D01*
X21936643Y-15033843D01*
X21922357Y-15048129D01*
X21893786Y-15062414D01*
X21850928Y-15062414D01*
X22122357Y-15062414D02*
X22093786Y-15048129D01*
X22079500Y-15019557D01*
X22079500Y-14762414D01*
X22350928Y-15048129D02*
X22322357Y-15062414D01*
X22265214Y-15062414D01*
X22236643Y-15048129D01*
X22222357Y-15019557D01*
X22222357Y-14905271D01*
X22236643Y-14876700D01*
X22265214Y-14862414D01*
X22322357Y-14862414D01*
X22350928Y-14876700D01*
X22365214Y-14905271D01*
X22365214Y-14933843D01*
X22222357Y-14962414D01*
X22479500Y-15048129D02*
X22508071Y-15062414D01*
X22565214Y-15062414D01*
X22593786Y-15048129D01*
X22608071Y-15019557D01*
X22608071Y-15005271D01*
X22593786Y-14976700D01*
X22565214Y-14962414D01*
X22522357Y-14962414D01*
X22493786Y-14948129D01*
X22479500Y-14919557D01*
X22479500Y-14905271D01*
X22493786Y-14876700D01*
X22522357Y-14862414D01*
X22565214Y-14862414D01*
X22593786Y-14876700D01*
X22708071Y-15176700D02*
X22722357Y-15162414D01*
X22750928Y-15119557D01*
X22765214Y-15090986D01*
X22779500Y-15048129D01*
X22793786Y-14976700D01*
X22793786Y-14919557D01*
X22779500Y-14848129D01*
X22765214Y-14805271D01*
X22750928Y-14776700D01*
X22722357Y-14733843D01*
X22708071Y-14719557D01*
X15304500Y-15382700D02*
X15364500Y-15322700D01*
X15304500Y-15262700D01*
X15244500Y-15322700D01*
X15304500Y-15382700D01*
X15808071Y-15458414D02*
X15636643Y-15458414D01*
X15722357Y-15458414D02*
X15722357Y-15158414D01*
X15693786Y-15201271D01*
X15665214Y-15229843D01*
X15636643Y-15244129D01*
X15936643Y-15429843D02*
X15950928Y-15444129D01*
X15936643Y-15458414D01*
X15922357Y-15444129D01*
X15936643Y-15429843D01*
X15936643Y-15458414D01*
X16065214Y-15186986D02*
X16079500Y-15172700D01*
X16108071Y-15158414D01*
X16179500Y-15158414D01*
X16208071Y-15172700D01*
X16222357Y-15186986D01*
X16236643Y-15215557D01*
X16236643Y-15244129D01*
X16222357Y-15286986D01*
X16050928Y-15458414D01*
X16236643Y-15458414D01*
X16422357Y-15158414D02*
X16450928Y-15158414D01*
X16479500Y-15172700D01*
X16493786Y-15186986D01*
X16508071Y-15215557D01*
X16522357Y-15272700D01*
X16522357Y-15344129D01*
X16508071Y-15401271D01*
X16493786Y-15429843D01*
X16479500Y-15444129D01*
X16450928Y-15458414D01*
X16422357Y-15458414D01*
X16393786Y-15444129D01*
X16379500Y-15429843D01*
X16365214Y-15401271D01*
X16350928Y-15344129D01*
X16350928Y-15272700D01*
X16365214Y-15215557D01*
X16379500Y-15186986D01*
X16393786Y-15172700D01*
X16422357Y-15158414D01*
X16708071Y-15158414D02*
X16736643Y-15158414D01*
X16765214Y-15172700D01*
X16779500Y-15186986D01*
X16793786Y-15215557D01*
X16808071Y-15272700D01*
X16808071Y-15344129D01*
X16793786Y-15401271D01*
X16779500Y-15429843D01*
X16765214Y-15444129D01*
X16736643Y-15458414D01*
X16708071Y-15458414D01*
X16679500Y-15444129D01*
X16665214Y-15429843D01*
X16650928Y-15401271D01*
X16636643Y-15344129D01*
X16636643Y-15272700D01*
X16650928Y-15215557D01*
X16665214Y-15186986D01*
X16679500Y-15172700D01*
X16708071Y-15158414D01*
X16936643Y-15458414D02*
X16936643Y-15258414D01*
X16936643Y-15286986D02*
X16950928Y-15272700D01*
X16979500Y-15258414D01*
X17022357Y-15258414D01*
X17050928Y-15272700D01*
X17065214Y-15301271D01*
X17065214Y-15458414D01*
X17065214Y-15301271D02*
X17079500Y-15272700D01*
X17108071Y-15258414D01*
X17150928Y-15258414D01*
X17179500Y-15272700D01*
X17193786Y-15301271D01*
X17193786Y-15458414D01*
X17336643Y-15458414D02*
X17336643Y-15258414D01*
X17336643Y-15286986D02*
X17350928Y-15272700D01*
X17379500Y-15258414D01*
X17422357Y-15258414D01*
X17450928Y-15272700D01*
X17465214Y-15301271D01*
X17465214Y-15458414D01*
X17465214Y-15301271D02*
X17479500Y-15272700D01*
X17508071Y-15258414D01*
X17550928Y-15258414D01*
X17579500Y-15272700D01*
X17593786Y-15301271D01*
X17593786Y-15458414D01*
X18179500Y-15144129D02*
X17922357Y-15529843D01*
X18565214Y-15158414D02*
X18593786Y-15158414D01*
X18622357Y-15172700D01*
X18636643Y-15186986D01*
X18650928Y-15215557D01*
X18665214Y-15272700D01*
X18665214Y-15344129D01*
X18650928Y-15401271D01*
X18636643Y-15429843D01*
X18622357Y-15444129D01*
X18593786Y-15458414D01*
X18565214Y-15458414D01*
X18536643Y-15444129D01*
X18522357Y-15429843D01*
X18508071Y-15401271D01*
X18493786Y-15344129D01*
X18493786Y-15272700D01*
X18508071Y-15215557D01*
X18522357Y-15186986D01*
X18536643Y-15172700D01*
X18565214Y-15158414D01*
X18793786Y-15429843D02*
X18808071Y-15444129D01*
X18793786Y-15458414D01*
X18779500Y-15444129D01*
X18793786Y-15429843D01*
X18793786Y-15458414D01*
X18993786Y-15158414D02*
X19022357Y-15158414D01*
X19050928Y-15172700D01*
X19065214Y-15186986D01*
X19079500Y-15215557D01*
X19093786Y-15272700D01*
X19093786Y-15344129D01*
X19079500Y-15401271D01*
X19065214Y-15429843D01*
X19050928Y-15444129D01*
X19022357Y-15458414D01*
X18993786Y-15458414D01*
X18965214Y-15444129D01*
X18950928Y-15429843D01*
X18936643Y-15401271D01*
X18922357Y-15344129D01*
X18922357Y-15272700D01*
X18936643Y-15215557D01*
X18950928Y-15186986D01*
X18965214Y-15172700D01*
X18993786Y-15158414D01*
X19350928Y-15258414D02*
X19350928Y-15458414D01*
X19279500Y-15144129D02*
X19208071Y-15358414D01*
X19393786Y-15358414D01*
X19479500Y-15158414D02*
X19679500Y-15158414D01*
X19550928Y-15458414D01*
X19779500Y-15186986D02*
X19793786Y-15172700D01*
X19822357Y-15158414D01*
X19893786Y-15158414D01*
X19922357Y-15172700D01*
X19936643Y-15186986D01*
X19950928Y-15215557D01*
X19950928Y-15244129D01*
X19936643Y-15286986D01*
X19765214Y-15458414D01*
X19950928Y-15458414D01*
X20065214Y-15158414D02*
X20065214Y-15215557D01*
X20179500Y-15158414D02*
X20179500Y-15215557D01*
X20622357Y-15572700D02*
X20608071Y-15558414D01*
X20579500Y-15515557D01*
X20565214Y-15486986D01*
X20550928Y-15444129D01*
X20536643Y-15372700D01*
X20536643Y-15315557D01*
X20550928Y-15244129D01*
X20565214Y-15201271D01*
X20579500Y-15172700D01*
X20608071Y-15129843D01*
X20622357Y-15115557D01*
X20865214Y-15258414D02*
X20865214Y-15458414D01*
X20793786Y-15144129D02*
X20722357Y-15358414D01*
X20908071Y-15358414D01*
X21250928Y-15458414D02*
X21250928Y-15158414D01*
X21379500Y-15458414D02*
X21379500Y-15301271D01*
X21365214Y-15272700D01*
X21336643Y-15258414D01*
X21293786Y-15258414D01*
X21265214Y-15272700D01*
X21250928Y-15286986D01*
X21565214Y-15458414D02*
X21536643Y-15444129D01*
X21522357Y-15429843D01*
X21508071Y-15401271D01*
X21508071Y-15315557D01*
X21522357Y-15286986D01*
X21536643Y-15272700D01*
X21565214Y-15258414D01*
X21608071Y-15258414D01*
X21636643Y-15272700D01*
X21650928Y-15286986D01*
X21665214Y-15315557D01*
X21665214Y-15401271D01*
X21650928Y-15429843D01*
X21636643Y-15444129D01*
X21608071Y-15458414D01*
X21565214Y-15458414D01*
X21836643Y-15458414D02*
X21808071Y-15444129D01*
X21793786Y-15415557D01*
X21793786Y-15158414D01*
X22065214Y-15444129D02*
X22036643Y-15458414D01*
X21979500Y-15458414D01*
X21950928Y-15444129D01*
X21936643Y-15415557D01*
X21936643Y-15301271D01*
X21950928Y-15272700D01*
X21979500Y-15258414D01*
X22036643Y-15258414D01*
X22065214Y-15272700D01*
X22079500Y-15301271D01*
X22079500Y-15329843D01*
X21936643Y-15358414D01*
X22193786Y-15444129D02*
X22222357Y-15458414D01*
X22279500Y-15458414D01*
X22308071Y-15444129D01*
X22322357Y-15415557D01*
X22322357Y-15401271D01*
X22308071Y-15372700D01*
X22279500Y-15358414D01*
X22236643Y-15358414D01*
X22208071Y-15344129D01*
X22193786Y-15315557D01*
X22193786Y-15301271D01*
X22208071Y-15272700D01*
X22236643Y-15258414D01*
X22279500Y-15258414D01*
X22308071Y-15272700D01*
X22422357Y-15572700D02*
X22436643Y-15558414D01*
X22465214Y-15515557D01*
X22479500Y-15486986D01*
X22493786Y-15444129D01*
X22508071Y-15372700D01*
X22508071Y-15315557D01*
X22493786Y-15244129D01*
X22479500Y-15201271D01*
X22465214Y-15172700D01*
X22436643Y-15129843D01*
X22422357Y-15115557D01*
M02*
