G04 #@! TF.GenerationSoftware,KiCad,Pcbnew,(5.1.10)-1*
G04 #@! TF.CreationDate,2021-07-06T21:05:29-03:00*
G04 #@! TF.ProjectId,BQ25505,42513235-3530-4352-9e6b-696361645f70,rev?*
G04 #@! TF.SameCoordinates,Original*
G04 #@! TF.FileFunction,Legend,Top*
G04 #@! TF.FilePolarity,Positive*
%FSLAX46Y46*%
G04 Gerber Fmt 4.6, Leading zero omitted, Abs format (unit mm)*
G04 Created by KiCad (PCBNEW (5.1.10)-1) date 2021-07-06 21:05:29*
%MOMM*%
%LPD*%
G01*
G04 APERTURE LIST*
%ADD10C,0.150000*%
%ADD11C,0.120000*%
%ADD12C,0.100000*%
%ADD13C,0.125000*%
%ADD14C,3.102000*%
%ADD15O,1.802000X1.802000*%
%ADD16O,3.102000X3.102000*%
%ADD17C,0.610000*%
G04 APERTURE END LIST*
D10*
X180467095Y-123198000D02*
X180371857Y-123150380D01*
X180229000Y-123150380D01*
X180086142Y-123198000D01*
X179990904Y-123293238D01*
X179943285Y-123388476D01*
X179895666Y-123578952D01*
X179895666Y-123721809D01*
X179943285Y-123912285D01*
X179990904Y-124007523D01*
X180086142Y-124102761D01*
X180229000Y-124150380D01*
X180324238Y-124150380D01*
X180467095Y-124102761D01*
X180514714Y-124055142D01*
X180514714Y-123721809D01*
X180324238Y-123721809D01*
X180943285Y-124150380D02*
X180943285Y-123150380D01*
X181514714Y-124150380D01*
X181514714Y-123150380D01*
X181990904Y-124150380D02*
X181990904Y-123150380D01*
X182229000Y-123150380D01*
X182371857Y-123198000D01*
X182467095Y-123293238D01*
X182514714Y-123388476D01*
X182562333Y-123578952D01*
X182562333Y-123721809D01*
X182514714Y-123912285D01*
X182467095Y-124007523D01*
X182371857Y-124102761D01*
X182229000Y-124150380D01*
X181990904Y-124150380D01*
X162733028Y-119389161D02*
X162733028Y-118627257D01*
X162733028Y-114341542D02*
X162733028Y-113579638D01*
X163113980Y-113960590D02*
X162352076Y-113960590D01*
X155822761Y-110343904D02*
X155822761Y-109543904D01*
X156127523Y-109543904D01*
X156203714Y-109582000D01*
X156241809Y-109620095D01*
X156279904Y-109696285D01*
X156279904Y-109810571D01*
X156241809Y-109886761D01*
X156203714Y-109924857D01*
X156127523Y-109962952D01*
X155822761Y-109962952D01*
X156546571Y-109543904D02*
X157079904Y-109543904D01*
X156546571Y-110343904D01*
X157079904Y-110343904D01*
X157270380Y-109543904D02*
X157727523Y-109543904D01*
X157498952Y-110343904D02*
X157498952Y-109543904D01*
X160064761Y-123767904D02*
X160521904Y-123767904D01*
X160293333Y-124567904D02*
X160293333Y-123767904D01*
X160788571Y-124148857D02*
X161055238Y-124148857D01*
X161169523Y-124567904D02*
X160788571Y-124567904D01*
X160788571Y-123767904D01*
X161169523Y-123767904D01*
X161931428Y-123806000D02*
X161855238Y-123767904D01*
X161740952Y-123767904D01*
X161626666Y-123806000D01*
X161550476Y-123882190D01*
X161512380Y-123958380D01*
X161474285Y-124110761D01*
X161474285Y-124225047D01*
X161512380Y-124377428D01*
X161550476Y-124453619D01*
X161626666Y-124529809D01*
X161740952Y-124567904D01*
X161817142Y-124567904D01*
X161931428Y-124529809D01*
X161969523Y-124491714D01*
X161969523Y-124225047D01*
X161817142Y-124225047D01*
X162883809Y-123729809D02*
X162198095Y-124758380D01*
X163150476Y-124567904D02*
X163150476Y-123767904D01*
X163455238Y-123767904D01*
X163531428Y-123806000D01*
X163569523Y-123844095D01*
X163607619Y-123920285D01*
X163607619Y-124034571D01*
X163569523Y-124110761D01*
X163531428Y-124148857D01*
X163455238Y-124186952D01*
X163150476Y-124186952D01*
X164217142Y-124148857D02*
X163950476Y-124148857D01*
X163950476Y-124567904D02*
X163950476Y-123767904D01*
X164331428Y-123767904D01*
X164521904Y-123767904D02*
X164788571Y-124567904D01*
X165055238Y-123767904D01*
X184804357Y-91497142D02*
X185413880Y-91497142D01*
X185109119Y-91801904D02*
X185109119Y-91192380D01*
X186671023Y-91382857D02*
X186785309Y-91420952D01*
X186823404Y-91459047D01*
X186861500Y-91535238D01*
X186861500Y-91649523D01*
X186823404Y-91725714D01*
X186785309Y-91763809D01*
X186709119Y-91801904D01*
X186404357Y-91801904D01*
X186404357Y-91001904D01*
X186671023Y-91001904D01*
X186747214Y-91040000D01*
X186785309Y-91078095D01*
X186823404Y-91154285D01*
X186823404Y-91230476D01*
X186785309Y-91306666D01*
X186747214Y-91344761D01*
X186671023Y-91382857D01*
X186404357Y-91382857D01*
X187166261Y-91573333D02*
X187547214Y-91573333D01*
X187090071Y-91801904D02*
X187356738Y-91001904D01*
X187623404Y-91801904D01*
X187775785Y-91001904D02*
X188232928Y-91001904D01*
X188004357Y-91801904D02*
X188004357Y-91001904D01*
X189109119Y-91497142D02*
X189718642Y-91497142D01*
X178848023Y-91497142D02*
X179457547Y-91497142D01*
X179152785Y-91801904D02*
X179152785Y-91192380D01*
X180409928Y-91763809D02*
X180524214Y-91801904D01*
X180714690Y-91801904D01*
X180790880Y-91763809D01*
X180828976Y-91725714D01*
X180867071Y-91649523D01*
X180867071Y-91573333D01*
X180828976Y-91497142D01*
X180790880Y-91459047D01*
X180714690Y-91420952D01*
X180562309Y-91382857D01*
X180486119Y-91344761D01*
X180448023Y-91306666D01*
X180409928Y-91230476D01*
X180409928Y-91154285D01*
X180448023Y-91078095D01*
X180486119Y-91040000D01*
X180562309Y-91001904D01*
X180752785Y-91001904D01*
X180867071Y-91040000D01*
X181667071Y-91725714D02*
X181628976Y-91763809D01*
X181514690Y-91801904D01*
X181438500Y-91801904D01*
X181324214Y-91763809D01*
X181248023Y-91687619D01*
X181209928Y-91611428D01*
X181171833Y-91459047D01*
X181171833Y-91344761D01*
X181209928Y-91192380D01*
X181248023Y-91116190D01*
X181324214Y-91040000D01*
X181438500Y-91001904D01*
X181514690Y-91001904D01*
X181628976Y-91040000D01*
X181667071Y-91078095D01*
X182619452Y-91497142D02*
X183228976Y-91497142D01*
X168993000Y-91001904D02*
X169450142Y-91001904D01*
X169221571Y-91801904D02*
X169221571Y-91001904D01*
X169716809Y-91382857D02*
X169983476Y-91382857D01*
X170097761Y-91801904D02*
X169716809Y-91801904D01*
X169716809Y-91001904D01*
X170097761Y-91001904D01*
X170859666Y-91040000D02*
X170783476Y-91001904D01*
X170669190Y-91001904D01*
X170554904Y-91040000D01*
X170478714Y-91116190D01*
X170440619Y-91192380D01*
X170402523Y-91344761D01*
X170402523Y-91459047D01*
X170440619Y-91611428D01*
X170478714Y-91687619D01*
X170554904Y-91763809D01*
X170669190Y-91801904D01*
X170745380Y-91801904D01*
X170859666Y-91763809D01*
X170897761Y-91725714D01*
X170897761Y-91459047D01*
X170745380Y-91459047D01*
X174288238Y-91801904D02*
X174288238Y-91001904D01*
X174593000Y-91001904D01*
X174669190Y-91040000D01*
X174707285Y-91078095D01*
X174745380Y-91154285D01*
X174745380Y-91268571D01*
X174707285Y-91344761D01*
X174669190Y-91382857D01*
X174593000Y-91420952D01*
X174288238Y-91420952D01*
X175354904Y-91382857D02*
X175088238Y-91382857D01*
X175088238Y-91801904D02*
X175088238Y-91001904D01*
X175469190Y-91001904D01*
X175659666Y-91001904D02*
X175926333Y-91801904D01*
X176193000Y-91001904D01*
X164141261Y-91801904D02*
X164141261Y-91001904D01*
X164446023Y-91001904D01*
X164522214Y-91040000D01*
X164560309Y-91078095D01*
X164598404Y-91154285D01*
X164598404Y-91268571D01*
X164560309Y-91344761D01*
X164522214Y-91382857D01*
X164446023Y-91420952D01*
X164141261Y-91420952D01*
X164865071Y-91001904D02*
X165398404Y-91001904D01*
X164865071Y-91801904D01*
X165398404Y-91801904D01*
X165588880Y-91001904D02*
X166046023Y-91001904D01*
X165817452Y-91801904D02*
X165817452Y-91001904D01*
X157664261Y-91801904D02*
X157664261Y-91001904D01*
X157969023Y-91001904D01*
X158045214Y-91040000D01*
X158083309Y-91078095D01*
X158121404Y-91154285D01*
X158121404Y-91268571D01*
X158083309Y-91344761D01*
X158045214Y-91382857D01*
X157969023Y-91420952D01*
X157664261Y-91420952D01*
X158388071Y-91001904D02*
X158921404Y-91001904D01*
X158388071Y-91801904D01*
X158921404Y-91801904D01*
X159111880Y-91001904D02*
X159569023Y-91001904D01*
X159340452Y-91801904D02*
X159340452Y-91001904D01*
X190874642Y-105949357D02*
X190874642Y-105339833D01*
X190874642Y-103739833D02*
X190874642Y-103130309D01*
X191179404Y-103435071D02*
X190569880Y-103435071D01*
X190379404Y-101644595D02*
X191179404Y-101377928D01*
X190379404Y-101111261D01*
X191141309Y-100882690D02*
X191179404Y-100768404D01*
X191179404Y-100577928D01*
X191141309Y-100501738D01*
X191103214Y-100463642D01*
X191027023Y-100425547D01*
X190950833Y-100425547D01*
X190874642Y-100463642D01*
X190836547Y-100501738D01*
X190798452Y-100577928D01*
X190760357Y-100730309D01*
X190722261Y-100806500D01*
X190684166Y-100844595D01*
X190607976Y-100882690D01*
X190531785Y-100882690D01*
X190455595Y-100844595D01*
X190417500Y-100806500D01*
X190379404Y-100730309D01*
X190379404Y-100539833D01*
X190417500Y-100425547D01*
X191103214Y-99625547D02*
X191141309Y-99663642D01*
X191179404Y-99777928D01*
X191179404Y-99854119D01*
X191141309Y-99968404D01*
X191065119Y-100044595D01*
X190988928Y-100082690D01*
X190836547Y-100120785D01*
X190722261Y-100120785D01*
X190569880Y-100082690D01*
X190493690Y-100044595D01*
X190417500Y-99968404D01*
X190379404Y-99854119D01*
X190379404Y-99777928D01*
X190417500Y-99663642D01*
X190455595Y-99625547D01*
X190938142Y-114807619D02*
X190938142Y-114198095D01*
X190938142Y-112598095D02*
X190938142Y-111988571D01*
X191242904Y-112293333D02*
X190633380Y-112293333D01*
X190442904Y-110502857D02*
X191242904Y-110236190D01*
X190442904Y-109969523D01*
X191204809Y-109740952D02*
X191242904Y-109626666D01*
X191242904Y-109436190D01*
X191204809Y-109360000D01*
X191166714Y-109321904D01*
X191090523Y-109283809D01*
X191014333Y-109283809D01*
X190938142Y-109321904D01*
X190900047Y-109360000D01*
X190861952Y-109436190D01*
X190823857Y-109588571D01*
X190785761Y-109664761D01*
X190747666Y-109702857D01*
X190671476Y-109740952D01*
X190595285Y-109740952D01*
X190519095Y-109702857D01*
X190481000Y-109664761D01*
X190442904Y-109588571D01*
X190442904Y-109398095D01*
X190481000Y-109283809D01*
X190442904Y-109055238D02*
X190442904Y-108598095D01*
X191242904Y-108826666D02*
X190442904Y-108826666D01*
X172650209Y-123539304D02*
X172802590Y-123539304D01*
X172878780Y-123577400D01*
X172954971Y-123653590D01*
X172993066Y-123805971D01*
X172993066Y-124072638D01*
X172954971Y-124225019D01*
X172878780Y-124301209D01*
X172802590Y-124339304D01*
X172650209Y-124339304D01*
X172574019Y-124301209D01*
X172497828Y-124225019D01*
X172459733Y-124072638D01*
X172459733Y-123805971D01*
X172497828Y-123653590D01*
X172574019Y-123577400D01*
X172650209Y-123539304D01*
X173335923Y-124339304D02*
X173335923Y-123539304D01*
X173793066Y-124339304D02*
X173450209Y-123882161D01*
X173793066Y-123539304D02*
X173335923Y-123996447D01*
X169761000Y-124339304D02*
X169761000Y-123539304D01*
X170065761Y-123539304D01*
X170141952Y-123577400D01*
X170180047Y-123615495D01*
X170218142Y-123691685D01*
X170218142Y-123805971D01*
X170180047Y-123882161D01*
X170141952Y-123920257D01*
X170065761Y-123958352D01*
X169761000Y-123958352D01*
X171018142Y-124339304D02*
X170751476Y-123958352D01*
X170561000Y-124339304D02*
X170561000Y-123539304D01*
X170865761Y-123539304D01*
X170941952Y-123577400D01*
X170980047Y-123615495D01*
X171018142Y-123691685D01*
X171018142Y-123805971D01*
X170980047Y-123882161D01*
X170941952Y-123920257D01*
X170865761Y-123958352D01*
X170561000Y-123958352D01*
X171361000Y-124339304D02*
X171361000Y-123539304D01*
X166751123Y-124301209D02*
X166865409Y-124339304D01*
X167055885Y-124339304D01*
X167132076Y-124301209D01*
X167170171Y-124263114D01*
X167208266Y-124186923D01*
X167208266Y-124110733D01*
X167170171Y-124034542D01*
X167132076Y-123996447D01*
X167055885Y-123958352D01*
X166903504Y-123920257D01*
X166827314Y-123882161D01*
X166789219Y-123844066D01*
X166751123Y-123767876D01*
X166751123Y-123691685D01*
X166789219Y-123615495D01*
X166827314Y-123577400D01*
X166903504Y-123539304D01*
X167093980Y-123539304D01*
X167208266Y-123577400D01*
X167551123Y-123920257D02*
X167817790Y-123920257D01*
X167932076Y-124339304D02*
X167551123Y-124339304D01*
X167551123Y-123539304D01*
X167932076Y-123539304D01*
X168732076Y-124263114D02*
X168693980Y-124301209D01*
X168579695Y-124339304D01*
X168503504Y-124339304D01*
X168389219Y-124301209D01*
X168313028Y-124225019D01*
X168274933Y-124148828D01*
X168236838Y-123996447D01*
X168236838Y-123882161D01*
X168274933Y-123729780D01*
X168313028Y-123653590D01*
X168389219Y-123577400D01*
X168503504Y-123539304D01*
X168579695Y-123539304D01*
X168693980Y-123577400D01*
X168732076Y-123615495D01*
D11*
X177486000Y-122488000D02*
X177486000Y-121158000D01*
X178816000Y-122488000D02*
X177486000Y-122488000D01*
X180086000Y-122488000D02*
X180086000Y-119828000D01*
X180086000Y-119828000D02*
X185226000Y-119828000D01*
X180086000Y-122488000D02*
X185226000Y-122488000D01*
X185226000Y-122488000D02*
X185226000Y-119828000D01*
X153646000Y-122064400D02*
X153646000Y-120064400D01*
X154896000Y-122064400D02*
X153646000Y-122064400D01*
X160646000Y-112444400D02*
X160646000Y-113194400D01*
X156346000Y-112444400D02*
X160646000Y-112444400D01*
X156346000Y-113194400D02*
X156346000Y-112444400D01*
X155996000Y-113194400D02*
X156346000Y-113194400D01*
X155996000Y-112694400D02*
X155996000Y-113194400D01*
X154996000Y-112444400D02*
X155996000Y-112694400D01*
X154996000Y-115444400D02*
X154996000Y-112444400D01*
X155996000Y-115194400D02*
X154996000Y-115444400D01*
X155996000Y-114694400D02*
X155996000Y-115194400D01*
X156346000Y-114694400D02*
X155996000Y-114694400D01*
X156346000Y-115444400D02*
X156346000Y-114694400D01*
X160646000Y-115444400D02*
X156346000Y-115444400D01*
X160646000Y-114694400D02*
X160646000Y-115444400D01*
X160646000Y-117524400D02*
X160646000Y-118274400D01*
X156346000Y-117524400D02*
X160646000Y-117524400D01*
X156346000Y-118274400D02*
X156346000Y-117524400D01*
X155996000Y-118274400D02*
X156346000Y-118274400D01*
X155996000Y-117774400D02*
X155996000Y-118274400D01*
X154996000Y-117524400D02*
X155996000Y-117774400D01*
X154996000Y-120524400D02*
X154996000Y-117524400D01*
X155996000Y-120274400D02*
X154996000Y-120524400D01*
X155996000Y-119774400D02*
X155996000Y-120274400D01*
X156346000Y-119774400D02*
X155996000Y-119774400D01*
X156346000Y-120524400D02*
X156346000Y-119774400D01*
X160646000Y-120524400D02*
X156346000Y-120524400D01*
X160646000Y-119774400D02*
X160646000Y-120524400D01*
X154036000Y-111294400D02*
X154036000Y-121674400D01*
X161506000Y-111294400D02*
X154036000Y-111294400D01*
X161506000Y-121674400D02*
X161506000Y-111294400D01*
X154036000Y-121674400D02*
X161506000Y-121674400D01*
X160645845Y-113194753D02*
G75*
G03*
X160646000Y-114694400I1700155J-749647D01*
G01*
X160645845Y-118274753D02*
G75*
G03*
X160646000Y-119774400I1700155J-749647D01*
G01*
X153646000Y-107840400D02*
X153646000Y-105840400D01*
X154896000Y-107840400D02*
X153646000Y-107840400D01*
X160646000Y-98220400D02*
X160646000Y-98970400D01*
X156346000Y-98220400D02*
X160646000Y-98220400D01*
X156346000Y-98970400D02*
X156346000Y-98220400D01*
X155996000Y-98970400D02*
X156346000Y-98970400D01*
X155996000Y-98470400D02*
X155996000Y-98970400D01*
X154996000Y-98220400D02*
X155996000Y-98470400D01*
X154996000Y-101220400D02*
X154996000Y-98220400D01*
X155996000Y-100970400D02*
X154996000Y-101220400D01*
X155996000Y-100470400D02*
X155996000Y-100970400D01*
X156346000Y-100470400D02*
X155996000Y-100470400D01*
X156346000Y-101220400D02*
X156346000Y-100470400D01*
X160646000Y-101220400D02*
X156346000Y-101220400D01*
X160646000Y-100470400D02*
X160646000Y-101220400D01*
X160646000Y-103300400D02*
X160646000Y-104050400D01*
X156346000Y-103300400D02*
X160646000Y-103300400D01*
X156346000Y-104050400D02*
X156346000Y-103300400D01*
X155996000Y-104050400D02*
X156346000Y-104050400D01*
X155996000Y-103550400D02*
X155996000Y-104050400D01*
X154996000Y-103300400D02*
X155996000Y-103550400D01*
X154996000Y-106300400D02*
X154996000Y-103300400D01*
X155996000Y-106050400D02*
X154996000Y-106300400D01*
X155996000Y-105550400D02*
X155996000Y-106050400D01*
X156346000Y-105550400D02*
X155996000Y-105550400D01*
X156346000Y-106300400D02*
X156346000Y-105550400D01*
X160646000Y-106300400D02*
X156346000Y-106300400D01*
X160646000Y-105550400D02*
X160646000Y-106300400D01*
X154036000Y-97070400D02*
X154036000Y-107450400D01*
X161506000Y-97070400D02*
X154036000Y-97070400D01*
X161506000Y-107450400D02*
X161506000Y-97070400D01*
X154036000Y-107450400D02*
X161506000Y-107450400D01*
X160645845Y-98970753D02*
G75*
G03*
X160646000Y-100470400I1700155J-749647D01*
G01*
X160645845Y-104050753D02*
G75*
G03*
X160646000Y-105550400I1700155J-749647D01*
G01*
X174304000Y-122488000D02*
X174304000Y-119828000D01*
X169164000Y-122488000D02*
X174304000Y-122488000D01*
X169164000Y-119828000D02*
X174304000Y-119828000D01*
X169164000Y-122488000D02*
X169164000Y-119828000D01*
X167894000Y-122488000D02*
X166564000Y-122488000D01*
X166564000Y-122488000D02*
X166564000Y-121158000D01*
X178095600Y-92345200D02*
X178095600Y-95005200D01*
X180695600Y-92345200D02*
X178095600Y-92345200D01*
X180695600Y-95005200D02*
X178095600Y-95005200D01*
X180695600Y-92345200D02*
X180695600Y-95005200D01*
X181965600Y-92345200D02*
X183295600Y-92345200D01*
X183295600Y-92345200D02*
X183295600Y-93675200D01*
X181891000Y-100337252D02*
X181891000Y-99814748D01*
X183361000Y-100337252D02*
X183361000Y-99814748D01*
X189582100Y-115820500D02*
X188252100Y-115820500D01*
X189582100Y-114490500D02*
X189582100Y-115820500D01*
X189582100Y-113220500D02*
X186922100Y-113220500D01*
X186922100Y-113220500D02*
X186922100Y-108080500D01*
X189582100Y-113220500D02*
X189582100Y-108080500D01*
X189582100Y-108080500D02*
X186922100Y-108080500D01*
X178070742Y-117587500D02*
X178545258Y-117587500D01*
X178070742Y-118632500D02*
X178545258Y-118632500D01*
X167436500Y-99110436D02*
X167436500Y-99564564D01*
X168906500Y-99110436D02*
X168906500Y-99564564D01*
X167436500Y-102682936D02*
X167436500Y-103137064D01*
X168906500Y-102682936D02*
X168906500Y-103137064D01*
X167436500Y-106262436D02*
X167436500Y-106716564D01*
X168906500Y-106262436D02*
X168906500Y-106716564D01*
X165784000Y-99100242D02*
X165784000Y-99574758D01*
X166829000Y-99100242D02*
X166829000Y-99574758D01*
X165784000Y-102672742D02*
X165784000Y-103147258D01*
X166829000Y-102672742D02*
X166829000Y-103147258D01*
X165784000Y-106252242D02*
X165784000Y-106726758D01*
X166829000Y-106252242D02*
X166829000Y-106726758D01*
X162195200Y-92345200D02*
X162195200Y-95005200D01*
X164795200Y-92345200D02*
X162195200Y-92345200D01*
X164795200Y-95005200D02*
X162195200Y-95005200D01*
X164795200Y-92345200D02*
X164795200Y-95005200D01*
X166065200Y-92345200D02*
X167395200Y-92345200D01*
X167395200Y-92345200D02*
X167395200Y-93675200D01*
X155896000Y-92345200D02*
X155896000Y-95005200D01*
X158496000Y-92345200D02*
X155896000Y-92345200D01*
X158496000Y-95005200D02*
X155896000Y-95005200D01*
X158496000Y-92345200D02*
X158496000Y-95005200D01*
X159766000Y-92345200D02*
X161096000Y-92345200D01*
X161096000Y-92345200D02*
X161096000Y-93675200D01*
X162866800Y-98127700D02*
X162866800Y-99057700D01*
X162866800Y-101287700D02*
X162866800Y-100357700D01*
X162866800Y-101287700D02*
X165026800Y-101287700D01*
X162866800Y-98127700D02*
X164326800Y-98127700D01*
X162866800Y-103144200D02*
X162866800Y-104074200D01*
X162866800Y-106304200D02*
X162866800Y-105374200D01*
X162866800Y-106304200D02*
X165026800Y-106304200D01*
X162866800Y-103144200D02*
X164326800Y-103144200D01*
X189594800Y-92345200D02*
X189594800Y-93675200D01*
X188264800Y-92345200D02*
X189594800Y-92345200D01*
X186994800Y-92345200D02*
X186994800Y-95005200D01*
X186994800Y-95005200D02*
X184394800Y-95005200D01*
X186994800Y-92345200D02*
X184394800Y-92345200D01*
X184394800Y-92345200D02*
X184394800Y-95005200D01*
X181891000Y-114019064D02*
X181891000Y-113564936D01*
X183361000Y-114019064D02*
X183361000Y-113564936D01*
X185520000Y-116993936D02*
X185520000Y-117448064D01*
X184050000Y-116993936D02*
X184050000Y-117448064D01*
X185520000Y-110135936D02*
X185520000Y-110590064D01*
X184050000Y-110135936D02*
X184050000Y-110590064D01*
X185520000Y-113564936D02*
X185520000Y-114019064D01*
X184050000Y-113564936D02*
X184050000Y-114019064D01*
X185520000Y-99848936D02*
X185520000Y-100303064D01*
X184050000Y-99848936D02*
X184050000Y-100303064D01*
X185520000Y-103277936D02*
X185520000Y-103732064D01*
X184050000Y-103277936D02*
X184050000Y-103732064D01*
X185520000Y-106706936D02*
X185520000Y-107161064D01*
X184050000Y-106706936D02*
X184050000Y-107161064D01*
X181382936Y-117375000D02*
X181837064Y-117375000D01*
X181382936Y-118845000D02*
X181837064Y-118845000D01*
X167666936Y-117375000D02*
X168121064Y-117375000D01*
X167666936Y-118845000D02*
X168121064Y-118845000D01*
X171222936Y-117375000D02*
X171677064Y-117375000D01*
X171222936Y-118845000D02*
X171677064Y-118845000D01*
X174712896Y-117402940D02*
X175167024Y-117402940D01*
X174712896Y-118872940D02*
X175167024Y-118872940D01*
X173304200Y-111683800D02*
X174046426Y-111683800D01*
X177723800Y-111683800D02*
X177723800Y-110941323D01*
X177723800Y-107264200D02*
X176981574Y-107264200D01*
X173304200Y-107264200D02*
X173304200Y-108006677D01*
X173304200Y-110941323D02*
X173304200Y-111683800D01*
X176981574Y-111683800D02*
X177723800Y-111683800D01*
X177723800Y-108006677D02*
X177723800Y-107264200D01*
X174046426Y-107264200D02*
X173304200Y-107264200D01*
D12*
G36*
X176323752Y-111878001D02*
G01*
X176323752Y-112132001D01*
X176704752Y-112132001D01*
X176704752Y-111878001D01*
X176323752Y-111878001D01*
G37*
X176323752Y-111878001D02*
X176323752Y-112132001D01*
X176704752Y-112132001D01*
X176704752Y-111878001D01*
X176323752Y-111878001D01*
G36*
X174323248Y-107069999D02*
G01*
X174323248Y-106815999D01*
X174704248Y-106815999D01*
X174704248Y-107069999D01*
X174323248Y-107069999D01*
G37*
X174323248Y-107069999D02*
X174323248Y-106815999D01*
X174704248Y-106815999D01*
X174704248Y-107069999D01*
X174323248Y-107069999D01*
D11*
X168494400Y-92345200D02*
X168494400Y-95005200D01*
X173634400Y-92345200D02*
X168494400Y-92345200D01*
X173634400Y-95005200D02*
X168494400Y-95005200D01*
X173634400Y-92345200D02*
X173634400Y-95005200D01*
X174904400Y-92345200D02*
X176234400Y-92345200D01*
X176234400Y-92345200D02*
X176234400Y-93675200D01*
X173201000Y-103668564D02*
X173201000Y-103214436D01*
X171731000Y-103668564D02*
X171731000Y-103214436D01*
X181265500Y-103732064D02*
X181265500Y-103277936D01*
X179795500Y-103732064D02*
X179795500Y-103277936D01*
X169699000Y-103214436D02*
X169699000Y-103668564D01*
X171169000Y-103214436D02*
X171169000Y-103668564D01*
X177763500Y-103277936D02*
X177763500Y-103732064D01*
X179233500Y-103277936D02*
X179233500Y-103732064D01*
X167666936Y-115216000D02*
X168121064Y-115216000D01*
X167666936Y-116686000D02*
X168121064Y-116686000D01*
X189582100Y-106803500D02*
X188252100Y-106803500D01*
X189582100Y-105473500D02*
X189582100Y-106803500D01*
X189582100Y-104203500D02*
X186922100Y-104203500D01*
X186922100Y-104203500D02*
X186922100Y-99063500D01*
X189582100Y-104203500D02*
X189582100Y-99063500D01*
X189582100Y-99063500D02*
X186922100Y-99063500D01*
X173030000Y-99125500D02*
X173030000Y-100585500D01*
X169870000Y-99125500D02*
X169870000Y-101285500D01*
X169870000Y-99125500D02*
X170800000Y-99125500D01*
X173030000Y-99125500D02*
X172100000Y-99125500D01*
X181094500Y-99125500D02*
X181094500Y-100585500D01*
X177934500Y-99125500D02*
X177934500Y-101285500D01*
X177934500Y-99125500D02*
X178864500Y-99125500D01*
X181094500Y-99125500D02*
X180164500Y-99125500D01*
X182090800Y-103191542D02*
X182090800Y-103666058D01*
X183135800Y-103191542D02*
X183135800Y-103666058D01*
X182090800Y-106620542D02*
X182090800Y-107095058D01*
X183135800Y-106620542D02*
X183135800Y-107095058D01*
X182090800Y-110049542D02*
X182090800Y-110524058D01*
X183135800Y-110049542D02*
X183135800Y-110524058D01*
X172736742Y-115076500D02*
X173211258Y-115076500D01*
X172736742Y-114031500D02*
X173211258Y-114031500D01*
X177816742Y-115076500D02*
X178291258Y-115076500D01*
X177816742Y-114031500D02*
X178291258Y-114031500D01*
X167696248Y-108700500D02*
X168218752Y-108700500D01*
X167696248Y-110120500D02*
X168218752Y-110120500D01*
X175252748Y-102716000D02*
X175775252Y-102716000D01*
X175252748Y-101246000D02*
X175775252Y-101246000D01*
X175252748Y-100557000D02*
X175775252Y-100557000D01*
X175252748Y-99087000D02*
X175775252Y-99087000D01*
X175252748Y-104875000D02*
X175775252Y-104875000D01*
X175252748Y-103405000D02*
X175775252Y-103405000D01*
X168155252Y-112304500D02*
X167632748Y-112304500D01*
X168155252Y-110834500D02*
X167632748Y-110834500D01*
X168155252Y-114527000D02*
X167632748Y-114527000D01*
X168155252Y-113057000D02*
X167632748Y-113057000D01*
D10*
X175212476Y-120610380D02*
X175212476Y-121324666D01*
X175164857Y-121467523D01*
X175069619Y-121562761D01*
X174926761Y-121610380D01*
X174831523Y-121610380D01*
X176212476Y-121610380D02*
X175641047Y-121610380D01*
X175926761Y-121610380D02*
X175926761Y-120610380D01*
X175831523Y-120753238D01*
X175736285Y-120848476D01*
X175641047Y-120896095D01*
X177164857Y-121610380D02*
X176593428Y-121610380D01*
X176879142Y-121610380D02*
X176879142Y-120610380D01*
X176783904Y-120753238D01*
X176688666Y-120848476D01*
X176593428Y-120896095D01*
X160956666Y-122134380D02*
X160956666Y-122848666D01*
X160909047Y-122991523D01*
X160813809Y-123086761D01*
X160670952Y-123134380D01*
X160575714Y-123134380D01*
X161385238Y-122229619D02*
X161432857Y-122182000D01*
X161528095Y-122134380D01*
X161766190Y-122134380D01*
X161861428Y-122182000D01*
X161909047Y-122229619D01*
X161956666Y-122324857D01*
X161956666Y-122420095D01*
X161909047Y-122562952D01*
X161337619Y-123134380D01*
X161956666Y-123134380D01*
X156130666Y-108164380D02*
X156130666Y-108878666D01*
X156083047Y-109021523D01*
X155987809Y-109116761D01*
X155844952Y-109164380D01*
X155749714Y-109164380D01*
X157130666Y-109164380D02*
X156559238Y-109164380D01*
X156844952Y-109164380D02*
X156844952Y-108164380D01*
X156749714Y-108307238D01*
X156654476Y-108402476D01*
X156559238Y-108450095D01*
X165147666Y-120610380D02*
X165147666Y-121324666D01*
X165100047Y-121467523D01*
X165004809Y-121562761D01*
X164861952Y-121610380D01*
X164766714Y-121610380D01*
X166052428Y-120943714D02*
X166052428Y-121610380D01*
X165814333Y-120562761D02*
X165576238Y-121277047D01*
X166195285Y-121277047D01*
X181914833Y-95135654D02*
X181914833Y-95707083D01*
X181876738Y-95821369D01*
X181800547Y-95897559D01*
X181686261Y-95935654D01*
X181610071Y-95935654D01*
X182410071Y-95478511D02*
X182333880Y-95440416D01*
X182295785Y-95402321D01*
X182257690Y-95326130D01*
X182257690Y-95288035D01*
X182295785Y-95211845D01*
X182333880Y-95173750D01*
X182410071Y-95135654D01*
X182562452Y-95135654D01*
X182638642Y-95173750D01*
X182676738Y-95211845D01*
X182714833Y-95288035D01*
X182714833Y-95326130D01*
X182676738Y-95402321D01*
X182638642Y-95440416D01*
X182562452Y-95478511D01*
X182410071Y-95478511D01*
X182333880Y-95516607D01*
X182295785Y-95554702D01*
X182257690Y-95630892D01*
X182257690Y-95783273D01*
X182295785Y-95859464D01*
X182333880Y-95897559D01*
X182410071Y-95935654D01*
X182562452Y-95935654D01*
X182638642Y-95897559D01*
X182676738Y-95859464D01*
X182714833Y-95783273D01*
X182714833Y-95630892D01*
X182676738Y-95554702D01*
X182638642Y-95516607D01*
X182562452Y-95478511D01*
X182492666Y-97885214D02*
X182454571Y-97923309D01*
X182340285Y-97961404D01*
X182264095Y-97961404D01*
X182149809Y-97923309D01*
X182073619Y-97847119D01*
X182035523Y-97770928D01*
X181997428Y-97618547D01*
X181997428Y-97504261D01*
X182035523Y-97351880D01*
X182073619Y-97275690D01*
X182149809Y-97199500D01*
X182264095Y-97161404D01*
X182340285Y-97161404D01*
X182454571Y-97199500D01*
X182492666Y-97237595D01*
X182759333Y-97161404D02*
X183254571Y-97161404D01*
X182987904Y-97466166D01*
X183102190Y-97466166D01*
X183178380Y-97504261D01*
X183216476Y-97542357D01*
X183254571Y-97618547D01*
X183254571Y-97809023D01*
X183216476Y-97885214D01*
X183178380Y-97923309D01*
X183102190Y-97961404D01*
X182873619Y-97961404D01*
X182797428Y-97923309D01*
X182759333Y-97885214D01*
D13*
X187629880Y-116084404D02*
X187629880Y-116655833D01*
X187591785Y-116770119D01*
X187515595Y-116846309D01*
X187401309Y-116884404D01*
X187325119Y-116884404D01*
X188429880Y-116884404D02*
X187972738Y-116884404D01*
X188201309Y-116884404D02*
X188201309Y-116084404D01*
X188125119Y-116198690D01*
X188048928Y-116274880D01*
X187972738Y-116312976D01*
X188925119Y-116084404D02*
X189001309Y-116084404D01*
X189077500Y-116122500D01*
X189115595Y-116160595D01*
X189153690Y-116236785D01*
X189191785Y-116389166D01*
X189191785Y-116579642D01*
X189153690Y-116732023D01*
X189115595Y-116808214D01*
X189077500Y-116846309D01*
X189001309Y-116884404D01*
X188925119Y-116884404D01*
X188848928Y-116846309D01*
X188810833Y-116808214D01*
X188772738Y-116732023D01*
X188734642Y-116579642D01*
X188734642Y-116389166D01*
X188772738Y-116236785D01*
X188810833Y-116160595D01*
X188848928Y-116122500D01*
X188925119Y-116084404D01*
X178174666Y-117041904D02*
X177908000Y-116660952D01*
X177717523Y-117041904D02*
X177717523Y-116241904D01*
X178022285Y-116241904D01*
X178098476Y-116280000D01*
X178136571Y-116318095D01*
X178174666Y-116394285D01*
X178174666Y-116508571D01*
X178136571Y-116584761D01*
X178098476Y-116622857D01*
X178022285Y-116660952D01*
X177717523Y-116660952D01*
X178898476Y-116241904D02*
X178517523Y-116241904D01*
X178479428Y-116622857D01*
X178517523Y-116584761D01*
X178593714Y-116546666D01*
X178784190Y-116546666D01*
X178860380Y-116584761D01*
X178898476Y-116622857D01*
X178936571Y-116699047D01*
X178936571Y-116889523D01*
X178898476Y-116965714D01*
X178860380Y-117003809D01*
X178784190Y-117041904D01*
X178593714Y-117041904D01*
X178517523Y-117003809D01*
X178479428Y-116965714D01*
D10*
X167951214Y-97326404D02*
X167684547Y-96945452D01*
X167494071Y-97326404D02*
X167494071Y-96526404D01*
X167798833Y-96526404D01*
X167875023Y-96564500D01*
X167913119Y-96602595D01*
X167951214Y-96678785D01*
X167951214Y-96793071D01*
X167913119Y-96869261D01*
X167875023Y-96907357D01*
X167798833Y-96945452D01*
X167494071Y-96945452D01*
X168255976Y-96602595D02*
X168294071Y-96564500D01*
X168370261Y-96526404D01*
X168560738Y-96526404D01*
X168636928Y-96564500D01*
X168675023Y-96602595D01*
X168713119Y-96678785D01*
X168713119Y-96754976D01*
X168675023Y-96869261D01*
X168217880Y-97326404D01*
X168713119Y-97326404D01*
X169398833Y-96793071D02*
X169398833Y-97326404D01*
X169208357Y-96488309D02*
X169017880Y-97059738D01*
X169513119Y-97059738D01*
X169779904Y-101479285D02*
X169398952Y-101745952D01*
X169779904Y-101936428D02*
X168979904Y-101936428D01*
X168979904Y-101631666D01*
X169018000Y-101555476D01*
X169056095Y-101517380D01*
X169132285Y-101479285D01*
X169246571Y-101479285D01*
X169322761Y-101517380D01*
X169360857Y-101555476D01*
X169398952Y-101631666D01*
X169398952Y-101936428D01*
X169056095Y-101174523D02*
X169018000Y-101136428D01*
X168979904Y-101060238D01*
X168979904Y-100869761D01*
X169018000Y-100793571D01*
X169056095Y-100755476D01*
X169132285Y-100717380D01*
X169208476Y-100717380D01*
X169322761Y-100755476D01*
X169779904Y-101212619D01*
X169779904Y-100717380D01*
X168979904Y-100450714D02*
X168979904Y-99955476D01*
X169284666Y-100222142D01*
X169284666Y-100107857D01*
X169322761Y-100031666D01*
X169360857Y-99993571D01*
X169437047Y-99955476D01*
X169627523Y-99955476D01*
X169703714Y-99993571D01*
X169741809Y-100031666D01*
X169779904Y-100107857D01*
X169779904Y-100336428D01*
X169741809Y-100412619D01*
X169703714Y-100450714D01*
X169983214Y-107232404D02*
X169716547Y-106851452D01*
X169526071Y-107232404D02*
X169526071Y-106432404D01*
X169830833Y-106432404D01*
X169907023Y-106470500D01*
X169945119Y-106508595D01*
X169983214Y-106584785D01*
X169983214Y-106699071D01*
X169945119Y-106775261D01*
X169907023Y-106813357D01*
X169830833Y-106851452D01*
X169526071Y-106851452D01*
X170287976Y-106508595D02*
X170326071Y-106470500D01*
X170402261Y-106432404D01*
X170592738Y-106432404D01*
X170668928Y-106470500D01*
X170707023Y-106508595D01*
X170745119Y-106584785D01*
X170745119Y-106660976D01*
X170707023Y-106775261D01*
X170249880Y-107232404D01*
X170745119Y-107232404D01*
X171049880Y-106508595D02*
X171087976Y-106470500D01*
X171164166Y-106432404D01*
X171354642Y-106432404D01*
X171430833Y-106470500D01*
X171468928Y-106508595D01*
X171507023Y-106584785D01*
X171507023Y-106660976D01*
X171468928Y-106775261D01*
X171011785Y-107232404D01*
X171507023Y-107232404D01*
X165665214Y-97326404D02*
X165398547Y-96945452D01*
X165208071Y-97326404D02*
X165208071Y-96526404D01*
X165512833Y-96526404D01*
X165589023Y-96564500D01*
X165627119Y-96602595D01*
X165665214Y-96678785D01*
X165665214Y-96793071D01*
X165627119Y-96869261D01*
X165589023Y-96907357D01*
X165512833Y-96945452D01*
X165208071Y-96945452D01*
X165969976Y-96602595D02*
X166008071Y-96564500D01*
X166084261Y-96526404D01*
X166274738Y-96526404D01*
X166350928Y-96564500D01*
X166389023Y-96602595D01*
X166427119Y-96678785D01*
X166427119Y-96754976D01*
X166389023Y-96869261D01*
X165931880Y-97326404D01*
X166427119Y-97326404D01*
X167189023Y-97326404D02*
X166731880Y-97326404D01*
X166960452Y-97326404D02*
X166960452Y-96526404D01*
X166884261Y-96640690D01*
X166808071Y-96716880D01*
X166731880Y-96754976D01*
X164179314Y-102977904D02*
X163912647Y-102596952D01*
X163722171Y-102977904D02*
X163722171Y-102177904D01*
X164026933Y-102177904D01*
X164103123Y-102216000D01*
X164141219Y-102254095D01*
X164179314Y-102330285D01*
X164179314Y-102444571D01*
X164141219Y-102520761D01*
X164103123Y-102558857D01*
X164026933Y-102596952D01*
X163722171Y-102596952D01*
X164484076Y-102254095D02*
X164522171Y-102216000D01*
X164598361Y-102177904D01*
X164788838Y-102177904D01*
X164865028Y-102216000D01*
X164903123Y-102254095D01*
X164941219Y-102330285D01*
X164941219Y-102406476D01*
X164903123Y-102520761D01*
X164445980Y-102977904D01*
X164941219Y-102977904D01*
X165436457Y-102177904D02*
X165512647Y-102177904D01*
X165588838Y-102216000D01*
X165626933Y-102254095D01*
X165665028Y-102330285D01*
X165703123Y-102482666D01*
X165703123Y-102673142D01*
X165665028Y-102825523D01*
X165626933Y-102901714D01*
X165588838Y-102939809D01*
X165512647Y-102977904D01*
X165436457Y-102977904D01*
X165360266Y-102939809D01*
X165322171Y-102901714D01*
X165284076Y-102825523D01*
X165245980Y-102673142D01*
X165245980Y-102482666D01*
X165284076Y-102330285D01*
X165322171Y-102254095D01*
X165360266Y-102216000D01*
X165436457Y-102177904D01*
X164077714Y-107346704D02*
X163811047Y-106965752D01*
X163620571Y-107346704D02*
X163620571Y-106546704D01*
X163925333Y-106546704D01*
X164001523Y-106584800D01*
X164039619Y-106622895D01*
X164077714Y-106699085D01*
X164077714Y-106813371D01*
X164039619Y-106889561D01*
X164001523Y-106927657D01*
X163925333Y-106965752D01*
X163620571Y-106965752D01*
X164839619Y-107346704D02*
X164382476Y-107346704D01*
X164611047Y-107346704D02*
X164611047Y-106546704D01*
X164534857Y-106660990D01*
X164458666Y-106737180D01*
X164382476Y-106775276D01*
X165220571Y-107346704D02*
X165372952Y-107346704D01*
X165449142Y-107308609D01*
X165487238Y-107270514D01*
X165563428Y-107156228D01*
X165601523Y-107003847D01*
X165601523Y-106699085D01*
X165563428Y-106622895D01*
X165525333Y-106584800D01*
X165449142Y-106546704D01*
X165296761Y-106546704D01*
X165220571Y-106584800D01*
X165182476Y-106622895D01*
X165144380Y-106699085D01*
X165144380Y-106889561D01*
X165182476Y-106965752D01*
X165220571Y-107003847D01*
X165296761Y-107041942D01*
X165449142Y-107041942D01*
X165525333Y-107003847D01*
X165563428Y-106965752D01*
X165601523Y-106889561D01*
X165976333Y-95135654D02*
X165976333Y-95707083D01*
X165938238Y-95821369D01*
X165862047Y-95897559D01*
X165747761Y-95935654D01*
X165671571Y-95935654D01*
X166738238Y-95135654D02*
X166357285Y-95135654D01*
X166319190Y-95516607D01*
X166357285Y-95478511D01*
X166433476Y-95440416D01*
X166623952Y-95440416D01*
X166700142Y-95478511D01*
X166738238Y-95516607D01*
X166776333Y-95592797D01*
X166776333Y-95783273D01*
X166738238Y-95859464D01*
X166700142Y-95897559D01*
X166623952Y-95935654D01*
X166433476Y-95935654D01*
X166357285Y-95897559D01*
X166319190Y-95859464D01*
X159689833Y-95135654D02*
X159689833Y-95707083D01*
X159651738Y-95821369D01*
X159575547Y-95897559D01*
X159461261Y-95935654D01*
X159385071Y-95935654D01*
X159994595Y-95135654D02*
X160489833Y-95135654D01*
X160223166Y-95440416D01*
X160337452Y-95440416D01*
X160413642Y-95478511D01*
X160451738Y-95516607D01*
X160489833Y-95592797D01*
X160489833Y-95783273D01*
X160451738Y-95859464D01*
X160413642Y-95897559D01*
X160337452Y-95935654D01*
X160108880Y-95935654D01*
X160032690Y-95897559D01*
X159994595Y-95859464D01*
X162223523Y-97707404D02*
X162223523Y-96907404D01*
X162414000Y-96907404D01*
X162528285Y-96945500D01*
X162604476Y-97021690D01*
X162642571Y-97097880D01*
X162680666Y-97250261D01*
X162680666Y-97364547D01*
X162642571Y-97516928D01*
X162604476Y-97593119D01*
X162528285Y-97669309D01*
X162414000Y-97707404D01*
X162223523Y-97707404D01*
X162985428Y-96983595D02*
X163023523Y-96945500D01*
X163099714Y-96907404D01*
X163290190Y-96907404D01*
X163366380Y-96945500D01*
X163404476Y-96983595D01*
X163442571Y-97059785D01*
X163442571Y-97135976D01*
X163404476Y-97250261D01*
X162947333Y-97707404D01*
X163442571Y-97707404D01*
X161906023Y-102787404D02*
X161906023Y-101987404D01*
X162096500Y-101987404D01*
X162210785Y-102025500D01*
X162286976Y-102101690D01*
X162325071Y-102177880D01*
X162363166Y-102330261D01*
X162363166Y-102444547D01*
X162325071Y-102596928D01*
X162286976Y-102673119D01*
X162210785Y-102749309D01*
X162096500Y-102787404D01*
X161906023Y-102787404D01*
X163125071Y-102787404D02*
X162667928Y-102787404D01*
X162896500Y-102787404D02*
X162896500Y-101987404D01*
X162820309Y-102101690D01*
X162744119Y-102177880D01*
X162667928Y-102215976D01*
D13*
X188201333Y-95129404D02*
X188201333Y-95700833D01*
X188163238Y-95815119D01*
X188087047Y-95891309D01*
X187972761Y-95929404D01*
X187896571Y-95929404D01*
X188506095Y-95129404D02*
X189039428Y-95129404D01*
X188696571Y-95929404D01*
X180016214Y-114153904D02*
X179749547Y-113772952D01*
X179559071Y-114153904D02*
X179559071Y-113353904D01*
X179863833Y-113353904D01*
X179940023Y-113392000D01*
X179978119Y-113430095D01*
X180016214Y-113506285D01*
X180016214Y-113620571D01*
X179978119Y-113696761D01*
X179940023Y-113734857D01*
X179863833Y-113772952D01*
X179559071Y-113772952D01*
X180778119Y-114153904D02*
X180320976Y-114153904D01*
X180549547Y-114153904D02*
X180549547Y-113353904D01*
X180473357Y-113468190D01*
X180397166Y-113544380D01*
X180320976Y-113582476D01*
X181235261Y-113696761D02*
X181159071Y-113658666D01*
X181120976Y-113620571D01*
X181082880Y-113544380D01*
X181082880Y-113506285D01*
X181120976Y-113430095D01*
X181159071Y-113392000D01*
X181235261Y-113353904D01*
X181387642Y-113353904D01*
X181463833Y-113392000D01*
X181501928Y-113430095D01*
X181540023Y-113506285D01*
X181540023Y-113544380D01*
X181501928Y-113620571D01*
X181463833Y-113658666D01*
X181387642Y-113696761D01*
X181235261Y-113696761D01*
X181159071Y-113734857D01*
X181120976Y-113772952D01*
X181082880Y-113849142D01*
X181082880Y-114001523D01*
X181120976Y-114077714D01*
X181159071Y-114115809D01*
X181235261Y-114153904D01*
X181387642Y-114153904D01*
X181463833Y-114115809D01*
X181501928Y-114077714D01*
X181540023Y-114001523D01*
X181540023Y-113849142D01*
X181501928Y-113772952D01*
X181463833Y-113734857D01*
X181387642Y-113696761D01*
X186734404Y-117735285D02*
X186353452Y-118001952D01*
X186734404Y-118192428D02*
X185934404Y-118192428D01*
X185934404Y-117887666D01*
X185972500Y-117811476D01*
X186010595Y-117773380D01*
X186086785Y-117735285D01*
X186201071Y-117735285D01*
X186277261Y-117773380D01*
X186315357Y-117811476D01*
X186353452Y-117887666D01*
X186353452Y-118192428D01*
X186734404Y-116973380D02*
X186734404Y-117430523D01*
X186734404Y-117201952D02*
X185934404Y-117201952D01*
X186048690Y-117278142D01*
X186124880Y-117354333D01*
X186162976Y-117430523D01*
X185934404Y-116706714D02*
X185934404Y-116173380D01*
X186734404Y-116516238D01*
X186688749Y-110877285D02*
X186307797Y-111143952D01*
X186688749Y-111334428D02*
X185888749Y-111334428D01*
X185888749Y-111029666D01*
X185926845Y-110953476D01*
X185964940Y-110915380D01*
X186041130Y-110877285D01*
X186155416Y-110877285D01*
X186231606Y-110915380D01*
X186269702Y-110953476D01*
X186307797Y-111029666D01*
X186307797Y-111334428D01*
X186688749Y-110115380D02*
X186688749Y-110572523D01*
X186688749Y-110343952D02*
X185888749Y-110343952D01*
X186003035Y-110420142D01*
X186079225Y-110496333D01*
X186117321Y-110572523D01*
X185888749Y-109391571D02*
X185888749Y-109772523D01*
X186269702Y-109810619D01*
X186231606Y-109772523D01*
X186193511Y-109696333D01*
X186193511Y-109505857D01*
X186231606Y-109429666D01*
X186269702Y-109391571D01*
X186345892Y-109353476D01*
X186536368Y-109353476D01*
X186612559Y-109391571D01*
X186650654Y-109429666D01*
X186688749Y-109505857D01*
X186688749Y-109696333D01*
X186650654Y-109772523D01*
X186612559Y-109810619D01*
X186688749Y-114306285D02*
X186307797Y-114572952D01*
X186688749Y-114763428D02*
X185888749Y-114763428D01*
X185888749Y-114458666D01*
X185926845Y-114382476D01*
X185964940Y-114344380D01*
X186041130Y-114306285D01*
X186155416Y-114306285D01*
X186231606Y-114344380D01*
X186269702Y-114382476D01*
X186307797Y-114458666D01*
X186307797Y-114763428D01*
X186688749Y-113544380D02*
X186688749Y-114001523D01*
X186688749Y-113772952D02*
X185888749Y-113772952D01*
X186003035Y-113849142D01*
X186079225Y-113925333D01*
X186117321Y-114001523D01*
X186155416Y-112858666D02*
X186688749Y-112858666D01*
X185850654Y-113049142D02*
X186422083Y-113239619D01*
X186422083Y-112744380D01*
X186688749Y-100653785D02*
X186307797Y-100920452D01*
X186688749Y-101110928D02*
X185888749Y-101110928D01*
X185888749Y-100806166D01*
X185926845Y-100729976D01*
X185964940Y-100691880D01*
X186041130Y-100653785D01*
X186155416Y-100653785D01*
X186231606Y-100691880D01*
X186269702Y-100729976D01*
X186307797Y-100806166D01*
X186307797Y-101110928D01*
X186688749Y-99891880D02*
X186688749Y-100349023D01*
X186688749Y-100120452D02*
X185888749Y-100120452D01*
X186003035Y-100196642D01*
X186079225Y-100272833D01*
X186117321Y-100349023D01*
X185888749Y-99396642D02*
X185888749Y-99320452D01*
X185926845Y-99244261D01*
X185964940Y-99206166D01*
X186041130Y-99168071D01*
X186193511Y-99129976D01*
X186383987Y-99129976D01*
X186536368Y-99168071D01*
X186612559Y-99206166D01*
X186650654Y-99244261D01*
X186688749Y-99320452D01*
X186688749Y-99396642D01*
X186650654Y-99472833D01*
X186612559Y-99510928D01*
X186536368Y-99549023D01*
X186383987Y-99587119D01*
X186193511Y-99587119D01*
X186041130Y-99549023D01*
X185964940Y-99510928D01*
X185926845Y-99472833D01*
X185888749Y-99396642D01*
X186688749Y-103574833D02*
X186307797Y-103841500D01*
X186688749Y-104031976D02*
X185888749Y-104031976D01*
X185888749Y-103727214D01*
X185926845Y-103651023D01*
X185964940Y-103612928D01*
X186041130Y-103574833D01*
X186155416Y-103574833D01*
X186231606Y-103612928D01*
X186269702Y-103651023D01*
X186307797Y-103727214D01*
X186307797Y-104031976D01*
X186688749Y-103193880D02*
X186688749Y-103041500D01*
X186650654Y-102965309D01*
X186612559Y-102927214D01*
X186498273Y-102851023D01*
X186345892Y-102812928D01*
X186041130Y-102812928D01*
X185964940Y-102851023D01*
X185926845Y-102889119D01*
X185888749Y-102965309D01*
X185888749Y-103117690D01*
X185926845Y-103193880D01*
X185964940Y-103231976D01*
X186041130Y-103270071D01*
X186231606Y-103270071D01*
X186307797Y-103231976D01*
X186345892Y-103193880D01*
X186383987Y-103117690D01*
X186383987Y-102965309D01*
X186345892Y-102889119D01*
X186307797Y-102851023D01*
X186231606Y-102812928D01*
X186688749Y-107067333D02*
X186307797Y-107334000D01*
X186688749Y-107524476D02*
X185888749Y-107524476D01*
X185888749Y-107219714D01*
X185926845Y-107143523D01*
X185964940Y-107105428D01*
X186041130Y-107067333D01*
X186155416Y-107067333D01*
X186231606Y-107105428D01*
X186269702Y-107143523D01*
X186307797Y-107219714D01*
X186307797Y-107524476D01*
X186231606Y-106610190D02*
X186193511Y-106686380D01*
X186155416Y-106724476D01*
X186079225Y-106762571D01*
X186041130Y-106762571D01*
X185964940Y-106724476D01*
X185926845Y-106686380D01*
X185888749Y-106610190D01*
X185888749Y-106457809D01*
X185926845Y-106381619D01*
X185964940Y-106343523D01*
X186041130Y-106305428D01*
X186079225Y-106305428D01*
X186155416Y-106343523D01*
X186193511Y-106381619D01*
X186231606Y-106457809D01*
X186231606Y-106610190D01*
X186269702Y-106686380D01*
X186307797Y-106724476D01*
X186383987Y-106762571D01*
X186536368Y-106762571D01*
X186612559Y-106724476D01*
X186650654Y-106686380D01*
X186688749Y-106610190D01*
X186688749Y-106457809D01*
X186650654Y-106381619D01*
X186612559Y-106343523D01*
X186536368Y-106305428D01*
X186383987Y-106305428D01*
X186307797Y-106343523D01*
X186269702Y-106381619D01*
X186231606Y-106457809D01*
X181476666Y-116821904D02*
X181210000Y-116440952D01*
X181019523Y-116821904D02*
X181019523Y-116021904D01*
X181324285Y-116021904D01*
X181400476Y-116060000D01*
X181438571Y-116098095D01*
X181476666Y-116174285D01*
X181476666Y-116288571D01*
X181438571Y-116364761D01*
X181400476Y-116402857D01*
X181324285Y-116440952D01*
X181019523Y-116440952D01*
X182162380Y-116288571D02*
X182162380Y-116821904D01*
X181971904Y-115983809D02*
X181781428Y-116555238D01*
X182276666Y-116555238D01*
X165284166Y-118408404D02*
X165017500Y-118027452D01*
X164827023Y-118408404D02*
X164827023Y-117608404D01*
X165131785Y-117608404D01*
X165207976Y-117646500D01*
X165246071Y-117684595D01*
X165284166Y-117760785D01*
X165284166Y-117875071D01*
X165246071Y-117951261D01*
X165207976Y-117989357D01*
X165131785Y-118027452D01*
X164827023Y-118027452D01*
X165550833Y-117608404D02*
X166046071Y-117608404D01*
X165779404Y-117913166D01*
X165893690Y-117913166D01*
X165969880Y-117951261D01*
X166007976Y-117989357D01*
X166046071Y-118065547D01*
X166046071Y-118256023D01*
X166007976Y-118332214D01*
X165969880Y-118370309D01*
X165893690Y-118408404D01*
X165665119Y-118408404D01*
X165588928Y-118370309D01*
X165550833Y-118332214D01*
X171316666Y-116821904D02*
X171050000Y-116440952D01*
X170859523Y-116821904D02*
X170859523Y-116021904D01*
X171164285Y-116021904D01*
X171240476Y-116060000D01*
X171278571Y-116098095D01*
X171316666Y-116174285D01*
X171316666Y-116288571D01*
X171278571Y-116364761D01*
X171240476Y-116402857D01*
X171164285Y-116440952D01*
X170859523Y-116440952D01*
X171621428Y-116098095D02*
X171659523Y-116060000D01*
X171735714Y-116021904D01*
X171926190Y-116021904D01*
X172002380Y-116060000D01*
X172040476Y-116098095D01*
X172078571Y-116174285D01*
X172078571Y-116250476D01*
X172040476Y-116364761D01*
X171583333Y-116821904D01*
X172078571Y-116821904D01*
X174806626Y-116849844D02*
X174539960Y-116468892D01*
X174349483Y-116849844D02*
X174349483Y-116049844D01*
X174654245Y-116049844D01*
X174730436Y-116087940D01*
X174768531Y-116126035D01*
X174806626Y-116202225D01*
X174806626Y-116316511D01*
X174768531Y-116392701D01*
X174730436Y-116430797D01*
X174654245Y-116468892D01*
X174349483Y-116468892D01*
X175568531Y-116849844D02*
X175111388Y-116849844D01*
X175339960Y-116849844D02*
X175339960Y-116049844D01*
X175263769Y-116164130D01*
X175187579Y-116240320D01*
X175111388Y-116278416D01*
X171856476Y-107067404D02*
X171856476Y-107715023D01*
X171894571Y-107791214D01*
X171932666Y-107829309D01*
X172008857Y-107867404D01*
X172161238Y-107867404D01*
X172237428Y-107829309D01*
X172275523Y-107791214D01*
X172313619Y-107715023D01*
X172313619Y-107067404D01*
X173113619Y-107867404D02*
X172656476Y-107867404D01*
X172885047Y-107867404D02*
X172885047Y-107067404D01*
X172808857Y-107181690D01*
X172732666Y-107257880D01*
X172656476Y-107295976D01*
X171647333Y-112769657D02*
X171761619Y-112807752D01*
X171799714Y-112845847D01*
X171837809Y-112922038D01*
X171837809Y-113036323D01*
X171799714Y-113112514D01*
X171761619Y-113150609D01*
X171685428Y-113188704D01*
X171380666Y-113188704D01*
X171380666Y-112388704D01*
X171647333Y-112388704D01*
X171723523Y-112426800D01*
X171761619Y-112464895D01*
X171799714Y-112541085D01*
X171799714Y-112617276D01*
X171761619Y-112693466D01*
X171723523Y-112731561D01*
X171647333Y-112769657D01*
X171380666Y-112769657D01*
X172714000Y-113264895D02*
X172637809Y-113226800D01*
X172561619Y-113150609D01*
X172447333Y-113036323D01*
X172371142Y-112998228D01*
X172294952Y-112998228D01*
X172333047Y-113188704D02*
X172256857Y-113150609D01*
X172180666Y-113074419D01*
X172142571Y-112922038D01*
X172142571Y-112655371D01*
X172180666Y-112502990D01*
X172256857Y-112426800D01*
X172333047Y-112388704D01*
X172485428Y-112388704D01*
X172561619Y-112426800D01*
X172637809Y-112502990D01*
X172675904Y-112655371D01*
X172675904Y-112922038D01*
X172637809Y-113074419D01*
X172561619Y-113150609D01*
X172485428Y-113188704D01*
X172333047Y-113188704D01*
X172980666Y-112464895D02*
X173018761Y-112426800D01*
X173094952Y-112388704D01*
X173285428Y-112388704D01*
X173361619Y-112426800D01*
X173399714Y-112464895D01*
X173437809Y-112541085D01*
X173437809Y-112617276D01*
X173399714Y-112731561D01*
X172942571Y-113188704D01*
X173437809Y-113188704D01*
X174161619Y-112388704D02*
X173780666Y-112388704D01*
X173742571Y-112769657D01*
X173780666Y-112731561D01*
X173856857Y-112693466D01*
X174047333Y-112693466D01*
X174123523Y-112731561D01*
X174161619Y-112769657D01*
X174199714Y-112845847D01*
X174199714Y-113036323D01*
X174161619Y-113112514D01*
X174123523Y-113150609D01*
X174047333Y-113188704D01*
X173856857Y-113188704D01*
X173780666Y-113150609D01*
X173742571Y-113112514D01*
X174923523Y-112388704D02*
X174542571Y-112388704D01*
X174504476Y-112769657D01*
X174542571Y-112731561D01*
X174618761Y-112693466D01*
X174809238Y-112693466D01*
X174885428Y-112731561D01*
X174923523Y-112769657D01*
X174961619Y-112845847D01*
X174961619Y-113036323D01*
X174923523Y-113112514D01*
X174885428Y-113150609D01*
X174809238Y-113188704D01*
X174618761Y-113188704D01*
X174542571Y-113150609D01*
X174504476Y-113112514D01*
X175456857Y-112388704D02*
X175533047Y-112388704D01*
X175609238Y-112426800D01*
X175647333Y-112464895D01*
X175685428Y-112541085D01*
X175723523Y-112693466D01*
X175723523Y-112883942D01*
X175685428Y-113036323D01*
X175647333Y-113112514D01*
X175609238Y-113150609D01*
X175533047Y-113188704D01*
X175456857Y-113188704D01*
X175380666Y-113150609D01*
X175342571Y-113112514D01*
X175304476Y-113036323D01*
X175266380Y-112883942D01*
X175266380Y-112693466D01*
X175304476Y-112541085D01*
X175342571Y-112464895D01*
X175380666Y-112426800D01*
X175456857Y-112388704D01*
X176447333Y-112388704D02*
X176066380Y-112388704D01*
X176028285Y-112769657D01*
X176066380Y-112731561D01*
X176142571Y-112693466D01*
X176333047Y-112693466D01*
X176409238Y-112731561D01*
X176447333Y-112769657D01*
X176485428Y-112845847D01*
X176485428Y-113036323D01*
X176447333Y-113112514D01*
X176409238Y-113150609D01*
X176333047Y-113188704D01*
X176142571Y-113188704D01*
X176066380Y-113150609D01*
X176028285Y-113112514D01*
X177285428Y-113188704D02*
X177018761Y-112807752D01*
X176828285Y-113188704D02*
X176828285Y-112388704D01*
X177133047Y-112388704D01*
X177209238Y-112426800D01*
X177247333Y-112464895D01*
X177285428Y-112541085D01*
X177285428Y-112655371D01*
X177247333Y-112731561D01*
X177209238Y-112769657D01*
X177133047Y-112807752D01*
X176828285Y-112807752D01*
X178047333Y-112426800D02*
X177971142Y-112388704D01*
X177856857Y-112388704D01*
X177742571Y-112426800D01*
X177666380Y-112502990D01*
X177628285Y-112579180D01*
X177590190Y-112731561D01*
X177590190Y-112845847D01*
X177628285Y-112998228D01*
X177666380Y-113074419D01*
X177742571Y-113150609D01*
X177856857Y-113188704D01*
X177933047Y-113188704D01*
X178047333Y-113150609D01*
X178085428Y-113112514D01*
X178085428Y-112845847D01*
X177933047Y-112845847D01*
X178885428Y-113188704D02*
X178618761Y-112807752D01*
X178428285Y-113188704D02*
X178428285Y-112388704D01*
X178733047Y-112388704D01*
X178809238Y-112426800D01*
X178847333Y-112464895D01*
X178885428Y-112541085D01*
X178885428Y-112655371D01*
X178847333Y-112731561D01*
X178809238Y-112769657D01*
X178733047Y-112807752D01*
X178428285Y-112807752D01*
X179685428Y-113188704D02*
X179418761Y-112807752D01*
X179228285Y-113188704D02*
X179228285Y-112388704D01*
X179533047Y-112388704D01*
X179609238Y-112426800D01*
X179647333Y-112464895D01*
X179685428Y-112541085D01*
X179685428Y-112655371D01*
X179647333Y-112731561D01*
X179609238Y-112769657D01*
X179533047Y-112807752D01*
X179228285Y-112807752D01*
X174866333Y-95129404D02*
X174866333Y-95700833D01*
X174828238Y-95815119D01*
X174752047Y-95891309D01*
X174637761Y-95929404D01*
X174561571Y-95929404D01*
X175590142Y-95129404D02*
X175437761Y-95129404D01*
X175361571Y-95167500D01*
X175323476Y-95205595D01*
X175247285Y-95319880D01*
X175209190Y-95472261D01*
X175209190Y-95777023D01*
X175247285Y-95853214D01*
X175285380Y-95891309D01*
X175361571Y-95929404D01*
X175513952Y-95929404D01*
X175590142Y-95891309D01*
X175628238Y-95853214D01*
X175666333Y-95777023D01*
X175666333Y-95586547D01*
X175628238Y-95510357D01*
X175590142Y-95472261D01*
X175513952Y-95434166D01*
X175361571Y-95434166D01*
X175285380Y-95472261D01*
X175247285Y-95510357D01*
X175209190Y-95586547D01*
X172269214Y-106089404D02*
X172002547Y-105708452D01*
X171812071Y-106089404D02*
X171812071Y-105289404D01*
X172116833Y-105289404D01*
X172193023Y-105327500D01*
X172231119Y-105365595D01*
X172269214Y-105441785D01*
X172269214Y-105556071D01*
X172231119Y-105632261D01*
X172193023Y-105670357D01*
X172116833Y-105708452D01*
X171812071Y-105708452D01*
X172573976Y-105365595D02*
X172612071Y-105327500D01*
X172688261Y-105289404D01*
X172878738Y-105289404D01*
X172954928Y-105327500D01*
X172993023Y-105365595D01*
X173031119Y-105441785D01*
X173031119Y-105517976D01*
X172993023Y-105632261D01*
X172535880Y-106089404D01*
X173031119Y-106089404D01*
X173488261Y-105632261D02*
X173412071Y-105594166D01*
X173373976Y-105556071D01*
X173335880Y-105479880D01*
X173335880Y-105441785D01*
X173373976Y-105365595D01*
X173412071Y-105327500D01*
X173488261Y-105289404D01*
X173640642Y-105289404D01*
X173716833Y-105327500D01*
X173754928Y-105365595D01*
X173793023Y-105441785D01*
X173793023Y-105479880D01*
X173754928Y-105556071D01*
X173716833Y-105594166D01*
X173640642Y-105632261D01*
X173488261Y-105632261D01*
X173412071Y-105670357D01*
X173373976Y-105708452D01*
X173335880Y-105784642D01*
X173335880Y-105937023D01*
X173373976Y-106013214D01*
X173412071Y-106051309D01*
X173488261Y-106089404D01*
X173640642Y-106089404D01*
X173716833Y-106051309D01*
X173754928Y-106013214D01*
X173793023Y-105937023D01*
X173793023Y-105784642D01*
X173754928Y-105708452D01*
X173716833Y-105670357D01*
X173640642Y-105632261D01*
X180079714Y-106152904D02*
X179813047Y-105771952D01*
X179622571Y-106152904D02*
X179622571Y-105352904D01*
X179927333Y-105352904D01*
X180003523Y-105391000D01*
X180041619Y-105429095D01*
X180079714Y-105505285D01*
X180079714Y-105619571D01*
X180041619Y-105695761D01*
X180003523Y-105733857D01*
X179927333Y-105771952D01*
X179622571Y-105771952D01*
X180384476Y-105429095D02*
X180422571Y-105391000D01*
X180498761Y-105352904D01*
X180689238Y-105352904D01*
X180765428Y-105391000D01*
X180803523Y-105429095D01*
X180841619Y-105505285D01*
X180841619Y-105581476D01*
X180803523Y-105695761D01*
X180346380Y-106152904D01*
X180841619Y-106152904D01*
X181527333Y-105352904D02*
X181374952Y-105352904D01*
X181298761Y-105391000D01*
X181260666Y-105429095D01*
X181184476Y-105543380D01*
X181146380Y-105695761D01*
X181146380Y-106000523D01*
X181184476Y-106076714D01*
X181222571Y-106114809D01*
X181298761Y-106152904D01*
X181451142Y-106152904D01*
X181527333Y-106114809D01*
X181565428Y-106076714D01*
X181603523Y-106000523D01*
X181603523Y-105810047D01*
X181565428Y-105733857D01*
X181527333Y-105695761D01*
X181451142Y-105657666D01*
X181298761Y-105657666D01*
X181222571Y-105695761D01*
X181184476Y-105733857D01*
X181146380Y-105810047D01*
X169983214Y-106089404D02*
X169716547Y-105708452D01*
X169526071Y-106089404D02*
X169526071Y-105289404D01*
X169830833Y-105289404D01*
X169907023Y-105327500D01*
X169945119Y-105365595D01*
X169983214Y-105441785D01*
X169983214Y-105556071D01*
X169945119Y-105632261D01*
X169907023Y-105670357D01*
X169830833Y-105708452D01*
X169526071Y-105708452D01*
X170287976Y-105365595D02*
X170326071Y-105327500D01*
X170402261Y-105289404D01*
X170592738Y-105289404D01*
X170668928Y-105327500D01*
X170707023Y-105365595D01*
X170745119Y-105441785D01*
X170745119Y-105517976D01*
X170707023Y-105632261D01*
X170249880Y-106089404D01*
X170745119Y-106089404D01*
X171011785Y-105289404D02*
X171545119Y-105289404D01*
X171202261Y-106089404D01*
X177857214Y-106152904D02*
X177590547Y-105771952D01*
X177400071Y-106152904D02*
X177400071Y-105352904D01*
X177704833Y-105352904D01*
X177781023Y-105391000D01*
X177819119Y-105429095D01*
X177857214Y-105505285D01*
X177857214Y-105619571D01*
X177819119Y-105695761D01*
X177781023Y-105733857D01*
X177704833Y-105771952D01*
X177400071Y-105771952D01*
X178161976Y-105429095D02*
X178200071Y-105391000D01*
X178276261Y-105352904D01*
X178466738Y-105352904D01*
X178542928Y-105391000D01*
X178581023Y-105429095D01*
X178619119Y-105505285D01*
X178619119Y-105581476D01*
X178581023Y-105695761D01*
X178123880Y-106152904D01*
X178619119Y-106152904D01*
X179342928Y-105352904D02*
X178961976Y-105352904D01*
X178923880Y-105733857D01*
X178961976Y-105695761D01*
X179038166Y-105657666D01*
X179228642Y-105657666D01*
X179304833Y-105695761D01*
X179342928Y-105733857D01*
X179381023Y-105810047D01*
X179381023Y-106000523D01*
X179342928Y-106076714D01*
X179304833Y-106114809D01*
X179228642Y-106152904D01*
X179038166Y-106152904D01*
X178961976Y-106114809D01*
X178923880Y-106076714D01*
X164522262Y-116185904D02*
X164255595Y-115804952D01*
X164065119Y-116185904D02*
X164065119Y-115385904D01*
X164369881Y-115385904D01*
X164446071Y-115424000D01*
X164484167Y-115462095D01*
X164522262Y-115538285D01*
X164522262Y-115652571D01*
X164484167Y-115728761D01*
X164446071Y-115766857D01*
X164369881Y-115804952D01*
X164065119Y-115804952D01*
X165284167Y-116185904D02*
X164827024Y-116185904D01*
X165055595Y-116185904D02*
X165055595Y-115385904D01*
X164979405Y-115500190D01*
X164903214Y-115576380D01*
X164827024Y-115614476D01*
X165969881Y-115385904D02*
X165817500Y-115385904D01*
X165741309Y-115424000D01*
X165703214Y-115462095D01*
X165627024Y-115576380D01*
X165588928Y-115728761D01*
X165588928Y-116033523D01*
X165627024Y-116109714D01*
X165665119Y-116147809D01*
X165741309Y-116185904D01*
X165893690Y-116185904D01*
X165969881Y-116147809D01*
X166007976Y-116109714D01*
X166046071Y-116033523D01*
X166046071Y-115843047D01*
X166007976Y-115766857D01*
X165969881Y-115728761D01*
X165893690Y-115690666D01*
X165741309Y-115690666D01*
X165665119Y-115728761D01*
X165627024Y-115766857D01*
X165588928Y-115843047D01*
X188010833Y-97224904D02*
X188010833Y-97796333D01*
X187972738Y-97910619D01*
X187896547Y-97986809D01*
X187782261Y-98024904D01*
X187706071Y-98024904D01*
X188429880Y-98024904D02*
X188582261Y-98024904D01*
X188658452Y-97986809D01*
X188696547Y-97948714D01*
X188772738Y-97834428D01*
X188810833Y-97682047D01*
X188810833Y-97377285D01*
X188772738Y-97301095D01*
X188734642Y-97263000D01*
X188658452Y-97224904D01*
X188506071Y-97224904D01*
X188429880Y-97263000D01*
X188391785Y-97301095D01*
X188353690Y-97377285D01*
X188353690Y-97567761D01*
X188391785Y-97643952D01*
X188429880Y-97682047D01*
X188506071Y-97720142D01*
X188658452Y-97720142D01*
X188734642Y-97682047D01*
X188772738Y-97643952D01*
X188810833Y-97567761D01*
X170859523Y-98024904D02*
X170859523Y-97224904D01*
X171050000Y-97224904D01*
X171164285Y-97263000D01*
X171240476Y-97339190D01*
X171278571Y-97415380D01*
X171316666Y-97567761D01*
X171316666Y-97682047D01*
X171278571Y-97834428D01*
X171240476Y-97910619D01*
X171164285Y-97986809D01*
X171050000Y-98024904D01*
X170859523Y-98024904D01*
X172002380Y-97491571D02*
X172002380Y-98024904D01*
X171811904Y-97186809D02*
X171621428Y-97758238D01*
X172116666Y-97758238D01*
X178860523Y-97961404D02*
X178860523Y-97161404D01*
X179051000Y-97161404D01*
X179165285Y-97199500D01*
X179241476Y-97275690D01*
X179279571Y-97351880D01*
X179317666Y-97504261D01*
X179317666Y-97618547D01*
X179279571Y-97770928D01*
X179241476Y-97847119D01*
X179165285Y-97923309D01*
X179051000Y-97961404D01*
X178860523Y-97961404D01*
X179584333Y-97161404D02*
X180079571Y-97161404D01*
X179812904Y-97466166D01*
X179927190Y-97466166D01*
X180003380Y-97504261D01*
X180041476Y-97542357D01*
X180079571Y-97618547D01*
X180079571Y-97809023D01*
X180041476Y-97885214D01*
X180003380Y-97923309D01*
X179927190Y-97961404D01*
X179698619Y-97961404D01*
X179622428Y-97923309D01*
X179584333Y-97885214D01*
X181844904Y-101542785D02*
X181463952Y-101809452D01*
X181844904Y-101999928D02*
X181044904Y-101999928D01*
X181044904Y-101695166D01*
X181083000Y-101618976D01*
X181121095Y-101580880D01*
X181197285Y-101542785D01*
X181311571Y-101542785D01*
X181387761Y-101580880D01*
X181425857Y-101618976D01*
X181463952Y-101695166D01*
X181463952Y-101999928D01*
X181844904Y-100780880D02*
X181844904Y-101238023D01*
X181844904Y-101009452D02*
X181044904Y-101009452D01*
X181159190Y-101085642D01*
X181235380Y-101161833D01*
X181273476Y-101238023D01*
X181044904Y-100514214D02*
X181044904Y-100018976D01*
X181349666Y-100285642D01*
X181349666Y-100171357D01*
X181387761Y-100095166D01*
X181425857Y-100057071D01*
X181502047Y-100018976D01*
X181692523Y-100018976D01*
X181768714Y-100057071D01*
X181806809Y-100095166D01*
X181844904Y-100171357D01*
X181844904Y-100399928D01*
X181806809Y-100476119D01*
X181768714Y-100514214D01*
X180143214Y-107422904D02*
X179876547Y-107041952D01*
X179686071Y-107422904D02*
X179686071Y-106622904D01*
X179990833Y-106622904D01*
X180067023Y-106661000D01*
X180105119Y-106699095D01*
X180143214Y-106775285D01*
X180143214Y-106889571D01*
X180105119Y-106965761D01*
X180067023Y-107003857D01*
X179990833Y-107041952D01*
X179686071Y-107041952D01*
X180905119Y-107422904D02*
X180447976Y-107422904D01*
X180676547Y-107422904D02*
X180676547Y-106622904D01*
X180600357Y-106737190D01*
X180524166Y-106813380D01*
X180447976Y-106851476D01*
X181209880Y-106699095D02*
X181247976Y-106661000D01*
X181324166Y-106622904D01*
X181514642Y-106622904D01*
X181590833Y-106661000D01*
X181628928Y-106699095D01*
X181667023Y-106775285D01*
X181667023Y-106851476D01*
X181628928Y-106965761D01*
X181171785Y-107422904D01*
X181667023Y-107422904D01*
X180206714Y-110597904D02*
X179940047Y-110216952D01*
X179749571Y-110597904D02*
X179749571Y-109797904D01*
X180054333Y-109797904D01*
X180130523Y-109836000D01*
X180168619Y-109874095D01*
X180206714Y-109950285D01*
X180206714Y-110064571D01*
X180168619Y-110140761D01*
X180130523Y-110178857D01*
X180054333Y-110216952D01*
X179749571Y-110216952D01*
X180968619Y-110597904D02*
X180511476Y-110597904D01*
X180740047Y-110597904D02*
X180740047Y-109797904D01*
X180663857Y-109912190D01*
X180587666Y-109988380D01*
X180511476Y-110026476D01*
X181730523Y-110597904D02*
X181273380Y-110597904D01*
X181501952Y-110597904D02*
X181501952Y-109797904D01*
X181425761Y-109912190D01*
X181349571Y-109988380D01*
X181273380Y-110026476D01*
X170605466Y-114890504D02*
X170338800Y-114509552D01*
X170148323Y-114890504D02*
X170148323Y-114090504D01*
X170453085Y-114090504D01*
X170529276Y-114128600D01*
X170567371Y-114166695D01*
X170605466Y-114242885D01*
X170605466Y-114357171D01*
X170567371Y-114433361D01*
X170529276Y-114471457D01*
X170453085Y-114509552D01*
X170148323Y-114509552D01*
X170872133Y-114090504D02*
X171405466Y-114090504D01*
X171062609Y-114890504D01*
X175685966Y-114890504D02*
X175419300Y-114509552D01*
X175228823Y-114890504D02*
X175228823Y-114090504D01*
X175533585Y-114090504D01*
X175609776Y-114128600D01*
X175647871Y-114166695D01*
X175685966Y-114242885D01*
X175685966Y-114357171D01*
X175647871Y-114433361D01*
X175609776Y-114471457D01*
X175533585Y-114509552D01*
X175228823Y-114509552D01*
X176371680Y-114090504D02*
X176219300Y-114090504D01*
X176143109Y-114128600D01*
X176105014Y-114166695D01*
X176028823Y-114280980D01*
X175990728Y-114433361D01*
X175990728Y-114738123D01*
X176028823Y-114814314D01*
X176066919Y-114852409D01*
X176143109Y-114890504D01*
X176295490Y-114890504D01*
X176371680Y-114852409D01*
X176409776Y-114814314D01*
X176447871Y-114738123D01*
X176447871Y-114547647D01*
X176409776Y-114471457D01*
X176371680Y-114433361D01*
X176295490Y-114395266D01*
X176143109Y-114395266D01*
X176066919Y-114433361D01*
X176028823Y-114471457D01*
X175990728Y-114547647D01*
X165360357Y-109581904D02*
X164979405Y-109581904D01*
X164979405Y-108781904D01*
X166046071Y-109581904D02*
X165588929Y-109581904D01*
X165817500Y-109581904D02*
X165817500Y-108781904D01*
X165741310Y-108896190D01*
X165665119Y-108972380D01*
X165588929Y-109010476D01*
X173374066Y-101250714D02*
X173335971Y-101288809D01*
X173221685Y-101326904D01*
X173145495Y-101326904D01*
X173031209Y-101288809D01*
X172955019Y-101212619D01*
X172916923Y-101136428D01*
X172878828Y-100984047D01*
X172878828Y-100869761D01*
X172916923Y-100717380D01*
X172955019Y-100641190D01*
X173031209Y-100565000D01*
X173145495Y-100526904D01*
X173221685Y-100526904D01*
X173335971Y-100565000D01*
X173374066Y-100603095D01*
X174059780Y-100526904D02*
X173907400Y-100526904D01*
X173831209Y-100565000D01*
X173793114Y-100603095D01*
X173716923Y-100717380D01*
X173678828Y-100869761D01*
X173678828Y-101174523D01*
X173716923Y-101250714D01*
X173755019Y-101288809D01*
X173831209Y-101326904D01*
X173983590Y-101326904D01*
X174059780Y-101288809D01*
X174097876Y-101250714D01*
X174135971Y-101174523D01*
X174135971Y-100984047D01*
X174097876Y-100907857D01*
X174059780Y-100869761D01*
X173983590Y-100831666D01*
X173831209Y-100831666D01*
X173755019Y-100869761D01*
X173716923Y-100907857D01*
X173678828Y-100984047D01*
X175380666Y-98456714D02*
X175342571Y-98494809D01*
X175228285Y-98532904D01*
X175152095Y-98532904D01*
X175037809Y-98494809D01*
X174961619Y-98418619D01*
X174923523Y-98342428D01*
X174885428Y-98190047D01*
X174885428Y-98075761D01*
X174923523Y-97923380D01*
X174961619Y-97847190D01*
X175037809Y-97771000D01*
X175152095Y-97732904D01*
X175228285Y-97732904D01*
X175342571Y-97771000D01*
X175380666Y-97809095D01*
X176104476Y-97732904D02*
X175723523Y-97732904D01*
X175685428Y-98113857D01*
X175723523Y-98075761D01*
X175799714Y-98037666D01*
X175990190Y-98037666D01*
X176066380Y-98075761D01*
X176104476Y-98113857D01*
X176142571Y-98190047D01*
X176142571Y-98380523D01*
X176104476Y-98456714D01*
X176066380Y-98494809D01*
X175990190Y-98532904D01*
X175799714Y-98532904D01*
X175723523Y-98494809D01*
X175685428Y-98456714D01*
X175380666Y-105949714D02*
X175342571Y-105987809D01*
X175228285Y-106025904D01*
X175152095Y-106025904D01*
X175037809Y-105987809D01*
X174961619Y-105911619D01*
X174923523Y-105835428D01*
X174885428Y-105683047D01*
X174885428Y-105568761D01*
X174923523Y-105416380D01*
X174961619Y-105340190D01*
X175037809Y-105264000D01*
X175152095Y-105225904D01*
X175228285Y-105225904D01*
X175342571Y-105264000D01*
X175380666Y-105302095D01*
X176066380Y-105492571D02*
X176066380Y-106025904D01*
X175875904Y-105187809D02*
X175685428Y-105759238D01*
X176180666Y-105759238D01*
X165284166Y-112045714D02*
X165246071Y-112083809D01*
X165131785Y-112121904D01*
X165055595Y-112121904D01*
X164941309Y-112083809D01*
X164865119Y-112007619D01*
X164827023Y-111931428D01*
X164788928Y-111779047D01*
X164788928Y-111664761D01*
X164827023Y-111512380D01*
X164865119Y-111436190D01*
X164941309Y-111360000D01*
X165055595Y-111321904D01*
X165131785Y-111321904D01*
X165246071Y-111360000D01*
X165284166Y-111398095D01*
X166046071Y-112121904D02*
X165588928Y-112121904D01*
X165817500Y-112121904D02*
X165817500Y-111321904D01*
X165741309Y-111436190D01*
X165665119Y-111512380D01*
X165588928Y-111550476D01*
X165284166Y-114204714D02*
X165246071Y-114242809D01*
X165131785Y-114280904D01*
X165055595Y-114280904D01*
X164941309Y-114242809D01*
X164865119Y-114166619D01*
X164827023Y-114090428D01*
X164788928Y-113938047D01*
X164788928Y-113823761D01*
X164827023Y-113671380D01*
X164865119Y-113595190D01*
X164941309Y-113519000D01*
X165055595Y-113480904D01*
X165131785Y-113480904D01*
X165246071Y-113519000D01*
X165284166Y-113557095D01*
X165588928Y-113557095D02*
X165627023Y-113519000D01*
X165703214Y-113480904D01*
X165893690Y-113480904D01*
X165969880Y-113519000D01*
X166007976Y-113557095D01*
X166046071Y-113633285D01*
X166046071Y-113709476D01*
X166007976Y-113823761D01*
X165550833Y-114280904D01*
X166046071Y-114280904D01*
%LPC*%
D12*
G36*
X174425500Y-108385500D02*
G01*
X176602500Y-108385500D01*
X176602500Y-108880300D01*
X174425500Y-108880300D01*
X174425500Y-108385500D01*
G37*
X174425500Y-108385500D02*
X176602500Y-108385500D01*
X176602500Y-108880300D01*
X174425500Y-108880300D01*
X174425500Y-108385500D01*
G36*
X174425500Y-109280300D02*
G01*
X176602500Y-109280300D01*
X176602500Y-109667700D01*
X174425500Y-109667700D01*
X174425500Y-109280300D01*
G37*
X174425500Y-109280300D02*
X176602500Y-109280300D01*
X176602500Y-109667700D01*
X174425500Y-109667700D01*
X174425500Y-109280300D01*
G36*
X174425500Y-110067700D02*
G01*
X176602500Y-110067700D01*
X176602500Y-110562500D01*
X174425500Y-110562500D01*
X174425500Y-110067700D01*
G37*
X174425500Y-110067700D02*
X176602500Y-110067700D01*
X176602500Y-110562500D01*
X174425500Y-110562500D01*
X174425500Y-110067700D01*
G36*
X174425500Y-108385500D02*
G01*
X174920300Y-108385500D01*
X174920300Y-110562500D01*
X174425500Y-110562500D01*
X174425500Y-108385500D01*
G37*
X174425500Y-108385500D02*
X174920300Y-108385500D01*
X174920300Y-110562500D01*
X174425500Y-110562500D01*
X174425500Y-108385500D01*
G36*
X175707700Y-108385500D02*
G01*
X175320300Y-108385500D01*
X175320300Y-110562500D01*
X175707700Y-110562500D01*
X175707700Y-108385500D01*
G37*
X175707700Y-108385500D02*
X175320300Y-108385500D01*
X175320300Y-110562500D01*
X175707700Y-110562500D01*
X175707700Y-108385500D01*
G36*
X176107700Y-108385500D02*
G01*
X176602500Y-108385500D01*
X176602500Y-110562500D01*
X176107700Y-110562500D01*
X176107700Y-108385500D01*
G37*
X176107700Y-108385500D02*
X176602500Y-108385500D01*
X176602500Y-110562500D01*
X176107700Y-110562500D01*
X176107700Y-108385500D01*
D14*
X191008000Y-124460000D03*
X156972000Y-124460000D03*
X191008000Y-89408000D03*
X156972000Y-89408000D03*
D15*
X183896000Y-121158000D03*
X181356000Y-121158000D03*
G36*
G01*
X179666000Y-122059000D02*
X177966000Y-122059000D01*
G75*
G02*
X177915000Y-122008000I0J51000D01*
G01*
X177915000Y-120308000D01*
G75*
G02*
X177966000Y-120257000I51000J0D01*
G01*
X179666000Y-120257000D01*
G75*
G02*
X179717000Y-120308000I0J-51000D01*
G01*
X179717000Y-122008000D01*
G75*
G02*
X179666000Y-122059000I-51000J0D01*
G01*
G37*
D16*
X158496000Y-113944400D03*
G36*
G01*
X159996000Y-120575400D02*
X156996000Y-120575400D01*
G75*
G02*
X156945000Y-120524400I0J51000D01*
G01*
X156945000Y-117524400D01*
G75*
G02*
X156996000Y-117473400I51000J0D01*
G01*
X159996000Y-117473400D01*
G75*
G02*
X160047000Y-117524400I0J-51000D01*
G01*
X160047000Y-120524400D01*
G75*
G02*
X159996000Y-120575400I-51000J0D01*
G01*
G37*
D14*
X158496000Y-99720400D03*
X158496000Y-104800400D03*
D15*
X172974000Y-121158000D03*
X170434000Y-121158000D03*
G36*
G01*
X168744000Y-122059000D02*
X167044000Y-122059000D01*
G75*
G02*
X166993000Y-122008000I0J51000D01*
G01*
X166993000Y-120308000D01*
G75*
G02*
X167044000Y-120257000I51000J0D01*
G01*
X168744000Y-120257000D01*
G75*
G02*
X168795000Y-120308000I0J-51000D01*
G01*
X168795000Y-122008000D01*
G75*
G02*
X168744000Y-122059000I-51000J0D01*
G01*
G37*
X179425600Y-93675200D03*
G36*
G01*
X181115600Y-92774200D02*
X182815600Y-92774200D01*
G75*
G02*
X182866600Y-92825200I0J-51000D01*
G01*
X182866600Y-94525200D01*
G75*
G02*
X182815600Y-94576200I-51000J0D01*
G01*
X181115600Y-94576200D01*
G75*
G02*
X181064600Y-94525200I0J51000D01*
G01*
X181064600Y-92825200D01*
G75*
G02*
X181115600Y-92774200I51000J0D01*
G01*
G37*
G36*
G01*
X183126500Y-99677000D02*
X182125500Y-99677000D01*
G75*
G02*
X181850000Y-99401500I0J275500D01*
G01*
X181850000Y-98850500D01*
G75*
G02*
X182125500Y-98575000I275500J0D01*
G01*
X183126500Y-98575000D01*
G75*
G02*
X183402000Y-98850500I0J-275500D01*
G01*
X183402000Y-99401500D01*
G75*
G02*
X183126500Y-99677000I-275500J0D01*
G01*
G37*
G36*
G01*
X183126500Y-101577000D02*
X182125500Y-101577000D01*
G75*
G02*
X181850000Y-101301500I0J275500D01*
G01*
X181850000Y-100750500D01*
G75*
G02*
X182125500Y-100475000I275500J0D01*
G01*
X183126500Y-100475000D01*
G75*
G02*
X183402000Y-100750500I0J-275500D01*
G01*
X183402000Y-101301500D01*
G75*
G02*
X183126500Y-101577000I-275500J0D01*
G01*
G37*
X188252100Y-109410500D03*
X188252100Y-111950500D03*
G36*
G01*
X189153100Y-113640500D02*
X189153100Y-115340500D01*
G75*
G02*
X189102100Y-115391500I-51000J0D01*
G01*
X187402100Y-115391500D01*
G75*
G02*
X187351100Y-115340500I0J51000D01*
G01*
X187351100Y-113640500D01*
G75*
G02*
X187402100Y-113589500I51000J0D01*
G01*
X189102100Y-113589500D01*
G75*
G02*
X189153100Y-113640500I0J-51000D01*
G01*
G37*
G36*
G01*
X178682000Y-118410500D02*
X178682000Y-117809500D01*
G75*
G02*
X178907500Y-117584000I225500J0D01*
G01*
X179358500Y-117584000D01*
G75*
G02*
X179584000Y-117809500I0J-225500D01*
G01*
X179584000Y-118410500D01*
G75*
G02*
X179358500Y-118636000I-225500J0D01*
G01*
X178907500Y-118636000D01*
G75*
G02*
X178682000Y-118410500I0J225500D01*
G01*
G37*
G36*
G01*
X177032000Y-118410500D02*
X177032000Y-117809500D01*
G75*
G02*
X177257500Y-117584000I225500J0D01*
G01*
X177708500Y-117584000D01*
G75*
G02*
X177934000Y-117809500I0J-225500D01*
G01*
X177934000Y-118410500D01*
G75*
G02*
X177708500Y-118636000I-225500J0D01*
G01*
X177257500Y-118636000D01*
G75*
G02*
X177032000Y-118410500I0J225500D01*
G01*
G37*
G36*
G01*
X167695375Y-97861500D02*
X168647625Y-97861500D01*
G75*
G02*
X168922500Y-98136375I0J-274875D01*
G01*
X168922500Y-98713625D01*
G75*
G02*
X168647625Y-98988500I-274875J0D01*
G01*
X167695375Y-98988500D01*
G75*
G02*
X167420500Y-98713625I0J274875D01*
G01*
X167420500Y-98136375D01*
G75*
G02*
X167695375Y-97861500I274875J0D01*
G01*
G37*
G36*
G01*
X167695375Y-99686500D02*
X168647625Y-99686500D01*
G75*
G02*
X168922500Y-99961375I0J-274875D01*
G01*
X168922500Y-100538625D01*
G75*
G02*
X168647625Y-100813500I-274875J0D01*
G01*
X167695375Y-100813500D01*
G75*
G02*
X167420500Y-100538625I0J274875D01*
G01*
X167420500Y-99961375D01*
G75*
G02*
X167695375Y-99686500I274875J0D01*
G01*
G37*
G36*
G01*
X167695375Y-101434000D02*
X168647625Y-101434000D01*
G75*
G02*
X168922500Y-101708875I0J-274875D01*
G01*
X168922500Y-102286125D01*
G75*
G02*
X168647625Y-102561000I-274875J0D01*
G01*
X167695375Y-102561000D01*
G75*
G02*
X167420500Y-102286125I0J274875D01*
G01*
X167420500Y-101708875D01*
G75*
G02*
X167695375Y-101434000I274875J0D01*
G01*
G37*
G36*
G01*
X167695375Y-103259000D02*
X168647625Y-103259000D01*
G75*
G02*
X168922500Y-103533875I0J-274875D01*
G01*
X168922500Y-104111125D01*
G75*
G02*
X168647625Y-104386000I-274875J0D01*
G01*
X167695375Y-104386000D01*
G75*
G02*
X167420500Y-104111125I0J274875D01*
G01*
X167420500Y-103533875D01*
G75*
G02*
X167695375Y-103259000I274875J0D01*
G01*
G37*
G36*
G01*
X167695375Y-105013500D02*
X168647625Y-105013500D01*
G75*
G02*
X168922500Y-105288375I0J-274875D01*
G01*
X168922500Y-105865625D01*
G75*
G02*
X168647625Y-106140500I-274875J0D01*
G01*
X167695375Y-106140500D01*
G75*
G02*
X167420500Y-105865625I0J274875D01*
G01*
X167420500Y-105288375D01*
G75*
G02*
X167695375Y-105013500I274875J0D01*
G01*
G37*
G36*
G01*
X167695375Y-106838500D02*
X168647625Y-106838500D01*
G75*
G02*
X168922500Y-107113375I0J-274875D01*
G01*
X168922500Y-107690625D01*
G75*
G02*
X168647625Y-107965500I-274875J0D01*
G01*
X167695375Y-107965500D01*
G75*
G02*
X167420500Y-107690625I0J274875D01*
G01*
X167420500Y-107113375D01*
G75*
G02*
X167695375Y-106838500I274875J0D01*
G01*
G37*
G36*
G01*
X166006000Y-98061500D02*
X166607000Y-98061500D01*
G75*
G02*
X166832500Y-98287000I0J-225500D01*
G01*
X166832500Y-98738000D01*
G75*
G02*
X166607000Y-98963500I-225500J0D01*
G01*
X166006000Y-98963500D01*
G75*
G02*
X165780500Y-98738000I0J225500D01*
G01*
X165780500Y-98287000D01*
G75*
G02*
X166006000Y-98061500I225500J0D01*
G01*
G37*
G36*
G01*
X166006000Y-99711500D02*
X166607000Y-99711500D01*
G75*
G02*
X166832500Y-99937000I0J-225500D01*
G01*
X166832500Y-100388000D01*
G75*
G02*
X166607000Y-100613500I-225500J0D01*
G01*
X166006000Y-100613500D01*
G75*
G02*
X165780500Y-100388000I0J225500D01*
G01*
X165780500Y-99937000D01*
G75*
G02*
X166006000Y-99711500I225500J0D01*
G01*
G37*
G36*
G01*
X166006000Y-101634000D02*
X166607000Y-101634000D01*
G75*
G02*
X166832500Y-101859500I0J-225500D01*
G01*
X166832500Y-102310500D01*
G75*
G02*
X166607000Y-102536000I-225500J0D01*
G01*
X166006000Y-102536000D01*
G75*
G02*
X165780500Y-102310500I0J225500D01*
G01*
X165780500Y-101859500D01*
G75*
G02*
X166006000Y-101634000I225500J0D01*
G01*
G37*
G36*
G01*
X166006000Y-103284000D02*
X166607000Y-103284000D01*
G75*
G02*
X166832500Y-103509500I0J-225500D01*
G01*
X166832500Y-103960500D01*
G75*
G02*
X166607000Y-104186000I-225500J0D01*
G01*
X166006000Y-104186000D01*
G75*
G02*
X165780500Y-103960500I0J225500D01*
G01*
X165780500Y-103509500D01*
G75*
G02*
X166006000Y-103284000I225500J0D01*
G01*
G37*
G36*
G01*
X166006000Y-105213500D02*
X166607000Y-105213500D01*
G75*
G02*
X166832500Y-105439000I0J-225500D01*
G01*
X166832500Y-105890000D01*
G75*
G02*
X166607000Y-106115500I-225500J0D01*
G01*
X166006000Y-106115500D01*
G75*
G02*
X165780500Y-105890000I0J225500D01*
G01*
X165780500Y-105439000D01*
G75*
G02*
X166006000Y-105213500I225500J0D01*
G01*
G37*
G36*
G01*
X166006000Y-106863500D02*
X166607000Y-106863500D01*
G75*
G02*
X166832500Y-107089000I0J-225500D01*
G01*
X166832500Y-107540000D01*
G75*
G02*
X166607000Y-107765500I-225500J0D01*
G01*
X166006000Y-107765500D01*
G75*
G02*
X165780500Y-107540000I0J225500D01*
G01*
X165780500Y-107089000D01*
G75*
G02*
X166006000Y-106863500I225500J0D01*
G01*
G37*
X163525200Y-93675200D03*
G36*
G01*
X165215200Y-92774200D02*
X166915200Y-92774200D01*
G75*
G02*
X166966200Y-92825200I0J-51000D01*
G01*
X166966200Y-94525200D01*
G75*
G02*
X166915200Y-94576200I-51000J0D01*
G01*
X165215200Y-94576200D01*
G75*
G02*
X165164200Y-94525200I0J51000D01*
G01*
X165164200Y-92825200D01*
G75*
G02*
X165215200Y-92774200I51000J0D01*
G01*
G37*
X157226000Y-93675200D03*
G36*
G01*
X158916000Y-92774200D02*
X160616000Y-92774200D01*
G75*
G02*
X160667000Y-92825200I0J-51000D01*
G01*
X160667000Y-94525200D01*
G75*
G02*
X160616000Y-94576200I-51000J0D01*
G01*
X158916000Y-94576200D01*
G75*
G02*
X158865000Y-94525200I0J51000D01*
G01*
X158865000Y-92825200D01*
G75*
G02*
X158916000Y-92774200I51000J0D01*
G01*
G37*
G36*
G01*
X163127800Y-99307700D02*
X163127800Y-100107700D01*
G75*
G02*
X163076800Y-100158700I-51000J0D01*
G01*
X162176800Y-100158700D01*
G75*
G02*
X162125800Y-100107700I0J51000D01*
G01*
X162125800Y-99307700D01*
G75*
G02*
X162176800Y-99256700I51000J0D01*
G01*
X163076800Y-99256700D01*
G75*
G02*
X163127800Y-99307700I0J-51000D01*
G01*
G37*
G36*
G01*
X165127800Y-98357700D02*
X165127800Y-99157700D01*
G75*
G02*
X165076800Y-99208700I-51000J0D01*
G01*
X164176800Y-99208700D01*
G75*
G02*
X164125800Y-99157700I0J51000D01*
G01*
X164125800Y-98357700D01*
G75*
G02*
X164176800Y-98306700I51000J0D01*
G01*
X165076800Y-98306700D01*
G75*
G02*
X165127800Y-98357700I0J-51000D01*
G01*
G37*
G36*
G01*
X165127800Y-100257700D02*
X165127800Y-101057700D01*
G75*
G02*
X165076800Y-101108700I-51000J0D01*
G01*
X164176800Y-101108700D01*
G75*
G02*
X164125800Y-101057700I0J51000D01*
G01*
X164125800Y-100257700D01*
G75*
G02*
X164176800Y-100206700I51000J0D01*
G01*
X165076800Y-100206700D01*
G75*
G02*
X165127800Y-100257700I0J-51000D01*
G01*
G37*
G36*
G01*
X163127800Y-104324200D02*
X163127800Y-105124200D01*
G75*
G02*
X163076800Y-105175200I-51000J0D01*
G01*
X162176800Y-105175200D01*
G75*
G02*
X162125800Y-105124200I0J51000D01*
G01*
X162125800Y-104324200D01*
G75*
G02*
X162176800Y-104273200I51000J0D01*
G01*
X163076800Y-104273200D01*
G75*
G02*
X163127800Y-104324200I0J-51000D01*
G01*
G37*
G36*
G01*
X165127800Y-103374200D02*
X165127800Y-104174200D01*
G75*
G02*
X165076800Y-104225200I-51000J0D01*
G01*
X164176800Y-104225200D01*
G75*
G02*
X164125800Y-104174200I0J51000D01*
G01*
X164125800Y-103374200D01*
G75*
G02*
X164176800Y-103323200I51000J0D01*
G01*
X165076800Y-103323200D01*
G75*
G02*
X165127800Y-103374200I0J-51000D01*
G01*
G37*
G36*
G01*
X165127800Y-105274200D02*
X165127800Y-106074200D01*
G75*
G02*
X165076800Y-106125200I-51000J0D01*
G01*
X164176800Y-106125200D01*
G75*
G02*
X164125800Y-106074200I0J51000D01*
G01*
X164125800Y-105274200D01*
G75*
G02*
X164176800Y-105223200I51000J0D01*
G01*
X165076800Y-105223200D01*
G75*
G02*
X165127800Y-105274200I0J-51000D01*
G01*
G37*
X185724800Y-93675200D03*
G36*
G01*
X187414800Y-92774200D02*
X189114800Y-92774200D01*
G75*
G02*
X189165800Y-92825200I0J-51000D01*
G01*
X189165800Y-94525200D01*
G75*
G02*
X189114800Y-94576200I-51000J0D01*
G01*
X187414800Y-94576200D01*
G75*
G02*
X187363800Y-94525200I0J51000D01*
G01*
X187363800Y-92825200D01*
G75*
G02*
X187414800Y-92774200I51000J0D01*
G01*
G37*
G36*
G01*
X183102125Y-113443000D02*
X182149875Y-113443000D01*
G75*
G02*
X181875000Y-113168125I0J274875D01*
G01*
X181875000Y-112590875D01*
G75*
G02*
X182149875Y-112316000I274875J0D01*
G01*
X183102125Y-112316000D01*
G75*
G02*
X183377000Y-112590875I0J-274875D01*
G01*
X183377000Y-113168125D01*
G75*
G02*
X183102125Y-113443000I-274875J0D01*
G01*
G37*
G36*
G01*
X183102125Y-115268000D02*
X182149875Y-115268000D01*
G75*
G02*
X181875000Y-114993125I0J274875D01*
G01*
X181875000Y-114415875D01*
G75*
G02*
X182149875Y-114141000I274875J0D01*
G01*
X183102125Y-114141000D01*
G75*
G02*
X183377000Y-114415875I0J-274875D01*
G01*
X183377000Y-114993125D01*
G75*
G02*
X183102125Y-115268000I-274875J0D01*
G01*
G37*
G36*
G01*
X184308875Y-117570000D02*
X185261125Y-117570000D01*
G75*
G02*
X185536000Y-117844875I0J-274875D01*
G01*
X185536000Y-118422125D01*
G75*
G02*
X185261125Y-118697000I-274875J0D01*
G01*
X184308875Y-118697000D01*
G75*
G02*
X184034000Y-118422125I0J274875D01*
G01*
X184034000Y-117844875D01*
G75*
G02*
X184308875Y-117570000I274875J0D01*
G01*
G37*
G36*
G01*
X184308875Y-115745000D02*
X185261125Y-115745000D01*
G75*
G02*
X185536000Y-116019875I0J-274875D01*
G01*
X185536000Y-116597125D01*
G75*
G02*
X185261125Y-116872000I-274875J0D01*
G01*
X184308875Y-116872000D01*
G75*
G02*
X184034000Y-116597125I0J274875D01*
G01*
X184034000Y-116019875D01*
G75*
G02*
X184308875Y-115745000I274875J0D01*
G01*
G37*
G36*
G01*
X184308875Y-110712000D02*
X185261125Y-110712000D01*
G75*
G02*
X185536000Y-110986875I0J-274875D01*
G01*
X185536000Y-111564125D01*
G75*
G02*
X185261125Y-111839000I-274875J0D01*
G01*
X184308875Y-111839000D01*
G75*
G02*
X184034000Y-111564125I0J274875D01*
G01*
X184034000Y-110986875D01*
G75*
G02*
X184308875Y-110712000I274875J0D01*
G01*
G37*
G36*
G01*
X184308875Y-108887000D02*
X185261125Y-108887000D01*
G75*
G02*
X185536000Y-109161875I0J-274875D01*
G01*
X185536000Y-109739125D01*
G75*
G02*
X185261125Y-110014000I-274875J0D01*
G01*
X184308875Y-110014000D01*
G75*
G02*
X184034000Y-109739125I0J274875D01*
G01*
X184034000Y-109161875D01*
G75*
G02*
X184308875Y-108887000I274875J0D01*
G01*
G37*
G36*
G01*
X184308875Y-114141000D02*
X185261125Y-114141000D01*
G75*
G02*
X185536000Y-114415875I0J-274875D01*
G01*
X185536000Y-114993125D01*
G75*
G02*
X185261125Y-115268000I-274875J0D01*
G01*
X184308875Y-115268000D01*
G75*
G02*
X184034000Y-114993125I0J274875D01*
G01*
X184034000Y-114415875D01*
G75*
G02*
X184308875Y-114141000I274875J0D01*
G01*
G37*
G36*
G01*
X184308875Y-112316000D02*
X185261125Y-112316000D01*
G75*
G02*
X185536000Y-112590875I0J-274875D01*
G01*
X185536000Y-113168125D01*
G75*
G02*
X185261125Y-113443000I-274875J0D01*
G01*
X184308875Y-113443000D01*
G75*
G02*
X184034000Y-113168125I0J274875D01*
G01*
X184034000Y-112590875D01*
G75*
G02*
X184308875Y-112316000I274875J0D01*
G01*
G37*
G36*
G01*
X184308875Y-100425000D02*
X185261125Y-100425000D01*
G75*
G02*
X185536000Y-100699875I0J-274875D01*
G01*
X185536000Y-101277125D01*
G75*
G02*
X185261125Y-101552000I-274875J0D01*
G01*
X184308875Y-101552000D01*
G75*
G02*
X184034000Y-101277125I0J274875D01*
G01*
X184034000Y-100699875D01*
G75*
G02*
X184308875Y-100425000I274875J0D01*
G01*
G37*
G36*
G01*
X184308875Y-98600000D02*
X185261125Y-98600000D01*
G75*
G02*
X185536000Y-98874875I0J-274875D01*
G01*
X185536000Y-99452125D01*
G75*
G02*
X185261125Y-99727000I-274875J0D01*
G01*
X184308875Y-99727000D01*
G75*
G02*
X184034000Y-99452125I0J274875D01*
G01*
X184034000Y-98874875D01*
G75*
G02*
X184308875Y-98600000I274875J0D01*
G01*
G37*
G36*
G01*
X184308875Y-103854000D02*
X185261125Y-103854000D01*
G75*
G02*
X185536000Y-104128875I0J-274875D01*
G01*
X185536000Y-104706125D01*
G75*
G02*
X185261125Y-104981000I-274875J0D01*
G01*
X184308875Y-104981000D01*
G75*
G02*
X184034000Y-104706125I0J274875D01*
G01*
X184034000Y-104128875D01*
G75*
G02*
X184308875Y-103854000I274875J0D01*
G01*
G37*
G36*
G01*
X184308875Y-102029000D02*
X185261125Y-102029000D01*
G75*
G02*
X185536000Y-102303875I0J-274875D01*
G01*
X185536000Y-102881125D01*
G75*
G02*
X185261125Y-103156000I-274875J0D01*
G01*
X184308875Y-103156000D01*
G75*
G02*
X184034000Y-102881125I0J274875D01*
G01*
X184034000Y-102303875D01*
G75*
G02*
X184308875Y-102029000I274875J0D01*
G01*
G37*
G36*
G01*
X184308875Y-107283000D02*
X185261125Y-107283000D01*
G75*
G02*
X185536000Y-107557875I0J-274875D01*
G01*
X185536000Y-108135125D01*
G75*
G02*
X185261125Y-108410000I-274875J0D01*
G01*
X184308875Y-108410000D01*
G75*
G02*
X184034000Y-108135125I0J274875D01*
G01*
X184034000Y-107557875D01*
G75*
G02*
X184308875Y-107283000I274875J0D01*
G01*
G37*
G36*
G01*
X184308875Y-105458000D02*
X185261125Y-105458000D01*
G75*
G02*
X185536000Y-105732875I0J-274875D01*
G01*
X185536000Y-106310125D01*
G75*
G02*
X185261125Y-106585000I-274875J0D01*
G01*
X184308875Y-106585000D01*
G75*
G02*
X184034000Y-106310125I0J274875D01*
G01*
X184034000Y-105732875D01*
G75*
G02*
X184308875Y-105458000I274875J0D01*
G01*
G37*
G36*
G01*
X181959000Y-118586125D02*
X181959000Y-117633875D01*
G75*
G02*
X182233875Y-117359000I274875J0D01*
G01*
X182811125Y-117359000D01*
G75*
G02*
X183086000Y-117633875I0J-274875D01*
G01*
X183086000Y-118586125D01*
G75*
G02*
X182811125Y-118861000I-274875J0D01*
G01*
X182233875Y-118861000D01*
G75*
G02*
X181959000Y-118586125I0J274875D01*
G01*
G37*
G36*
G01*
X180134000Y-118586125D02*
X180134000Y-117633875D01*
G75*
G02*
X180408875Y-117359000I274875J0D01*
G01*
X180986125Y-117359000D01*
G75*
G02*
X181261000Y-117633875I0J-274875D01*
G01*
X181261000Y-118586125D01*
G75*
G02*
X180986125Y-118861000I-274875J0D01*
G01*
X180408875Y-118861000D01*
G75*
G02*
X180134000Y-118586125I0J274875D01*
G01*
G37*
G36*
G01*
X168243000Y-118586125D02*
X168243000Y-117633875D01*
G75*
G02*
X168517875Y-117359000I274875J0D01*
G01*
X169095125Y-117359000D01*
G75*
G02*
X169370000Y-117633875I0J-274875D01*
G01*
X169370000Y-118586125D01*
G75*
G02*
X169095125Y-118861000I-274875J0D01*
G01*
X168517875Y-118861000D01*
G75*
G02*
X168243000Y-118586125I0J274875D01*
G01*
G37*
G36*
G01*
X166418000Y-118586125D02*
X166418000Y-117633875D01*
G75*
G02*
X166692875Y-117359000I274875J0D01*
G01*
X167270125Y-117359000D01*
G75*
G02*
X167545000Y-117633875I0J-274875D01*
G01*
X167545000Y-118586125D01*
G75*
G02*
X167270125Y-118861000I-274875J0D01*
G01*
X166692875Y-118861000D01*
G75*
G02*
X166418000Y-118586125I0J274875D01*
G01*
G37*
G36*
G01*
X171799000Y-118586125D02*
X171799000Y-117633875D01*
G75*
G02*
X172073875Y-117359000I274875J0D01*
G01*
X172651125Y-117359000D01*
G75*
G02*
X172926000Y-117633875I0J-274875D01*
G01*
X172926000Y-118586125D01*
G75*
G02*
X172651125Y-118861000I-274875J0D01*
G01*
X172073875Y-118861000D01*
G75*
G02*
X171799000Y-118586125I0J274875D01*
G01*
G37*
G36*
G01*
X169974000Y-118586125D02*
X169974000Y-117633875D01*
G75*
G02*
X170248875Y-117359000I274875J0D01*
G01*
X170826125Y-117359000D01*
G75*
G02*
X171101000Y-117633875I0J-274875D01*
G01*
X171101000Y-118586125D01*
G75*
G02*
X170826125Y-118861000I-274875J0D01*
G01*
X170248875Y-118861000D01*
G75*
G02*
X169974000Y-118586125I0J274875D01*
G01*
G37*
G36*
G01*
X175288960Y-118614065D02*
X175288960Y-117661815D01*
G75*
G02*
X175563835Y-117386940I274875J0D01*
G01*
X176141085Y-117386940D01*
G75*
G02*
X176415960Y-117661815I0J-274875D01*
G01*
X176415960Y-118614065D01*
G75*
G02*
X176141085Y-118888940I-274875J0D01*
G01*
X175563835Y-118888940D01*
G75*
G02*
X175288960Y-118614065I0J274875D01*
G01*
G37*
G36*
G01*
X173463960Y-118614065D02*
X173463960Y-117661815D01*
G75*
G02*
X173738835Y-117386940I274875J0D01*
G01*
X174316085Y-117386940D01*
G75*
G02*
X174590960Y-117661815I0J-274875D01*
G01*
X174590960Y-118614065D01*
G75*
G02*
X174316085Y-118888940I-274875J0D01*
G01*
X173738835Y-118888940D01*
G75*
G02*
X173463960Y-118614065I0J274875D01*
G01*
G37*
G36*
G01*
X174214000Y-108664999D02*
X173364000Y-108664999D01*
G75*
G02*
X173313000Y-108613999I0J51000D01*
G01*
X173313000Y-108333999D01*
G75*
G02*
X173364000Y-108282999I51000J0D01*
G01*
X174214000Y-108282999D01*
G75*
G02*
X174265000Y-108333999I0J-51000D01*
G01*
X174265000Y-108613999D01*
G75*
G02*
X174214000Y-108664999I-51000J0D01*
G01*
G37*
G36*
G01*
X174214000Y-109165001D02*
X173364000Y-109165001D01*
G75*
G02*
X173313000Y-109114001I0J51000D01*
G01*
X173313000Y-108834001D01*
G75*
G02*
X173364000Y-108783001I51000J0D01*
G01*
X174214000Y-108783001D01*
G75*
G02*
X174265000Y-108834001I0J-51000D01*
G01*
X174265000Y-109114001D01*
G75*
G02*
X174214000Y-109165001I-51000J0D01*
G01*
G37*
G36*
G01*
X174214000Y-109665000D02*
X173364000Y-109665000D01*
G75*
G02*
X173313000Y-109614000I0J51000D01*
G01*
X173313000Y-109334000D01*
G75*
G02*
X173364000Y-109283000I51000J0D01*
G01*
X174214000Y-109283000D01*
G75*
G02*
X174265000Y-109334000I0J-51000D01*
G01*
X174265000Y-109614000D01*
G75*
G02*
X174214000Y-109665000I-51000J0D01*
G01*
G37*
G36*
G01*
X174214000Y-110164999D02*
X173364000Y-110164999D01*
G75*
G02*
X173313000Y-110113999I0J51000D01*
G01*
X173313000Y-109833999D01*
G75*
G02*
X173364000Y-109782999I51000J0D01*
G01*
X174214000Y-109782999D01*
G75*
G02*
X174265000Y-109833999I0J-51000D01*
G01*
X174265000Y-110113999D01*
G75*
G02*
X174214000Y-110164999I-51000J0D01*
G01*
G37*
G36*
G01*
X174214000Y-110665001D02*
X173364000Y-110665001D01*
G75*
G02*
X173313000Y-110614001I0J51000D01*
G01*
X173313000Y-110334001D01*
G75*
G02*
X173364000Y-110283001I51000J0D01*
G01*
X174214000Y-110283001D01*
G75*
G02*
X174265000Y-110334001I0J-51000D01*
G01*
X174265000Y-110614001D01*
G75*
G02*
X174214000Y-110665001I-51000J0D01*
G01*
G37*
G36*
G01*
X174322748Y-111624000D02*
X174322748Y-110774000D01*
G75*
G02*
X174373748Y-110723000I51000J0D01*
G01*
X174653748Y-110723000D01*
G75*
G02*
X174704748Y-110774000I0J-51000D01*
G01*
X174704748Y-111624000D01*
G75*
G02*
X174653748Y-111675000I-51000J0D01*
G01*
X174373748Y-111675000D01*
G75*
G02*
X174322748Y-111624000I0J51000D01*
G01*
G37*
G36*
G01*
X174822874Y-111624000D02*
X174822874Y-110774000D01*
G75*
G02*
X174873874Y-110723000I51000J0D01*
G01*
X175153874Y-110723000D01*
G75*
G02*
X175204874Y-110774000I0J-51000D01*
G01*
X175204874Y-111624000D01*
G75*
G02*
X175153874Y-111675000I-51000J0D01*
G01*
X174873874Y-111675000D01*
G75*
G02*
X174822874Y-111624000I0J51000D01*
G01*
G37*
G36*
G01*
X175323000Y-111624000D02*
X175323000Y-110774000D01*
G75*
G02*
X175374000Y-110723000I51000J0D01*
G01*
X175654000Y-110723000D01*
G75*
G02*
X175705000Y-110774000I0J-51000D01*
G01*
X175705000Y-111624000D01*
G75*
G02*
X175654000Y-111675000I-51000J0D01*
G01*
X175374000Y-111675000D01*
G75*
G02*
X175323000Y-111624000I0J51000D01*
G01*
G37*
G36*
G01*
X175823126Y-111624000D02*
X175823126Y-110774000D01*
G75*
G02*
X175874126Y-110723000I51000J0D01*
G01*
X176154126Y-110723000D01*
G75*
G02*
X176205126Y-110774000I0J-51000D01*
G01*
X176205126Y-111624000D01*
G75*
G02*
X176154126Y-111675000I-51000J0D01*
G01*
X175874126Y-111675000D01*
G75*
G02*
X175823126Y-111624000I0J51000D01*
G01*
G37*
G36*
G01*
X176323252Y-111624000D02*
X176323252Y-110774000D01*
G75*
G02*
X176374252Y-110723000I51000J0D01*
G01*
X176654252Y-110723000D01*
G75*
G02*
X176705252Y-110774000I0J-51000D01*
G01*
X176705252Y-111624000D01*
G75*
G02*
X176654252Y-111675000I-51000J0D01*
G01*
X176374252Y-111675000D01*
G75*
G02*
X176323252Y-111624000I0J51000D01*
G01*
G37*
G36*
G01*
X177664000Y-110665001D02*
X176814000Y-110665001D01*
G75*
G02*
X176763000Y-110614001I0J51000D01*
G01*
X176763000Y-110334001D01*
G75*
G02*
X176814000Y-110283001I51000J0D01*
G01*
X177664000Y-110283001D01*
G75*
G02*
X177715000Y-110334001I0J-51000D01*
G01*
X177715000Y-110614001D01*
G75*
G02*
X177664000Y-110665001I-51000J0D01*
G01*
G37*
G36*
G01*
X177664000Y-110164999D02*
X176814000Y-110164999D01*
G75*
G02*
X176763000Y-110113999I0J51000D01*
G01*
X176763000Y-109833999D01*
G75*
G02*
X176814000Y-109782999I51000J0D01*
G01*
X177664000Y-109782999D01*
G75*
G02*
X177715000Y-109833999I0J-51000D01*
G01*
X177715000Y-110113999D01*
G75*
G02*
X177664000Y-110164999I-51000J0D01*
G01*
G37*
G36*
G01*
X177664000Y-109665000D02*
X176814000Y-109665000D01*
G75*
G02*
X176763000Y-109614000I0J51000D01*
G01*
X176763000Y-109334000D01*
G75*
G02*
X176814000Y-109283000I51000J0D01*
G01*
X177664000Y-109283000D01*
G75*
G02*
X177715000Y-109334000I0J-51000D01*
G01*
X177715000Y-109614000D01*
G75*
G02*
X177664000Y-109665000I-51000J0D01*
G01*
G37*
G36*
G01*
X177664000Y-109165001D02*
X176814000Y-109165001D01*
G75*
G02*
X176763000Y-109114001I0J51000D01*
G01*
X176763000Y-108834001D01*
G75*
G02*
X176814000Y-108783001I51000J0D01*
G01*
X177664000Y-108783001D01*
G75*
G02*
X177715000Y-108834001I0J-51000D01*
G01*
X177715000Y-109114001D01*
G75*
G02*
X177664000Y-109165001I-51000J0D01*
G01*
G37*
G36*
G01*
X177664000Y-108664999D02*
X176814000Y-108664999D01*
G75*
G02*
X176763000Y-108613999I0J51000D01*
G01*
X176763000Y-108333999D01*
G75*
G02*
X176814000Y-108282999I51000J0D01*
G01*
X177664000Y-108282999D01*
G75*
G02*
X177715000Y-108333999I0J-51000D01*
G01*
X177715000Y-108613999D01*
G75*
G02*
X177664000Y-108664999I-51000J0D01*
G01*
G37*
G36*
G01*
X176323252Y-108174000D02*
X176323252Y-107324000D01*
G75*
G02*
X176374252Y-107273000I51000J0D01*
G01*
X176654252Y-107273000D01*
G75*
G02*
X176705252Y-107324000I0J-51000D01*
G01*
X176705252Y-108174000D01*
G75*
G02*
X176654252Y-108225000I-51000J0D01*
G01*
X176374252Y-108225000D01*
G75*
G02*
X176323252Y-108174000I0J51000D01*
G01*
G37*
G36*
G01*
X175823126Y-108174000D02*
X175823126Y-107324000D01*
G75*
G02*
X175874126Y-107273000I51000J0D01*
G01*
X176154126Y-107273000D01*
G75*
G02*
X176205126Y-107324000I0J-51000D01*
G01*
X176205126Y-108174000D01*
G75*
G02*
X176154126Y-108225000I-51000J0D01*
G01*
X175874126Y-108225000D01*
G75*
G02*
X175823126Y-108174000I0J51000D01*
G01*
G37*
G36*
G01*
X175323000Y-108174000D02*
X175323000Y-107324000D01*
G75*
G02*
X175374000Y-107273000I51000J0D01*
G01*
X175654000Y-107273000D01*
G75*
G02*
X175705000Y-107324000I0J-51000D01*
G01*
X175705000Y-108174000D01*
G75*
G02*
X175654000Y-108225000I-51000J0D01*
G01*
X175374000Y-108225000D01*
G75*
G02*
X175323000Y-108174000I0J51000D01*
G01*
G37*
G36*
G01*
X174822874Y-108174000D02*
X174822874Y-107324000D01*
G75*
G02*
X174873874Y-107273000I51000J0D01*
G01*
X175153874Y-107273000D01*
G75*
G02*
X175204874Y-107324000I0J-51000D01*
G01*
X175204874Y-108174000D01*
G75*
G02*
X175153874Y-108225000I-51000J0D01*
G01*
X174873874Y-108225000D01*
G75*
G02*
X174822874Y-108174000I0J51000D01*
G01*
G37*
G36*
G01*
X174322748Y-108174000D02*
X174322748Y-107324000D01*
G75*
G02*
X174373748Y-107273000I51000J0D01*
G01*
X174653748Y-107273000D01*
G75*
G02*
X174704748Y-107324000I0J-51000D01*
G01*
X174704748Y-108174000D01*
G75*
G02*
X174653748Y-108225000I-51000J0D01*
G01*
X174373748Y-108225000D01*
G75*
G02*
X174322748Y-108174000I0J51000D01*
G01*
G37*
G36*
G01*
X174438000Y-110499000D02*
X174438000Y-108449000D01*
G75*
G02*
X174489000Y-108398000I51000J0D01*
G01*
X176539000Y-108398000D01*
G75*
G02*
X176590000Y-108449000I0J-51000D01*
G01*
X176590000Y-110499000D01*
G75*
G02*
X176539000Y-110550000I-51000J0D01*
G01*
X174489000Y-110550000D01*
G75*
G02*
X174438000Y-110499000I0J51000D01*
G01*
G37*
D17*
X175120300Y-109867700D03*
X175120300Y-109080300D03*
X175907700Y-109867700D03*
X175907700Y-109080300D03*
G36*
G01*
X174054400Y-92774200D02*
X175754400Y-92774200D01*
G75*
G02*
X175805400Y-92825200I0J-51000D01*
G01*
X175805400Y-94525200D01*
G75*
G02*
X175754400Y-94576200I-51000J0D01*
G01*
X174054400Y-94576200D01*
G75*
G02*
X174003400Y-94525200I0J51000D01*
G01*
X174003400Y-92825200D01*
G75*
G02*
X174054400Y-92774200I51000J0D01*
G01*
G37*
D15*
X172364400Y-93675200D03*
X169824400Y-93675200D03*
G36*
G01*
X172942125Y-103092500D02*
X171989875Y-103092500D01*
G75*
G02*
X171715000Y-102817625I0J274875D01*
G01*
X171715000Y-102240375D01*
G75*
G02*
X171989875Y-101965500I274875J0D01*
G01*
X172942125Y-101965500D01*
G75*
G02*
X173217000Y-102240375I0J-274875D01*
G01*
X173217000Y-102817625D01*
G75*
G02*
X172942125Y-103092500I-274875J0D01*
G01*
G37*
G36*
G01*
X172942125Y-104917500D02*
X171989875Y-104917500D01*
G75*
G02*
X171715000Y-104642625I0J274875D01*
G01*
X171715000Y-104065375D01*
G75*
G02*
X171989875Y-103790500I274875J0D01*
G01*
X172942125Y-103790500D01*
G75*
G02*
X173217000Y-104065375I0J-274875D01*
G01*
X173217000Y-104642625D01*
G75*
G02*
X172942125Y-104917500I-274875J0D01*
G01*
G37*
G36*
G01*
X181006625Y-103156000D02*
X180054375Y-103156000D01*
G75*
G02*
X179779500Y-102881125I0J274875D01*
G01*
X179779500Y-102303875D01*
G75*
G02*
X180054375Y-102029000I274875J0D01*
G01*
X181006625Y-102029000D01*
G75*
G02*
X181281500Y-102303875I0J-274875D01*
G01*
X181281500Y-102881125D01*
G75*
G02*
X181006625Y-103156000I-274875J0D01*
G01*
G37*
G36*
G01*
X181006625Y-104981000D02*
X180054375Y-104981000D01*
G75*
G02*
X179779500Y-104706125I0J274875D01*
G01*
X179779500Y-104128875D01*
G75*
G02*
X180054375Y-103854000I274875J0D01*
G01*
X181006625Y-103854000D01*
G75*
G02*
X181281500Y-104128875I0J-274875D01*
G01*
X181281500Y-104706125D01*
G75*
G02*
X181006625Y-104981000I-274875J0D01*
G01*
G37*
G36*
G01*
X169957875Y-103790500D02*
X170910125Y-103790500D01*
G75*
G02*
X171185000Y-104065375I0J-274875D01*
G01*
X171185000Y-104642625D01*
G75*
G02*
X170910125Y-104917500I-274875J0D01*
G01*
X169957875Y-104917500D01*
G75*
G02*
X169683000Y-104642625I0J274875D01*
G01*
X169683000Y-104065375D01*
G75*
G02*
X169957875Y-103790500I274875J0D01*
G01*
G37*
G36*
G01*
X169957875Y-101965500D02*
X170910125Y-101965500D01*
G75*
G02*
X171185000Y-102240375I0J-274875D01*
G01*
X171185000Y-102817625D01*
G75*
G02*
X170910125Y-103092500I-274875J0D01*
G01*
X169957875Y-103092500D01*
G75*
G02*
X169683000Y-102817625I0J274875D01*
G01*
X169683000Y-102240375D01*
G75*
G02*
X169957875Y-101965500I274875J0D01*
G01*
G37*
G36*
G01*
X178022375Y-103854000D02*
X178974625Y-103854000D01*
G75*
G02*
X179249500Y-104128875I0J-274875D01*
G01*
X179249500Y-104706125D01*
G75*
G02*
X178974625Y-104981000I-274875J0D01*
G01*
X178022375Y-104981000D01*
G75*
G02*
X177747500Y-104706125I0J274875D01*
G01*
X177747500Y-104128875D01*
G75*
G02*
X178022375Y-103854000I274875J0D01*
G01*
G37*
G36*
G01*
X178022375Y-102029000D02*
X178974625Y-102029000D01*
G75*
G02*
X179249500Y-102303875I0J-274875D01*
G01*
X179249500Y-102881125D01*
G75*
G02*
X178974625Y-103156000I-274875J0D01*
G01*
X178022375Y-103156000D01*
G75*
G02*
X177747500Y-102881125I0J274875D01*
G01*
X177747500Y-102303875D01*
G75*
G02*
X178022375Y-102029000I274875J0D01*
G01*
G37*
G36*
G01*
X166418000Y-116427125D02*
X166418000Y-115474875D01*
G75*
G02*
X166692875Y-115200000I274875J0D01*
G01*
X167270125Y-115200000D01*
G75*
G02*
X167545000Y-115474875I0J-274875D01*
G01*
X167545000Y-116427125D01*
G75*
G02*
X167270125Y-116702000I-274875J0D01*
G01*
X166692875Y-116702000D01*
G75*
G02*
X166418000Y-116427125I0J274875D01*
G01*
G37*
G36*
G01*
X168243000Y-116427125D02*
X168243000Y-115474875D01*
G75*
G02*
X168517875Y-115200000I274875J0D01*
G01*
X169095125Y-115200000D01*
G75*
G02*
X169370000Y-115474875I0J-274875D01*
G01*
X169370000Y-116427125D01*
G75*
G02*
X169095125Y-116702000I-274875J0D01*
G01*
X168517875Y-116702000D01*
G75*
G02*
X168243000Y-116427125I0J274875D01*
G01*
G37*
X188252100Y-100393500D03*
X188252100Y-102933500D03*
G36*
G01*
X189153100Y-104623500D02*
X189153100Y-106323500D01*
G75*
G02*
X189102100Y-106374500I-51000J0D01*
G01*
X187402100Y-106374500D01*
G75*
G02*
X187351100Y-106323500I0J51000D01*
G01*
X187351100Y-104623500D01*
G75*
G02*
X187402100Y-104572500I51000J0D01*
G01*
X189102100Y-104572500D01*
G75*
G02*
X189153100Y-104623500I0J-51000D01*
G01*
G37*
G36*
G01*
X171850000Y-99386500D02*
X171050000Y-99386500D01*
G75*
G02*
X170999000Y-99335500I0J51000D01*
G01*
X170999000Y-98435500D01*
G75*
G02*
X171050000Y-98384500I51000J0D01*
G01*
X171850000Y-98384500D01*
G75*
G02*
X171901000Y-98435500I0J-51000D01*
G01*
X171901000Y-99335500D01*
G75*
G02*
X171850000Y-99386500I-51000J0D01*
G01*
G37*
G36*
G01*
X172800000Y-101386500D02*
X172000000Y-101386500D01*
G75*
G02*
X171949000Y-101335500I0J51000D01*
G01*
X171949000Y-100435500D01*
G75*
G02*
X172000000Y-100384500I51000J0D01*
G01*
X172800000Y-100384500D01*
G75*
G02*
X172851000Y-100435500I0J-51000D01*
G01*
X172851000Y-101335500D01*
G75*
G02*
X172800000Y-101386500I-51000J0D01*
G01*
G37*
G36*
G01*
X170900000Y-101386500D02*
X170100000Y-101386500D01*
G75*
G02*
X170049000Y-101335500I0J51000D01*
G01*
X170049000Y-100435500D01*
G75*
G02*
X170100000Y-100384500I51000J0D01*
G01*
X170900000Y-100384500D01*
G75*
G02*
X170951000Y-100435500I0J-51000D01*
G01*
X170951000Y-101335500D01*
G75*
G02*
X170900000Y-101386500I-51000J0D01*
G01*
G37*
G36*
G01*
X179914500Y-99386500D02*
X179114500Y-99386500D01*
G75*
G02*
X179063500Y-99335500I0J51000D01*
G01*
X179063500Y-98435500D01*
G75*
G02*
X179114500Y-98384500I51000J0D01*
G01*
X179914500Y-98384500D01*
G75*
G02*
X179965500Y-98435500I0J-51000D01*
G01*
X179965500Y-99335500D01*
G75*
G02*
X179914500Y-99386500I-51000J0D01*
G01*
G37*
G36*
G01*
X180864500Y-101386500D02*
X180064500Y-101386500D01*
G75*
G02*
X180013500Y-101335500I0J51000D01*
G01*
X180013500Y-100435500D01*
G75*
G02*
X180064500Y-100384500I51000J0D01*
G01*
X180864500Y-100384500D01*
G75*
G02*
X180915500Y-100435500I0J-51000D01*
G01*
X180915500Y-101335500D01*
G75*
G02*
X180864500Y-101386500I-51000J0D01*
G01*
G37*
G36*
G01*
X178964500Y-101386500D02*
X178164500Y-101386500D01*
G75*
G02*
X178113500Y-101335500I0J51000D01*
G01*
X178113500Y-100435500D01*
G75*
G02*
X178164500Y-100384500I51000J0D01*
G01*
X178964500Y-100384500D01*
G75*
G02*
X179015500Y-100435500I0J-51000D01*
G01*
X179015500Y-101335500D01*
G75*
G02*
X178964500Y-101386500I-51000J0D01*
G01*
G37*
G36*
G01*
X182312800Y-103802800D02*
X182913800Y-103802800D01*
G75*
G02*
X183139300Y-104028300I0J-225500D01*
G01*
X183139300Y-104479300D01*
G75*
G02*
X182913800Y-104704800I-225500J0D01*
G01*
X182312800Y-104704800D01*
G75*
G02*
X182087300Y-104479300I0J225500D01*
G01*
X182087300Y-104028300D01*
G75*
G02*
X182312800Y-103802800I225500J0D01*
G01*
G37*
G36*
G01*
X182312800Y-102152800D02*
X182913800Y-102152800D01*
G75*
G02*
X183139300Y-102378300I0J-225500D01*
G01*
X183139300Y-102829300D01*
G75*
G02*
X182913800Y-103054800I-225500J0D01*
G01*
X182312800Y-103054800D01*
G75*
G02*
X182087300Y-102829300I0J225500D01*
G01*
X182087300Y-102378300D01*
G75*
G02*
X182312800Y-102152800I225500J0D01*
G01*
G37*
G36*
G01*
X182312800Y-107231800D02*
X182913800Y-107231800D01*
G75*
G02*
X183139300Y-107457300I0J-225500D01*
G01*
X183139300Y-107908300D01*
G75*
G02*
X182913800Y-108133800I-225500J0D01*
G01*
X182312800Y-108133800D01*
G75*
G02*
X182087300Y-107908300I0J225500D01*
G01*
X182087300Y-107457300D01*
G75*
G02*
X182312800Y-107231800I225500J0D01*
G01*
G37*
G36*
G01*
X182312800Y-105581800D02*
X182913800Y-105581800D01*
G75*
G02*
X183139300Y-105807300I0J-225500D01*
G01*
X183139300Y-106258300D01*
G75*
G02*
X182913800Y-106483800I-225500J0D01*
G01*
X182312800Y-106483800D01*
G75*
G02*
X182087300Y-106258300I0J225500D01*
G01*
X182087300Y-105807300D01*
G75*
G02*
X182312800Y-105581800I225500J0D01*
G01*
G37*
G36*
G01*
X182312800Y-110660800D02*
X182913800Y-110660800D01*
G75*
G02*
X183139300Y-110886300I0J-225500D01*
G01*
X183139300Y-111337300D01*
G75*
G02*
X182913800Y-111562800I-225500J0D01*
G01*
X182312800Y-111562800D01*
G75*
G02*
X182087300Y-111337300I0J225500D01*
G01*
X182087300Y-110886300D01*
G75*
G02*
X182312800Y-110660800I225500J0D01*
G01*
G37*
G36*
G01*
X182312800Y-109010800D02*
X182913800Y-109010800D01*
G75*
G02*
X183139300Y-109236300I0J-225500D01*
G01*
X183139300Y-109687300D01*
G75*
G02*
X182913800Y-109912800I-225500J0D01*
G01*
X182312800Y-109912800D01*
G75*
G02*
X182087300Y-109687300I0J225500D01*
G01*
X182087300Y-109236300D01*
G75*
G02*
X182312800Y-109010800I225500J0D01*
G01*
G37*
G36*
G01*
X173348000Y-114854500D02*
X173348000Y-114253500D01*
G75*
G02*
X173573500Y-114028000I225500J0D01*
G01*
X174024500Y-114028000D01*
G75*
G02*
X174250000Y-114253500I0J-225500D01*
G01*
X174250000Y-114854500D01*
G75*
G02*
X174024500Y-115080000I-225500J0D01*
G01*
X173573500Y-115080000D01*
G75*
G02*
X173348000Y-114854500I0J225500D01*
G01*
G37*
G36*
G01*
X171698000Y-114854500D02*
X171698000Y-114253500D01*
G75*
G02*
X171923500Y-114028000I225500J0D01*
G01*
X172374500Y-114028000D01*
G75*
G02*
X172600000Y-114253500I0J-225500D01*
G01*
X172600000Y-114854500D01*
G75*
G02*
X172374500Y-115080000I-225500J0D01*
G01*
X171923500Y-115080000D01*
G75*
G02*
X171698000Y-114854500I0J225500D01*
G01*
G37*
G36*
G01*
X178428000Y-114854500D02*
X178428000Y-114253500D01*
G75*
G02*
X178653500Y-114028000I225500J0D01*
G01*
X179104500Y-114028000D01*
G75*
G02*
X179330000Y-114253500I0J-225500D01*
G01*
X179330000Y-114854500D01*
G75*
G02*
X179104500Y-115080000I-225500J0D01*
G01*
X178653500Y-115080000D01*
G75*
G02*
X178428000Y-114854500I0J225500D01*
G01*
G37*
G36*
G01*
X176778000Y-114854500D02*
X176778000Y-114253500D01*
G75*
G02*
X177003500Y-114028000I225500J0D01*
G01*
X177454500Y-114028000D01*
G75*
G02*
X177680000Y-114253500I0J-225500D01*
G01*
X177680000Y-114854500D01*
G75*
G02*
X177454500Y-115080000I-225500J0D01*
G01*
X177003500Y-115080000D01*
G75*
G02*
X176778000Y-114854500I0J225500D01*
G01*
G37*
G36*
G01*
X166306500Y-109889328D02*
X166306500Y-108931672D01*
G75*
G02*
X166578672Y-108659500I272172J0D01*
G01*
X167286328Y-108659500D01*
G75*
G02*
X167558500Y-108931672I0J-272172D01*
G01*
X167558500Y-109889328D01*
G75*
G02*
X167286328Y-110161500I-272172J0D01*
G01*
X166578672Y-110161500D01*
G75*
G02*
X166306500Y-109889328I0J272172D01*
G01*
G37*
G36*
G01*
X168356500Y-109889328D02*
X168356500Y-108931672D01*
G75*
G02*
X168628672Y-108659500I272172J0D01*
G01*
X169336328Y-108659500D01*
G75*
G02*
X169608500Y-108931672I0J-272172D01*
G01*
X169608500Y-109889328D01*
G75*
G02*
X169336328Y-110161500I-272172J0D01*
G01*
X168628672Y-110161500D01*
G75*
G02*
X168356500Y-109889328I0J272172D01*
G01*
G37*
G36*
G01*
X175913000Y-102481500D02*
X175913000Y-101480500D01*
G75*
G02*
X176188500Y-101205000I275500J0D01*
G01*
X176739500Y-101205000D01*
G75*
G02*
X177015000Y-101480500I0J-275500D01*
G01*
X177015000Y-102481500D01*
G75*
G02*
X176739500Y-102757000I-275500J0D01*
G01*
X176188500Y-102757000D01*
G75*
G02*
X175913000Y-102481500I0J275500D01*
G01*
G37*
G36*
G01*
X174013000Y-102481500D02*
X174013000Y-101480500D01*
G75*
G02*
X174288500Y-101205000I275500J0D01*
G01*
X174839500Y-101205000D01*
G75*
G02*
X175115000Y-101480500I0J-275500D01*
G01*
X175115000Y-102481500D01*
G75*
G02*
X174839500Y-102757000I-275500J0D01*
G01*
X174288500Y-102757000D01*
G75*
G02*
X174013000Y-102481500I0J275500D01*
G01*
G37*
G36*
G01*
X175913000Y-100322500D02*
X175913000Y-99321500D01*
G75*
G02*
X176188500Y-99046000I275500J0D01*
G01*
X176739500Y-99046000D01*
G75*
G02*
X177015000Y-99321500I0J-275500D01*
G01*
X177015000Y-100322500D01*
G75*
G02*
X176739500Y-100598000I-275500J0D01*
G01*
X176188500Y-100598000D01*
G75*
G02*
X175913000Y-100322500I0J275500D01*
G01*
G37*
G36*
G01*
X174013000Y-100322500D02*
X174013000Y-99321500D01*
G75*
G02*
X174288500Y-99046000I275500J0D01*
G01*
X174839500Y-99046000D01*
G75*
G02*
X175115000Y-99321500I0J-275500D01*
G01*
X175115000Y-100322500D01*
G75*
G02*
X174839500Y-100598000I-275500J0D01*
G01*
X174288500Y-100598000D01*
G75*
G02*
X174013000Y-100322500I0J275500D01*
G01*
G37*
G36*
G01*
X175913000Y-104640500D02*
X175913000Y-103639500D01*
G75*
G02*
X176188500Y-103364000I275500J0D01*
G01*
X176739500Y-103364000D01*
G75*
G02*
X177015000Y-103639500I0J-275500D01*
G01*
X177015000Y-104640500D01*
G75*
G02*
X176739500Y-104916000I-275500J0D01*
G01*
X176188500Y-104916000D01*
G75*
G02*
X175913000Y-104640500I0J275500D01*
G01*
G37*
G36*
G01*
X174013000Y-104640500D02*
X174013000Y-103639500D01*
G75*
G02*
X174288500Y-103364000I275500J0D01*
G01*
X174839500Y-103364000D01*
G75*
G02*
X175115000Y-103639500I0J-275500D01*
G01*
X175115000Y-104640500D01*
G75*
G02*
X174839500Y-104916000I-275500J0D01*
G01*
X174288500Y-104916000D01*
G75*
G02*
X174013000Y-104640500I0J275500D01*
G01*
G37*
G36*
G01*
X169395000Y-111069000D02*
X169395000Y-112070000D01*
G75*
G02*
X169119500Y-112345500I-275500J0D01*
G01*
X168568500Y-112345500D01*
G75*
G02*
X168293000Y-112070000I0J275500D01*
G01*
X168293000Y-111069000D01*
G75*
G02*
X168568500Y-110793500I275500J0D01*
G01*
X169119500Y-110793500D01*
G75*
G02*
X169395000Y-111069000I0J-275500D01*
G01*
G37*
G36*
G01*
X167495000Y-111069000D02*
X167495000Y-112070000D01*
G75*
G02*
X167219500Y-112345500I-275500J0D01*
G01*
X166668500Y-112345500D01*
G75*
G02*
X166393000Y-112070000I0J275500D01*
G01*
X166393000Y-111069000D01*
G75*
G02*
X166668500Y-110793500I275500J0D01*
G01*
X167219500Y-110793500D01*
G75*
G02*
X167495000Y-111069000I0J-275500D01*
G01*
G37*
G36*
G01*
X169395000Y-113291500D02*
X169395000Y-114292500D01*
G75*
G02*
X169119500Y-114568000I-275500J0D01*
G01*
X168568500Y-114568000D01*
G75*
G02*
X168293000Y-114292500I0J275500D01*
G01*
X168293000Y-113291500D01*
G75*
G02*
X168568500Y-113016000I275500J0D01*
G01*
X169119500Y-113016000D01*
G75*
G02*
X169395000Y-113291500I0J-275500D01*
G01*
G37*
G36*
G01*
X167495000Y-113291500D02*
X167495000Y-114292500D01*
G75*
G02*
X167219500Y-114568000I-275500J0D01*
G01*
X166668500Y-114568000D01*
G75*
G02*
X166393000Y-114292500I0J275500D01*
G01*
X166393000Y-113291500D01*
G75*
G02*
X166668500Y-113016000I275500J0D01*
G01*
X167219500Y-113016000D01*
G75*
G02*
X167495000Y-113291500I0J-275500D01*
G01*
G37*
M02*
