M48
; DRILL file {KiCad (5.1.10)-1} date 07/06/21 21:05:40
; FORMAT={-:-/ absolute / metric / decimal}
; #@! TF.CreationDate,2021-07-06T21:05:40-03:00
; #@! TF.GenerationSoftware,Kicad,Pcbnew,(5.1.10)-1
; #@! TF.FileFunction,Plated,1,2,PTH
FMAT,2
METRIC
T1C0.254
T2C0.300
T3C0.400
T4C1.000
T5C1.200
%
G90
G05
T1
X175.12Y-109.08
X175.12Y-109.868
X175.908Y-109.08
X175.908Y-109.868
T2
X176.2Y-112.903
X177.165Y-112.878
X178.994Y-107.924
X179.07Y-109.169
T3
X160.782Y-88.646
X161.798Y-124.968
X164.084Y-120.142
X164.374Y-88.646
X167.386Y-96.012
X167.894Y-124.968
X167.967Y-88.646
X171.559Y-88.646
X173.99Y-124.968
X175.151Y-88.646
X177.292Y-96.266
X178.743Y-88.646
X180.086Y-124.968
X182.336Y-88.646
X185.928Y-88.646
X186.182Y-124.968
X192.786Y-95.504
X192.786Y-101.282
X192.786Y-107.061
X192.786Y-112.84
X192.786Y-118.618
T4
X157.226Y-93.675
X159.766Y-93.675
X163.525Y-93.675
X166.065Y-93.675
X167.894Y-121.158
X169.824Y-93.675
X170.434Y-121.158
X172.364Y-93.675
X172.974Y-121.158
X174.904Y-93.675
X178.816Y-121.158
X179.426Y-93.675
X181.356Y-121.158
X181.966Y-93.675
X183.896Y-121.158
X185.725Y-93.675
X188.252Y-100.393
X188.252Y-102.933
X188.252Y-105.474
X188.252Y-109.41
X188.252Y-111.95
X188.252Y-114.49
X188.265Y-93.675
T5
X158.496Y-99.72
X158.496Y-104.8
X158.496Y-113.944
X158.496Y-119.024
T0
M30
