G04 #@! TF.GenerationSoftware,KiCad,Pcbnew,(5.1.10)-1*
G04 #@! TF.CreationDate,2021-07-06T21:05:29-03:00*
G04 #@! TF.ProjectId,BQ25505,42513235-3530-4352-9e6b-696361645f70,rev?*
G04 #@! TF.SameCoordinates,Original*
G04 #@! TF.FileFunction,Paste,Top*
G04 #@! TF.FilePolarity,Positive*
%FSLAX46Y46*%
G04 Gerber Fmt 4.6, Leading zero omitted, Abs format (unit mm)*
G04 Created by KiCad (PCBNEW (5.1.10)-1) date 2021-07-06 21:05:29*
%MOMM*%
%LPD*%
G01*
G04 APERTURE LIST*
%ADD10C,0.100000*%
%ADD11R,0.900000X0.800000*%
%ADD12R,0.850000X0.280000*%
%ADD13R,0.280000X0.850000*%
%ADD14R,2.050000X2.050000*%
%ADD15R,0.800000X0.900000*%
G04 APERTURE END LIST*
D10*
G36*
X174563930Y-108523930D02*
G01*
X174563930Y-108980300D01*
X174878879Y-108980300D01*
X175020300Y-108838879D01*
X175020300Y-108523930D01*
X174563930Y-108523930D01*
G37*
X174563930Y-108523930D02*
X174563930Y-108980300D01*
X174878879Y-108980300D01*
X175020300Y-108838879D01*
X175020300Y-108523930D01*
X174563930Y-108523930D01*
G36*
X174563930Y-109180300D02*
G01*
X174563930Y-109767700D01*
X174878879Y-109767700D01*
X175020300Y-109626279D01*
X175020300Y-109321721D01*
X174878879Y-109180300D01*
X174563930Y-109180300D01*
G37*
X174563930Y-109180300D02*
X174563930Y-109767700D01*
X174878879Y-109767700D01*
X175020300Y-109626279D01*
X175020300Y-109321721D01*
X174878879Y-109180300D01*
X174563930Y-109180300D01*
G36*
X174563930Y-109967700D02*
G01*
X174563930Y-110424070D01*
X175020300Y-110424070D01*
X175020300Y-110109121D01*
X174878879Y-109967700D01*
X174563930Y-109967700D01*
G37*
X174563930Y-109967700D02*
X174563930Y-110424070D01*
X175020300Y-110424070D01*
X175020300Y-110109121D01*
X174878879Y-109967700D01*
X174563930Y-109967700D01*
G36*
X175220300Y-108523930D02*
G01*
X175220300Y-108838879D01*
X175361721Y-108980300D01*
X175666279Y-108980300D01*
X175807700Y-108838879D01*
X175807700Y-108523930D01*
X175220300Y-108523930D01*
G37*
X175220300Y-108523930D02*
X175220300Y-108838879D01*
X175361721Y-108980300D01*
X175666279Y-108980300D01*
X175807700Y-108838879D01*
X175807700Y-108523930D01*
X175220300Y-108523930D01*
G36*
X175361721Y-109180300D02*
G01*
X175220300Y-109321721D01*
X175220300Y-109626279D01*
X175361721Y-109767700D01*
X175666279Y-109767700D01*
X175807700Y-109626279D01*
X175807700Y-109321721D01*
X175666279Y-109180300D01*
X175361721Y-109180300D01*
G37*
X175361721Y-109180300D02*
X175220300Y-109321721D01*
X175220300Y-109626279D01*
X175361721Y-109767700D01*
X175666279Y-109767700D01*
X175807700Y-109626279D01*
X175807700Y-109321721D01*
X175666279Y-109180300D01*
X175361721Y-109180300D01*
G36*
X175361721Y-109967700D02*
G01*
X175220300Y-110109121D01*
X175220300Y-110424070D01*
X175807700Y-110424070D01*
X175807700Y-110109121D01*
X175666279Y-109967700D01*
X175361721Y-109967700D01*
G37*
X175361721Y-109967700D02*
X175220300Y-110109121D01*
X175220300Y-110424070D01*
X175807700Y-110424070D01*
X175807700Y-110109121D01*
X175666279Y-109967700D01*
X175361721Y-109967700D01*
G36*
X176007700Y-108523930D02*
G01*
X176007700Y-108838879D01*
X176149121Y-108980300D01*
X176464070Y-108980300D01*
X176464070Y-108523930D01*
X176007700Y-108523930D01*
G37*
X176007700Y-108523930D02*
X176007700Y-108838879D01*
X176149121Y-108980300D01*
X176464070Y-108980300D01*
X176464070Y-108523930D01*
X176007700Y-108523930D01*
G36*
X176149121Y-109180300D02*
G01*
X176007700Y-109321721D01*
X176007700Y-109626279D01*
X176149121Y-109767700D01*
X176464070Y-109767700D01*
X176464070Y-109180300D01*
X176149121Y-109180300D01*
G37*
X176149121Y-109180300D02*
X176007700Y-109321721D01*
X176007700Y-109626279D01*
X176149121Y-109767700D01*
X176464070Y-109767700D01*
X176464070Y-109180300D01*
X176149121Y-109180300D01*
G36*
X176149121Y-109967700D02*
G01*
X176007700Y-110109121D01*
X176007700Y-110424070D01*
X176464070Y-110424070D01*
X176464070Y-109967700D01*
X176149121Y-109967700D01*
G37*
X176149121Y-109967700D02*
X176007700Y-110109121D01*
X176007700Y-110424070D01*
X176464070Y-110424070D01*
X176464070Y-109967700D01*
X176149121Y-109967700D01*
G36*
G01*
X183101000Y-99626000D02*
X182151000Y-99626000D01*
G75*
G02*
X181901000Y-99376000I0J250000D01*
G01*
X181901000Y-98876000D01*
G75*
G02*
X182151000Y-98626000I250000J0D01*
G01*
X183101000Y-98626000D01*
G75*
G02*
X183351000Y-98876000I0J-250000D01*
G01*
X183351000Y-99376000D01*
G75*
G02*
X183101000Y-99626000I-250000J0D01*
G01*
G37*
G36*
G01*
X183101000Y-101526000D02*
X182151000Y-101526000D01*
G75*
G02*
X181901000Y-101276000I0J250000D01*
G01*
X181901000Y-100776000D01*
G75*
G02*
X182151000Y-100526000I250000J0D01*
G01*
X183101000Y-100526000D01*
G75*
G02*
X183351000Y-100776000I0J-250000D01*
G01*
X183351000Y-101276000D01*
G75*
G02*
X183101000Y-101526000I-250000J0D01*
G01*
G37*
G36*
G01*
X178733000Y-118385000D02*
X178733000Y-117835000D01*
G75*
G02*
X178933000Y-117635000I200000J0D01*
G01*
X179333000Y-117635000D01*
G75*
G02*
X179533000Y-117835000I0J-200000D01*
G01*
X179533000Y-118385000D01*
G75*
G02*
X179333000Y-118585000I-200000J0D01*
G01*
X178933000Y-118585000D01*
G75*
G02*
X178733000Y-118385000I0J200000D01*
G01*
G37*
G36*
G01*
X177083000Y-118385000D02*
X177083000Y-117835000D01*
G75*
G02*
X177283000Y-117635000I200000J0D01*
G01*
X177683000Y-117635000D01*
G75*
G02*
X177883000Y-117835000I0J-200000D01*
G01*
X177883000Y-118385000D01*
G75*
G02*
X177683000Y-118585000I-200000J0D01*
G01*
X177283000Y-118585000D01*
G75*
G02*
X177083000Y-118385000I0J200000D01*
G01*
G37*
G36*
G01*
X167721498Y-97912500D02*
X168621502Y-97912500D01*
G75*
G02*
X168871500Y-98162498I0J-249998D01*
G01*
X168871500Y-98687502D01*
G75*
G02*
X168621502Y-98937500I-249998J0D01*
G01*
X167721498Y-98937500D01*
G75*
G02*
X167471500Y-98687502I0J249998D01*
G01*
X167471500Y-98162498D01*
G75*
G02*
X167721498Y-97912500I249998J0D01*
G01*
G37*
G36*
G01*
X167721498Y-99737500D02*
X168621502Y-99737500D01*
G75*
G02*
X168871500Y-99987498I0J-249998D01*
G01*
X168871500Y-100512502D01*
G75*
G02*
X168621502Y-100762500I-249998J0D01*
G01*
X167721498Y-100762500D01*
G75*
G02*
X167471500Y-100512502I0J249998D01*
G01*
X167471500Y-99987498D01*
G75*
G02*
X167721498Y-99737500I249998J0D01*
G01*
G37*
G36*
G01*
X167721498Y-101485000D02*
X168621502Y-101485000D01*
G75*
G02*
X168871500Y-101734998I0J-249998D01*
G01*
X168871500Y-102260002D01*
G75*
G02*
X168621502Y-102510000I-249998J0D01*
G01*
X167721498Y-102510000D01*
G75*
G02*
X167471500Y-102260002I0J249998D01*
G01*
X167471500Y-101734998D01*
G75*
G02*
X167721498Y-101485000I249998J0D01*
G01*
G37*
G36*
G01*
X167721498Y-103310000D02*
X168621502Y-103310000D01*
G75*
G02*
X168871500Y-103559998I0J-249998D01*
G01*
X168871500Y-104085002D01*
G75*
G02*
X168621502Y-104335000I-249998J0D01*
G01*
X167721498Y-104335000D01*
G75*
G02*
X167471500Y-104085002I0J249998D01*
G01*
X167471500Y-103559998D01*
G75*
G02*
X167721498Y-103310000I249998J0D01*
G01*
G37*
G36*
G01*
X167721498Y-105064500D02*
X168621502Y-105064500D01*
G75*
G02*
X168871500Y-105314498I0J-249998D01*
G01*
X168871500Y-105839502D01*
G75*
G02*
X168621502Y-106089500I-249998J0D01*
G01*
X167721498Y-106089500D01*
G75*
G02*
X167471500Y-105839502I0J249998D01*
G01*
X167471500Y-105314498D01*
G75*
G02*
X167721498Y-105064500I249998J0D01*
G01*
G37*
G36*
G01*
X167721498Y-106889500D02*
X168621502Y-106889500D01*
G75*
G02*
X168871500Y-107139498I0J-249998D01*
G01*
X168871500Y-107664502D01*
G75*
G02*
X168621502Y-107914500I-249998J0D01*
G01*
X167721498Y-107914500D01*
G75*
G02*
X167471500Y-107664502I0J249998D01*
G01*
X167471500Y-107139498D01*
G75*
G02*
X167721498Y-106889500I249998J0D01*
G01*
G37*
G36*
G01*
X166031500Y-98112500D02*
X166581500Y-98112500D01*
G75*
G02*
X166781500Y-98312500I0J-200000D01*
G01*
X166781500Y-98712500D01*
G75*
G02*
X166581500Y-98912500I-200000J0D01*
G01*
X166031500Y-98912500D01*
G75*
G02*
X165831500Y-98712500I0J200000D01*
G01*
X165831500Y-98312500D01*
G75*
G02*
X166031500Y-98112500I200000J0D01*
G01*
G37*
G36*
G01*
X166031500Y-99762500D02*
X166581500Y-99762500D01*
G75*
G02*
X166781500Y-99962500I0J-200000D01*
G01*
X166781500Y-100362500D01*
G75*
G02*
X166581500Y-100562500I-200000J0D01*
G01*
X166031500Y-100562500D01*
G75*
G02*
X165831500Y-100362500I0J200000D01*
G01*
X165831500Y-99962500D01*
G75*
G02*
X166031500Y-99762500I200000J0D01*
G01*
G37*
G36*
G01*
X166031500Y-101685000D02*
X166581500Y-101685000D01*
G75*
G02*
X166781500Y-101885000I0J-200000D01*
G01*
X166781500Y-102285000D01*
G75*
G02*
X166581500Y-102485000I-200000J0D01*
G01*
X166031500Y-102485000D01*
G75*
G02*
X165831500Y-102285000I0J200000D01*
G01*
X165831500Y-101885000D01*
G75*
G02*
X166031500Y-101685000I200000J0D01*
G01*
G37*
G36*
G01*
X166031500Y-103335000D02*
X166581500Y-103335000D01*
G75*
G02*
X166781500Y-103535000I0J-200000D01*
G01*
X166781500Y-103935000D01*
G75*
G02*
X166581500Y-104135000I-200000J0D01*
G01*
X166031500Y-104135000D01*
G75*
G02*
X165831500Y-103935000I0J200000D01*
G01*
X165831500Y-103535000D01*
G75*
G02*
X166031500Y-103335000I200000J0D01*
G01*
G37*
G36*
G01*
X166031500Y-105264500D02*
X166581500Y-105264500D01*
G75*
G02*
X166781500Y-105464500I0J-200000D01*
G01*
X166781500Y-105864500D01*
G75*
G02*
X166581500Y-106064500I-200000J0D01*
G01*
X166031500Y-106064500D01*
G75*
G02*
X165831500Y-105864500I0J200000D01*
G01*
X165831500Y-105464500D01*
G75*
G02*
X166031500Y-105264500I200000J0D01*
G01*
G37*
G36*
G01*
X166031500Y-106914500D02*
X166581500Y-106914500D01*
G75*
G02*
X166781500Y-107114500I0J-200000D01*
G01*
X166781500Y-107514500D01*
G75*
G02*
X166581500Y-107714500I-200000J0D01*
G01*
X166031500Y-107714500D01*
G75*
G02*
X165831500Y-107514500I0J200000D01*
G01*
X165831500Y-107114500D01*
G75*
G02*
X166031500Y-106914500I200000J0D01*
G01*
G37*
D11*
X162626800Y-99707700D03*
X164626800Y-98757700D03*
X164626800Y-100657700D03*
X162626800Y-104724200D03*
X164626800Y-103774200D03*
X164626800Y-105674200D03*
G36*
G01*
X183076002Y-113392000D02*
X182175998Y-113392000D01*
G75*
G02*
X181926000Y-113142002I0J249998D01*
G01*
X181926000Y-112616998D01*
G75*
G02*
X182175998Y-112367000I249998J0D01*
G01*
X183076002Y-112367000D01*
G75*
G02*
X183326000Y-112616998I0J-249998D01*
G01*
X183326000Y-113142002D01*
G75*
G02*
X183076002Y-113392000I-249998J0D01*
G01*
G37*
G36*
G01*
X183076002Y-115217000D02*
X182175998Y-115217000D01*
G75*
G02*
X181926000Y-114967002I0J249998D01*
G01*
X181926000Y-114441998D01*
G75*
G02*
X182175998Y-114192000I249998J0D01*
G01*
X183076002Y-114192000D01*
G75*
G02*
X183326000Y-114441998I0J-249998D01*
G01*
X183326000Y-114967002D01*
G75*
G02*
X183076002Y-115217000I-249998J0D01*
G01*
G37*
G36*
G01*
X184334998Y-117621000D02*
X185235002Y-117621000D01*
G75*
G02*
X185485000Y-117870998I0J-249998D01*
G01*
X185485000Y-118396002D01*
G75*
G02*
X185235002Y-118646000I-249998J0D01*
G01*
X184334998Y-118646000D01*
G75*
G02*
X184085000Y-118396002I0J249998D01*
G01*
X184085000Y-117870998D01*
G75*
G02*
X184334998Y-117621000I249998J0D01*
G01*
G37*
G36*
G01*
X184334998Y-115796000D02*
X185235002Y-115796000D01*
G75*
G02*
X185485000Y-116045998I0J-249998D01*
G01*
X185485000Y-116571002D01*
G75*
G02*
X185235002Y-116821000I-249998J0D01*
G01*
X184334998Y-116821000D01*
G75*
G02*
X184085000Y-116571002I0J249998D01*
G01*
X184085000Y-116045998D01*
G75*
G02*
X184334998Y-115796000I249998J0D01*
G01*
G37*
G36*
G01*
X184334998Y-110763000D02*
X185235002Y-110763000D01*
G75*
G02*
X185485000Y-111012998I0J-249998D01*
G01*
X185485000Y-111538002D01*
G75*
G02*
X185235002Y-111788000I-249998J0D01*
G01*
X184334998Y-111788000D01*
G75*
G02*
X184085000Y-111538002I0J249998D01*
G01*
X184085000Y-111012998D01*
G75*
G02*
X184334998Y-110763000I249998J0D01*
G01*
G37*
G36*
G01*
X184334998Y-108938000D02*
X185235002Y-108938000D01*
G75*
G02*
X185485000Y-109187998I0J-249998D01*
G01*
X185485000Y-109713002D01*
G75*
G02*
X185235002Y-109963000I-249998J0D01*
G01*
X184334998Y-109963000D01*
G75*
G02*
X184085000Y-109713002I0J249998D01*
G01*
X184085000Y-109187998D01*
G75*
G02*
X184334998Y-108938000I249998J0D01*
G01*
G37*
G36*
G01*
X184334998Y-114192000D02*
X185235002Y-114192000D01*
G75*
G02*
X185485000Y-114441998I0J-249998D01*
G01*
X185485000Y-114967002D01*
G75*
G02*
X185235002Y-115217000I-249998J0D01*
G01*
X184334998Y-115217000D01*
G75*
G02*
X184085000Y-114967002I0J249998D01*
G01*
X184085000Y-114441998D01*
G75*
G02*
X184334998Y-114192000I249998J0D01*
G01*
G37*
G36*
G01*
X184334998Y-112367000D02*
X185235002Y-112367000D01*
G75*
G02*
X185485000Y-112616998I0J-249998D01*
G01*
X185485000Y-113142002D01*
G75*
G02*
X185235002Y-113392000I-249998J0D01*
G01*
X184334998Y-113392000D01*
G75*
G02*
X184085000Y-113142002I0J249998D01*
G01*
X184085000Y-112616998D01*
G75*
G02*
X184334998Y-112367000I249998J0D01*
G01*
G37*
G36*
G01*
X184334998Y-100476000D02*
X185235002Y-100476000D01*
G75*
G02*
X185485000Y-100725998I0J-249998D01*
G01*
X185485000Y-101251002D01*
G75*
G02*
X185235002Y-101501000I-249998J0D01*
G01*
X184334998Y-101501000D01*
G75*
G02*
X184085000Y-101251002I0J249998D01*
G01*
X184085000Y-100725998D01*
G75*
G02*
X184334998Y-100476000I249998J0D01*
G01*
G37*
G36*
G01*
X184334998Y-98651000D02*
X185235002Y-98651000D01*
G75*
G02*
X185485000Y-98900998I0J-249998D01*
G01*
X185485000Y-99426002D01*
G75*
G02*
X185235002Y-99676000I-249998J0D01*
G01*
X184334998Y-99676000D01*
G75*
G02*
X184085000Y-99426002I0J249998D01*
G01*
X184085000Y-98900998D01*
G75*
G02*
X184334998Y-98651000I249998J0D01*
G01*
G37*
G36*
G01*
X184334998Y-103905000D02*
X185235002Y-103905000D01*
G75*
G02*
X185485000Y-104154998I0J-249998D01*
G01*
X185485000Y-104680002D01*
G75*
G02*
X185235002Y-104930000I-249998J0D01*
G01*
X184334998Y-104930000D01*
G75*
G02*
X184085000Y-104680002I0J249998D01*
G01*
X184085000Y-104154998D01*
G75*
G02*
X184334998Y-103905000I249998J0D01*
G01*
G37*
G36*
G01*
X184334998Y-102080000D02*
X185235002Y-102080000D01*
G75*
G02*
X185485000Y-102329998I0J-249998D01*
G01*
X185485000Y-102855002D01*
G75*
G02*
X185235002Y-103105000I-249998J0D01*
G01*
X184334998Y-103105000D01*
G75*
G02*
X184085000Y-102855002I0J249998D01*
G01*
X184085000Y-102329998D01*
G75*
G02*
X184334998Y-102080000I249998J0D01*
G01*
G37*
G36*
G01*
X184334998Y-107334000D02*
X185235002Y-107334000D01*
G75*
G02*
X185485000Y-107583998I0J-249998D01*
G01*
X185485000Y-108109002D01*
G75*
G02*
X185235002Y-108359000I-249998J0D01*
G01*
X184334998Y-108359000D01*
G75*
G02*
X184085000Y-108109002I0J249998D01*
G01*
X184085000Y-107583998D01*
G75*
G02*
X184334998Y-107334000I249998J0D01*
G01*
G37*
G36*
G01*
X184334998Y-105509000D02*
X185235002Y-105509000D01*
G75*
G02*
X185485000Y-105758998I0J-249998D01*
G01*
X185485000Y-106284002D01*
G75*
G02*
X185235002Y-106534000I-249998J0D01*
G01*
X184334998Y-106534000D01*
G75*
G02*
X184085000Y-106284002I0J249998D01*
G01*
X184085000Y-105758998D01*
G75*
G02*
X184334998Y-105509000I249998J0D01*
G01*
G37*
G36*
G01*
X182010000Y-118560002D02*
X182010000Y-117659998D01*
G75*
G02*
X182259998Y-117410000I249998J0D01*
G01*
X182785002Y-117410000D01*
G75*
G02*
X183035000Y-117659998I0J-249998D01*
G01*
X183035000Y-118560002D01*
G75*
G02*
X182785002Y-118810000I-249998J0D01*
G01*
X182259998Y-118810000D01*
G75*
G02*
X182010000Y-118560002I0J249998D01*
G01*
G37*
G36*
G01*
X180185000Y-118560002D02*
X180185000Y-117659998D01*
G75*
G02*
X180434998Y-117410000I249998J0D01*
G01*
X180960002Y-117410000D01*
G75*
G02*
X181210000Y-117659998I0J-249998D01*
G01*
X181210000Y-118560002D01*
G75*
G02*
X180960002Y-118810000I-249998J0D01*
G01*
X180434998Y-118810000D01*
G75*
G02*
X180185000Y-118560002I0J249998D01*
G01*
G37*
G36*
G01*
X168294000Y-118560002D02*
X168294000Y-117659998D01*
G75*
G02*
X168543998Y-117410000I249998J0D01*
G01*
X169069002Y-117410000D01*
G75*
G02*
X169319000Y-117659998I0J-249998D01*
G01*
X169319000Y-118560002D01*
G75*
G02*
X169069002Y-118810000I-249998J0D01*
G01*
X168543998Y-118810000D01*
G75*
G02*
X168294000Y-118560002I0J249998D01*
G01*
G37*
G36*
G01*
X166469000Y-118560002D02*
X166469000Y-117659998D01*
G75*
G02*
X166718998Y-117410000I249998J0D01*
G01*
X167244002Y-117410000D01*
G75*
G02*
X167494000Y-117659998I0J-249998D01*
G01*
X167494000Y-118560002D01*
G75*
G02*
X167244002Y-118810000I-249998J0D01*
G01*
X166718998Y-118810000D01*
G75*
G02*
X166469000Y-118560002I0J249998D01*
G01*
G37*
G36*
G01*
X171850000Y-118560002D02*
X171850000Y-117659998D01*
G75*
G02*
X172099998Y-117410000I249998J0D01*
G01*
X172625002Y-117410000D01*
G75*
G02*
X172875000Y-117659998I0J-249998D01*
G01*
X172875000Y-118560002D01*
G75*
G02*
X172625002Y-118810000I-249998J0D01*
G01*
X172099998Y-118810000D01*
G75*
G02*
X171850000Y-118560002I0J249998D01*
G01*
G37*
G36*
G01*
X170025000Y-118560002D02*
X170025000Y-117659998D01*
G75*
G02*
X170274998Y-117410000I249998J0D01*
G01*
X170800002Y-117410000D01*
G75*
G02*
X171050000Y-117659998I0J-249998D01*
G01*
X171050000Y-118560002D01*
G75*
G02*
X170800002Y-118810000I-249998J0D01*
G01*
X170274998Y-118810000D01*
G75*
G02*
X170025000Y-118560002I0J249998D01*
G01*
G37*
G36*
G01*
X175339960Y-118587942D02*
X175339960Y-117687938D01*
G75*
G02*
X175589958Y-117437940I249998J0D01*
G01*
X176114962Y-117437940D01*
G75*
G02*
X176364960Y-117687938I0J-249998D01*
G01*
X176364960Y-118587942D01*
G75*
G02*
X176114962Y-118837940I-249998J0D01*
G01*
X175589958Y-118837940D01*
G75*
G02*
X175339960Y-118587942I0J249998D01*
G01*
G37*
G36*
G01*
X173514960Y-118587942D02*
X173514960Y-117687938D01*
G75*
G02*
X173764958Y-117437940I249998J0D01*
G01*
X174289962Y-117437940D01*
G75*
G02*
X174539960Y-117687938I0J-249998D01*
G01*
X174539960Y-118587942D01*
G75*
G02*
X174289962Y-118837940I-249998J0D01*
G01*
X173764958Y-118837940D01*
G75*
G02*
X173514960Y-118587942I0J249998D01*
G01*
G37*
D12*
X173789000Y-108473999D03*
X173789000Y-108974001D03*
X173789000Y-109474000D03*
X173789000Y-109973999D03*
X173789000Y-110474001D03*
D13*
X174513748Y-111199000D03*
X175013874Y-111199000D03*
X175514000Y-111199000D03*
X176014126Y-111199000D03*
X176514252Y-111199000D03*
D12*
X177239000Y-110474001D03*
X177239000Y-109973999D03*
X177239000Y-109474000D03*
X177239000Y-108974001D03*
X177239000Y-108473999D03*
D13*
X176514252Y-107749000D03*
X176014126Y-107749000D03*
X175514000Y-107749000D03*
X175013874Y-107749000D03*
X174513748Y-107749000D03*
D14*
X175514000Y-109474000D03*
G36*
G01*
X172916002Y-103041500D02*
X172015998Y-103041500D01*
G75*
G02*
X171766000Y-102791502I0J249998D01*
G01*
X171766000Y-102266498D01*
G75*
G02*
X172015998Y-102016500I249998J0D01*
G01*
X172916002Y-102016500D01*
G75*
G02*
X173166000Y-102266498I0J-249998D01*
G01*
X173166000Y-102791502D01*
G75*
G02*
X172916002Y-103041500I-249998J0D01*
G01*
G37*
G36*
G01*
X172916002Y-104866500D02*
X172015998Y-104866500D01*
G75*
G02*
X171766000Y-104616502I0J249998D01*
G01*
X171766000Y-104091498D01*
G75*
G02*
X172015998Y-103841500I249998J0D01*
G01*
X172916002Y-103841500D01*
G75*
G02*
X173166000Y-104091498I0J-249998D01*
G01*
X173166000Y-104616502D01*
G75*
G02*
X172916002Y-104866500I-249998J0D01*
G01*
G37*
G36*
G01*
X180980502Y-103105000D02*
X180080498Y-103105000D01*
G75*
G02*
X179830500Y-102855002I0J249998D01*
G01*
X179830500Y-102329998D01*
G75*
G02*
X180080498Y-102080000I249998J0D01*
G01*
X180980502Y-102080000D01*
G75*
G02*
X181230500Y-102329998I0J-249998D01*
G01*
X181230500Y-102855002D01*
G75*
G02*
X180980502Y-103105000I-249998J0D01*
G01*
G37*
G36*
G01*
X180980502Y-104930000D02*
X180080498Y-104930000D01*
G75*
G02*
X179830500Y-104680002I0J249998D01*
G01*
X179830500Y-104154998D01*
G75*
G02*
X180080498Y-103905000I249998J0D01*
G01*
X180980502Y-103905000D01*
G75*
G02*
X181230500Y-104154998I0J-249998D01*
G01*
X181230500Y-104680002D01*
G75*
G02*
X180980502Y-104930000I-249998J0D01*
G01*
G37*
G36*
G01*
X169983998Y-103841500D02*
X170884002Y-103841500D01*
G75*
G02*
X171134000Y-104091498I0J-249998D01*
G01*
X171134000Y-104616502D01*
G75*
G02*
X170884002Y-104866500I-249998J0D01*
G01*
X169983998Y-104866500D01*
G75*
G02*
X169734000Y-104616502I0J249998D01*
G01*
X169734000Y-104091498D01*
G75*
G02*
X169983998Y-103841500I249998J0D01*
G01*
G37*
G36*
G01*
X169983998Y-102016500D02*
X170884002Y-102016500D01*
G75*
G02*
X171134000Y-102266498I0J-249998D01*
G01*
X171134000Y-102791502D01*
G75*
G02*
X170884002Y-103041500I-249998J0D01*
G01*
X169983998Y-103041500D01*
G75*
G02*
X169734000Y-102791502I0J249998D01*
G01*
X169734000Y-102266498D01*
G75*
G02*
X169983998Y-102016500I249998J0D01*
G01*
G37*
G36*
G01*
X178048498Y-103905000D02*
X178948502Y-103905000D01*
G75*
G02*
X179198500Y-104154998I0J-249998D01*
G01*
X179198500Y-104680002D01*
G75*
G02*
X178948502Y-104930000I-249998J0D01*
G01*
X178048498Y-104930000D01*
G75*
G02*
X177798500Y-104680002I0J249998D01*
G01*
X177798500Y-104154998D01*
G75*
G02*
X178048498Y-103905000I249998J0D01*
G01*
G37*
G36*
G01*
X178048498Y-102080000D02*
X178948502Y-102080000D01*
G75*
G02*
X179198500Y-102329998I0J-249998D01*
G01*
X179198500Y-102855002D01*
G75*
G02*
X178948502Y-103105000I-249998J0D01*
G01*
X178048498Y-103105000D01*
G75*
G02*
X177798500Y-102855002I0J249998D01*
G01*
X177798500Y-102329998D01*
G75*
G02*
X178048498Y-102080000I249998J0D01*
G01*
G37*
G36*
G01*
X166469000Y-116401002D02*
X166469000Y-115500998D01*
G75*
G02*
X166718998Y-115251000I249998J0D01*
G01*
X167244002Y-115251000D01*
G75*
G02*
X167494000Y-115500998I0J-249998D01*
G01*
X167494000Y-116401002D01*
G75*
G02*
X167244002Y-116651000I-249998J0D01*
G01*
X166718998Y-116651000D01*
G75*
G02*
X166469000Y-116401002I0J249998D01*
G01*
G37*
G36*
G01*
X168294000Y-116401002D02*
X168294000Y-115500998D01*
G75*
G02*
X168543998Y-115251000I249998J0D01*
G01*
X169069002Y-115251000D01*
G75*
G02*
X169319000Y-115500998I0J-249998D01*
G01*
X169319000Y-116401002D01*
G75*
G02*
X169069002Y-116651000I-249998J0D01*
G01*
X168543998Y-116651000D01*
G75*
G02*
X168294000Y-116401002I0J249998D01*
G01*
G37*
D15*
X171450000Y-98885500D03*
X172400000Y-100885500D03*
X170500000Y-100885500D03*
X179514500Y-98885500D03*
X180464500Y-100885500D03*
X178564500Y-100885500D03*
G36*
G01*
X182338300Y-103853800D02*
X182888300Y-103853800D01*
G75*
G02*
X183088300Y-104053800I0J-200000D01*
G01*
X183088300Y-104453800D01*
G75*
G02*
X182888300Y-104653800I-200000J0D01*
G01*
X182338300Y-104653800D01*
G75*
G02*
X182138300Y-104453800I0J200000D01*
G01*
X182138300Y-104053800D01*
G75*
G02*
X182338300Y-103853800I200000J0D01*
G01*
G37*
G36*
G01*
X182338300Y-102203800D02*
X182888300Y-102203800D01*
G75*
G02*
X183088300Y-102403800I0J-200000D01*
G01*
X183088300Y-102803800D01*
G75*
G02*
X182888300Y-103003800I-200000J0D01*
G01*
X182338300Y-103003800D01*
G75*
G02*
X182138300Y-102803800I0J200000D01*
G01*
X182138300Y-102403800D01*
G75*
G02*
X182338300Y-102203800I200000J0D01*
G01*
G37*
G36*
G01*
X182338300Y-107282800D02*
X182888300Y-107282800D01*
G75*
G02*
X183088300Y-107482800I0J-200000D01*
G01*
X183088300Y-107882800D01*
G75*
G02*
X182888300Y-108082800I-200000J0D01*
G01*
X182338300Y-108082800D01*
G75*
G02*
X182138300Y-107882800I0J200000D01*
G01*
X182138300Y-107482800D01*
G75*
G02*
X182338300Y-107282800I200000J0D01*
G01*
G37*
G36*
G01*
X182338300Y-105632800D02*
X182888300Y-105632800D01*
G75*
G02*
X183088300Y-105832800I0J-200000D01*
G01*
X183088300Y-106232800D01*
G75*
G02*
X182888300Y-106432800I-200000J0D01*
G01*
X182338300Y-106432800D01*
G75*
G02*
X182138300Y-106232800I0J200000D01*
G01*
X182138300Y-105832800D01*
G75*
G02*
X182338300Y-105632800I200000J0D01*
G01*
G37*
G36*
G01*
X182338300Y-110711800D02*
X182888300Y-110711800D01*
G75*
G02*
X183088300Y-110911800I0J-200000D01*
G01*
X183088300Y-111311800D01*
G75*
G02*
X182888300Y-111511800I-200000J0D01*
G01*
X182338300Y-111511800D01*
G75*
G02*
X182138300Y-111311800I0J200000D01*
G01*
X182138300Y-110911800D01*
G75*
G02*
X182338300Y-110711800I200000J0D01*
G01*
G37*
G36*
G01*
X182338300Y-109061800D02*
X182888300Y-109061800D01*
G75*
G02*
X183088300Y-109261800I0J-200000D01*
G01*
X183088300Y-109661800D01*
G75*
G02*
X182888300Y-109861800I-200000J0D01*
G01*
X182338300Y-109861800D01*
G75*
G02*
X182138300Y-109661800I0J200000D01*
G01*
X182138300Y-109261800D01*
G75*
G02*
X182338300Y-109061800I200000J0D01*
G01*
G37*
G36*
G01*
X173399000Y-114829000D02*
X173399000Y-114279000D01*
G75*
G02*
X173599000Y-114079000I200000J0D01*
G01*
X173999000Y-114079000D01*
G75*
G02*
X174199000Y-114279000I0J-200000D01*
G01*
X174199000Y-114829000D01*
G75*
G02*
X173999000Y-115029000I-200000J0D01*
G01*
X173599000Y-115029000D01*
G75*
G02*
X173399000Y-114829000I0J200000D01*
G01*
G37*
G36*
G01*
X171749000Y-114829000D02*
X171749000Y-114279000D01*
G75*
G02*
X171949000Y-114079000I200000J0D01*
G01*
X172349000Y-114079000D01*
G75*
G02*
X172549000Y-114279000I0J-200000D01*
G01*
X172549000Y-114829000D01*
G75*
G02*
X172349000Y-115029000I-200000J0D01*
G01*
X171949000Y-115029000D01*
G75*
G02*
X171749000Y-114829000I0J200000D01*
G01*
G37*
G36*
G01*
X178479000Y-114829000D02*
X178479000Y-114279000D01*
G75*
G02*
X178679000Y-114079000I200000J0D01*
G01*
X179079000Y-114079000D01*
G75*
G02*
X179279000Y-114279000I0J-200000D01*
G01*
X179279000Y-114829000D01*
G75*
G02*
X179079000Y-115029000I-200000J0D01*
G01*
X178679000Y-115029000D01*
G75*
G02*
X178479000Y-114829000I0J200000D01*
G01*
G37*
G36*
G01*
X176829000Y-114829000D02*
X176829000Y-114279000D01*
G75*
G02*
X177029000Y-114079000I200000J0D01*
G01*
X177429000Y-114079000D01*
G75*
G02*
X177629000Y-114279000I0J-200000D01*
G01*
X177629000Y-114829000D01*
G75*
G02*
X177429000Y-115029000I-200000J0D01*
G01*
X177029000Y-115029000D01*
G75*
G02*
X176829000Y-114829000I0J200000D01*
G01*
G37*
G36*
G01*
X166357500Y-109860501D02*
X166357500Y-108960499D01*
G75*
G02*
X166607499Y-108710500I249999J0D01*
G01*
X167257501Y-108710500D01*
G75*
G02*
X167507500Y-108960499I0J-249999D01*
G01*
X167507500Y-109860501D01*
G75*
G02*
X167257501Y-110110500I-249999J0D01*
G01*
X166607499Y-110110500D01*
G75*
G02*
X166357500Y-109860501I0J249999D01*
G01*
G37*
G36*
G01*
X168407500Y-109860501D02*
X168407500Y-108960499D01*
G75*
G02*
X168657499Y-108710500I249999J0D01*
G01*
X169307501Y-108710500D01*
G75*
G02*
X169557500Y-108960499I0J-249999D01*
G01*
X169557500Y-109860501D01*
G75*
G02*
X169307501Y-110110500I-249999J0D01*
G01*
X168657499Y-110110500D01*
G75*
G02*
X168407500Y-109860501I0J249999D01*
G01*
G37*
G36*
G01*
X175964000Y-102456000D02*
X175964000Y-101506000D01*
G75*
G02*
X176214000Y-101256000I250000J0D01*
G01*
X176714000Y-101256000D01*
G75*
G02*
X176964000Y-101506000I0J-250000D01*
G01*
X176964000Y-102456000D01*
G75*
G02*
X176714000Y-102706000I-250000J0D01*
G01*
X176214000Y-102706000D01*
G75*
G02*
X175964000Y-102456000I0J250000D01*
G01*
G37*
G36*
G01*
X174064000Y-102456000D02*
X174064000Y-101506000D01*
G75*
G02*
X174314000Y-101256000I250000J0D01*
G01*
X174814000Y-101256000D01*
G75*
G02*
X175064000Y-101506000I0J-250000D01*
G01*
X175064000Y-102456000D01*
G75*
G02*
X174814000Y-102706000I-250000J0D01*
G01*
X174314000Y-102706000D01*
G75*
G02*
X174064000Y-102456000I0J250000D01*
G01*
G37*
G36*
G01*
X175964000Y-100297000D02*
X175964000Y-99347000D01*
G75*
G02*
X176214000Y-99097000I250000J0D01*
G01*
X176714000Y-99097000D01*
G75*
G02*
X176964000Y-99347000I0J-250000D01*
G01*
X176964000Y-100297000D01*
G75*
G02*
X176714000Y-100547000I-250000J0D01*
G01*
X176214000Y-100547000D01*
G75*
G02*
X175964000Y-100297000I0J250000D01*
G01*
G37*
G36*
G01*
X174064000Y-100297000D02*
X174064000Y-99347000D01*
G75*
G02*
X174314000Y-99097000I250000J0D01*
G01*
X174814000Y-99097000D01*
G75*
G02*
X175064000Y-99347000I0J-250000D01*
G01*
X175064000Y-100297000D01*
G75*
G02*
X174814000Y-100547000I-250000J0D01*
G01*
X174314000Y-100547000D01*
G75*
G02*
X174064000Y-100297000I0J250000D01*
G01*
G37*
G36*
G01*
X175964000Y-104615000D02*
X175964000Y-103665000D01*
G75*
G02*
X176214000Y-103415000I250000J0D01*
G01*
X176714000Y-103415000D01*
G75*
G02*
X176964000Y-103665000I0J-250000D01*
G01*
X176964000Y-104615000D01*
G75*
G02*
X176714000Y-104865000I-250000J0D01*
G01*
X176214000Y-104865000D01*
G75*
G02*
X175964000Y-104615000I0J250000D01*
G01*
G37*
G36*
G01*
X174064000Y-104615000D02*
X174064000Y-103665000D01*
G75*
G02*
X174314000Y-103415000I250000J0D01*
G01*
X174814000Y-103415000D01*
G75*
G02*
X175064000Y-103665000I0J-250000D01*
G01*
X175064000Y-104615000D01*
G75*
G02*
X174814000Y-104865000I-250000J0D01*
G01*
X174314000Y-104865000D01*
G75*
G02*
X174064000Y-104615000I0J250000D01*
G01*
G37*
G36*
G01*
X169344000Y-111094500D02*
X169344000Y-112044500D01*
G75*
G02*
X169094000Y-112294500I-250000J0D01*
G01*
X168594000Y-112294500D01*
G75*
G02*
X168344000Y-112044500I0J250000D01*
G01*
X168344000Y-111094500D01*
G75*
G02*
X168594000Y-110844500I250000J0D01*
G01*
X169094000Y-110844500D01*
G75*
G02*
X169344000Y-111094500I0J-250000D01*
G01*
G37*
G36*
G01*
X167444000Y-111094500D02*
X167444000Y-112044500D01*
G75*
G02*
X167194000Y-112294500I-250000J0D01*
G01*
X166694000Y-112294500D01*
G75*
G02*
X166444000Y-112044500I0J250000D01*
G01*
X166444000Y-111094500D01*
G75*
G02*
X166694000Y-110844500I250000J0D01*
G01*
X167194000Y-110844500D01*
G75*
G02*
X167444000Y-111094500I0J-250000D01*
G01*
G37*
G36*
G01*
X169344000Y-113317000D02*
X169344000Y-114267000D01*
G75*
G02*
X169094000Y-114517000I-250000J0D01*
G01*
X168594000Y-114517000D01*
G75*
G02*
X168344000Y-114267000I0J250000D01*
G01*
X168344000Y-113317000D01*
G75*
G02*
X168594000Y-113067000I250000J0D01*
G01*
X169094000Y-113067000D01*
G75*
G02*
X169344000Y-113317000I0J-250000D01*
G01*
G37*
G36*
G01*
X167444000Y-113317000D02*
X167444000Y-114267000D01*
G75*
G02*
X167194000Y-114517000I-250000J0D01*
G01*
X166694000Y-114517000D01*
G75*
G02*
X166444000Y-114267000I0J250000D01*
G01*
X166444000Y-113317000D01*
G75*
G02*
X166694000Y-113067000I250000J0D01*
G01*
X167194000Y-113067000D01*
G75*
G02*
X167444000Y-113317000I0J-250000D01*
G01*
G37*
M02*
