G04 #@! TF.GenerationSoftware,KiCad,Pcbnew,(5.1.10)-1*
G04 #@! TF.CreationDate,2021-07-06T21:05:29-03:00*
G04 #@! TF.ProjectId,BQ25505,42513235-3530-4352-9e6b-696361645f70,rev?*
G04 #@! TF.SameCoordinates,Original*
G04 #@! TF.FileFunction,Soldermask,Top*
G04 #@! TF.FilePolarity,Negative*
%FSLAX46Y46*%
G04 Gerber Fmt 4.6, Leading zero omitted, Abs format (unit mm)*
G04 Created by KiCad (PCBNEW (5.1.10)-1) date 2021-07-06 21:05:29*
%MOMM*%
%LPD*%
G01*
G04 APERTURE LIST*
%ADD10C,0.100000*%
%ADD11C,3.102000*%
%ADD12O,1.802000X1.802000*%
%ADD13O,3.102000X3.102000*%
%ADD14C,0.610000*%
G04 APERTURE END LIST*
D10*
G36*
X174425500Y-108385500D02*
G01*
X176602500Y-108385500D01*
X176602500Y-108880300D01*
X174425500Y-108880300D01*
X174425500Y-108385500D01*
G37*
X174425500Y-108385500D02*
X176602500Y-108385500D01*
X176602500Y-108880300D01*
X174425500Y-108880300D01*
X174425500Y-108385500D01*
G36*
X174425500Y-109280300D02*
G01*
X176602500Y-109280300D01*
X176602500Y-109667700D01*
X174425500Y-109667700D01*
X174425500Y-109280300D01*
G37*
X174425500Y-109280300D02*
X176602500Y-109280300D01*
X176602500Y-109667700D01*
X174425500Y-109667700D01*
X174425500Y-109280300D01*
G36*
X174425500Y-110067700D02*
G01*
X176602500Y-110067700D01*
X176602500Y-110562500D01*
X174425500Y-110562500D01*
X174425500Y-110067700D01*
G37*
X174425500Y-110067700D02*
X176602500Y-110067700D01*
X176602500Y-110562500D01*
X174425500Y-110562500D01*
X174425500Y-110067700D01*
G36*
X174425500Y-108385500D02*
G01*
X174920300Y-108385500D01*
X174920300Y-110562500D01*
X174425500Y-110562500D01*
X174425500Y-108385500D01*
G37*
X174425500Y-108385500D02*
X174920300Y-108385500D01*
X174920300Y-110562500D01*
X174425500Y-110562500D01*
X174425500Y-108385500D01*
G36*
X175707700Y-108385500D02*
G01*
X175320300Y-108385500D01*
X175320300Y-110562500D01*
X175707700Y-110562500D01*
X175707700Y-108385500D01*
G37*
X175707700Y-108385500D02*
X175320300Y-108385500D01*
X175320300Y-110562500D01*
X175707700Y-110562500D01*
X175707700Y-108385500D01*
G36*
X176107700Y-108385500D02*
G01*
X176602500Y-108385500D01*
X176602500Y-110562500D01*
X176107700Y-110562500D01*
X176107700Y-108385500D01*
G37*
X176107700Y-108385500D02*
X176602500Y-108385500D01*
X176602500Y-110562500D01*
X176107700Y-110562500D01*
X176107700Y-108385500D01*
G36*
X174425500Y-108385500D02*
G01*
X176602500Y-108385500D01*
X176602500Y-108880300D01*
X174425500Y-108880300D01*
X174425500Y-108385500D01*
G37*
X174425500Y-108385500D02*
X176602500Y-108385500D01*
X176602500Y-108880300D01*
X174425500Y-108880300D01*
X174425500Y-108385500D01*
G36*
X174425500Y-109280300D02*
G01*
X176602500Y-109280300D01*
X176602500Y-109667700D01*
X174425500Y-109667700D01*
X174425500Y-109280300D01*
G37*
X174425500Y-109280300D02*
X176602500Y-109280300D01*
X176602500Y-109667700D01*
X174425500Y-109667700D01*
X174425500Y-109280300D01*
G36*
X174425500Y-110067700D02*
G01*
X176602500Y-110067700D01*
X176602500Y-110562500D01*
X174425500Y-110562500D01*
X174425500Y-110067700D01*
G37*
X174425500Y-110067700D02*
X176602500Y-110067700D01*
X176602500Y-110562500D01*
X174425500Y-110562500D01*
X174425500Y-110067700D01*
G36*
X174425500Y-108385500D02*
G01*
X174920300Y-108385500D01*
X174920300Y-110562500D01*
X174425500Y-110562500D01*
X174425500Y-108385500D01*
G37*
X174425500Y-108385500D02*
X174920300Y-108385500D01*
X174920300Y-110562500D01*
X174425500Y-110562500D01*
X174425500Y-108385500D01*
G36*
X175707700Y-108385500D02*
G01*
X175320300Y-108385500D01*
X175320300Y-110562500D01*
X175707700Y-110562500D01*
X175707700Y-108385500D01*
G37*
X175707700Y-108385500D02*
X175320300Y-108385500D01*
X175320300Y-110562500D01*
X175707700Y-110562500D01*
X175707700Y-108385500D01*
G36*
X176107700Y-108385500D02*
G01*
X176602500Y-108385500D01*
X176602500Y-110562500D01*
X176107700Y-110562500D01*
X176107700Y-108385500D01*
G37*
X176107700Y-108385500D02*
X176602500Y-108385500D01*
X176602500Y-110562500D01*
X176107700Y-110562500D01*
X176107700Y-108385500D01*
D11*
X191008000Y-124460000D03*
X156972000Y-124460000D03*
X191008000Y-89408000D03*
X156972000Y-89408000D03*
D12*
X183896000Y-121158000D03*
X181356000Y-121158000D03*
G36*
G01*
X179666000Y-122059000D02*
X177966000Y-122059000D01*
G75*
G02*
X177915000Y-122008000I0J51000D01*
G01*
X177915000Y-120308000D01*
G75*
G02*
X177966000Y-120257000I51000J0D01*
G01*
X179666000Y-120257000D01*
G75*
G02*
X179717000Y-120308000I0J-51000D01*
G01*
X179717000Y-122008000D01*
G75*
G02*
X179666000Y-122059000I-51000J0D01*
G01*
G37*
D13*
X158496000Y-113944400D03*
G36*
G01*
X159996000Y-120575400D02*
X156996000Y-120575400D01*
G75*
G02*
X156945000Y-120524400I0J51000D01*
G01*
X156945000Y-117524400D01*
G75*
G02*
X156996000Y-117473400I51000J0D01*
G01*
X159996000Y-117473400D01*
G75*
G02*
X160047000Y-117524400I0J-51000D01*
G01*
X160047000Y-120524400D01*
G75*
G02*
X159996000Y-120575400I-51000J0D01*
G01*
G37*
D11*
X158496000Y-99720400D03*
X158496000Y-104800400D03*
D12*
X172974000Y-121158000D03*
X170434000Y-121158000D03*
G36*
G01*
X168744000Y-122059000D02*
X167044000Y-122059000D01*
G75*
G02*
X166993000Y-122008000I0J51000D01*
G01*
X166993000Y-120308000D01*
G75*
G02*
X167044000Y-120257000I51000J0D01*
G01*
X168744000Y-120257000D01*
G75*
G02*
X168795000Y-120308000I0J-51000D01*
G01*
X168795000Y-122008000D01*
G75*
G02*
X168744000Y-122059000I-51000J0D01*
G01*
G37*
X179425600Y-93675200D03*
G36*
G01*
X181115600Y-92774200D02*
X182815600Y-92774200D01*
G75*
G02*
X182866600Y-92825200I0J-51000D01*
G01*
X182866600Y-94525200D01*
G75*
G02*
X182815600Y-94576200I-51000J0D01*
G01*
X181115600Y-94576200D01*
G75*
G02*
X181064600Y-94525200I0J51000D01*
G01*
X181064600Y-92825200D01*
G75*
G02*
X181115600Y-92774200I51000J0D01*
G01*
G37*
G36*
G01*
X183126500Y-99677000D02*
X182125500Y-99677000D01*
G75*
G02*
X181850000Y-99401500I0J275500D01*
G01*
X181850000Y-98850500D01*
G75*
G02*
X182125500Y-98575000I275500J0D01*
G01*
X183126500Y-98575000D01*
G75*
G02*
X183402000Y-98850500I0J-275500D01*
G01*
X183402000Y-99401500D01*
G75*
G02*
X183126500Y-99677000I-275500J0D01*
G01*
G37*
G36*
G01*
X183126500Y-101577000D02*
X182125500Y-101577000D01*
G75*
G02*
X181850000Y-101301500I0J275500D01*
G01*
X181850000Y-100750500D01*
G75*
G02*
X182125500Y-100475000I275500J0D01*
G01*
X183126500Y-100475000D01*
G75*
G02*
X183402000Y-100750500I0J-275500D01*
G01*
X183402000Y-101301500D01*
G75*
G02*
X183126500Y-101577000I-275500J0D01*
G01*
G37*
X188252100Y-109410500D03*
X188252100Y-111950500D03*
G36*
G01*
X189153100Y-113640500D02*
X189153100Y-115340500D01*
G75*
G02*
X189102100Y-115391500I-51000J0D01*
G01*
X187402100Y-115391500D01*
G75*
G02*
X187351100Y-115340500I0J51000D01*
G01*
X187351100Y-113640500D01*
G75*
G02*
X187402100Y-113589500I51000J0D01*
G01*
X189102100Y-113589500D01*
G75*
G02*
X189153100Y-113640500I0J-51000D01*
G01*
G37*
G36*
G01*
X178682000Y-118410500D02*
X178682000Y-117809500D01*
G75*
G02*
X178907500Y-117584000I225500J0D01*
G01*
X179358500Y-117584000D01*
G75*
G02*
X179584000Y-117809500I0J-225500D01*
G01*
X179584000Y-118410500D01*
G75*
G02*
X179358500Y-118636000I-225500J0D01*
G01*
X178907500Y-118636000D01*
G75*
G02*
X178682000Y-118410500I0J225500D01*
G01*
G37*
G36*
G01*
X177032000Y-118410500D02*
X177032000Y-117809500D01*
G75*
G02*
X177257500Y-117584000I225500J0D01*
G01*
X177708500Y-117584000D01*
G75*
G02*
X177934000Y-117809500I0J-225500D01*
G01*
X177934000Y-118410500D01*
G75*
G02*
X177708500Y-118636000I-225500J0D01*
G01*
X177257500Y-118636000D01*
G75*
G02*
X177032000Y-118410500I0J225500D01*
G01*
G37*
G36*
G01*
X167695375Y-97861500D02*
X168647625Y-97861500D01*
G75*
G02*
X168922500Y-98136375I0J-274875D01*
G01*
X168922500Y-98713625D01*
G75*
G02*
X168647625Y-98988500I-274875J0D01*
G01*
X167695375Y-98988500D01*
G75*
G02*
X167420500Y-98713625I0J274875D01*
G01*
X167420500Y-98136375D01*
G75*
G02*
X167695375Y-97861500I274875J0D01*
G01*
G37*
G36*
G01*
X167695375Y-99686500D02*
X168647625Y-99686500D01*
G75*
G02*
X168922500Y-99961375I0J-274875D01*
G01*
X168922500Y-100538625D01*
G75*
G02*
X168647625Y-100813500I-274875J0D01*
G01*
X167695375Y-100813500D01*
G75*
G02*
X167420500Y-100538625I0J274875D01*
G01*
X167420500Y-99961375D01*
G75*
G02*
X167695375Y-99686500I274875J0D01*
G01*
G37*
G36*
G01*
X167695375Y-101434000D02*
X168647625Y-101434000D01*
G75*
G02*
X168922500Y-101708875I0J-274875D01*
G01*
X168922500Y-102286125D01*
G75*
G02*
X168647625Y-102561000I-274875J0D01*
G01*
X167695375Y-102561000D01*
G75*
G02*
X167420500Y-102286125I0J274875D01*
G01*
X167420500Y-101708875D01*
G75*
G02*
X167695375Y-101434000I274875J0D01*
G01*
G37*
G36*
G01*
X167695375Y-103259000D02*
X168647625Y-103259000D01*
G75*
G02*
X168922500Y-103533875I0J-274875D01*
G01*
X168922500Y-104111125D01*
G75*
G02*
X168647625Y-104386000I-274875J0D01*
G01*
X167695375Y-104386000D01*
G75*
G02*
X167420500Y-104111125I0J274875D01*
G01*
X167420500Y-103533875D01*
G75*
G02*
X167695375Y-103259000I274875J0D01*
G01*
G37*
G36*
G01*
X167695375Y-105013500D02*
X168647625Y-105013500D01*
G75*
G02*
X168922500Y-105288375I0J-274875D01*
G01*
X168922500Y-105865625D01*
G75*
G02*
X168647625Y-106140500I-274875J0D01*
G01*
X167695375Y-106140500D01*
G75*
G02*
X167420500Y-105865625I0J274875D01*
G01*
X167420500Y-105288375D01*
G75*
G02*
X167695375Y-105013500I274875J0D01*
G01*
G37*
G36*
G01*
X167695375Y-106838500D02*
X168647625Y-106838500D01*
G75*
G02*
X168922500Y-107113375I0J-274875D01*
G01*
X168922500Y-107690625D01*
G75*
G02*
X168647625Y-107965500I-274875J0D01*
G01*
X167695375Y-107965500D01*
G75*
G02*
X167420500Y-107690625I0J274875D01*
G01*
X167420500Y-107113375D01*
G75*
G02*
X167695375Y-106838500I274875J0D01*
G01*
G37*
G36*
G01*
X166006000Y-98061500D02*
X166607000Y-98061500D01*
G75*
G02*
X166832500Y-98287000I0J-225500D01*
G01*
X166832500Y-98738000D01*
G75*
G02*
X166607000Y-98963500I-225500J0D01*
G01*
X166006000Y-98963500D01*
G75*
G02*
X165780500Y-98738000I0J225500D01*
G01*
X165780500Y-98287000D01*
G75*
G02*
X166006000Y-98061500I225500J0D01*
G01*
G37*
G36*
G01*
X166006000Y-99711500D02*
X166607000Y-99711500D01*
G75*
G02*
X166832500Y-99937000I0J-225500D01*
G01*
X166832500Y-100388000D01*
G75*
G02*
X166607000Y-100613500I-225500J0D01*
G01*
X166006000Y-100613500D01*
G75*
G02*
X165780500Y-100388000I0J225500D01*
G01*
X165780500Y-99937000D01*
G75*
G02*
X166006000Y-99711500I225500J0D01*
G01*
G37*
G36*
G01*
X166006000Y-101634000D02*
X166607000Y-101634000D01*
G75*
G02*
X166832500Y-101859500I0J-225500D01*
G01*
X166832500Y-102310500D01*
G75*
G02*
X166607000Y-102536000I-225500J0D01*
G01*
X166006000Y-102536000D01*
G75*
G02*
X165780500Y-102310500I0J225500D01*
G01*
X165780500Y-101859500D01*
G75*
G02*
X166006000Y-101634000I225500J0D01*
G01*
G37*
G36*
G01*
X166006000Y-103284000D02*
X166607000Y-103284000D01*
G75*
G02*
X166832500Y-103509500I0J-225500D01*
G01*
X166832500Y-103960500D01*
G75*
G02*
X166607000Y-104186000I-225500J0D01*
G01*
X166006000Y-104186000D01*
G75*
G02*
X165780500Y-103960500I0J225500D01*
G01*
X165780500Y-103509500D01*
G75*
G02*
X166006000Y-103284000I225500J0D01*
G01*
G37*
G36*
G01*
X166006000Y-105213500D02*
X166607000Y-105213500D01*
G75*
G02*
X166832500Y-105439000I0J-225500D01*
G01*
X166832500Y-105890000D01*
G75*
G02*
X166607000Y-106115500I-225500J0D01*
G01*
X166006000Y-106115500D01*
G75*
G02*
X165780500Y-105890000I0J225500D01*
G01*
X165780500Y-105439000D01*
G75*
G02*
X166006000Y-105213500I225500J0D01*
G01*
G37*
G36*
G01*
X166006000Y-106863500D02*
X166607000Y-106863500D01*
G75*
G02*
X166832500Y-107089000I0J-225500D01*
G01*
X166832500Y-107540000D01*
G75*
G02*
X166607000Y-107765500I-225500J0D01*
G01*
X166006000Y-107765500D01*
G75*
G02*
X165780500Y-107540000I0J225500D01*
G01*
X165780500Y-107089000D01*
G75*
G02*
X166006000Y-106863500I225500J0D01*
G01*
G37*
X163525200Y-93675200D03*
G36*
G01*
X165215200Y-92774200D02*
X166915200Y-92774200D01*
G75*
G02*
X166966200Y-92825200I0J-51000D01*
G01*
X166966200Y-94525200D01*
G75*
G02*
X166915200Y-94576200I-51000J0D01*
G01*
X165215200Y-94576200D01*
G75*
G02*
X165164200Y-94525200I0J51000D01*
G01*
X165164200Y-92825200D01*
G75*
G02*
X165215200Y-92774200I51000J0D01*
G01*
G37*
X157226000Y-93675200D03*
G36*
G01*
X158916000Y-92774200D02*
X160616000Y-92774200D01*
G75*
G02*
X160667000Y-92825200I0J-51000D01*
G01*
X160667000Y-94525200D01*
G75*
G02*
X160616000Y-94576200I-51000J0D01*
G01*
X158916000Y-94576200D01*
G75*
G02*
X158865000Y-94525200I0J51000D01*
G01*
X158865000Y-92825200D01*
G75*
G02*
X158916000Y-92774200I51000J0D01*
G01*
G37*
G36*
G01*
X163127800Y-99307700D02*
X163127800Y-100107700D01*
G75*
G02*
X163076800Y-100158700I-51000J0D01*
G01*
X162176800Y-100158700D01*
G75*
G02*
X162125800Y-100107700I0J51000D01*
G01*
X162125800Y-99307700D01*
G75*
G02*
X162176800Y-99256700I51000J0D01*
G01*
X163076800Y-99256700D01*
G75*
G02*
X163127800Y-99307700I0J-51000D01*
G01*
G37*
G36*
G01*
X165127800Y-98357700D02*
X165127800Y-99157700D01*
G75*
G02*
X165076800Y-99208700I-51000J0D01*
G01*
X164176800Y-99208700D01*
G75*
G02*
X164125800Y-99157700I0J51000D01*
G01*
X164125800Y-98357700D01*
G75*
G02*
X164176800Y-98306700I51000J0D01*
G01*
X165076800Y-98306700D01*
G75*
G02*
X165127800Y-98357700I0J-51000D01*
G01*
G37*
G36*
G01*
X165127800Y-100257700D02*
X165127800Y-101057700D01*
G75*
G02*
X165076800Y-101108700I-51000J0D01*
G01*
X164176800Y-101108700D01*
G75*
G02*
X164125800Y-101057700I0J51000D01*
G01*
X164125800Y-100257700D01*
G75*
G02*
X164176800Y-100206700I51000J0D01*
G01*
X165076800Y-100206700D01*
G75*
G02*
X165127800Y-100257700I0J-51000D01*
G01*
G37*
G36*
G01*
X163127800Y-104324200D02*
X163127800Y-105124200D01*
G75*
G02*
X163076800Y-105175200I-51000J0D01*
G01*
X162176800Y-105175200D01*
G75*
G02*
X162125800Y-105124200I0J51000D01*
G01*
X162125800Y-104324200D01*
G75*
G02*
X162176800Y-104273200I51000J0D01*
G01*
X163076800Y-104273200D01*
G75*
G02*
X163127800Y-104324200I0J-51000D01*
G01*
G37*
G36*
G01*
X165127800Y-103374200D02*
X165127800Y-104174200D01*
G75*
G02*
X165076800Y-104225200I-51000J0D01*
G01*
X164176800Y-104225200D01*
G75*
G02*
X164125800Y-104174200I0J51000D01*
G01*
X164125800Y-103374200D01*
G75*
G02*
X164176800Y-103323200I51000J0D01*
G01*
X165076800Y-103323200D01*
G75*
G02*
X165127800Y-103374200I0J-51000D01*
G01*
G37*
G36*
G01*
X165127800Y-105274200D02*
X165127800Y-106074200D01*
G75*
G02*
X165076800Y-106125200I-51000J0D01*
G01*
X164176800Y-106125200D01*
G75*
G02*
X164125800Y-106074200I0J51000D01*
G01*
X164125800Y-105274200D01*
G75*
G02*
X164176800Y-105223200I51000J0D01*
G01*
X165076800Y-105223200D01*
G75*
G02*
X165127800Y-105274200I0J-51000D01*
G01*
G37*
X185724800Y-93675200D03*
G36*
G01*
X187414800Y-92774200D02*
X189114800Y-92774200D01*
G75*
G02*
X189165800Y-92825200I0J-51000D01*
G01*
X189165800Y-94525200D01*
G75*
G02*
X189114800Y-94576200I-51000J0D01*
G01*
X187414800Y-94576200D01*
G75*
G02*
X187363800Y-94525200I0J51000D01*
G01*
X187363800Y-92825200D01*
G75*
G02*
X187414800Y-92774200I51000J0D01*
G01*
G37*
G36*
G01*
X183102125Y-113443000D02*
X182149875Y-113443000D01*
G75*
G02*
X181875000Y-113168125I0J274875D01*
G01*
X181875000Y-112590875D01*
G75*
G02*
X182149875Y-112316000I274875J0D01*
G01*
X183102125Y-112316000D01*
G75*
G02*
X183377000Y-112590875I0J-274875D01*
G01*
X183377000Y-113168125D01*
G75*
G02*
X183102125Y-113443000I-274875J0D01*
G01*
G37*
G36*
G01*
X183102125Y-115268000D02*
X182149875Y-115268000D01*
G75*
G02*
X181875000Y-114993125I0J274875D01*
G01*
X181875000Y-114415875D01*
G75*
G02*
X182149875Y-114141000I274875J0D01*
G01*
X183102125Y-114141000D01*
G75*
G02*
X183377000Y-114415875I0J-274875D01*
G01*
X183377000Y-114993125D01*
G75*
G02*
X183102125Y-115268000I-274875J0D01*
G01*
G37*
G36*
G01*
X184308875Y-117570000D02*
X185261125Y-117570000D01*
G75*
G02*
X185536000Y-117844875I0J-274875D01*
G01*
X185536000Y-118422125D01*
G75*
G02*
X185261125Y-118697000I-274875J0D01*
G01*
X184308875Y-118697000D01*
G75*
G02*
X184034000Y-118422125I0J274875D01*
G01*
X184034000Y-117844875D01*
G75*
G02*
X184308875Y-117570000I274875J0D01*
G01*
G37*
G36*
G01*
X184308875Y-115745000D02*
X185261125Y-115745000D01*
G75*
G02*
X185536000Y-116019875I0J-274875D01*
G01*
X185536000Y-116597125D01*
G75*
G02*
X185261125Y-116872000I-274875J0D01*
G01*
X184308875Y-116872000D01*
G75*
G02*
X184034000Y-116597125I0J274875D01*
G01*
X184034000Y-116019875D01*
G75*
G02*
X184308875Y-115745000I274875J0D01*
G01*
G37*
G36*
G01*
X184308875Y-110712000D02*
X185261125Y-110712000D01*
G75*
G02*
X185536000Y-110986875I0J-274875D01*
G01*
X185536000Y-111564125D01*
G75*
G02*
X185261125Y-111839000I-274875J0D01*
G01*
X184308875Y-111839000D01*
G75*
G02*
X184034000Y-111564125I0J274875D01*
G01*
X184034000Y-110986875D01*
G75*
G02*
X184308875Y-110712000I274875J0D01*
G01*
G37*
G36*
G01*
X184308875Y-108887000D02*
X185261125Y-108887000D01*
G75*
G02*
X185536000Y-109161875I0J-274875D01*
G01*
X185536000Y-109739125D01*
G75*
G02*
X185261125Y-110014000I-274875J0D01*
G01*
X184308875Y-110014000D01*
G75*
G02*
X184034000Y-109739125I0J274875D01*
G01*
X184034000Y-109161875D01*
G75*
G02*
X184308875Y-108887000I274875J0D01*
G01*
G37*
G36*
G01*
X184308875Y-114141000D02*
X185261125Y-114141000D01*
G75*
G02*
X185536000Y-114415875I0J-274875D01*
G01*
X185536000Y-114993125D01*
G75*
G02*
X185261125Y-115268000I-274875J0D01*
G01*
X184308875Y-115268000D01*
G75*
G02*
X184034000Y-114993125I0J274875D01*
G01*
X184034000Y-114415875D01*
G75*
G02*
X184308875Y-114141000I274875J0D01*
G01*
G37*
G36*
G01*
X184308875Y-112316000D02*
X185261125Y-112316000D01*
G75*
G02*
X185536000Y-112590875I0J-274875D01*
G01*
X185536000Y-113168125D01*
G75*
G02*
X185261125Y-113443000I-274875J0D01*
G01*
X184308875Y-113443000D01*
G75*
G02*
X184034000Y-113168125I0J274875D01*
G01*
X184034000Y-112590875D01*
G75*
G02*
X184308875Y-112316000I274875J0D01*
G01*
G37*
G36*
G01*
X184308875Y-100425000D02*
X185261125Y-100425000D01*
G75*
G02*
X185536000Y-100699875I0J-274875D01*
G01*
X185536000Y-101277125D01*
G75*
G02*
X185261125Y-101552000I-274875J0D01*
G01*
X184308875Y-101552000D01*
G75*
G02*
X184034000Y-101277125I0J274875D01*
G01*
X184034000Y-100699875D01*
G75*
G02*
X184308875Y-100425000I274875J0D01*
G01*
G37*
G36*
G01*
X184308875Y-98600000D02*
X185261125Y-98600000D01*
G75*
G02*
X185536000Y-98874875I0J-274875D01*
G01*
X185536000Y-99452125D01*
G75*
G02*
X185261125Y-99727000I-274875J0D01*
G01*
X184308875Y-99727000D01*
G75*
G02*
X184034000Y-99452125I0J274875D01*
G01*
X184034000Y-98874875D01*
G75*
G02*
X184308875Y-98600000I274875J0D01*
G01*
G37*
G36*
G01*
X184308875Y-103854000D02*
X185261125Y-103854000D01*
G75*
G02*
X185536000Y-104128875I0J-274875D01*
G01*
X185536000Y-104706125D01*
G75*
G02*
X185261125Y-104981000I-274875J0D01*
G01*
X184308875Y-104981000D01*
G75*
G02*
X184034000Y-104706125I0J274875D01*
G01*
X184034000Y-104128875D01*
G75*
G02*
X184308875Y-103854000I274875J0D01*
G01*
G37*
G36*
G01*
X184308875Y-102029000D02*
X185261125Y-102029000D01*
G75*
G02*
X185536000Y-102303875I0J-274875D01*
G01*
X185536000Y-102881125D01*
G75*
G02*
X185261125Y-103156000I-274875J0D01*
G01*
X184308875Y-103156000D01*
G75*
G02*
X184034000Y-102881125I0J274875D01*
G01*
X184034000Y-102303875D01*
G75*
G02*
X184308875Y-102029000I274875J0D01*
G01*
G37*
G36*
G01*
X184308875Y-107283000D02*
X185261125Y-107283000D01*
G75*
G02*
X185536000Y-107557875I0J-274875D01*
G01*
X185536000Y-108135125D01*
G75*
G02*
X185261125Y-108410000I-274875J0D01*
G01*
X184308875Y-108410000D01*
G75*
G02*
X184034000Y-108135125I0J274875D01*
G01*
X184034000Y-107557875D01*
G75*
G02*
X184308875Y-107283000I274875J0D01*
G01*
G37*
G36*
G01*
X184308875Y-105458000D02*
X185261125Y-105458000D01*
G75*
G02*
X185536000Y-105732875I0J-274875D01*
G01*
X185536000Y-106310125D01*
G75*
G02*
X185261125Y-106585000I-274875J0D01*
G01*
X184308875Y-106585000D01*
G75*
G02*
X184034000Y-106310125I0J274875D01*
G01*
X184034000Y-105732875D01*
G75*
G02*
X184308875Y-105458000I274875J0D01*
G01*
G37*
G36*
G01*
X181959000Y-118586125D02*
X181959000Y-117633875D01*
G75*
G02*
X182233875Y-117359000I274875J0D01*
G01*
X182811125Y-117359000D01*
G75*
G02*
X183086000Y-117633875I0J-274875D01*
G01*
X183086000Y-118586125D01*
G75*
G02*
X182811125Y-118861000I-274875J0D01*
G01*
X182233875Y-118861000D01*
G75*
G02*
X181959000Y-118586125I0J274875D01*
G01*
G37*
G36*
G01*
X180134000Y-118586125D02*
X180134000Y-117633875D01*
G75*
G02*
X180408875Y-117359000I274875J0D01*
G01*
X180986125Y-117359000D01*
G75*
G02*
X181261000Y-117633875I0J-274875D01*
G01*
X181261000Y-118586125D01*
G75*
G02*
X180986125Y-118861000I-274875J0D01*
G01*
X180408875Y-118861000D01*
G75*
G02*
X180134000Y-118586125I0J274875D01*
G01*
G37*
G36*
G01*
X168243000Y-118586125D02*
X168243000Y-117633875D01*
G75*
G02*
X168517875Y-117359000I274875J0D01*
G01*
X169095125Y-117359000D01*
G75*
G02*
X169370000Y-117633875I0J-274875D01*
G01*
X169370000Y-118586125D01*
G75*
G02*
X169095125Y-118861000I-274875J0D01*
G01*
X168517875Y-118861000D01*
G75*
G02*
X168243000Y-118586125I0J274875D01*
G01*
G37*
G36*
G01*
X166418000Y-118586125D02*
X166418000Y-117633875D01*
G75*
G02*
X166692875Y-117359000I274875J0D01*
G01*
X167270125Y-117359000D01*
G75*
G02*
X167545000Y-117633875I0J-274875D01*
G01*
X167545000Y-118586125D01*
G75*
G02*
X167270125Y-118861000I-274875J0D01*
G01*
X166692875Y-118861000D01*
G75*
G02*
X166418000Y-118586125I0J274875D01*
G01*
G37*
G36*
G01*
X171799000Y-118586125D02*
X171799000Y-117633875D01*
G75*
G02*
X172073875Y-117359000I274875J0D01*
G01*
X172651125Y-117359000D01*
G75*
G02*
X172926000Y-117633875I0J-274875D01*
G01*
X172926000Y-118586125D01*
G75*
G02*
X172651125Y-118861000I-274875J0D01*
G01*
X172073875Y-118861000D01*
G75*
G02*
X171799000Y-118586125I0J274875D01*
G01*
G37*
G36*
G01*
X169974000Y-118586125D02*
X169974000Y-117633875D01*
G75*
G02*
X170248875Y-117359000I274875J0D01*
G01*
X170826125Y-117359000D01*
G75*
G02*
X171101000Y-117633875I0J-274875D01*
G01*
X171101000Y-118586125D01*
G75*
G02*
X170826125Y-118861000I-274875J0D01*
G01*
X170248875Y-118861000D01*
G75*
G02*
X169974000Y-118586125I0J274875D01*
G01*
G37*
G36*
G01*
X175288960Y-118614065D02*
X175288960Y-117661815D01*
G75*
G02*
X175563835Y-117386940I274875J0D01*
G01*
X176141085Y-117386940D01*
G75*
G02*
X176415960Y-117661815I0J-274875D01*
G01*
X176415960Y-118614065D01*
G75*
G02*
X176141085Y-118888940I-274875J0D01*
G01*
X175563835Y-118888940D01*
G75*
G02*
X175288960Y-118614065I0J274875D01*
G01*
G37*
G36*
G01*
X173463960Y-118614065D02*
X173463960Y-117661815D01*
G75*
G02*
X173738835Y-117386940I274875J0D01*
G01*
X174316085Y-117386940D01*
G75*
G02*
X174590960Y-117661815I0J-274875D01*
G01*
X174590960Y-118614065D01*
G75*
G02*
X174316085Y-118888940I-274875J0D01*
G01*
X173738835Y-118888940D01*
G75*
G02*
X173463960Y-118614065I0J274875D01*
G01*
G37*
G36*
G01*
X174214000Y-108664999D02*
X173364000Y-108664999D01*
G75*
G02*
X173313000Y-108613999I0J51000D01*
G01*
X173313000Y-108333999D01*
G75*
G02*
X173364000Y-108282999I51000J0D01*
G01*
X174214000Y-108282999D01*
G75*
G02*
X174265000Y-108333999I0J-51000D01*
G01*
X174265000Y-108613999D01*
G75*
G02*
X174214000Y-108664999I-51000J0D01*
G01*
G37*
G36*
G01*
X174214000Y-109165001D02*
X173364000Y-109165001D01*
G75*
G02*
X173313000Y-109114001I0J51000D01*
G01*
X173313000Y-108834001D01*
G75*
G02*
X173364000Y-108783001I51000J0D01*
G01*
X174214000Y-108783001D01*
G75*
G02*
X174265000Y-108834001I0J-51000D01*
G01*
X174265000Y-109114001D01*
G75*
G02*
X174214000Y-109165001I-51000J0D01*
G01*
G37*
G36*
G01*
X174214000Y-109665000D02*
X173364000Y-109665000D01*
G75*
G02*
X173313000Y-109614000I0J51000D01*
G01*
X173313000Y-109334000D01*
G75*
G02*
X173364000Y-109283000I51000J0D01*
G01*
X174214000Y-109283000D01*
G75*
G02*
X174265000Y-109334000I0J-51000D01*
G01*
X174265000Y-109614000D01*
G75*
G02*
X174214000Y-109665000I-51000J0D01*
G01*
G37*
G36*
G01*
X174214000Y-110164999D02*
X173364000Y-110164999D01*
G75*
G02*
X173313000Y-110113999I0J51000D01*
G01*
X173313000Y-109833999D01*
G75*
G02*
X173364000Y-109782999I51000J0D01*
G01*
X174214000Y-109782999D01*
G75*
G02*
X174265000Y-109833999I0J-51000D01*
G01*
X174265000Y-110113999D01*
G75*
G02*
X174214000Y-110164999I-51000J0D01*
G01*
G37*
G36*
G01*
X174214000Y-110665001D02*
X173364000Y-110665001D01*
G75*
G02*
X173313000Y-110614001I0J51000D01*
G01*
X173313000Y-110334001D01*
G75*
G02*
X173364000Y-110283001I51000J0D01*
G01*
X174214000Y-110283001D01*
G75*
G02*
X174265000Y-110334001I0J-51000D01*
G01*
X174265000Y-110614001D01*
G75*
G02*
X174214000Y-110665001I-51000J0D01*
G01*
G37*
G36*
G01*
X174322748Y-111624000D02*
X174322748Y-110774000D01*
G75*
G02*
X174373748Y-110723000I51000J0D01*
G01*
X174653748Y-110723000D01*
G75*
G02*
X174704748Y-110774000I0J-51000D01*
G01*
X174704748Y-111624000D01*
G75*
G02*
X174653748Y-111675000I-51000J0D01*
G01*
X174373748Y-111675000D01*
G75*
G02*
X174322748Y-111624000I0J51000D01*
G01*
G37*
G36*
G01*
X174822874Y-111624000D02*
X174822874Y-110774000D01*
G75*
G02*
X174873874Y-110723000I51000J0D01*
G01*
X175153874Y-110723000D01*
G75*
G02*
X175204874Y-110774000I0J-51000D01*
G01*
X175204874Y-111624000D01*
G75*
G02*
X175153874Y-111675000I-51000J0D01*
G01*
X174873874Y-111675000D01*
G75*
G02*
X174822874Y-111624000I0J51000D01*
G01*
G37*
G36*
G01*
X175323000Y-111624000D02*
X175323000Y-110774000D01*
G75*
G02*
X175374000Y-110723000I51000J0D01*
G01*
X175654000Y-110723000D01*
G75*
G02*
X175705000Y-110774000I0J-51000D01*
G01*
X175705000Y-111624000D01*
G75*
G02*
X175654000Y-111675000I-51000J0D01*
G01*
X175374000Y-111675000D01*
G75*
G02*
X175323000Y-111624000I0J51000D01*
G01*
G37*
G36*
G01*
X175823126Y-111624000D02*
X175823126Y-110774000D01*
G75*
G02*
X175874126Y-110723000I51000J0D01*
G01*
X176154126Y-110723000D01*
G75*
G02*
X176205126Y-110774000I0J-51000D01*
G01*
X176205126Y-111624000D01*
G75*
G02*
X176154126Y-111675000I-51000J0D01*
G01*
X175874126Y-111675000D01*
G75*
G02*
X175823126Y-111624000I0J51000D01*
G01*
G37*
G36*
G01*
X176323252Y-111624000D02*
X176323252Y-110774000D01*
G75*
G02*
X176374252Y-110723000I51000J0D01*
G01*
X176654252Y-110723000D01*
G75*
G02*
X176705252Y-110774000I0J-51000D01*
G01*
X176705252Y-111624000D01*
G75*
G02*
X176654252Y-111675000I-51000J0D01*
G01*
X176374252Y-111675000D01*
G75*
G02*
X176323252Y-111624000I0J51000D01*
G01*
G37*
G36*
G01*
X177664000Y-110665001D02*
X176814000Y-110665001D01*
G75*
G02*
X176763000Y-110614001I0J51000D01*
G01*
X176763000Y-110334001D01*
G75*
G02*
X176814000Y-110283001I51000J0D01*
G01*
X177664000Y-110283001D01*
G75*
G02*
X177715000Y-110334001I0J-51000D01*
G01*
X177715000Y-110614001D01*
G75*
G02*
X177664000Y-110665001I-51000J0D01*
G01*
G37*
G36*
G01*
X177664000Y-110164999D02*
X176814000Y-110164999D01*
G75*
G02*
X176763000Y-110113999I0J51000D01*
G01*
X176763000Y-109833999D01*
G75*
G02*
X176814000Y-109782999I51000J0D01*
G01*
X177664000Y-109782999D01*
G75*
G02*
X177715000Y-109833999I0J-51000D01*
G01*
X177715000Y-110113999D01*
G75*
G02*
X177664000Y-110164999I-51000J0D01*
G01*
G37*
G36*
G01*
X177664000Y-109665000D02*
X176814000Y-109665000D01*
G75*
G02*
X176763000Y-109614000I0J51000D01*
G01*
X176763000Y-109334000D01*
G75*
G02*
X176814000Y-109283000I51000J0D01*
G01*
X177664000Y-109283000D01*
G75*
G02*
X177715000Y-109334000I0J-51000D01*
G01*
X177715000Y-109614000D01*
G75*
G02*
X177664000Y-109665000I-51000J0D01*
G01*
G37*
G36*
G01*
X177664000Y-109165001D02*
X176814000Y-109165001D01*
G75*
G02*
X176763000Y-109114001I0J51000D01*
G01*
X176763000Y-108834001D01*
G75*
G02*
X176814000Y-108783001I51000J0D01*
G01*
X177664000Y-108783001D01*
G75*
G02*
X177715000Y-108834001I0J-51000D01*
G01*
X177715000Y-109114001D01*
G75*
G02*
X177664000Y-109165001I-51000J0D01*
G01*
G37*
G36*
G01*
X177664000Y-108664999D02*
X176814000Y-108664999D01*
G75*
G02*
X176763000Y-108613999I0J51000D01*
G01*
X176763000Y-108333999D01*
G75*
G02*
X176814000Y-108282999I51000J0D01*
G01*
X177664000Y-108282999D01*
G75*
G02*
X177715000Y-108333999I0J-51000D01*
G01*
X177715000Y-108613999D01*
G75*
G02*
X177664000Y-108664999I-51000J0D01*
G01*
G37*
G36*
G01*
X176323252Y-108174000D02*
X176323252Y-107324000D01*
G75*
G02*
X176374252Y-107273000I51000J0D01*
G01*
X176654252Y-107273000D01*
G75*
G02*
X176705252Y-107324000I0J-51000D01*
G01*
X176705252Y-108174000D01*
G75*
G02*
X176654252Y-108225000I-51000J0D01*
G01*
X176374252Y-108225000D01*
G75*
G02*
X176323252Y-108174000I0J51000D01*
G01*
G37*
G36*
G01*
X175823126Y-108174000D02*
X175823126Y-107324000D01*
G75*
G02*
X175874126Y-107273000I51000J0D01*
G01*
X176154126Y-107273000D01*
G75*
G02*
X176205126Y-107324000I0J-51000D01*
G01*
X176205126Y-108174000D01*
G75*
G02*
X176154126Y-108225000I-51000J0D01*
G01*
X175874126Y-108225000D01*
G75*
G02*
X175823126Y-108174000I0J51000D01*
G01*
G37*
G36*
G01*
X175323000Y-108174000D02*
X175323000Y-107324000D01*
G75*
G02*
X175374000Y-107273000I51000J0D01*
G01*
X175654000Y-107273000D01*
G75*
G02*
X175705000Y-107324000I0J-51000D01*
G01*
X175705000Y-108174000D01*
G75*
G02*
X175654000Y-108225000I-51000J0D01*
G01*
X175374000Y-108225000D01*
G75*
G02*
X175323000Y-108174000I0J51000D01*
G01*
G37*
G36*
G01*
X174822874Y-108174000D02*
X174822874Y-107324000D01*
G75*
G02*
X174873874Y-107273000I51000J0D01*
G01*
X175153874Y-107273000D01*
G75*
G02*
X175204874Y-107324000I0J-51000D01*
G01*
X175204874Y-108174000D01*
G75*
G02*
X175153874Y-108225000I-51000J0D01*
G01*
X174873874Y-108225000D01*
G75*
G02*
X174822874Y-108174000I0J51000D01*
G01*
G37*
G36*
G01*
X174322748Y-108174000D02*
X174322748Y-107324000D01*
G75*
G02*
X174373748Y-107273000I51000J0D01*
G01*
X174653748Y-107273000D01*
G75*
G02*
X174704748Y-107324000I0J-51000D01*
G01*
X174704748Y-108174000D01*
G75*
G02*
X174653748Y-108225000I-51000J0D01*
G01*
X174373748Y-108225000D01*
G75*
G02*
X174322748Y-108174000I0J51000D01*
G01*
G37*
G36*
G01*
X174438000Y-110499000D02*
X174438000Y-108449000D01*
G75*
G02*
X174489000Y-108398000I51000J0D01*
G01*
X176539000Y-108398000D01*
G75*
G02*
X176590000Y-108449000I0J-51000D01*
G01*
X176590000Y-110499000D01*
G75*
G02*
X176539000Y-110550000I-51000J0D01*
G01*
X174489000Y-110550000D01*
G75*
G02*
X174438000Y-110499000I0J51000D01*
G01*
G37*
D14*
X175120300Y-109867700D03*
X175120300Y-109080300D03*
X175907700Y-109867700D03*
X175907700Y-109080300D03*
G36*
G01*
X174054400Y-92774200D02*
X175754400Y-92774200D01*
G75*
G02*
X175805400Y-92825200I0J-51000D01*
G01*
X175805400Y-94525200D01*
G75*
G02*
X175754400Y-94576200I-51000J0D01*
G01*
X174054400Y-94576200D01*
G75*
G02*
X174003400Y-94525200I0J51000D01*
G01*
X174003400Y-92825200D01*
G75*
G02*
X174054400Y-92774200I51000J0D01*
G01*
G37*
D12*
X172364400Y-93675200D03*
X169824400Y-93675200D03*
G36*
G01*
X172942125Y-103092500D02*
X171989875Y-103092500D01*
G75*
G02*
X171715000Y-102817625I0J274875D01*
G01*
X171715000Y-102240375D01*
G75*
G02*
X171989875Y-101965500I274875J0D01*
G01*
X172942125Y-101965500D01*
G75*
G02*
X173217000Y-102240375I0J-274875D01*
G01*
X173217000Y-102817625D01*
G75*
G02*
X172942125Y-103092500I-274875J0D01*
G01*
G37*
G36*
G01*
X172942125Y-104917500D02*
X171989875Y-104917500D01*
G75*
G02*
X171715000Y-104642625I0J274875D01*
G01*
X171715000Y-104065375D01*
G75*
G02*
X171989875Y-103790500I274875J0D01*
G01*
X172942125Y-103790500D01*
G75*
G02*
X173217000Y-104065375I0J-274875D01*
G01*
X173217000Y-104642625D01*
G75*
G02*
X172942125Y-104917500I-274875J0D01*
G01*
G37*
G36*
G01*
X181006625Y-103156000D02*
X180054375Y-103156000D01*
G75*
G02*
X179779500Y-102881125I0J274875D01*
G01*
X179779500Y-102303875D01*
G75*
G02*
X180054375Y-102029000I274875J0D01*
G01*
X181006625Y-102029000D01*
G75*
G02*
X181281500Y-102303875I0J-274875D01*
G01*
X181281500Y-102881125D01*
G75*
G02*
X181006625Y-103156000I-274875J0D01*
G01*
G37*
G36*
G01*
X181006625Y-104981000D02*
X180054375Y-104981000D01*
G75*
G02*
X179779500Y-104706125I0J274875D01*
G01*
X179779500Y-104128875D01*
G75*
G02*
X180054375Y-103854000I274875J0D01*
G01*
X181006625Y-103854000D01*
G75*
G02*
X181281500Y-104128875I0J-274875D01*
G01*
X181281500Y-104706125D01*
G75*
G02*
X181006625Y-104981000I-274875J0D01*
G01*
G37*
G36*
G01*
X169957875Y-103790500D02*
X170910125Y-103790500D01*
G75*
G02*
X171185000Y-104065375I0J-274875D01*
G01*
X171185000Y-104642625D01*
G75*
G02*
X170910125Y-104917500I-274875J0D01*
G01*
X169957875Y-104917500D01*
G75*
G02*
X169683000Y-104642625I0J274875D01*
G01*
X169683000Y-104065375D01*
G75*
G02*
X169957875Y-103790500I274875J0D01*
G01*
G37*
G36*
G01*
X169957875Y-101965500D02*
X170910125Y-101965500D01*
G75*
G02*
X171185000Y-102240375I0J-274875D01*
G01*
X171185000Y-102817625D01*
G75*
G02*
X170910125Y-103092500I-274875J0D01*
G01*
X169957875Y-103092500D01*
G75*
G02*
X169683000Y-102817625I0J274875D01*
G01*
X169683000Y-102240375D01*
G75*
G02*
X169957875Y-101965500I274875J0D01*
G01*
G37*
G36*
G01*
X178022375Y-103854000D02*
X178974625Y-103854000D01*
G75*
G02*
X179249500Y-104128875I0J-274875D01*
G01*
X179249500Y-104706125D01*
G75*
G02*
X178974625Y-104981000I-274875J0D01*
G01*
X178022375Y-104981000D01*
G75*
G02*
X177747500Y-104706125I0J274875D01*
G01*
X177747500Y-104128875D01*
G75*
G02*
X178022375Y-103854000I274875J0D01*
G01*
G37*
G36*
G01*
X178022375Y-102029000D02*
X178974625Y-102029000D01*
G75*
G02*
X179249500Y-102303875I0J-274875D01*
G01*
X179249500Y-102881125D01*
G75*
G02*
X178974625Y-103156000I-274875J0D01*
G01*
X178022375Y-103156000D01*
G75*
G02*
X177747500Y-102881125I0J274875D01*
G01*
X177747500Y-102303875D01*
G75*
G02*
X178022375Y-102029000I274875J0D01*
G01*
G37*
G36*
G01*
X166418000Y-116427125D02*
X166418000Y-115474875D01*
G75*
G02*
X166692875Y-115200000I274875J0D01*
G01*
X167270125Y-115200000D01*
G75*
G02*
X167545000Y-115474875I0J-274875D01*
G01*
X167545000Y-116427125D01*
G75*
G02*
X167270125Y-116702000I-274875J0D01*
G01*
X166692875Y-116702000D01*
G75*
G02*
X166418000Y-116427125I0J274875D01*
G01*
G37*
G36*
G01*
X168243000Y-116427125D02*
X168243000Y-115474875D01*
G75*
G02*
X168517875Y-115200000I274875J0D01*
G01*
X169095125Y-115200000D01*
G75*
G02*
X169370000Y-115474875I0J-274875D01*
G01*
X169370000Y-116427125D01*
G75*
G02*
X169095125Y-116702000I-274875J0D01*
G01*
X168517875Y-116702000D01*
G75*
G02*
X168243000Y-116427125I0J274875D01*
G01*
G37*
X188252100Y-100393500D03*
X188252100Y-102933500D03*
G36*
G01*
X189153100Y-104623500D02*
X189153100Y-106323500D01*
G75*
G02*
X189102100Y-106374500I-51000J0D01*
G01*
X187402100Y-106374500D01*
G75*
G02*
X187351100Y-106323500I0J51000D01*
G01*
X187351100Y-104623500D01*
G75*
G02*
X187402100Y-104572500I51000J0D01*
G01*
X189102100Y-104572500D01*
G75*
G02*
X189153100Y-104623500I0J-51000D01*
G01*
G37*
G36*
G01*
X171850000Y-99386500D02*
X171050000Y-99386500D01*
G75*
G02*
X170999000Y-99335500I0J51000D01*
G01*
X170999000Y-98435500D01*
G75*
G02*
X171050000Y-98384500I51000J0D01*
G01*
X171850000Y-98384500D01*
G75*
G02*
X171901000Y-98435500I0J-51000D01*
G01*
X171901000Y-99335500D01*
G75*
G02*
X171850000Y-99386500I-51000J0D01*
G01*
G37*
G36*
G01*
X172800000Y-101386500D02*
X172000000Y-101386500D01*
G75*
G02*
X171949000Y-101335500I0J51000D01*
G01*
X171949000Y-100435500D01*
G75*
G02*
X172000000Y-100384500I51000J0D01*
G01*
X172800000Y-100384500D01*
G75*
G02*
X172851000Y-100435500I0J-51000D01*
G01*
X172851000Y-101335500D01*
G75*
G02*
X172800000Y-101386500I-51000J0D01*
G01*
G37*
G36*
G01*
X170900000Y-101386500D02*
X170100000Y-101386500D01*
G75*
G02*
X170049000Y-101335500I0J51000D01*
G01*
X170049000Y-100435500D01*
G75*
G02*
X170100000Y-100384500I51000J0D01*
G01*
X170900000Y-100384500D01*
G75*
G02*
X170951000Y-100435500I0J-51000D01*
G01*
X170951000Y-101335500D01*
G75*
G02*
X170900000Y-101386500I-51000J0D01*
G01*
G37*
G36*
G01*
X179914500Y-99386500D02*
X179114500Y-99386500D01*
G75*
G02*
X179063500Y-99335500I0J51000D01*
G01*
X179063500Y-98435500D01*
G75*
G02*
X179114500Y-98384500I51000J0D01*
G01*
X179914500Y-98384500D01*
G75*
G02*
X179965500Y-98435500I0J-51000D01*
G01*
X179965500Y-99335500D01*
G75*
G02*
X179914500Y-99386500I-51000J0D01*
G01*
G37*
G36*
G01*
X180864500Y-101386500D02*
X180064500Y-101386500D01*
G75*
G02*
X180013500Y-101335500I0J51000D01*
G01*
X180013500Y-100435500D01*
G75*
G02*
X180064500Y-100384500I51000J0D01*
G01*
X180864500Y-100384500D01*
G75*
G02*
X180915500Y-100435500I0J-51000D01*
G01*
X180915500Y-101335500D01*
G75*
G02*
X180864500Y-101386500I-51000J0D01*
G01*
G37*
G36*
G01*
X178964500Y-101386500D02*
X178164500Y-101386500D01*
G75*
G02*
X178113500Y-101335500I0J51000D01*
G01*
X178113500Y-100435500D01*
G75*
G02*
X178164500Y-100384500I51000J0D01*
G01*
X178964500Y-100384500D01*
G75*
G02*
X179015500Y-100435500I0J-51000D01*
G01*
X179015500Y-101335500D01*
G75*
G02*
X178964500Y-101386500I-51000J0D01*
G01*
G37*
G36*
G01*
X182312800Y-103802800D02*
X182913800Y-103802800D01*
G75*
G02*
X183139300Y-104028300I0J-225500D01*
G01*
X183139300Y-104479300D01*
G75*
G02*
X182913800Y-104704800I-225500J0D01*
G01*
X182312800Y-104704800D01*
G75*
G02*
X182087300Y-104479300I0J225500D01*
G01*
X182087300Y-104028300D01*
G75*
G02*
X182312800Y-103802800I225500J0D01*
G01*
G37*
G36*
G01*
X182312800Y-102152800D02*
X182913800Y-102152800D01*
G75*
G02*
X183139300Y-102378300I0J-225500D01*
G01*
X183139300Y-102829300D01*
G75*
G02*
X182913800Y-103054800I-225500J0D01*
G01*
X182312800Y-103054800D01*
G75*
G02*
X182087300Y-102829300I0J225500D01*
G01*
X182087300Y-102378300D01*
G75*
G02*
X182312800Y-102152800I225500J0D01*
G01*
G37*
G36*
G01*
X182312800Y-107231800D02*
X182913800Y-107231800D01*
G75*
G02*
X183139300Y-107457300I0J-225500D01*
G01*
X183139300Y-107908300D01*
G75*
G02*
X182913800Y-108133800I-225500J0D01*
G01*
X182312800Y-108133800D01*
G75*
G02*
X182087300Y-107908300I0J225500D01*
G01*
X182087300Y-107457300D01*
G75*
G02*
X182312800Y-107231800I225500J0D01*
G01*
G37*
G36*
G01*
X182312800Y-105581800D02*
X182913800Y-105581800D01*
G75*
G02*
X183139300Y-105807300I0J-225500D01*
G01*
X183139300Y-106258300D01*
G75*
G02*
X182913800Y-106483800I-225500J0D01*
G01*
X182312800Y-106483800D01*
G75*
G02*
X182087300Y-106258300I0J225500D01*
G01*
X182087300Y-105807300D01*
G75*
G02*
X182312800Y-105581800I225500J0D01*
G01*
G37*
G36*
G01*
X182312800Y-110660800D02*
X182913800Y-110660800D01*
G75*
G02*
X183139300Y-110886300I0J-225500D01*
G01*
X183139300Y-111337300D01*
G75*
G02*
X182913800Y-111562800I-225500J0D01*
G01*
X182312800Y-111562800D01*
G75*
G02*
X182087300Y-111337300I0J225500D01*
G01*
X182087300Y-110886300D01*
G75*
G02*
X182312800Y-110660800I225500J0D01*
G01*
G37*
G36*
G01*
X182312800Y-109010800D02*
X182913800Y-109010800D01*
G75*
G02*
X183139300Y-109236300I0J-225500D01*
G01*
X183139300Y-109687300D01*
G75*
G02*
X182913800Y-109912800I-225500J0D01*
G01*
X182312800Y-109912800D01*
G75*
G02*
X182087300Y-109687300I0J225500D01*
G01*
X182087300Y-109236300D01*
G75*
G02*
X182312800Y-109010800I225500J0D01*
G01*
G37*
G36*
G01*
X173348000Y-114854500D02*
X173348000Y-114253500D01*
G75*
G02*
X173573500Y-114028000I225500J0D01*
G01*
X174024500Y-114028000D01*
G75*
G02*
X174250000Y-114253500I0J-225500D01*
G01*
X174250000Y-114854500D01*
G75*
G02*
X174024500Y-115080000I-225500J0D01*
G01*
X173573500Y-115080000D01*
G75*
G02*
X173348000Y-114854500I0J225500D01*
G01*
G37*
G36*
G01*
X171698000Y-114854500D02*
X171698000Y-114253500D01*
G75*
G02*
X171923500Y-114028000I225500J0D01*
G01*
X172374500Y-114028000D01*
G75*
G02*
X172600000Y-114253500I0J-225500D01*
G01*
X172600000Y-114854500D01*
G75*
G02*
X172374500Y-115080000I-225500J0D01*
G01*
X171923500Y-115080000D01*
G75*
G02*
X171698000Y-114854500I0J225500D01*
G01*
G37*
G36*
G01*
X178428000Y-114854500D02*
X178428000Y-114253500D01*
G75*
G02*
X178653500Y-114028000I225500J0D01*
G01*
X179104500Y-114028000D01*
G75*
G02*
X179330000Y-114253500I0J-225500D01*
G01*
X179330000Y-114854500D01*
G75*
G02*
X179104500Y-115080000I-225500J0D01*
G01*
X178653500Y-115080000D01*
G75*
G02*
X178428000Y-114854500I0J225500D01*
G01*
G37*
G36*
G01*
X176778000Y-114854500D02*
X176778000Y-114253500D01*
G75*
G02*
X177003500Y-114028000I225500J0D01*
G01*
X177454500Y-114028000D01*
G75*
G02*
X177680000Y-114253500I0J-225500D01*
G01*
X177680000Y-114854500D01*
G75*
G02*
X177454500Y-115080000I-225500J0D01*
G01*
X177003500Y-115080000D01*
G75*
G02*
X176778000Y-114854500I0J225500D01*
G01*
G37*
G36*
G01*
X166306500Y-109889328D02*
X166306500Y-108931672D01*
G75*
G02*
X166578672Y-108659500I272172J0D01*
G01*
X167286328Y-108659500D01*
G75*
G02*
X167558500Y-108931672I0J-272172D01*
G01*
X167558500Y-109889328D01*
G75*
G02*
X167286328Y-110161500I-272172J0D01*
G01*
X166578672Y-110161500D01*
G75*
G02*
X166306500Y-109889328I0J272172D01*
G01*
G37*
G36*
G01*
X168356500Y-109889328D02*
X168356500Y-108931672D01*
G75*
G02*
X168628672Y-108659500I272172J0D01*
G01*
X169336328Y-108659500D01*
G75*
G02*
X169608500Y-108931672I0J-272172D01*
G01*
X169608500Y-109889328D01*
G75*
G02*
X169336328Y-110161500I-272172J0D01*
G01*
X168628672Y-110161500D01*
G75*
G02*
X168356500Y-109889328I0J272172D01*
G01*
G37*
G36*
G01*
X175913000Y-102481500D02*
X175913000Y-101480500D01*
G75*
G02*
X176188500Y-101205000I275500J0D01*
G01*
X176739500Y-101205000D01*
G75*
G02*
X177015000Y-101480500I0J-275500D01*
G01*
X177015000Y-102481500D01*
G75*
G02*
X176739500Y-102757000I-275500J0D01*
G01*
X176188500Y-102757000D01*
G75*
G02*
X175913000Y-102481500I0J275500D01*
G01*
G37*
G36*
G01*
X174013000Y-102481500D02*
X174013000Y-101480500D01*
G75*
G02*
X174288500Y-101205000I275500J0D01*
G01*
X174839500Y-101205000D01*
G75*
G02*
X175115000Y-101480500I0J-275500D01*
G01*
X175115000Y-102481500D01*
G75*
G02*
X174839500Y-102757000I-275500J0D01*
G01*
X174288500Y-102757000D01*
G75*
G02*
X174013000Y-102481500I0J275500D01*
G01*
G37*
G36*
G01*
X175913000Y-100322500D02*
X175913000Y-99321500D01*
G75*
G02*
X176188500Y-99046000I275500J0D01*
G01*
X176739500Y-99046000D01*
G75*
G02*
X177015000Y-99321500I0J-275500D01*
G01*
X177015000Y-100322500D01*
G75*
G02*
X176739500Y-100598000I-275500J0D01*
G01*
X176188500Y-100598000D01*
G75*
G02*
X175913000Y-100322500I0J275500D01*
G01*
G37*
G36*
G01*
X174013000Y-100322500D02*
X174013000Y-99321500D01*
G75*
G02*
X174288500Y-99046000I275500J0D01*
G01*
X174839500Y-99046000D01*
G75*
G02*
X175115000Y-99321500I0J-275500D01*
G01*
X175115000Y-100322500D01*
G75*
G02*
X174839500Y-100598000I-275500J0D01*
G01*
X174288500Y-100598000D01*
G75*
G02*
X174013000Y-100322500I0J275500D01*
G01*
G37*
G36*
G01*
X175913000Y-104640500D02*
X175913000Y-103639500D01*
G75*
G02*
X176188500Y-103364000I275500J0D01*
G01*
X176739500Y-103364000D01*
G75*
G02*
X177015000Y-103639500I0J-275500D01*
G01*
X177015000Y-104640500D01*
G75*
G02*
X176739500Y-104916000I-275500J0D01*
G01*
X176188500Y-104916000D01*
G75*
G02*
X175913000Y-104640500I0J275500D01*
G01*
G37*
G36*
G01*
X174013000Y-104640500D02*
X174013000Y-103639500D01*
G75*
G02*
X174288500Y-103364000I275500J0D01*
G01*
X174839500Y-103364000D01*
G75*
G02*
X175115000Y-103639500I0J-275500D01*
G01*
X175115000Y-104640500D01*
G75*
G02*
X174839500Y-104916000I-275500J0D01*
G01*
X174288500Y-104916000D01*
G75*
G02*
X174013000Y-104640500I0J275500D01*
G01*
G37*
G36*
G01*
X169395000Y-111069000D02*
X169395000Y-112070000D01*
G75*
G02*
X169119500Y-112345500I-275500J0D01*
G01*
X168568500Y-112345500D01*
G75*
G02*
X168293000Y-112070000I0J275500D01*
G01*
X168293000Y-111069000D01*
G75*
G02*
X168568500Y-110793500I275500J0D01*
G01*
X169119500Y-110793500D01*
G75*
G02*
X169395000Y-111069000I0J-275500D01*
G01*
G37*
G36*
G01*
X167495000Y-111069000D02*
X167495000Y-112070000D01*
G75*
G02*
X167219500Y-112345500I-275500J0D01*
G01*
X166668500Y-112345500D01*
G75*
G02*
X166393000Y-112070000I0J275500D01*
G01*
X166393000Y-111069000D01*
G75*
G02*
X166668500Y-110793500I275500J0D01*
G01*
X167219500Y-110793500D01*
G75*
G02*
X167495000Y-111069000I0J-275500D01*
G01*
G37*
G36*
G01*
X169395000Y-113291500D02*
X169395000Y-114292500D01*
G75*
G02*
X169119500Y-114568000I-275500J0D01*
G01*
X168568500Y-114568000D01*
G75*
G02*
X168293000Y-114292500I0J275500D01*
G01*
X168293000Y-113291500D01*
G75*
G02*
X168568500Y-113016000I275500J0D01*
G01*
X169119500Y-113016000D01*
G75*
G02*
X169395000Y-113291500I0J-275500D01*
G01*
G37*
G36*
G01*
X167495000Y-113291500D02*
X167495000Y-114292500D01*
G75*
G02*
X167219500Y-114568000I-275500J0D01*
G01*
X166668500Y-114568000D01*
G75*
G02*
X166393000Y-114292500I0J275500D01*
G01*
X166393000Y-113291500D01*
G75*
G02*
X166668500Y-113016000I275500J0D01*
G01*
X167219500Y-113016000D01*
G75*
G02*
X167495000Y-113291500I0J-275500D01*
G01*
G37*
D10*
G36*
X174824606Y-107272000D02*
G01*
X174824874Y-107273000D01*
X174824874Y-108223000D01*
X175202874Y-108223000D01*
X175202874Y-107273000D01*
X175203874Y-107271268D01*
X175204874Y-107271000D01*
X175323000Y-107271000D01*
X175324732Y-107272000D01*
X175325000Y-107273000D01*
X175325000Y-108223000D01*
X175703000Y-108223000D01*
X175703000Y-107273000D01*
X175704000Y-107271268D01*
X175705000Y-107271000D01*
X175823126Y-107271000D01*
X175824858Y-107272000D01*
X175825126Y-107273000D01*
X175825126Y-108223000D01*
X176203126Y-108223000D01*
X176203126Y-107273000D01*
X176204126Y-107271268D01*
X176205126Y-107271000D01*
X176323252Y-107271000D01*
X176324984Y-107272000D01*
X176325252Y-107273000D01*
X176325252Y-108223000D01*
X176703252Y-108223000D01*
X176703252Y-108158000D01*
X176704252Y-108156268D01*
X176706252Y-108156268D01*
X176707242Y-108157804D01*
X176709624Y-108181991D01*
X176716624Y-108205066D01*
X176727989Y-108226330D01*
X176743284Y-108244967D01*
X176761921Y-108260262D01*
X176783185Y-108271627D01*
X176806260Y-108278627D01*
X176830447Y-108281009D01*
X176832073Y-108282174D01*
X176831877Y-108284164D01*
X176830251Y-108284999D01*
X176765000Y-108284999D01*
X176765000Y-108662999D01*
X177715000Y-108662999D01*
X177716732Y-108663999D01*
X177717000Y-108664999D01*
X177717000Y-108783001D01*
X177716000Y-108784733D01*
X177715000Y-108785001D01*
X176765000Y-108785001D01*
X176765000Y-109163001D01*
X177715000Y-109163001D01*
X177716732Y-109164001D01*
X177717000Y-109165001D01*
X177717000Y-109283000D01*
X177716000Y-109284732D01*
X177715000Y-109285000D01*
X176765000Y-109285000D01*
X176765000Y-109663000D01*
X177715000Y-109663000D01*
X177716732Y-109664000D01*
X177717000Y-109665000D01*
X177717000Y-109782999D01*
X177716000Y-109784731D01*
X177715000Y-109784999D01*
X176765000Y-109784999D01*
X176765000Y-110162999D01*
X177715000Y-110162999D01*
X177716732Y-110163999D01*
X177717000Y-110164999D01*
X177717000Y-110283001D01*
X177716000Y-110284733D01*
X177715000Y-110285001D01*
X176765000Y-110285001D01*
X176765000Y-110663001D01*
X176830251Y-110663001D01*
X176831983Y-110664001D01*
X176831983Y-110666001D01*
X176830447Y-110666991D01*
X176806260Y-110669373D01*
X176783185Y-110676373D01*
X176761921Y-110687738D01*
X176743284Y-110703033D01*
X176727989Y-110721670D01*
X176716624Y-110742934D01*
X176709624Y-110766009D01*
X176707242Y-110790196D01*
X176706077Y-110791822D01*
X176704087Y-110791626D01*
X176703252Y-110790000D01*
X176703252Y-110725000D01*
X176325252Y-110725000D01*
X176325252Y-111675000D01*
X176324252Y-111676732D01*
X176323252Y-111677000D01*
X176205126Y-111677000D01*
X176203394Y-111676000D01*
X176203126Y-111675000D01*
X176203126Y-110725000D01*
X175825126Y-110725000D01*
X175825126Y-111675000D01*
X175824126Y-111676732D01*
X175823126Y-111677000D01*
X175705000Y-111677000D01*
X175703268Y-111676000D01*
X175703000Y-111675000D01*
X175703000Y-110725000D01*
X175325000Y-110725000D01*
X175325000Y-111675000D01*
X175324000Y-111676732D01*
X175323000Y-111677000D01*
X175204874Y-111677000D01*
X175203142Y-111676000D01*
X175202874Y-111675000D01*
X175202874Y-110725000D01*
X174824874Y-110725000D01*
X174824874Y-111675000D01*
X174823874Y-111676732D01*
X174822874Y-111677000D01*
X174704748Y-111677000D01*
X174703016Y-111676000D01*
X174702748Y-111675000D01*
X174702748Y-110725000D01*
X174324748Y-110725000D01*
X174324748Y-110790000D01*
X174323748Y-110791732D01*
X174321748Y-110791732D01*
X174320758Y-110790196D01*
X174318376Y-110766009D01*
X174311376Y-110742934D01*
X174300011Y-110721670D01*
X174284716Y-110703033D01*
X174266079Y-110687738D01*
X174244815Y-110676373D01*
X174221740Y-110669373D01*
X174197553Y-110666991D01*
X174195927Y-110665826D01*
X174196123Y-110663836D01*
X174197749Y-110663001D01*
X174263000Y-110663001D01*
X174263000Y-110285001D01*
X173313000Y-110285001D01*
X173311268Y-110284001D01*
X173311000Y-110283001D01*
X173311000Y-110164999D01*
X173312000Y-110163267D01*
X173313000Y-110162999D01*
X174263000Y-110162999D01*
X174263000Y-109784999D01*
X173313000Y-109784999D01*
X173311268Y-109783999D01*
X173311000Y-109782999D01*
X173311000Y-109665000D01*
X173312000Y-109663268D01*
X173313000Y-109663000D01*
X174263000Y-109663000D01*
X174263000Y-109285000D01*
X173313000Y-109285000D01*
X173311268Y-109284000D01*
X173311000Y-109283000D01*
X173311000Y-109165001D01*
X173312000Y-109163269D01*
X173313000Y-109163001D01*
X174263000Y-109163001D01*
X174263000Y-108785001D01*
X173313000Y-108785001D01*
X173311268Y-108784001D01*
X173311000Y-108783001D01*
X173311000Y-108664999D01*
X173312000Y-108663267D01*
X173313000Y-108662999D01*
X174263000Y-108662999D01*
X174263000Y-108400000D01*
X174440000Y-108400000D01*
X174440000Y-110548000D01*
X176588000Y-110548000D01*
X176588000Y-108400000D01*
X174440000Y-108400000D01*
X174263000Y-108400000D01*
X174263000Y-108284999D01*
X174197749Y-108284999D01*
X174196017Y-108283999D01*
X174196017Y-108281999D01*
X174197553Y-108281009D01*
X174221740Y-108278627D01*
X174244815Y-108271627D01*
X174266079Y-108260262D01*
X174284716Y-108244967D01*
X174300011Y-108226330D01*
X174311376Y-108205066D01*
X174318376Y-108181991D01*
X174320758Y-108157804D01*
X174321923Y-108156178D01*
X174323913Y-108156374D01*
X174324748Y-108158000D01*
X174324748Y-108223000D01*
X174702748Y-108223000D01*
X174702748Y-107273000D01*
X174703748Y-107271268D01*
X174704748Y-107271000D01*
X174822874Y-107271000D01*
X174824606Y-107272000D01*
G37*
M02*
